<svg id="ic_appicon" xmlns="http://www.w3.org/2000/svg" xmlns:xlink="http://www.w3.org/1999/xlink" width="160" height="126.632" viewBox="0 0 160 126.632">
  <defs>
    <clipPath id="clip-path">
      <path id="Clip_2" data-name="Clip 2" d="M0,0H88V35H0Z" fill="none"/>
    </clipPath>
    <filter id="Rectangle_Copy_2" x="6" y="6" width="154" height="120.632" filterUnits="userSpaceOnUse">
      <feOffset dy="4" input="SourceAlpha"/>
      <feGaussianBlur stdDeviation="8" result="blur"/>
      <feFlood flood-color="gray" flood-opacity="0.302"/>
      <feComposite operator="in" in2="blur"/>
      <feComposite in="SourceGraphic"/>
    </filter>
  </defs>
  <g id="Group_12" data-name="Group 12">
    <g id="Group_3_Copy_6" data-name="Group 3 Copy 6">
      <path id="Clip_2-2" data-name="Clip 2" d="M0,0H88V35H0Z" fill="none"/>
      <g id="Group_3_Copy_6-2" data-name="Group 3 Copy 6" clip-path="url(#clip-path)">
        <path id="Fill_1" data-name="Fill 1" d="M27.011,35H22.549V6.25h4.241v2.1h.062a4.951,4.951,0,0,1,2.074-1.935,6.331,6.331,0,0,1,2.763-.6,7.058,7.058,0,0,1,3.3.726A6.863,6.863,0,0,1,37.28,8.473a8.3,8.3,0,0,1,1.35,2.807,12.714,12.714,0,0,1,.439,3.35A11.428,11.428,0,0,1,38.63,17.8,8.25,8.25,0,0,1,37.3,20.5a6.439,6.439,0,0,1-5.354,2.567,6.285,6.285,0,0,1-2.78-.618,5.27,5.27,0,0,1-2.09-1.825h-.062V35ZM30.718,9.2a3.455,3.455,0,0,0-1.84.459,3.758,3.758,0,0,0-1.194,1.192,5.034,5.034,0,0,0-.644,1.681,10.264,10.264,0,0,0-.188,1.967,9.32,9.32,0,0,0,.2,1.936,5.065,5.065,0,0,0,.662,1.67,3.785,3.785,0,0,0,4.869,1.155,3.616,3.616,0,0,0,1.193-1.155,4.888,4.888,0,0,0,.643-1.67,9.961,9.961,0,0,0,.19-1.936,9.363,9.363,0,0,0-.2-1.937,5.323,5.323,0,0,0-.677-1.7,3.814,3.814,0,0,0-1.21-1.207A3.382,3.382,0,0,0,30.718,9.2ZM79.584,23.07a9.449,9.449,0,0,1-3.456-.6,7.469,7.469,0,0,1-2.637-1.731,7.8,7.8,0,0,1-1.7-2.713,10.133,10.133,0,0,1-.6-3.555,10.253,10.253,0,0,1,.6-3.569,7.776,7.776,0,0,1,1.7-2.729,7.651,7.651,0,0,1,2.637-1.746,9.244,9.244,0,0,1,3.456-.616,9.362,9.362,0,0,1,3.471.616,7.608,7.608,0,0,1,2.651,1.746A7.724,7.724,0,0,1,87.4,10.9,10.253,10.253,0,0,1,88,14.47a10.133,10.133,0,0,1-.6,3.555,7.749,7.749,0,0,1-1.7,2.713,7.424,7.424,0,0,1-2.651,1.731A9.57,9.57,0,0,1,79.584,23.07Zm0-13.867a3.547,3.547,0,0,0-1.885.459,3.723,3.723,0,0,0-1.212,1.192,5.1,5.1,0,0,0-.642,1.681,10.175,10.175,0,0,0-.185,1.936,9.965,9.965,0,0,0,.185,1.922,5.351,5.351,0,0,0,.642,1.681A3.53,3.53,0,0,0,77.7,19.263a3.641,3.641,0,0,0,1.885.444,3.745,3.745,0,0,0,1.9-.444,3.427,3.427,0,0,0,1.226-1.189,5.138,5.138,0,0,0,.644-1.681,9.907,9.907,0,0,0,.189-1.922,10.257,10.257,0,0,0-.189-1.936,4.965,4.965,0,0,0-.644-1.681A3.471,3.471,0,0,0,79.584,9.2ZM48.431,23.07a9.452,9.452,0,0,1-3.457-.6,7.473,7.473,0,0,1-2.638-1.731,7.742,7.742,0,0,1-1.7-2.713,10.118,10.118,0,0,1-.6-3.555,10.238,10.238,0,0,1,.6-3.569,7.469,7.469,0,0,1,4.333-4.475,9.22,9.22,0,0,1,3.457-.616,9.334,9.334,0,0,1,3.469.616,7.562,7.562,0,0,1,2.654,1.746,7.8,7.8,0,0,1,1.7,2.729,10.238,10.238,0,0,1,.6,3.569,10.118,10.118,0,0,1-.6,3.555,7.84,7.84,0,0,1-1.7,2.713A7.381,7.381,0,0,1,51.9,22.469,9.569,9.569,0,0,1,48.431,23.07Zm0-13.867a3.6,3.6,0,0,0-1.885.459,3.666,3.666,0,0,0-1.21,1.192,5,5,0,0,0-.644,1.681A9.963,9.963,0,0,0,44.5,14.47a9.758,9.758,0,0,0,.187,1.922,5.193,5.193,0,0,0,.644,1.681,3.432,3.432,0,0,0,1.21,1.189,3.681,3.681,0,0,0,1.885.444,3.753,3.753,0,0,0,1.9-.444,3.45,3.45,0,0,0,1.229-1.189,5.342,5.342,0,0,0,.642-1.681,9.507,9.507,0,0,0,.188-1.922,9.708,9.708,0,0,0-.188-1.936,5.081,5.081,0,0,0-.642-1.681A3.48,3.48,0,0,0,48.431,9.2ZM4.963,22.66H0L8.481,0h5.054l8.386,22.658H16.8l-1.7-5.049H6.721L4.963,22.659ZM10.93,5.585,8.008,13.9h5.809L10.993,5.585ZM69.909,22.659H65.45V0h4.46V22.658Zm-7.318,0H58.129V0h4.462V22.658Z" fill="#007c9d"/>
      </g>
    </g>
    <g id="Group_11" data-name="Group 11" transform="translate(30 26)">
      <g transform="matrix(1, 0, 0, 1, -30, -26)" filter="url(#Rectangle_Copy_2)">
        <path id="Rectangle_Copy_2-2" data-name="Rectangle Copy 2" d="M0,8.951A8.951,8.951,0,0,0-8.951,0h-88.1A8.951,8.951,0,0,0-106,8.951v62.56a1.119,1.119,0,0,0,1.746.927L-98.43,68.5a22.378,22.378,0,0,1,12.537-3.841H-8.951A8.951,8.951,0,0,0,0,55.706Z" transform="translate(136 26)" fill="#fcb716"/>
      </g>
      <text id="_24_7_copy_2" data-name="24/7 copy 2" transform="translate(52.5 51.345)" fill="#fff" font-size="47" font-family="SegoeUI, Segoe UI" letter-spacing="-0.021em"><tspan x="-45.692" y="0">24/7</tspan></text>
    </g>
  </g>
</svg>
