<?xml version="1.0" encoding="UTF-8"?>
<svg width="24px" height="20px" viewBox="0 0 24 20" version="1.1" xmlns="http://www.w3.org/2000/svg" xmlns:xlink="http://www.w3.org/1999/xlink">
    <!-- Generator: sketchtool 63.1 (101010) - https://sketch.com -->
    <title>483A4AA2-14CF-4AD4-92FD-FE4164FACFEF</title>
    <desc>Created with sketchtool.</desc>
    <defs>
        <polygon id="path-1" points="0.0241003026 0.0398013021 11.8252017 0.0398013021 11.8252017 9.15861514 0.0241003026 9.15861514"></polygon>
        <polygon id="path-3" points="0.0393904386 0.0409173412 7.00186011 0.0409173412 7.00186011 7.03480652 0.0393904386 7.03480652"></polygon>
    </defs>
    <g id="New-user" stroke="none" stroke-width="1" fill="none" fill-rule="evenodd">
        <g id="AFTER-LINKED--Manage-profile" transform="translate(-64.000000, -261.000000)">
            <g id="Linked-UHID" transform="translate(64.000000, 261.000000)">
                <g id="Group-15">
                    <path d="M0,11.4039757 C0.0916003882,11.0531328 0.160015426,10.6936823 0.278726243,10.3528581 C0.878441789,8.63152172 2.47918938,7.44860863 4.25843678,7.41723549 C5.26704514,7.39945581 6.27615554,7.41149708 7.28503775,7.41018006 C7.38243447,7.41003896 7.4798312,7.41018006 7.60096096,7.41018006 C7.66640937,8.58669623 8.08365439,9.58875518 8.88888889,10.413911 C6.09058147,11.517333 4.98516971,13.66985 5.2048372,16.6666667 C3.39870758,16.5624815 1.68276348,16.1860039 0,15.6290013 L0,11.4039757 Z" id="Fill-1" fill="#03475A"></path>
                    <g id="Group-5" transform="translate(5.925926, 10.740741)">
                        <mask id="mask-2" fill="white">
                            <use xlink:href="#path-1"></use>
                        </mask>
                        <g id="Clip-4"></g>
                        <path d="M0.0346609021,6.00991547 C0.0346609021,5.4281363 0.0235007926,4.84617305 0.0367822453,4.26476207 C0.0751508863,2.58523773 1.24202796,0.940829095 2.83192852,0.378195577 C3.2946119,0.214445061 3.795295,0.093542137 4.28283499,0.0767436721 C5.42379478,0.0373938432 6.57153365,0.0131396212 7.70912696,0.0907347223 C9.97509036,0.245188553 11.6882594,2.00428698 11.7946955,4.26752346 C11.8518334,5.48212151 11.8124963,6.7013679 11.8054867,7.91854325 C11.8050716,7.98914283 11.7186961,8.08873701 11.6469854,8.12500329 C10.875785,8.51504984 10.0471238,8.73499467 9.20412048,8.89524742 C8.01792074,9.12076106 6.81857789,9.19025608 5.61162588,9.14602779 C3.84800576,9.08141123 2.13202363,8.75082665 0.446063121,8.24530791 C0.024515348,8.11892823 0.0241003026,8.12017085 0.0241003026,7.68649432 L0.0241003026,6.00991547 L0.0346609021,6.00991547 Z" id="Fill-3" fill="#03475A" mask="url(#mask-2)"></path>
                    </g>
                    <path d="M18.4760589,16.6666667 C18.4760589,16.1453605 18.4903601,15.6808613 18.4735995,15.2175766 C18.3983587,13.1382382 17.0066333,11.2152122 15.0866743,10.5226912 C14.9965858,10.4901767 14.9077726,10.4541585 14.8148148,10.4183739 C15.8086572,9.06187537 15.7819221,9.20300503 16.1021962,7.42096857 C16.1582168,7.41685754 16.2171979,7.40872892 16.2761334,7.40882236 C17.2306247,7.40999026 18.1852982,7.40139448 19.1396073,7.41634367 C21.1839503,7.44839098 23.0491184,9.16507147 23.2750683,11.2476333 C23.3426118,11.8698932 23.3209779,12.5030847 23.3277641,13.1314176 C23.3355979,13.8539772 23.3247581,14.5767704 23.3333333,15.2992833 C23.335188,15.4601272 23.2903715,15.5465989 23.1444901,15.6163462 C22.3296405,16.0057258 21.4721149,16.2529012 20.5900406,16.3998237 C19.9118721,16.5127835 19.2255511,16.5741219 18.4760589,16.6666667" id="Fill-6" fill="#03475A"></path>
                    <path d="M11.8506775,10.3703704 C9.99927786,10.3695248 8.50369093,8.78615286 8.51862946,6.84257788 C8.53356799,4.89069161 10.0111487,3.33394397 11.849477,3.33333333 C13.6915845,3.33267615 15.1905504,4.9197107 15.1851852,6.86507003 C15.17988,8.80319806 13.6882945,10.3712152 11.8506775,10.3703704" id="Fill-8" fill="#03475A"></path>
                    <path d="M2.59259259,3.51289601 C2.612308,1.74056096 3.89234434,0.200912146 5.51078416,0.0214744432 C7.28295089,-0.175070469 8.83416294,0.995269417 9.19814316,2.80482675 C9.22110007,2.91903147 9.23899491,3.0351161 9.24991831,3.15134173 C9.28104557,3.48347537 9.24614397,3.74948307 8.96253512,4.00947505 C8.3044667,4.61273915 7.91539817,5.40596848 7.73893636,6.31471846 C7.71904334,6.41707973 7.62921389,6.53527926 7.54089418,6.58716486 C5.57299427,7.74434536 3.13840751,6.56596884 2.67176506,4.23182177 C2.62478555,3.99678563 2.61803613,3.75277292 2.59259259,3.51289601" id="Fill-10" fill="#03475A"></path>
                    <g id="Group-14" transform="translate(14.074074, 0.000000)">
                        <mask id="mask-4" fill="white">
                            <use xlink:href="#path-3"></use>
                        </mask>
                        <g id="Clip-13"></g>
                        <path d="M3.50760412,0.0408938405 C5.29696885,0.0415464803 6.84232082,1.44517905 6.98907334,3.20308683 C7.14165121,5.03141158 5.91333873,6.65505641 4.12956635,6.98039122 C3.48919598,7.09717807 2.86788619,7.02046971 2.25682904,6.80306721 C2.08076331,6.74043292 2.00778317,6.63483076 1.98042727,6.4584388 C1.81032671,5.36042801 1.29522492,4.43899558 0.401940643,3.79415134 C0.00269364729,3.50600564 0.000456708364,3.22303287 0.0812195242,2.83678808 C0.419975963,1.2173375 1.85911994,0.040334805 3.50760412,0.0408938405" id="Fill-12" fill="#03475A" mask="url(#mask-4)"></path>
                    </g>
                </g>
            </g>
        </g>
    </g>
</svg>