<svg xmlns="http://www.w3.org/2000/svg" width="40" height="40" viewBox="0 0 40 40">
    <g fill="none" fill-rule="evenodd">
        <path d="M0 0h40v40H0z"/>
        <g fill-rule="nonzero" transform="translate(1)">
            <path fill="#2571A0" d="M18.963 2.37h-.829l-.157-.157H5.069l-.157.157h-.83c-.862 0-1.562.7-1.562 1.563v3.09c0 .863.7 1.563 1.563 1.563h14.88c.863 0 1.563-.7 1.563-1.563v-3.09c0-.863-.7-1.563-1.563-1.563z"/>
            <path fill="#196084" d="M4.113 7.023v-3.09c0-.863.7-1.563 1.563-1.563h.83v-.157H4.911v.157h-.83c-.862 0-1.562.7-1.562 1.563v3.09c0 .863.7 1.563 1.563 1.563h1.593c-.863 0-1.563-.7-1.563-1.563z"/>
            <path fill="#BABABA" d="M4.912 8.35h13.222v3.854H4.912z"/>
            <path fill="#989DA0" d="M4.912 10.277h13.222v1.927H4.912z"/>
            <path fill="#EAE8E8" d="M23.03 33.972a5.052 5.052 0 0 1-5.052 5.052H5.068a5.052 5.052 0 0 1-5.052-5.052V16.85a5.052 5.052 0 0 1 5.051-5.052h12.911a5.052 5.052 0 0 1 5.052 5.052v17.12z"/>
            <path fill="#D6D4D4" d="M1.587 33.972V16.85a5.052 5.052 0 0 1 5.052-5.052H5.067a5.052 5.052 0 0 0-5.051 5.052v17.12a5.052 5.052 0 0 0 5.051 5.053H6.64a5.052 5.052 0 0 1-5.052-5.052z"/>
            <path fill="#4A94CC" d="M2.52 5.478v1.545c0 .863.7 1.563 1.563 1.563h14.88c.863 0 1.563-.7 1.563-1.563V5.478H2.52z"/>
            <path fill="#2571A0" d="M4.113 7.023V5.478H2.52v1.545c0 .863.7 1.563 1.563 1.563h1.593c-.863 0-1.563-.7-1.563-1.563z"/>
            <g fill="#FFA92C" transform="translate(28.43 29.497)">
                <circle cx="4.779" cy="4.794" r="4.732"/>
                <path d="M.68 7.16a4.733 4.733 0 0 0 6.466 1.733L2.413.695A4.733 4.733 0 0 0 .681 7.16z"/>
            </g>
            <g fill="#EA473B">
                <path d="M25.753 39.024A2.723 2.723 0 0 1 23.03 36.3v-7.189a2.723 2.723 0 0 1 5.446 0v7.189a2.723 2.723 0 0 1-2.723 2.723z"/>
                <path d="M23.03 32.707V36.3a2.723 2.723 0 0 0 5.446 0v-3.594H23.03z"/>
            </g>
            <circle cx="33.209" cy="34.291" r="4.732" fill="#FFA92C"/>
            <path fill="#F49519" d="M30.682 36.657c-1.647-2.854.06-6.485 3.311-7.033-3.921-.661-6.887 3.562-4.882 7.033a4.734 4.734 0 0 0 4.886 2.301 4.723 4.723 0 0 1-3.315-2.3z"/>
            <path fill="#FF8828" d="M29.11 36.657a4.733 4.733 0 0 0 6.466 1.733l-4.733-8.198a4.733 4.733 0 0 0-1.732 6.465z"/>
            <path fill="#EA6C18" d="M30.746 38.333c.97.59 2.134.814 3.251.625-3.72-.627-5.253-5.162-2.661-7.912l-.493-.854c-3.093 1.786-3.177 6.263-.097 8.14z"/>
            <path fill="#8DD83D" d="M28.476 32.864v-3.752a2.723 2.723 0 0 0-5.446 0v3.752h5.446z"/>
            <path fill="#5CCC2E" d="M26.539 26.505a2.721 2.721 0 0 0-3.509 2.607v3.752h1.572v-3.752c0-1.23.816-2.27 1.937-2.607z"/>
            <path fill="#FFA92C" d="M19.54 31.177c0 .92-.745 1.664-1.664 1.664H5.17c-.92 0-1.664-.745-1.664-1.664V19.645c0-.919.745-1.664 1.664-1.664h12.706c.92 0 1.664.745 1.664 1.664v11.532z"/>
            <path fill="#F49519" d="M5.077 31.177V19.645c0-.919.745-1.664 1.664-1.664H5.17c-.92 0-1.664.745-1.664 1.664v11.532c0 .92.745 1.664 1.664 1.664H6.74c-.919 0-1.664-.745-1.664-1.664z"/>
            <g fill="#EAE8E8">
                <path d="M14.556 24.08h-1.702v-1.702c0-.615-.5-1.114-1.115-1.114h-.433c-.615 0-1.114.5-1.114 1.114v1.703H8.49c-.615 0-1.114.498-1.114 1.114v.433c0 .615.499 1.114 1.114 1.114h1.702v1.702c0 .616.499 1.114 1.114 1.114h.433c.616 0 1.115-.498 1.115-1.114v-1.702h1.702c.615 0 1.114-.499 1.114-1.114v-.433c0-.616-.499-1.114-1.114-1.114zM16.57 0H6.476c-.863 0-1.563.7-1.563 1.563v.807h13.222v-.807C18.134.7 17.434 0 16.57 0z"/>
            </g>
            <g fill="#D6D4D4">
                <path d="M8.026 0h-1.55c-.864 0-1.564.7-1.564 1.563v.807h1.55v-.807C6.462.7 7.162 0 8.026 0zM9.826 25.524a1.114 1.114 0 0 1-1.114-1.114v-.33H8.49c-.615 0-1.114.5-1.114 1.115v.433c0 .615.499 1.114 1.114 1.114h1.702v1.702c0 .616.499 1.114 1.114 1.114h.433c.616 0 1.115-.498 1.115-1.114v-.104h-.212a1.114 1.114 0 0 1-1.114-1.114V26.467a.943.943 0 0 0-.943-.943h-.759z"/>
            </g>
            <path fill="#4A94CC" d="M23.03 32.707V36.3a2.723 2.723 0 0 0 5.446 0v-3.594H23.03z"/>
            <path fill="#2571A0" d="M24.602 36.3v-3.593H23.03V36.3a2.723 2.723 0 0 0 3.509 2.607 2.724 2.724 0 0 1-1.937-2.607z"/>
        </g>
    </g>
</svg>
