<svg xmlns="http://www.w3.org/2000/svg" width="40" height="40" viewBox="0 0 40 40">
    <g fill="none" fill-rule="evenodd">
        <path d="M0 0h40v40H0z"/>
        <g fill-rule="nonzero">
            <path fill="#FE8598" d="M23.743 3.1a1.173 1.173 0 0 0-1.4 1.15c0 3.954-14.397-.56-15.2 8.672H32.87c-.276-5.304-3.418-8.693-9.127-9.822z"/>
            <path fill="#FE637C" d="M32.844 12.531c-.407-5.08-3.534-8.33-9.101-9.43a1.173 1.173 0 0 0-1.4 1.15c0 1.007-.935 1.465-2.343 1.74v6.931h12.87a12.598 12.598 0 0 0-.026-.39z"/>
            <path fill="#BCDCFE" d="M36.406 12.531H3.594c-.647 0-1.172.525-1.172 1.172v4.104a3.1 3.1 0 0 1 1.094-.197h32.968a3.1 3.1 0 0 1 1.094.197v-4.104c0-.647-.525-1.172-1.172-1.172z"/>
            <path fill="#8FC6EF" d="M36.406 12.531H20v5.079h16.484a3.1 3.1 0 0 1 1.094.197v-4.104c0-.647-.525-1.172-1.172-1.172z"/>
            <path fill="#E0F4FE" d="M36.484 36.047H3.516A3.52 3.52 0 0 1 0 32.531V20.735a3.52 3.52 0 0 1 3.516-3.516h32.968A3.52 3.52 0 0 1 40 20.735V32.53a3.52 3.52 0 0 1-3.516 3.516z"/>
            <path fill="#BCDCFE" d="M37.578 17.394a3.475 3.475 0 0 0-1.094-.175H20v18.828h16.484A3.52 3.52 0 0 0 40 32.531V20.735a3.52 3.52 0 0 0-2.422-3.341z"/>
            <path fill="#BCDCFE" d="M31.719 31.281H8.28A1.172 1.172 0 0 1 7.11 30.11v-7.032c0-.647.525-1.172 1.172-1.172H31.72c.647 0 1.172.525 1.172 1.172v7.032c0 .647-.525 1.171-1.172 1.171z"/>
            <path fill="#8FC6EF" d="M31.719 21.906H20v9.375h11.719c.647 0 1.172-.525 1.172-1.171v-7.032c0-.647-.525-1.172-1.172-1.172z"/>
        </g>
    </g>
</svg>
