<svg xmlns="http://www.w3.org/2000/svg" width="55" height="40" viewBox="0 0 55 40">
    <g fill="none" fill-rule="evenodd">
        <path fill="#007C9D" d="M12.565 2.261c.507 0 .942.094 1.309.283.365.19.668.439.908.752.242.314.418.677.535 1.093.117.416.175.85.175 1.303 0 .428-.058.84-.175 1.235-.117.394-.292.745-.528 1.05-.237.303-.531.547-.885.728-.353.179-.766.27-1.238.27-.398 0-.767-.08-1.103-.24-.28-.133-.52-.321-.715-.56l-.113-.15h-.025v5.592H8.94V2.431h1.682v.816h.025c.216-.345.49-.596.823-.752.332-.157.697-.234 1.095-.234zm18.992 0c.506 0 .964.079 1.376.24.412.16.76.387 1.052.679.29.292.514.646.672 1.062.158.414.237.877.237 1.388 0 .511-.079.972-.237 1.383-.158.412-.382.764-.672 1.055-.291.293-.64.518-1.052.674-.412.156-.87.233-1.376.233-.507 0-.963-.077-1.37-.233-.407-.156-.756-.381-1.046-.674-.291-.291-.515-.643-.673-1.055-.158-.411-.237-.872-.237-1.383s.079-.974.237-1.388c.158-.416.382-.77.673-1.062.29-.292.639-.519 1.045-.68.408-.16.864-.239 1.37-.239zm-12.353 0c.505 0 .964.079 1.375.24.412.16.763.387 1.052.679.29.292.514.646.673 1.062.158.414.237.877.237 1.388 0 .511-.08.972-.237 1.383-.16.412-.382.764-.673 1.055-.289.293-.64.518-1.052.674-.41.156-.87.233-1.375.233-.508 0-.965-.077-1.371-.233-.407-.156-.755-.381-1.046-.674-.29-.291-.515-.643-.672-1.055-.158-.411-.237-.872-.237-1.383s.08-.974.237-1.388c.157-.416.381-.77.672-1.062.291-.292.64-.519 1.046-.68.406-.16.863-.239 1.37-.239zM27.72 0v8.816h-1.768V0h1.768zM24.82 0v8.816h-1.77V0h1.77zM5.367 0l3.325 8.816h-2.03L5.99 6.852H2.665l-.697 1.964H0L3.363 0h2.004zm26.19 3.58c-.3 0-.547.06-.748.179-.2.12-.36.274-.48.464-.12.189-.204.407-.255.654-.049.247-.073.498-.073.753s.024.504.073.748c.05.241.135.46.255.654.12.193.28.347.48.462.2.116.448.173.748.173.298 0 .55-.057.752-.173.204-.115.366-.27.486-.462.12-.193.207-.413.256-.654.05-.244.075-.493.075-.748s-.026-.506-.075-.753c-.05-.247-.135-.465-.256-.654-.12-.19-.282-.343-.486-.464-.202-.12-.454-.179-.752-.179zm-12.353 0c-.3 0-.549.06-.748.179-.2.12-.36.274-.48.464-.12.189-.205.407-.255.654-.05.247-.075.498-.075.753s.025.504.075.748c.05.241.135.46.255.654.12.193.28.347.48.462.2.116.448.173.748.173.298 0 .55-.057.752-.173.204-.115.366-.27.487-.462.12-.193.204-.413.255-.654.05-.244.074-.493.074-.748s-.024-.506-.074-.753c-.051-.247-.135-.465-.255-.654-.121-.19-.283-.343-.487-.464-.203-.12-.454-.179-.752-.179zm-7.024 0c-.291 0-.534.06-.73.179-.194.12-.352.274-.473.464-.12.189-.205.407-.255.654-.05.247-.075.502-.075.765 0 .256.027.506.08.753.055.248.143.463.263.65.12.184.28.334.48.45.2.115.44.172.721.172.292 0 .534-.057.73-.173.194-.115.352-.265.473-.449.12-.187.205-.402.255-.65.05-.247.075-.497.075-.753 0-.255-.027-.505-.08-.753-.056-.247-.145-.466-.27-.66-.124-.194-.283-.35-.479-.47-.195-.12-.434-.179-.715-.179zM4.36 2.173h-.025L3.176 5.407H5.48L4.359 2.173z"/>
        <path fill="#FCB716" d="M51.254 10.213H15.13c-1.775 0-3.214 1.439-3.214 3.214V39.24c0 .222.18.402.402.402.08 0 .16-.025.226-.07l2.644-1.802c1.334-.91 2.91-1.396 4.525-1.396h31.542c1.775 0 3.214-1.439 3.214-3.214V13.427c0-1.775-1.439-3.214-3.214-3.214z"/>
        <path fill="#FFF" fill-rule="nonzero" d="M39.433 14.468V32.34h-.81V14.468h.81zM21.546 16.81c2.711 0 4.375 1.842 4.375 4.01 0 1.613-.86 2.918-2.355 3.858l-2.338 1.459c-.467.307-.86.652-1.047 1.132h5.815v2.284h-8.975c.019-2.188.692-3.973 2.861-5.316l2-1.228c1.03-.634 1.44-1.286 1.44-2.15 0-.902-.617-1.708-1.832-1.708-1.29 0-1.926.902-1.926 2.073 0 .23.038.48.094.69l-2.45-.076c-.037-.173-.093-.557-.093-.864 0-2.188 1.608-4.164 4.431-4.164zm28.667.287v2.208c-.916.806-4.32 3.972-4.862 10.248h-2.673c.504-6.698 4.562-10.172 4.562-10.172h-6.245v-2.284h9.218zm-15.37 0v7.524h2.001v2.264h-2v2.668H32.3v-2.668h-5.74v-2.763l5.105-7.025h3.178zM32.3 19.861l-3.459 4.76h3.46v-4.76z"/>
    </g>
</svg>
