<svg xmlns="http://www.w3.org/2000/svg" width="40" height="40" viewBox="0 0 40 40">
    <g fill="none" fill-rule="evenodd">
        <path d="M0 0H40V40H0z"/>
        <g>
            <path fill="#FFE6B3" d="M27 16.867l-6.19-6.189a1.173 1.173 0 00-1.656 1.657l6.189 6.19c.229.228.529.342.828.342a1.17 1.17 0 00.829-2" transform="translate(.5 6.5)"/>
            <path fill="#FFCA80" d="M27 16.867l-6.19-6.189a1.173 1.173 0 00-1.656 0L27 18.524a1.17 1.17 0 000-1.657" transform="translate(.5 6.5)"/>
            <path fill="#FF8E8E" d="M20.78 20.508l-2.038-3.516c-.211-.351-.61-.54-1.008-.54s-.797.189-1.008.54l-2.04 3.516a3.594 3.594 0 00-.467 1.758 3.51 3.51 0 003.515 3.515 3.511 3.511 0 003.516-3.515c0-.61-.164-1.22-.47-1.758" transform="translate(.5 6.5)"/>
            <path fill="#FFCEBF" d="M27.695 4.195a12.258 12.258 0 01-9.961 9.68c-.68.117-1.36.187-2.062.187h-14.5A1.16 1.16 0 010 12.89V1.172A1.16 1.16 0 011.172 0h10.703l2.343 1.172h7.032L23.593 0h.657c1.054 0 2.039.468 2.718 1.29.68.82.938 1.874.727 2.905" transform="translate(.5 6.5)"/>
            <path fill="#FF637B" d="M20.78 20.508c.306.539.47 1.148.47 1.758a3.511 3.511 0 01-3.516 3.515v-9.328c.398 0 .797.188 1.008.539l2.039 3.516z" transform="translate(.5 6.5)"/>
            <path fill="#FFBFAB" d="M27.695 4.195a12.258 12.258 0 01-9.961 9.68V1.172h3.516L23.593 0h.657c1.054 0 2.039.468 2.718 1.29.68.82.938 1.874.727 2.905" transform="translate(.5 6.5)"/>
            <path fill="#FF8E8E" d="M23.593 0v1.172a5.861 5.861 0 01-5.859 5.859h-4.688a1.16 1.16 0 01-1.172-1.172V0h11.72z" transform="translate(.5 6.5)"/>
            <path fill="#FF637B" d="M23.593 0v1.172a5.861 5.861 0 01-5.859 5.859V0h5.86z" transform="translate(.5 6.5)"/>
            <path fill="#76E2F8" d="M38.6 25.154l-8.287-8.287a3.518 3.518 0 00-4.97 0 3.52 3.52 0 000 4.972l8.286 8.286a1.17 1.17 0 001.657 0l1.657-1.658L38.6 26.81a1.17 1.17 0 000-1.656" transform="translate(.5 6.5)"/>
            <path fill="#4BB9EC" d="M38.6 25.154l-8.287-8.287a3.518 3.518 0 00-4.97 0l11.6 11.6L38.6 26.81a1.17 1.17 0 000-1.656" transform="translate(.5 6.5)"/>
        </g>
    </g>
</svg>
