<svg xmlns="http://www.w3.org/2000/svg" width="40" height="41" viewBox="0 0 40 41">
    <g fill="none" fill-rule="evenodd">
        <path d="M0 0H40V40H0z"/>
        <g fill-rule="nonzero" transform="translate(0 8.143)">
            <path fill="#FFF" d="M36.264 8.772L32.91 3.458a2 2 0 00-1.691-.933H26.05v17.309h11.609a2 2 0 002-2V11.75a2 2 0 00-1.2-1.833l-1.75-.763a1 1 0 01-.445-.382z"/>
            <path fill="#68B6F3" d="M28.34 4.241h2.524a1 1 0 01.855.483l2.61 4.316h-5.99V4.241z"/>
            <path fill="#FFF" d="M2 0h23.075a2 2 0 012 2v17.834H2a2 2 0 01-2-2V2a2 2 0 012-2z"/>
            <path fill="#E0E0E0" d="M13.509 0h11.566a2 2 0 012 2v17.834H13.509V0z"/>
            <path fill="#F98585" d="M0 14.286H27.075V16.444H0z"/>
            <path fill="#E27979" d="M13.509 14.286H27.075000000000003V16.444H13.509z"/>
            <circle cx="33.181" cy="19.94" r="4.47" fill="#303030"/>
            <circle cx="33.181" cy="19.94" r="2.034" fill="#969696"/>
            <circle cx="6.702" cy="19.94" r="4.47" fill="#303030"/>
            <circle cx="6.702" cy="19.94" r="2.034" fill="#969696"/>
            <path fill="#D13135" d="M17.741 8.705L17.741 5.432 15.174 5.432 15.174 2.865 11.9 2.865 11.9 5.432 9.333 5.431 9.333 8.705 11.9 8.705 11.9 11.272 15.174 11.272 15.174 8.705z"/>
            <path fill="#D13135" d="M17.741 5.432L15.174 5.432 15.174 2.865 13.509 2.865 13.509 11.272 15.174 11.272 15.174 8.705 17.741 8.705z"/>
        </g>
    </g>
</svg>
