<svg xmlns="http://www.w3.org/2000/svg" width="27" height="27" viewBox="0 0 27 27">
    <g fill="none" fill-rule="evenodd">
        <path d="M0 3h24v24H0z"/>
        <path fill="#02475B" fill-rule="nonzero" d="M19 6.18h-4.18A3.008 3.008 0 0 0 12 4.2c-1.3 0-2.4.832-2.82 1.98H5c-1.1 0-2 .891-2 1.98v13.86C3 23.109 3.9 24 5 24h14c1.1 0 2-.891 2-1.98V8.16c0-1.089-.9-1.98-2-1.98zm-7 0c.55 0 1 .446 1 .99 0 .545-.45.99-1 .99s-1-.446-1-.99c0-.545.45-.99 1-.99zm2 13.86H7v-1.98h7v1.98zm3-3.96H7V14.1h10v1.98zm0-3.96H7v-1.98h10v1.98z"/>
        <path fill="#02475B" d="M24 0v3h3v2h-3.001L24 8h-2l-.001-3H19V3h3V0h2z"/>
    </g>
</svg>
