<svg xmlns="http://www.w3.org/2000/svg" xmlns:xlink="http://www.w3.org/1999/xlink" width="141" height="106" viewBox="0 0 141 106">
    <defs>
        <linearGradient id="prefix__a" x1="50%" x2="50%" y1="0%" y2="100%">
            <stop offset="0%" stop-color="#F5F3F3"/>
            <stop offset="100%" stop-color="#E1E1E1"/>
        </linearGradient>
        <linearGradient id="prefix__d" x1="50%" x2="50%" y1="0%" y2="98.184%">
            <stop offset="0%" stop-color="#FEA8A8"/>
            <stop offset="100%" stop-color="#FB8B8B"/>
        </linearGradient>
        <linearGradient id="prefix__e" x1="50%" x2="50%" y1="0%" y2="100%">
            <stop offset="0%" stop-color="#FEB0B0"/>
            <stop offset="100%" stop-color="#FB8585"/>
        </linearGradient>
        <linearGradient id="prefix__f" x1="50%" x2="50%" y1="0%" y2="99.565%">
            <stop offset="0%" stop-color="#FEABAB"/>
            <stop offset="100%" stop-color="#FB8786"/>
        </linearGradient>
        <path id="prefix__b" d="M21.874 4.841C9.306 6.708 0 17.497 0 30.203v.51h.043C.015 31.252 0 31.794 0 32.34 0 49.39 13.823 63.21 30.874 63.21c17.05 0 30.873-13.821 30.873-30.87 0-.547-.014-1.09-.042-1.628l.042.705 2.371-20.626C64.798 4.174 59.684-.774 53.796.1L21.874 4.841z"/>
    </defs>
    <g fill="none" fill-rule="evenodd">
        <path fill="url(#prefix__a)" d="M78.83 70.202c-1.523 1.37-3.207 2.582-5.006 3.662-6.277 3.793-9.812 4.516-17.91 6.365-.457.102-3.904 0-4.376 0-1.459 0-3.681-.79-4.862-.972C34.034 77.312 24.96 62.826 22.26 42.743c-2.409-17.878 1.575-38.127 19.41-39.027 6.698-.333 14.513 3.003 21.784 8.37.522.384 1.045.783 1.56 1.19v.007h.007c.109.08.218.166.32.253 13.525 10.77 24.59 28.271 22.037 41.428-1.278 6.57-4.332 11.48-8.548 15.238z" transform="translate(19.934 12.642)"/>
        <path fill="#E7E4E4" d="M23.738 65.326c1.014 2.02 1.384 4.575-.648 5.398-2.27.919-5.886-.567-6.938-3.938-.673-2.153-.442-5.16 1.416-6.315 1.59-.99 4.926 2.378 6.17 4.855M68.876 12.133c-.987-.797-1.775-1.983-.944-2.782.93-.892 3.104-.86 4.428.594.845.93 1.436 2.454.77 3.383-.57.795-3.044-.216-4.254-1.195" transform="translate(19.934 12.642)"/>
        <path fill="#FFD069" d="M44.221 12.154L40.773 13.708 41.186 17.467 38.642 14.669 35.195 16.223 37.07 12.939 34.527 10.14 38.229 10.909 40.105 7.625 40.518 11.384 44.221 12.154M34.047 27.301L31.535 26.327 29.833 28.415 29.983 25.725 27.472 24.751 30.076 24.063 30.226 21.374 31.686 23.638 34.289 22.949 32.587 25.037 34.047 27.301M18.917 16.31L15.22 16.572 14.327 20.169 12.935 16.734 9.238 16.996 12.075 14.61 10.684 11.175 13.828 13.137 16.665 10.752 15.772 14.348 18.917 16.31M20.815 33.896L18.683 33.814 17.945 35.817 17.364 33.763 15.231 33.681 17.005 32.494 16.425 30.44 18.101 31.76 19.875 30.573 19.138 32.576 20.815 33.896M34.577 2.722L32.718 2.999 32.407 4.852 31.569 3.169 29.711 3.446 31.052 2.129 30.214.447 31.881 1.316 33.222 0 32.91 1.853 34.577 2.722" transform="translate(19.934 12.642)"/>
        <path fill="#D43737" d="M45.598 42.871s-5.906-3.097-12.037-.51c-6.131 2.588-14.828 8.12-20.788 4.32C6.812 42.882 0 48.599 0 48.599s10.918-.938 8.333 10.4c-1.57 6.877 12.026 6.652 16.284 1.36 4.257-5.292 4.245-6.966 8.127-7.076 6.602-.187 7.45-6.57 10.738-4.623 3.288 1.947 2.116-5.788 2.116-5.788" transform="translate(19.934 12.642)"/>
        <g transform="translate(19.934 12.642) translate(22.852 17.018)">
            <mask id="prefix__c" fill="#fff">
                <use xlink:href="#prefix__b"/>
            </mask>
            <path fill="#1989A5" d="M37.023 45.684s2.335 5.182 6.22 28.31c3.883 23.127 4.405 34.437 4.405 34.437H37.62l-12.336-60.33 2.977-4.34 8.763 1.923" mask="url(#prefix__c)"/>
            <path fill="#0087BA" d="M23.765 45.22s-5.665 6.064-5.96 17.282c-.34 12.943-.3 46.902-.3 46.902l10.132-.3 6.884-63.548-10.756-.336" mask="url(#prefix__c)"/>
            <path fill="#101012" d="M24.428 11.183S18.43 22.396 23.3 23.802c3.502 1.01 10.471 1.04 13.879.976 2.052-.038 3.123-1.234 3.868-3.122.485-1.23.459-2.713-1.007-4.218-3.606-3.705-1.981-5.922-1.981-5.922l-13.63-.333" mask="url(#prefix__c)"/>
            <path fill="url(#prefix__d)" d="M34.525 16.397c-.074 1.072.734 2 1.805 2.075 1.072.075 2.001-.733 2.076-1.805.074-1.071-.734-2-1.805-2.075-1.072-.074-2 .734-2.076 1.805" mask="url(#prefix__c)"/>
            <path fill="#101012" d="M35.493 8.479s-8.54-1.359-10.927 2.789c-1.849 3.212-.153 8.427 4.102 10.004 4.053 1.503 2.718-11.313 2.718-11.313l4.107-1.48" mask="url(#prefix__c)"/>
            <path fill="#101012" d="M31.117 8.41s7.817-2.644 7.78 2.902c-.023 3.29-4.672 4.248-4.672 4.248l-3.108-7.15" mask="url(#prefix__c)"/>
            <path fill="#FC8B8B" d="M34.034 21.807l-.275 4.253c-.093 1.493-1.08 2.235-2.574 2.133-1.276-.088-2.429-.817-2.499-2.072l.76-6.671 4.588 2.357" mask="url(#prefix__c)"/>
            <path fill="#B86568" d="M33.799 24.798L29.172 20.908 34.034 21.327 33.799 24.798" mask="url(#prefix__c)"/>
            <path fill="url(#prefix__e)" d="M32.555 22.367c2.549.007 4.653-1.943 4.73-3.966l.15-4.774c.095-2.535-1.896-4.687-4.5-4.863-2.665-.18-5.443 1.742-5.629 4.333l-.077 3.84c-.06 2.971 2.277 5.224 5.326 5.43" mask="url(#prefix__c)"/>
            <path fill="#101012" d="M35.97 10.265s.64 3.176-8.324 3.836c-.19.014-3.443-4.883 3.68-5.746 0 0 2.392-.715 4.643 1.91" mask="url(#prefix__c)"/>
            <path fill="#101012" d="M30.631 13.128L28.504 16.532 25.769 13.39 30.631 13.128" mask="url(#prefix__c)"/>
            <path fill="url(#prefix__f)" d="M24.801 16.397c-.074 1.072.734 2 1.805 2.075 1.072.075 2.001-.733 2.075-1.805.075-1.071-.733-2-1.805-2.075-1.071-.074-2 .734-2.075 1.805" mask="url(#prefix__c)"/>
            <path fill="#B86568" d="M27.712 17.395c0-.002.002-.026.002-.065 0-.132-.016-.439-.17-.73-.078-.144-.193-.285-.36-.388-.165-.103-.38-.166-.647-.166-.055 0-.113.003-.174.008-.065.006-.113.063-.107.128.006.064.064.111.13.106.053-.005.104-.008.151-.008.23 0 .396.053.52.13.188.116.293.298.352.48.058.18.067.356.067.44v.038l-.001.011c-.005.065.045.12.11.125.066.005.123-.044.127-.109" mask="url(#prefix__c)"/>
            <path fill="#3E2834" d="M34.564 17.159l.143 1.05-.537.017c-.078.003-.138.061-.135.13.002.07.068.124.146.121l.69-.022c.04-.002.077-.018.102-.044.025-.027.038-.062.033-.097l-.162-1.185c-.01-.07-.08-.118-.157-.11-.077.008-.132.071-.123.14" mask="url(#prefix__c)"/>
            <path fill="#101012" d="M32.006 14.592s1.046-.058 1.056.23c0 0 0 .197-.913.235-.912.04-1.43.016-1.513-.168-.083-.184.88-.295 1.37-.297M36.018 14.593s-.935-.064-1.01.226c0 0-.045.197.773.241.818.045 1.084-.025 1.162-.184.087-.18-.48-.278-.925-.283M35.493 16.516c-.008.268.202.493.47.502.269.009.494-.202.502-.47.009-.269-.201-.493-.47-.502-.268-.009-.493.202-.502.47M31.604 16.516c-.009.269.201.493.47.502.268.01.493-.201.502-.47.008-.268-.202-.493-.47-.502-.269-.009-.493.202-.502.47" mask="url(#prefix__c)"/>
            <path fill="#FFFFFE" d="M34.52 19.072l-2.917-.595s.007 1.19 1.276 1.425c1.268.235 1.642-.83 1.642-.83M28.687 29.916c.032 2.132 1.692 3.88 3.809 4.013l5.875 1 11.439 2.017c2.352.147 4.396-1.606 4.624-3.964.246-2.554-1.633-4.573-4.28-4.819-2.254-.209-6.063-.79-9.974-1.442-2.955-.492-5.738-.927-7.378-.95-2.289-.032-4.15 1.844-4.115 4.145" mask="url(#prefix__c)"/>
            <path fill="#CBDEDF" d="M38.858 34.562L38.41 31.119 44.245 35.495 38.858 34.562" mask="url(#prefix__c)"/>
            <path fill="#FDA2A1" d="M55.121 13.128L53.969 16.539 57.37 17.991 58.345 13.924 55.121 13.128M55.31 13.128l-.58-1.22c-.183-.388-.277-.815-.275-1.248l.02-3.633c.003-.352.25-.65.582-.699.343-.05.666.18.75.533L56.4 9.39l-1.09 3.738" mask="url(#prefix__c)"/>
            <path fill="#FDA2A1" d="M55.428 9.239l2.945-5.581c.126-.223.406-.315.645-.212.25.108.365.39.261.635l-1.73 4.7-2.121.458M57.859 10.697l3.462-5.61c.142-.216.426-.288.653-.165.237.128.328.421.207.66l-2.436 4.735-1.886.38M59.317 11.67l3.009-5.133c.137-.208.41-.277.63-.158.228.124.316.407.199.638l-2.204 4.526-1.634.127" mask="url(#prefix__c)"/>
            <path fill="#FDA2A1" d="M57.372 9.239l2.947-5.577c.126-.227.406-.32.645-.215.248.11.364.395.26.645l-2.233 4.973-1.619.174" mask="url(#prefix__c)"/>
            <path fill="#FDA2A1" d="M57.27 7.294l4.478 2.347s-.932 3.66-3.054 4.46l-3.247-.808-.02-3.713 1.442-1.184.401-1.102" mask="url(#prefix__c)"/>
            <path fill="#FFFFFE" d="M54.07 13.615l-8.098 17.483c-.86 2.335.417 4.91 2.802 5.655 2.413.753 4.964-.676 5.568-3.118l4.975-18.142-5.246-1.878" mask="url(#prefix__c)"/>
            <path fill="#CBDEDF" d="M53.483 15.282L58.76 17.505 58.831 17.296 53.553 15.073" mask="url(#prefix__c)"/>
            <path fill="#FFBBC7" d="M33.607 25.86l3.055 1.426c.491.233.8.778.774 1.369l-1.575 17.051-12.544-.169-1.437-17.72c-.025-1.064.743-2.337 1.701-2.42l5.66-.113 4.366.575" mask="url(#prefix__c)"/>
            <path fill="#FB8686" d="M28.569 25.301L27.714 28.292 35.111 28.688 35.493 26.788 32.636 25.284 29.379 25.284z" mask="url(#prefix__c)"/>
            <path fill="#FFFFFE" d="M33.548 25.91l1.14 8.329-.82 31.403h7.946s-1.128-11.533-4.885-19.715l2.158-11.013L38 26.574l-4.443-.803-.009.139" mask="url(#prefix__c)"/>
            <path fill="#CBDEDF" d="M33.577 25.945l2.746 2.847-1.025 2.576c-.012.032-.008.068.01.096l1.435 2.116-2.089 12.98c-.009.056.029.109.084.118.056.009.108-.03.117-.085l2.095-13.021c.005-.026-.001-.053-.016-.074l-1.426-2.104 1.029-2.587c.015-.038.007-.08-.021-.11l-2.793-2.895c-.039-.041-.103-.042-.144-.002-.04.04-.041.104-.002.145" mask="url(#prefix__c)"/>
            <path fill="#FFFFFE" d="M29.172 34.733l-.614 30.91H17.636s-1.43-13.354 5.095-19.964L19.429 32.44l1.339-7.044 7.601-.112.803 9.45z" mask="url(#prefix__c)"/>
            <path fill="#CBDEDF" d="M28.516 25.32l-3.21 3.96c-.03.035-.031.088-.005.126l1.859 2.71-1.359 1.982c-.016.024-.022.055-.016.083L28.432 46.6c.012.055.063.09.116.077.052-.012.084-.067.073-.122L25.984 34.18l1.374-2.004c.024-.036.024-.085 0-.12l-1.855-2.706 3.16-3.897c.035-.043.03-.108-.01-.145-.04-.037-.102-.032-.137.011" mask="url(#prefix__c)"/>
            <path fill="#FFFFFE" d="M22.852 36.468L27.714 36.468 27.714 33.55 22.852 33.55z" mask="url(#prefix__c)"/>
            <path fill="#101012" d="M27.625 36.385v-.083H23.03v-2.586h4.506v2.669h.089v-.083.083h.089v-2.752c0-.021-.01-.043-.026-.058-.017-.016-.04-.025-.063-.025H22.94c-.024 0-.047.01-.063.025-.017.015-.026.037-.026.058v2.752c0 .022.01.043.026.059.016.015.04.024.063.024h4.684c.023 0 .046-.01.063-.024.016-.016.026-.037.026-.06h-.09" mask="url(#prefix__c)"/>
            <path fill="#0087BA" d="M22.366 34.037L27.714 34.037 27.714 33.064 22.366 33.064z" mask="url(#prefix__c)"/>
            <path fill="#FFFFFE" d="M22.283 25.577c-1.94-.79-4.15.07-5.075 1.978l-9.47 15.229c-1.026 2.118-.22 4.684 1.824 5.802 2.214 1.212 4.973.244 5.982-2.1.895-2.08 3.178-5.684 5.255-9.05 1.569-2.542 3.02-4.949 3.664-6.456.9-2.104-.087-4.549-2.18-5.403" mask="url(#prefix__c)"/>
            <path fill="#3B3C3A" d="M35.131 25.156l-.486.308c.034.054 3.308 5.465 2.219 14.204l.472.075c1.116-8.96-2.17-14.532-2.205-14.587z" mask="url(#prefix__c)" transform="rotate(-7 36.106 32.45)"/>
            <path fill="#AAB7B9" d="M37.952 43.442c1.34.102 2.506-.902 2.607-2.24.102-1.34-.902-2.507-2.24-2.608-1.34-.101-2.507.903-2.608 2.241-.1 1.34.902 2.506 2.241 2.607z" mask="url(#prefix__c)" transform="rotate(-7 38.135 41.018)"/>
            <path fill="#8D9EA2" d="M38.26 43.442c-.062 0-.124-.002-.187-.007-1.34-.106-2.344-1.325-2.243-2.724.004-.064.022-.123.031-.186.511.79 1.34 1.344 2.32 1.421.078.007.155.01.232.01.89 0 1.697-.407 2.266-1.052 0 .064.01.125.005.189l-.007.077v.004c-.02.19-.059.373-.116.547-.329 1.012-1.248 1.721-2.302 1.721" mask="url(#prefix__c)" transform="rotate(-7 38.254 41.984)"/>
            <path fill="#52676E" d="M36.756 40.967c-.05.668.453 1.253 1.12 1.303.669.05 1.254-.452 1.304-1.12.05-.669-.452-1.254-1.12-1.304-.669-.05-1.253.452-1.304 1.12zm.001-.262c.06-.802.762-1.405 1.564-1.344.802.06 1.405.762 1.345 1.564-.06.802-.763 1.405-1.564 1.345-.803-.061-1.406-.763-1.345-1.565z" mask="url(#prefix__c)" transform="rotate(-7 38.135 41.018)"/>
            <path fill="#3B3C3A" d="M23.418 34.91l.02.003c.137.019.264-.077.282-.215.976-7.19 5.14-9.005 5.181-9.023.128-.053.189-.2.136-.33-.053-.127-.2-.188-.328-.135-.182.076-4.472 1.947-5.485 9.42-.018.13.068.251.194.28" mask="url(#prefix__c)" transform="rotate(-3 26.139 30.053)"/>
            <path fill="#3B3C3A" d="M19.744 39.4l.485.08.398-2.208c.258-1.427 1.676-2.386 3.163-2.14.717.121 1.348.502 1.77 1.075.42.573.583 1.27.458 1.96l-.398 2.21.484.08.4-2.209c.146-.815-.046-1.636-.543-2.313-.496-.676-1.238-1.126-2.087-1.267-1.754-.291-3.427.84-3.731 2.523l-.399 2.209" mask="url(#prefix__c)" transform="rotate(-3 23.148 37.54)"/>
            <path fill="#3B3C3A" d="M23.31 43.853l.323-.006c.173-.003.31-.098.306-.214l-.02-.549c-.005-.116-.15-.206-.324-.204l-.321.006c-.174.003-.312.099-.307.214l.021.55c.004.115.15.206.323.203" mask="url(#prefix__c)" transform="rotate(-3 23.453 43.367)"/>
            <path fill="#AAB7B9" d="M22.454 45.178c.723.191 1.383.052 1.961-.413 1.491-1.198 1.911-4.149 1.929-4.274l-.478-.092c-.004.028-.405 2.834-1.724 3.892-.47.377-.988.484-1.583.327l-.105.56" mask="url(#prefix__c)" transform="rotate(-3 24.399 42.83)"/>
            <path fill="#9EAAAC" d="M22.106 43.877c.236.054.49.081.762.08l-.002-.512c-.755.005-1.341-.244-1.743-.739-.979-1.207-.613-3.5-.61-3.524l-.483-.087c-.017.103-.409 2.549.718 3.94.35.432.805.714 1.358.842" mask="url(#prefix__c)" transform="rotate(-3 21.41 41.526)"/>
            <path fill="#3B3C3A" d="M22.285 45.31l.272.046c.147.024.293-.045.325-.155l.156-.521c.033-.11-.06-.218-.207-.242l-.271-.045c-.147-.025-.293.045-.326.154l-.155.521c-.033.11.06.218.206.242" mask="url(#prefix__c)" transform="rotate(-3 22.558 44.874)"/>
            <path fill="#FFFFFE" d="M24.797 55.534L14.704 42.146c-1.716-1.758-4.56-1.732-6.244.055-1.703 1.809-1.519 4.673.402 6.25l13.699 11.843 2.236-4.76" mask="url(#prefix__c)"/>
            <path fill="#CBDEDF" d="M25.57 53.544l-4.167 8.552c-.024.05-.002.11.05.133.052.023.114.002.138-.048l4.168-8.553c.025-.05.002-.11-.05-.132-.052-.024-.114-.002-.138.048" mask="url(#prefix__c)"/>
            <path fill="#CBDEDF" d="M19.956 49.277l4.65 6.112c.035.047.101.056.148.021.047-.034.056-.1.021-.146l-4.65-6.112c-.035-.046-.101-.056-.148-.021-.047.034-.056.1-.021.146M18.023 56.577l4.182 3.692c.04.036.102.032.137-.01.035-.04.03-.103-.01-.138l-4.182-3.693c-.04-.036-.101-.032-.137.01-.035.04-.03.103.01.139" mask="url(#prefix__c)"/>
            <path fill="#CBDEDF" d="M23.63 54.459L20.907 59.23 21.101 59.321 23.824 54.55" mask="url(#prefix__c)"/>
        </g>
    </g>
</svg>
