<svg xmlns="http://www.w3.org/2000/svg" xmlns:xlink="http://www.w3.org/1999/xlink" width="25" height="24" viewBox="0 0 25 24">
    <defs>
        <path id="b" d="M2 13h19.17l-4.88 4.88c-.39.39-.39 1.03 0 1.42.39.39 1.02.39 1.41 0l6.59-6.59a.996.996 0 0 0 0-1.41l-6.58-6.6a.996.996 0 1 0-1.41 1.41L21.17 11H2c-.55 0-1 .45-1 1s.45 1 1 1z"/>
        <filter id="a" width="153%" height="182.3%" x="-26.5%" y="-41.2%" filterUnits="objectBoundingBox">
            <feMorphology in="SourceAlpha" operator="dilate" radius=".25" result="shadowSpreadOuter1"/>
            <feOffset in="shadowSpreadOuter1" result="shadowOffsetOuter1"/>
            <feGaussianBlur in="shadowOffsetOuter1" result="shadowBlurOuter1" stdDeviation="2"/>
            <feComposite in="shadowBlurOuter1" in2="SourceAlpha" operator="out" result="shadowBlurOuter1"/>
            <feColorMatrix in="shadowBlurOuter1" values="0 0 0 0 0 0 0 0 0 0 0 0 0 0 0 0 0 0 0.3046875 0"/>
        </filter>
    </defs>
    <g fill="none" fill-rule="evenodd">
        <path d="M0 0h25v24H0z"/>
        <g fill-rule="nonzero" transform="matrix(-1 0 0 1 25.582 0)">
            <use fill="#000" filter="url(#a)" xlink:href="#b"/>
            <use fill="#FFF" stroke="#FFF" stroke-width=".5" xlink:href="#b"/>
        </g>
    </g>
</svg>
