<svg xmlns="http://www.w3.org/2000/svg" width="80" height="80" viewBox="0 0 80 80">
    <g fill="none" fill-rule="evenodd">
        <path d="M0 0H80V80H0z"/>
        <g fill-rule="nonzero">
            <path fill="#717171" d="M11.98 7.737c.523.523.553 1.407.164 2.285l7.26 7.26-2.122 2.122-7.26-7.26c-.88.39-1.762.358-2.285-.165-.782-.78-.465-2.364.707-3.535 1.171-1.172 2.754-1.489 3.535-.707zM40.263 36.02c.782.782.465 2.365-.707 3.536-1.171 1.172-2.754 1.489-3.535.707-.523-.523-.554-1.406-.165-2.284l-7.26-7.261 2.122-2.122 7.26 7.26c.878-.39 1.762-.359 2.285.165zM19.404 30.718l-6.824 6.825c.39.878.359 1.76-.165 2.284-.78.781-2.363.465-3.535-.707-1.172-1.172-1.488-2.754-.707-3.535.523-.524 1.407-.554 2.285-.165l6.824-6.824 2.122 2.122zM39.556 8.444c1.172 1.171 1.489 2.754.707 3.535-.523.523-1.406.554-2.284.165l-7.261 7.26-2.122-2.122 7.26-7.26c-.39-.878-.359-1.762.165-2.285.78-.782 2.364-.465 3.535.707z" transform="translate(24 10)"/>
            <path fill="#E3E3E3" d="M40 24c0 8.837-7.163 16-16 16S8 32.837 8 24 15.163 8 24 8s16 7.163 16 16z" transform="translate(24 10)"/>
            <path fill="#BFBFBF" d="M2 21c.74 0 1.387.603 1.732 1.5H14v3l-10.268.001C3.386 26.397 2.74 27 2 27c-1.105 0-2-1.343-2-3s.895-3 2-3zM46 21c1.105 0 2 1.343 2 3s-.895 3-2 3c-.74 0-1.386-.603-1.732-1.499L34 25.5v-3h10.268c.345-.897.992-1.5 1.732-1.5zM25.5 34l.001 9.651c.896.346 1.499.992 1.499 1.732 0 1.105-1.343 2-3 2s-3-.895-3-2c0-.74.603-1.387 1.5-1.732V34h3zM24 0c1.657 0 3 .895 3 2 0 .74-.603 1.386-1.499 1.732L25.5 14h-3V3.732C21.603 3.387 21 2.74 21 2c0-1.105 1.343-2 3-2zM22.5 22.5L25.5 22.5 25.5 25.5 22.5 25.5z" transform="translate(24 10)"/>
        </g>
        <g fill-rule="nonzero">
            <path fill="#717171" d="M5.99 3.868c.261.262.277.703.082 1.142l3.63 3.631-1.06 1.06-3.633-3.628c-.438.194-.88.178-1.14-.083-.391-.39-.233-1.182.353-1.768.586-.586 1.377-.744 1.768-.354zM20.132 18.01c.39.39.232 1.182-.354 1.768-.586.586-1.377.744-1.768.354-.261-.262-.277-.703-.083-1.141l-3.629-3.632 1.06-1.06 3.632 3.629c.439-.195.88-.18 1.142.082zM9.702 15.359L6.29 18.772c.194.44.178.88-.083 1.142-.39.39-1.182.232-1.768-.354-.586-.586-.744-1.377-.354-1.768.262-.261.704-.277 1.143-.082l3.412-3.412 1.06 1.06zM19.778 4.222c.586.586.744 1.377.354 1.768-.262.261-.703.277-1.141.083l-3.632 3.629-1.06-1.06 3.629-3.632c-.195-.439-.18-.88.082-1.142.39-.39 1.182-.232 1.768.354z" transform="translate(10 46)"/>
            <path fill="#E3E3E3" d="M20 12c0 4.418-3.582 8-8 8s-8-3.582-8-8 3.582-8 8-8 8 3.582 8 8z" transform="translate(10 46)"/>
            <path fill="#BFBFBF" d="M1 10.5c.37 0 .693.301.866.75H7v1.5l-5.134.002c-.174.447-.496.748-.866.748-.552 0-1-.672-1-1.5s.448-1.5 1-1.5zM23 10.5c.552 0 1 .672 1 1.5s-.448 1.5-1 1.5c-.37 0-.692-.3-.866-.748L17 12.75v-1.5h5.134c.173-.449.496-.75.866-.75zM12.75 17l.002 4.826c.447.173.748.496.748.865 0 .553-.672 1-1.5 1s-1.5-.447-1.5-1c0-.37.301-.692.75-.865V17h1.5zM12 0c.828 0 1.5.448 1.5 1 0 .37-.3.692-.748.866L12.75 7h-1.5V1.866C10.8 1.693 10.5 1.37 10.5 1c0-.552.672-1 1.5-1zM11.25 11.25L12.75 11.25 12.75 12.75 11.25 12.75z" transform="translate(10 46)"/>
        </g>
        <g fill-rule="nonzero">
            <path fill="#717171" d="M3.993 2.579c.175.174.185.469.055.762l2.42 2.42-.707.707-2.421-2.42c-.293.13-.587.12-.761-.055-.26-.26-.155-.788.236-1.178.39-.391.918-.497 1.178-.236zM13.421 12.007c.26.26.155.788-.236 1.178-.39.391-.918.497-1.178.236-.174-.174-.185-.468-.055-.76l-2.42-2.422.707-.707 2.42 2.42c.293-.13.588-.12.762.055zM6.468 10.24l-2.274 2.275c.13.292.119.586-.056.76-.26.261-.787.156-1.178-.235-.39-.39-.496-.918-.236-1.178.175-.175.47-.185.762-.055l2.275-2.275.707.707zM13.185 2.815c.391.39.497.918.236 1.178-.174.174-.468.185-.76.055l-2.422 2.42-.707-.707 2.42-2.42c-.13-.293-.12-.588.055-.762.26-.26.788-.155 1.178.236z" transform="translate(10 10)"/>
            <path fill="#E3E3E3" d="M13.333 8c0 2.946-2.387 5.333-5.333 5.333S2.667 10.946 2.667 8 5.054 2.667 8 2.667 13.333 5.054 13.333 8z" transform="translate(10 10)"/>
            <path fill="#BFBFBF" d="M.667 7c.246 0 .462.201.577.5h3.423v1l-3.423.001C1.128 8.799.914 9 .667 9 .298 9 0 8.552 0 8s.298-1 .667-1zM15.333 7c.369 0 .667.448.667 1s-.298 1-.667 1c-.246 0-.461-.2-.577-.499L11.333 8.5v-1h3.423c.115-.299.33-.5.577-.5zM8.5 11.333l.001 3.218c.298.115.499.33.499.577 0 .368-.448.666-1 .666s-1-.298-1-.666c0-.247.201-.463.5-.578v-3.217h1zM8 0c.552 0 1 .298 1 .667 0 .246-.2.461-.499.577L8.5 4.667h-1V1.244C7.201 1.13 7 .914 7 .667 7 .298 7.448 0 8 0zM7.5 7.5L8.5 7.5 8.5 8.5 7.5 8.5z" transform="translate(10 10)"/>
        </g>
    </g>
</svg>
