<svg xmlns="http://www.w3.org/2000/svg" width="48" height="48" viewBox="0 0 48 48">
    <g fill="none" fill-rule="evenodd">
        <circle cx="24" cy="24" r="24" fill="#E50000"/>
        <path d="M9.6 9.6h28.8v28.8H9.6z"/>
        <path fill="#FFF" fill-rule="nonzero" d="M15.012 28.176l2.4-1.908a2.406 2.406 0 0 0 .912-1.884v-3.12a18.08 18.08 0 0 1 11.184 0v3.132c0 .732.336 1.428.912 1.884l2.388 1.896c.96.756 2.328.684 3.192-.18l1.464-1.464c.96-.96.96-2.556-.06-3.456-7.692-6.792-19.284-6.792-26.976 0-1.02.9-1.02 2.496-.06 3.456l1.464 1.464c.852.864 2.22.936 3.18.18z"/>
    </g>
</svg>
