<svg xmlns="http://www.w3.org/2000/svg" width="24" height="24" viewBox="0 0 24 24">
    <g fill="none" fill-rule="evenodd">
        <path d="M0 0h24v24H0z"/>
        <path fill="#02475B" fill-rule="nonzero" d="M12 10.135c-.581 0-1.057-.436-1.057-1.027v-2.08C10.943 6.461 11.419 6 12 6s1.057.462 1.057 1.027v2.08c0 .566-.476 1.028-1.057 1.028zm6.211 2.466a1.17 1.17 0 0 1-.766-.308 1.003 1.003 0 0 1 0-1.464l1.533-1.49a1.075 1.075 0 0 1 1.507 0 1.003 1.003 0 0 1 0 1.464l-1.533 1.49a1.059 1.059 0 0 1-.74.308zm-13.163-.308l-1.559-1.49a1.003 1.003 0 0 1 0-1.464 1.075 1.075 0 0 1 1.507 0l1.533 1.49a1.003 1.003 0 0 1 0 1.464 1.059 1.059 0 0 1-.74.308c-.265 0-.556-.103-.74-.308zm17.895 6.652c.581 0 1.057.463 1.057 1.028S23.524 21 22.943 21H1.057C.476 21 0 20.538 0 19.973s.476-1.028 1.057-1.028h21.886zM7.137 17.43c-.582-.129-.926-.694-.714-1.259.66-2.491 2.987-4.238 5.63-4.238s4.969 1.747 5.63 4.238c.132.565-.212 1.105-.767 1.259-.079.025-.185.025-.264.025-.476 0-.899-.308-1.03-.77-.424-1.593-1.904-2.697-3.596-2.697-1.691 0-3.171 1.104-3.594 2.697a1.06 1.06 0 0 1-1.295.745z"/>
    </g>
</svg>
