<svg xmlns="http://www.w3.org/2000/svg" width="27" height="27" viewBox="0 0 27 27">
    <g fill="#E87E38">
        <path d="M13.5 0C6.038 0 0 6.038 0 13.5S6.038 27 13.5 27 27 20.962 27 13.5 20.962 0 13.5 0zm0 24.89c-6.296 0-11.39-5.094-11.39-11.39S7.203 2.11 13.5 2.11 24.89 7.203 24.89 13.5 19.797 24.89 13.5 24.89z"/>
        <path d="M13.5 6c-.828 0-1.5.477-1.5 1.066v6.868c0 .589.672 1.066 1.5 1.066s1.5-.477 1.5-1.066V7.066C15 6.477 14.328 6 13.5 6z"/>
        <circle cx="14" cy="19" r="2"/>
    </g>
</svg>
