<svg xmlns="http://www.w3.org/2000/svg" width="27" height="27" viewBox="0 0 27 27">
    <g fill="#E02020">
        <path d="M13.5 0C6.038 0 0 6.038 0 13.5S6.038 27 13.5 27 27 20.962 27 13.5 20.962 0 13.5 0zm0 24.89c-6.296 0-11.39-5.094-11.39-11.39S7.203 2.11 13.5 2.11 24.89 7.203 24.89 13.5 19.797 24.89 13.5 24.89z"/>
        <path stroke="#E02020" d="M14.325 13.5l3.504-3.505c.228-.227.228-.596 0-.824-.228-.228-.597-.228-.825 0L13.5 12.676 9.996 9.17c-.229-.228-.597-.228-.825 0-.228.228-.228.597 0 .824l3.504 3.505-3.504 3.505c-.228.228-.228.596 0 .824.114.114.263.171.412.171.15 0 .299-.057.413-.17l3.504-3.505 3.504 3.504c.114.114.263.171.413.171.149 0 .298-.057.412-.17.228-.229.228-.597 0-.825L14.325 13.5z"/>
    </g>
</svg>
