<svg xmlns="http://www.w3.org/2000/svg" width="24" height="24" viewBox="0 0 24 24">
    <g fill="none" fill-rule="evenodd">
        <path d="M0 0h24v24H0z"/>
        <path fill="#02475B" fill-rule="nonzero" d="M17.292 7.078a.363.363 0 0 0-.277-.115H14.96c-.137-.707-.393-1.32-.77-1.84h2.802a.364.364 0 0 0 .277-.116.413.413 0 0 0 .108-.294V3.41a.413.413 0 0 0-.108-.294A.364.364 0 0 0 16.99 3H6.985a.364.364 0 0 0-.277.115.413.413 0 0 0-.108.294v1.7c0 .111.038.207.114.288a.36.36 0 0 0 .27.121H8.73c1.691 0 2.766.482 3.223 1.445H6.985a.363.363 0 0 0-.277.115.413.413 0 0 0-.108.294v1.304c0 .12.036.217.108.294a.363.363 0 0 0 .277.115h5.135c-.176.699-.587 1.231-1.233 1.598-.645.367-1.497.55-2.555.55H6.985a.36.36 0 0 0-.27.121.406.406 0 0 0-.115.288v1.624c0 .11.036.204.108.28 1.54 1.74 3.536 4.172 5.99 7.3a.347.347 0 0 0 .3.154h2.345a.348.348 0 0 0 .35-.23.366.366 0 0 0-.05-.435c-2.34-3.051-4.18-5.335-5.52-6.852 1.364-.17 2.47-.64 3.32-1.406.85-.767 1.367-1.765 1.552-2.992h2.02a.362.362 0 0 0 .277-.115.411.411 0 0 0 .108-.294V7.372a.412.412 0 0 0-.108-.294z"/>
    </g>
</svg>
