<svg xmlns="http://www.w3.org/2000/svg" width="48" height="49" viewBox="0 0 48 49">
    <path fill="#00B38E" d="M33.185 2.328A24 24 0 0148 24.5c-.015 13.249-10.751 23.985-24 24a24 24 0 119.185-46.172zM24 2.42c-12.194 0-22.08 9.885-22.08 22.08C1.92 36.694 11.807 46.58 24 46.58c12.195 0 22.08-9.885 22.08-22.08C46.066 12.312 36.189 2.435 24 2.42zm10.455 25.528a.96.96 0 01-.162 1.417A18.166 18.166 0 0124 32.704a18.167 18.167 0 01-10.293-3.338.96.96 0 01-.233-1.326l.071-.09.086-.087a.96.96 0 011.19-.066A16.415 16.415 0 0024 30.784a16.415 16.415 0 009.178-2.987.96.96 0 011.277.152zM16.444 15.113a1.885 1.885 0 110 3.77 1.885 1.885 0 010-3.77zm15.112 0a1.885 1.885 0 110 3.77 1.885 1.885 0 010-3.77z"/>
</svg>
