<svg xmlns="http://www.w3.org/2000/svg" width="24" height="24" viewBox="0 0 24 24">
    <g fill="none" fill-rule="evenodd">
        <path d="M0 0h24v24H0z"/>
        <path fill="#00B38E" fill-rule="nonzero" d="M11.778 2C7.489 2 4 5.435 4 9.656a7.562 7.562 0 0 0 1.58 4.627l5.655 7.448a.68.68 0 0 0 1.085 0l5.655-7.448a7.562 7.562 0 0 0 1.58-4.627C19.556 5.435 16.067 2 11.779 2zm0 10.195c-1.422 0-2.58-1.139-2.58-2.539 0-1.4 1.158-2.539 2.58-2.539 1.422 0 2.58 1.14 2.58 2.54 0 1.4-1.158 2.538-2.58 2.538z"/>
    </g>
</svg>
