<svg xmlns="http://www.w3.org/2000/svg" width="25" height="24" viewBox="0 0 25 24">
    <g fill="none" fill-rule="evenodd">
        <path d="M1 0h24v24H1z"/>
        <path fill="#AFC3C9" fill-rule="nonzero" d="M17.005 11A2.99 2.99 0 0 0 20 8c0-1.66-1.332-3-2.995-3A2.998 2.998 0 0 0 14 8c0 1.66 1.342 3 3.005 3z"/>
        <path fill="#02475B" fill-rule="nonzero" d="M9.005 11A2.99 2.99 0 0 0 12 8c0-1.66-1.332-3-2.995-3A2.998 2.998 0 0 0 6 8c0 1.66 1.342 3 3.005 3zM9 13c-2.33 0-7 1.17-7 3.5V18c0 .55.45 1 1 1h12c.55 0 1-.45 1-1v-1.5c0-2.33-4.67-3.5-7-3.5z"/>
        <path fill="#AFC3C9" fill-rule="nonzero" d="M16.974 13c-.291 0-.623.02-.974.05.02.01.03.03.04.04 1.144.83 1.937 1.94 1.937 3.41V18c0 .35-.07.69-.18 1h5.2c.551 0 1.003-.45 1.003-1v-1.5c0-2.33-4.688-3.5-7.026-3.5z"/>
    </g>
</svg>
