<svg xmlns="http://www.w3.org/2000/svg" width="24" height="24" viewBox="0 0 24 24">
    <g fill="none" fill-rule="evenodd">
        <path d="M0 0h24v24H0z"/>
        <path fill="#02475B" fill-rule="nonzero" d="M12 7.105c-.581 0-1.057-.46-1.057-1.02V4.02c0-.561.476-1.02 1.057-1.02s1.057.459 1.057 1.02v2.065c0 .56-.476 1.02-1.057 1.02zm7.744 7.47c0-.56.45-1.02 1.058-1.02h2.14c.582 0 1.058.46 1.058 1.02 0 .561-.476 1.02-1.057 1.02h-2.141c-.582 0-1.058-.459-1.058-1.02zm-18.687 1.02c-.581 0-1.057-.459-1.057-1.02 0-.56.476-1.02 1.057-1.02h2.141c.582 0 1.058.46 1.058 1.02 0 .561-.476 1.02-1.058 1.02h-2.14zm17.154-5.992c-.264 0-.528-.102-.766-.306a.99.99 0 0 1 0-1.453l1.533-1.479a1.08 1.08 0 0 1 1.507 0 .99.99 0 0 1 0 1.454l-1.533 1.478a1.063 1.063 0 0 1-.74.306zM5.048 9.297L3.49 7.82a.99.99 0 0 1 0-1.454 1.08 1.08 0 0 1 1.507 0l1.533 1.48a.99.99 0 0 1 0 1.452 1.063 1.063 0 0 1-.74.306c-.265 0-.53-.102-.74-.306zm1.666 7.598a5.402 5.402 0 0 1-.529-2.294c0-3.085 2.617-5.61 5.815-5.61 3.198 0 5.815 2.525 5.815 5.61 0 .79-.185 1.58-.529 2.32-.158.357-.555.586-.951.586-.159 0-.317-.05-.45-.102-.528-.23-.766-.841-.528-1.351.238-.46.343-.969.343-1.479 0-1.963-1.665-3.57-3.7-3.57s-3.7 1.607-3.7 3.57c0 .51.132 1.02.343 1.479.238.51 0 1.122-.528 1.351-.53.23-1.163 0-1.401-.51zm16.229 2.065c.581 0 1.057.46 1.057 1.02 0 .561-.476 1.02-1.057 1.02H1.057C.476 21 0 20.541 0 19.98c0-.56.476-1.02 1.057-1.02h21.886z"/>
    </g>
</svg>
