<svg xmlns="http://www.w3.org/2000/svg" width="24" height="24" viewBox="0 0 24 24">
    <g fill="none" fill-rule="evenodd">
        <path d="M0 0h24v24H0z"/>
        <path fill="#02475B" fill-rule="nonzero" d="M12.438 21c-2.997 0-5.813-1.642-7.312-4.248-2.325-4.065-.93-9.276 3.075-11.622a8.207 8.207 0 0 1 4.547-1.12c.388.026.724.234.879.573.18.339.129.756-.078 1.068-1.292 1.877-1.395 4.378-.258 6.333 1.06 1.824 2.997 2.97 5.115 2.97.155 0 .31 0 .465-.026.388-.026.75.157.956.47.207.312.233.729.052 1.068a8.418 8.418 0 0 1-3.255 3.413A8.395 8.395 0 0 1 12.438 21zM10.94 6.25a5.985 5.985 0 0 0-1.706.678C6.212 8.726 5.152 12.661 6.91 15.71a6.39 6.39 0 0 0 5.53 3.205 6.263 6.263 0 0 0 3.177-.86 6.264 6.264 0 0 0 1.447-1.146 8.048 8.048 0 0 1-5.53-3.883c-1.188-2.085-1.368-4.56-.593-6.775z"/>
    </g>
</svg>
