<svg xmlns="http://www.w3.org/2000/svg" width="24" height="24" viewBox="0 0 24 24">
    <g fill="none" fill-rule="evenodd">
        <path d="M0 0h24v24H0z"/>
        <path fill="#02475B" fill-rule="nonzero" d="M5.25 1h9L21 7.6v13.2c0 1.21-1.012 2.2-2.25 2.2H5.239C4 23 3 22.01 3 20.8l.011-17.6C3.011 1.99 4.013 1 5.25 1zM14 8h5l-5-5v5zm-6.68 8.714v-1.689h1.445c.302 0 .53.066.68.198.152.131.227.343.227.634 0 .303-.075.521-.227.656-.15.134-.378.201-.68.201H7.319zM6 14v6h1.32v-2.345h1.319c.33 0 .568.073.714.219.146.146.24.375.286.689.033.24.058.493.075.756.017.264.062.49.135.681h1.32a.883.883 0 0 1-.14-.307 2.65 2.65 0 0 1-.067-.382 6.566 6.566 0 0 1-.03-.395c-.005-.129-.01-.24-.016-.336a3.606 3.606 0 0 0-.063-.454c-.03-.151-.08-.29-.147-.416a1.018 1.018 0 0 0-.664-.534v-.016c.336-.135.578-.33.727-.589.148-.257.223-.563.223-.916 0-.23-.041-.444-.122-.642a1.55 1.55 0 0 0-.353-.526 1.673 1.673 0 0 0-.555-.357 1.931 1.931 0 0 0-.727-.13H6zm8.1 3.714L12.539 20h1.336l.908-1.37.907 1.37h1.361l-1.605-2.31 1.429-2.035h-1.32l-.756 1.135-.764-1.135h-1.362l1.429 2.06z"/>
    </g>
</svg>
