<svg xmlns="http://www.w3.org/2000/svg" width="20" height="20" viewBox="0 0 20 20">
    <g fill="none" fill-rule="evenodd">
        <path d="M0 0h20v20H0z"/>
        <path fill="#02475B" fill-rule="nonzero" d="M3.758 12.9l1.667-1.325c.4-.317.633-.8.633-1.308V8.1a12.556 12.556 0 0 1 7.767 0v2.175c0 .508.233.992.633 1.308l1.659 1.317a1.67 1.67 0 0 0 2.216-.125l1.017-1.017c.667-.666.667-1.775-.042-2.4-5.341-4.716-13.391-4.716-18.733 0-.708.625-.708 1.734-.042 2.4l1.017 1.017c.592.6 1.542.65 2.208.125z"/>
    </g>
</svg>
