<svg xmlns="http://www.w3.org/2000/svg" xmlns:xlink="http://www.w3.org/1999/xlink" width="24" height="24" viewBox="0 0 24 24">
    <defs>
        <path id="a" d="M3 2h18.291v20H3z"/>
    </defs>
    <g fill="none" fill-rule="evenodd">
        <path d="M0 0h24v24H0z"/>
        <mask id="b" fill="#fff">
            <use xlink:href="#a"/>
        </mask>
        <path fill="#02475B" d="M9.24 11H3V6.08A4.087 4.087 0 0 1 7.082 2h1.164a4.083 4.083 0 0 1 4.077 4.079v3.31a7.002 7.002 0 0 0-3.083 1.612zm-2.333 5.227a7.013 7.013 0 0 0 2.703 5.537A4.094 4.094 0 0 1 8.246 22H7.082A4.084 4.084 0 0 1 3 17.922v-5.715h5.171a6.995 6.995 0 0 0-1.264 4.02zm14.255.311l-2.182 2.18a.496.496 0 0 1-.285.189c-.141.024-.303.017-.404-.084L16 16.538a.441.441 0 1 1 .312-.754h1.232a3.533 3.533 0 0 0-3.501-3.087 3.533 3.533 0 0 0-3.529 3.528 3.533 3.533 0 0 0 3.529 3.528c.244 0 .441.198.441.442v1.135a.44.44 0 0 1-.441.441 5.55 5.55 0 0 1-5.545-5.546 5.55 5.55 0 0 1 5.545-5.546 5.555 5.555 0 0 1 5.529 5.105h1.277a.443.443 0 0 1 .313.754z" mask="url(#b)"/>
    </g>
</svg>
