<svg xmlns="http://www.w3.org/2000/svg" width="28" height="28" viewBox="0 0 28 28">
    <g fill="none" fill-rule="evenodd">
        <circle cx="14" cy="14" r="14" fill="#0087BA"/>
        <path fill="#FFF" fill-rule="nonzero" d="M14.227 7.148l1.967 4.183a.254.254 0 0 0 .19.145l4.399.671c.207.032.29.3.14.453l-3.182 3.256a.274.274 0 0 0-.073.235l.751 4.598c.036.217-.182.382-.367.28l-3.934-2.17a.244.244 0 0 0-.236 0l-3.934 2.17c-.185.102-.402-.063-.367-.28l.751-4.598a.274.274 0 0 0-.073-.235L7.077 12.6c-.15-.153-.067-.421.14-.453l4.399-.67a.254.254 0 0 0 .19-.146l1.967-4.183a.248.248 0 0 1 .454 0z"/>
    </g>
</svg>
