<svg xmlns="http://www.w3.org/2000/svg" width="24" height="24" viewBox="0 0 24 24">
    <g fill="none" fill-rule="evenodd">
        <path d="M0 0L24 0 24 24 0 24z"/>
        <path fill="#02475B" fill-rule="nonzero" d="M3.602 21h16.796c.829 0 1.5-.672 1.5-1.5 0-.264-.07-.523-.202-.752L13.298 4.242c-.415-.717-1.333-.961-2.05-.546-.226.131-.415.32-.546.546L2.304 18.748c-.416.717-.17 1.635.546 2.05.229.132.488.202.752.202zM12 18c-.552 0-1-.448-1-1s.448-1 1-1 1 .448 1 1-.448 1-1 1zm0-4c-.552 0-1-.448-1-1v-2c0-.552.448-1 1-1s1 .448 1 1v2c0 .552-.448 1-1 1z"/>
    </g>
</svg>
