<svg xmlns="http://www.w3.org/2000/svg" width="40" height="40" viewBox="0 0 40 40">
    <g fill="none" fill-rule="evenodd">
        <path d="M0 0L40 0 40 40 0 40z"/>
        <path fill="#FFF" d="M4.268 35h31.464c.828 0 1.5-.672 1.5-1.5 0-.264-.07-.523-.202-.752L21.298 5.576c-.415-.717-1.333-.962-2.05-.547-.226.131-.415.32-.546.547L2.97 32.748c-.415.717-.17 1.635.547 2.05.228.132.487.202.751.202zM20 30c-.92 0-1.667-.746-1.667-1.667 0-.92.747-1.666 1.667-1.666s1.667.746 1.667 1.666c0 .92-.747 1.667-1.667 1.667zm0-6.667c-.92 0-1.667-.746-1.667-1.666v-3.334c0-.92.747-1.666 1.667-1.666s1.667.746 1.667 1.666v3.334c0 .92-.747 1.666-1.667 1.666z"/>
    </g>
</svg>
