<svg xmlns="http://www.w3.org/2000/svg" width="198" height="186" viewBox="0 0 198 186">
    <defs>
        <filter id="prefix__a" width="155.7%" height="161.4%" x="-27.9%" y="-30.7%" filterUnits="objectBoundingBox">
            <feOffset dy="4" in="SourceAlpha" result="shadowOffsetOuter1"/>
            <feGaussianBlur in="shadowOffsetOuter1" result="shadowBlurOuter1" stdDeviation="8"/>
            <feColorMatrix in="shadowBlurOuter1" result="shadowMatrixOuter1" values="0 0 0 0 0 0 0 0 0 0 0 0 0 0 0 0 0 0 0.2 0"/>
            <feMerge>
                <feMergeNode in="shadowMatrixOuter1"/>
                <feMergeNode in="SourceGraphic"/>
            </feMerge>
        </filter>
    </defs>
    <g fill="none" fill-rule="evenodd" filter="url(#prefix__a)" transform="translate(29 29.787)">
        <path fill="#6899B4" d="M1.752 34.587L43.474 126.806 128.835 85.668 92.766 8.965z"/>
        <path fill="#007C9D" d="M123.495 93.244L36.127 120.163 22.243 20.261 102.701 16.477z"/>
        <path fill="#F6931D" d="M0 33.336L15.292 84.869 123.357 59.567 116.221 16.879zM20.983 86.707L15.228 110.756 22.195 112.861z"/>
        <path fill="#007C9D" d="M24.315 92.418L33.706 110.456 25.527 118.272zM21.22 25.974L9.468 17.189 3.31 21.773z"/>
        <path fill="#F6931D" d="M133.064 84.302L139.425 77.731 123.067 61.755z"/>
        <path fill="#007C9D" d="M105.274 16.208L112.544 7.49 118.602 9.294z"/>
        <path fill="#6899B4" d="M105.309 0L96.263.955 97.697 13.041zM120.14 97.337L117.411 107.959 61.793 121.081z"/>
        <path fill="#FEFEFE" d="M10.866 42.764L18.466 41.52 22.216 64.08 14.617 65.325zM23.077 40.765L30.189 39.601 39.931 48.236 38.276 38.277 45.81 37.043 49.561 59.603 42.805 60.709 32.631 51.682 34.362 62.092 26.828 63.326z"/>
        <g>
            <path fill="#FEFEFE" d="M26.134 23.551c1.754-.287 3.083-.885 3.989-1.795.905-.91 1.222-2.181.95-3.814l-.01-.064c-.272-1.633-.984-2.736-2.135-3.31-1.152-.572-2.605-.715-4.358-.428l-1.267.207 1.565 9.411 1.266-.207zM14.611 9.017l8.703-1.425c2.252-.369 4.271-.429 6.059-.181 1.787.249 3.323.764 4.61 1.546 1.286.783 2.324 1.81 3.114 3.082.79 1.273 1.325 2.747 1.603 4.422l.01.065c.28 1.676.248 3.26-.094 4.75-.341 1.49-1.008 2.835-1.998 4.035-.99 1.2-2.3 2.22-3.928 3.06-1.628.84-3.59 1.448-5.885 1.824l-8.443 1.382-3.751-22.56zM40.949 4.705L48.548 3.461 52.299 26.021 44.699 27.265zM69.222 14.642l-2.99-5.138-1.167 5.819 4.157-.68zM61.057 1.247L68.59.013 81.95 21.166l-8.25 1.351-1.704-2.833-7.957 1.303-.665 3.221-8.12 1.329 5.804-24.29zM.226 67.554L3.591 66.75 4.685 71.26 9.004 70.229 7.911 65.718 11.276 64.915 14.198 76.964 10.833 77.768 9.722 73.189 5.403 74.221 6.514 78.8 3.148 79.604zM12.385 64.65L22.151 62.317 22.84 65.157 16.405 66.695 16.847 68.519 22.675 67.127 23.314 69.761 17.486 71.153 17.949 73.063 24.471 71.506 25.16 74.346 15.307 76.699zM32.524 67.561l-2.183-3.103-.54 3.753 2.723-.65zm-4.74-6.68l3.244-.775 8.113 10.901-3.609.862-1.406-1.94-4.683 1.118-.346 2.358-3.538.846 2.226-13.37zM36.704 58.841L40.069 58.038 42.281 67.161 48.162 65.757 48.872 68.683 39.626 70.891zM48.636 59.087L44.994 59.957 44.284 57.031 54.934 54.487 55.644 57.413 52.001 58.283 54.214 67.407 50.849 68.21zM55.714 54.301L59.079 53.497 60.173 58.007 64.492 56.976 63.398 52.465 66.764 51.662 69.686 63.711 66.321 64.515 65.21 59.936 60.891 60.968 62.002 65.547 58.637 66.351zM73.899 57.934L67.457 51.496 71.29 50.58 74.853 54.374 76.303 49.383 80.068 48.484 77.27 57.074 78.376 61.636 74.993 62.444zM49.222 48.107L18.337 53.841 17.773 40.261 48.658 34.527z" transform="translate(35.746 27.282)"/>
            <path fill="#007C9D" d="M26.77 50.004c-.647.12-1.263.128-1.85.02-.588-.11-1.118-.314-1.591-.613-.474-.3-.874-.688-1.201-1.166-.328-.476-.55-1.024-.668-1.641l-.004-.024c-.115-.601-.11-1.181.017-1.74.126-.557.35-1.067.67-1.527.32-.461.732-.852 1.238-1.174.506-.321 1.078-.542 1.716-.662.732-.137 1.384-.15 1.956-.039.572.111 1.114.313 1.627.606l-1.041 1.859c-.347-.194-.689-.328-1.025-.403-.337-.074-.71-.073-1.12.003-.299.057-.565.167-.799.332-.233.166-.425.368-.576.607-.15.238-.254.505-.312.799-.059.294-.058.597.002.91l.004.023c.063.329.176.623.34.884.164.26.365.472.604.634.239.161.505.273.798.336.293.062.605.062.936 0 .535-.1.955-.296 1.259-.588l-.19-.997-1.63.306-.318-1.665 3.804-.713.704 3.693c-.373.442-.835.84-1.387 1.195-.553.355-1.207.603-1.963.745M30.042 40.72L36.693 39.472 37.062 41.406 32.679 42.229 32.916 43.471 36.885 42.727 37.227 44.521 33.258 45.265 33.506 46.567 37.948 45.733 38.316 47.668 31.606 48.927zM40.322 40.856L37.841 41.321 37.461 39.328 44.715 37.967 45.095 39.96 42.614 40.426 43.797 46.64 41.506 47.07z" transform="translate(35.746 27.282)"/>
        </g>
    </g>
</svg>
