<svg xmlns="http://www.w3.org/2000/svg" xmlns:xlink="http://www.w3.org/1999/xlink" width="319" height="183" viewBox="0 0 319 183">
    <defs>
        <path id="prefix__b" d="M153.343 0C244.281 0 318 6.382 318 14.254c0 7.871-73.72 14.252-164.657 14.252-61.571 0-115.241-2.926-143.489-7.26C6.401 17.323 3.118 13.25 0 9.052"/>
        <path id="prefix__e" d="M114.411.35c67.487 0 122.196 4.822 122.196 10.768 0 5.946-54.71 10.766-122.196 10.766-45.695 0-85.524-2.21-106.487-5.483-2.562-2.965-4.999-6.042-7.313-9.213"/>
        <path id="prefix__g" d="M32.897 171.086L285.921 171.086 285.921 0 32.897 0z"/>
        <path id="prefix__i" d="M6.62.553v8.082c0 2.41 1.955 4.363 4.364 4.363 2.41 0 4.364 1.953 4.364 4.363v69.428c0 4.118-3.339 7.456-7.457 7.456H1.964c4.118 0 7.457-3.338 7.457-7.456V17.36c0-2.41-1.953-4.363-4.364-4.363-2.41 0-4.364-1.953-4.364-4.363V.553"/>
        <path id="prefix__k" d="M1.736.586c2.585 0 4.68 2.095 4.68 4.679v7.376H3.06V5.265c0-1.99-1.248-3.68-3.001-4.355"/>
        <path id="prefix__m" d="M3.923.135c1.31 0 2.371 1.062 2.371 2.37V8.48c0 1.309-1.061 2.37-2.37 2.37H.564c1.31 0 2.371-1.061 2.371-2.37V2.506c0-1.31-1.06-2.37-2.37-2.37"/>
        <path id="prefix__o" d="M17.631.756c1.524 0 2.76 1.235 2.76 2.76V17.03c0 1.525-1.236 2.76-2.76 2.76h-.695v53.106c0 2.725-2.21 4.935-4.935 4.935H.473c2.726 0 4.936-2.21 4.936-4.935V19.79h.694c1.524 0 2.76-1.234 2.76-2.759V3.516c0-1.525-1.236-2.76-2.76-2.76"/>
        <path id="prefix__q" d="M45.977.603v8.13c0 1.952 1.582 3.535 3.535 3.535H.761c1.953 0 3.536-1.583 3.536-3.535V.603"/>
        <path id="prefix__s" d="M18.695.349c1.72 0 3.114 1.393 3.114 3.113v3.453c0 1.72-1.394 3.113-3.114 3.113h-3.208v3.395c0 1.952 1.582 3.534 3.535 3.534l.166.004c1.876.087 3.37 1.635 3.37 3.531v62.254c0 3.412-2.767 6.178-6.18 6.178H1.535c3.412 0 6.178-2.766 6.178-6.178V20.492c0-1.952-1.582-3.535-3.535-3.535S.642 15.375.642 13.423v-3.395H3.85c1.72 0 3.113-1.393 3.113-3.113V3.462C6.963 1.742 5.57.349 3.85.349"/>
        <path id="prefix__u" d="M30.174.504c-.201 3.11-2.781 5.571-5.943 5.571H6.111C2.95 6.075.37 3.614.17.505c.943.624 2.072.99 3.29.99h23.425"/>
        <path id="prefix__w" d="M25.118.707c1.618 2.663.917 6.16-1.673 7.972L8.6 19.067C6.01 20.878 2.485 20.34.536 17.909c1.132-.029 2.268-.377 3.264-1.074l19.19-13.43"/>
        <linearGradient id="prefix__c" x1="50%" x2="50%" y1="0%" y2="100%">
            <stop offset="0%" stop-color="#FFF"/>
            <stop offset="100%" stop-color="#595959"/>
            <stop offset="100%"/>
        </linearGradient>
        <filter id="prefix__a" width="106.6%" height="175.4%" x="-3.3%" y="-36.8%" filterUnits="objectBoundingBox">
            <feOffset dy="2" in="SourceAlpha" result="shadowOffsetOuter1"/>
            <feGaussianBlur in="shadowOffsetOuter1" result="shadowBlurOuter1" stdDeviation="1.5"/>
            <feColorMatrix in="shadowBlurOuter1" result="shadowMatrixOuter1" values="0 0 0 0 0 0 0 0 0 0 0 0 0 0 0 0 0 0 0.5 0"/>
            <feMerge>
                <feMergeNode in="shadowMatrixOuter1"/>
                <feMergeNode in="SourceGraphic"/>
            </feMerge>
        </filter>
    </defs>
    <g fill="none" fill-rule="evenodd" transform="translate(.5 .97)">
        <g filter="url(#prefix__a)" opacity=".096" transform="translate(0 152.978)">
            <mask id="prefix__d" fill="#fff">
                <use xlink:href="#prefix__b"/>
            </mask>
            <path fill="url(#prefix__c)" d="M155.402-12.217c-69.731 0-129.335 3.753-153.344 9.051C5.177 1.032 8.46 5.105 11.912 9.03c28.248 4.333 81.918 7.26 143.49 7.26 90.937 0 164.656-6.382 164.656-14.253 0-7.872-73.72-14.254-164.656-14.254" mask="url(#prefix__d)"/>
        </g>
        <g transform="translate(49.315 149.202)">
            <mask id="prefix__f" fill="#fff">
                <use xlink:href="#prefix__e"/>
            </mask>
            <path d="M114.411.35C62.662.35 18.43 3.187.611 7.189c2.314 3.171 4.75 6.248 7.313 9.213 20.963 3.273 60.792 5.483 106.487 5.483 67.487 0 122.196-4.82 122.196-10.766S181.897.351 114.41.351" mask="url(#prefix__f)"/>
        </g>
        <path fill="#FFF" d="M146.27 0L146.27 50.815 95.44 50.815 95.44 107.438 146.27 107.438 146.27 158.253 202.908 158.253 202.908 107.438 253.738 107.438 253.738 50.815 202.908 50.815 202.908 0z"/>
        <path fill="#4DD0E1" d="M148.073 39.42c-.588 0-1.132-.319-1.418-.836l-3.797-6.879-3.6 6.85c-.28.532-.833.866-1.434.866-.601-.003-1.157-.336-1.436-.87l-8.552-16.388-9.348 16.439c-.288.506-.826.819-1.408.819h-9.272c-.894 0-1.62-.726-1.62-1.62 0-.893.726-1.618 1.62-1.618h8.33l10.35-18.203c.29-.506.827-.818 1.409-.818h.029c.592.011 1.133.345 1.406.87l8.497 16.28 3.56-6.774c.277-.526.821-.86 1.417-.866.585-.02 1.146.315 1.434.837l3.723 6.743 5.397-11.39c.274-.577.882-.934 1.499-.926.639.014 1.21.402 1.457.99l5.584 13.257h7.175c.894 0 1.62.725 1.62 1.618 0 .894-.726 1.62-1.62 1.62h-8.25c-.65 0-1.239-.391-1.492-.991l-4.596-10.911-5.2 10.976c-.26.55-.807.906-1.414.925h-.05M78.607 72.645v-8.082H62.585v8.082c0 2.41-1.954 4.362-4.364 4.362s-4.363 1.954-4.363 4.363v69.428c0 4.118 3.338 7.456 7.458 7.456h18.561c4.12 0 7.458-3.338 7.458-7.456V81.37c0-2.41-1.954-4.363-4.364-4.363s-4.364-1.953-4.364-4.362"/>
        <mask id="prefix__h" fill="#fff">
            <use xlink:href="#prefix__g"/>
        </mask>
        <path fill="#FFF" d="M58.222 116.147L87.335 116.147 87.335 90.696 58.222 90.696z" mask="url(#prefix__h)"/>
        <g mask="url(#prefix__h)">
            <g transform="translate(71.987 64.01)">
                <mask id="prefix__j" fill="#fff">
                    <use xlink:href="#prefix__i"/>
                </mask>
                <path d="M10.984 12.998c-2.41 0-4.364-1.953-4.364-4.363V.553H.693v8.082c0 2.41 1.954 4.363 4.364 4.363s4.364 1.953 4.364 4.363v69.428c0 4.118-3.339 7.456-7.457 7.456H7.89c4.118 0 7.457-3.338 7.457-7.456V17.36c0-2.41-1.953-4.363-4.364-4.363" mask="url(#prefix__j)"/>
            </g>
        </g>
        <path d="M62.585 71.834L78.607 71.834 78.607 64.563 62.585 64.563z" mask="url(#prefix__h)"/>
        <path fill="#FFF" d="M79.037 68.607H62.155c-1.31 0-2.37-1.062-2.37-2.37v-5.974c0-1.31 1.06-2.37 2.37-2.37h16.882c1.31 0 2.371 1.06 2.371 2.37v5.973c0 1.31-1.061 2.37-2.37 2.37M70.596 45.838c-2.584 0-4.68 2.095-4.68 4.679v7.375h9.36v-7.375c0-2.584-2.095-4.679-4.68-4.679" mask="url(#prefix__h)"/>
        <g mask="url(#prefix__h)">
            <g transform="translate(68.86 45.251)">
                <mask id="prefix__l" fill="#fff">
                    <use xlink:href="#prefix__k"/>
                </mask>
                <path d="M3.06 5.265v7.376h3.356V5.265c0-2.584-2.095-4.679-4.68-4.679C1.143.586.58.708.058.91c1.753.676 3.001 2.365 3.001 4.355" mask="url(#prefix__l)"/>
                <g transform="translate(6.254 12.505)">
                    <mask id="prefix__n" fill="#fff">
                        <use xlink:href="#prefix__m"/>
                    </mask>
                    <path d="M3.923.135H.565c1.31 0 2.371 1.062 2.371 2.37V8.48c0 1.309-1.06 2.37-2.37 2.37h3.357c1.31 0 2.371-1.061 2.371-2.37V2.506c0-1.31-1.061-2.37-2.37-2.37" mask="url(#prefix__n)"/>
                </g>
            </g>
        </g>
        <path fill="#FFF" d="M60.403 119.851c-1.205 0-2.182-.976-2.182-2.181V84.828c0-1.205.977-2.182 2.182-2.182s2.182.977 2.182 2.182v32.842c0 1.205-.977 2.181-2.182 2.181M60.403 132.846c-1.205 0-2.182-.977-2.182-2.182v-2.946c0-1.205.977-2.181 2.182-2.181s2.182.976 2.182 2.18v2.947c0 1.205-.977 2.182-2.182 2.182" mask="url(#prefix__h)"/>
        <path fill="#4DD0E1" d="M248.872 108.248h-86.63c-1.781 0-3.227 1.444-3.227 3.226v44.363c0 1.781 1.446 3.226 3.228 3.226h86.63c1.782 0 3.227-1.445 3.227-3.226v-44.363c0-1.782-1.445-3.226-3.228-3.226" mask="url(#prefix__h)"/>
        <path fill="#28BBC6" d="M183.586 124.298c0 4.055-3.288 7.342-7.344 7.342-4.056 0-7.343-3.287-7.343-7.342 0-4.054 3.287-7.34 7.343-7.34s7.344 3.286 7.344 7.34M183.586 147.142c0 4.054-3.288 7.34-7.344 7.34-4.056 0-7.343-3.286-7.343-7.34 0-4.055 3.287-7.342 7.343-7.342s7.344 3.287 7.344 7.342M204.483 124.298c0 4.055-3.289 7.342-7.344 7.342-4.056 0-7.343-3.287-7.343-7.342 0-4.054 3.287-7.34 7.343-7.34 4.055 0 7.344 3.286 7.344 7.34M204.483 147.142c0 4.054-3.289 7.34-7.344 7.34-4.056 0-7.343-3.286-7.343-7.34 0-4.055 3.287-7.342 7.343-7.342 4.055 0 7.344 3.287 7.344 7.342M225.379 124.298c0 4.055-3.287 7.342-7.343 7.342s-7.344-3.287-7.344-7.342c0-4.054 3.288-7.34 7.344-7.34 4.056 0 7.343 3.286 7.343 7.34M225.379 147.142c0 4.054-3.287 7.34-7.343 7.34s-7.344-3.286-7.344-7.34c0-4.055 3.288-7.342 7.344-7.342 4.056 0 7.343 3.287 7.343 7.342M246.276 124.298c0 4.055-3.288 7.342-7.344 7.342-4.056 0-7.343-3.287-7.343-7.342 0-4.054 3.287-7.34 7.343-7.34s7.344 3.286 7.344 7.34M246.276 147.142c0 4.054-3.288 7.34-7.344 7.34-4.056 0-7.343-3.286-7.343-7.34 0-4.055 3.287-7.342 7.343-7.342s7.344 3.287 7.344 7.342" mask="url(#prefix__h)"/>
        <path fill="#FFF" d="M181.932 122.363c0 4.054-3.287 7.34-7.343 7.34s-7.344-3.286-7.344-7.34c0-4.055 3.288-7.342 7.344-7.342 4.056 0 7.343 3.287 7.343 7.342" mask="url(#prefix__h)"/>
        <path fill="#E7EDF4" d="M172.935 129.51c.533.123 1.085.194 1.654.194.57 0 1.121-.071 1.653-.194v-14.295c-.532-.123-1.084-.194-1.653-.194-.57 0-1.121.071-1.654.194v14.295z" mask="url(#prefix__h)"/>
        <path fill="#FFF" d="M181.932 144.948c0 4.054-3.287 7.342-7.343 7.342s-7.344-3.288-7.344-7.342 3.288-7.341 7.344-7.341c4.056 0 7.343 3.287 7.343 7.341" mask="url(#prefix__h)"/>
        <path fill="#E7EDF4" d="M172.935 152.096c.533.123 1.085.194 1.654.194.57 0 1.121-.071 1.653-.194V137.8c-.532-.123-1.084-.194-1.653-.194-.57 0-1.121.07-1.654.194v14.295z" mask="url(#prefix__h)"/>
        <path fill="#FFF" d="M202.829 122.363c0 4.054-3.288 7.34-7.343 7.34-4.056 0-7.344-3.286-7.344-7.34 0-4.055 3.288-7.342 7.344-7.342 4.055 0 7.343 3.287 7.343 7.342" mask="url(#prefix__h)"/>
        <path fill="#E7EDF4" d="M193.832 129.51c.533.123 1.084.194 1.654.194.569 0 1.12-.071 1.653-.194v-14.295c-.532-.123-1.084-.194-1.653-.194-.57 0-1.121.071-1.654.194v14.295z" mask="url(#prefix__h)"/>
        <path fill="#FFF" d="M202.829 144.948c0 4.054-3.288 7.342-7.343 7.342-4.056 0-7.344-3.288-7.344-7.342s3.288-7.341 7.344-7.341c4.055 0 7.343 3.287 7.343 7.341" mask="url(#prefix__h)"/>
        <path fill="#E7EDF4" d="M193.832 152.096c.533.123 1.084.194 1.654.194.569 0 1.12-.071 1.653-.194V137.8c-.532-.123-1.084-.194-1.653-.194-.57 0-1.121.07-1.654.194v14.295z" mask="url(#prefix__h)"/>
        <path fill="#FFF" d="M223.726 122.363c0 4.054-3.288 7.34-7.344 7.34-4.056 0-7.343-3.286-7.343-7.34 0-4.055 3.287-7.342 7.343-7.342s7.344 3.287 7.344 7.342" mask="url(#prefix__h)"/>
        <path fill="#E7EDF4" d="M214.729 129.51c.532.123 1.084.194 1.653.194.57 0 1.121-.071 1.654-.194v-14.295c-.533-.123-1.084-.194-1.654-.194-.57 0-1.121.071-1.653.194v14.295z" mask="url(#prefix__h)"/>
        <path fill="#FFF" d="M223.726 144.948c0 4.054-3.288 7.342-7.344 7.342-4.056 0-7.343-3.288-7.343-7.342s3.287-7.341 7.343-7.341 7.344 3.287 7.344 7.341" mask="url(#prefix__h)"/>
        <path fill="#E7EDF4" d="M214.729 152.096c.532.123 1.084.194 1.653.194.57 0 1.121-.071 1.654-.194V137.8c-.533-.123-1.084-.194-1.654-.194-.57 0-1.121.07-1.653.194v14.295z" mask="url(#prefix__h)"/>
        <path fill="#FFF" d="M244.622 122.363c0 4.054-3.287 7.34-7.343 7.34s-7.344-3.286-7.344-7.34c0-4.055 3.288-7.342 7.344-7.342 4.056 0 7.343 3.287 7.343 7.342" mask="url(#prefix__h)"/>
        <path fill="#E7EDF4" d="M235.625 129.51c.533.123 1.085.194 1.654.194.57 0 1.12-.071 1.653-.194v-14.295c-.532-.123-1.083-.194-1.653-.194-.57 0-1.121.071-1.654.194v14.295z" mask="url(#prefix__h)"/>
        <path fill="#FFF" d="M244.622 144.948c0 4.054-3.287 7.342-7.343 7.342s-7.344-3.288-7.344-7.342 3.288-7.341 7.344-7.341c4.056 0 7.343 3.287 7.343 7.341" mask="url(#prefix__h)"/>
        <path fill="#E7EDF4" d="M235.625 152.096c.533.123 1.085.194 1.654.194.57 0 1.12-.071 1.653-.194V137.8c-.532-.123-1.083-.194-1.653-.194-.57 0-1.121.07-1.654.194v14.295z" mask="url(#prefix__h)"/>
        <path fill="#235196" d="M86.795 44.209c-1.267 0-2.293-1.026-2.293-2.293v-8.228c0-1.267 1.026-2.293 2.293-2.293 1.266 0 2.293 1.026 2.293 2.293v8.228c0 1.267-1.027 2.293-2.293 2.293" mask="url(#prefix__h)"/>
        <path fill="#235196" d="M80.386 37.802c0-1.266 1.026-2.292 2.293-2.292h8.23c1.268 0 2.295 1.026 2.295 2.292 0 1.266-1.027 2.292-2.294 2.292h-8.231c-1.267 0-2.293-1.026-2.293-2.292M244.884 44.209c-1.267 0-2.293-1.026-2.293-2.293v-8.228c0-1.267 1.026-2.293 2.293-2.293 1.266 0 2.293 1.026 2.293 2.293v8.228c0 1.267-1.027 2.293-2.293 2.293" mask="url(#prefix__h)"/>
        <path fill="#235196" d="M238.475 37.802c0-1.266 1.026-2.292 2.293-2.292h8.23c1.268 0 2.295 1.026 2.295 2.292 0 1.266-1.027 2.292-2.294 2.292h-8.231c-1.267 0-2.293-1.026-2.293-2.292M146.531 158.254h-37.56c-2.726 0-4.935-2.21-4.935-4.934V92.989h47.43v60.33c0 2.725-2.209 4.935-4.935 4.935" mask="url(#prefix__h)"/>
        <path fill="#E7EDF4" d="M152.162 100.213h-48.82c-1.525 0-2.761-1.235-2.761-2.759V83.938c0-1.524 1.236-2.76 2.76-2.76h48.82c1.525 0 2.76 1.236 2.76 2.76v13.516c0 1.524-1.235 2.76-2.76 2.76" mask="url(#prefix__h)"/>
        <path fill="#4DD0E1" d="M104.035 132.846L151.467 132.846 151.467 111.67 104.035 111.67z" mask="url(#prefix__h)"/>
        <path fill="#FFF" d="M105.021 84.29c-.472 0-.855.382-.855.854v15.07h1.71v-15.07c0-.472-.383-.855-.855-.855M111.534 84.29c-.472 0-.855.382-.855.854v15.07h1.71v-15.07c0-.472-.383-.855-.855-.855M118.047 84.29c-.472 0-.855.382-.855.854v15.07h1.71v-15.07c0-.472-.383-.855-.855-.855M124.56 84.29c-.472 0-.855.382-.855.854v15.07h1.71v-15.07c0-.472-.383-.855-.855-.855M131.073 84.29c-.472 0-.855.382-.855.854v15.07h1.71v-15.07c0-.472-.383-.855-.855-.855M137.586 84.29c-.472 0-.855.382-.855.854v15.07h1.71v-15.07c0-.472-.383-.855-.855-.855M144.1 84.29c-.473 0-.856.382-.856.854v15.07h1.71v-15.07c0-.472-.383-.855-.855-.855M150.612 84.29c-.472 0-.855.382-.855.854v15.07h1.71v-15.07c0-.472-.383-.855-.855-.855M110.679 158.254L118.903 158.254 118.903 100.214 110.679 100.214z" mask="url(#prefix__h)"/>
        <g mask="url(#prefix__h)">
            <g transform="translate(134.53 80.423)">
                <mask id="prefix__p" fill="#fff">
                    <use xlink:href="#prefix__o"/>
                </mask>
                <path d="M17.631.756H6.103c1.524 0 2.76 1.235 2.76 2.76V17.03c0 1.525-1.236 2.76-2.76 2.76h-.694v53.106c0 2.725-2.21 4.935-4.936 4.935h11.528c2.726 0 4.935-2.21 4.935-4.935V19.79h.695c1.524 0 2.76-1.234 2.76-2.759V3.516c0-1.525-1.236-2.76-2.76-2.76" mask="url(#prefix__p)"/>
            </g>
        </g>
        <path fill="#235196" d="M265.724 87.593v-8.131h-41.68v8.13c0 1.953-1.583 3.535-3.536 3.535s-3.536 1.583-3.536 3.535v62.254c0 3.412 2.767 6.178 6.179 6.178h43.465c3.412 0 6.178-2.766 6.178-6.178V94.662c0-1.952-1.582-3.535-3.535-3.535s-3.535-1.582-3.535-3.534" mask="url(#prefix__h)"/>
        <path fill="#E7EDF4" d="M223.276 136.466L266.492 136.466 266.492 106.089 223.276 106.089z" mask="url(#prefix__h)"/>
        <path fill="#FFF" d="M229.73 156.916V94.662c0-1.952 1.584-3.535 3.536-3.535 1.953 0 3.536-1.582 3.536-3.534V79.46h-6.455v8.132c0 1.952-1.583 3.534-3.536 3.534-1.952 0-3.535 1.583-3.535 3.535v62.254c0 3.412 2.766 6.178 6.179 6.178h6.454c-3.412 0-6.178-2.766-6.178-6.178" mask="url(#prefix__h)"/>
        <g mask="url(#prefix__h)">
            <g transform="translate(219.747 78.86)">
                <mask id="prefix__r" fill="#fff">
                    <use xlink:href="#prefix__q"/>
                </mask>
                <path d="M45.977 8.733V.603H4.297v8.13c0 1.952-1.583 3.535-3.536 3.535h48.751c-1.953 0-3.535-1.583-3.535-3.535" mask="url(#prefix__r)"/>
            </g>
        </g>
        <path fill="#4DD0E1" d="M268.933 84.199h-48.098c-1.72 0-3.114-1.394-3.114-3.114v-3.453c0-1.72 1.394-3.113 3.114-3.113h48.098c1.719 0 3.113 1.393 3.113 3.113v3.453c0 1.72-1.394 3.114-3.113 3.114" mask="url(#prefix__h)"/>
        <g mask="url(#prefix__h)">
            <g transform="translate(250.237 74.17)">
                <mask id="prefix__t" fill="#fff">
                    <use xlink:href="#prefix__s"/>
                </mask>
                <path d="M19.022 16.957c-1.953 0-3.535-1.582-3.535-3.534v-3.395h3.208c1.72 0 3.114-1.393 3.114-3.113V3.462c0-1.72-1.394-3.113-3.114-3.113H3.85c1.72 0 3.113 1.393 3.113 3.113v3.453c0 1.72-1.393 3.113-3.113 3.113H.642v3.395c0 1.952 1.582 3.534 3.535 3.534s3.535 1.583 3.535 3.535v62.254c0 3.412-2.766 6.178-6.178 6.178h14.845c3.412 0 6.178-2.766 6.178-6.178V20.492c0-1.952-1.582-3.535-3.535-3.535" mask="url(#prefix__t)"/>
            </g>
        </g>
        <path fill="#D1DDE8" d="M129.325 148.41h-3.227v.755c-2.435 1.196-4.116 3.691-4.116 6.587 0 2.895 1.68 5.392 4.116 6.587v.755h3.227c4.055 0 7.344-3.287 7.344-7.342 0-4.054-3.289-7.341-7.344-7.341" mask="url(#prefix__h)"/>
        <path fill="#FFF" d="M133.441 155.752c0 4.054-3.287 7.342-7.343 7.342s-7.344-3.288-7.344-7.342 3.288-7.341 7.344-7.341c4.056 0 7.343 3.287 7.343 7.341" mask="url(#prefix__h)"/>
        <path fill="#E7EDF4" d="M124.444 162.9c.533.123 1.085.194 1.654.194s1.12-.071 1.653-.194v-14.295c-.532-.123-1.084-.194-1.653-.194-.57 0-1.121.071-1.654.194V162.9z" mask="url(#prefix__h)"/>
        <path fill="#D1DDE8" d="M105.197 148.41h-3.227v.755c-2.436 1.196-4.116 3.691-4.116 6.587 0 2.895 1.68 5.392 4.116 6.587v.755h3.227c4.056 0 7.344-3.287 7.344-7.342 0-4.054-3.288-7.341-7.344-7.341" mask="url(#prefix__h)"/>
        <path fill="#FFF" d="M109.313 155.752c0 4.054-3.288 7.342-7.343 7.342-4.056 0-7.344-3.288-7.344-7.342s3.288-7.341 7.344-7.341c4.055 0 7.343 3.287 7.343 7.341" mask="url(#prefix__h)"/>
        <path fill="#E7EDF4" d="M100.316 162.9c.533.123 1.085.194 1.654.194.57 0 1.122-.071 1.653-.194v-14.295c-.531-.123-1.083-.194-1.653-.194-.57 0-1.121.071-1.654.194V162.9z" mask="url(#prefix__h)"/>
        <path fill="#FFF" d="M77.455 151.172h-18.12c-3.293 0-5.963 2.669-5.963 5.96 0 3.293 2.67 5.961 5.963 5.961h18.12c3.293 0 5.962-2.668 5.962-5.96s-2.67-5.961-5.962-5.961" mask="url(#prefix__h)"/>
        <path fill="#235196" d="M77.455 151.172h-9.06v11.921h9.06c3.293 0 5.962-2.668 5.962-5.96s-2.67-5.961-5.962-5.961" mask="url(#prefix__h)"/>
        <g mask="url(#prefix__h)">
            <g transform="translate(53.224 157.018)">
                <mask id="prefix__v" fill="#fff">
                    <use xlink:href="#prefix__u"/>
                </mask>
                <path d="M26.884 1.496H3.459c-1.218 0-2.347-.367-3.29-.992.2 3.11 2.78 5.571 5.942 5.571h18.12c3.162 0 5.742-2.461 5.943-5.57-.944.624-2.074.99-3.29.99" mask="url(#prefix__v)"/>
            </g>
        </g>
        <path fill="#E7EDF4" d="M50.285 141.861L35.44 152.25c-2.697 1.888-3.354 5.604-1.465 8.301 1.888 2.698 5.606 3.353 8.304 1.466l14.844-10.388c2.698-1.888 3.354-5.605 1.466-8.301-1.888-2.698-5.606-3.354-8.304-1.466" mask="url(#prefix__h)"/>
        <path fill="#235196" d="M50.285 141.861l-7.422 5.195 6.838 9.765 7.422-5.193c2.698-1.888 3.354-5.605 1.466-8.301-1.888-2.698-5.606-3.354-8.304-1.466" mask="url(#prefix__h)"/>
        <g mask="url(#prefix__h)">
            <g transform="translate(33.679 142.95)">
                <mask id="prefix__x" fill="#fff">
                    <use xlink:href="#prefix__w"/>
                </mask>
                <path d="M22.99 3.405L3.8 16.835c-.996.697-2.132 1.045-3.264 1.074 1.949 2.432 5.474 2.97 8.065 1.158L23.445 8.679c2.59-1.813 3.291-5.309 1.673-7.972-.415 1.053-1.13 2-2.128 2.698" mask="url(#prefix__x)"/>
            </g>
        </g>
        <path fill="#235196" d="M225.448 19.591c-1.137 0-2.059-.99-2.059-2.213V9.43c0-1.222.922-2.213 2.06-2.213 1.137 0 2.059.99 2.059 2.213v7.947c0 1.222-.922 2.213-2.06 2.213" mask="url(#prefix__h)"/>
        <path fill="#235196" d="M219.27 13.405c0-1.14.99-2.063 2.21-2.063h7.936c1.221 0 2.21.924 2.21 2.063 0 1.139-.989 2.062-2.21 2.062h-7.935c-1.221 0-2.21-.923-2.21-2.062" mask="url(#prefix__h)"/>
    </g>
</svg>
