<svg xmlns="http://www.w3.org/2000/svg" width="123" height="92" viewBox="0 0 123 92">
    <defs>
        <linearGradient id="prefix__a" x1="49.99%" x2="49.99%" y1="100.002%" y2=".002%">
            <stop offset="0%" stop-color="gray" stop-opacity=".25"/>
            <stop offset="54%" stop-color="gray" stop-opacity=".12"/>
            <stop offset="100%" stop-color="gray" stop-opacity=".1"/>
        </linearGradient>
    </defs>
    <g fill="none">
        <path fill="#FCB716" d="M.92 43.24c1.938 7.624 6.038 14.215 12.518 17.41 13.47 6.64 43.847 3.215 66.518-.716 11.728-2.033 22.036-7.643 29.524-15.539L.92 43.24zM120.202 8.153H107.78c-.59 0-1.073-.438-1.073-.972 0-.535.484-.974 1.073-.974h2.15c-.592 0-1.074-.438-1.074-.974 0-.535.482-.972 1.073-.972h-1.533c-.591 0-1.075-.438-1.075-.974 0-.535.484-.972 1.075-.972h6.484c-1.44-.606-3.12-1.037-5.059-1.264-17.681-2.057-23.993-.696-26.22.702-2.775 1.766-5.859 2.99-9.087 3.611-10.909 2.04-31.309 4.494-49.8-.781C15.525 1.956 8.694 6.389 4.6 13.8h117.76c-.154-2.154-.614-4.143-1.459-5.884-.2.155-.446.238-.699.237z" opacity=".1"/>
        <path fill="#FCB716" d="M.266 28.52c-.475 4.324-.313 8.695.48 12.972l108.552 3.588c2.988-3.095 5.527-6.593 7.542-10.392L.266 28.52zM43.2 37.774h-2.137c.587 0 1.069.435 1.069.966 0 .53-.482.965-1.07.965H28.7c-.587 0-1.069-.434-1.069-.965 0-.53.482-.966 1.069-.966h2.138c-.588 0-1.068-.434-1.068-.965 0-.53.48-.965 1.068-.965H29.31c-.588 0-1.07-.435-1.07-.965s.482-.966 1.07-.966h12.364c.588 0 1.068.434 1.068.966 0 .531-.48.965-1.068.965H43.2c.588 0 1.068.434 1.068.965 0 .532-.48.965-1.068.965zM122.305 14.72L3.759 17.35C2.317 20.732 1.36 24.557.92 28.52h119.308c.776-2.319 1.353-4.7 1.722-7.12.356-2.328.498-4.58.355-6.68zm-97.316 8.622h-2.138c.588 0 1.07.44 1.07.975 0 .536-.482.976-1.07.976H10.484c-.587 0-1.069-.44-1.069-.976s.482-.975 1.069-.975h2.139c-.588 0-1.069-.44-1.069-.975 0-.536.48-.976 1.069-.976h-1.528c-.588 0-1.07-.438-1.07-.974s.482-.976 1.07-.976h12.367c.588 0 1.069.438 1.069.976 0 .537-.48.974-1.069.974h1.527c.588 0 1.069.44 1.069.976s-.48.975-1.069.975z" opacity=".1"/>
        <ellipse cx="60.72" cy="84.18" fill="#FCB716" opacity=".1" rx="49.68" ry="5.06"/>
        <path fill="url(#prefix__a)" d="M111.32 45.852v-.024-.035c-.022-.13-.07-.254-.14-.365-.252-.416-.604-.758-1.02-.995-.729-.411-1.729-.587-2.02-1.372-.089-.243-.091-.508-.135-.762-.157-.807-.72-1.466-1.477-1.73-.346-.12-.72-.152-1.056-.3-.752-.33-1.149-1.142-1.485-1.893l-1.305-2.909c-.331.172-.759.091-1.069-.124-.298-.228-.536-.531-.69-.88-.45-.897-.642-1.914-1.17-2.768-.526-.854-1.58-1.53-2.51-1.158-.182.094-.37.174-.562.24-.797.192-1.68-.746-2.362-.29-.113.074-.205.178-.268.301v-.022c-.088.184-.138.387-.145.593v.142c0 .164.01.33.012.496.002.14-.008.279-.031.416V32.4c-.013.078-.032.154-.057.228-.178.49-.67.812-.9 1.273v-.023c-.026.05-.048.102-.067.156-.041.12-.062.248-.063.376-.02.867.872 1.682.976 2.613.074.658.22.87.764 1.242l.119.082c-.048 0-.096.007-.15.008-.021 0-.042.003-.063.007-.194-.055-.402-.018-.567.102-.416.34-1.402.078-1.84 0-.437-.078-1.937.133-2.146.99-.21.856-.57 2.623-.57 2.623s0 1.122-.133 1.33c-.005.015-.005.031 0 .046 0 .315.011 2.206-.284 2.693-.073.114-.067.365-.013.674-.311.412-.603.894-.552 1.21.095.646 1.368 2.678 3.191 1.59 0 0 1.038-1.955-.268-2.994l.056-.227c.395.5.687.858.687.858s.016.042.04.114h-.04c.17.478.274.978.307 1.486-.005.186-.038.37-.097.546h.034c-.01.039-.021.077-.034.114-.064.191-.184.358-.343.478-.912.666-1.956 5.42-1.956 5.42s-2.068 7.684-2.482 8.121c-.342.36 1.806 1.37 3.418 1.25.225-.014.447-.057.662-.13.01.114.02.228.032.33.034.342.069.657.091.756.057.248.17 2.777.17 2.777s-.232 1.642-.175 2.785c0 .078.01.153.016.227l-.2.032c-.305.704.949 6.58 1.12 7.074.113.39.176.793.19 1.199 0 0-.111.418-.02.646.057.14.095.287.11.437 0 0-.074.38.04.628.113.247-.02.681-.02.681s-.037 1.712-.379 2.643c-.19.51-.099 1.086.237 1.509.024.032.05.063.077.092 0 0 1.886.016 2.218 0h.043c.133-.02.475-1.56.17-2.301-.304-.742-.037-1.656-.037-1.656v-1.349s.342-.325 0-1.022c-.342-.698-.286-.91-.286-.91s.38-1.121-.018-1.483c-.4-.36.076-1.73.076-1.73l.134-4.567c-.07-.024-.142-.043-.215-.057l-.023-.234c-.078-.827-.145-1.952.029-2.272.174-.32.258-3.117.285-5.06l1.738.068c.036.908.075 1.738.1 1.843.057.248.171 2.777.171 2.777s-.234 1.642-.177 2.785c0 .078.01.153.016.227l-.2.032c-.305.704.949 6.58 1.12 7.074.113.39.177.793.19 1.199 0 0-.11.418-.02.646.058.14.095.287.11.437 0 0-.074.38.04.628.113.247-.02.681-.02.681s-.037 1.712-.379 2.643c-.186.511-.093 1.086.245 1.507.024.032.05.063.077.092 0 0 1.886.016 2.218 0h.043c.133-.02.475-1.56.17-2.302-.304-.742-.037-1.655-.037-1.655v-1.347s.342-.325 0-1.022c-.342-.698-.286-.91-.286-.91s.38-1.121-.018-1.483c-.4-.36.076-1.73.076-1.73l.136-4.567c-.072-.024-.145-.043-.22-.057-.008-.075-.016-.152-.023-.234-.079-.827-.146-1.952.028-2.272.14-.262.22-1.953.257-3.603 0-.114 0-.227.01-.34.797-.035 1.592-.127 2.378-.276 0 0-.93-3.386-.645-3.937.123-.237-.054-1.502-.295-2.864.337.281.755.437 1.188.443.416.824 1.68 2.719 2.393 3.01.836.341.208-2.68-.19-3.117-.188-.24-.347-.501-.472-.78.011-.014.024-.026.035-.038.01-.013.02-3.215-.171-3.157-.191.058-.418-.476-.418-.476l-.589-5.324-.247-2.229c.206.157.451.257.662.412.573.433.76 1.193 1.012 1.866.207.553.498 1.102.975 1.45.478.347 1.178.439 1.654.087.441-.331.571-.927.668-1.471.8.29 1.772-.485 1.668-1.332-.025-.209-.1-.437.006-.62.212-.361.882-.151 1.102-.508.038-.061.057-.133.056-.205.003-.016.004-.023.004-.031zm-10.707 2.928c-.012.204.26 1.837.48 3.13-.18-.805-.543-1.665-1.258-2.255 0 0 0-.04-.009-.113h.01s-.03-.325-.035-.788c.001-.41.03-.819.088-1.224v-.01h-.014c0-.035.009-.07.014-.104.044-.342.134-.676.268-.993.06-.124.127-.243.204-.356.118 1.098.264 2.508.252 2.713zm.594 3.785l.166.95.586 4.142v.019c-.316-1.748-.718-3.59-.718-3.59.04-.507.03-1.017-.034-1.52z"/>
        <path fill="#3F3D56" d="M93.841 35.924c-.108-1.025-1.184-1.91-.86-2.885.175-.531.723-.856.908-1.384.123-.349.068-.732.07-1.102 0-.37.084-.785.383-.99.646-.444 1.477.47 2.23.283.182-.064.36-.142.53-.233.88-.36 1.874.296 2.368 1.126.493.83.679 1.82 1.102 2.692.145.337.37.63.653.855.292.209.692.288 1.009.121l1.232 2.83c.323.728.693 1.518 1.399 1.84.316.142.669.174.996.29.724.264 1.257.904 1.399 1.682.042.248.043.506.128.742.274.763 1.218.934 1.906 1.332.397.23.73.564.968.966.108.192.2.444.085.632-.208.347-.84.142-1.04.494-.1.178-.03.4 0 .604.098.822-.82 1.575-1.575 1.293-.091.53-.215 1.11-.63 1.43-.447.344-1.109.253-1.56-.084-.45-.337-.724-.87-.92-1.409-.237-.655-.415-1.393-.956-1.814-.196-.15-.43-.248-.622-.4-.43-.34-.646-.9-.8-1.443-.198-.677-.357-1.372-.645-2.011-.288-.64-.745-1.234-1.37-1.526-.586-.272-1.262-.254-1.868-.475-1.042-.38-1.814-1.284-2.851-1.71-.332-.143-.646-.327-.936-.546-.522-.353-.664-.559-.733-1.2z"/>
        <g fill="#000" opacity=".1">
            <path d="M1.043 1.703c.023-.044.042-.09.058-.136.122-.353.068-.74.069-1.115 0-.126.011-.25.033-.373-.099.222-.147.465-.14.71-.001.302.033.618-.02.914zM14.264 18.667c-.445.347-1.105.256-1.554-.086-.45-.343-.723-.88-.913-1.428-.237-.662-.412-1.41-.953-1.836-.194-.153-.429-.253-.619-.406-.429-.343-.643-.91-.798-1.454-.198-.686-.355-1.39-.643-2.037-.289-.647-.741-1.249-1.365-1.544-.584-.276-1.257-.258-1.86-.481-1.041-.384-1.81-1.3-2.843-1.731-.33-.146-.644-.331-.934-.553-.508-.367-.643-.575-.718-1.223C.957 4.915.013 4.068.16 3.151c-.024.05-.045.1-.063.152-.322.989.75 1.884.857 2.921.07.648.215.856.719 1.223.29.221.603.407.934.553 1.033.431 1.802 1.348 2.842 1.73.604.225 1.277.206 1.86.482.625.295 1.073.898 1.366 1.544.292.646.449 1.348.643 2.036.158.544.365 1.111.798 1.455.194.153.429.253.619.406.536.425.716 1.173.953 1.836.195.545.469 1.084.918 1.426.45.341 1.109.433 1.554.086.284-.225.429-.567.524-.935-.085.237-.23.445-.42.601zM16.468 15.299c-.041.08-.06.172-.052.263.243-.25.79-.104.98-.426.045-.08.062-.173.05-.264-.25.247-.796.1-.978.427zM14.892 17.22c-.02.112-.04.232-.066.349.656.214 1.414-.337 1.522-1.034-.261.536-.904.895-1.456.685z" transform="translate(92.92 31.28)"/>
        </g>
        <path fill="#FBBEBE" d="M95.853 36.565s.376.803-.735.82c-1.11.016.716 5.211.716 5.211l1.847 2.484 2.297-1.314.132-3.623.17-2.189s-2.147-.737-1.752-1.711c.396-.975-2.675.322-2.675.322z"/>
        <path fill="#575A89" d="M101.2 57.558s1.698 1.112 3.68-.363l-1.522-1.075h-1.924l-.234 1.438z"/>
        <path fill="#000" d="M101.434 56.12l-.234 1.438s1.698 1.112 3.68-.363" opacity=".1"/>
        <path fill="#FBBEBE" d="M103.94 56.12s.66 1.587 1.138 2.067c.478.48 1.229 3.8.228 3.423-1.001-.375-2.913-3.173-3.028-3.652-.114-.48-.158-1.838-.158-1.838h1.82z"/>
        <path fill="#575A89" d="M92.92 63.151L100.28 63.48 99.426 59.887 95.719 59.8z"/>
        <path fill="#000" d="M92.92 63.151L100.28 63.48 99.426 59.887 95.719 59.8z" opacity=".1"/>
        <path fill="#FBBEBE" d="M95.382 68.286c-.17.311-.105 1.386-.028 2.18.05.507.103.896.103.896s-2.695.818-3.103.109c-.104-.18-.156-.495-.173-.865-.056-1.09.173-2.66.173-2.66s-.112-2.417-.168-2.654c-.022-.094-.057-.395-.09-.721-.05-.484-.096-1.023-.096-1.023l3.68-1.908s0 .358-.007.908c-.02 1.73-.079 5.357-.29 5.738z"/>
        <path fill="#000" d="M95.68 70.57s-3.027.555-3.486.074c-.116-.122-.174-.336-.194-.587.626-.056 2.533-.211 3.565-.095.055.344.115.608.115.608z" opacity=".1"/>
        <path fill="#3F3D56" d="M95.408 86.474h-.04c-.307.013-2.056 0-2.056 0-.025-.03-.05-.061-.072-.094-.314-.438-.4-1.027-.227-1.554.317-.962.352-2.728.352-2.728s.124-.451.018-.707c-.106-.255-.036-.647-.036-.647-.016-.155-.052-.307-.106-.451-.087-.236.018-.668.018-.668-.012-.418-.07-.834-.176-1.236-.159-.51-1.321-6.573-1.039-7.3 0 0 2.466-.47 3.4-.118l-.123 4.71s-.441 1.413-.071 1.786.018 1.53.018 1.53-.053.216.264.943c.317.726 0 1.06 0 1.06v1.392s-.246.942.035 1.707c.281.766-.035 2.35-.159 2.375z"/>
        <path fill="#FBBEBE" d="M99.982 69.088c-.17.321-.105 1.433-.028 2.255.05.523.103.925.103.925s-2.695.846-3.103.113c-.104-.186-.156-.512-.173-.894-.056-1.127.173-2.752.173-2.752s-.112-2.498-.168-2.743c-.03-.132-.082-1.39-.124-2.519-.034-.963-.062-1.833-.062-1.833l3.68.575s0 1.636-.046 3.317c-.04 1.63-.115 3.301-.252 3.556z"/>
        <path fill="#000" d="M100.28 70.57s-3.027.555-3.486.074c-.116-.122-.174-.336-.194-.587.626-.056 2.533-.211 3.565-.095.055.344.115.608.115.608z" opacity=".1"/>
        <path fill="#3F3D56" d="M100.01 86.474h-.04c-.307.013-2.055 0-2.055 0-.025-.03-.05-.061-.072-.094-.314-.438-.4-1.027-.227-1.554.317-.966.349-2.732.349-2.732s.124-.45.018-.706c-.106-.255-.036-.647-.036-.647-.016-.155-.052-.307-.106-.451-.087-.235.018-.667.018-.667-.012-.419-.071-.834-.176-1.236-.159-.51-1.321-6.572-1.039-7.298 0 0 2.465-.47 3.4-.118l-.124 4.709s-.44 1.412-.07 1.785c.369.373.017 1.53.017 1.53s-.053.216.264.942 0 1.06 0 1.06v1.392s-.246.941.035 1.706c.281.766-.032 2.355-.155 2.38z"/>
        <circle cx="96.6" cy="35.88" r="2.76" fill="#000" opacity=".1"/>
        <circle cx="96.6" cy="35.88" r="2.76" fill="#FBBEBE"/>
        <path fill="#000" d="M92 63.12l3.68-2.4s0 .45-.007 1.143c-.537.395-1.348.988-2.127 1.55-.424.305-.838.602-1.192.85-.083.055-.17.1-.258.137-.05-.602-.096-1.28-.096-1.28zM100.28 61.263s0 1.545-.046 3.133h-.013c-.275.01-.551.001-.825-.024-.481-.05-.867-.17-1.005-.411-.28-.469-1.065-1.065-1.728-1.51-.035-.909-.063-1.731-.063-1.731l3.68.543z" opacity=".1"/>
        <path fill="#575A89" d="M99.784 46.934c-.095.74-.113 1.488-.054 2.232 1.712 1.422 1.392 4.416 1.392 4.416s1.318 6.066 1.036 6.615c-.283.55.639 3.924.639 3.924-.786.15-1.58.242-2.38.275-.278.01-.557.001-.834-.026-.487-.052-.877-.182-1.017-.44-.526-.927-2.804-2.311-2.804-2.311s-1.443.871-2.787 1.664c-.43.253-.849.499-1.208.705-.291.155-.613.244-.943.26-1.598.12-3.727-.888-3.388-1.245.414-.437 2.467-8.094 2.467-8.094s1.034-4.739 1.938-5.402c.158-.12.276-.286.338-.476.31-.866-.207-2.253-.207-2.253s-2.918-3.62-2.787-3.829c.131-.21.133-1.326.133-1.326s.358-1.763.564-2.616c.207-.853 1.694-1.062 2.127-.986.432.077 1.41.342 1.824 0 .413-.34 1.111.133 1.111.133l1.715.476 1.541-.91s1.545.08 1.677.288c.133.208 2.166.607 2.166.607 1.034.7.997 4.037.997 4.037s-2.485 2.18-2.993 3.298c-.132.314-.22.645-.263.984z"/>
        <path fill="#575A89" d="M102.608 41.4l.554.47.573 5.475.572 5.494s.221.55.406.49c.185-.058.166 3.257.166 3.257s-2.12-1.386-2.88.454l-.592-4.437s-.758-4.532-.74-4.885c.02-.353-.387-4.18-.387-4.18l2.328-2.138zM89.286 43.24l-.534.492s.05 2.113-.363 2.624c-.413.51 1.14 3.499 1.721 3.316.582-.183 1.89-4.847 1.89-4.901 0-.055-2.714-1.531-2.714-1.531z"/>
        <path fill="#575A89" d="M89.592 46s-1.364 1.274-1.267 1.884c.097.61 1.403 2.528 3.273 1.497 0 0 1.735-3.004-2.006-3.381z"/>
        <path fill="#000" d="M96.6 85.675c-.532.01-3.556 0-3.556 0-.044-.022-.085-.046-.124-.071.773-.13 2.444-.324 3.68.071zM100.28 85.675c-.532.01-3.556 0-3.556 0-.044-.022-.085-.046-.124-.071.77-.13 2.44-.324 3.68.071zM93.84 52.44c-.463 2.839-.31 8.472-.214 10.975-.69.258-1.363.51-1.94.72-.469.158-.986.249-1.516.265-.193-.757 2.472-8.53 3.67-11.96zM93.958 50.6l-.236 1.84c.055-.93.13-1.596.236-1.84zM98.158 50.6s1.733 9.826-3.398 11.04c-.001-.004 3.55-.491 3.398-11.04z" opacity=".1"/>
        <path fill="#000" d="M100.28 64.396c-.242.01-.485.001-.727-.026L98.44 50.6c.71.534 1.56 10.306 1.84 13.796zM94.434 32.9c.084-.007.17.001.25.024.12.058.228.137.318.233.299.243.705.32 1.075.203.128-.056.265-.093.404-.11.215 0 .401.154.513.329.111.176.169.384.264.571.096.188.25.366.46.412.101.003.2.026.293.065.057.045.1.104.126.17.176.37.315.806.69.987.138.063.289.094.44.094.156.01.31-.017.451-.08.14-.075.254-.186.332-.32.234-.378.26-.845.206-1.283-.07-.552-.27-1.08-.59-1.542-.682-.95-1.838-1.469-3.024-1.358-.203.022-.404.059-.602.11-.717.186-1.42.535-1.854 1.12-.105.145-.22.283-.346.414.197-.019.395-.035.594-.04z" opacity=".1"/>
        <path fill="#3F3D56" d="M94.434 32.9c.084-.007.17.001.25.024.12.058.228.137.318.233.299.243.705.32 1.075.203.128-.056.265-.093.404-.11.215 0 .401.154.513.329.111.176.169.384.264.571.096.188.25.366.46.412.101.003.2.026.293.065.057.045.1.104.126.17.176.37.315.806.69.987.138.063.289.094.44.094.156.01.31-.017.451-.08.14-.075.254-.186.332-.32.234-.378.26-.845.206-1.283-.07-.552-.27-1.08-.59-1.542-.682-.95-1.838-1.469-3.024-1.358-.203.022-.404.059-.602.11-.717.186-1.42.535-1.854 1.12-.105.145-.22.283-.346.414.197-.019.395-.035.594-.04z"/>
        <path fill="#000" d="M91.965 40.48s.254.72-.613.9c-.866.18.613-.9.613-.9zM102.12 47.84s.799-1.202.911-.858c.113.343-.911.858-.911.858zM102.12 48.76s.835-1.315.915-.8c.08.514-.915.8-.915.8zM98.011 46.692c-.361.009-.714-.183-1.002-.543h-.087c-.3.45-.691.692-1.096.678-.425.016-.835-.255-1.135-.75h-.116c-.633.849-1.545.821-2.159-.065L92 46s.487 2.138.196 3.471l7.113.209c-.055-1.146-.038-2.3.051-3.44v-.016l-.39-.012c-.282.32-.617.489-.959.48z" opacity=".1"/>
        <path fill="#000" d="M98.011 47.612c-.361.009-.714-.183-1.002-.543h-.087c-.3.45-.691.692-1.096.678-.425.016-.835-.255-1.135-.75h-.116c-.633.849-1.545.821-2.159-.065L92 46.92s.487 2.138.196 3.471l7.113.209c-.055-1.146-.038-2.3.051-3.44v-.016l-.39-.012c-.282.32-.617.489-.959.48z" opacity=".1"/>
        <path fill="#3F3D56" d="M98.011 47.612c-.361.009-.714-.183-1.002-.543h-.087c-.3.45-.691.692-1.096.678-.425.016-.835-.255-1.135-.75h-.116c-.633.849-1.545.821-2.159-.065L92 46.92s.487 2.138.196 3.471l7.113.209c-.055-1.146-.038-2.3.051-3.44v-.016l-.39-.012c-.282.32-.617.489-.959.48z"/>
        <path fill="#000" d="M98.44 39.56s1.828.245 1.84.79c.012.544-1.84-.79-1.84-.79zM94.76 38.64s-1.828.245-1.84.79c-.012.544 1.84-.79 1.84-.79zM100.025 42.362l-.039-.042c.335.508.28 1.617-.132 2.533-.41.915-1.035 1.296-1.414.885.012.018.022.036.035.054.372.48 1.023.103 1.453-.844.43-.946.471-2.105.097-2.586zM92.344 44.7c-.374-.943-.326-1.985.098-2.38l-.049.03c-.464.362-.525 1.445-.14 2.42.384.977 1.078 1.47 1.543 1.115.015-.013.03-.026.044-.041-.464.293-1.122-.2-1.496-1.144zM92 39.143l-.26.417-.66-.365.348-.555c.23.113.427.286.572.503z" opacity=".1"/>
        <path fill="#FBBEBE" d="M90.471 47.72s.28-1.653-.095-2.179c-.376-.525-.255-3.28.318-3.22.573.06 1.433 2.239 1.29 2.7-.143.46-.685 2.819-.685 2.819l-.828-.12z"/>
        <path fill="#000" d="M100.038 37.009c-.078.155-.193.282-.331.37-.141.071-.297.103-.451.09-.152 0-.303-.036-.44-.107-.376-.21-.516-.711-.692-1.135-.022-.076-.061-.145-.115-.199-.09-.046-.189-.073-.29-.08-.21-.052-.362-.258-.459-.472-.097-.215-.154-.452-.265-.657-.11-.205-.297-.386-.512-.378-.14.02-.277.065-.405.132-.37.133-.776.045-1.075-.234-.09-.11-.198-.2-.318-.268-.081-.026-.166-.036-.251-.029-.13 0-.258.014-.388.026-.064.094-.133.184-.206.27.197-.02.396-.038.594-.043.085-.008.17.002.251.029.12.066.227.157.318.267.299.279.704.367 1.075.234.128-.067.264-.111.405-.132.215 0 .4.176.512.378.112.202.17.441.265.657.096.216.25.42.46.473.1.006.198.033.29.08.056.05.1.118.126.194.175.425.315.927.69 1.135.138.072.289.108.441.107.155.013.31-.018.45-.09.14-.087.254-.215.332-.37.175-.356.253-.762.225-1.167-.008.323-.09.64-.236.919z" opacity=".1"/>
        <circle cx="91.08" cy="47.38" r="1" fill="#575A89"/>
        <circle cx="58.42" cy="51.98" r="34.5" fill="#FCB716"/>
        <path fill="#444053" d="M75.44 70.117c0 5.48-8.485.468-17.582.468-9.097 0-18.298 4.805-18.298-.675 0-3.125 2.933-7.471 7.14-10.627 3.17-2.38 7.062-4.083 10.972-4.083 4.02 0 7.96 1.844 11.102 4.376 3.965 3.193 6.666 7.482 6.666 10.54z"/>
        <path fill="#F6F8FB" d="M69 58.88c-4.837-.777-13.585-1.725-22.08-.309 3.17-2.5 7.064-4.291 10.976-4.291 4.02 0 7.961 1.939 11.104 4.6z"/>
        <path fill="#000" d="M39.56 26.68S29.357 33.3 29.44 43.657c.084 10.357 10.12-16.977 10.12-16.977z" opacity=".05"/>
        <path fill="#FCB716" d="M91.808 9.212s-10.102-.54-8.91 5.736c0 0-.24 1.108.897 1.612 0 0 .018-.465 1.035-.307.363.053.732.07 1.098.046.496-.03.967-.202 1.342-.491 0 0 2.84-1.04 3.944-5.154 0 0 .817-.898.785-1.128l-1.705.645s.582 1.09.12 1.996c0 0-.055-1.956-.383-1.914-.066.01-.885.377-.885.377s1.002 1.9.24 3.28c0 0 .287-2.34-.56-3.142l-1.199.62s1.171 1.962.377 3.563c0 0 .204-2.455-.629-3.411l-1.088.752s1.1 1.933.43 3.26c0 0-.088-2.857-.665-3.073 0 0-.952.744-1.097 1.05 0 0 .754 1.403.287 2.143 0 0-.287-1.904-.522-1.915 0 0-.948 1.262-1.047 2.128 0 0 .042-1.287.817-2.248 0 0-.917.14-1.45.667 0 0 .147-.892 1.679-.97 0 0 .783-.957.993-1.015 0 0-1.53-.113-2.457.251 0 0 .816-.84 2.737-.459l1.08-.776s-2.014-.245-2.868.025c0 0 .983-.744 3.157-.202l1.17-.62s-1.717-.328-2.74-.213c0 0 1.08-.516 3.081.044l.84-.333s-1.258-.22-1.627-.253c-.368-.034-.387-.126-.387-.126.8-.115 1.619-.03 2.367.244 0 0 1.773-.59 1.743-.69zM82.72 5.526s-4.033-.27-3.562 2.868c0 0-.094.554.359.806 0 0 .006-.235.414-.153.145.026.292.034.438.024.198-.016.386-.102.537-.247 0 0 1.134-.52 1.576-2.578 0 0 .326-.448.318-.564l-.681.323s.233.545.05.998c0 0-.023-.978-.153-.954-.027 0-.355.188-.355.188s.401.95.099 1.64c0 0 .115-1.17-.223-1.572l-.48.311s.469.982.151 1.782c0 0 .08-1.228-.251-1.706l-.435.376s.439.967.172 1.63c0 0-.035-1.429-.267-1.537 0 0-.38.372-.438.525 0 0 .301.706.115 1.073 0 0-.115-.953-.213-.956 0 0-.378.63-.418 1.06.019-.4.131-.788.326-1.125-.218.046-.42.162-.58.333 0 0 .06-.446.674-.485 0 0 .313-.478.396-.507 0 0-.61-.057-.981.126 0 0 .326-.422 1.094-.236l.424-.387s-.804-.118-1.146.012c0 0 .393-.372 1.262-.1l.467-.311s-.686-.164-1.095-.105c0 0 .432-.258 1.232.022l.334-.167s-.503-.11-.65-.126c-.146-.016-.155-.062-.155-.062.318-.059.645-.018.944.118 0 0 .712-.288.7-.337z"/>
        <ellipse cx="119.6" cy="82.34" fill="#FCB716" opacity=".1" rx="2.76" ry="1"/>
        <ellipse cx="6.44" cy="90.62" fill="#FCB716" opacity=".1" rx="2.76" ry="1"/>
        <ellipse cx="23.92" cy="91.54" fill="#FCB716" opacity=".1" rx="2.76" ry="1"/>
        <ellipse cx="114.08" cy="87.86" fill="#FCB716" rx="4.6" ry="1"/>
        <path fill="#FCB716" d="M114.557 86.472c.205-.222.355-.522.43-.86.054-.34-.056-.75-.3-.874-.275-.14-.57.114-.792.37-.222.255-.478.546-.77.492.305-.367.443-.92.362-1.456-.013-.11-.047-.212-.1-.297-.154-.217-.43-.125-.613.046-.582.543-.744 1.592-.747 2.536-.058-.34-.009-.695-.01-1.04-.001-.344-.074-.742-.295-.925-.138-.097-.292-.145-.447-.14-.262-.012-.553.022-.731.276-.224.316-.165.844.029 1.187.193.343.486.566.755.805.217.171.402.405.541.685.017.04.03.08.04.123h1.638c.367-.247.706-.56 1.01-.928zM7.547 76.36s.736.885-.34 2.22c-1.076 1.334-1.963 2.466-1.607 3.3 0 0 1.622-2.484 2.947-2.52 1.325-.035.453-1.507-1-3z"/>
        <path fill="#000" d="M7.526 76.36c.065.086.116.179.152.277 1.303 1.393 1.996 2.693.745 2.725-1.168.031-2.574 1.929-2.903 2.408.012.037.025.074.04.11 0 0 1.641-2.482 2.98-2.518 1.34-.036.454-1.51-1.014-3.002z" opacity=".1"/>
        <path fill="#FFD037" d="M7.478 78.442c0 .375-.054.678-.119.678s-.117-.296-.117-.678c0-.381.065-.198.132-.198s.104-.176.104.198z"/>
        <path fill="#FFD037" d="M8.06 78.664c-.36.324-.67.52-.698.437-.028-.083.242-.41.6-.735.359-.325.216-.089.244 0 .027.088.218-.027-.147.298z"/>
        <path fill="#FCB716" d="M2.574 76.36s-.736.885.339 2.22c1.074 1.334 1.963 2.466 1.608 3.3 0 0-1.624-2.484-2.948-2.52-1.324-.035-.453-1.507 1-3z"/>
        <path fill="#000" d="M2.594 76.36c-.065.085-.116.179-.151.277-1.304 1.393-2 2.693-.746 2.725 1.167.031 2.575 1.929 2.903 2.408-.011.037-.024.074-.04.11 0 0-1.642-2.482-2.98-2.518-1.34-.036-.456-1.51 1.014-3.002z" opacity=".1"/>
        <path fill="#FFD037" d="M3.562 78.442c0 .375.053.678.118.678s.118-.296.118-.678c0-.381-.066-.198-.131-.198s-.105-.176-.105.198zM2.058 78.664c.359.324.673.52.7.437.028-.083-.243-.41-.602-.735s-.218-.089-.244 0c-.026.088-.214-.027.146.298z"/>
        <path fill="#A8A8A8" d="M1.84 82.016s1.73-.06 2.253-.48c.523-.418 2.662-.917 2.792-.253.13.664 2.6 3.339.646 3.356-1.953.018-4.539-.344-5.059-.7-.52-.357-.632-1.923-.632-1.923z"/>
        <path fill="#000" d="M7.566 84.316c-1.954.025-4.54-.481-5.061-.98-.397-.38-.555-1.746-.608-2.376H1.84s.113 2.2.63 2.699c.517.499 3.107 1.005 5.061.98.564 0 .759-.325.749-.792-.08.286-.293.464-.714.469z" opacity=".2"/>
        <path fill="#444053" d="M45.685 47.317c.648-.038 3.699-.28 5.636-1.442.312-.193.663-.301 1.024-.317.616-.019 1.325.252.87 1.766-.734 2.477-5.004 5.264-7.654 5.11-2.548-.149-5.571-1.229-7.567-5.026-.191-.365-.286-.778-.273-1.195.023-.766.288-1.727 1.656-.656 1.849 1.446 5.355 1.72 6.058 1.76.084.005.167.005.25 0zM70.525 47.317c.648-.038 3.699-.28 5.636-1.442.312-.193.663-.301 1.024-.317.616-.019 1.325.252.87 1.766-.734 2.477-5.004 5.264-7.654 5.11-2.548-.149-5.571-1.229-7.567-5.026-.191-.365-.286-.778-.273-1.195.023-.766.288-1.727 1.656-.656 1.849 1.446 5.355 1.72 6.058 1.76.084.005.167.005.25 0z"/>
    </g>
</svg>
