<svg xmlns="http://www.w3.org/2000/svg" width="40" height="40" viewBox="0 0 40 40">
    <g fill="none" fill-rule="evenodd">
        <path d="M0 0h40v40H0z"/>
        <g fill-rule="nonzero" transform="translate(1.5)">
            <path fill="#F94848" d="M34.39 22.27c0 4.813-3.13 11.464-6.914 15.098C25.797 38.982 23.99 40 22.269 40c-1.088 0-2.173-.175-3.106-.456a6.754 6.754 0 0 0-3.917 0c-.934.281-2.018.456-3.106.456-1.803 0-3.702-1.119-5.448-2.868C3.017 33.452.019 26.98.019 22.27c0-6.95 4.157-11.147 8.066-12.16 1.872-.486 4.044-.173 5.799.283a13.148 13.148 0 0 0 6.64 0c1.755-.456 3.927-.77 5.8-.284 3.91 1.014 8.066 5.212 8.066 12.16z"/>
            <path fill="#E23D3D" d="M27.476 37.368c-4.645.82-8.222.593-10.917-.06-4.401-1.065-7.675-4.777-8.22-9.273C6.971 16.777 14.327 13.5 14.327 13.5c2.156.98 4.58.456 4.58.456-1.547-1.546.514-3.325.514-3.325a13.148 13.148 0 0 1-5.538-.237c-1.755-.456-3.927-.77-5.8-.284C4.177 11.123.02 15.321.02 22.27.02 29.219 6.542 40 12.14 40c1.088 0 2.172-.175 3.106-.456a6.754 6.754 0 0 1 3.917 0c.933.281 2.018.456 3.106.456 1.72 0 3.528-1.018 5.207-2.632z"/>
            <path fill="#C7F492" d="M36.075.43s-.965 6.728-6.049 8.686c-4.859 1.873-9.19-3.19-10.967-2.79a.711.711 0 0 0-.224.086l-.004.002.001-.004c.06-.181 2.008-5.985 7.013-6.366 5.083-.386 7.849 1.93 10.23.386z"/>
            <path fill="#A3E261" d="M36.075.43s-3.089 3.764-7.432 3.764c-3.819 0-8.508 1.716-9.584 2.131l-.224.087-.004.002V6.41c.06-.181 2.01-5.985 7.013-6.366 5.084-.386 7.85 1.93 10.23.386z"/>
            <ellipse cx="28.819" cy="19.333" fill="#FC8181" rx="3.474" ry="2.248" transform="rotate(-95.676 28.819 19.333)"/>
            <path fill="#E23D3D" d="M20.804 13.003c0 .79-1.241 1.449-2.889 1.598a7.987 7.987 0 0 1-1.45-.002c-1.631-.155-2.858-.81-2.858-1.596h7.197z"/>
            <path fill="#B25719" d="M19.95 6.33l-2.639 4.008c.198.813.369 1.708.48 2.665.06.516.104 1.05.124 1.598a7.987 7.987 0 0 1-1.45-.002 18.593 18.593 0 0 0-.133-1.596c-.472-3.748-1.918-6.508-1.936-6.539a.724.724 0 0 1 1.28-.68c.042.082.573 1.098 1.11 2.72l1.956-2.971a.722.722 0 1 1 1.209.796z"/>
        </g>
    </g>
</svg>
