<svg xmlns="http://www.w3.org/2000/svg" width="40" height="40" viewBox="0 0 40 40">
    <g fill="none" fill-rule="evenodd">
        <path d="M0 0h40v40H0z"/>
        <g fill-rule="nonzero">
            <path fill="#E3AA75" d="M28.38 10.12V9.105c0-4.768-3.664-8.87-8.427-9.095a8.856 8.856 0 0 0-9.283 8.845v1.265c0 2.868-1.084 5.014-1.613 5.89a.631.631 0 0 0 .125.81c.968.837 3.588 2.856 7.18 3.687h6.325c3.593-.83 6.213-2.85 7.18-3.688a.631.631 0 0 0 .126-.808 11.636 11.636 0 0 1-1.613-5.89z"/>
            <path fill="#F7D291" d="M29.626 25.111l-5.788-2.48a1.898 1.898 0 0 1-1.15-1.744V17.71h-6.325v3.177c0 .759-.453 1.445-1.15 1.744l-5.789 2.48a3.163 3.163 0 0 0-1.917 2.907v8.668a2.53 2.53 0 0 0 2.53 2.53h5.693c1.048 0 1.898-.85 1.898-1.898a1.88 1.88 0 0 0-.117-.632h4.028a1.88 1.88 0 0 0-.116.632c0 1.048.85 1.898 1.897 1.898h5.693a2.53 2.53 0 0 0 2.53-2.53v-8.668a3.163 3.163 0 0 0-1.917-2.907z"/>
            <path fill="#E3AA75" d="M24.585 22.951v.452a5.06 5.06 0 0 1-10.12 0v-.452l-3.163 1.356v9.216h16.446v-9.217l-3.163-1.355z"/>
            <path fill="#FF8087" d="M12.002 35.42h3.728c.825 0 1.52.53 1.781 1.266h4.028a1.892 1.892 0 0 1 1.781-1.265h3.728a4.428 4.428 0 0 0-3.096-7.59h-8.854a4.428 4.428 0 0 0-3.096 7.59z"/>
            <path fill="#FFE1A0" d="M23.953 27.83H20.22a3.163 3.163 0 0 0 3.099 3.795 3.155 3.155 0 0 0 3.147-3.01 4.404 4.404 0 0 0-2.514-.785z"/>
            <path fill="#F0C382" d="M16.363 17.71v1.831c.964.445 2.033.7 3.162.7 1.13 0 2.198-.255 3.163-.7v-1.83h-6.325z"/>
            <path fill="#FFE1A0" d="M19.525 18.975A6.325 6.325 0 0 1 13.2 12.65V5.06h12.65v7.59a6.325 6.325 0 0 1-6.325 6.325z"/>
            <g fill="#6E5A64">
                <path d="M23.326 30.36a.635.635 0 0 1-.635-.632c0-.35.28-.632.63-.632h.005a.632.632 0 1 1 0 1.265zM16.679 12.15c-.597 0-1.143-.266-1.463-.711a.632.632 0 1 1 1.028-.738c.06.085.21.183.435.183.224 0 .374-.098.435-.183a.631.631 0 1 1 1.027.738c-.319.445-.866.71-1.462.71z"/>
            </g>
            <path fill="#E3AA75" d="M19.525 15.815c-.95 0-1.825-.306-2.342-.818a.632.632 0 1 1 .89-.899c.21.209.716.452 1.452.452s1.242-.243 1.453-.452a.632.632 0 1 1 .89.9c-.518.511-1.394.817-2.343.817z"/>
            <path fill="#6E5A64" d="M22.371 12.15c-.596 0-1.143-.266-1.462-.711a.632.632 0 1 1 1.027-.738c.06.085.211.183.435.183s.375-.098.435-.183a.631.631 0 1 1 1.028.738c-.32.445-.866.71-1.463.71z"/>
            <path fill="#F7D291" d="M16.363 5.06l-.391.744c.126.173 3.119 4.161 9.878 4.311V5.06h-9.487z"/>
            <path fill="#F5B97D" d="M16.577 5.78a.628.628 0 0 1 .966-.111c1.24 1.222 4.648 3.798 10.801 3.066l.022-.167C28.213 3.812 24.319 0 19.525 0a8.855 8.855 0 0 0-8.855 8.855s3.848 0 5.907-3.075z"/>
            <g fill="#E6646E">
                <path d="M17.66 27.83h-1.265a10.123 10.123 0 0 0 5.423 8.34 1.878 1.878 0 0 1 1.416-.742 8.862 8.862 0 0 1-5.574-7.598z"/>
                <path d="M27.067 29.112c.028.202.048.407.048.616a4.44 4.44 0 0 1-4.427 4.428h-6.325a4.44 4.44 0 0 1-4.428-4.428c0-.21.02-.414.048-.616a4.413 4.413 0 0 0-1.313 3.146c0 1.24.51 2.359 1.332 3.163h3.728c.825 0 1.52.53 1.781 1.265h4.028a1.892 1.892 0 0 1 1.781-1.265h3.728a4.412 4.412 0 0 0 1.332-3.163c0-1.23-.503-2.343-1.313-3.146z"/>
            </g>
            <path fill="#DC4655" d="M21.027 34.156h-1.871a10.15 10.15 0 0 0 2.662 2.014 1.903 1.903 0 0 1 .31-.316c.199-.164.43-.287.683-.359l.01-.002c.132-.037.27-.059.413-.066a8.844 8.844 0 0 1-2.207-1.271z"/>
            <g fill="#F0C382">
                <path d="M9.405 37.318a1.903 1.903 0 0 1-1.898-1.897v1.265a2.53 2.53 0 0 0 2.53 2.53h5.693c1.048 0 1.898-.85 1.898-1.898H9.405zM29.645 37.318a1.903 1.903 0 0 0 1.898-1.897v1.265a2.53 2.53 0 0 1-2.53 2.53H23.32a1.898 1.898 0 0 1-1.897-1.898h8.222z"/>
            </g>
        </g>
    </g>
</svg>
