<svg xmlns="http://www.w3.org/2000/svg" width="40" height="40" viewBox="0 0 40 40">
    <g fill="none" fill-rule="evenodd">
        <path d="M0 0h40v40H0z"/>
        <g fill-rule="nonzero">
            <path fill="#FFD100" d="M40 20c0 1.733-1.496 3.246-1.923 4.844-.442 1.654.084 3.71-.754 5.158-.85 1.469-2.902 2.036-4.093 3.228-1.192 1.192-1.76 3.243-3.228 4.093-1.448.838-3.504.312-5.158.754C23.246 38.504 21.733 40 20 40s-3.246-1.496-4.844-1.923c-1.654-.442-3.71.084-5.158-.754-1.469-.85-2.036-2.902-3.228-4.093-1.192-1.192-3.243-1.76-4.093-3.228-.838-1.448-.312-3.504-.754-5.158C1.496 23.246 0 21.733 0 20s1.496-3.246 1.923-4.844c.442-1.654-.084-3.71.754-5.158.85-1.469 2.902-2.036 4.093-3.228 1.192-1.192 1.76-3.243 3.228-4.093 1.448-.838 3.504-.312 5.158-.754C16.754 1.496 18.267 0 20 0s3.246 1.496 4.844 1.923c1.654.442 3.71-.084 5.158.754 1.469.85 2.036 2.902 3.228 4.093 1.192 1.192 3.243 1.76 4.093 3.228.838 1.448.312 3.504.754 5.158C38.504 16.754 40 18.267 40 20z"/>
            <path fill="#FF9500" d="M6.77 6.77C5.578 7.962 3.527 8.53 2.677 9.998c-.838 1.448-.312 3.504-.754 5.158C1.496 16.754 0 18.267 0 20s1.496 3.246 1.923 4.844c.442 1.654-.084 3.71.754 5.158.85 1.468 2.901 2.036 4.093 3.228 1.192 1.191 1.76 3.243 3.228 4.093 1.448.838 3.504.312 5.158.754C16.754 38.504 18.267 40 20 40s3.246-1.496 4.844-1.923c1.654-.442 3.71.084 5.158-.754 1.468-.85 2.036-2.901 3.228-4.093L6.77 6.77z"/>
            <circle cx="20" cy="20" r="14.194" fill="#FFF"/>
            <path fill="#FFD100" d="M20 34.194a14.15 14.15 0 0 0 10.036-4.158L9.964 9.964A14.15 14.15 0 0 0 5.806 20c0 7.839 6.355 14.194 14.194 14.194z"/>
            <circle cx="20" cy="20" r="12.258" fill="#FF4F19"/>
            <path fill="#E7001E" d="M11.332 11.332A12.22 12.22 0 0 0 7.742 20c0 6.77 5.488 12.258 12.258 12.258a12.22 12.22 0 0 0 8.668-3.59L11.332 11.332z"/>
            <path fill="#FFF" d="M14.194 26.774a.967.967 0 0 1-.684-1.652L25.121 13.51a.967.967 0 1 1 1.369 1.369L14.878 26.49a.965.965 0 0 1-.684.283zM16.129 19.677a3.553 3.553 0 0 1-3.548-3.548 3.553 3.553 0 0 1 3.548-3.548 3.553 3.553 0 0 1 3.548 3.548 3.553 3.553 0 0 1-3.548 3.548zm0-5.16c-.89 0-1.613.723-1.613 1.612 0 .89.723 1.613 1.613 1.613s1.613-.724 1.613-1.613c0-.89-.723-1.613-1.613-1.613zM23.871 27.42a3.553 3.553 0 0 1-3.548-3.549 3.553 3.553 0 0 1 3.548-3.548 3.553 3.553 0 0 1 3.548 3.548 3.553 3.553 0 0 1-3.548 3.548zm0-5.162c-.89 0-1.613.724-1.613 1.613 0 .89.723 1.613 1.613 1.613s1.613-.724 1.613-1.613c0-.89-.723-1.613-1.613-1.613z"/>
        </g>
    </g>
</svg>
