<svg xmlns="http://www.w3.org/2000/svg" xmlns:xlink="http://www.w3.org/1999/xlink" width="40" height="40" viewBox="0 0 40 40">
    <defs>
        <path id="a" d="M0 .552h32.367V36H0z"/>
        <path id="c" d="M.672.243h4.03v1.352H.672z"/>
    </defs>
    <g fill="none" fill-rule="evenodd">
        <path d="M0 0h40v40H0z"/>
        <g transform="translate(3 4)">
            <mask id="b" fill="#fff">
                <use xlink:href="#a"/>
            </mask>
            <path fill="#FFDC8D" d="M32.367 33.266c0 2.32-2.255 3.385-4.386 2.32 0 0-4.44-3.054-7.571-1.55-3.132 1.502-5.501.136-5.501-2.62 0-2.757 3.57-4.2 2.86-6.733-2.115-7.54.154-12.54.179-12.593-.034.017-.893.44-2.331.945C12.394 14.171 6.26 15.731 0 14.095V1.437s16.714-2.33 23.32.567c1.054.46 1.85 1.055 2.28 1.814.774 1.361 1.013 3.524.934 6.011-.241 7.583-3.44 18.173-3.44 18.173s2.715-.083 5.514 3.823c0 0 3.759-.877 3.759 1.44" mask="url(#b)"/>
        </g>
        <path fill="#E8C57E" d="M23.41 38.035c-3.132 1.504-5.501.138-5.501-2.619s3.57-4.2 2.86-6.733c-2.115-7.541.154-12.54.179-12.592-.034.016-.892.438-2.33.944 0 0 5.51-4.413 5.054-2.707-.786 2.934-2.035 8.568-1.048 15.168 0 0-4.191 8.173.786 8.539"/>
        <path fill="#E8C57E" d="M23.673 14.325v.003s-.84.919-2.725 1.762v.001c-.108.052-8.894 4.371-17.948 2.004V9.773l.03-.08c3.35 3.348 12.804 3.89 18.99 2.871a1.45 1.45 0 0 1 1.653 1.761"/>
        <path fill="#F25174" d="M29.533 13.83a4.292 4.292 0 0 1-3.213-7.825c1.053.46 1.85 1.055 2.28 1.814.774 1.362 1.012 3.525.933 6.012"/>
        <path fill="#E8C57E" d="M23.183 35.076c-.85 0-1.288-.363-1.505-.668-.55-.771-.207-1.845-.165-1.964a.603.603 0 0 1 1.141.389c-.079.24-.132.683.006.875.097.134.338.162.523.162a.603.603 0 0 1 0 1.206"/>
        <path fill="#F25174" d="M31.943 6.009a.603.603 0 0 1-.277-1.14l3.487-1.797a.602.602 0 1 1 .553 1.072l-3.487 1.798a.597.597 0 0 1-.276.067M30.608 3.422a.604.604 0 0 1-.472-.979L31.893.229a.603.603 0 1 1 .945.749L31.08 3.193a.6.6 0 0 1-.473.229"/>
        <g transform="translate(32 7)">
            <mask id="d" fill="#fff">
                <use xlink:href="#c"/>
            </mask>
            <path fill="#F25174" d="M1.275 1.595a.603.603 0 0 1-.03-1.204L4.067.243a.604.604 0 0 1 .062 1.205l-2.823.147h-.032" mask="url(#d)"/>
        </g>
    </g>
</svg>
