<svg xmlns="http://www.w3.org/2000/svg" width="40" height="40" viewBox="0 0 40 40">
    <g fill="none" fill-rule="nonzero">
        <path fill="#4DB6AC" d="M39.703 2.952a.546.546 0 0 0-.404-.179H21.123a.545.545 0 0 0-.542.599l2.067 20.889c.027.279.262.491.543.491h.389v5.598c-.001.63-.044 1.26-.128 1.885a.548.548 0 0 0-.003.126l.028.278a.544.544 0 0 0 .542.491h12.385c.28 0 .515-.213.542-.491l2.895-29.267a.544.544 0 0 0-.138-.42z"/>
        <path fill="#26A69A" d="M39.703 2.952a.546.546 0 0 0-.404-.179h-1.896a.545.545 0 0 1 .542.599L35.05 32.638a.545.545 0 0 1-.542.491h1.895c.28 0 .515-.212.542-.49L39.841 3.37a.544.544 0 0 0-.138-.419z"/>
        <path fill="#495766" d="M36.896 32.585v5.535a1.792 1.792 0 0 1-1.79 1.79h-9.842a1.792 1.792 0 0 1-1.79-1.79v-5.535a.544.544 0 0 1 .545-.545h12.333c.3 0 .544.245.544.545z"/>
        <path fill="#303C47" d="M36.352 32.04h-1.625c.3 0 .544.245.545.545v5.535a1.792 1.792 0 0 1-1.79 1.79h1.625a1.792 1.792 0 0 0 1.79-1.79v-5.535c0-.3-.245-.544-.545-.545z"/>
        <rect width="19.266" height="3.796" x="20.579" y=".066" fill="#BA68C8" rx=".775"/>
        <path fill="#AB47BC" d="M39.3.066h-.908l-.39 3.798H39.3c.3 0 .544-.244.544-.545V.611c0-.3-.244-.545-.544-.545z"/>
        <path fill="#303C47" d="M23.474 34.179h13.422v1.09H23.474z"/>
        <path fill="#FFECB3" d="M30.212 9.703c-2.561 0-4.567 3.623-4.567 8.249 0 4.625 2.006 8.249 4.567 8.249 2.56 0 4.566-3.624 4.566-8.25 0-4.625-2.006-8.248-4.566-8.248z"/>
        <path fill="#FFE082" d="M30.212 9.703c-.164 0-.327.015-.488.045 2.323.427 4.078 3.877 4.078 8.204 0 4.327-1.756 7.777-4.078 8.204.16.03.324.045.488.045 2.56 0 4.566-3.624 4.566-8.25 0-4.625-2.006-8.248-4.566-8.248z"/>
        <path fill="#FFECB3" d="M21.538 19.007v1.07c0 .302-.244.545-.545.546H3.676a.545.545 0 0 1-.544-.545v-1.071A2.733 2.733 0 0 1 5.35 16.33l.006-.047a3.798 3.798 0 0 1 3.757-3.25 5.561 5.561 0 0 0 4.39-2.166l1.618-2.114a.545.545 0 0 1 .872.013l1.348 1.858a10.518 10.518 0 0 1 1.998 5.71 2.735 2.735 0 0 1 2.198 2.673z"/>
        <path fill="#FFE082" d="M20.99 17.373c-.402-.54-.99-.91-1.65-1.04 0-.017 0-.033-.003-.05a10.518 10.518 0 0 0-1.995-5.659l-1.348-1.858a.545.545 0 0 0-.872-.013l-.386.505.99 1.366a10.518 10.518 0 0 1 1.999 5.71 2.735 2.735 0 0 1 2.197 2.673v1.07c0 .302-.244.545-.545.546h1.616c.3 0 .544-.244.545-.545v-1.071a2.69 2.69 0 0 0-.548-1.634zM11.026 16.828c0 .3-.244.544-.545.545H3.679a2.724 2.724 0 0 1 1.672-1.043l.006-.047h5.124c.3 0 .544.244.545.545z"/>
        <path fill="#FFE082" d="M20.99 17.373h-6.904a.545.545 0 1 1 0-1.09h5.251a.267.267 0 0 1 .003.05c.66.13 1.248.5 1.65 1.04z"/>
        <path fill="#BA68C8" d="M22.814 20.078v4.13c0 .301-.244.545-.545.545H2.4a.545.545 0 0 1-.545-.544v-4.131c0-.3.244-.545.545-.545h19.87c.3 0 .544.244.544.545z"/>
        <g fill="#AB47BC">
            <path d="M22.27 19.533h-1.545c.301 0 .545.244.545.545v4.13c0 .301-.244.545-.545.545h1.544c.301 0 .545-.244.545-.544v-4.131c0-.3-.244-.545-.545-.545z"/>
            <path d="M22.814 21.597v1.09h-7.717a.545.545 0 1 1 0-1.09h7.717zM10.117 22.142a.544.544 0 0 1-.545.544H1.855v-1.09h7.717c.3.001.544.245.545.546z"/>
        </g>
        <path fill="#FEC13B" d="M24.125 23.663H.545c-.301 0-.545.243-.545.544v6.143a15.297 15.297 0 0 0 3.228 9.374c.104.132.262.21.43.21h17.354a.544.544 0 0 0 .429-.21 15.297 15.297 0 0 0 3.228-9.374v-6.143c0-.3-.244-.544-.544-.544z"/>
        <path fill="#FFA000" d="M24.125 23.663H22.58c.3 0 .544.243.544.544v6.143a15.297 15.297 0 0 1-3.228 9.374.544.544 0 0 1-.43.21h1.545a.544.544 0 0 0 .429-.21 15.297 15.297 0 0 0 3.228-9.374v-6.143c0-.3-.244-.544-.544-.544z"/>
        <path fill="#4DB6AC" d="M17.112 33.89a3.025 3.025 0 0 0-1.709-1.374.543.543 0 0 0-.532.117 3.76 3.76 0 0 1-5.072 0 .542.542 0 0 0-.532-.117 3.025 3.025 0 0 0-1.71 1.373.544.544 0 0 0 0 .546 3.027 3.027 0 0 0 4.778.613 3.027 3.027 0 0 0 4.778-.613.544.544 0 0 0 0-.546z"/>
        <path fill="#BA68C8" d="M16.64 29.238a4.804 4.804 0 0 0-2.95 1.003.544.544 0 0 0-.208.51 2.912 2.912 0 0 1-1.148 2.756 2.912 2.912 0 0 1-1.147-2.757.544.544 0 0 0-.208-.51 4.804 4.804 0 0 0-2.95-1.003c-.302 0-.545.244-.545.544v.073a4.85 4.85 0 0 0 9.701 0v-.073c0-.3-.244-.543-.544-.543z"/>
        <path fill="#BA68C8" d="M12.607 27.72a.544.544 0 0 0-.546 0 3.992 3.992 0 0 0 0 6.914.544.544 0 0 0 .545 0 3.992 3.992 0 0 0 0-6.914h.001z"/>
        <path fill="#AB47BC" d="M13.69 30.241a.544.544 0 0 0-.208.51 2.912 2.912 0 0 1-1.148 2.756 2.912 2.912 0 0 1-1.147-2.757.544.544 0 0 0-.208-.51 4.794 4.794 0 0 0-2.403-.969 5.568 5.568 0 0 0 2.703 3.964 2.101 2.101 0 0 0 2.107 0 5.57 5.57 0 0 0 2.707-3.963 4.794 4.794 0 0 0-2.403.97z"/>
        <path fill="#BA68C8" d="M12.607 27.72a.544.544 0 0 0-.546 0 3.992 3.992 0 0 0 0 6.914.544.544 0 0 0 .545 0 3.992 3.992 0 0 0 0-6.914h.001z"/>
    </g>
</svg>
