<svg xmlns="http://www.w3.org/2000/svg" width="40" height="40" viewBox="0 0 40 40">
    <g fill="none" fill-rule="evenodd">
        <path d="M0 0h40v40H0z"/>
        <path fill="#FFE6B3" d="M27.5 21.367l-6.19-6.189a1.173 1.173 0 0 0-1.656 1.657l6.189 6.19c.229.228.529.342.828.342a1.17 1.17 0 0 0 .829-2"/>
        <path fill="#FFCA80" d="M27.5 21.367l-6.19-6.189a1.173 1.173 0 0 0-1.656 0l7.846 7.846a1.17 1.17 0 0 0 0-1.657"/>
        <path fill="#FF8E8E" d="M21.28 25.008l-2.038-3.516c-.211-.351-.61-.54-1.008-.54s-.797.189-1.008.54l-2.04 3.516a3.594 3.594 0 0 0-.467 1.758 3.51 3.51 0 0 0 3.515 3.515 3.511 3.511 0 0 0 3.516-3.515c0-.61-.164-1.22-.47-1.758"/>
        <path fill="#FFCEBF" d="M28.195 8.695a12.258 12.258 0 0 1-9.961 9.68c-.68.117-1.36.187-2.062.187h-14.5A1.16 1.16 0 0 1 .5 17.39V5.672A1.16 1.16 0 0 1 1.672 4.5h10.703l2.343 1.172h7.032L24.093 4.5h.657c1.054 0 2.039.468 2.718 1.29.68.82.938 1.874.727 2.905"/>
        <path fill="#FF637B" d="M21.28 25.008c.306.539.47 1.148.47 1.758a3.511 3.511 0 0 1-3.516 3.515v-9.328c.398 0 .797.188 1.008.539l2.039 3.516z"/>
        <path fill="#FFBFAB" d="M28.195 8.695a12.258 12.258 0 0 1-9.961 9.68V5.672h3.516L24.093 4.5h.657c1.054 0 2.039.468 2.718 1.29.68.82.938 1.874.727 2.905"/>
        <path fill="#FF8E8E" d="M24.093 4.5v1.172a5.861 5.861 0 0 1-5.859 5.859h-4.688a1.16 1.16 0 0 1-1.172-1.172V4.5h11.72z"/>
        <path fill="#FF637B" d="M24.093 4.5v1.172a5.861 5.861 0 0 1-5.859 5.859V4.5h5.86z"/>
        <path fill="#76E2F8" d="M39.1 29.654l-8.287-8.287a3.518 3.518 0 0 0-4.97 0 3.52 3.52 0 0 0 0 4.972l8.286 8.286a1.17 1.17 0 0 0 1.657 0l1.657-1.658L39.1 31.31a1.17 1.17 0 0 0 0-1.656"/>
        <path fill="#4BB9EC" d="M39.1 29.654l-8.287-8.287a3.518 3.518 0 0 0-4.97 0l11.6 11.6L39.1 31.31a1.17 1.17 0 0 0 0-1.656"/>
    </g>
</svg>
