<svg xmlns="http://www.w3.org/2000/svg" width="40" height="40" viewBox="0 0 40 40">
    <g fill="none" fill-rule="evenodd">
        <path d="M0 0h40v40H0z"/>
        <g fill-rule="nonzero">
            <path fill="#FFC48F" d="M17.954 10.369A6.369 6.369 0 0 0 11.586 4C5.193 4 .01 9.182.01 15.575c0 3.44 1.501 6.53 3.884 8.65 1.075.957 1.725 2.308 1.745 3.748l.003.117c.107 3.332 2.893 5.994 6.226 5.955a6.158 6.158 0 0 0 6.086-6.157v-17.52z"/>
            <path fill="#E59A5C" d="M13.142 25.846c-.897 2.528-4.16 2.528-4.649-.653-.49-3.18-7.544-7.545-3.059-13.173 3.763-4.72 8.214-4.522 10.823 4.862.474 1.704-1.728 2.275-1.728 3.907 0 .47.224.758.52.985.717.547.632 1.666-.175 2.068-.731.364-1.39 1.042-1.732 2.004z"/>
            <path fill="#CC7533" d="M15.05 21.774c-.297-.227-.521-.514-.521-.985 0-1.276 1.346-1.903 1.707-2.93-.578-1.406-1.63-2.346-2.832-2.346-1.825 0-3.304 2.164-3.304 4.832 0 2.67 1.48 4.833 3.304 4.833h.05a3.447 3.447 0 0 1 1.42-1.336c.807-.402.892-1.521.176-2.068z"/>
            <g>
                <path fill="#E3F4FC" d="M24.001 20.278c-6.189 0-11.667 2.472-15.022 6.266 3.355 3.795 8.833 6.267 15.022 6.267 6.19 0 11.668-2.472 15.023-6.267-3.355-3.794-8.834-6.266-15.023-6.266z"/>
                <path fill="#BDD9E5" d="M39.024 26.545a.996.996 0 0 1-.036.04c-3.8-2.396-9.11-3.884-14.987-3.884-5.876 0-11.186 1.488-14.986 3.884a.996.996 0 0 1-.036-.04c3.355-3.795 8.833-6.267 15.022-6.267 6.19 0 11.668 2.472 15.023 6.267z"/>
                <path fill="#34ABE0" d="M31.166 25.646a7.165 7.165 0 1 1-12.557-4.719 22.426 22.426 0 0 1 5.392-.65c1.876 0 3.686.227 5.392.65a7.132 7.132 0 0 1 1.773 4.719z"/>
                <path fill="#1895B7" d="M18.608 20.928a7.155 7.155 0 0 0-1.412 2.468A33.008 33.008 0 0 1 24 22.701c2.383 0 4.672.245 6.805.695a7.142 7.142 0 0 0-1.413-2.469 22.44 22.44 0 0 0-5.392-.65c-1.876 0-3.686.228-5.393.65z"/>
                <path fill="#3B3D4C" d="M27.077 25.646a3.076 3.076 0 1 1-6.151 0 3.076 3.076 0 0 1 6.15 0z"/>
            </g>
        </g>
    </g>
</svg>
