<svg xmlns="http://www.w3.org/2000/svg" xmlns:xlink="http://www.w3.org/1999/xlink" width="40" height="40" viewBox="0 0 40 40">
    <defs>
        <path id="a" d="M.599 0h28.097v40H.599z"/>
        <path id="c" d="M0 .673h11.962v14.842H0z"/>
        <path id="e" d="M.06.501h5.708v6.302H.06z"/>
    </defs>
    <g fill="none" fill-rule="evenodd">
        <path d="M0 0h40v40H0z"/>
        <g transform="translate(5)">
            <mask id="b" fill="#fff">
                <use xlink:href="#a"/>
            </mask>
            <path fill="#C5411E" d="M28.334 30.495c-.875-6.604-.696-13.708-7.899-17.858-.434-.25-.325-.9.17-.98.833-.136 1.542-.263 2.038-.607h-.853a2.073 2.073 0 0 1 0-4.144h.543c-.487-.279-1.104-.357-1.767-.365a1.038 1.038 0 0 1-.966-.706 9.126 9.126 0 0 0-.568-1.312l.987-.986a2.073 2.073 0 0 0-2.93-2.93l-1.05 1.048c-1.269-.498-2.673-.395-3.98.425-.425.267-.987.137-1.287-.263-.313-.417-.637-.812-1.055-1.024-.485-.247-1.413-.012-1.922.334-.28.19-.188 1.066-.11 1.611.102.745.546 1.663.562 2.3v-.002c1.501.995 3.36 2.801 2.492 5.322-.884 2.57-5.546 6.21-9.447 7.158-1.594 5.72-.48 10.906 3.746 15.44 5.445 5.84 12.515 7.481 20.22 6.95 2.15-.148 3.392-1.493 3.431-3.632.038-1.925-.102-3.869-.355-5.779" mask="url(#b)"/>
        </g>
        <path fill="#B02721" d="M13.965 28.81c-3.529-3.785-4.88-8.027-4.306-12.653-1.116.608-2.27 1.092-3.367 1.359-1.594 5.719-.48 10.905 3.746 15.439 5.446 5.84 12.515 7.482 20.22 6.95 2.15-.148 3.393-1.492 3.432-3.631.003-.162-.002-.324 0-.487-7.512.428-14.398-1.261-19.725-6.976"/>
        <g transform="translate(4 2)">
            <mask id="d" fill="#fff">
                <use xlink:href="#c"/>
            </mask>
            <path fill="#C29AB4" d="M9.248 3.035c.004.18-.02.34-.103.464-.437.655-1.795 1.015-2.72.96a5.348 5.348 0 0 0-.692-.004L2.247.967a1.002 1.002 0 0 0-1.418 0l-.536.536a1.002 1.002 0 0 0 0 1.418l3.56 3.56c-.014.158-.029.318-.033.497-.05 2.186-.107 4.517-.867 6.515-.26.682-.474 1.355-.66 2.022 3.901-.949 8.563-4.588 9.447-7.157.868-2.522-.99-4.328-2.492-5.323" mask="url(#d)"/>
        </g>
        <path fill="#9A879A" d="M31.624 11.049H26.79a2.072 2.072 0 1 1 0-4.144h4.834a2.072 2.072 0 1 1 0 4.144"/>
        <path fill="#556080" d="M31.624 6.905a2.072 2.072 0 1 1 .001 4.143 2.072 2.072 0 0 1 0-4.143"/>
        <path fill="#F7B563" d="M27.48 34.53a.69.69 0 0 1-.69-.69v-1.654c-4.998-2.64-8.024-5.913-8.993-9.732-1.25-4.918 1.405-8.868 1.518-9.034a.692.692 0 0 1 1.141.78c-.025.036-2.417 3.626-1.316 7.932.898 3.504 3.81 6.54 8.656 9.02a.692.692 0 0 1 .375.615v2.072a.69.69 0 0 1-.69.69"/>
        <g transform="translate(30 14)">
            <mask id="f" fill="#fff">
                <use xlink:href="#e"/>
            </mask>
            <path fill="#BA98B1" d="M4.993 4.088L3.588 3.76l.985-1.055a1.002 1.002 0 0 0-.05-1.417L3.97.771a1.003 1.003 0 0 0-1.417.048L.483 3.037.06 2.94a14.305 14.305 0 0 1 1.529 3.191l2.778.646a1.001 1.001 0 0 0 1.203-.749l.172-.738a1 1 0 0 0-.75-1.202" mask="url(#f)"/>
        </g>
        <path fill="#F7B563" d="M27.482 32.458a.69.69 0 0 1-.384-1.266l2.07-1.38a.69.69 0 1 1 .768 1.15l-2.071 1.38a.693.693 0 0 1-.383.116M17.812 35.911h-.004a.69.69 0 0 1-.686-.695l.01-1.904c-2.87-3.396-2.758-8.296.298-11.037a.69.69 0 1 1 .923 1.028c-2.551 2.29-2.557 6.457-.015 9.292a.683.683 0 0 1 .177.464l-.012 2.165a.691.691 0 0 1-.691.687M27.824 23.48a.688.688 0 0 1-.567-.295c-1.254-1.8-2.727-3.208-4.147-3.97-1.583-.848-2.998-.85-4.212-.003a.692.692 0 0 1-.962-.171.693.693 0 0 1 .17-.962c1.653-1.152 3.609-1.18 5.656-.08 1.608.86 3.25 2.422 4.627 4.395a.692.692 0 0 1-.565 1.086"/>
        <path fill="#F7B563" d="M25.41 24.17a.69.69 0 0 1-.691-.69v-2.762a.69.69 0 0 1 .276-.553l2.763-2.072a.687.687 0 0 1 .965.139.688.688 0 0 1-.137.965l-2.487 1.865v2.418a.688.688 0 0 1-.69.69M19.884 33.839h-2.072a.69.69 0 1 1 0-1.381h2.072a.69.69 0 1 1 0 1.38M22.647 33.148a.69.69 0 0 1-.69-.69v-4.143a.69.69 0 0 1 .69-.692h4.144a.69.69 0 0 1 0 1.381h-3.454v3.454a.69.69 0 0 1-.69.69"/>
    </g>
</svg>
