<svg xmlns="http://www.w3.org/2000/svg" width="40" height="40" viewBox="0 0 40 40">
    <g fill="none" fill-rule="nonzero">
        <path fill="#C5411E" d="M40 20c0 11.046-8.954 20-20 20S0 31.046 0 20 8.954 0 20 0s20 8.954 20 20z"/>
        <path fill="#B02721" d="M40 20c0-.627-.03-1.247-.087-1.86l-9.806-9.806-18.242 24.784 6.839 6.839c.428.027.86.043 1.296.043 11.046 0 20-8.954 20-20z"/>
        <path fill="#FFF" d="M35.435 20c0 8.524-6.91 15.435-15.435 15.435-8.524 0-15.435-6.91-15.435-15.435 0-8.524 6.91-15.435 15.435-15.435 8.524 0 15.435 6.91 15.435 15.435z"/>
        <path fill="#F2F6FC" d="M20 4.565h-.065v30.87H20c8.524 0 15.435-6.91 15.435-15.435 0-8.524-6.91-15.435-15.435-15.435z"/>
        <path fill="#76E2F8" d="M32.11 20c0 6.688-5.422 12.11-12.11 12.11S7.89 26.687 7.89 20 13.313 7.89 20 7.89 32.11 13.313 32.11 20z"/>
        <path fill="#F92814" d="M11.494 18.925c1.01 2.15 4.387 2.693 7.544 1.212 3.156-1.482 4.897-4.427 3.887-6.578l-.403-.86-11.428 5.364.4.862z"/>
        <path fill="#DB0404" d="M22.925 13.56l-.403-.86-5.643 2.648 2.19 4.773c3.137-1.486 4.862-4.418 3.856-6.562z"/>
        <path fill="#FF432E" d="M22.506 12.667c-1.01-2.151-4.387-2.694-7.544-1.212-3.156 1.481-4.897 4.426-3.887 6.577 1.01 2.151 4.387 2.694 7.543 1.212 3.157-1.482 4.897-4.426 3.888-6.577z"/>
        <path fill="#F92814" d="M22.507 12.668c-.999-2.127-4.311-2.68-7.437-1.26l3.588 7.818c3.132-1.488 4.854-4.416 3.849-6.558z"/>
        <path fill="#DB0404" d="M20.776 13.479c-.643-1.368-2.947-1.64-5.148-.607-2.201 1.033-3.465 2.98-2.823 4.348.642 1.368 2.947 1.64 5.148.607 2.201-1.033 3.465-2.98 2.823-4.348z"/>
        <path fill="#C10000" d="M20.776 13.48c-.633-1.349-2.88-1.631-5.053-.65l2.282 4.972c2.17-1.039 3.409-2.965 2.771-4.322z"/>
        <path fill="#2864F0" d="M20.038 28.03l2.045-2.044.994.994-2.044 2.044z"/>
        <path fill="#0053BF" d="M25.287 22.782l2.044-2.044.994.994-2.044 2.044zM25.287 26.98l.994-.995 2.044 2.044-.995.994z"/>
        <path fill="#2864F0" d="M20.039 21.731l.994-.994 2.044 2.044-.994.994z"/>
        <path fill="#4A7AFF" d="M28.09 24.88a3.909 3.909 0 1 1-7.816 0 3.909 3.909 0 0 1 7.817 0z"/>
        <path fill="#2864F0" d="M24.182 20.972l-.062.001v7.815l.062.001a3.909 3.909 0 1 0 0-7.817z"/>
        <path fill="#2864F0" d="M23.479 27.146h1.406v2.89H23.48z"/>
        <path fill="#0053BF" d="M24.12 27.146h.765v2.89h-.765z"/>
        <path fill="#2864F0" d="M23.479 19.724h1.406v2.89H23.48z"/>
        <path fill="#0053BF" d="M24.12 19.724h.765v2.89h-.765z"/>
        <path fill="#2864F0" d="M23.479 24.138h1.406v1.485H23.48z"/>
        <path fill="#0053BF" d="M24.12 24.138h.765v1.485h-.765z"/>
        <path fill="#2864F0" d="M19.026 24.177h2.89v1.406h-2.89z"/>
        <path fill="#0053BF" d="M26.448 24.177h2.89v1.406h-2.89z"/>
    </g>
</svg>
