<svg width="105" height="75" viewBox="0 0 105 75" fill="none" xmlns="http://www.w3.org/2000/svg">
<path fill-rule="evenodd" clip-rule="evenodd" d="M104.652 4.19573C104.652 1.87849 102.774 0 100.456 0H4.19571C1.87847 0 -1.52588e-05 1.87849 -1.52588e-05 4.19573V73.0631C-1.52588e-05 73.4857 0.474121 73.7347 0.82206 73.495L10.3936 66.8986C12.1441 65.6922 14.2199 65.0462 16.3459 65.0462H100.456C102.774 65.0462 104.652 63.1677 104.652 60.8505V4.19573Z" fill="#FCB716"/>
<path fill-rule="evenodd" clip-rule="evenodd" d="M64.4082 10.717V54.6369H66.3917V10.717H64.4082ZM11.9581 28.8281L17.9572 29.0167C17.8198 28.4979 17.7282 27.8848 17.7282 27.3188C17.7282 24.4419 19.2852 22.2252 22.4451 22.2252C25.4217 22.2252 26.9329 24.2061 26.9329 26.4227C26.9329 28.5451 25.9254 30.1486 23.4067 31.705L18.5067 34.7235C13.1946 38.0249 11.546 42.4111 11.5002 47.7877H33.4815V42.1752H19.2394C19.6974 40.9962 20.6591 40.1472 21.8039 39.3926L27.5282 35.8082C31.1918 33.4972 33.2983 30.2901 33.2983 26.3284C33.2983 20.999 29.2226 16.4713 22.5824 16.4713C15.6675 16.4713 11.7292 21.3291 11.7292 26.7057C11.7292 27.4603 11.8665 28.4036 11.9581 28.8281ZM92.7924 17.18V22.6038C90.5485 24.5846 82.2139 32.3665 80.8858 47.7889H74.3372C75.5737 31.3289 85.5111 22.7924 85.5111 22.7924H70.2157V17.18H92.7924ZM34.8628 41.2332V34.4417L47.3647 17.18H55.1498V35.668H60.0498V41.2332H55.1498V47.7889H48.9217V41.2332H34.8628ZM48.9216 35.668V23.9715L40.4496 35.668H48.9216Z" fill="white"/>
</svg>
