<svg xmlns="http://www.w3.org/2000/svg" width="17" height="20" viewBox="0 0 17 20">
    <g fill="#02475B">
        <path d="M16.616 4.076C11.009 1.906 8.952.158 8.93.158c-.25-.21-.633-.21-.882 0-.023.021-2.08 1.748-7.664 3.939C.136 4.18 0 4.413 0 4.645v5.223c0 6.067 7.867 9.921 8.206 10.069.09.042.204.063.294.063s.203-.021.294-.063C9.133 19.768 17 15.935 17 9.868V4.623c0-.231-.158-.442-.384-.547zM8.5 14C6.02 14 4 12.204 4 10c0-2.204 2.02-4 4.5-4S13 7.796 13 10c0 2.204-2.02 4-4.5 4z"/>
        <path d="M11.063 9.197H9.437V7.803c0-.444-.42-.803-.937-.803-.518 0-.937.36-.937.803v1.394H5.937c-.518 0-.937.36-.937.803 0 .444.419.803.937.803h1.626v1.394c0 .444.42.803.937.803.518 0 .937-.36.937-.803v-1.394h1.626c.518 0 .937-.36.937-.803 0-.444-.419-.803-.937-.803z"/>
    </g>
</svg>
