<svg xmlns="http://www.w3.org/2000/svg" width="18" height="23" viewBox="0 0 18 23">
    <path fill="#02475B" d="M12.468.252c-.274 0-.495.224-.495.501v4.82l1.327-.66h4.125c.275 0 .495-.223.495-.5V.752c0-.277-.22-.5-.495-.5h-4.957zm.167.673h4.624v.666h-4.624V.925zm0 1.331h4.624v.665h-4.624v-.665zm0 1.33h2.642v.666h-2.642v-.666zm-8.322.323c-.153.04-.27.194-.269.354v2.536c0 .5.262.944.662 1.205V9.938c.08 1.153.52 1.958 1.135 2.453-.072.571-.316.9-.723 1.205-.481.359-1.181.639-1.92.957-.739.317-1.524.7-2.127 1.372-.604.672-.992 1.613-.991 2.971v.25l.207.084c1.89.826 2.846 1.25 3.323 1.455.239.103.347.16.414.187.034.013.046.01.083.021.009 0 .022.017.04.02h.022c.054.023.17.071.392.167.465.2 1.39.595 3.263 1.413l.143.064.145-.064c1.906-.815 2.859-1.211 3.345-1.413.233-.097.353-.163.414-.187h.02c.035-.007.068-.017.082-.021.029-.01.03-.008.063-.02l.432-.189c.468-.204 1.401-.616 3.263-1.433l.207-.083v-.25c0-1.327-.392-2.26-.991-2.91-.6-.65-1.377-1-2.107-1.31-.73-.31-1.425-.587-1.9-.956-.465-.362-.732-.78-.742-1.58.642-.535 1.086-1.285 1.114-2.203V6.694c0-1.161-.874-2.12-1.982-2.12H5.365c-.226 0-.412-.036-.495-.083-.082-.046-.104-.053-.104-.228.002-.223-.239-.412-.453-.354zm3.696 9.703c.534 0 .968.435.968.973 0 .266-.109.533-.293.714 0 0-.24.117-.137.506l.783 4.412-1.321.664-1.296-.672.797-4.404c.104-.322-.125-.488-.14-.506-.206-.183-.329-.43-.33-.714 0-.538.434-.973.969-.973z"/>
</svg>
