<svg width="405" height="422" viewBox="0 0 405 422" fill="none" xmlns="http://www.w3.org/2000/svg">
<g filter="url(#filter0_f)">
<ellipse cx="202.5" cy="263.5" rx="102.5" ry="58.5" fill="#0087BA" fill-opacity="0.32"/>
</g>
<circle cx="202.5" cy="173.5" r="137.5" fill="#FAFAFA"/>
<g clip-path="url(#clip0)">
<path d="M201.095 6.1788C201.985 5.10446 203.314 4.49285 204.709 4.51666C240.012 5.40382 271.162 27.8402 283.189 61.0434C295.217 94.2466 285.662 131.428 259.116 154.718C245.917 166.584 238.456 183.551 238.633 201.299V207.767C238.633 210.261 236.611 212.283 234.117 212.283H170.883C168.389 212.283 166.367 210.261 166.367 207.767V201.29C166.544 183.548 159.086 166.586 145.893 154.723C127.315 138.485 116.665 115.008 116.683 90.3333V85.8167C116.683 83.3222 118.705 81.3 121.2 81.3H148.3L152.189 57.9759C152.551 55.798 154.434 54.201 156.642 54.2H184.433L180.341 33.7124C180.072 32.3723 180.424 30.9823 181.299 29.9319L201.095 6.1788Z" fill="white"/>
<path d="M201.704 4.51666C200.685 4.53155 199.701 4.89497 198.917 5.54646C231.883 10.5459 258.956 34.2113 268.318 66.2119C277.681 98.2125 267.634 132.739 242.562 154.718C229.365 166.585 221.906 183.552 222.083 201.299V207.767C222.083 210.261 220.061 212.283 217.567 212.283H231.117C233.611 212.283 235.633 210.261 235.633 207.767V201.299C235.456 183.552 242.915 166.585 256.112 154.718C282.662 131.43 292.22 94.2462 280.192 61.0407C268.164 27.8353 237.01 5.39912 201.704 4.51666Z" fill="#0087BA" fill-opacity="0.52"/>
<path d="M170.883 212.283H234.117V257.45C234.117 262.439 230.072 266.483 225.083 266.483H179.917C174.928 266.483 170.883 262.439 170.883 257.45V212.283Z" fill="white"/>
<path d="M220.567 212.283V257.45C220.567 262.439 216.522 266.483 211.533 266.483H225.083C230.072 266.483 234.117 262.439 234.117 257.45V212.283H220.567Z" fill="#0087BA" fill-opacity="0.52"/>
<path d="M193.467 158.083H211.533C214.028 158.083 216.05 160.106 216.05 162.6V212.283H188.95V162.6C188.95 160.106 190.972 158.083 193.467 158.083Z" fill="white"/>
<path d="M211.533 158.083H197.983C200.478 158.083 202.5 160.106 202.5 162.6V212.283H216.05V162.6C216.05 160.106 214.028 158.083 211.533 158.083Z" fill="#0087BA" fill-opacity="0.52"/>
<path d="M147.731 57.2352L144.47 76.7834H121.2C116.211 76.7834 112.167 80.8277 112.167 85.8167V90.3334C112.18 116.307 123.385 141.015 142.916 158.138C155.137 169.131 162.035 184.853 161.85 201.29V207.767C161.86 210.98 163.581 213.944 166.367 215.544V225.833C163.872 225.833 161.85 227.856 161.85 230.35C161.85 232.845 163.872 234.867 166.367 234.867V243.9C163.872 243.9 161.85 245.922 161.85 248.417C161.85 250.911 163.872 252.933 166.367 252.933V257.45C166.367 264.934 172.433 271 179.917 271H225.083C232.567 271 238.633 264.934 238.633 257.45V252.933C241.128 252.933 243.15 250.911 243.15 248.417C243.15 245.922 241.128 243.9 238.633 243.9V234.867C241.128 234.867 243.15 232.845 243.15 230.35C243.15 227.856 241.128 225.833 238.633 225.833V215.544C241.419 213.944 243.14 210.98 243.15 207.767V201.294C242.96 184.847 249.862 169.114 262.093 158.115C290.038 133.598 300.098 94.4582 287.437 59.5051C274.777 24.5521 241.985 0.933331 204.822 -1.80193e-06C202.057 -0.0327814 199.421 1.1675 197.631 3.27458L177.83 27.0368C176.072 29.133 175.365 31.9165 175.91 34.5977L178.923 49.6833H156.642C152.225 49.6832 148.455 52.8777 147.731 57.2352ZM229.6 257.45C229.6 259.945 227.578 261.967 225.083 261.967H179.917C177.422 261.967 175.4 259.945 175.4 257.45V252.933H229.6V257.45ZM229.6 243.9H175.4V234.867H229.6V243.9ZM175.4 225.833V216.8H229.6V225.833H175.4ZM193.467 162.6H211.533V207.767H193.467V162.6ZM184.433 58.7167H202.5C204.01 58.7169 205.42 57.9627 206.258 56.7068L213.95 45.1667H229.6C232.094 45.1667 234.117 43.1445 234.117 40.65C234.117 38.1555 232.094 36.1333 229.6 36.1333H211.533C210.024 36.1331 208.613 36.8873 207.775 38.1433L200.084 49.6833H188.137L184.768 32.8271L204.564 9.06495L201.091 6.17428L204.591 9.03333C238.029 9.87743 267.532 31.1295 278.925 62.5784C290.317 94.0273 281.27 129.244 256.131 151.308C241.943 164.027 233.922 182.241 234.117 201.294V207.767H220.567V162.6C220.559 159.439 218.892 156.513 216.176 154.895C216.8 144.931 220.368 138.391 227.102 135.021C229.335 133.906 230.241 131.192 229.126 128.96C228.011 126.727 225.297 125.821 223.064 126.936C213.503 131.72 208.214 140.685 207.224 153.585H197.776C196.786 140.708 191.497 131.742 181.936 126.959C179.703 125.844 176.989 126.75 175.874 128.982C174.759 131.215 175.665 133.929 177.898 135.044C184.632 138.409 188.2 144.949 188.824 154.917C186.115 156.532 184.449 159.447 184.433 162.6V207.767H170.883V201.29C171.079 182.238 163.057 164.025 148.869 151.308C131.305 135.909 121.223 113.692 121.2 90.3334V85.8167H163.575L171.358 101.386C172.123 102.917 173.688 103.884 175.4 103.883H197.983C200.478 103.883 202.5 101.861 202.5 99.3667C202.5 96.8722 200.478 94.85 197.983 94.85H178.191L170.432 79.2811C169.663 77.7424 168.087 76.774 166.367 76.7834H153.63L156.642 58.7167H184.433Z" fill="#02475B"/>
<rect x="184" y="261.9" width="13" height="9.1" fill="#FAFAFA"/>
</g>
<path d="M289.271 64.5058C301.931 99.4588 286.5 140 256.926 163.116L250.964 156.309C275.5 132.5 289.013 99.9209 280.5 67.5L289.271 64.5058Z" fill="#FAFAFA"/>
<defs>
<filter id="filter0_f" x="0" y="105" width="405" height="317" filterUnits="userSpaceOnUse" color-interpolation-filters="sRGB">
<feFlood flood-opacity="0" result="BackgroundImageFix"/>
<feBlend mode="normal" in="SourceGraphic" in2="BackgroundImageFix" result="shape"/>
<feGaussianBlur stdDeviation="50" result="effect1_foregroundBlur"/>
</filter>
<clipPath id="clip0">
<rect width="271" height="271" fill="white" transform="translate(67)"/>
</clipPath>
</defs>
</svg>
