<svg width="24" height="24" viewBox="0 0 24 24" fill="none" xmlns="http://www.w3.org/2000/svg">
<path fill-rule="evenodd" clip-rule="evenodd" d="M10.2067 6.64306C9.9431 6.75992 9.67802 6.75079 9.52098 6.59375C9.28666 6.35944 9.38164 5.88457 9.73311 5.53309C10.0846 5.18162 10.5595 5.08665 10.7938 5.32096C10.9508 5.478 10.9599 5.74309 10.8431 6.00667L13.0212 8.18475L12.3848 8.82114L10.2067 6.64306Z" fill="#717171"/>
<path fill-rule="evenodd" clip-rule="evenodd" d="M18.0063 15.079C18.2406 15.3133 18.7154 15.2184 19.0669 14.8669C19.4184 14.5154 19.5134 14.0405 19.279 13.8062C19.122 13.6492 18.8569 13.6401 18.5933 13.7569L16.4153 11.5788L15.7789 12.2152L17.9569 14.3933C17.8401 14.6569 17.8492 14.922 18.0063 15.079Z" fill="#717171"/>
<path fill-rule="evenodd" clip-rule="evenodd" d="M13.0212 12.2153L12.3848 11.5789L10.3376 13.626C10.074 13.5092 9.80891 13.5183 9.65187 13.6753C9.41756 13.9097 9.51253 14.3845 9.864 14.736C10.2155 15.0875 10.6903 15.1824 10.9247 14.9481C11.0817 14.7911 11.0908 14.526 10.974 14.2624L13.0212 12.2153Z" fill="#717171"/>
<path fill-rule="evenodd" clip-rule="evenodd" d="M18.5933 6.64306C18.8569 6.75992 19.122 6.75079 19.279 6.59375C19.5134 6.35944 19.4184 5.88457 19.0669 5.53309C18.7154 5.18162 18.2406 5.08665 18.0062 5.32096C17.8492 5.478 17.8401 5.74309 17.9569 6.00666L15.7789 8.18475L16.4153 8.82114L18.5933 6.64306Z" fill="#717171"/>
<path d="M19.2 10.2C19.2 12.8511 17.0511 15 14.4 15C11.7489 15 9.60001 12.8511 9.60001 10.2C9.60001 7.5489 11.7489 5.39999 14.4 5.39999C17.0511 5.39999 19.2 7.5489 19.2 10.2Z" fill="#E3E3E3"/>
<path fill-rule="evenodd" clip-rule="evenodd" d="M8.31974 10.65C8.216 10.919 8.0221 11.1 7.80001 11.1C7.46864 11.1 7.20001 10.697 7.20001 10.2C7.20001 9.70293 7.46864 9.29999 7.80001 9.29999C8.0221 9.29999 8.216 9.48098 8.31974 9.74999H11.4V10.65H8.31974Z" fill="#BFBFBF"/>
<path fill-rule="evenodd" clip-rule="evenodd" d="M21 11.1C21.3314 11.1 21.6 10.697 21.6 10.2C21.6 9.70293 21.3314 9.29999 21 9.29999C20.7779 9.29999 20.584 9.48098 20.4803 9.74999H17.4V10.65H20.4803C20.584 10.919 20.7779 11.1 21 11.1Z" fill="#BFBFBF"/>
<path fill-rule="evenodd" clip-rule="evenodd" d="M14.85 13.2H13.95V16.0952C13.681 16.1989 13.5 16.3928 13.5 16.6149C13.5 16.9463 13.9029 17.2149 14.4 17.2149C14.8971 17.2149 15.3 16.9463 15.3 16.6149C15.3 16.3928 15.119 16.1989 14.85 16.0952V13.2Z" fill="#BFBFBF"/>
<path fill-rule="evenodd" clip-rule="evenodd" d="M14.85 4.11973C15.119 4.01599 15.3 3.82208 15.3 3.6C15.3 3.26863 14.8971 3 14.4 3C13.9029 3 13.5 3.26863 13.5 3.6C13.5 3.82208 13.681 4.01599 13.95 4.11973V7.2H14.85V4.11973Z" fill="#BFBFBF"/>
<path d="M13.95 9.75H14.85V10.65H13.95V9.75Z" fill="#BFBFBF"/>
<path fill-rule="evenodd" clip-rule="evenodd" d="M4.50335 15.6215C4.37156 15.68 4.239 15.6754 4.16048 15.5969C4.04333 15.4797 4.09081 15.2423 4.26655 15.0665C4.44229 14.8908 4.67972 14.8433 4.79688 14.9605C4.8754 15.039 4.87996 15.1715 4.82154 15.3033L5.91057 16.3924L5.59237 16.7106L4.50335 15.6215Z" fill="#717171"/>
<path fill-rule="evenodd" clip-rule="evenodd" d="M8.40311 19.8395C8.52027 19.9566 8.7577 19.9091 8.93344 19.7334C9.10918 19.5577 9.15666 19.3202 9.03951 19.2031C8.96098 19.1246 8.82843 19.12 8.69663 19.1784L7.60761 18.0894L7.28941 18.4076L8.37845 19.4966C8.32002 19.6284 8.32459 19.761 8.40311 19.8395Z" fill="#717171"/>
<path fill-rule="evenodd" clip-rule="evenodd" d="M5.91059 18.4076L5.59239 18.0894L4.56881 19.113C4.43701 19.0546 4.30447 19.0591 4.22594 19.1376C4.10879 19.2548 4.15627 19.4922 4.33201 19.668C4.50775 19.8437 4.74518 19.8912 4.86234 19.774C4.94086 19.6955 4.94543 19.563 4.887 19.4312L5.91059 18.4076Z" fill="#717171"/>
<path fill-rule="evenodd" clip-rule="evenodd" d="M8.69666 15.6215C8.82846 15.68 8.96101 15.6754 9.03953 15.5969C9.15669 15.4797 9.1092 15.2423 8.93346 15.0665C8.75773 14.8908 8.52029 14.8433 8.40313 14.9605C8.32462 15.039 8.32005 15.1715 8.37847 15.3033L7.28944 16.3924L7.60764 16.7106L8.69666 15.6215Z" fill="#717171"/>
<path d="M9.00001 17.4C9.00001 18.7255 7.92556 19.8 6.60001 19.8C5.27447 19.8 4.20001 18.7255 4.20001 17.4C4.20001 16.0745 5.27447 15 6.60001 15C7.92556 15 9.00001 16.0745 9.00001 17.4Z" fill="#E3E3E3"/>
<path fill-rule="evenodd" clip-rule="evenodd" d="M3.55987 17.625C3.50799 17.7595 3.41104 17.85 3.3 17.85C3.13431 17.85 3 17.6485 3 17.4C3 17.1515 3.13431 16.95 3.3 16.95C3.41104 16.95 3.50799 17.0405 3.55987 17.175H5.1V17.625H3.55987Z" fill="#BFBFBF"/>
<path fill-rule="evenodd" clip-rule="evenodd" d="M9.90001 17.85C10.0657 17.85 10.2 17.6485 10.2 17.4C10.2 17.1515 10.0657 16.95 9.90001 16.95C9.78896 16.95 9.69201 17.0405 9.64014 17.175H8.10001V17.625H9.64014C9.69201 17.7595 9.78896 17.85 9.90001 17.85Z" fill="#BFBFBF"/>
<path fill-rule="evenodd" clip-rule="evenodd" d="M6.82499 18.9H6.37499V20.3476C6.24049 20.3995 6.14999 20.4964 6.14999 20.6075C6.14999 20.7731 6.35147 20.9075 6.59999 20.9075C6.84852 20.9075 7.04999 20.7731 7.04999 20.6075C7.04999 20.4964 6.9595 20.3995 6.82499 20.3476V18.9Z" fill="#BFBFBF"/>
<path fill-rule="evenodd" clip-rule="evenodd" d="M6.82499 14.3599C6.9595 14.308 7.04999 14.211 7.04999 14.1C7.04999 13.9343 6.84852 13.8 6.59999 13.8C6.35147 13.8 6.14999 13.9343 6.14999 14.1C6.14999 14.211 6.24049 14.308 6.37499 14.3599V15.9H6.82499V14.3599Z" fill="#BFBFBF"/>
<path d="M6.375 17.175H6.825V17.625H6.375V17.175Z" fill="#BFBFBF"/>
<path fill-rule="evenodd" clip-rule="evenodd" d="M4.00221 4.21435C3.91435 4.25331 3.82599 4.25026 3.77365 4.19792C3.69554 4.11981 3.7272 3.96152 3.84436 3.84436C3.96151 3.72721 4.1198 3.69555 4.19791 3.77365C4.25026 3.826 4.2533 3.91436 4.21434 4.00222L4.94037 4.72825L4.72824 4.94038L4.00221 4.21435Z" fill="#717171"/>
<path fill-rule="evenodd" clip-rule="evenodd" d="M6.60209 7.02636C6.6802 7.10447 6.83849 7.07281 6.95564 6.95565C7.0728 6.8385 7.10446 6.6802 7.02635 6.6021C6.97401 6.54975 6.88564 6.54671 6.79778 6.58566L6.07176 5.85964L5.85963 6.07177L6.58565 6.7978C6.5467 6.88566 6.54975 6.97402 6.60209 7.02636Z" fill="#717171"/>
<path fill-rule="evenodd" clip-rule="evenodd" d="M4.9404 6.07178L4.72827 5.85965L4.04589 6.54203C3.95802 6.50307 3.86965 6.50611 3.8173 6.55846C3.7392 6.63657 3.77086 6.79486 3.88801 6.91201C4.00517 7.02917 4.16346 7.06083 4.24157 6.98272C4.29391 6.93038 4.29696 6.84203 4.25801 6.75418L4.9404 6.07178Z" fill="#717171"/>
<path fill-rule="evenodd" clip-rule="evenodd" d="M6.79778 4.21435C6.88564 4.25331 6.974 4.25026 7.02634 4.19792C7.10445 4.11981 7.07279 3.96152 6.95563 3.84436C6.83847 3.72721 6.68018 3.69555 6.60208 3.77365C6.54973 3.826 6.54669 3.91436 6.58564 4.00222L5.85962 4.72825L6.07175 4.94038L6.79778 4.21435Z" fill="#717171"/>
<path d="M6.99999 5.39999C6.99999 6.28369 6.28369 6.99999 5.39999 6.99999C4.51629 6.99999 3.79999 6.28369 3.79999 5.39999C3.79999 4.51629 4.51629 3.79999 5.39999 3.79999C6.28369 3.79999 6.99999 4.51629 6.99999 5.39999Z" fill="#E3E3E3"/>
<path fill-rule="evenodd" clip-rule="evenodd" d="M3.37324 5.55001C3.33866 5.63968 3.27403 5.70001 3.2 5.70001C3.08954 5.70001 3 5.56569 3 5.40001C3 5.23432 3.08954 5.10001 3.2 5.10001C3.27403 5.10001 3.33866 5.16034 3.37324 5.25001H4.4V5.55001H3.37324Z" fill="#BFBFBF"/>
<path fill-rule="evenodd" clip-rule="evenodd" d="M7.59999 5.70001C7.71045 5.70001 7.79999 5.56569 7.79999 5.40001C7.79999 5.23432 7.71045 5.10001 7.59999 5.10001C7.52596 5.10001 7.46133 5.16034 7.42675 5.25001H6.39999V5.55001H7.42675C7.46133 5.63968 7.52596 5.70001 7.59999 5.70001Z" fill="#BFBFBF"/>
<path fill-rule="evenodd" clip-rule="evenodd" d="M5.55001 6.40002H5.25001V7.36508C5.16034 7.39966 5.10001 7.46429 5.10001 7.53832C5.10001 7.64878 5.23432 7.73832 5.40001 7.73832C5.56569 7.73832 5.70001 7.64878 5.70001 7.53832C5.70001 7.46429 5.63968 7.39966 5.55001 7.36508V6.40002Z" fill="#BFBFBF"/>
<path fill-rule="evenodd" clip-rule="evenodd" d="M5.55001 3.37324C5.63968 3.33866 5.70001 3.27403 5.70001 3.2C5.70001 3.08954 5.56569 3 5.40001 3C5.23432 3 5.10001 3.08954 5.10001 3.2C5.10001 3.27403 5.16034 3.33866 5.25001 3.37324V4.39998H5.55001V3.37324Z" fill="#BFBFBF"/>
<path d="M5.25 5.25H5.55V5.55H5.25V5.25Z" fill="#BFBFBF"/>
</svg>
