<svg xmlns="http://www.w3.org/2000/svg" width="22" height="21" viewBox="0 0 22 21">
    <path fill="#02475B" d="M19.482 2.6c0-.233-.192-.423-.43-.423h-8.8V.423c0-.234-.192-.423-.43-.423H2.614c-.238 0-.43.19-.43.423v3.71l17.298.028V2.6zm-1.731 9.231c.842 0 1.636.202 2.337.558l.784-6.933c.014-.12-.025-.24-.107-.329-.081-.09-.198-.14-.32-.14H.43c-.123 0-.24.05-.321.14-.082.09-.12.209-.107.329l1.35 11.928c.024.214.208.376.428.376h10.96c-.057-.3-.087-.61-.087-.926 0-2.758 2.286-5.003 5.097-5.003m-.732 5.64c-.133-.13-.16-.323-.084-.48-.029.016-.055.036-.08.06l-.585.574c-.163.16-.163.42 0 .58.163.16.428.16.591 0l.585-.574c.025-.024.045-.05.062-.078-.058.028-.122.042-.185.042-.11 0-.22-.041-.304-.124m1.917-2.292c-.107 0-.214.04-.296.12l-.53.521c.165-.099.384-.078.527.062.144.14.165.356.064.518l.53-.52c.163-.16.163-.42 0-.58-.081-.08-.188-.12-.295-.12m.904 1.297l-.585.574c-.223.22-.515.347-.828.365-.018.307-.148.594-.372.813l-.585.574c-.241.237-.563.368-.904.368-.342 0-.663-.13-.905-.368-.241-.237-.374-.552-.374-.888 0-.335.133-.65.374-.887l.585-.574c.224-.22.515-.348.828-.366.019-.307.149-.593.372-.812l.585-.574c.5-.49 1.31-.49 1.81 0 .498.49.498 1.286 0 1.775m-2.09-3.8c-2.336 0-4.236 1.865-4.236 4.157 0 2.293 1.9 4.158 4.236 4.158s4.236-1.865 4.236-4.158c0-2.292-1.9-4.157-4.236-4.157"/>
</svg>
