<svg xmlns="http://www.w3.org/2000/svg" width="22" height="22" viewBox="0 0 22 22">
    <path fill="#01475B" d="M18.7 11c-1.43 0-2.75.99-3.08 2.31-1.98.44-3.52 2.2-3.52 4.29v.55c0 .88-.77 1.65-1.65 1.65-.88 0-1.65-.77-1.65-1.65v-3.96c2.64-.44 4.84-2.31 5.5-4.95l.99-3.74c.22-1.32-.11-2.75-.99-3.85C13.42.66 12.1 0 10.78 0c-.66 0-1.1.44-1.1 1.1 0 .66.44 1.1 1.1 1.1.77 0 1.43.33 1.87.88.44.55.66 1.32.55 1.98l-.99 3.63c-.55 1.98-2.42 3.41-4.51 3.41s-3.96-1.43-4.51-3.41L2.2 5.06c-.11-.66.11-1.43.55-1.98.44-.55 1.21-.88 1.87-.88.66 0 1.1-.44 1.1-1.1 0-.66-.44-1.1-1.1-1.1C3.3 0 1.98.66 1.1 1.65.22 2.75-.11 4.07.11 5.61l.99 3.63c.66 2.64 2.86 4.51 5.5 4.95v3.96c0 2.09 1.76 3.85 3.85 3.85s3.85-1.76 3.85-3.85v-.55c0-.88.55-1.65 1.32-1.98.55 1.21 1.65 1.98 3.08 1.98 1.87 0 3.3-1.43 3.3-3.3 0-1.87-1.54-3.3-3.3-3.3zm0 4.4c-.66 0-1.1-.44-1.1-1.1 0-.66.44-1.1 1.1-1.1.66 0 1.1.44 1.1 1.1 0 .66-.55 1.1-1.1 1.1z"/>
</svg>
