<svg xmlns="http://www.w3.org/2000/svg" width="16" height="16" viewBox="0 0 16 16">
    <path fill="#00485D" d="M15.5 6.333c-.133 0-.26.053-.354.147-.093.094-.146.22-.146.353v.5h-1.376c-.122-1.036-.529-2.019-1.177-2.838l.974-.973.392.332c.126.126.31.176.483.13.173-.047.308-.182.354-.354.046-.173-.003-.357-.13-.484L12.854 1.48c-.127-.126-.31-.176-.483-.13-.173.047-.308.181-.354.354-.046.172.003.357.13.483l.331.392-.973.974c-.82-.648-1.802-1.055-2.838-1.177V1h.5c.276 0 .5-.224.5-.5s-.224-.5-.5-.5H6.833c-.276 0-.5.224-.5.5s.224.5.5.5h.5v1.376c-1.036.122-2.019.53-2.838 1.177l-.973-.974.332-.392c.126-.126.175-.31.129-.483-.046-.173-.181-.307-.354-.354-.172-.046-.356.004-.483.13L1.518 3.146c-.194.196-.194.512.001.707.195.195.51.195.706 0l.354-.331.974.973c-.648.82-1.055 1.802-1.177 2.838H1v-.5c0-.276-.224-.5-.5-.5s-.5.224-.5.5v2.334c0 .276.224.5.5.5s.5-.224.5-.5v-.5h1.376c.122 1.036.529 2.019 1.177 2.838l-.974.973-.392-.332c-.195-.194-.512-.194-.707 0-.195.196-.195.512 0 .708l1.666 1.666c.127.126.31.176.483.13.173-.047.308-.181.354-.354.046-.172-.003-.357-.13-.483l-.331-.392.973-.974c.82.648 1.802 1.055 2.838 1.177V15h-.5c-.276 0-.5.224-.5.5s.224.5.5.5h2.334c.276 0 .5-.224.5-.5s-.224-.5-.5-.5h-.5v-1.376c1.036-.122 2.019-.529 2.838-1.177l.973.974-.332.392c-.195.195-.195.512 0 .707.196.195.512.195.708 0l1.666-1.666c.127-.127.176-.311.13-.484-.046-.172-.181-.307-.354-.353-.172-.047-.357.003-.483.13l-.392.331-.974-.973c.648-.82 1.055-1.802 1.177-2.838H15v.5c0 .276.224.5.5.5s.5-.224.5-.5V6.833c0-.132-.053-.26-.146-.353-.094-.094-.221-.147-.354-.147zm-9.333.334c-.472 0-.898-.285-1.078-.72-.18-.436-.081-.938.253-1.272.333-.334.835-.433 1.271-.253.436.18.72.606.72 1.078 0 .31-.123.606-.341.825-.22.219-.516.342-.825.342zM10 11c-.368 0-.667-.298-.667-.667 0-.368.299-.666.667-.666.368 0 .667.298.667.666 0 .369-.299.667-.667.667z"/>
</svg>
