<svg width="24" height="24" viewBox="0 0 24 24" fill="none" xmlns="http://www.w3.org/2000/svg">
<path fill-rule="evenodd" clip-rule="evenodd" d="M5.01109 6.15082C4.5718 6.34813 4.12999 6.33271 3.86826 6.06757C3.47773 5.67196 3.63602 4.8702 4.22181 4.27679C4.8076 3.68337 5.59905 3.52302 5.98958 3.91863C6.25131 4.18377 6.26653 4.63134 6.07176 5.07635L9.70187 8.75373L8.64121 9.8282L5.01109 6.15082Z" fill="#FCB716"/>
<path fill-rule="evenodd" clip-rule="evenodd" d="M18.0105 20.3939C18.4011 20.7895 19.1925 20.6291 19.7783 20.0357C20.3641 19.4423 20.5224 18.6405 20.1319 18.2449C19.8701 17.9798 19.4283 17.9644 18.989 18.1617L15.3589 14.4843L14.2982 15.5587L17.9284 19.2362C17.7336 19.6812 17.7488 20.1287 18.0105 20.3939Z" fill="#FCB716"/>
<path fill-rule="evenodd" clip-rule="evenodd" d="M9.70227 15.5588L8.64161 14.4843L5.22954 17.9408C4.79021 17.7434 4.34835 17.7588 4.0866 18.024C3.69608 18.4196 3.85437 19.2214 4.44016 19.8148C5.02594 20.4082 5.8174 20.5686 6.20792 20.1729C6.46963 19.9078 6.48487 19.4603 6.29015 19.0153L9.70227 15.5588Z" fill="#FCB716"/>
<path fill-rule="evenodd" clip-rule="evenodd" d="M18.9889 6.15082C19.4282 6.34813 19.87 6.33271 20.1317 6.06757C20.5223 5.67196 20.364 4.8702 19.7782 4.27679C19.1924 3.68337 18.4009 3.52302 18.0104 3.91863C17.7487 4.18377 17.7335 4.63134 17.9282 5.07635L14.2981 8.75373L15.3588 9.8282L18.9889 6.15082Z" fill="#FCB716"/>
<path d="M20 12.1562C20 16.6323 16.4185 20.2604 12 20.2604C7.58151 20.2604 4 16.6323 4 12.1562C4 7.68022 7.58151 4.05208 12 4.05208C16.4185 4.05208 20 7.68022 20 12.1562Z" fill="#FC9916"/>
<path fill-rule="evenodd" clip-rule="evenodd" d="M1.86622 12.916C1.69331 13.3702 1.37014 13.6758 1 13.6758C0.447715 13.6758 0 12.9955 0 12.1563C0 11.317 0.447715 10.6367 1 10.6367C1.37014 10.6367 1.69331 10.9423 1.86622 11.3965H7V12.916H1.86622Z" fill="#FCB716"/>
<path fill-rule="evenodd" clip-rule="evenodd" d="M23 13.6758C23.5523 13.6758 24 12.9955 24 12.1563C24 11.317 23.5523 10.6367 23 10.6367C22.6299 10.6367 22.3067 10.9423 22.1338 11.3965H17V12.916H22.1338C22.3067 13.3702 22.6299 13.6758 23 13.6758Z" fill="#FCB716"/>
<path fill-rule="evenodd" clip-rule="evenodd" d="M12.75 17.2213H11.25V22.1095C10.8016 22.2846 10.5 22.612 10.5 22.987C10.5 23.5464 11.1716 24 12 24C12.8284 24 13.5 23.5464 13.5 22.987C13.5 22.612 13.1984 22.2846 12.75 22.1095V17.2213Z" fill="#FCB716"/>
<path fill-rule="evenodd" clip-rule="evenodd" d="M12.75 1.89052C13.1984 1.71536 13.5 1.38798 13.5 1.01302C13.5 0.453545 12.8284 0 12 0C11.1716 0 10.5 0.453545 10.5 1.01302C10.5 1.38798 10.8016 1.71536 11.25 1.89052V7.09115H12.75V1.89052Z" fill="#FCB716"/>
<path d="M11.25 11.3965H12.75V12.916H11.25V11.3965Z" fill="#FC9916"/>
</svg>
