<svg width="29" height="31" viewBox="0 0 29 31" fill="none" xmlns="http://www.w3.org/2000/svg">
<path d="M12.6875 0C5.68875 0 0 5.62365 0 12.5264C0 19.2076 5.33411 24.6883 12.0216 25.0385C11.9493 24.574 11.9131 24.1095 11.9131 23.6379C11.9131 23.5307 11.9203 23.4307 11.9203 23.3306C6.23157 22.9376 1.72255 18.2429 1.72255 12.5264C1.72255 6.55259 6.65135 1.69353 12.6947 1.69353C18.7381 1.69353 23.6597 6.54544 23.6597 12.5192C23.6597 13.2195 23.5873 13.9126 23.457 14.5915C24.0216 14.7201 24.5716 14.9059 25.1 15.1345C25.2809 14.2771 25.375 13.4053 25.375 12.5264C25.375 5.6165 19.6863 0 12.6875 0Z" fill="#01475B"/>
<path fill-rule="evenodd" clip-rule="evenodd" d="M22.2983 15.5847C23.249 15.7187 24.1712 16.0362 25.0075 16.5018C28.7818 18.6042 30.1185 23.3382 27.9812 27.0632C26.5944 29.4972 23.9781 31 21.1474 31C17.5447 31.007 14.3995 28.5871 13.5274 25.1302C13.3701 24.5164 13.2915 23.8814 13.2915 23.2465C13.2915 22.9501 13.3058 22.6538 13.3487 22.3575V22.3505C13.8062 18.442 17.1587 15.493 21.1474 15.5C21.5334 15.5 21.9195 15.5282 22.2983 15.5847ZM23.9138 21.0241H22.9703C22.8773 20.6996 22.7415 20.3892 22.57 20.107H23.9138C24.307 20.114 24.6287 19.7966 24.6287 19.4085C24.6287 19.0205 24.307 18.703 23.9138 18.703H18.3739C17.9808 18.703 17.6591 19.0205 17.6591 19.4085C17.6591 19.7966 17.9808 20.114 18.3739 20.114H19.9609C20.6185 20.114 21.1975 20.5373 21.462 21.0312H18.3739C17.9808 21.0312 17.6591 21.3487 17.6591 21.7367C17.6591 22.1247 17.9808 22.4422 18.3739 22.4422H21.462C21.3905 22.6256 21.2833 22.7879 21.1403 22.9219C20.8329 23.2394 20.4112 23.4229 19.9609 23.4299H18.3739C17.9879 23.4229 17.6663 23.7262 17.6591 24.1072C17.652 24.3047 17.7378 24.4952 17.8807 24.6293L21.8409 28.3261C22.1268 28.5942 22.5843 28.5801 22.8559 28.2979C23.1275 28.0157 23.1132 27.5642 22.8273 27.2961L20.161 24.8056C20.9116 24.7563 21.6193 24.4317 22.1411 23.9026C22.5485 23.5005 22.8345 22.9925 22.9631 22.4351H23.9138C24.307 22.4351 24.6287 22.1177 24.6287 21.7296C24.6287 21.3416 24.307 21.0241 23.9138 21.0241Z" fill="#01475B"/>
<path d="M11.266 15.992V12.824H8.322V11.4H11.266V8.232H12.834V11.4H15.778V12.824H12.834V15.992H11.266Z" fill="#02475B"/>
</svg>
