<svg width="1440" height="800" viewBox="0 0 1440 800" fill="none" xmlns="http://www.w3.org/2000/svg">
<g clip-path="url(#clip0)">
<path d="M1440 0H0V810.8H1440V0Z" fill="#A2B6BC"/>
<path d="M732 733.3C909.449 733.3 1053.3 589.449 1053.3 412C1053.3 234.551 909.449 90.7 732 90.7C554.551 90.7 410.7 234.551 410.7 412C410.7 589.449 554.551 733.3 732 733.3Z" stroke="#02475B" stroke-width="9" stroke-miterlimit="10"/>
<path d="M734.2 365.9C804.727 365.9 861.9 308.727 861.9 238.2C861.9 167.673 804.727 110.5 734.2 110.5C663.673 110.5 606.5 167.673 606.5 238.2C606.5 308.727 663.673 365.9 734.2 365.9Z" fill="#02475B"/>
<path d="M734.2 714.8C627.8 714.8 533.7 660.3 478.8 577.8C480.1 493.1 649 446.7 734.2 446.7C818.9 446.7 988.3 493.1 989.6 577.8C934.6 660.4 840.6 714.8 734.2 714.8Z" fill="#02475B"/>
</g>
<defs>
<clipPath id="clip0">
<rect width="1440" height="800" fill="white"/>
</clipPath>
</defs>
</svg>
