<svg xmlns="http://www.w3.org/2000/svg" width="21" height="23" viewBox="0 0 21 23">
    <g fill="#02475B">
        <path d="M11.482 7.975c-.93-.015-1.848.186-2.68.586-.882.394-1.55 1.13-1.839 2.026-.288.896-.172 1.87.322 2.677h6.182c-.987-1.488-.648-3.457.784-4.556-.845-.465-1.797-.717-2.77-.733zm-.564.93c.07-.002.138.025.189.073.05.048.078.114.077.182.001.091-.049.176-.13.222-.082.046-.182.046-.264 0-.081-.046-.13-.13-.13-.222-.001-.139.114-.253.258-.256zm1.098.426c.07-.002.14.024.19.072.05.048.08.113.079.182-.004.137-.12.246-.262.246-.142 0-.258-.11-.262-.246 0-.138.113-.25.255-.254zm-.926.585c.076-.004.149.023.202.075.053.052.08.123.075.196.008.095-.04.187-.124.237-.084.05-.19.05-.275 0-.084-.05-.132-.142-.123-.237-.005-.068.018-.134.064-.185.046-.051.111-.082.181-.086zM17.928 5.955c-.714.497-1.245 1.2-1.519 2.008.144-.002.287.004.43.019.255-.685.718-1.278 1.33-1.703.06-.042.092-.111.085-.182-.007-.071-.053-.133-.12-.162-.068-.03-.147-.022-.206.02zM7.279 20.41h5.87c3.887 0 7.07-2.99 7.181-6.748H.097c.111 3.758 3.294 6.749 7.182 6.749zM12.456 22.024L11.956 20.809 8.471 20.809 7.972 22.024zM7.72.624c.003-.026-.006-.053-.026-.07-.02-.02-.048-.027-.075-.023-1.383.222-2.471 1.261-2.717 2.595-.467-.322-1.033-.482-1.605-.452-.109.012-.19.104-.183.209.006.105.096.188.206.188.928-.048 1.779.497 2.096 1.341.137-.027.276-.045.416-.054-.127-.38-.349-.724-.646-1.002C6.54 3.05 7.552 1.96 7.72.624z"/>
        <path d="M17.573 9.641c.088-.069.217-.057.29.027.072.084.06.21-.026.28-.755.605-1.847.614-2.612.02-.062-.042-.096-.115-.086-.188.01-.074.062-.136.134-.161.072-.026.152-.01.209.04.232.179.51.295.803.335-.11-.539-.103-1.093.02-1.63-1.169.061-2.206.743-2.694 1.77-.489 1.029-.347 2.234.366 3.13h4.99c.705-.885.853-2.071.385-3.092-.468-1.021-1.476-1.713-2.627-1.802-.135.534-.141 1.092-.019 1.63.319-.036.62-.16.866-.359h.001zM7.223 9.272c-.93 1.14-1.089 2.699-.407 3.992H1.48c-.57-.316-.947-.88-1.01-1.513-.062-.633.197-1.256.696-1.67.726-.574 1.354-1.254 1.86-2.018.24-.36.397-.767.461-1.191.158-1.037.971-1.866 2.033-2.073.022.138.029.279.02.419 0 .106.086.194.195.2.11.005.205-.073.216-.178.01-.163.002-.326-.023-.486.461 0 .889.232 1.13.612.241.38.262.853.055 1.251-.44.844-.4 1.847.108 2.655h.002z"/>
    </g>
</svg>
