<svg xmlns="http://www.w3.org/2000/svg" width="16" height="28" viewBox="0 0 16 28">
    <g fill="#02475B">
        <path d="M12.02 12.28c-.41 0-.818-.108-1.183-.31-1.158-.644-1.664-2.106-1.224-3.383.023-.8.15-1.902.564-3.07.468-1.316 1.286-2.714 2.76-3.922.364-.299.433-.857.154-1.247-.279-.39-.8-.463-1.165-.165-1.738 1.421-2.748 3.13-3.303 4.705-.558 1.578-.676 3.022-.677 3.988 0 .393.02.707.04.92L.144 25.928c-.327.674-.082 1.503.547 1.853.63.35 1.405.088 1.733-.586l3.871-7.966c.084.294.26.559.517.74l3.355 2.365.769 4.538c.111.658.647 1.119 1.25 1.119.076 0 .152-.007.229-.022.691-.134 1.15-.842 1.025-1.582l-.865-5.111c-.063-.368-.26-.688-.552-.894L9.9 18.886l2.78-5.72c.2.146.422.32.632.513.282.257.542.548.711.823.173.277.245.517.243.702 0 .116-.021.226-.09.372-.104.215-.345.518-.838.857-.49.338-1.22.702-2.238 1.055-.437.151-.676.653-.534 1.12.114.375.44.614.79.614.085 0 .172-.014.257-.043 1.482-.517 2.508-1.073 3.219-1.72.354-.324.63-.677.817-1.061.188-.383.28-.798.28-1.194-.002-.697-.262-1.293-.58-1.78-.485-.73-1.128-1.276-1.656-1.67-.029-.022-.057-.043-.086-.063-.444.375-1 .588-1.589.588z"/>
        <ellipse cx="12.021" cy="9.534" rx="2.466" ry="2.373" transform="rotate(-62.536 12.02 9.534)"/>
    </g>
</svg>
