<svg xmlns="http://www.w3.org/2000/svg" width="20" height="20" viewBox="0 0 20 20">
    <g fill="none">
        <path d="M0 0H20V20H0z"/>
        <path fill="#658F9B" d="M15 15.531V16H5v-.469c0-.155.12-.281.268-.281h.446V6.812c0-.31.24-.562.536-.562h1.964V4.562c0-.31.24-.562.536-.562h2.5c.296 0 .536.252.536.563V6.25h1.964c.296 0 .536.252.536.563v8.437h.446c.148 0 .268.126.268.281zM11.875 8.5h-.893c-.148 0-.268.126-.268.281v.938c0 .155.12.281.268.281h.893c.148 0 .268-.126.268-.281V8.78c0-.155-.12-.281-.268-.281zM8.125 10h.893c.148 0 .268-.126.268-.281V8.78c0-.155-.12-.281-.268-.281h-.893c-.148 0-.268.126-.268.281v.938c0 .155.12.281.268.281zm2.321 3h-.892c-.148 0-.268.126-.268.281v1.969h1.428v-1.969c0-.155-.12-.281-.268-.281zm1.429-2.25h-.893c-.148 0-.268.126-.268.281v.938c0 .155.12.281.268.281h.893c.148 0 .268-.126.268-.281v-.938c0-.155-.12-.281-.268-.281zm-2.59.281c0-.155-.12-.281-.267-.281h-.893c-.148 0-.268.126-.268.281v.938c0 .155.12.281.268.281h.893c.148 0 .268-.126.268-.281v-.938zM9.063 6.25h.58v.61c0 .077.06.14.135.14h.446c.074 0 .134-.063.134-.14v-.61h.58c.074 0 .134-.063.134-.14v-.47c0-.077-.06-.14-.133-.14h-.58v-.61c0-.077-.06-.14-.135-.14h-.446c-.074 0-.134.063-.134.14v.61h-.58c-.074 0-.134.063-.134.14v.47c0 .077.06.14.133.14z"/>
    </g>
</svg>
