<svg xmlns="http://www.w3.org/2000/svg" width="49" height="49" viewBox="0 0 49 49">
    <g fill="#E02020">
        <path d="M24.5 0C10.958 0 0 10.959 0 24.5 0 38.042 10.959 49 24.5 49 38.042 49 49 38.041 49 24.5 49 10.958 38.041 0 24.5 0zm0 45.172c-11.426 0-20.672-9.246-20.672-20.672S13.074 3.828 24.5 3.828 45.172 13.074 45.172 24.5 35.926 45.172 24.5 45.172z"/>
        <path stroke="#E02020" stroke-width="1.5" d="M26.65 25l7.008-7.01c.456-.455.456-1.192 0-1.648-.456-.456-1.193-.456-1.65 0L25 23.352l-7.009-7.01c-.456-.456-1.193-.456-1.649 0-.456.456-.456 1.193 0 1.649L23.351 25l-7.009 7.008c-.456.456-.456 1.193 0 1.65.227.227.526.341.825.341.298 0 .597-.114.824-.342L25 26.65l7.009 7.01c.227.227.526.341.824.341.299 0 .597-.114.825-.342.456-.456.456-1.193 0-1.649L26.649 25z"/>
    </g>
</svg>
