<svg width="344" height="173" viewBox="0 0 344 173" fill="none" xmlns="http://www.w3.org/2000/svg">
<path d="M151.39 160.439H150.33C143.531 160.439 138 154.908 138 148.109C138 141.31 143.531 135.778 150.33 135.778H158.699V127.817H163.721V135.778H182.021C186.817 135.778 190.796 132.807 191.923 128.386L196.789 129.626C195.086 136.309 189.151 140.8 182.021 140.8H163.721V148.109C163.721 154.908 158.189 160.439 151.39 160.439ZM150.33 140.8C146.3 140.8 143.021 144.078 143.021 148.109C143.021 152.139 146.3 155.418 150.33 155.418H151.39C155.42 155.418 158.699 152.139 158.699 148.109V140.8H150.33Z" fill="#0065A3"/>
<path d="M191.923 128.386C190.796 132.807 186.817 135.778 182.021 135.778H163.721V127.817H161.098V155.697C162.739 153.603 163.721 150.969 163.721 148.108V140.799H182.021C189.151 140.799 195.085 136.309 196.789 129.626L191.923 128.386Z" fill="#00317E"/>
<path d="M194.854 129.027C198.305 129.027 201.102 126.229 201.102 122.778C201.102 119.327 198.305 116.529 194.854 116.529C191.402 116.529 188.605 119.327 188.605 122.778C188.605 126.229 191.402 129.027 194.854 129.027Z" fill="#00317E"/>
<path d="M194.854 131.538C190.024 131.538 186.094 127.608 186.094 122.778C186.094 117.948 190.024 114.019 194.854 114.019C199.684 114.019 203.613 117.948 203.613 122.778C203.613 127.608 199.684 131.538 194.854 131.538ZM194.854 119.04C192.792 119.04 191.115 120.717 191.115 122.778C191.115 124.839 192.792 126.516 194.854 126.516C196.915 126.516 198.592 124.839 198.592 122.778C198.592 120.717 196.915 119.04 194.854 119.04Z" fill="#8A8AA9"/>
<path d="M161.099 130.328C148.731 130.328 138.67 120.266 138.67 107.899V85.8197C138.67 81.3765 142.284 77.7618 146.727 77.7618H149.163V82.7832H146.727C145.053 82.7832 143.691 84.1453 143.691 85.8197V107.899C143.691 117.497 151.5 125.306 161.099 125.306C170.697 125.306 178.506 117.497 178.506 107.899V86.1226C178.506 84.4485 177.144 83.0863 175.47 83.0863H172.987V78.0649H175.47C179.913 78.0649 183.528 81.6797 183.528 86.1226V107.899C183.528 120.266 173.466 130.328 161.099 130.328Z" fill="#BDBDD2"/>
<path d="M175.47 78.0651H172.987V83.0865H175.47C177.144 83.0865 178.506 84.4486 178.506 86.1228V107.899C178.506 117.498 170.697 125.307 161.098 125.307V130.328C173.466 130.328 183.527 120.266 183.527 107.899V86.1228C183.528 81.6797 179.913 78.0651 175.47 78.0651Z" fill="#ABABC5"/>
<path d="M169.082 75C166.174 75 163.809 77.3653 163.809 80.2725C163.809 83.1797 166.174 85.545 169.082 85.545H174.242V75H169.082Z" fill="#00317E"/>
<path d="M153.069 75H147.908V85.545H153.069C155.976 85.545 158.341 83.1797 158.341 80.2725C158.341 77.3653 155.976 75 153.069 75Z" fill="#0065A3"/>
<g filter="url(#filter0_d)">
<path d="M71.396 136.844V113.28H24.096V88.684L80.168 16.788H98.916V88.512H114.052V113.28H98.916V136.844H71.396ZM51.272 88.512H74.664V58.068L51.272 88.512Z" fill="url(#paint0_linear)"/>
<path d="M218.134 64.604C218.134 72.172 216.987 79.1667 214.694 85.588C212.4 91.8947 209.247 97.3987 205.234 102.1C201.22 106.687 196.462 110.299 190.958 112.936C185.568 115.459 179.663 116.72 173.242 116.72C166.82 116.72 160.858 115.459 155.354 112.936C149.85 110.299 145.091 106.687 141.078 102.1C137.064 97.3987 133.911 91.8947 131.618 85.588C129.439 79.1667 128.35 72.172 128.35 64.604C128.35 57.036 129.439 50.0987 131.618 43.792C133.911 37.3707 137.064 31.8667 141.078 27.28C145.091 22.5787 149.85 18.9093 155.354 16.272C160.858 13.6347 166.82 12.316 173.242 12.316C179.663 12.316 185.568 13.6347 190.958 16.272C196.462 18.9093 201.22 22.5787 205.234 27.28C209.247 31.8667 212.4 37.3707 214.694 43.792C216.987 50.0987 218.134 57.036 218.134 64.604ZM190.442 64.604C190.442 56.5773 188.836 50.0987 185.626 45.168C182.415 40.1227 178.287 37.6 173.242 37.6C167.967 37.6 163.724 40.1227 160.514 45.168C157.418 50.0987 155.87 56.5773 155.87 64.604C155.87 72.6307 157.418 79.1093 160.514 84.04C163.724 88.9707 167.967 91.436 173.242 91.436C178.287 91.436 182.415 88.9707 185.626 84.04C188.836 79.1093 190.442 72.6307 190.442 64.604Z" fill="url(#paint1_linear)"/>
<path d="M276.486 136.844V113.28H229.186V88.684L285.258 16.788H304.006V88.512H319.142V113.28H304.006V136.844H276.486ZM256.362 88.512H279.754V58.068L256.362 88.512Z" fill="url(#paint2_linear)"/>
</g>
<path d="M138.669 85.8197V107.899H143.691V85.8197C143.691 84.1453 145.053 82.7832 146.727 82.7832H149.163V77.7618H146.727C142.284 77.7618 138.669 81.3765 138.669 85.8197Z" fill="#B6B6CA"/>
<path d="M153.069 75H147.908V85.545H153.069C155.976 85.545 158.341 83.1797 158.341 80.2725C158.341 77.3653 155.976 75 153.069 75Z" fill="#00317C"/>
<defs>
<filter id="filter0_d" x="0.0960083" y="0.315994" width="343.046" height="172.528" filterUnits="userSpaceOnUse" color-interpolation-filters="sRGB">
<feFlood flood-opacity="0" result="BackgroundImageFix"/>
<feColorMatrix in="SourceAlpha" type="matrix" values="0 0 0 0 0 0 0 0 0 0 0 0 0 0 0 0 0 0 127 0"/>
<feOffset dy="12"/>
<feGaussianBlur stdDeviation="12"/>
<feColorMatrix type="matrix" values="0 0 0 0 0 0 0 0 0 0 0 0 0 0 0 0 0 0 0.1 0"/>
<feBlend mode="normal" in2="BackgroundImageFix" result="effect1_dropShadow"/>
<feBlend mode="normal" in="SourceGraphic" in2="effect1_dropShadow" result="shape"/>
</filter>
<linearGradient id="paint0_linear" x1="76" y1="28" x2="319" y2="150" gradientUnits="userSpaceOnUse">
<stop stop-color="#005F83"/>
<stop offset="1" stop-color="#5FD3FF"/>
</linearGradient>
<linearGradient id="paint1_linear" x1="76" y1="28" x2="319" y2="150" gradientUnits="userSpaceOnUse">
<stop stop-color="#005F83"/>
<stop offset="1" stop-color="#5FD3FF"/>
</linearGradient>
<linearGradient id="paint2_linear" x1="76" y1="28" x2="319" y2="150" gradientUnits="userSpaceOnUse">
<stop stop-color="#005F83"/>
<stop offset="1" stop-color="#5FD3FF"/>
</linearGradient>
</defs>
</svg>
