<svg xmlns="http://www.w3.org/2000/svg" width="20" height="18" viewBox="0 0 20 18">
    <g fill="#E3E3E3">
        <path d="M0 0v18h20V0H0zm15.78 1.059c.358 0 .649.296.649.662 0 .365-.291.661-.65.661-.358 0-.65-.296-.65-.661 0-.366.292-.662.65-.662zm2.402 15.088H1.818V3.441h16.364v12.706zm-.325-13.765c-.36 0-.65-.296-.65-.661 0-.366.29-.662.65-.662.359 0 .65.296.65.662 0 .365-.291.661-.65.661z"/>
        <path d="M12.538 6.27l-.536.121c-.02.453.084.897.291 1.286l.537-.122c.128.203.295.382.49.529l-.163.526c.184.117.385.214.602.282.219.067.438.1.656.108l.164-.527c.244-.01.482-.064.702-.158l.375.404c.39-.204.725-.511.965-.896l-.373-.404c.055-.105.103-.217.14-.334.035-.118.059-.236.073-.355l.537-.122c.019-.453-.084-.896-.291-1.285l-.538.122c-.128-.203-.293-.382-.49-.529l.163-.526c-.183-.117-.383-.214-.601-.282-.218-.068-.439-.1-.656-.108l-.163.527c-.245.01-.483.064-.703.159l-.374-.405c-.392.204-.727.51-.967.896l.374.404c-.055.105-.103.216-.14.334-.036.117-.06.236-.074.354zm1.256.01c.121-.389.535-.607.925-.487s.608.536.487.925c-.12.39-.535.609-.925.488-.39-.12-.608-.535-.487-.925zM7 12c.551 0 1-.449 1-1 0-.552-.449-1-1-1-.551 0-1 .448-1 1 0 .551.449 1 1 1z"/>
        <path d="M3.237 12.36l.662-.08c.101.247.232.483.394.703l-.413.524c.189.234.404.45.646.64.241.19.5.35.773.479l.413-.525c.25.105.51.177.774.218l.078.658c.61.066 1.224-.012 1.793-.218l-.078-.654c.246-.102.482-.233.702-.394l.522.411c.235-.188.45-.403.64-.645.191-.243.35-.503.478-.775l-.523-.412c.104-.251.176-.511.217-.775l.662-.08c.032-.298.031-.603-.005-.91-.036-.306-.108-.602-.209-.885l-.662.08c-.101-.247-.232-.483-.393-.703l.412-.524c-.189-.234-.404-.45-.646-.64-.24-.19-.5-.35-.773-.479l-.413.525c-.251-.105-.51-.177-.773-.218l-.078-.658c-.61-.066-1.224.012-1.794.218l.078.654c-.246.102-.482.233-.702.394l-.521-.411c-.235.188-.45.403-.641.645-.19.243-.35.502-.478.775l.524.412c-.105.251-.177.511-.218.775l-.661.079c-.033.299-.032.604.004.91.037.306.108.602.21.886zM7 9.308c.934 0 1.69.758 1.69 1.692 0 .934-.756 1.692-1.69 1.692-.933 0-1.69-.758-1.69-1.692 0-.934.757-1.692 1.69-1.692z"/>
    </g>
</svg>
