<svg xmlns="http://www.w3.org/2000/svg" width="48" height="48" viewBox="0 0 48 48">
    <g fill="none" fill-rule="evenodd" transform="rotate(-90 24 24)">
        <circle cx="24" cy="24" r="24" fill="#02475B"/>
        <g>
            <path d="M0 0L36 0 36 24 0 24z" transform="matrix(-1 0 0 1 43 12)"/>
            <path fill="#FFF" stroke="#FFF" stroke-width=".5" d="M7 13h19.17l-4.88 4.88c-.39.39-.39 1.03 0 1.42.39.39 1.02.39 1.41 0l6.59-6.59c.39-.39.39-1.02 0-1.41l-6.58-6.6c-.39-.39-1.02-.39-1.41 0-.39.39-.39 1.02 0 1.41L26.17 11H7c-.55 0-1 .45-1 1s.45 1 1 1z" transform="matrix(-1 0 0 1 43 12)"/>
        </g>
    </g>
</svg>
