<svg xmlns="http://www.w3.org/2000/svg" width="40" height="40" viewBox="0 0 40 40">
    <g fill="none" fill-rule="evenodd">
        <path d="M0 0H40V40H0z"/>
        <path fill="#F3CFA9" d="M20.655 0c2.25 0 4.074 1.824 4.074 4.074s-1.824 4.074-4.074 4.074-4.074-1.824-4.074-4.074S18.405 0 20.655 0M35.926 15.27c2.25 0 4.074 1.825 4.074 4.075s-1.824 4.074-4.074 4.074-4.074-1.824-4.074-4.074 1.824-4.074 4.074-4.074"/>
        <path fill="#38648C" d="M7.85 24.302c4.334 0 7.848 3.514 7.848 7.849 0 4.335-3.514 7.849-7.849 7.849C3.514 40 0 36.486 0 32.15c0-4.334 3.514-7.848 7.85-7.848"/>
        <path fill="#F5D7B7" d="M19.694 3.666c4.698-4.698 12.23-4.78 16.826-.187 4.595 4.595 4.51 12.128-.186 16.827-4.698 4.697-12.231 4.781-16.826.185-4.595-4.595-4.512-12.128.186-16.825"/>
        <g fill="#F28B74">
            <path d="M1.27 1.167c.745-.745 2.106-.59 3.041.345.936.934 1.09 2.297.346 3.041-.745.745-2.107.59-3.042-.345-.934-.935-1.09-2.297-.345-3.04M13.834 13.73c-.745.745-2.107.59-3.041-.345-.935-.934-1.09-2.296-.345-3.041.745-.744 2.105-.59 3.04.345.936.936 1.09 2.297.346 3.04" transform="translate(20 5)"/>
        </g>
        <path fill="#495059" d="M26.223 8.772c-.15 0-.3-.058-.414-.172-.229-.228-.229-.6 0-.83.104-.103.162-.242.162-.39 0-.148-.058-.287-.162-.391-.105-.106-.244-.162-.392-.162-.148 0-.287.056-.39.162-.23.228-.6.228-.83 0-.229-.23-.229-.601 0-.83.326-.325.76-.504 1.22-.504.461 0 .894.179 1.221.505.325.326.505.759.505 1.219 0 .46-.18.895-.505 1.22-.115.115-.265.173-.415.173M33.426 15.975c-.15 0-.3-.058-.414-.172-.229-.228-.229-.6 0-.83.104-.103.162-.242.162-.39 0-.148-.058-.287-.162-.391-.216-.217-.567-.217-.783 0-.229.228-.6.228-.829 0-.229-.23-.229-.601 0-.83.673-.672 1.768-.672 2.441 0 .325.327.505.76.505 1.22 0 .46-.18.895-.505 1.22-.115.115-.265.173-.415.173M27.379 14.81c-.58 0-1.136-.23-1.548-.641-.448-.447-.68-1.066-.636-1.698.022-.323.303-.567.625-.545.323.023.566.302.544.625-.02.294.088.582.296.79.207.207.495.315.789.295.323-.021.603.222.625.544.022.323-.221.603-.545.625-.05.004-.1.005-.15.005"/>
        <path fill="#59A5E6" d="M10.17 17.255c4.791.058 15.617 1.198 21.85 4.452.972.508 1.412 1.657 1.027 2.685-.978 2.604-3.558 6.453-5.919 8.768-1.194 1.171-2.833 1.781-4.502 1.686-6.587-.374-21.122-3.72-22.18-5.889-1.076-2.202 2.303-7.869 6.341-10.677.991-.688 2.176-1.04 3.383-1.025"/>
        <path fill="#76B7EB" d="M22.745 29.83c-.057-4.79-1.198-15.617-4.451-21.85-.508-.973-1.658-1.413-2.686-1.027-2.604.978-6.453 3.557-8.768 5.92-1.171 1.192-1.781 2.831-1.685 4.5.374 6.588 3.72 21.122 5.888 22.182 2.202 1.075 7.869-2.304 10.677-6.343.689-.99 1.04-2.176 1.025-3.383"/>
    </g>
</svg>
