<svg xmlns="http://www.w3.org/2000/svg" xmlns:xlink="http://www.w3.org/1999/xlink" width="40" height="40" viewBox="0 0 40 40">
    <defs>
        <path id="prefix__a" d="M0 0.055L40 0.055 40 38 0 38z"/>
    </defs>
    <g fill="none" fill-rule="evenodd">
        <path d="M0 0H40V40H0z"/>
        <path fill="#FFB92E" d="M9.155 13.306c.775.776 1.298 1.679 1.54 2.556.318 1.147.153 2.251-.56 2.963-1.251 1.252-3.721.812-5.516-.983-1.492-1.492-2.048-3.451-1.473-4.788.116-.271.28-.518.49-.73 1.254-1.252 3.724-.813 5.519.982"/>
        <path fill="#FFD62C" d="M9.155 13.306c.775.776 1.298 1.679 1.54 2.556-.116.27-.28.516-.49.728-1.253 1.253-3.724.813-5.52-.982-.774-.777-1.297-1.678-1.54-2.555.117-.27.28-.518.492-.729 1.253-1.252 3.723-.813 5.518.982"/>
        <path fill="#FFB92E" d="M35.382 17.842c-.776.776-1.679 1.299-2.555 1.54-1.148.319-2.252.154-2.964-.558-1.252-1.252-.812-3.723.983-5.518 1.492-1.491 3.451-2.047 4.788-1.472.272.116.518.279.73.49 1.252 1.254.812 3.723-.982 5.518"/>
        <path fill="#FFD62C" d="M35.382 17.842c-.776.776-1.679 1.299-2.555 1.54-.27-.116-.517-.278-.729-.49-1.253-1.253-.813-3.723.982-5.518.777-.776 1.678-1.298 2.554-1.54.272.116.518.279.73.49 1.252 1.254.812 3.723-.982 5.518"/>
        <g transform="translate(0 .945)">
            <mask id="prefix__b" fill="#fff">
                <use xlink:href="#prefix__a"/>
            </mask>
            <path fill="#FF648D" d="M39.262 10.068c-.584 1.124-1.432 2.148-2.226 3.002-.367.394-1.025.108-.988-.43.027-.407-.37-.712-.756-.58l-1.193.41c-.328.115-.682-.09-.746-.432l-.002-.008c-.121-.635.128-1.283.64-1.68 1.331-1.03 3.633-3.133 2.28-4.486-1.85-1.85-5.914-1.178-5.914 2.247 0 1.975-.915 3.783-2.433 5.185-1.85 1.85-3.489 5.226-2.421 7.855 1.065 2.62 6.125 7.197-3.34 16.737-.711.075-1.432.113-2.163.113-.73 0-1.453-.038-2.164-.114-9.464-9.54-4.403-14.115-3.34-16.736 1.07-2.63-.57-6.005-2.421-7.855-1.517-1.402-2.431-3.21-2.431-5.185 0-3.426-4.065-4.097-5.914-2.247-1.354 1.353.948 3.457 2.279 4.486.512.397.761 1.045.64 1.68l-.001.008c-.066.342-.419.547-.747.433l-1.193-.41c-.386-.133-.783.172-.756.58.037.537-.621.823-.988.429-.794-.854-1.641-1.878-2.225-3.002-1.004-1.928-1.232-4.146.909-6.286 1.509-1.51 3.126-1.864 4.707-1.82 2.609.07 5.118 1.223 6.867.058C15.038.797 17.408.055 20 .055c2.592 0 4.961.742 6.778 1.965 1.749 1.166 4.257.01 6.868-.058 1.581-.044 3.198.31 4.707 1.82 2.14 2.14 1.911 4.358.909 6.286" mask="url(#prefix__b)"/>
        </g>
        <path fill="#EA2F69" d="M27.858 7.714c-1.526 1.04-5.066 4.196-5.066 11.095 0 3.628.674 5.424 1.465 6.28 1.044 1.13 1.325 2.768.65 4.149-1.451 2.967-3.303 7.09-3.766 9.676-.378.022-.758.03-1.14.03-.383 0-.763-.008-1.141-.03-.463-2.586-2.315-6.71-3.766-9.676-.675-1.381-.394-3.018.65-4.148.79-.857 1.466-2.653 1.466-6.281 0-6.9-3.541-10.054-5.068-11.095-.413-.282-.625-.778-.543-1.272v-.01c.135-.802.97-1.28 1.73-.99C14.942 6.06 17.625 6.92 20 6.92c2.375 0 5.058-.861 6.67-1.477.76-.29 1.596.187 1.73.989v.01c.083.494-.13.99-.543 1.272"/>
        <path fill="#FF648D" d="M22.836 28.343h-5.672c-.408 0-.739.33-.739.739s.331.74.74.74h5.671c.408 0 .74-.331.74-.74 0-.408-.332-.74-.74-.74M22.836 25.549h-5.672c-.408 0-.739.33-.739.739 0 .408.331.74.74.74h5.671c.408 0 .74-.332.74-.74s-.332-.74-.74-.74M22.836 8.62h-5.672c-.408 0-.739.331-.739.739s.331.74.74.74h5.671c.408 0 .74-.332.74-.74s-.332-.739-.74-.739"/>
    </g>
</svg>
