<svg xmlns="http://www.w3.org/2000/svg" width="40" height="40" viewBox="0 0 40 40">
    <g fill="none" fill-rule="evenodd">
        <path d="M0 0H40V40H0z"/>
        <g>
            <path fill="#F9C795" d="M38.667 18.009h-9.951c-.222 0-.428.11-.552.294-.123.184-.147.416-.064.621 1.372 3.608.192 7.69-2.894 10.01-3.086 2.319-7.333 2.317-10.418-.004-3.085-2.32-4.263-6.401-2.89-10.01.082-.204.058-.434-.064-.617-.123-.183-.327-.293-.547-.294H1.334c-.368 0-.667.297-.667.665v17.334c0 .368.299.666.667.666h37.333c.368 0 .667-.297.667-.666V18.674c0-.367-.3-.665-.667-.665" transform="translate(0 2)"/>
            <path fill="#805333" d="M16.155 18.32c-1.937 2.016-1.987 5.186-.115 7.263 1.871 2.077 5.028 2.356 7.235.64 2.207-1.717 2.715-4.845 1.163-7.17-1.456-2.078-2.106-4.613-1.829-7.134.396-3.72 1.357-7.357 2.848-10.787.138-.3.035-.659-.243-.839-.278-.18-.647-.129-.865.121-2.083 2.414-4.498 6.515-5.655 13.14-.352 1.806-1.236 3.465-2.539 4.765" transform="translate(0 2)"/>
            <path fill="#CB8252" d="M4 21.342c.368 0 .667.299.667.667 0 .368-.3.666-.667.666-.368 0-.666-.298-.666-.666 0-.368.298-.667.666-.667M8 21.342c.368 0 .667.299.667.667 0 .368-.3.666-.667.666-.368 0-.666-.298-.666-.666 0-.368.298-.667.666-.667M2 24.009c.368 0 .667.297.667.665 0 .369-.3.668-.667.668-.368 0-.666-.3-.666-.668 0-.367.298-.665.666-.665M6 24.009c.368 0 .667.297.667.665 0 .369-.3.668-.667.668-.368 0-.666-.3-.666-.668 0-.367.298-.665.666-.665M4 26.675c.368 0 .667.299.667.667 0 .368-.3.667-.667.667-.368 0-.666-.3-.666-.667 0-.368.298-.667.666-.667M8 26.675c.368 0 .667.299.667.667 0 .368-.3.667-.667.667-.368 0-.666-.3-.666-.667 0-.368.298-.667.666-.667M2 29.342c.368 0 .667.299.667.667 0 .368-.3.666-.667.666-.368 0-.666-.298-.666-.666 0-.368.298-.667.666-.667M6 29.342c.368 0 .667.299.667.667 0 .368-.3.666-.667.666-.368 0-.666-.298-.666-.666 0-.368.298-.667.666-.667M10 29.342c.368 0 .667.299.667.667 0 .368-.3.666-.667.666-.368 0-.666-.298-.666-.666 0-.368.298-.667.666-.667M4 32.008c.368 0 .667.298.667.666 0 .368-.3.668-.667.668-.368 0-.666-.3-.666-.667 0-.368.298-.666.666-.666M8 32.008c.368 0 .667.298.667.666 0 .368-.3.668-.667.668-.368 0-.666-.3-.666-.667 0-.368.298-.666.666-.666M12 32.008c.368 0 .667.298.667.666 0 .368-.3.668-.667.668-.368 0-.666-.3-.666-.667 0-.368.298-.666.666-.666M16 32.008c.368 0 .667.298.667.666 0 .368-.3.668-.667.668-.368 0-.666-.3-.666-.667 0-.368.298-.666.666-.666M20 32.008c.368 0 .667.298.667.666 0 .368-.3.668-.667.668-.368 0-.666-.3-.666-.667 0-.368.298-.666.666-.666M36 21.342c.368 0 .667.299.667.667 0 .368-.3.666-.667.666-.368 0-.666-.298-.666-.666 0-.368.298-.667.666-.667M32 21.342c.368 0 .667.299.667.667 0 .368-.3.666-.667.666-.368 0-.666-.298-.666-.666 0-.368.298-.667.666-.667M38 24.009c.368 0 .667.297.667.665 0 .369-.3.668-.667.668-.368 0-.666-.3-.666-.668 0-.367.298-.665.666-.665M34 24.009c.368 0 .667.297.667.665 0 .369-.3.668-.667.668-.368 0-.666-.3-.666-.668 0-.367.298-.665.666-.665M36 26.675c.368 0 .667.299.667.667 0 .368-.3.667-.667.667-.368 0-.666-.3-.666-.667 0-.368.298-.667.666-.667M32 26.675c.368 0 .667.299.667.667 0 .368-.3.667-.667.667-.368 0-.666-.3-.666-.667 0-.368.298-.667.666-.667M38 29.342c.368 0 .667.299.667.667 0 .368-.3.666-.667.666-.368 0-.666-.298-.666-.666 0-.368.298-.667.666-.667M34 29.342c.368 0 .667.299.667.667 0 .368-.3.666-.667.666-.368 0-.666-.298-.666-.666 0-.368.298-.667.666-.667M30 29.342c.368 0 .667.299.667.667 0 .368-.3.666-.667.666-.368 0-.666-.298-.666-.666 0-.368.298-.667.666-.667M36 32.008c.368 0 .667.298.667.666 0 .368-.3.668-.667.668-.368 0-.666-.3-.666-.667 0-.368.298-.666.666-.666M32 32.008c.368 0 .667.298.667.666 0 .368-.3.668-.667.668-.368 0-.666-.3-.666-.667 0-.368.298-.666.666-.666M28 32.008c.368 0 .667.298.667.666 0 .368-.3.668-.667.668-.368 0-.666-.3-.666-.667 0-.368.298-.666.666-.666M24 32.008c.368 0 .667.298.667.666 0 .368-.3.668-.667.668-.368 0-.666-.3-.666-.667 0-.368.298-.666.666-.666M2 34.675c.368 0 .667.299.667.667 0 .368-.3.667-.667.667-.368 0-.666-.3-.666-.667 0-.368.298-.667.666-.667M6 34.675c.368 0 .667.299.667.667 0 .368-.3.667-.667.667-.368 0-.666-.3-.666-.667 0-.368.298-.667.666-.667M10 34.675c.368 0 .667.299.667.667 0 .368-.3.667-.667.667-.368 0-.666-.3-.666-.667 0-.368.298-.667.666-.667M14 34.675c.368 0 .667.299.667.667 0 .368-.3.667-.667.667-.368 0-.666-.3-.666-.667 0-.368.298-.667.666-.667M18 34.675c.368 0 .667.299.667.667 0 .368-.3.667-.667.667-.368 0-.666-.3-.666-.667 0-.368.298-.667.666-.667M34 34.675c.368 0 .667.299.667.667 0 .368-.3.667-.667.667-.368 0-.666-.3-.666-.667 0-.368.298-.667.666-.667M38 34.675c.368 0 .667.299.667.667 0 .368-.3.667-.667.667-.368 0-.666-.3-.666-.667 0-.368.298-.667.666-.667M30 34.675c.368 0 .667.299.667.667 0 .368-.3.667-.667.667-.368 0-.666-.3-.666-.667 0-.368.298-.667.666-.667M26 34.675c.368 0 .667.299.667.667 0 .368-.3.667-.667.667-.368 0-.666-.3-.666-.667 0-.368.298-.667.666-.667M22 34.675c.368 0 .667.299.667.667 0 .368-.3.667-.667.667-.368 0-.666-.3-.666-.667 0-.368.298-.667.666-.667" transform="translate(0 2)"/>
            <path fill="#F3D55B" d="M30 9.342c-.27 0-.513-.162-.615-.411-.104-.25-.047-.536.144-.727l.666-.667c.262-.253.678-.25.935.008.258.258.26.673.009.935-.707.708-.792.862-1.14.862M26.667 12.675c-.27 0-.513-.162-.616-.411-.103-.25-.046-.536.144-.727l.667-.667c.262-.252.678-.25.935.009.257.257.26.673.008.935-.706.707-.791.86-1.138.86M30.667 12.675c-.354 0-.45-.174-1.138-.861-.253-.262-.25-.678.008-.935.257-.258.673-.261.935-.01l.667.668c.19.19.247.478.143.727-.102.249-.345.41-.615.41M27.334 9.342c-.354 0-.45-.174-1.14-.862-.251-.262-.248-.677.01-.935.257-.257.673-.261.935-.008l.666.667c.19.19.248.478.144.727-.102.249-.345.41-.615.41" transform="translate(0 2)"/>
            <path fill="#F0C419" d="M34 2.009c-.27 0-.513-.163-.615-.412-.104-.25-.047-.535.144-.727l.666-.666c.168-.174.416-.243.649-.181.233.06.415.242.476.474.06.235-.008.483-.181.65-.707.706-.792.862-1.14.862M30.667 5.342c-.27 0-.513-.162-.616-.411-.103-.25-.046-.536.144-.727l.667-.667c.262-.253.678-.25.935.008s.26.673.008.935c-.706.708-.791.862-1.138.862M34.667 5.342c-.354 0-.45-.174-1.138-.862-.253-.262-.25-.677.008-.935.257-.257.673-.261.935-.008l.667.667c.19.19.247.478.143.727-.102.249-.345.41-.615.41M31.334 2.009c-.354 0-.45-.174-1.14-.862-.251-.263-.248-.678.01-.935.257-.257.673-.261.935-.009l.666.666c.19.193.248.478.144.728-.102.248-.345.412-.615.412" transform="translate(0 2)"/>
            <path fill="#FDD7AD" d="M39.334 18.675H27.687c-.37 0-.666-.298-.666-.666 0-.368.297-.667.666-.667h11.647c.368 0 .666.299.666.667 0 .368-.298.666-.666.666M12.313 18.675H.667c-.369 0-.667-.298-.667-.666 0-.368.298-.667.667-.667h11.646c.368 0 .667.299.667.667 0 .368-.299.666-.667.666" transform="translate(0 2)"/>
            <path fill="#FDD7AD" d="M20 31.342c-3.26-.007-6.278-1.711-7.97-4.497-1.69-2.785-1.806-6.251-.307-9.145.17-.327.573-.453.899-.283.326.17.453.574.282.9-1.752 3.367-.898 7.5 2.043 9.897 2.943 2.397 7.163 2.397 10.106 0 2.942-2.396 3.796-6.53 2.044-9.896-.171-.327-.045-.73.282-.901.326-.17.728-.044.899.283 1.498 2.894 1.38 6.359-.31 9.144-1.69 2.786-4.71 4.49-7.968 4.498" transform="translate(0 2)"/>
        </g>
    </g>
</svg>
