<svg xmlns="http://www.w3.org/2000/svg" width="24" height="24" viewBox="0 0 24 24">
    <g fill="none" fill-rule="evenodd">
        <path d="M0 0L24 0 24 24 0 24z"/>
        <path fill="#0087BA" fill-rule="nonzero" d="M13.82 2c.58 0 1.133.252 1.515.696.377.436.549 1.019.465 1.594l-.843 5.811h5.275c1.434 0 2.6 1.162 2.6 2.596v3.636c0 1.027-.273 2.042-.788 2.93l-1.359 2.345c-.637 1.098-1.82 1.778-3.086 1.778h-7.25c-.139 0-.273-.042-.386-.122l-1.292-.902v.353c0 .369-.301.67-.67.67H4.696C3.208 23.386 2 22.179 2 20.69v-9.917c0-.369.302-.67.67-.67H7.8c1.886-1.296 3.098-4.248 4.172-6.86C12.282 2.485 13.007 2 13.82 2zm0 1.346c-.268 0-.507.16-.607.407-1.128 2.738-2.395 5.824-4.542 7.376v9.602l1.887 1.317h7.04c.79 0 1.527-.428 1.926-1.111l1.358-2.344c.399-.688.608-1.468.608-2.26v-3.636c0-.692-.562-1.254-1.254-1.254h-6.05c-.193 0-.382-.084-.508-.23-.126-.147-.184-.344-.155-.537l.952-6.58c.025-.192-.03-.377-.155-.524-.13-.146-.306-.226-.5-.226zm-6.49 8.097H3.342v9.246c0 .747.608 1.355 1.354 1.355H7.33v-10.6zm-1.992 1.25c.407 0 .738.33.738.738 0 .407-.33.738-.738.738s-.738-.33-.738-.738.33-.738.738-.738z"/>
    </g>
</svg>
