<svg xmlns="http://www.w3.org/2000/svg" width="85" height="69" viewBox="0 0 85 69">
    <g fill="none" fill-rule="evenodd">
        <path fill="#F0F0F0" d="M50 0c1.105 0 2 .895 2 2v28c0 1.105-.895 2-2 2H39c-1.105 0-2 .895-2 2v8l-10.7-9.054c-.722-.61-1.637-.946-2.583-.946H2c-1.105 0-2-.895-2-2V2C0 .895.895 0 2 0h48z"/>
        <rect width="30" height="4" x="8" y="7" fill="#DCDCDC" rx="2"/>
        <rect width="34" height="4" x="8" y="14" fill="#DCDCDC" rx="2"/>
        <rect width="17" height="4" x="8" y="21" fill="#DCDCDC" rx="2"/>
        <path fill="#DCDCDC" d="M2 0h3v32H2c-1.105 0-2-.895-2-2V2C0 .895.895 0 2 0z"/>
        <g transform="matrix(-1 0 0 1 85 41)">
            <path fill="#F0F0F0" d="M33.333 0c.737 0 1.334.597 1.334 1.333V20c0 .736-.597 1.333-1.334 1.333h-6.666c-1.105 0-2 .896-2 2V28l-6.76-5.72c-.723-.611-1.638-.947-2.584-.947H1.333C.597 21.333 0 20.736 0 20V1.333C0 .597.597 0 1.333 0h32z"/>
            <rect width="20" height="2.667" x="5.333" y="4.667" fill="#DCDCDC" rx="1.333"/>
            <rect width="22.667" height="2.667" x="5.333" y="9.333" fill="#DCDCDC" rx="1.333"/>
            <rect width="11.333" height="2.667" x="5.333" y="14" fill="#DCDCDC" rx="1.333"/>
            <path fill="#DCDCDC" d="M33.333 0h-2v21.333h2c.737 0 1.334-.597 1.334-1.333V1.333C34.667.597 34.07 0 33.333 0z"/>
        </g>
    </g>
</svg>
