<svg xmlns="http://www.w3.org/2000/svg" width="43" height="49" viewBox="0 0 43 49">
    <g fill="none" fill-rule="evenodd">
        <path fill="#222123" d="M9.711 4.223c-.04.714-.36 1.473-1.91 2.527-1.548 1.054-2.355 3.204-1.209 5.354 1.148 2.15.213 2.993-.722 4.68-.934 1.686-.635 3.98 1.742 5.1 2.377 1.12 13.213 2.6 14.745 1.649 3.3-2.051 1.646-4.436 1.432-6.118-.242-1.9 2.137-2.801 1.843-5.152-.368-2.932-2.423-2.483-3.525-5.076-1.033-2.428-.395-4.231-2.156-4.779C18.189 1.86 9.71 4.223 9.71 4.223" transform="matrix(-1 0 0 1 42.875 0)"/>
        <path fill="#0297CF" d="M.275 41.519c.762.774 1.3 1.298 1.61 1.573.311.275.738.61 1.28 1.009 1.946-6.825 2.089-8.635 9.123-17.074 2.298-2.756 2.94-6.564 2.94-10.166 0 0-9.38 1.078-12.468 13.901C-.327 43.585.29 41.226.275 41.52z" transform="matrix(-1 0 0 1 42.875 0)"/>
        <path fill="#EFF0EB" d="M15.215 15.698S9.882 17.33 8.354 27.831C7.96 30.537 7.02 35.316 6.537 41.85c-.17 2.29-.3 1.399-.44 4.094 2.803 1.391 5.724 2.172 8.763 2.343 3.04.17 6.261-.504 9.665-2.022-.22-3-.534-3.254-.761-5.644-.572-5.999-1.312-10.178-1.692-12.789-1.528-10.501-6.857-12.133-6.857-12.133z" transform="matrix(-1 0 0 1 42.875 0)"/>
        <path fill="#0297CF" d="M15.228 16.86s8.75 0 14.863 13.016l8.148-6.417 1.323 1.26s-6.713 11.91-10.31 11.91c-3.596 0-14.024-19.768-14.024-19.768" transform="matrix(-1 0 0 1 42.875 0)"/>
        <path fill="#FE9F9F" d="M37.824 23.57s1.873-2.306 2.456-1.955c.582.351-.738 1.273-.738 1.273s1.665-.557 2.11-1.633c.178-.682 1.246-.315.604 1.353S38.82 25 38.82 25l-.996-1.43" transform="matrix(-1 0 0 1 42.875 0)"/>
        <path fill="#0297CF" d="M12.331 18.024l-.239 30.253c-1.157-.208-2.209-.472-3.153-.79-.945-.32-1.935-.735-2.97-1.25.1-11.48.649-19.451 1.646-23.913M17.086 17.442l.054 30.969c1.286-.027 2.66-.246 4.124-.659 1.464-.413 2.637-.867 3.518-1.362l-2.465-24.058" transform="matrix(-1 0 0 1 42.875 0)"/>
        <path fill="#32252F" d="M7.116 30.233c0 .963.778 1.745 1.739 1.745.96 0 1.738-.782 1.738-1.745 0-.963-.778-1.744-1.738-1.744s-1.739.781-1.739 1.744" transform="matrix(-1 0 0 1 42.875 0)"/>
        <path fill="#D1CBC5" d="M7.696 30.233c0 .642.519 1.163 1.159 1.163s1.158-.52 1.158-1.163c0-.642-.518-1.162-1.158-1.162-.64 0-1.16.52-1.16 1.162" transform="matrix(-1 0 0 1 42.875 0)"/>
        <path fill="#32252F" d="M8.275 30.233c0 .321.26.582.58.582.32 0 .579-.26.579-.582 0-.32-.26-.581-.58-.581-.32 0-.579.26-.579.581" transform="matrix(-1 0 0 1 42.875 0)"/>
        <path fill="#EBE0D2" d="M18.956 32.77c.397.338.75.37.868.37l.04-.001-.036-.429c-.014 0-.265.007-.588-.282-.41-.366-1.055-1.353-1.231-3.939h-.463c.175 2.651.839 3.794 1.41 4.281M22.992 28.49c-.132 2.585-.616 3.572-.924 3.938-.241.289-.428.282-.44.282l-.027.429.03.001c.089 0 .352-.032.65-.37.429-.486.927-1.63 1.058-4.28h-.347" transform="matrix(-1 0 0 1 42.875 0)"/>
        <path fill="#32252F" d="M19.863 32.85c0 .16.13.29.29.29.16 0 .29-.13.29-.29 0-.16-.13-.291-.29-.291-.16 0-.29.13-.29.29M21.601 32.85c0 .16.13.29.29.29.16 0 .29-.13.29-.29 0-.16-.13-.291-.29-.291-.16 0-.29.13-.29.29M21.022 22.559l-.027-.003c.003-.798-.127-2.966-1.531-4.546-1.021-1.148-2.492-1.73-4.37-1.73-2.727 0-4.573 1.692-5.486 5.031-.756 2.762-.754 6.168-.753 8.654v.268h.559v-.268c-.002-2.452-.003-5.81.731-8.494.848-3.102 2.467-4.609 4.949-4.609 1.715 0 3.046.519 3.956 1.54 1.265 1.42 1.384 3.445 1.384 4.157h.588" transform="matrix(-1 0 0 1 42.875 0)"/>
        <path fill="#32252F" d="M22.23 23.369c-.296-.298-.796-.643-1.55-.694h-.442c-.751.039-1.28.39-1.584.694-.736.735-1.108 1.984-1.108 3.713 0 .513.015.978.041 1.407h.422c-.027-.425-.043-.89-.043-1.407 0-1.61.33-2.757.982-3.41.393-.392.885-.592 1.46-.578h.066c.576-.01 1.069.186 1.462.579.653.652.983 1.798.983 3.409 0 .517-.016.982-.043 1.407h.422c.026-.43.041-.894.041-1.407 0-1.73-.373-2.979-1.108-3.713" transform="matrix(-1 0 0 1 42.875 0)"/>
        <path fill="#FFB0B0" d="M8.275 11.047c0 .642.649 1.163 1.449 1.163s1.448-.521 1.448-1.163-.648-1.163-1.448-1.163c-.8 0-1.449.52-1.449 1.163M18.704 11.047c0 .642.65 1.163 1.449 1.163.8 0 1.448-.521 1.448-1.163s-.648-1.163-1.448-1.163c-.8 0-1.449.52-1.449 1.163" transform="matrix(-1 0 0 1 42.875 0)"/>
        <path fill="#FD8383" d="M17.546 15.698H12.33v2.616c0 1.446 1.167 2.617 2.607 2.617 1.44 0 2.608-1.171 2.608-2.617v-2.616" transform="matrix(-1 0 0 1 42.875 0)"/>
        <path fill="#FFAEAE" d="M14.938 2.907c-2.708 0-4.925 2.455-4.925 5.455v3.19c0 3 2.303 5.309 5.011 5.309 2.71 0 4.84-2.31 4.84-5.309v-3.19c0-3-2.217-5.455-4.926-5.455" transform="matrix(-1 0 0 1 42.875 0)"/>
        <path fill="#222123" d="M9.893 9.21c.09 1.208.19 1.837.858 1.837V7.525s2.058-.545 2.798-2.684c.044 1.325 3.915 4.444 6.692 2.358 2.326-1.747 1.468-5.31-1.057-6.666-1.974-1.06-5.05-.591-6.349 1.878 0 0-2.163-.59-3.344 1.147-1.637 2.409.402 5.653.402 5.653" transform="matrix(-1 0 0 1 42.875 0)"/>
        <path fill="#E3696A" d="M15.28 10.633l.17 1.256-.64.02c-.092.004-.165.073-.161.156.003.083.08.148.174.145l.822-.027c.047-.002.092-.021.122-.053s.045-.074.04-.115l-.194-1.418c-.01-.082-.094-.14-.187-.13-.092.01-.158.084-.146.166" transform="matrix(-1 0 0 1 42.875 0)"/>
        <path fill="#101012" d="M13.242 8.126s.709-.249.8.085c0 0 .055.227-.567.43-.621.204-.987.267-1.098.068-.11-.199.525-.495.865-.583M17.209 8.127s-.713-.236-.798.098c0 0-.052.229.573.421.625.193.992.25 1.1.049.107-.201-.534-.487-.875-.568M16.966 10.306c-.007.24.18.442.42.45.24.008.441-.181.449-.422.008-.24-.18-.442-.42-.45-.24-.008-.44.181-.449.422M12.91 10.306c-.007.24.18.442.42.45.24.008.442-.18.45-.422.007-.24-.18-.442-.42-.45-.24-.008-.441.18-.45.422" transform="matrix(-1 0 0 1 42.875 0)"/>
        <path fill="#FFFFFE" d="M16.895 13.143l-3.548.03s.303 1.39 1.84 1.35c1.536-.041 1.708-1.38 1.708-1.38" transform="matrix(-1 0 0 1 42.875 0)"/>
    </g>
</svg>
