<svg xmlns="http://www.w3.org/2000/svg" width="49" height="56" viewBox="0 0 49 56">
    <g fill="none" fill-rule="evenodd">
        <path fill="#222123" d="M11.099 4.826c-.046.816-.413 1.684-2.183 2.889-1.77 1.204-2.692 3.66-1.382 6.118 1.311 2.458.243 3.42-.825 5.348s-.726 4.55 1.99 5.83c2.717 1.28 15.101 2.972 16.852 1.884 3.77-2.345 1.881-5.07 1.637-6.992-.277-2.171 2.442-3.202 2.105-5.888-.42-3.351-2.768-2.837-4.028-5.802-1.18-2.774-.45-4.835-2.464-5.46-2.014-.628-11.702 2.073-11.702 2.073" transform="matrix(-1 0 0 1 49 0)"/>
        <path fill="#0297CF" d="M.314 47.45c.872.885 1.485 1.484 1.84 1.798.356.314.844.698 1.463 1.153 2.224-7.8 2.387-9.869 10.426-19.513 2.627-3.15 3.36-7.501 3.36-11.618 0 0-10.72 1.232-14.249 15.887C-.374 49.811.332 47.115.314 47.45z" transform="matrix(-1 0 0 1 49 0)"/>
        <path fill="#EFF0EB" d="M17.389 17.94s-6.096 1.865-7.842 13.867c-.45 3.093-1.525 8.555-2.076 16.02-.193 2.618-.344 1.599-.504 4.679 3.204 1.59 6.543 2.483 10.016 2.678 3.474.194 7.156-.576 11.046-2.311-.253-3.427-.61-3.719-.87-6.45-.653-6.856-1.5-11.632-1.934-14.616-1.746-12.002-7.836-13.866-7.836-13.866z" transform="matrix(-1 0 0 1 49 0)"/>
        <path fill="#0297CF" d="M17.403 19.27s10 0 16.987 14.874l9.312-7.333 1.512 1.44s-7.673 13.61-11.783 13.61c-4.11 0-16.028-22.591-16.028-22.591" transform="matrix(-1 0 0 1 49 0)"/>
        <path fill="#FE9F9F" d="M43.228 26.938s2.14-2.636 2.806-2.235c.666.401-.843 1.455-.843 1.455s1.903-.637 2.41-1.866c.205-.78 1.425-.36.692 1.546-.734 1.905-3.927 2.734-3.927 2.734l-1.138-1.634" transform="matrix(-1 0 0 1 49 0)"/>
        <path fill="#0297CF" d="M14.093 20.599l-.273 34.575c-1.323-.238-2.525-.54-3.605-.903-1.08-.365-2.21-.84-3.393-1.428.114-13.12.741-22.23 1.88-27.33M19.527 19.934l.061 35.392c1.47-.03 3.041-.28 4.714-.752 1.673-.472 3.013-.991 4.02-1.557l-2.817-27.494" transform="matrix(-1 0 0 1 49 0)"/>
        <path fill="#32252F" d="M8.133 34.552c0 1.101.89 1.994 1.987 1.994s1.986-.893 1.986-1.994c0-1.1-.889-1.993-1.986-1.993-1.098 0-1.987.892-1.987 1.993" transform="matrix(-1 0 0 1 49 0)"/>
        <path fill="#D1CBC5" d="M8.795 34.552c0 .734.593 1.33 1.325 1.33.73 0 1.324-.596 1.324-1.33 0-.733-.593-1.329-1.324-1.329-.732 0-1.325.596-1.325 1.33" transform="matrix(-1 0 0 1 49 0)"/>
        <path fill="#32252F" d="M9.457 34.552c0 .367.297.665.663.665.365 0 .662-.298.662-.665 0-.367-.297-.664-.662-.664-.366 0-.663.297-.663.664" transform="matrix(-1 0 0 1 49 0)"/>
        <path fill="#EBE0D2" d="M21.665 37.452c.453.386.855.423.991.423.023 0 .037-.001.045-.002l-.041-.49c-.016 0-.302.007-.671-.322-.468-.419-1.207-1.547-1.407-4.502h-.53c.2 3.03.96 4.336 1.613 4.893M26.276 32.559c-.15 2.955-.704 4.083-1.055 4.502-.276.33-.49.322-.504.322l-.03.49c.005 0 .016.002.033.002.102 0 .404-.037.744-.423.49-.556 1.06-1.863 1.21-4.893h-.398" transform="matrix(-1 0 0 1 49 0)"/>
        <path fill="#32252F" d="M22.7 37.543c0 .183.149.332.332.332.183 0 .33-.149.33-.332 0-.184-.147-.333-.33-.333-.183 0-.331.15-.331.333M24.687 37.543c0 .183.149.332.331.332.183 0 .331-.149.331-.332 0-.184-.148-.333-.33-.333-.183 0-.332.15-.332.333M24.025 25.781c-.01 0-.02-.003-.031-.003.004-.912-.145-3.39-1.75-5.195-1.167-1.313-2.847-1.978-4.994-1.978-3.117 0-5.227 1.935-6.27 5.75-.863 3.157-.862 7.049-.86 9.891v.306h.638v-.306c0-2.803-.002-6.64.837-9.708.969-3.544 2.818-5.267 5.655-5.267 1.96 0 3.481.593 4.522 1.76 1.446 1.623 1.581 3.937 1.581 4.75h.672" transform="matrix(-1 0 0 1 49 0)"/>
        <path fill="#32252F" d="M25.407 26.707c-.34-.34-.91-.735-1.773-.793h-.505c-.859.044-1.463.446-1.81.793-.841.84-1.267 2.268-1.267 4.244 0 .586.018 1.117.048 1.608h.481c-.03-.486-.049-1.017-.049-1.608 0-1.84.378-3.151 1.123-3.897.449-.448 1.011-.677 1.667-.66h.077c.658-.013 1.221.211 1.671.66.745.746 1.124 2.056 1.124 3.897 0 .591-.02 1.122-.05 1.608h.482c.03-.49.048-1.022.048-1.608 0-1.976-.427-3.404-1.267-4.244" transform="matrix(-1 0 0 1 49 0)"/>
        <path fill="#FFB0B0" d="M9.457 12.625c0 .734.742 1.329 1.656 1.329.914 0 1.655-.595 1.655-1.329s-.741-1.329-1.655-1.329-1.656.595-1.656 1.33M21.376 12.625c0 .734.742 1.329 1.656 1.329.914 0 1.655-.595 1.655-1.329s-.741-1.329-1.655-1.329-1.656.595-1.656 1.33" transform="matrix(-1 0 0 1 49 0)"/>
        <path fill="#FD8383" d="M20.052 17.94h-5.96v2.99c0 1.652 1.335 2.99 2.98 2.99 1.646 0 2.98-1.338 2.98-2.99v-2.99" transform="matrix(-1 0 0 1 49 0)"/>
        <path fill="#FFAEAE" d="M17.072 3.322c-3.095 0-5.628 2.806-5.628 6.234v3.646c0 3.429 2.631 6.068 5.727 6.068 3.095 0 5.53-2.64 5.53-6.068V9.556c0-3.428-2.533-6.234-5.629-6.234" transform="matrix(-1 0 0 1 49 0)"/>
        <path fill="#222123" d="M11.306 10.527c.102 1.38.218 2.098.98 2.098V8.6s2.353-.623 3.198-3.067c.05 1.514 4.475 5.079 7.649 2.694C25.79 6.231 24.81 2.16 21.924.61c-2.256-1.211-5.771-.675-7.255 2.146 0 0-2.473-.674-3.822 1.312-1.872 2.752.46 6.46.46 6.46" transform="matrix(-1 0 0 1 49 0)"/>
        <path fill="#E3696A" d="M17.462 12.152l.195 1.435-.73.024c-.107.004-.19.083-.186.178.004.094.093.168.2.165l.94-.03c.053-.003.104-.025.138-.06.035-.037.051-.086.045-.133l-.22-1.62c-.013-.094-.109-.16-.214-.15-.106.012-.18.097-.168.191" transform="matrix(-1 0 0 1 49 0)"/>
        <path fill="#101012" d="M15.134 9.287s.81-.284.913.097c0 0 .064.26-.647.492-.71.232-1.128.305-1.254.077-.127-.227.6-.566.988-.666M19.667 9.288s-.815-.27-.912.113c0 0-.059.26.656.48.714.22 1.133.285 1.256.056.122-.23-.61-.556-1-.649M19.39 11.778c-.009.275.206.505.48.514.274.01.504-.206.513-.481.009-.276-.206-.506-.48-.515-.275-.009-.504.207-.513.482M14.755 11.778c-.009.275.206.505.48.514.274.01.504-.206.513-.481.009-.276-.206-.506-.48-.515-.274-.009-.504.207-.513.482" transform="matrix(-1 0 0 1 49 0)"/>
        <path fill="#FFFFFE" d="M19.308 15.02l-4.054.035s.345 1.588 2.102 1.542c1.756-.047 1.952-1.577 1.952-1.577" transform="matrix(-1 0 0 1 49 0)"/>
    </g>
</svg>
