<svg xmlns="http://www.w3.org/2000/svg" width="24" height="24" viewBox="0 0 24 24">
    <g fill="none" fill-rule="evenodd">
        <path d="M0 0L24 0 24 24 0 24z"/>
        <path fill="#FCB716" fill-rule="nonzero" stroke="#FCB716" d="M17.82 17c-.84 0-1.56.36-2.07.93l-7.32-4.56c.12-.33.21-.69.21-1.05 0-.36-.06-.72-.21-1.02l7.32-4.59c.51.57 1.26.93 2.07.93 1.56 0 2.82-1.26 2.82-2.82 0-1.56-1.26-2.82-2.82-2.82C16.26 2 15 3.26 15 4.82c0 .42.09.78.24 1.14l-7.26 4.56C7.47 9.89 6.69 9.5 5.82 9.5 4.26 9.5 3 10.76 3 12.32c0 1.56 1.26 2.82 2.82 2.82.87 0 1.62-.39 2.13-.99l7.29 4.56c-.15.36-.24.72-.24 1.14 0 1.56 1.26 2.82 2.82 2.82 1.56 0 2.82-1.26 2.82-2.82 0-1.56-1.26-2.85-2.82-2.85zm0-14.1c1.05 0 1.92.87 1.92 1.92 0 1.05-.87 1.92-1.92 1.92-1.05 0-1.92-.87-1.92-1.92 0-1.05.87-1.92 1.92-1.92zm-12 11.34c-1.05 0-1.92-.87-1.92-1.92 0-1.05.87-1.92 1.92-1.92 1.05 0 1.92.87 1.92 1.92 0 1.05-.87 1.92-1.92 1.92zm12 7.5c-1.05 0-1.92-.87-1.92-1.92 0-1.05.87-1.92 1.92-1.92 1.05 0 1.92.87 1.92 1.92 0 1.05-.87 1.92-1.92 1.92z"/>
    </g>
</svg>
