<svg xmlns="http://www.w3.org/2000/svg" width="40" height="41" viewBox="0 0 40 41">
    <g fill="none" fill-rule="evenodd">
        <g fill-rule="nonzero">
            <g>
                <path fill="#FCD0A3" d="M29.884 13.113C29.671 5.94 23.822.15 16.647.003 9.047-.152 2.839 5.962 2.839 13.526l.001 2.488a.78.78 0 01-.095.373L.073 21.306c-.265.689.244 1.43.983 1.43h.95c.43 0 .78.35.78.781v.246a1.173 1.173 0 001.17 1.183h2.296c.442 0 .858.214 1.115.575l.83 1.166a.632.632 0 01-.514.998H4.785a.837.837 0 00-.615.256.818.818 0 00-.114.965l.082.143c.08.14.199.253.343.325l.25.125a.817.817 0 01.44.596l.375 2.252a2.105 2.105 0 002.076 1.759h2.837l-.002.002v5.087c0 .445.36.805.805.805h11.81c.444 0 .804-.36.804-.805v-14.42h-.003c3.733-2.498 6.156-6.8 6.011-11.662z" transform="translate(0 1) translate(2.11) translate(5.86)"/>
                <path fill="#FFB983" d="M29.89 13.493C29.876 7.483 25.886 2.34 20.4.616V40h2.671c.445 0 .805-.36.805-.805v-14.42h-.003c3.636-2.432 6.028-6.577 6.017-11.282z" transform="translate(0 1) translate(2.11) translate(5.86)"/>
                <path fill="#FFB983" d="M18.603 23.552H16.78a.604.604 0 110-1.207h1.822c.595 0 1.08-.485 1.08-1.08a.604.604 0 111.207 0 2.29 2.29 0 01-2.287 2.287z" transform="translate(0 1) translate(2.11) translate(5.86)"/>
                <path fill="#FFB983" d="M13.16 34.486l4.683-4.852c.49-.508.76-1.176.76-1.881v-4.805a.604.604 0 10-1.207 0v4.805c0 .39-.15.76-.421 1.042l-4.684 4.852a1.51 1.51 0 01-1.08.459h-.752l-.001.001v1.206h.753c.731 0 1.441-.301 1.949-.827z" transform="translate(0 1) translate(2.11) translate(5.86)"/>
                <path fill="#586B76" d="M17.26.002H5.367a2.105 2.105 0 00-2.105 2.105v2.737a4.21 4.21 0 004.21 4.21h3.864c.385 0 .716.273.79.65l1.535 7.857c.074.378.405.65.79.65h.743c.444 0 .804-.36.804-.804v-.812c0-.444.36-.804.805-.804H18c.93 0 1.685.754 1.685 1.684v3.9c0 .26.126.505.338.656l3.854 2.743a13.51 13.51 0 006.014-11.249v-.892C29.89 5.657 24.236.002 17.26.002z" transform="translate(0 1) translate(2.11) translate(5.86)"/>
                <path fill="#465961" d="M19.15.143c4.294 2.017 7.267 6.38 7.267 11.437v1.945c0 3.937-1.682 7.48-4.366 9.95l1.825 1.3a13.51 13.51 0 006.014-11.25v-.892c0-6.333-4.66-11.577-10.74-12.49z" transform="translate(0 1) translate(2.11) translate(5.86)"/>
            </g>
            <g fill="#90D8F9" transform="translate(0 1) translate(2.11) translate(0 22.578)">
                <circle cx="1.36" cy="6.202" r="1.328"/>
                <path d="M5.018 8.045A1.33 1.33 0 003.69 9.373a1.33 1.33 0 001.328 1.328 1.33 1.33 0 001.328-1.328 1.33 1.33 0 00-1.328-1.328z"/>
                <circle cx="2.66" cy="1.406" r="1.328"/>
            </g>
            <path fill="#90D8F9" d="M6.563 26.05a.601.601 0 01-.224-.042l-.813-.326a.604.604 0 11.448-1.12l.813.325a.604.604 0 01-.224 1.164zM6.725 29.953a.604.604 0 01-.476-.974l.569-.732a.604.604 0 11.953.741l-.569.732a.603.603 0 01-.477.233zM4.53 28.49a.604.604 0 01-.224-1.164L5.12 27a.603.603 0 11.448 1.12l-.813.326a.603.603 0 01-.224.043z" transform="translate(0 1) translate(2.11)"/>
        </g>
        <path d="M0 0H40V40H0z" transform="translate(0 1)"/>
    </g>
</svg>
