<svg xmlns="http://www.w3.org/2000/svg" xmlns:xlink="http://www.w3.org/1999/xlink" width="80" height="32" viewBox="0 0 80 32">
    <defs>
        <path id="prefix__a" d="M10 0h60c5.523 0 10 4.477 10 10v12c0 5.523-4.477 10-10 10H10C4.477 32 0 27.523 0 22V10C0 4.477 4.477 0 10 0z"/>
    </defs>
    <g fill="none" fill-rule="evenodd">
        <mask id="prefix__b" fill="#fff">
            <use xlink:href="#prefix__a"/>
        </mask>
        <use fill="#0087BA" xlink:href="#prefix__a"/>
        <g mask="url(#prefix__b)">
            <g fill-rule="nonzero">
                <g>
                    <path fill="#FFF" d="M2.44 10.016L0 3.54h1.425l.5 1.447h2.404l.481-1.447H6.29l-2.405 6.477M2.298 6.038l.837 2.384h.018l.82-2.384H2.298zm8.409 1.545c-.178.23-.392.411-.66.56-.266.13-.587.213-.943.213-.285 0-.553-.05-.802-.164-.25-.116-.445-.296-.588-.56h-.018v.592H6.485V.005h1.282v4.11h.018c.16-.23.357-.411.606-.526.25-.115.517-.181.802-.181.338 0 .641.066.89.197.25.132.464.312.642.543.178.23.303.476.392.772.089.296.124.592.124.904 0 .33-.035.658-.124.954-.107.312-.232.575-.41.805m-.82-2.268c-.035-.181-.089-.346-.178-.477-.089-.132-.196-.247-.338-.329-.143-.082-.32-.131-.535-.131-.196 0-.374.049-.516.131-.143.082-.267.197-.357.329-.089.131-.142.296-.196.477-.035.18-.053.361-.053.559 0 .197.018.378.053.559.036.18.107.345.179.476.089.132.196.247.338.345.143.083.32.132.535.132.196 0 .374-.05.516-.132.143-.082.25-.197.357-.345.089-.148.16-.296.196-.476.035-.181.053-.362.053-.56 0-.197-.018-.377-.053-.558m5.79 2.35c-.214.214-.464.379-.767.494-.302.115-.623.18-.997.18s-.695-.065-.998-.18c-.303-.115-.552-.28-.766-.494-.214-.213-.374-.476-.481-.772-.107-.313-.178-.641-.178-1.02 0-.377.053-.706.178-1.019.125-.312.267-.559.481-.772.214-.214.463-.378.766-.493.303-.115.624-.165.998-.165s.695.05.997.165c.303.115.553.28.766.493.214.213.375.477.481.772.107.296.179.642.179 1.02s-.054.723-.179 1.019c-.106.312-.267.559-.48.772M15 5.331c-.035-.18-.089-.345-.178-.477-.089-.148-.213-.263-.356-.345-.142-.082-.32-.131-.552-.131-.214 0-.392.049-.535.131-.142.082-.267.197-.338.345-.09.148-.143.296-.178.477-.036.181-.054.362-.054.543 0 .18.018.378.054.559.035.18.089.345.178.476.089.132.196.247.338.345.143.083.321.132.535.132.214 0 .392-.05.552-.132.143-.082.267-.197.356-.345.09-.131.143-.296.178-.476.036-.181.054-.362.054-.56 0-.18-.018-.377-.054-.542m1.71-1.792h1.283v6.477h-1.282V3.54zm2.103 0h1.283v6.477h-1.283V3.54zm6.307 3.354c-.107.312-.285.559-.481.772-.214.214-.464.379-.766.494-.303.115-.624.18-.998.18s-.695-.065-.998-.18c-.303-.115-.552-.28-.766-.494-.214-.213-.374-.476-.48-.772-.108-.313-.179-.641-.179-1.02 0-.377.053-.706.178-1.019.107-.295.285-.559.481-.772.214-.214.463-.378.766-.493.303-.115.624-.165.998-.165s.695.05.998.165c.302.115.552.28.766.493.213.213.374.477.48.772.107.296.179.642.179 1.02-.018.378-.072.706-.178 1.019M23.944 5.33c-.036-.18-.107-.345-.178-.477-.09-.148-.196-.263-.357-.345-.142-.082-.32-.131-.552-.131-.214 0-.392.049-.534.131-.143.082-.268.197-.357.345-.089.148-.142.296-.178.477-.035.181-.053.362-.053.543 0 .18.018.378.053.559.036.18.09.345.178.476.09.132.196.247.357.345.142.083.32.132.534.132.214 0 .392-.05.552-.132.143-.082.268-.197.357-.345.089-.131.142-.296.178-.476.035-.181.053-.362.053-.56 0-.18-.018-.377-.053-.542M11.42 9.26l.766-.592.766.592v1.792h-1.515m1.568 1.956h-1.817v.428l-4.15-4.702h2.19l2.174 2.515h1.603v1.76zm-1.585.197h1.514v1.513l.802 1.25H10.51l.89-1.25c.019 0 .019-1.513.019-1.513zm-4.65 5.26H2.565v-7.347h1.978l4.56 5.03-2.333 2.318zm-1.514-2.547h-.66v-.658h-.57v.658h-.659v.575h.66v.658h.57v-.658h.659v-.575zm3.242-4.472l.32 1.135h.428v3.14l-4.454-4.9V8.669l2.227 2.45h1.034c-.018 0 .338-.05.445.328m.232 2.663l-.321-.328-.32.328h.64z" transform="translate(25.787 2.68) matrix(1 0 0 -1 0 23.616)"/>
                    <path fill="#FDB931" d="M10.297 20.323l-.053.017c-2.566.657-2.726 1.89-2.655 2.318-.178-.493-.16-1.496.018-2.072.303-.312 1.336-.756 2.316-.854l.32-.05c2.584-.493 2.798-2.614 1.871-3.633.107.198 1.194 2.4-1.478 2.86-.125.017-.25.05-.374.066-1.889.346-2.05.642-2.138.658-.071-.329.392-2.088 2.138-2.301h.017c1.64-.198 1.8-1.02 1.818-1.283.48.345.783.954.801 1.628v.18c-.035 1.02-.766 2.138-2.6 2.466" transform="translate(25.787 2.68) matrix(1 0 0 -1 0 23.616)"/>
                </g>
                <path fill="#FFF" d="M9.043 24.073V22.82h1.096v1.253h.583v-2.806h-.583v1.07H9.043v-1.07h-.58v2.806h.58zm3.638.078c.401 0 .708-.11.92-.328.282-.267.424-.653.424-1.157 0-.514-.142-.9-.425-1.157-.211-.218-.518-.327-.919-.327-.4 0-.707.109-.919.327-.284.258-.426.643-.426 1.157 0 .504.142.89.426 1.157.212.219.518.328.92.328zm0-.497c-.232 0-.417-.086-.555-.257-.139-.171-.208-.415-.208-.73 0-.317.07-.56.208-.732.138-.17.323-.257.555-.257.232 0 .417.086.553.258.137.172.205.416.205.73 0 .316-.068.56-.205.731-.136.171-.32.257-.553.257zm2.991.491c.358 0 .635-.085.831-.254.196-.17.294-.382.294-.639 0-.25-.084-.44-.251-.572-.108-.085-.268-.153-.48-.204l-.483-.116c-.187-.045-.308-.083-.365-.116-.09-.05-.134-.125-.134-.225 0-.109.045-.194.135-.255.09-.06.211-.091.362-.091.136 0 .25.023.34.07.138.071.211.191.221.36h.564c-.01-.298-.12-.526-.328-.682-.21-.157-.461-.235-.757-.235-.354 0-.622.083-.805.249-.183.166-.274.375-.274.626 0 .275.094.478.283.607.112.078.314.15.606.215l.297.067c.173.038.3.082.382.131.081.05.122.123.122.215 0 .159-.082.267-.246.326-.086.03-.198.045-.336.045-.231 0-.394-.057-.49-.173-.052-.063-.087-.16-.104-.287h-.56c0 .292.105.52.314.688.21.167.497.25.862.25zm2.314-.072v-1.009h.596c.31 0 .55-.069.717-.206.168-.137.251-.37.251-.702 0-.303-.083-.527-.25-.672-.168-.144-.393-.217-.675-.217h-1.221v2.806h.582zm.546-1.492h-.546v-.826h.546c.138 0 .246.03.323.093.077.062.115.166.115.312s-.038.252-.115.32c-.077.067-.185.1-.323.1zm2.154 1.492v-2.806h-.582v2.806h.582zm1.904 0v-2.309h.84v-.497h-2.273v.497H22v2.309h.59zm1.469 0l.194-.577h1.033l.181.577h.636l-.994-2.806h-.662l-1.001 2.806h.613zm1.064-1.06h-.712l.362-1.104.35 1.104zm3.47 1.06v-.505h-1.389v-2.3h-.586v2.805h1.975zm1.606.072c.358 0 .635-.085.83-.254.197-.17.295-.382.295-.639 0-.25-.084-.44-.251-.572-.108-.085-.268-.153-.48-.204l-.483-.116c-.187-.045-.309-.083-.366-.116-.089-.05-.133-.125-.133-.225 0-.109.045-.194.135-.255.09-.06.21-.091.362-.091.135 0 .249.023.34.07.137.071.211.191.221.36h.564c-.01-.298-.12-.526-.329-.682-.209-.157-.46-.235-.756-.235-.354 0-.623.083-.805.249-.183.166-.274.375-.274.626 0 .275.094.478.283.607.112.078.314.15.605.215l.297.067c.174.038.302.082.383.131.081.05.122.123.122.215 0 .159-.082.267-.246.326-.086.03-.198.045-.337.045-.23 0-.394-.057-.489-.173-.052-.063-.087-.16-.105-.287h-.56c0 .292.106.52.315.688.21.167.497.25.862.25z" transform="translate(25.787 2.68)"/>
            </g>
        </g>
    </g>
</svg>
