<svg xmlns="http://www.w3.org/2000/svg" xmlns:xlink="http://www.w3.org/1999/xlink" width="112" height="84" viewBox="0 0 112 84">
    <defs>
        <path id="prefix__b" d="M13.517 6.743c0 3.724-3.026 6.743-6.759 6.743C3.026 13.486 0 10.467 0 6.743S3.026 0 6.758 0c3.733 0 6.76 3.019 6.76 6.743"/>
        <path id="prefix__e" d="M0.083 0.109L5.736 0.109 5.736 1.849 0.083 1.849z"/>
        <path id="prefix__g" d="M0 0.002L12.252 0.002 12.252 5.394 0 5.394z"/>
        <linearGradient id="prefix__a" x1="50%" x2="50%" y1="0%" y2="100%">
            <stop offset="0%" stop-color="#F5F3F4"/>
            <stop offset="100%" stop-color="#E1E1E1"/>
        </linearGradient>
        <linearGradient id="prefix__d" x1="50%" x2="50%" y1="0%" y2="99.741%">
            <stop offset="0%" stop-color="#FEA8A8"/>
            <stop offset="100%" stop-color="#FD8A8A"/>
        </linearGradient>
    </defs>
    <g fill="none" fill-rule="evenodd">
        <path fill="url(#prefix__a)" d="M79.66 72.347c-1.62.977-3.504 1.683-5.58 2.141-1.378.302-2.847.501-4.375.586-5.621.343-12.085-.712-18.314-2.824-1.397-.47-2.78-.995-4.14-1.574-10.13-4.27-18.935-11.244-21.402-19.327-4.508-14.756 5.17-25.366 16.376-35.103 4.544-3.95 10.466-3.384 16.592-.048 1.433.778 2.871 1.707 4.31 2.763 5.398 3.975 10.742 9.76 15.256 16.19 8.86 12.626 13.987 29.542 1.276 37.196"/>
        <g transform="translate(78.786 50.092)">
            <mask id="prefix__c" fill="#fff">
                <use xlink:href="#prefix__b"/>
            </mask>
            <path fill="#0087BA" d="M13.517 6.743c0 3.724-3.026 6.743-6.759 6.743C3.026 13.486 0 10.467 0 6.743S3.026 0 6.758 0c3.733 0 6.76 3.019 6.76 6.743" mask="url(#prefix__c)"/>
        </g>
        <path fill="#FFFFFE" d="M85.149 58.125c-.114-.07-.183-.195-.183-.33v-4.232c0-.215.172-.389.386-.389.213 0 .386.174.386.39v3.602l2.53-1.273c.191-.096.423-.019.519.173.095.193.018.426-.173.522l-3.09 1.555c-.054.027-.113.04-.172.04-.07 0-.141-.02-.203-.058z"/>
        <path fill="#0087BA" d="M73.929 22.082h6.823c.462 0 .836.351.836.784v3.768c0 .432-.374.783-.836.783h-.661l.562.94c.097.163-.093.341-.266.252l-2.293-1.192H73.93c-.463 0-.837-.35-.837-.783v-3.768c0-.433.374-.784.837-.784"/>
        <path fill="#00B38D" d="M76.275 16.688h-8.683c-.589 0-1.066.474-1.066 1.06v5.097c0 .586.477 1.06 1.066 1.06h.84l-.716 1.273c-.122.22.12.461.34.34l2.918-1.613h5.301c.588 0 1.065-.474 1.065-1.06v-5.097c0-.586-.477-1.06-1.065-1.06"/>
        <g>
            <path fill="#FCB717" d="M16 52.887c-.002.023-.016.004-.041-.003l-.219-.062c-.544-.151-1.925-.8-3.447-1.293-1.11-.36-1.896-.654-2.653-.918-.285-.1-.635-.253-.886-.347-.153-.058-.285.013-.294-.177-.123-2.74-.263-6.2-.332-9.15-.05-2.122.128-4.015.376-5.574.011-.06.02-.121.032-.182.448-2.708 1.1-4.355 1.1-4.355h7.743L16 52.886z" transform="translate(37.947 20.156)"/>
            <path fill="#450D20" d="M10.253 35.098c-.294.233-.647.352-1.06.352-.215 0-.448-.033-.696-.098.01-.063.02-.126.032-.19.666.177 1.204.106 1.603-.214 1.167-.937.829-3.685.825-3.714l.19-.023c.014.117.354 2.884-.894 3.887" transform="translate(37.947 20.156)"/>
            <path fill="#FCB717" d="M16.915 53.108l-1.084-14.49-1.059-7.137-.096-.655h7.364s.632 1.974 1.144 4.427l.038.185c.228 1.12.428 2.33.53 3.492.167 1.892.231 8.558.17 15.6-.001.166-.015.211-.037.2-.038-.016-.098-.194-.154-.205-.234-.045-.48-.11-.868-.156-.579-.068-1.299-.157-2.224-.389-.83-.208-2.07-.498-3.724-.872z" transform="translate(37.947 20.156)"/>
            <path fill="#450D20" d="M16.691 47.747L16.607 38.532 18.152 45.715 16.959 51.633 16.691 47.747M23.172 35.448l-.041.002c-.479 0-.872-.149-1.175-.444-1.026-1-.651-3.313-.634-3.41l.172.028c-.004.023-.374 2.32.583 3.255.269.263.624.396 1.058.394l.037.175" transform="translate(37.947 20.156)"/>
            <path fill="#02475B" d="M13.537 14.917s-3.075-5.172-2.17-9.182c.904-4.01 4.06-5.41 6.318-5.348 2.26.063 3.445 2.176 3.757 4.633.312 2.455.604 6.12-2.443 10.008l-5.462-.111" transform="translate(37.947 20.156)"/>
            <path fill="#0087BA" d="M12.858 3.279c1.108-1.69 3.031-2.674 4.999-2.386 1.306.192 2.684.953 3.108 3.177 1.322 6.951-1.935 10.64-2.243 10.97l-.023.024c-1.63 1.517-5.035-.18-5.035-.18v-.001c-.788-1.54-3.503-7.49-.806-11.604zm8.921 18.87c.324-2.619.278-3.597.06-4.65-.217-1.05-2.081-1.776-2.356-1.904-.064-.032-.142-.076-.223-.129 3.434-4.157 3.039-12.1.71-14.201C18.46-.1 15.817-.425 13.573.608l-.014.008c-.665.308-1.292.735-1.845 1.29-1.03.87-2.236 2.171-2.94 3.888-.724 1.771.089 3.845 1.038 5.433.746 1.25 1.427 2.538 2.038 3.86-2.46.548-2.525 2.251-1.895 6.343.625 4.086-.532 8.32-.749 9.43-.036.18.101.351.282.351l12.624-.037c.166 0 .298-.144.287-.315-.086-1.241-.9-6.457-.62-8.71z" transform="translate(37.947 20.156)"/>
            <path fill="#FD8C8C" d="M18.924 14.75l-.025.025c-1.712 1.534-5.288-.181-5.288-.181v-.002c.606-1.975-.003-5.6-.084-6.066l-.01-.049 5.15 2.85c-.087.142-.135.335-.156.558v.002c-.046.452.02 1.027.111 1.551.104.58.243 1.099.302 1.313" transform="translate(37.947 20.156)"/>
            <path fill="#450D20" d="M18.538 13.46c-2.786.347-4.197-2.934-4.248-3.056.514.805 1.26 1.212 1.988 1.406.897.242 1.767.16 2.132.108l.017-.004c-.046.45.02 1.024.11 1.547" transform="translate(37.947 20.156)"/>
            <path fill="#FA9778" d="M6.905 26.445c2.092-2.65 4.027-5.048 5.157-6.31.585-.652.982-1.221 1.247-1.714.89-1.656-.513-3.434-2.338-2.917-.718.203-1.551.678-2.46 1.635C6.87 18.87 3.734 22.185.95 26.474c-.36.553-.775 1.048-.662 1.731.237 1.43-.168 2.873 1.446 2.752.499-.038 1.049.165 1.558.11 3.626-.387 7.482-1.243 10.998-2.943l-.451-1.759s-3.017.046-6.934.08z" transform="translate(37.947 20.156)"/>
            <path fill="#B4CBDD" d="M12.8 25.335c.347.419.836 1.417.18 3.389-.05.148.05.305.203.318 1.248.109 5.972.478 7.658.014.084-.023.149-.088.17-.173.117-.455.45-2.024.009-3.647-.026-.092-.103-.16-.197-.174-.91-.13-5.646-.763-7.904-.112-.164.047-.23.252-.12.385" transform="translate(37.947 20.156)"/>
            <path fill="#0087BA" d="M11.522 15.092c-.59.144-1.478.455-2.268 1.114-1.197.998-9.224 7.76-9 12.008.052.997.073 1.148.264 1.955l.109.345c.41.562.62.437 1.213.45 1.978.044 7.038.051 10.898-1.736v-3.209l-5.087.156 4.776-5.967c.405-.506.756-1.055 1.025-1.645.482-1.06.839-2.52-.35-3.247-.472-.289-1.044-.355-1.58-.224z" transform="translate(37.947 20.156)"/>
            <path fill="#450D20" d="M10.041 22.473L11.586 20.422 10.062 24.275 10.041 22.473M7.602 26.026L3.862 27.358 8.11 25.431 7.602 26.026" transform="translate(37.947 20.156)"/>
            <path fill="#FA9778" d="M37.369 12.6c-.146.02-.437.144-.98.637 0 0 .86-1.304.804-1.583-.056-.28-1.381 1.216-1.381 1.216s.81-1.571.665-1.787c-.146-.217-1.278 1.42-1.278 1.42s.743-1.67.6-1.71c-.357-.104-1.463 2.21-1.69 2.064-.204-.13-.17-.767-.097-1.088.015-.067-.028-.13-.097-.137-.135-.013-.345.027-.444.359-.128.436-.37 1.302-.258 2.395-.31.574-2.69 4.987-5.274 9.66-1.972-2.43-3.715-4.63-4.64-5.922-.513-.715-.985-1.23-1.411-1.597-1.427-1.235-3.462-.227-3.345 1.686.046.752.333 1.676 1.076 2.779 1.115 1.655 3.082 4.567 5.778 7.61.625.703 1.29 1.415 1.991 2.118.784.787 2.1.603 2.631-.375.4-.736.8-1.509 1.188-2.314 1.835-3.795 3.437-8.303 3.774-12.988.72-.536 2.1-1.62 2.47-2.326.033-.062-.013-.127-.082-.117" transform="translate(37.947 20.156)"/>
            <path fill="#0087BA" d="M27.728 23.42s-5.677-8.211-8.216-8.392c0 0-2.685 1.416-.51 5.162l7.159 10.277c.454.652 1.169 1.063 1.95 1.122 1.139.086 2.201-.587 2.63-1.667 1.254-3.159 3.734-9.754 4.404-14.085l-2.955-.686-4.462 8.27" transform="translate(37.947 20.156)"/>
            <path fill="#450D20" d="M21.432 23.847L21.241 18.881 22.014 24.661 21.432 23.847M27.807 23.442L27.034 25.817 27.034 22.349 27.807 23.442" transform="translate(37.947 20.156)"/>
            <path fill="#FFF" d="M8.223 25.73l.06-.009c.11.01.193.061.202-.049.474-5.73 3.254-10.319 3.28-10.364.04-.068.122-.154.075-.253-.047-.1-.76.146-.858.193-.142.068-2.681 4.534-3.174 10.49-.01.105.186-.033.287-.016l.128.008zM20.762 7.706c0 .002-.412 1.976-2.224 13.087l.094.014c.905-5.554 1.462-8.825 1.79-10.707.166-.941.274-1.535.34-1.894.068-.358.093-.48.093-.48l-.093-.02" transform="translate(37.947 20.156)"/>
            <path fill="url(#prefix__d)" d="M20.484 3.115c-.646-1.657-3.694-2.301-5.818-.46-.986.854-1.196 2.404-1.137 3.818-.052-.024-.096-.042-.126-.05-.433-.107-.867.217-.997.622-.103.323-.033.688.152.972.154.236.403.456.67.557.066.026.365.075.576.057.203.931.679 1.79 1.415 2.4.928.768 2.117 1.076 3.3.832.92-.19 2.28-.778 2.618-1.729.088-.247.096-.515.1-.777.024-2.005-.014-4.349-.753-6.242" transform="translate(37.947 20.156)"/>
            <path fill="#450D20" d="M18.924 9.396c-.052.063-.124.086-.193.089-.07-.003-.14-.029-.193-.09.068.016.13.034.193.03.064.004.126-.011.193-.03" transform="translate(37.947 20.156)"/>
            <path fill="#FFF" d="M17.766 9.633s1.027-1.734 1.93 0h-1.93" transform="translate(37.947 20.156)"/>
            <path fill="#1D1E1C" d="M18.107 4.77c-.122-.106-.261-.14-.407-.146-.145-.003-.294.013-.434.06-.142.041-.273.117-.382.21-.114.088-.195.205-.261.32-.034.06-.012.133.049.165.049.026.107.018.146-.016l.01-.01c.087-.076.168-.146.26-.198.089-.057.188-.088.287-.113.1-.022.205-.034.31-.029.106.003.218.009.333-.018l.033-.008c.071-.017.114-.085.097-.153l-.041-.065M19.354 4.77c.123-.106.262-.14.408-.146.145-.003.294.013.434.06.142.041.273.117.383.21.114.088.194.205.26.32.034.06.012.133-.048.165-.049.026-.108.018-.147-.016l-.01-.01c-.086-.076-.168-.146-.26-.198-.088-.057-.188-.088-.287-.113-.1-.022-.204-.034-.31-.029-.106.003-.218.009-.333-.018l-.033-.008c-.071-.017-.114-.085-.097-.153l.04-.065M19.369 5.78c.044.21.077.417.114.623.037.205.072.41.126.605.013.048.027.096.043.143.013.038.045.11.044.18.007.138-.076.274-.181.328-.108.065-.232.055-.33.02-.1-.04-.186-.097-.26-.169.18.074.392.13.52.027.064-.052.098-.122.09-.198-.004-.039-.015-.064-.038-.123-.02-.052-.037-.104-.052-.157-.055-.211-.083-.425-.094-.639-.012-.214-.008-.427.018-.64M18.01 6.023c.02.213-.116.395-.306.408-.19.012-.36-.15-.38-.362-.02-.212.117-.395.306-.407.19-.013.36.148.38.36M20.327 6.023c.021.212-.116.395-.306.408-.19.012-.36-.15-.38-.362-.02-.212.116-.394.306-.407.19-.013.36.149.38.361" transform="translate(37.947 20.156)"/>
            <path fill="#450D20" d="M12.745 7.403c-.003-.135.033-.283.15-.388.124-.103.3-.093.433-.042.143.05.26.149.35.26.095.112.163.234.218.374.02.05-.003.106-.052.126l-.104-.022-.007-.006c-.094-.097-.21-.2-.322-.232-.056-.014-.097-.013-.135.016-.04.028-.07.089-.097.151-.049.128-.078.279.03.338.112.065.278.05.424.03-.139.062-.292.114-.467.063-.089-.029-.16-.131-.165-.224-.009-.092.004-.177.027-.259.024-.081.058-.168.136-.24.08-.072.206-.089.294-.06.183.055.305.162.42.286l-.164.099c-.088-.225-.233-.458-.441-.562-.105-.051-.228-.077-.327-.02-.103.054-.166.183-.2.312" transform="translate(37.947 20.156)"/>
            <path fill="#1D1E1C" d="M18.708 3.313s.28.211 0 .34c-.279.129-2.603-.5-3.217-.099-.615.4-.8.674-.682 1.335.117.66.237 2.503-.996 1.942 0 0-.663-.531-1.263-.116 0 0-.012-1.025-.158-2.059-.146-1.034.16-2.326 1.477-2.115 0 0 1.21-1.693 3.13-1.763 1.92-.07 2.105.386 3.451.138 1.345-.248.458 1.227.645 1.274.187.047 1.121.351-.039 1.295 0 0 .567 1.477-.056 2.577 0 0-.263-1.99-.504-2.468 0 0-1.435-.023-1.788-.28" transform="translate(37.947 20.156)"/>
            <path fill="#FFF" d="M13.27 7.009c-.225-.139-.554-.064-.745.09-.191.154-.222.434-.07.627.093.115.23.171.367.165l.42.528c.053.067.15.077.217.024.067-.054.078-.151.024-.219l-.368-.462c.143-.14.309-.435.258-.593-.016-.049-.057-.132-.103-.16M34.89 9.63c-.052-.018-.084-.092-.072-.165l.082-.497c.012-.074.063-.12.114-.102.052.017.084.091.071.165l-.081.496c-.012.074-.064.12-.115.102" transform="translate(37.947 20.156)"/>
            <path fill="#FFF" d="M13.517 8.222s.239.424.622 1.144c.384.72.914 1.734 1.495 2.914 1.662 3.374 2.952 6.927 3.79 10.6.198.865.473 1.786.846 2.494.372.707.849 1.211 1.459 1.213.096 0 .195-.013.297-.039.297-.079.65-.4 1.063-.901 1.443-1.754 3.595-5.756 5.718-9.497 1.061-1.871 2.115-3.676 3.067-5.1.95-1.423 1.805-2.466 2.447-2.807.076-.04.154-.058.23-.058.263 0 .501.217.502.497l-.007.084.045.008-.045-.008-.004.02.09.017.004-.02v-.001l.009-.1c-.001-.335-.282-.59-.594-.59-.09 0-.184.022-.273.07-.77.412-1.773 1.722-2.895 3.47-1.682 2.622-3.619 6.226-5.343 9.228-.862 1.5-1.67 2.851-2.366 3.852-.693 1-1.285 1.65-1.671 1.746-.095.025-.186.036-.274.036-.553.002-1.01-.466-1.378-1.163-.367-.696-.64-1.611-.837-2.472-.84-3.68-2.132-7.24-3.798-10.62-1.164-2.362-2.118-4.063-2.119-4.063l-.08.046" transform="translate(37.947 20.156)"/>
            <path fill="#B4CBDD" d="M35.783 14.636l-2.021-.493c-.113-.028-.183-.144-.156-.261l1.033-4.468c.027-.116.141-.188.254-.16l2.02.493c.114.028.184.145.157.261l-1.034 4.468c-.027.116-.14.188-.253.16" transform="translate(37.947 20.156)"/>
            <path fill="#A0E0FF" d="M35.733 13.959L33.722 13.451 34.655 9.362 36.689 9.844 35.757 13.872M35.098 14.064c0 .081-.065.146-.146.146-.081 0-.147-.065-.147-.146 0-.08.066-.146.147-.146.08 0 .146.065.146.146" transform="translate(37.947 20.156)"/>
        </g>
        <path fill="#FFF" d="M58.265 35.385l-.74-.27c.012.048-6.311 4.262-9.279 10.582l.963-.088c3.042-6.48 9.068-10.174 9.056-10.224z"/>
        <g>
            <path fill="#FFF" d="M2.073 6.333c-.51-.015-1.291.08-1.604-.406-.143-.221-.192-.488-.216-.75C.123 3.797.6 2.247 1.055.952c1.838.013 3.673.404 5.355 1.143-.15.822-.377 1.63-.676 2.41-.133.345-.284.691-.524.974-.364.427-.906.673-1.457.78-.551.109-1.119.092-1.68.075" transform="rotate(-10 276.531 -190.295)"/>
            <g transform="rotate(-10 276.531 -190.295) translate(1.05 .252)">
                <mask id="prefix__f" fill="#fff">
                    <use xlink:href="#prefix__e"/>
                </mask>
                <path fill="#FFF" d="M5.146 1.82c.261.146.972.395.825.231C4.894.847 2.076.051.302.115.011.125.01.641.302.631 1.996.569 3.626.964 5.146 1.819z" mask="url(#prefix__f)"/>
            </g>
            <path fill="#D0DEEB" d="M6.453 2.081c-.114-.027-.254-.057-.42-.084-.164-.028-.35-.065-.56-.089-.21-.028-.439-.057-.687-.075-.248-.026-.514-.034-.794-.047-.56-.013-1.178 0-1.821.059-.425.041-.83.101-1.214.17-.014.04-.028.08-.041.122.4-.07.826-.132 1.27-.176.637-.058 1.248-.074 1.802-.067.278.01.541.014.787.035.247.014.475.038.683.06.21.019.396.05.56.072.166.02.307.044.422.065.113.018.202.032.263.04l.006-.023-.256-.062" transform="rotate(-10 276.531 -190.295)"/>
            <g transform="rotate(-10 276.531 -190.295) translate(.497 1.933)">
                <mask id="prefix__h" fill="#fff">
                    <use xlink:href="#prefix__g"/>
                </mask>
                <path fill="#FFF" d="M11.92 1.561c-.375-.158-.665-.433-.759-.868l-.004-.027c-.1-.05-.209-.085-.324-.096C9.419.435 8.007.36 6.592.198 5.87.114 5.144.053 4.415.019 3.68-.014 2.945.003 2.21.051 1.776.08 1.174-.007.83.31c-1.074.986-1.23 3.629.276 4.215.705.274 1.432.484 2.169.63 2.446.483 4.996.137 7.466-.16.032-.003.064-.005.096-.005.084-.001.173-.005.264-.012.378-.028.711-.285.847-.658.279-.77.424-1.623.18-2.394-.043-.136-.115-.26-.208-.364" mask="url(#prefix__h)"/>
            </g>
            <g fill="#D0DEEB">
                <path d="M1.927 1.656c.501-.438 1.025-.78 1.522-1.052.044-.064.087-.12.124-.165l.054-.067c.023-.01.046-.018.067-.028l-.118.194c.383-.201.745-.36 1.066-.484L4.374.038C3.625.325 2.698.79 1.839 1.54c-.852.743-1.44 1.64-1.775 2.41.023.034.048.067.073.1.343-.758.937-1.651 1.79-2.395" transform="rotate(-10 276.531 -190.295) translate(.883 1.933)"/>
                <path d="M2.419 4.09c.027-.352.077-.738.163-1.136.09-.398.207-.767.331-1.095.13-.326.262-.613.389-.845.106-.197.2-.356.274-.476l-.127.066-.037.053c-.058.088-.13.186-.194.303-.14.229-.284.516-.422.846-.133.332-.257.708-.349 1.113-.088.407-.135.802-.156 1.163-.015.35-.007.668.02.935l.1.025v-.01c-.016-.268-.014-.588.008-.942" transform="rotate(-10 276.531 -190.295) translate(.883 1.933)"/>
                <path d="M3.627.372l-.054.067c-.037.045-.08.101-.124.165l.127-.066.118-.194c-.021.01-.044.019-.067.028M3.536 4.927c.01-.108.03-.218.045-.333.027-.231.083-.473.135-.728.123-.505.296-1.051.535-1.598.245-.543.532-1.031.822-1.453L5.28.536c.043-.11.07-.17.078-.168.006.003.001.03-.01.08.055-.072.11-.141.167-.205.032-.036.062-.073.092-.109L5.465.121l-.034.04c-.157.167-.303.366-.46.572-.3.424-.596.919-.845 1.472-.244.556-.416 1.113-.534 1.63-.05.26-.102.506-.125.741-.013.117-.03.23-.038.34l-.017.314v.01c.032.006.065.01.097.014l.001-.018.026-.31z" transform="rotate(-10 276.531 -190.295) translate(.883 1.933)"/>
                <path d="M5.036 3.71c-.045-.463-.047-.908-.027-1.31.016-.202.027-.394.054-.571.02-.179.05-.343.077-.493.085-.442.175-.752.208-.888L5.28.536l-.03.076c-.031.08-.067.18-.099.298-.033.118-.076.25-.106.403-.035.15-.071.316-.096.497-.032.18-.048.375-.068.58-.027.41-.029.864.017 1.336.05.473.14.916.249 1.31.038.124.074.241.112.355l.127.001c-.04-.126-.077-.256-.117-.393-.1-.39-.185-.825-.233-1.288" transform="rotate(-10 276.531 -190.295) translate(.883 1.933)"/>
                <path d="M5.358.368C5.35.365 5.323.426 5.28.536c.022-.03.045-.06.068-.088.011-.05.016-.077.01-.08M6.539 2.486c.134-.857.408-1.61.706-2.181L7.12.292c-.308.569-.586 1.319-.719 2.17-.173 1.104-.108 2.122-.025 2.842l.01.072.095-.004-.007-.08c-.058-.717-.106-1.722.064-2.806M8.534 5.205l.01.019-.008-.02h-.002zM8.402 4.636v-.009c-.039-.1-.076-.202-.116-.307-.133-.396-.255-.84-.34-1.318-.08-.478-.115-.94-.122-1.36.002-.21 0-.41.016-.597.008-.187.028-.36.047-.518.007-.059.015-.112.023-.166L7.817.353c-.01.052-.02.102-.027.158-.025.16-.051.335-.064.524-.022.19-.024.393-.03.607 0 .428.032.9.114 1.387.086.486.214.939.357 1.34.077.197.148.386.23.555.045.1.09.192.137.28h.002c-.056-.14-.107-.332-.134-.568M8.6 5.197l.047-.005c-.035-.073-.07-.15-.105-.23.017.09.037.168.058.235" transform="rotate(-10 276.531 -190.295) translate(.883 1.933)"/>
                <path d="M8.401 4.627v.01c.028.235.08.427.135.567l.064-.006c-.02-.068-.04-.145-.058-.236l-.04-.09c-.036-.078-.069-.16-.1-.245M9.677 2.494c.088-.736.283-1.397.493-1.944l-.125-.011c-.218.543-.417 1.2-.506 1.936-.12 1.002.017 1.928.232 2.585l.105-.012c-.194-.653-.318-1.565-.2-2.554M11.44 4.454c-.208-.444-.414-1.1-.505-1.852-.064-.557-.08-1.082-.045-1.513-.035-.055-.066-.114-.092-.176-.073.47-.075 1.068 0 1.709.092.768.32 1.44.555 1.88l.03.054c.021-.031.042-.063.06-.097l-.003-.005" transform="rotate(-10 276.531 -190.295) translate(.883 1.933)"/>
            </g>
        </g>
    </g>
</svg>
