<svg xmlns="http://www.w3.org/2000/svg" width="20" height="20" viewBox="0 0 20 20">
    <g fill="none" fill-rule="evenodd">
        <path d="M0 0L20 0 20 20 0 20z"/>
        <path fill="#02475B" fill-rule="nonzero" d="M14.342 7.5l-3.65-5.467c-.159-.233-.425-.35-.692-.35-.267 0-.533.117-.692.359L5.658 7.5H1.667c-.459 0-.834.375-.834.833 0 .075.009.15.034.225l2.116 7.725c.192.7.834 1.217 1.6 1.217h10.834c.766 0 1.408-.517 1.608-1.217l2.117-7.725.025-.225c0-.458-.375-.833-.834-.833h-3.991zM7.5 7.5L10 3.833 12.5 7.5h-5zm2.5 6.667c-.917 0-1.667-.75-1.667-1.667s.75-1.667 1.667-1.667 1.667.75 1.667 1.667-.75 1.667-1.667 1.667z"/>
    </g>
</svg>
