<svg xmlns="http://www.w3.org/2000/svg" width="96" height="72" viewBox="0 0 96 72">
    <defs>
        <linearGradient id="prefix__a" x1="50%" x2="50%" y1="0%" y2="100%">
            <stop offset="0%" stop-color="#F5F5F5"/>
            <stop offset="100%" stop-color="#E7E7E7"/>
        </linearGradient>
        <linearGradient id="prefix__b" x1="50%" x2="50%" y1="0%" y2="100%">
            <stop offset="0%" stop-color="#FEDC33"/>
            <stop offset="100%" stop-color="#F2AC09"/>
        </linearGradient>
        <linearGradient id="prefix__c" x1="50%" x2="50%" y1="0%" y2="100%">
            <stop offset="0%" stop-color="#FEA7A7"/>
            <stop offset="100%" stop-color="#FD8B8B"/>
        </linearGradient>
        <linearGradient id="prefix__d" x1="50%" x2="50%" y1="0%" y2="100%">
            <stop offset="0%" stop-color="#FEDC33"/>
            <stop offset="100%" stop-color="#FCB717"/>
        </linearGradient>
    </defs>
    <g fill="none" fill-rule="evenodd">
        <path fill="url(#prefix__a)" d="M84.707 43.411c-2.971-8.297-10.101-8.594-16.934-8.594s-12.652-5.852-16.934-11.854c-4.282-6-16.404-11.224-27.639-5.876C11.965 22.437 9.205 33.255 10.082 43.4c.552 6.389 2.382 10.721 6.721 14.828 4.34 4.107 9.065 5.27 13.106 5.35 4.041.08 2.874-.039 9.345-.06l36.88-.126c1.186-.004 4.018-1.452 5.726-3.197 1.707-1.745 5.818-8.486 2.847-16.784z"/>
        <g>
            <path fill="#20211F" d="M19.483 28.768c2.614-1.345 9.597-1.44 10.63-2.344 1.034-.905.569-3.97.569-3.97s-4.03-1.105-4.547.754c-.516 1.86-8.189 1.42-10.02 3.944-3.064 4.228 2.787 11.531 2.787 11.531.123 0 .228-.012.32-.032.585.994-1.31 1.59-2.645 1.69-1.343.1-1.188.653-1.188.653.902.653 5.735 0 5.735 0 .361-.503-1.318-2.775-1.318-2.775s-5.45-6.813-.323-9.451" transform="matrix(-1 0 0 1 76.801 18.263)"/>
            <path fill="#FCB717" d="M28.124 12.792c-.228-.863-1.268-1.505-2.485-1.116-1.217.388-1.227 3.656-3.555 5.608-1.965 1.647-5.711 2.18-6.83 2.306-.133.015-.232.045-.245.12-.216.003-.457.042-.443.205.023.257.066.478.332.517.131.019.25.01.347-.005.073.051.215.054.318.048.884-.048 4.167-.423 7.204-1.694 2.914-1.219 5.586-5.127 5.357-5.99" transform="matrix(-1 0 0 1 76.801 18.263)"/>
            <path fill="#4F433B" d="M15.082 10.57c-.344-.035-.699.547-.792 1.3-.033.27-.028.524.008.742-.248.167-.431.409-.502.69l-1.548 6.151.16.033 1.547-6.152c.056-.221.192-.416.377-.56.079.301.225.502.413.521.344.035.698-.546.791-1.299.093-.752-.11-1.39-.454-1.426" transform="matrix(-1 0 0 1 76.801 18.263)"/>
            <path fill="#CCCDC9" d="M11.457 19.42c-.245.9-.756 1.512-1.142 1.366-.386-.146-.5-.994-.255-1.894.245-.9.756-1.512 1.142-1.366.386.146.5.994.255 1.894" transform="matrix(-1 0 0 1 76.801 18.263)"/>
            <path fill="#676866" d="M11.586 17.608s-.616-.232-.811 0L9.93 20.9s.065.416.552.567l1.103-3.86" transform="matrix(-1 0 0 1 76.801 18.263)"/>
            <path fill="#FCB717" d="M9.957 21.029l1.056-3.442c.093-.304.414-.478.722-.39.946.271 2.881.995 4.124 2.616 1.696 2.214-.105 2.744-1.325 2.632-.896-.083-3.048-.475-4.127-.678-.342-.064-.552-.408-.45-.738" transform="matrix(-1 0 0 1 76.801 18.263)"/>
            <path fill="#DC3E38" d="M44.342 32.968c.081 1.094-.141 2.007-.497 2.04-.357.033-.712-.827-.794-1.921-.081-1.094.141-2.008.497-2.04.357-.033.712.827.794 1.921" transform="matrix(-1 0 0 1 76.801 18.263)"/>
            <path fill="#3A3B39" d="M10.924 39.798c0 3.01-2.445 5.45-5.462 5.45S0 42.808 0 39.798c0-3.01 2.445-5.45 5.462-5.45s5.462 2.44 5.462 5.45" transform="matrix(-1 0 0 1 76.801 18.263)"/>
            <path fill="#676866" d="M8.276 39.963c0 1.46-1.26 2.643-2.814 2.643s-2.814-1.183-2.814-2.643c0-1.459 1.26-2.642 2.814-2.642s2.814 1.183 2.814 2.642" transform="matrix(-1 0 0 1 76.801 18.263)"/>
            <path fill="#868884" d="M5.578 39.426c-.513.746-1.352 1.074-1.873.732-.52-.341-.527-1.223-.014-1.969s1.352-1.074 1.873-.733c.52.342.527 1.224.014 1.97" transform="matrix(-1 0 0 1 76.801 18.263)"/>
            <path fill="#3A3B39" d="M42.703 39.798c0 3.01-2.445 5.45-5.462 5.45-3.016 0-5.462-2.44-5.462-5.45 0-3.01 2.446-5.45 5.462-5.45 3.017 0 5.462 2.44 5.462 5.45" transform="matrix(-1 0 0 1 76.801 18.263)"/>
            <path fill="#676866" d="M40.055 39.963c0 1.46-1.26 2.643-2.814 2.643s-2.813-1.183-2.813-2.643c0-1.459 1.26-2.642 2.813-2.642 1.554 0 2.814 1.183 2.814 2.642" transform="matrix(-1 0 0 1 76.801 18.263)"/>
            <path fill="#868884" d="M37.357 39.426c-.513.746-1.351 1.074-1.873.732-.52-.341-.527-1.223-.013-1.969.513-.746 1.351-1.074 1.872-.733.521.342.527 1.224.014 1.97" transform="matrix(-1 0 0 1 76.801 18.263)"/>
            <path fill="#FFCB52" d="M1.7 34.945c-.099.177-.028.398.154.49l7.531 3.809c.468.255.994.389 1.53.389h1.204c.266 0 .476-.22.46-.482-.08-1.289-.663-4.556-3.479-5.822-3.75-1.687-6.724.405-7.4 1.616" transform="matrix(-1 0 0 1 76.801 18.263)"/>
            <path fill="url(#prefix__b)" d="M43.266 38.98h-9.465c-1.687 0-2.106 3.25-3.765 3.25-1.66 0-13.903.101-14.926 0-1.023-.101-1.47-2.363-3.566-6.064-2.094-3.7-4.887-2.703-5.237-3.406-.348-.704 4.595-9.974 5.237-10.256.922-.404 1.799-.438 2.372-.308.298.068.513.18.613.308.294.372-2.087 5.54-1.111 6.722.896 1.087-.512 10.01 1.876 11.435.21.124.446.192.717.192 3.368 0 8.402-.099 9.344-1.25.943-1.152-2.14-9.293-2.083-10.18.056-.886 9.421-2.069 10.03-1.675.61.394-.41 2.576 1.083 2.576h8.432c1.645 0 .849 6.292 1.248 6.652.398.36.599 2.004-.799 2.004" transform="matrix(-1 0 0 1 76.801 18.263)"/>
            <path fill="#FFCB52" d="M44.858 39.028c-.1.211-.254.352-.478.352H34.047c-.869 0-2.185 2.565-2.865 2.565-.682 0-1.279-.678-1.587-1.086 0 0-1.126-1.036-1.126-4.092 0-3.058 2.358-5.721 6.143-5.721 3.786 0 7.313 3.265 8.443 5.369 0 0 1.586.302 1.792.598.05.07.097.244.13.467.07.465.074 1.14-.12 1.548" transform="matrix(-1 0 0 1 76.801 18.263)"/>
            <path fill="#B5B7B4" d="M43.939 35.333l-.06.005c-.253.02-.474-.16-.495-.404l-.348-4.065c-.02-.243.167-.457.418-.477l.06-.005c.253-.02.474.16.495.404l.348 4.065c.02.243-.166.457-.418.477" transform="matrix(-1 0 0 1 76.801 18.263)"/>
            <path fill="#676866" d="M25.17 41.945h-9.09c-2.03 0-4.092-6.47-4.694-7.875-.602-1.404 1.004-7.02 2.055-10.259.32-.985.473-1.614.531-2.013.3.07.517.184.617.313.296.38-2.1 5.64-1.118 6.843.902 1.107-.515 10.19 1.888 11.641.025.267.102.447.267.447h7.25c1.505 0 1.907-.752 2.295-.902.387-.15 1.016.65 1.484.851.467.202-.116.954-1.484.954" transform="matrix(-1 0 0 1 76.801 18.263)"/>
            <path fill="#F17B7B" d="M22.841 9.772s1.562.037 2.815 1.478c1.254 1.44 1.489 0 1.489 0s-1.92-2.5-1.802-3.984c.117-1.483-2.502 2.506-2.502 2.506" transform="matrix(-1 0 0 1 76.801 18.263)"/>
            <path fill="#3A3B39" d="M22.59 10.518s-.43-.146-.41-.895c.02-.749.41-.146.41-.146s.024.767.251 1.04c0 0-.085.116-.25 0" transform="matrix(-1 0 0 1 76.801 18.263)"/>
            <path fill="url(#prefix__c)" d="M21.016 6.15c.36 1.074-.126 1.515-.126 2.21 0 2.533.572 3.433 5.77-.273 4.06-2.895-3.82-7.895-5.644-4.042 0 0-.361 1.031 0 2.105z" transform="matrix(-1 0 0 1 76.801 18.263)"/>
            <path fill="#FFFFFE" d="M21.104 8.626l1.565-.537s.247.613-.574.896c-.821.282-.99-.359-.99-.359" transform="matrix(-1 0 0 1 76.801 18.263)"/>
            <path fill="#1D1E1C" d="M21.812 6.255c.017.183-.1.339-.263.35-.163.01-.308-.128-.326-.31-.017-.182.1-.339.263-.35.162-.01.308.128.326.31" transform="matrix(-1 0 0 1 76.801 18.263)"/>
            <path fill="#515251" d="M23.919 9.248s-.485 1.119-1.078 1.259c0 0 .172.14.553 0 .381-.14 1.765-1.172 1.765-1.172l-1.24-.087" transform="matrix(-1 0 0 1 76.801 18.263)"/>
            <path fill="#3A3B39" d="M23.973 6.606s-.79 2.852-.32 3.251c.468.399 3.11-1.647 3.16-2.329.05-.682-2.84-.922-2.84-.922" transform="matrix(-1 0 0 1 76.801 18.263)"/>
            <path fill="#515251" d="M22.845 4.936s.572.613 1.165 2.768c.594 2.156 4.439.87 4.459.435.02-.435-3.252-4.587-4.5-4.142-1.247.445-1.124.939-1.124.939" transform="matrix(-1 0 0 1 76.801 18.263)"/>
            <path fill="url(#prefix__d)" d="M28.318 8.583l-2.131.334c-.73 0-1.658-.269-1.768-1.005-.124-.82-.747-2.705-1.377-3.182-1.347-1.021-2.012-.267-2.529-.273-.839-.012.216-1.994.397-2.265.712-1.076 1.85-1.858 3.102-2.105 2.39-.471 4.745 1.018 5.515 3.283.1.29.172.596.216.91.015.115.027.232.036.346.112 1.552-.47 2.966-1.46 3.957" transform="matrix(-1 0 0 1 76.801 18.263)"/>
            <path fill="#3A3B39" d="M23.794 4.598c.06.068.054.166-.02.223-.682.531-4.44 1.012-5.363 1.123l-.025.001c-.097 0-.18-.069-.18-.156 0-.047.013-.09.037-.13.032-.058.086-.106.155-.136l1.948-.824.003-.001.236-.89c.016-.055.067-.1.133-.111 1.833-.31 2.804.592 3.076.901" transform="matrix(-1 0 0 1 76.801 18.263)"/>
            <path fill="#515251" d="M23.172 4.734s-2.778.714-4.965.88c.03-.052.08-.096.146-.123l1.833-.756h.002s1.443-.25 2.984 0" transform="matrix(-1 0 0 1 76.801 18.263)"/>
            <path fill="#797B79" d="M21.517 3.798c0 .091-.074.165-.165.165-.092 0-.166-.074-.166-.165 0-.09.074-.165.166-.165.091 0 .165.074.165.165" transform="matrix(-1 0 0 1 76.801 18.263)"/>
            <path fill="#FD9797" d="M20.803 7.17c-.037.474-.33.733-.231.729.405-.018.576.083.688-.118.11-.201.38-1.5-.2-1.512-.038.33-.221.441-.257.901z" transform="matrix(-1 0 0 1 76.801 18.263)"/>
            <path fill="#FFF6E8" d="M23.734.932c.218.376.07 1.004-.332 1.4-.402.398-.904.415-1.122.039-.218-.377-.07-1.004.332-1.401s.904-.414 1.122-.038M28.639 7.005c.239.14.209.444-.068.68-.277.234-.695.312-.934.172-.24-.14-.209-.444.068-.679.277-.235.695-.312.934-.173" transform="matrix(-1 0 0 1 76.801 18.263)"/>
            <path fill="#FFF6E8" d="M23.092 2.665c.12.047.104.148-.034.227-.138.078-.347.104-.467.057-.12-.046-.104-.148.034-.226.138-.078.347-.104.467-.058M28.72 6.298c.119.047.104.148-.035.227-.138.078-.347.104-.466.057-.12-.046-.105-.148.033-.226.139-.078.348-.104.467-.058" transform="matrix(-1 0 0 1 76.801 18.263)"/>
            <path fill="#4F433B" d="M21.18 38.488s1.632 2.318 1.28 2.83c0 0-4.695.667-5.572 0 0 0-.15-.563 1.155-.666 1.305-.102 3.163-.717 2.56-1.742-.602-1.025.577-.422.577-.422" transform="matrix(-1 0 0 1 76.801 18.263)"/>
            <path fill="#E38E1D" d="M12.254 19.795c-.135-.851 2.166-.776 3.032-.221.866.554.741 1.894 0 1.894-.74 0-2.835-.431-3.032-1.673" transform="matrix(-1 0 0 1 76.801 18.263)"/>
            <path fill="#676866" d="M15.559 20.973c0 .273-.149.495-.331.495-.183 0-.331-.222-.331-.495 0-.274.148-.496.33-.496.183 0 .332.222.332.496" transform="matrix(-1 0 0 1 76.801 18.263)"/>
            <path fill="#FDA5A5" d="M17.248 20.925s-.645.219-.897 0c-.251-.22-1.274-1.13-1.953-.63-.679.498.959.633 1.233.915.275.281-.098.429-.017.695.082.266.492.363 1.063-.099.571-.461.868-.52.868-.52l-.297-.361" transform="matrix(-1 0 0 1 76.801 18.263)"/>
            <path fill="#3A3B39" d="M16.463 20.95l-1.288-.473s-.347.03-.266.416c.08.387 1.225.905 1.225.905l.292-.76.037-.087z" transform="matrix(-1 0 0 1 76.801 18.263)"/>
            <path fill="#676866" d="M16.727 21.515c-.066.265-.264.444-.441.4-.178-.044-.268-.295-.201-.56.066-.266.264-.445.441-.401.177.044.267.295.201.56" transform="matrix(-1 0 0 1 76.801 18.263)"/>
            <path fill="#3A3B39" d="M13.604 20.747s.43-.303.74-.267c.31.036.78.85.426 1.225-.22.234-1.001-.036-.761-.12.317-.11.335-.334.062-.445-.371-.152-.582-.162-.467-.393" transform="matrix(-1 0 0 1 76.801 18.263)"/>
            <path fill="#676866" d="M14.897 21.633c0 .091-.149.165-.331.165-.183 0-.332-.074-.332-.165 0-.091.149-.165.332-.165.182 0 .33.074.33.165" transform="matrix(-1 0 0 1 76.801 18.263)"/>
            <path fill="#FDA5A5" d="M16.147 21.073c-.29.005-.634.242-.668.44-.034.197.296.589.296.589-.419.085-.53-.062-.53-.062s-.298-.031-.452-.377c-.066-.154-.103-.438-.078-.667-.148.051-.258.131-.285.265-.016.086-.053.17-.098.245-.114.193-.278.335-.278.335s-.344-.05-.46-.306c-.113-.256.213-1.234.85-1.386.079-.02.698.124.725.267l.13-.027c.159.067.278.18.326.284.328.101.773.397.522.4" transform="matrix(-1 0 0 1 76.801 18.263)"/>
            <path fill="#222123" d="M20.921 6.466L21.066 6.517 20.727 7.768 21.204 7.761 21.206 7.914 20.544 7.924z" transform="matrix(-1 0 0 1 76.801 18.263) rotate(7 20.875 7.195)"/>
            <path fill="#3A3B39" d="M31.676 23.259s.461 2.967-.564 3.843c-1.025.876-7.951.968-10.543 2.27-5.086 2.554.32 9.151.32 9.151s-.12.45-.897.45c0 0-6.306-7.617-2.61-11.75 2.787-3.115 8.042-2.164 8.554-3.964.513-1.8 5.74 0 5.74 0" transform="matrix(-1 0 0 1 76.801 18.263)"/>
            <path fill="#FCB717" d="M24.231 10.987s1.566-1.705 2.579-1.739c1.013-.033.31 1.133.31 1.133s2.12.691 3.944 5.863c1.824 5.172.71 7.026.71 7.026s-5.48 1.147-6.635 0c-1.906-1.893.645-10.478-.064-11.552 0 0-1.198.293-.844-.731" transform="matrix(-1 0 0 1 76.801 18.263)"/>
            <path fill="#E38E1D" d="M18.018 20.501s-1.173-.14-1.134.254c.034.347.097.645.488.698.457.061.835-.085.835-.085l-.19-.867" transform="matrix(-1 0 0 1 76.801 18.263)"/>
            <path fill="#FFCB52" d="M17.224 20.695c-.044-.145.059-.191.208-.212.987-.14 4.292-.733 6.027-2.564 2.053-2.167 2.062-5.8 3.136-6.23 1.074-.432 1.991.282 2.193 1.24.202.957-2.156 5.3-4.726 6.654-2.68 1.412-5.577 1.83-6.357 1.882-.113.008-.282.004-.316-.105l-.165-.665" transform="matrix(-1 0 0 1 76.801 18.263)"/>
            <path fill="#4F433B" d="M33.709 27.402l-.291-.704c-.183-.444-.653-.689-1.112-.58-2.157.506-8.061 1.849-9.61 1.723-1.502-.122-.638 1.936-.204 2.816.118.239.358.389.62.389h.215s4.467-2.635 10.008-2.635l.185-.167c.234-.21.31-.549.189-.842" transform="matrix(-1 0 0 1 76.801 18.263)"/>
            <path fill="#20211F" d="M35.914 30.385h12.253c1.901 0 3.14-.441 3.14-2.613s.265-11.589-4.025-11.589h-9.864c-2.521 0-3.981 0-3.981 5.422 0 4.879-.177 8.78 2.477 8.78" transform="matrix(-1 0 0 1 76.801 18.263)"/>
            <path fill="#676866" d="M50.98 23.12c-.283-3.41-1.15-7.267-3.777-7.267h-9.572c-2.447 0-3.863 0-3.863 5.579l-.002 1.687h17.213" transform="matrix(-1 0 0 1 76.801 18.263)"/>
            <path fill="#3A3B39" d="M35.914 29.725h12.253c1.901 0 3.14-.411 3.14-2.431s.265-10.78-4.025-10.78h-9.864c-2.521 0-3.981 0-3.981 5.043 0 4.538-.177 8.168 2.477 8.168" transform="matrix(-1 0 0 1 76.801 18.263)"/>
            <path fill="#007C9D" d="M43.09 27.235L41.349 27.235 41.349 24.8 38.909 24.8 38.909 23.064 41.349 23.064 41.349 20.629 43.09 20.629 43.09 23.064 45.53 23.064 45.53 24.8 43.09 24.8 43.09 27.235" transform="matrix(-1 0 0 1 76.801 18.263) matrix(1 0 0 -1 0 47.864)"/>
            <path fill="#FBDFB6" d="M11.917 18c0 .091-.148.165-.33.165-.184 0-.332-.074-.332-.165 0-.091.148-.165.331-.165.183 0 .331.074.331.165M15.474 19.817c-.024 0-.047-.01-.064-.03-.875-1.051-3.08-1.778-3.103-1.785-.045-.014-.069-.063-.055-.108.014-.045.062-.07.106-.055.093.03 2.274.749 3.18 1.836.03.037.026.09-.01.121-.015.014-.034.02-.054.02" transform="matrix(-1 0 0 1 76.801 18.263)"/>
            <path fill="#4F433B" d="M13.726 19.486l-.154-.044 2.004-6.104c.133-.406.49-.72.933-.82l1.33-.298.037.146-1.33.298c-.387.088-.7.362-.817.717l-2.003 6.105" transform="matrix(-1 0 0 1 76.801 18.263)"/>
            <path fill="#676866" d="M17.804 12.5c-.187.818-.676 1.43-1.093 1.367-.418-.063-.605-.778-.418-1.596.186-.818.676-1.43 1.093-1.367.417.063.604.777.418 1.596M14.287 19.156l.22.029.059.24s-.86.093-1.253.05c-.395-.042.974-.319.974-.319" transform="matrix(-1 0 0 1 76.801 18.263)"/>
            <path fill="#F0A849" d="M13.81 20.807c-.009 0-.018 0-.026-.002-1.184-.242-1.517-.875-1.53-.902-.018-.034.008-.07.056-.083.05-.012.103.006.12.04.003.006.319.598 1.406.82.05.01.078.046.064.08-.012.03-.05.047-.09.047" transform="matrix(-1 0 0 1 76.801 18.263)"/>
            <path fill="#FBDFB6" d="M3.277 34.082c.128.133-.123.435-.562.674-.438.238-.898.324-1.026.19-.129-.133.123-.435.561-.674.439-.239.898-.324 1.027-.19M9.13 34.679c-.025 0-.05-.007-.072-.021-2.88-1.854-5.189-.583-5.212-.57-.067.038-.152.012-.188-.06-.036-.071-.011-.16.056-.199.025-.014 2.468-1.368 5.488.577.066.043.087.133.047.202-.027.046-.072.07-.12.07" transform="matrix(-1 0 0 1 76.801 18.263)"/>
            <path fill="#F0A849" d="M11.042 34.349c-.04 0-.081-.015-.112-.043-.038-.035-.38-.38-.934-1.814-.57-1.477 2.793-9.91 2.936-10.268.03-.075.123-.114.205-.087.083.028.125.112.095.188-.967 2.413-3.377 8.926-2.936 10.07.53 1.371.859 1.703.862 1.707.06.058.058.15-.005.206-.031.027-.071.04-.111.04" transform="matrix(-1 0 0 1 76.801 18.263)"/>
            <path fill="#FBDFB6" d="M33.997 32.209c.327.655-.178 1.7-1.129 2.335-.95.634-1.986.618-2.313-.037-.327-.655.178-1.7 1.129-2.335.95-.635 1.986-.618 2.313.037M42.216 36.66c-.047 0-.094-.02-.124-.062-3.495-4.673-7.137-4.576-7.17-4.575-.095.006-.16-.064-.163-.15-.004-.088.063-.162.149-.165.155-.007 3.832-.115 7.433 4.7.052.069.038.168-.03.22-.029.022-.062.033-.095.033" transform="matrix(-1 0 0 1 76.801 18.263)"/>
            <path fill="#F0A849" d="M26.944 40.624c-.026 0-.052-.007-.077-.02-.072-.043-.097-.136-.054-.208.3-.51-.274-2.16-.83-3.754-.864-2.48-1.757-5.045-.615-5.872 1.84-1.332 6.694-2.006 6.9-2.034.084-.013.16.046.172.13.011.082-.047.158-.13.17-.05.006-4.985.691-6.763 1.979-.96.695-.065 3.263.725 5.528.63 1.81 1.176 3.375.804 4.006-.028.048-.08.075-.132.075" transform="matrix(-1 0 0 1 76.801 18.263)"/>
            <path fill="#726055" d="M23.432 30.385c-.055 0-.109-.034-.134-.093-.035-.081-.076-.169-.12-.26-.166-.351-.354-.748-.335-1.125.04-.808 1.053-.855 1.54-.878l.034-.002c.875-.042 1.74-.124 2.646-.252 1.552-.22 3.582-.572 5.51-1.343.078-.03.162.012.19.095.028.083-.01.176-.087.207-1.957.782-4.007 1.137-5.575 1.36-.914.129-1.787.212-2.671.254l-.035.002c-.4.019-1.231.058-1.257.575-.015.289.154.645.303.96.046.095.089.187.125.272.035.08.002.176-.072.213-.02.01-.04.015-.062.015" transform="matrix(-1 0 0 1 76.801 18.263)"/>
            <path fill="#676866" d="M37.718 17.91c.125.337-.358.724-1.078.865-.72.14-1.406-.019-1.53-.355-.126-.337.357-.724 1.078-.864.72-.14 1.405.018 1.53.355M49.503 19.817c-.056 0-.11-.031-.136-.084-.01-.02-.994-1.927-2.505-1.927h-8.64c-.085 0-.153-.067-.153-.15 0-.084.068-.151.152-.151h8.64c1.7 0 2.735 2.007 2.778 2.093.038.074.007.165-.068.202-.022.011-.045.017-.068.017" transform="matrix(-1 0 0 1 76.801 18.263)"/>
            <path fill="#3A3B39" d="M44.858 38.972H34.097l2.404-2.311-.272.773h8.747c.07.462.075 1.132-.118 1.538" transform="matrix(-1 0 0 1 76.801 18.263)"/>
            <path fill="#FFFFFE" d="M52.335 36.42c.003-.03.005-.06.005-.09 0-.547-.482-.99-1.077-.99s-1.077.443-1.077.99v.02c-.491.092-.862.492-.862.971 0 .547.482.99 1.077.99.289 0 .55-.104.744-.274.193.17.455.275.743.275.595 0 1.078-.444 1.078-.99 0-.401-.26-.745-.631-.902M51.08 32.257c.009-.017.02-.034.026-.052.12-.332-.081-.69-.449-.798-.367-.108-.762.074-.881.406l-.003.013c-.324-.034-.64.141-.745.433-.12.332.081.69.448.797.179.053.363.036.52-.032.082.138.22.25.399.303.367.108.762-.074.881-.407.088-.244.002-.5-.195-.663M46.406 37.807c-.001.004 0 .009-.002.013-.323-.012-.622.186-.701.485-.091.342.137.687.509.77.18.041.361.012.51-.068.093.134.24.237.42.277.372.084.747-.126.838-.467.067-.252-.04-.503-.247-.653.006-.018.015-.035.02-.054.091-.342-.137-.687-.509-.77-.372-.084-.747.125-.838.467M51.304 39.242c-.042-.174-.294-.293-.562-.266-.13.014-.24.06-.314.122-.1-.045-.227-.067-.357-.053-.268.027-.452.19-.41.364.031.127.176.224.356.257.001.01 0 .019.003.028.042.174.294.293.562.265.269-.027.452-.19.41-.363l-.002-.007c.215-.051.352-.195.314-.347M48.314 36.052c-.192-.094-.453-.057-.582.084-.063.069-.082.15-.064.225-.102.016-.196.06-.259.128-.129.141-.078.332.115.427.142.07.32.067.455.005l.03.018c.192.094.453.057.582-.085.129-.14.078-.332-.115-.426-.002-.002-.005-.002-.007-.003.074-.133.014-.29-.155-.373" transform="matrix(-1 0 0 1 76.801 18.263)"/>
            <path fill="#FFFFFE" d="M56.31 32.167c-.514-.714-1.522-.884-2.251-.38l-.025.02c-.548-.507-1.401-.583-2.04-.14-.729.504-.902 1.492-.388 2.207.25.347.616.564 1.01.64-.059.388.027.8.277 1.146.515.715 1.523.885 2.252.38.533-.37.768-.998.654-1.588.042-.024.084-.05.124-.077.729-.505.903-1.493.388-2.208M54.946 28.673c-.043-.174-.294-.293-.563-.265-.13.013-.24.058-.314.121-.1-.045-.226-.066-.357-.053-.268.027-.452.19-.41.364.032.127.176.225.357.257 0 .01 0 .019.002.029.043.173.294.292.563.265.268-.028.452-.19.41-.364l-.003-.007c.215-.051.352-.195.315-.347M57.91 37.315c.23-.036.386-.24.346-.454-.02-.103-.081-.19-.166-.248.059-.081.086-.182.067-.286-.04-.214-.26-.358-.49-.321-.17.027-.298.144-.338.289-.013 0-.026 0-.039.002-.23.037-.386.24-.346.454.04.214.26.358.49.321l.008-.002c.071.171.265.278.468.245" transform="matrix(-1 0 0 1 76.801 18.263)"/>
        </g>
    </g>
</svg>
