<svg width="41" height="30" viewBox="0 0 41 30" fill="none" xmlns="http://www.w3.org/2000/svg">
<path fill-rule="evenodd" clip-rule="evenodd" d="M13.9397 19.7285C13.7078 19.4309 13.4295 19.1972 13.0815 19.0059C12.7336 18.8358 12.3161 18.7296 11.8522 18.7296C11.4811 18.7296 11.1332 18.7933 10.8085 18.9421C10.4838 19.0909 10.2286 19.3247 10.0431 19.6647H10.0199V18.8996H8.44269L8.44269 29.5266H10.1127V24.2131H10.1359C10.3446 24.5106 10.5998 24.7444 10.9245 24.8932C11.2492 25.042 11.5971 25.127 11.9682 25.127C12.4089 25.127 12.8032 25.042 13.1279 24.872C13.4526 24.7019 13.731 24.4681 13.9629 24.1706C14.1949 23.873 14.3572 23.5542 14.4732 23.1716C14.5892 22.7891 14.6356 22.4065 14.6356 22.0027C14.6356 21.5776 14.5892 21.1525 14.4732 20.7699C14.334 20.3661 14.1717 20.0261 13.9397 19.7285ZM0 24.957L3.17761 16.5829H5.05634L8.18756 24.957H6.26244L5.63619 23.0866H2.50498L1.85554 24.957H0ZM4.08218 18.6446L2.99205 21.7264H5.17231L4.10538 18.6446H4.08218ZM12.6408 23.2779C12.7568 23.1079 12.8264 22.8953 12.8728 22.6615C12.9192 22.4278 12.9424 22.194 12.9424 21.9389C12.9424 21.6839 12.9192 21.4501 12.8728 21.2163C12.8264 20.9825 12.7336 20.7912 12.6177 20.5999C12.4785 20.4086 12.3393 20.2599 12.1538 20.1536C11.9682 20.0473 11.7363 19.9836 11.4811 19.9836C11.2028 19.9836 10.9709 20.0473 10.7853 20.1536C10.5998 20.2811 10.4606 20.4299 10.3446 20.5999C10.2518 20.7699 10.1591 20.9825 10.1127 21.2163C10.0663 21.4501 10.0431 21.6839 10.0431 21.9389C10.0431 22.194 10.0663 22.4278 10.1127 22.6615C10.1823 22.8953 10.2518 23.1079 10.3678 23.2779C10.4838 23.4479 10.6461 23.5967 10.8317 23.703C11.0173 23.8093 11.2492 23.873 11.5043 23.873C11.7827 23.873 12.0146 23.8093 12.2002 23.703C12.3857 23.5967 12.5249 23.4479 12.6408 23.2779ZM20.4109 19.6222C20.1326 19.3459 19.8079 19.1334 19.4136 18.9846C19.0193 18.8358 18.6018 18.7508 18.1147 18.7508C17.6276 18.7508 17.2101 18.8358 16.8158 18.9846C16.4215 19.1334 16.0968 19.3459 15.8185 19.6222C15.5401 19.8985 15.3314 20.2386 15.1922 20.6212C15.053 21.025 14.9603 21.4501 14.9603 21.9389C14.9603 22.4278 15.0299 22.8528 15.1922 23.2567C15.3546 23.6605 15.5401 23.9793 15.8185 24.2556C16.0968 24.5319 16.4215 24.7444 16.8158 24.8932C17.2101 25.042 17.6276 25.1057 18.1147 25.1057C18.6018 25.1057 19.0193 25.042 19.4136 24.8932C19.8079 24.7444 20.1326 24.5319 20.4109 24.2556C20.6892 23.9793 20.898 23.6392 21.0372 23.2567C21.1763 22.8741 21.2691 22.4278 21.2691 21.9389C21.2691 21.4501 21.1995 21.0037 21.0372 20.6212C20.898 20.2173 20.6892 19.8985 20.4109 19.6222ZM19.2976 23.2567C19.4136 23.0866 19.4831 22.8741 19.5295 22.6403C19.5759 22.4278 19.5991 22.1727 19.5991 21.9389C19.5991 21.6839 19.5759 21.4501 19.5295 21.2163C19.4831 20.9825 19.4136 20.7699 19.2976 20.5999C19.1816 20.4086 19.0193 20.2599 18.8337 20.1536C18.625 20.0473 18.393 19.9836 18.1147 19.9836C17.8364 19.9836 17.6044 20.0473 17.4189 20.1536C17.2333 20.2811 17.0941 20.4299 16.9782 20.5999C16.8622 20.7699 16.7926 20.9825 16.7462 21.2163C16.6998 21.4501 16.6766 21.7051 16.6766 21.9389C16.6766 22.1727 16.6998 22.4065 16.7462 22.6403C16.7926 22.8741 16.8622 23.0654 16.9782 23.2567C17.0709 23.4479 17.2333 23.5967 17.4189 23.703C17.6044 23.8093 17.8364 23.873 18.1147 23.873C18.4162 23.873 18.6481 23.8093 18.8337 23.703C19.0193 23.5967 19.1816 23.4479 19.2976 23.2567ZM21.7562 24.957H23.4262V16.5829L21.7562 16.5829V24.957ZM26.1631 24.957H24.4931V16.5829H26.1631V24.957ZM32.7038 20.6212C32.5647 20.2173 32.3327 19.8985 32.0776 19.6222C31.7993 19.3459 31.4746 19.1334 31.0802 18.9846C30.6859 18.8358 30.2685 18.7508 29.7814 18.7508C29.2943 18.7508 28.8768 18.8358 28.4825 18.9846C28.0882 19.1334 27.7635 19.3459 27.4851 19.6222C27.2068 19.8985 26.9981 20.2386 26.8589 20.6212C26.7197 21.025 26.627 21.4501 26.627 21.9389C26.627 22.4278 26.6965 22.8528 26.8589 23.2567C26.9981 23.6392 27.23 23.9793 27.4851 24.2556C27.7635 24.5319 28.0882 24.7444 28.4825 24.8932C28.8768 25.042 29.2943 25.1057 29.7814 25.1057C30.2685 25.1057 30.6859 25.042 31.0802 24.8932C31.4746 24.7444 31.7993 24.5319 32.0776 24.2556C32.3559 23.9793 32.5647 23.6392 32.7038 23.2567C32.843 22.8741 32.9358 22.4278 32.9358 21.9389C32.9126 21.4501 32.843 21.025 32.7038 20.6212ZM30.9411 23.2567C31.0339 23.0866 31.1266 22.8741 31.173 22.6403C31.2194 22.4278 31.2426 22.1727 31.2426 21.9389C31.2426 21.6839 31.2194 21.4501 31.173 21.2163C31.1266 20.9825 31.0571 20.7699 30.9411 20.5999C30.8251 20.4086 30.6628 20.2599 30.4772 20.1536C30.2685 20.0473 30.0365 19.9836 29.7582 19.9836C29.4798 19.9836 29.2479 20.0473 29.0624 20.1536C28.8536 20.2811 28.7144 20.4299 28.5985 20.5999C28.4825 20.7699 28.4129 20.9825 28.3665 21.2163C28.3201 21.4501 28.2969 21.7051 28.2969 21.9389C28.2969 22.1727 28.3201 22.4065 28.3665 22.6403C28.4129 22.8741 28.4825 23.0654 28.5985 23.2567C28.7144 23.4479 28.8768 23.5967 29.0624 23.703C29.2479 23.8093 29.4798 23.873 29.7582 23.873C30.0597 23.873 30.2916 23.8093 30.4772 23.703C30.6859 23.5967 30.8251 23.4479 30.9411 23.2567Z" fill="#2582A1"/>
<path fill-rule="evenodd" clip-rule="evenodd" d="M14.8674 17.5606L15.8647 18.3257L16.8621 17.5606V15.2439H14.8906L14.8674 17.5606ZM16.9317 12.7147H14.5658V12.1621L9.16159 18.2407H12.0145L14.8442 14.9889H16.9317V12.7147ZM16.8389 12.4597H14.8674C14.8674 12.4597 14.8674 10.5043 14.8442 10.5043L13.6845 8.889H17.8826L16.8389 10.5043V12.4597ZM8.81368 5.6584H3.33984L3.33984 15.1589H5.9144L11.8521 8.65521L8.81368 5.6584ZM5.98398 8.95276H6.84217V8.20887H5.98398V7.35872H5.24177V8.20887H4.38358L4.38358 8.95276H5.24177V9.80292H5.98398L5.98398 8.95276ZM11.0635 14.7338L11.481 13.2673H12.0377L12.0377 9.20781L6.23912 15.5415V18.3257L9.1384 15.1589H10.4837C10.4605 15.1589 10.9244 15.2227 11.0635 14.7338ZM10.9475 11.7158L11.365 11.2907H10.5301L10.9475 11.7158Z" fill="#2582A1"/>
<path d="M13.4061 3.25669L13.3365 3.23544C9.99654 2.38528 9.78779 0.791236 9.88057 0.238634C9.64862 0.876252 9.67182 2.17274 9.90376 2.91663C10.2981 3.32045 11.6433 3.89431 12.919 4.02183L13.3365 4.0856C16.6997 4.72321 16.978 7.46497 15.7719 8.78271C15.9111 8.52767 17.3259 5.67964 13.8468 5.08453C13.6844 5.06328 13.5221 5.02077 13.3597 4.99952C10.9011 4.55318 10.6924 4.17061 10.5764 4.14936C10.4836 4.57444 11.0867 6.84861 13.3597 7.12491H13.3829C15.5168 7.37996 15.7255 8.44265 15.7487 8.78271C16.3749 8.33638 16.7692 7.54999 16.7924 6.67858V6.44478C16.7461 5.12704 15.7951 3.68177 13.4061 3.25669Z" fill="#FDB931"/>
<path fill-rule="evenodd" clip-rule="evenodd" d="M17.7423 29.559C17.4643 29.853 17.0622 30 16.536 30C16.0099 30 15.6078 29.853 15.3297 29.559C14.9568 29.1983 14.7703 28.6786 14.7703 28C14.7703 27.3077 14.9568 26.788 15.3297 26.441C15.6078 26.147 16.0099 26 16.536 26C17.0622 26 17.4643 26.147 17.7423 26.441C18.1136 26.788 18.2993 27.3077 18.2993 28C18.2993 28.6786 18.1136 29.1983 17.7423 29.559ZM11.7617 28.2077V29.8949H11V26.1154H11.7617V27.5564H13.2003V26.1154H13.9645V29.8949H13.2003V28.2077H11.7617ZM16.536 29.3308C16.2313 29.3308 15.9882 29.2154 15.8068 28.9846C15.6253 28.7538 15.5345 28.4256 15.5345 28C15.5345 27.5744 15.6253 27.2462 15.8068 27.0154C15.9882 26.7846 16.2313 26.6692 16.536 26.6692C16.8407 26.6692 17.0826 26.785 17.2615 27.0167C17.4405 27.2483 17.53 27.5761 17.53 28C17.53 28.4256 17.4405 28.7538 17.2615 28.9846C17.0826 29.2154 16.8407 29.3308 16.536 29.3308ZM21.5513 29.65C21.2941 29.8782 20.9307 29.9923 20.4612 29.9923C19.9816 29.9923 19.6045 29.8799 19.3298 29.6551C19.0551 29.4303 18.9177 29.1214 18.9177 28.7282H19.652C19.6753 28.9009 19.7211 29.0299 19.7893 29.1154C19.9142 29.2709 20.1282 29.3487 20.4312 29.3487C20.6127 29.3487 20.76 29.3282 20.8732 29.2872C21.088 29.2085 21.1954 29.0624 21.1954 28.8487C21.1954 28.7239 21.1421 28.6274 21.0356 28.559C20.929 28.4923 20.7617 28.4333 20.5336 28.3821L20.144 28.2923C19.761 28.2034 19.4963 28.1068 19.3498 28.0026C19.1017 27.8282 18.9776 27.5556 18.9776 27.1846C18.9776 26.8462 19.0975 26.565 19.3373 26.341C19.577 26.1171 19.9292 26.0051 20.3937 26.0051C20.7817 26.0051 21.1126 26.1107 21.3865 26.3218C21.6604 26.5329 21.804 26.8393 21.8173 27.241H21.078C21.0647 27.0137 20.9682 26.8521 20.7883 26.7564C20.6685 26.6932 20.5194 26.6615 20.3413 26.6615C20.1431 26.6615 19.985 26.7026 19.8668 26.7846C19.7485 26.8667 19.6894 26.9812 19.6894 27.1282C19.6894 27.2632 19.7477 27.3641 19.8643 27.4308C19.9392 27.4752 20.099 27.5274 20.3438 27.5872L20.9781 27.7436C21.2562 27.812 21.466 27.9034 21.6075 28.0179C21.8273 28.1957 21.9372 28.453 21.9372 28.7897C21.9372 29.135 21.8086 29.4218 21.5513 29.65ZM23.4972 29.8949V28.5359H24.2789C24.6868 28.5359 25.0007 28.4436 25.2205 28.259C25.4402 28.0744 25.5501 27.759 25.5501 27.3128C25.5501 26.9043 25.4402 26.6026 25.2205 26.4077C25.0007 26.2128 24.706 26.1154 24.3363 26.1154H22.733V29.8949H23.4972ZM23.4972 27.8846H24.214C24.3955 27.8846 24.5366 27.8393 24.6373 27.7487C24.738 27.6581 24.7884 27.5145 24.7884 27.3179C24.7884 27.1214 24.738 26.9812 24.6373 26.8974C24.5366 26.8137 24.3955 26.7718 24.214 26.7718H23.4972V27.8846ZM27.0402 29.8949V26.1154H26.276V29.8949H27.0402ZM29.5393 26.7846V29.8949H28.765V26.7846H27.6587V26.1154H30.6407V26.7846H29.5393ZM31.4664 29.8949L31.7212 29.1179H33.0773L33.3146 29.8949H34.1487L32.845 26.1154H31.9759L30.6622 29.8949H31.4664ZM31.9284 28.4667H32.8625L32.403 26.9795L31.9284 28.4667ZM37.417 29.8949V29.2154H35.5938V26.1154H34.8246V29.8949H37.417ZM40.6141 29.65C40.3569 29.8782 39.9935 29.9923 39.524 29.9923C39.0445 29.9923 38.6673 29.8799 38.3926 29.6551C38.1179 29.4303 37.9805 29.1214 37.9805 28.7282H38.7148C38.7381 28.9009 38.7839 29.0299 38.8521 29.1154C38.977 29.2709 39.191 29.3487 39.494 29.3487C39.6755 29.3487 39.8228 29.3282 39.9361 29.2872C40.1508 29.2085 40.2582 29.0624 40.2582 28.8487C40.2582 28.7239 40.205 28.6274 40.0984 28.559C39.9918 28.4923 39.8245 28.4333 39.5964 28.3821L39.2068 28.2923C38.8238 28.2034 38.5591 28.1068 38.4126 28.0026C38.1645 27.8282 38.0405 27.5556 38.0405 27.1846C38.0405 26.8462 38.1603 26.565 38.4001 26.341C38.6399 26.1171 38.992 26.0051 39.4565 26.0051C39.8445 26.0051 40.1754 26.1107 40.4493 26.3218C40.7232 26.5329 40.8668 26.8393 40.8801 27.241H40.1409C40.1275 27.0137 40.031 26.8521 39.8511 26.7564C39.7313 26.6932 39.5823 26.6615 39.4041 26.6615C39.206 26.6615 39.0478 26.7026 38.9296 26.7846C38.8114 26.8667 38.7522 26.9812 38.7522 27.1282C38.7522 27.2632 38.8105 27.3641 38.9271 27.4308C39.002 27.4752 39.1618 27.5274 39.4066 27.5872L40.041 27.7436C40.319 27.812 40.5288 27.9034 40.6703 28.0179C40.8901 28.1957 41 28.453 41 28.7897C41 29.135 40.8714 29.4218 40.6141 29.65Z" fill="#2582A1"/>
</svg>
