<svg xmlns="http://www.w3.org/2000/svg" width="24" height="24" viewBox="0 0 24 24">
    <g fill="none" fill-rule="evenodd">
        <path d="M0 0H24V24H0z"/>
        <g fill-rule="nonzero">
            <path fill="#717171" d="M3.594 2.321c.157.157.166.422.049.686L5.82 5.185l-.636.636-2.179-2.178c-.263.117-.528.108-.685-.05-.234-.234-.14-.708.212-1.06.352-.351.826-.446 1.06-.212zM12.079 10.806c.234.235.14.71-.212 1.06-.352.352-.826.447-1.06.213-.158-.157-.167-.422-.05-.685L8.579 9.215l.636-.636 2.178 2.178c.264-.117.529-.108.686.05zM5.821 9.215l-2.047 2.047c.117.264.108.529-.05.686-.234.234-.709.14-1.06-.212-.351-.351-.446-.826-.212-1.06.157-.158.422-.167.685-.05l2.048-2.047.636.636zM11.867 2.533c.351.352.446.826.212 1.06-.157.158-.422.167-.685.05L9.215 5.821l-.636-.636 2.178-2.178c-.117-.264-.108-.529.05-.686.234-.234.708-.14 1.06.212z" transform="translate(7.2 3)"/>
            <path fill="#E3E3E3" d="M12 7.2C12 9.851 9.851 12 7.2 12S2.4 9.851 2.4 7.2s2.149-4.8 4.8-4.8S12 4.549 12 7.2z" transform="translate(7.2 3)"/>
            <path fill="#BFBFBF" d="M.6 6.3c.222 0 .416.18.52.45H4.2v.9H1.12c-.104.269-.298.45-.52.45-.331 0-.6-.403-.6-.9s.269-.9.6-.9zM13.8 6.3c.331 0 .6.403.6.9s-.269.9-.6.9c-.222 0-.416-.181-.52-.45H10.2v-.9h3.08c.104-.27.298-.45.52-.45zM7.65 10.2v2.895c.269.104.45.298.45.52 0 .331-.403.6-.9.6s-.9-.269-.9-.6c0-.222.18-.416.45-.52V10.2h.9zM7.2 0c.497 0 .9.269.9.6 0 .222-.181.416-.45.52V4.2h-.9V1.12C6.48 1.016 6.3.822 6.3.6c0-.331.403-.6.9-.6zM6.75 6.75L7.65 6.75 7.65 7.65 6.75 7.65z" transform="translate(7.2 3)"/>
        </g>
        <g fill-rule="nonzero">
            <path fill="#717171" d="M1.832 1.175c.079.079.076.218.008.36l1.088 1.09-.353.353L1.484 1.89c-.142.068-.28.07-.359-.008-.117-.117-.054-.37.142-.565.195-.196.448-.259.565-.142zM6.075 5.418c.117.117.054.37-.142.565-.195.196-.448.259-.565.142-.078-.078-.076-.217-.008-.359l-1.088-1.09.353-.354 1.09 1.088c.142-.068.281-.07.36.008zM2.978 4.625L1.955 5.651c.069.141.07.28-.007.358-.117.118-.37.054-.566-.141-.195-.195-.259-.449-.141-.566.078-.078.217-.076.36-.007l1.024-1.023.353.353zM5.983 1.267c.196.195.259.448.142.565-.078.078-.217.076-.359.008l-1.09 1.088-.354-.353 1.088-1.09c-.068-.142-.07-.281.008-.36.117-.117.37-.054.565.142z" transform="translate(3 13.8)"/>
            <path fill="#E3E3E3" d="M6 3.6C6 4.926 4.926 6 3.6 6 2.274 6 1.2 4.926 1.2 3.6c0-1.326 1.074-2.4 2.4-2.4C4.926 1.2 6 2.274 6 3.6z" transform="translate(3 13.8)"/>
            <path fill="#BFBFBF" d="M.3 3.15c.11 0 .208.1.26.25H2.1v.5l-1.54.002C.506 4.05.41 4.15.3 4.15c-.166 0-.3-.224-.3-.5s.134-.5.3-.5zM6.9 3.15c.166 0 .3.224.3.5s-.134.5-.3.5c-.11 0-.207-.1-.26-.248L5.1 3.9v-.5h1.54c.052-.15.15-.25.26-.25zM3.9 5.1l.002 1.448c.148.052.248.149.248.26 0 .165-.224.3-.5.3s-.5-.135-.5-.3c0-.111.1-.208.25-.26V5.1h.5zM3.65 0c.276 0 .5.134.5.3 0 .11-.1.207-.248.26L3.9 2.1h-.5V.56C3.25.508 3.15.41 3.15.3c0-.166.224-.3.5-.3zM3.375 3.375L3.825 3.375 3.825 3.825 3.375 3.825z" transform="translate(3 13.8)"/>
        </g>
        <g fill-rule="nonzero">
            <path fill="#717171" d="M1.34.832c.052.052.026.169-.055.299l.726.727-.353.353-.728-.725c-.13.08-.246.105-.298.053-.078-.078.017-.3.212-.495.196-.195.417-.29.495-.212zM4.168 3.66c.078.079-.017.3-.212.496-.196.195-.417.29-.495.212-.052-.052-.027-.168.053-.298l-.725-.728.353-.353.727.726c.13-.081.247-.107.299-.054zM2.211 3.142l-.681.684c.08.13.105.246.053.298-.078.078-.3-.017-.495-.212s-.29-.417-.212-.495c.052-.052.169-.027.299.054l.683-.682.353.353zM4.156.844c.195.196.29.417.212.495-.052.052-.168.027-.298-.053l-.728.725-.353-.353.726-.727C3.634.8 3.608.684 3.66.632c.078-.078.3.017.495.212z" transform="translate(3 3)"/>
            <path fill="#E3E3E3" d="M4 2.4C4 3.284 3.284 4 2.4 4 1.516 4 .8 3.284.8 2.4c0-.884.716-1.6 1.6-1.6.884 0 1.6.716 1.6 1.6z" transform="translate(3 3)"/>
            <path fill="#BFBFBF" d="M.2 2.1c.074 0 .138.1.173.25H1.4v.5l-1.027.002C.338 3 .273 3.1.2 3.1c-.11 0-.2-.224-.2-.5s.09-.5.2-.5zM4.6 2.1c.11 0 .2.224.2.5s-.09.5-.2.5c-.074 0-.138-.1-.173-.248L3.4 2.85v-.5h1.027c.035-.15.1-.25.173-.25zM2.85 3.4l.002.965c.148.035.248.1.248.173 0 .11-.224.2-.5.2s-.5-.09-.5-.2c0-.074.1-.138.25-.173V3.4h.5zM2.6 0c.276 0 .5.09.5.2 0 .074-.1.138-.248.173L2.85 1.4h-.5V.373C2.2.338 2.1.273 2.1.2c0-.11.224-.2.5-.2zM2.25 2.25L2.55 2.25 2.55 2.55 2.25 2.55z" transform="translate(3 3)"/>
        </g>
    </g>
</svg>
