<svg xmlns="http://www.w3.org/2000/svg" width="16" height="14" viewBox="0 0 16 14">
    <g fill="#0589BB">
        <path d="M9.633 0H1.367C.611 0 0 .61 0 1.364v5.454c0 .755.61 1.364 1.367 1.364h.456v1.364c0 .328.341.566.675.4.009-.01.027-.01.036-.019C5.042 8.251 4.48 8.624 5.041 8.255c.073-.046.155-.073.246-.073h4.346c.756 0 1.367-.61 1.367-1.364V1.364C11 .609 10.39 0 9.633 0zM5.986 5.455H2.28c-.6 0-.603-.91 0-.91h3.707c.601 0 .603.91 0 .91zm2.735-1.819H2.279c-.6 0-.603-.909 0-.909h6.442c.6 0 .603.91 0 .91z"/>
        <path d="M14.133 3.5h-2.28v3.182c0 1.255-1.02 2.273-2.278 2.273H5.366l-.866.573v.791c0 .755.61 1.364 1.367 1.364h4.482l2.617 1.746c.357.197.71-.043.71-.382v-1.364h.457c.756 0 1.367-.61 1.367-1.364V4.864c0-.755-.61-1.364-1.367-1.364z"/>
    </g>
</svg>
