<svg xmlns="http://www.w3.org/2000/svg" width="24" height="24" viewBox="0 0 24 24">
    <g fill="none" fill-rule="evenodd">
        <path d="M0 0h24v24H0z"/>
        <path fill="#02475B" fill-rule="nonzero" d="M18.432 14.91l-2.262-.257a1.773 1.773 0 0 0-1.46.507l-1.64 1.64a13.4 13.4 0 0 1-5.87-5.87L8.85 9.282c.383-.383.57-.918.507-1.461l-.258-2.244A1.783 1.783 0 0 0 7.326 4H5.785c-1.007 0-1.844.837-1.782 1.844.472 7.606 6.556 13.68 14.153 14.153 1.007.062 1.844-.775 1.844-1.782v-1.54a1.765 1.765 0 0 0-1.568-1.764z"/>
    </g>
</svg>
