<svg xmlns="http://www.w3.org/2000/svg" width="24" height="24" viewBox="0 0 24 24">
    <g fill="none" fill-rule="evenodd">
        <path d="M0 0h24v24H0V0zm0 0h24v24H0V0z"/>
        <path fill="#02475B" fill-rule="nonzero" d="M21 3H3c-1.1 0-2 .9-2 2v14c0 1.1.9 2 2 2h18c1.1 0 2-.9 2-2V5c0-1.1-.9-2-2-2z"/>
        <path fill="#FFF" fill-rule="nonzero" d="M14 7.5h7V9h-7zM14 5h7v1.5h-7zM14 10h7v1.5h-7z"/>
        <path fill="#FFF" d="M9 7c1.66 0 3 1.34 3 3s-1.34 3-3 3-3-1.34-3-3 1.34-3 3-3zM15 19H3v-1c0-2 4-3.1 6-3.1s6 1.1 6 3.1v1z"/>
    </g>
</svg>
