<svg xmlns="http://www.w3.org/2000/svg" width="20" height="20" viewBox="0 0 20 20">
    <g fill="none" fill-rule="evenodd">
        <path d="M0 0h20v20H0z"/>
        <path fill="#0087BA" fill-rule="nonzero" d="M16.667 15.833h-.834v-12.5A.836.836 0 0 0 15 2.5h-3.333H5a.836.836 0 0 0-.833.833v12.5h-.834a.836.836 0 0 0-.833.834c0 .458.375.833.833.833h7.5a.836.836 0 0 0 .834-.833v-12.5h2.5v12.5c0 .458.375.833.833.833h1.667a.836.836 0 0 0 .833-.833c0-.306-.278-.584-.833-.834zm-6.667-5H8.333V9.167H10v1.666z"/>
    </g>
</svg>
