<svg xmlns="http://www.w3.org/2000/svg" xmlns:xlink="http://www.w3.org/1999/xlink" width="32" height="32" viewBox="0 0 32 32">
    <defs>
        <circle id="a" cx="16" cy="16" r="16"/>
    </defs>
    <g fill="none" fill-rule="evenodd">
        <mask id="b" fill="#fff">
            <use xlink:href="#a"/>
        </mask>
        <use fill="#007C9D" xlink:href="#a"/>
        <g fill-rule="nonzero" mask="url(#b)">
            <g transform="translate(5 4)">
                <path fill="#FFD7A3" d="M20.55 22.027c-.114-.794-.646-1.483-1.42-1.84l-1.125-.52a.343.343 0 0 0-.442.138l-.567-.193c3.908-.984 5.982-2.715 5.982-2.715-2.056-3.712-1.501-9.354-3.133-12.552C18.213 1.147 15.145 0 11.489 0 7.834 0 4.765 1.147 3.133 4.345 1.501 7.543 2.056 13.185 0 16.897c0 0 2.074 1.73 5.982 2.715l-.566.193a.34.34 0 0 0-.44-.14l-1.026.475c-.876.405-1.407 1.093-1.522 1.886l-.025.176-.6 4.158C1.678 27.23 2.41 28 3.356 28h16.266c.948 0 1.678-.771 1.553-1.64l-.625-4.333z"/>
                <path fill="#003646" d="M19.845 4.345C18.213 1.147 15.145 0 11.489 0 7.834 0 4.765 1.147 3.133 4.345 1.501 7.543 2.056 13.185 0 16.897c0 0 4.047 3.379 11.49 3.379 7.441 0 11.488-3.38 11.488-3.38-2.056-3.71-1.501-9.353-3.133-12.551z"/>
                <path fill="#00212A" d="M8.356 8.63c0-3.38 1.365-6.536 4.121-8.597A16.04 16.04 0 0 0 11.49 0C7.834 0 4.765 1.147 3.133 4.345 1.501 7.543 2.056 13.185 0 16.897c0 0 2.966 2.407 8.356 3.153V8.63z"/>
                <path fill="#FFD7A3" d="M20.575 22.202c-.128-.888-.777-1.637-1.686-1.946l-3.552-1.208c-.427-.132-.714-.5-.714-.916v-3.166H8.356v3.166c0 .415-.288.784-.714.916L4.09 20.256c-.91.309-1.559 1.058-1.687 1.946l-.6 4.158C1.678 27.23 2.41 28 3.356 28h16.266c.948 0 1.679-.771 1.553-1.64l-.6-4.158z"/>
                <path fill="#FDC88E" d="M8.356 18.132a.859.859 0 0 1-.003.07l-.004.036-.004.029a.971.971 0 0 1-.495.692c4.369.697 6.773-2.384 6.773-2.384l-6.267-.04v1.597z"/>
                <path fill="#FFE1B2" d="M18.8 9.655V8.69c0-1.333-1.169-2.414-2.61-2.414h-9.4c-1.443 0-2.612 1.08-2.612 2.414v.965c-.865 0-1.567.649-1.567 1.448 0 .8.702 1.449 1.567 1.449v.482c0 1.17.76 2.224 1.928 2.674l3.374 1.3c.637.245 1.32.371 2.01.371.689 0 1.371-.126 2.008-.371l3.374-1.3c1.168-.45 1.929-1.504 1.929-2.674v-.482c.865 0 1.566-.649 1.566-1.449s-.701-1.448-1.566-1.448z"/>
                <path fill="#FFD7A3" d="M16.059 7.702V6.457H5.798c-.95.36-1.62 1.224-1.62 2.233v.965c-.865 0-1.567.649-1.567 1.448 0 .8.702 1.449 1.567 1.449v.482c0 1.17.76 2.224 1.928 2.674l3.374 1.3c.166.064.334.118.505.166-1.491-1.009-2.484-1.89-3.066-2.467a2.172 2.172 0 0 1-.652-1.546V9.648c1.684-.038 7.03-.29 9.792-1.946z"/>
                <path fill="#623F33" d="M7.834 11.586c-.288 0-.523-.217-.523-.483v-.482c0-.266.235-.483.523-.483.287 0 .522.217.522.483v.482c0 .266-.235.483-.522.483zM15.145 11.586c-.287 0-.522-.217-.522-.483v-.482c0-.266.235-.483.522-.483.287 0 .522.217.522.483v.482c0 .266-.235.483-.522.483z"/>
                <path fill="#E4B07B" d="M11.49 14.979c-.93 0-1.798-.211-2.384-.58a.46.46 0 0 1-.137-.67.55.55 0 0 1 .725-.128c.41.258 1.082.412 1.795.412.714 0 1.385-.154 1.795-.412a.549.549 0 0 1 .726.128c.162.22.1.52-.138.67-.586.369-1.454.58-2.383.58z"/>
                <path fill="#003646" d="M5.222 8.69s3.33.301 5.223-.483c.266-.11 1.044-1.69 1.044-1.69V8.69s2.402-.115 4.896-1.046v-1.73H4.867c.237 1.104.355 2.776.355 2.776z"/>
                <path fill="#11DFBA" d="M19.13 20.187l-1.125-.52a.34.34 0 0 0-.47.203c-.723 2.46-3.156 4.268-6.046 4.268s-5.324-1.81-6.047-4.27a.338.338 0 0 0-.467-.202l-1.025.474c-.876.405-1.407 1.093-1.522 1.886l-.625 4.334c-.125.868.606 1.64 1.553 1.64h16.266c.948 0 1.679-.772 1.553-1.64l-.625-4.334c-.114-.792-.646-1.482-1.42-1.84z"/>
                <path fill="#BFF6EC" d="M2.666 21.31a2.224 2.224 0 0 0-.238.717l-.625 4.333C1.678 27.23 2.41 28 3.356 28h2.389v-1.931c0-.627-.22-1.237-.627-1.738l-2.452-3.022zM20.312 21.31c.119.225.202.464.238.717l.625 4.333c.125.869-.605 1.64-1.553 1.64h-2.388v-1.931c0-.627.22-1.237.626-1.738l2.452-3.022z"/>
                <path fill="#9FFFEE" d="M18.017 6.255c0 .65-1.418 1.176-2.121 1.176-.703 0-1.273-.526-1.273-1.176 0-.65.57-1.177 1.273-1.177s2.121.527 2.121 1.177z"/>
                <path fill="#11DFBA" d="M18.017 6.255c0-.65 1.419-1.177 2.122-1.177.703 0 1.273.527 1.273 1.177s-.57 1.176-1.273 1.176-2.122-.526-2.122-1.176z"/>
                <path fill="#11DFBA" d="M18.017 6.255c.609.325.393 1.724.042 2.287-.352.562-1.13.755-1.74.43-.608-.325-.817-1.044-.465-1.607.352-.563 1.554-1.435 2.163-1.11z"/>
                <path fill="#91F0DE" d="M18.017 6.255c-.609-.325-.393-1.724-.041-2.287.351-.563 1.13-.756 1.738-.43.61.324.818 1.044.466 1.607-.351.562-1.554 1.435-2.163 1.11z"/>
                <path fill="#91F0DE" d="M18.017 6.255c-.609.325-.393 1.724-.041 2.287.351.562 1.13.755 1.738.43.61-.325.818-1.044.466-1.607-.351-.563-1.554-1.435-2.163-1.11z"/>
                <path fill="#11DFBA" d="M18.017 6.255c.609-.325.393-1.724.042-2.287-.352-.563-1.13-.756-1.74-.43-.608.324-.817 1.044-.465 1.607.352.562 1.554 1.435 2.163 1.11z"/>
                <ellipse cx="18.017" cy="6.255" fill="#FFF" rx="1" ry="1"/>
                <path fill="#003646" d="M4.866 5.914c.238 1.104.356 2.776.356 2.776s1.506.135 3.069-.014V8.63c0-.928.11-1.839.325-2.715h-3.75z"/>
            </g>
        </g>
    </g>
</svg>
