<svg width="18" height="17" viewBox="0 0 18 17" fill="none" xmlns="http://www.w3.org/2000/svg">
<path fill-rule="evenodd" clip-rule="evenodd" d="M13.1666 1.49996V8.99996C13.1666 9.45829 12.7916 9.83329 12.3333 9.83329H3.99996L1.34947 12.4838C1.09748 12.7358 0.666626 12.5573 0.666626 12.2009V1.49996C0.666626 1.04163 1.04163 0.666626 1.49996 0.666626H12.3333C12.7916 0.666626 13.1666 1.04163 13.1666 1.49996ZM14.8333 3.99996H16.5C16.9583 3.99996 17.3333 4.37496 17.3333 4.83329V16.3676C17.3333 16.724 16.9024 16.9024 16.6504 16.6504L14 14H4.83329C4.37496 14 3.99996 13.625 3.99996 13.1666V11.5H14.8333V3.99996Z" fill="#0087BA"/>
</svg>
