<svg xmlns="http://www.w3.org/2000/svg" width="24" height="24" viewBox="0 0 24 24">
    <g fill="none" fill-rule="evenodd">
        <path d="M0 0H24V24H0z"/>
        <path fill="#02475B" fill-rule="nonzero" d="M15.488 14.695c2.648.621 5.343 1.9 5.504 3.868l.008.187V21H3v-2.25c0-2.075 2.782-3.415 5.513-4.056.129 1.566 1.287 2.839 2.797 3.14l.19.033v2.127H15l.083-.008c.204.587.761 1.008 1.417 1.008.828 0 1.5-.672 1.5-1.5 0-.829-.672-1.5-1.5-1.5-.609 0-1.133.362-1.368.884l-.05.123-.082-.007-2.5-.001v-1.126c1.576-.225 2.812-1.499 2.98-3.091l.008-.081zm1.012 4.299c.276 0 .5.223.5.5 0 .276-.224.5-.5.5s-.5-.224-.5-.5c0-.277.224-.5.5-.5zM12 14.25c.71 0 1.58.08 2.497.241l-.002.076c-.085 1.304-1.17 2.336-2.495 2.336-1.325 0-2.41-1.032-2.495-2.336l-.001-.076c.916-.161 1.786-.241 2.496-.241zM12 3c2.475 0 4.5 2.025 4.5 4.5S14.475 12 12 12 7.5 9.975 7.5 7.5 9.525 3 12 3z"/>
    </g>
</svg>
