<svg xmlns="http://www.w3.org/2000/svg" xmlns:xlink="http://www.w3.org/1999/xlink" width="24" height="24" viewBox="0 0 24 24">
    <defs>
        <path id="prefix__a" d="M0 0L16.575 0 16.575 11.338 0 11.338z"/>
        <path id="prefix__c" d="M0.441 0L4.575 0 4.575 11.338 0.441 11.338z"/>
        <path id="prefix__e" d="M0 24L16.576 24 16.576 0 0 0z"/>
    </defs>
    <g fill="none" fill-rule="evenodd">
        <path d="M0 0H24V24H0z"/>
        <g transform="translate(3.6)">
            <mask id="prefix__b" fill="#fff">
                <use xlink:href="#prefix__a"/>
            </mask>
            <path fill="#684F3D" d="M14.924.187c-.581.45-2.351 1.82-5.09.93C7.624.396 5.895.242 4.55.641c-1.275.379-2.194 1.273-2.734 2.661C.456 4.222-.16 5.691.035 7.56c.152 1.457.761 2.857 1.238 3.614.104.164.32.214.485.11.106-.066.163-.18.164-.297h11.323c0 .117.058.23.165.298.058.036.122.053.186.053.117 0 .231-.057.298-.164.507-.805 1.217-2.756 1.249-4.633 1.053-1.246 1.331-2.731 1.403-3.52.11-1.2-.102-2.278-.54-2.748-.31-.33-.723-.363-1.082-.086z" mask="url(#prefix__b)"/>
            <g transform="translate(12)">
                <mask id="prefix__d" fill="#fff">
                    <use xlink:href="#prefix__c"/>
                </mask>
                <path fill="#443428" d="M2.924.187c-.088.069-.205.159-.349.259.348.532.507 1.505.409 2.576-.072.788-.351 2.273-1.404 3.519-.03 1.745-.645 3.553-1.139 4.446h.804c0 .117.058.23.165.298.058.036.123.053.186.053.117 0 .231-.057.298-.164.507-.805 1.217-2.756 1.249-4.633C4.196 5.295 4.475 3.81 4.547 3.02c.11-1.2-.103-2.278-.542-2.748-.308-.33-.722-.363-1.081-.086z" mask="url(#prefix__d)"/>
            </g>
            <path fill="#F0EEEE" d="M5.23 16.685c-2.141 0-3.884 1.742-3.884 3.885v3.078c0 .195.158.352.352.352h12.027c.194 0 .351-.157.351-.352V20.57c0-2.142-1.743-3.884-3.884-3.884H5.23z"/>
            <path fill="#D9D4D4" d="M10.192 16.685H9.008c2.142 0 3.885 1.742 3.885 3.885v3.078c0 .195-.158.352-.352.352h1.184c.194 0 .351-.157.351-.352V20.57c0-2.142-1.743-3.884-3.884-3.884"/>
            <mask id="prefix__f" fill="#fff">
                <use xlink:href="#prefix__e"/>
            </mask>
            <path fill="#ABE7FF" d="M5.738 24L9.685 24 9.685 17.036 5.738 17.036z" mask="url(#prefix__f)"/>
            <path fill="#93D9FF" d="M7.711 17.385L7.711 19.112 9.685 20.484 9.685 17.037zM5.738 20.484L7.711 19.112 7.711 17.385 5.738 17.037z" mask="url(#prefix__f)"/>
            <path fill="#19303F" d="M11.377 20.426V18.73c0-1.959-1.593-3.551-3.55-3.551-1.959 0-3.551 1.592-3.551 3.55v1.46c0 .195-.158.352-.352.352-.194 0-.351-.157-.351-.352v-1.46c0-2.345 1.908-4.253 4.254-4.253 2.345 0 4.253 1.908 4.253 4.254v1.695c0 .194-.157.351-.352.351-.193 0-.351-.157-.351-.351z" mask="url(#prefix__f)"/>
            <path fill="#FFD7A3" d="M5.738 12.55v4.25c0 1.09.884 1.973 1.973 1.973 1.09 0 1.974-.883 1.974-1.973v-4.25H5.738zM3.924 10.5v2.653H1.61c-.733 0-1.327-.593-1.327-1.326 0-.734.594-1.327 1.327-1.327h2.314zM13.813 10.5h-2.315v2.653h2.315c.732 0 1.326-.593 1.326-1.326 0-.734-.594-1.327-1.326-1.327" mask="url(#prefix__f)"/>
            <path fill="#FFE1B2" d="M12.967 10.757c0 2.904-2.333 5.302-5.238 5.311-2.91.01-5.273-2.346-5.273-5.255V8.76c0-.041.025-.078.063-.096 1.272-.58 1.696-2.088 1.808-3.166.024-.233.033-.446.034-.625 0-.097.12-.142.183-.07.149.167.379.412.68.695 1.39 1.304 4.287 3.407 7.602 2.19.068-.024.14.027.14.1v2.969z" mask="url(#prefix__f)"/>
            <path fill="#19303F" d="M6.125 12.691c-.11-.159-.07-.378.09-.489.159-.11.378-.07.488.09.23.33.606.528 1.008.528s.78-.198 1.008-.529c.11-.16.33-.2.49-.089.159.11.198.33.089.49-.362.52-.954.83-1.587.83-.632 0-1.225-.31-1.586-.83z" mask="url(#prefix__f)"/>
            <path fill="#FDC88E" d="M11.873 11.36c0 2.512-1.967 4.563-4.443 4.7.046.004.093.005.139.007h.001l.141.001c.133 0 .266-.004.397-.015l.02-.001c.08-.006.158-.014.238-.024 2.593-.323 4.6-2.534 4.6-5.214V7.635c-.37.146-.735.25-1.093.318v3.407z" mask="url(#prefix__f)"/>
            <path fill="#19303F" d="M9.906 10.569v-.094c0-.194.157-.352.352-.352.194 0 .351.158.351.352v.094c0 .194-.157.351-.351.351-.195 0-.352-.157-.352-.351zM5.165 10.92c-.194 0-.352-.157-.352-.351v-.094c0-.194.158-.352.352-.352.194 0 .351.158.351.352v.094c0 .194-.157.351-.351.351" mask="url(#prefix__f)"/>
            <path fill="#78D6D1" d="M2.895 20.868c0 .568.462 1.03 1.03 1.03.567 0 1.029-.462 1.029-1.03 0-.567-.463-1.03-1.03-1.03s-1.03.463-1.03 1.03z" mask="url(#prefix__f)"/>
            <path fill="#304A56" d="M7.711 19.112l-1.056.735c.267.277.642.45 1.056.45.415 0 .79-.173 1.057-.45l-1.057-.735z" mask="url(#prefix__f)"/>
            <path fill="#3D5868" d="M7.271 20.23L6.785 24h1.852l-.486-3.77c-.139.044-.286.067-.44.067-.153 0-.3-.023-.44-.067zM12.49 23.018c-.194 0-.351-.158-.351-.352 0-.128.067-.24.17-.301v-1.008c0-.32-.26-.58-.58-.58-.32 0-.58.26-.58.58v1.008c.101.061.17.173.17.301 0 .194-.158.352-.352.352h-.17c-.195 0-.352-.158-.352-.352v-1.309c0-.707.576-1.283 1.283-1.283.708 0 1.284.576 1.284 1.283v1.31c0 .193-.158.351-.351.351h-.17z" mask="url(#prefix__f)"/>
        </g>
    </g>
</svg>
