<svg xmlns="http://www.w3.org/2000/svg" width="48" height="49" viewBox="0 0 48 49">
    <path fill="#00B38E" fill-rule="evenodd" d="M33.185 2.328A24 24 0 0148 24.5c-.015 13.249-10.751 23.985-24 24a24 24 0 119.185-46.172zM24 2.42c-12.194 0-22.08 9.885-22.08 22.08C1.92 36.694 11.807 46.58 24 46.58c12.195 0 22.08-9.885 22.08-22.08C46.066 12.312 36.189 2.435 24 2.42zm11.534 23.556c2.615 0-2.092 11.211-11.319 11.211-9.226 0-14.16-11.21-11.319-11.21zm-19.09-10.864a1.885 1.885 0 110 3.77 1.885 1.885 0 010-3.77zm15.113 0a1.885 1.885 0 110 3.77 1.885 1.885 0 010-3.77z"/>
</svg>
