<svg xmlns="http://www.w3.org/2000/svg" width="40" height="40" viewBox="0 0 40 40">
    <g fill="none" fill-rule="evenodd">
        <g fill-rule="nonzero">
            <path fill="#F7434C" d="M36.368 17.808H3.32a.627.627 0 0 0-.627.626v19.444c0 .346.28.626.627.626h33.047c.346 0 .626-.28.626-.626V18.434a.627.627 0 0 0-.626-.626z"/>
            <path fill="#DB2E37" d="M36.368 17.808H3.32a.627.627 0 0 0-.627.626v2.507h34.3v-2.507a.627.627 0 0 0-.626-.626z"/>
            <path fill="#FFDB57" d="M23.045 17.808h-6.402a.627.627 0 0 0-.627.626v19.444c0 .346.28.626.627.626h6.402c.347 0 .627-.28.627-.626V18.434a.627.627 0 0 0-.627-.626z"/>
            <path fill="#F5BA3D" d="M23.045 17.808h-6.402a.627.627 0 0 0-.627.626v2.493h7.656v-2.493a.627.627 0 0 0-.627-.626z"/>
            <path fill="#FFDB57" d="M35.147 6.231c-.615-1.601-1.584-3.165-2.594-4.184-.37-.374-.869-.563-1.437-.55-1.881.043-4.947 2.404-9.112 7.018a.626.626 0 0 0-.162.42v3.314c0 .346.28.627.627.627h9.639c2.148 0 3.034-1.045 3.4-1.922.487-1.168.359-2.846-.361-4.723z"/>
            <path fill="#EF9325" d="M35.505 7.323a.625.625 0 0 0-.082-.18c-.946-1.431-2.99-.896-4.539-.195-4.499 2.036-6.357 4.842-6.434 4.96a.626.626 0 0 0 .526.968h7.132c1.367 0 2.38-.42 3.013-1.247.75-.983.884-2.472.384-4.306z"/>
            <path fill="#FFDB57" d="M17.684 8.515C13.52 3.9 10.454 1.54 8.572 1.496c-.57-.012-1.067.177-1.437.551-1.01 1.019-1.98 2.583-2.594 4.185-.72 1.876-.848 3.554-.36 4.722.365.877 1.251 1.922 3.399 1.922h9.64c.345 0 .626-.28.626-.627V8.935a.626.626 0 0 0-.162-.42z"/>
            <path fill="#EF9325" d="M15.238 11.908c-.077-.118-1.935-2.924-6.434-4.96-1.549-.701-3.593-1.236-4.54.194a.628.628 0 0 0-.081.181c-.5 1.834-.367 3.323.385 4.306.632.827 1.645 1.247 3.012 1.247h7.132a.626.626 0 0 0 .526-.968z"/>
            <path fill="#F5BA3D" d="M22.469 7.689h-5.25a.627.627 0 0 0-.626.626v3.934c0 .346.28.627.626.627h5.25c.346 0 .626-.28.626-.627V8.315a.627.627 0 0 0-.626-.626z"/>
            <path fill="#F7434C" d="M39.062 11.624H.627A.627.627 0 0 0 0 12.25v6.184c0 .346.28.627.627.627h38.435c.346 0 .626-.28.626-.627V12.25a.627.627 0 0 0-.626-.626z"/>
            <path fill="#FFDB57" d="M15.031 11.624h9.627v7.437h-9.627z"/>
        </g>
        <path d="M0 0h40v40H0z"/>
    </g>
</svg>
