<svg xmlns="http://www.w3.org/2000/svg" width="15" height="17" viewBox="0 0 15 17">
    <g fill="none">
        <path fill="#0589BB" d="M15 16.336V17H0v-.664c0-.22.18-.398.402-.398h.67V3.983c0-.44.36-.796.803-.796h2.946V.796c0-.44.36-.797.804-.797h3.75c.444 0 .804.357.804.797v2.39h2.946c.444 0 .804.357.804.797v11.954h.67c.221 0 .401.178.401.398zm-4.688-9.961H8.973c-.222 0-.402.178-.402.398v1.329c0 .22.18.398.402.398h1.34c.221 0 .401-.178.401-.398V6.773c0-.22-.18-.398-.402-.398zM4.689 8.5h1.339c.222 0 .402-.178.402-.398V6.773c0-.22-.18-.398-.402-.398h-1.34c-.221 0-.401.178-.401.398v1.329c0 .22.18.398.402.398zm3.482 4.25H6.83c-.222 0-.401.178-.401.398v2.79H8.57v-2.79c0-.22-.18-.398-.401-.398zm2.143-3.188h-1.34c-.222 0-.402.179-.402.399v1.328c0 .22.18.399.402.399h1.34c.221 0 .401-.179.401-.399V9.961c0-.22-.18-.399-.402-.399zm-3.884.399c0-.22-.18-.399-.402-.399h-1.34c-.221 0-.401.179-.401.399v1.328c0 .22.18.399.402.399h1.339c.222 0 .402-.179.402-.399V9.961zm-.335-6.774h.87v.864c0 .11.09.199.201.199h.67c.11 0 .2-.09.2-.2v-.862h.871c.111 0 .201-.09.201-.2v-.664c0-.11-.09-.199-.2-.199h-.871v-.863c0-.11-.09-.2-.201-.2h-.67c-.11 0-.2.09-.2.2v.863h-.871c-.111 0-.201.09-.201.2v.663c0 .11.09.2.2.2z"/>
        <path d="M0 0H15V17H0z"/>
    </g>
</svg>
