<svg xmlns="http://www.w3.org/2000/svg" width="108" height="81" viewBox="0 0 108 81">
    <defs>
        <linearGradient id="prefix__a" x1="50%" x2="50%" y1="0%" y2="100%">
            <stop offset="0%" stop-color="#F4F3F3"/>
            <stop offset="100%" stop-color="#E7E4E4"/>
        </linearGradient>
        <linearGradient id="prefix__b" x1="50%" x2="50%" y1="0%" y2="100%">
            <stop offset="0%" stop-color="#FEAFAF"/>
            <stop offset="100%" stop-color="#FC8686"/>
        </linearGradient>
        <linearGradient id="prefix__c" x1="50%" x2="50%" y1="0%" y2="100%">
            <stop offset="0%" stop-color="#FEAEAE"/>
            <stop offset="100%" stop-color="#FD8989"/>
        </linearGradient>
        <linearGradient id="prefix__d" x1="50%" x2="50%" y1="0%" y2="100%">
            <stop offset="0%" stop-color="#FEAEAE"/>
            <stop offset="100%" stop-color="#FD8989"/>
        </linearGradient>
        <linearGradient id="prefix__e" x1="50%" x2="50%" y1="0%" y2="100%">
            <stop offset="0%" stop-color="#FEAFAF"/>
            <stop offset="100%" stop-color="#FC8484"/>
        </linearGradient>
        <linearGradient id="prefix__f" x1="50%" x2="50%" y1="0%" y2="100%">
            <stop offset="0%" stop-color="#FE9595"/>
            <stop offset="100%" stop-color="#FE9595"/>
        </linearGradient>
    </defs>
    <g fill="none" fill-rule="evenodd">
        <path fill="url(#prefix__a)" d="M64.802 40.105c-.206.33-.41.653-.629.976-1.91 2.866-4.28 5.62-6.905 8.15-.119.119-.243.237-.367.355-.374.355-.76.709-1.145 1.05-.666.61-1.35 1.2-2.047 1.766-.367.311-.747.616-1.12.914-4.343 3.432-8.985 6.434-13.558 8.697-1.419.708-2.838 1.342-4.238 1.89-7.305 2.89-14.106 3.566-18.799.698-1.494-.908-2.77-2.177-3.784-3.85l-.486-.802c-1.5-2.506-2.932-5.025-4.19-7.556-.298-.59-.578-1.175-.852-1.766C2.118 40.832.38 30.92 6.844 21.171c2.513-3.792 6.638-6.745 11.591-8.833 1.413-.603 2.888-1.125 4.418-1.579.753-.236 1.513-.441 2.29-.628.977-.248 1.973-.466 2.981-.652.772-.149 1.543-.28 2.321-.391l.97-.13c2.297-.292 4.624-.454 6.94-.472.304-.006.61-.006.908-.006 1.4.007 2.788.063 4.157.175.367.025.734.056 1.101.1 6.989.68 13.399 2.683 17.755 6.004.953.728 1.805 1.511 2.546 2.363.137.156.268.311.392.473l.125.15c.902 1.131 1.624 2.3 2.166 3.494 2.77 6.026 1.154 12.673-2.703 18.866" transform="translate(15.44 5.945) rotate(-5 35.75 37.46)"/>
        <path fill="#FCB717" d="M72.213 9.66h-1.62V5.683c0-2.224-1.78-4.034-3.966-4.034-2.187 0-3.965 1.81-3.965 4.034V9.66H61.04V5.68C61.04 2.55 63.547 0 66.627 0c3.08 0 5.586 2.549 5.586 5.682V9.66" transform="translate(15.44 5.945)"/>
        <path fill="#F2F8F8" d="M70.94 4.209l.528-.194c-.664-1.9-2.524-3.272-4.71-3.272-2.742 0-4.973 2.157-4.973 4.808v3.366h1.443v-.07h-.96v-3.04c0-2.393 2.015-4.522 4.49-4.522 1.901 0 3.529 1.257 4.182 2.924" transform="translate(15.44 5.945)"/>
        <path fill="#FCB717" d="M66.49 23.755c-3.743-.694-6.243-2.279-7.428-4.712-.982-2.014-.828-4.144-.737-5.417.021-.289.04-.539.04-.72 0-1.535-1.342-2.769-1.355-2.78l-.438-.39L58.01 7.24l.46.028c.487.029.914.043 1.303.043 2.25 0 2.838-.482 3.683-1.334.503-.507 1.109-.92 1.801-1.227.433-.193.894-.29 1.369-.29s.935.097 1.368.29c.693.307 1.299.72 1.801 1.227.846.852 1.434 1.334 3.684 1.334.389 0 .815-.014 1.303-.043l.46-.028 1.439 2.497-.438.39c-.012.01-1.355 1.236-1.355 2.78 0 .181.018.431.04.72.09 1.273.245 3.403-.737 5.417-1.186 2.433-3.685 4.018-7.428 4.712l-.137.025-.137-.025" transform="translate(15.44 5.945)"/>
        <path fill="#FCB717" d="M74.238 8.323c-3.298.206-4.101-.326-5.191-1.478-.482-.51-1.022-.84-1.473-1.05-.632-.295-1.356-.295-1.988 0-.451.21-.99.54-1.472 1.05-1.09 1.152-1.894 1.684-5.192 1.478l-.86 1.566s1.49 1.388 1.49 3.25c0 1.048-.472 3.539.635 5.81l14.26-10.246-.209-.38" transform="translate(15.44 5.945)"/>
        <path fill="#FFCB52" d="M73.702 12.906c0-1.83 1.442-3.145 1.442-3.145l-.748-1.158-14.208 10.34c.859 1.734 2.775 3.011 6.494 3.722 8.51-1.626 7.02-7.929 7.02-9.759z" transform="translate(15.44 5.945)"/>
        <path fill="#D99802" d="M67 11.518c-.823 0-1.49.577-1.49 1.287 0 .501.332.934.815 1.147v2.768h1.349v-2.768c.483-.213.815-.646.815-1.147 0-.71-.667-1.287-1.49-1.287z" transform="translate(15.44 5.945)"/>
        <path fill="#F2F8F8" d="M71.096 9.66c0 .821-.667 1.487-1.49 1.487.823 0 1.49.665 1.49 1.486 0-.82.667-1.486 1.49-1.486-.823 0-1.49-.666-1.49-1.486" transform="translate(15.44 5.945)"/>
        <path fill="#E7E4E4" d="M52.462 56.75c-1.48 1.92-2.423 4.562-.531 5.912 2.113 1.51 6.133.765 7.952-2.588 1.162-2.142 1.59-5.405-.052-7.071-1.405-1.426-5.553 1.393-7.37 3.748" transform="translate(15.44 5.945)"/>
        <g>
            <path fill="url(#prefix__b)" d="M22.717 21.605l-3.702-2.381s-3.68 6.673-5.495 10.577c-2.758-1.882-7.609-5.367-9.04-6.898l-.012-.011c.056-.589-.052-1.537-.21-2.075l-.008-.04-.028-.07-.032-.097c-.03-.073-.054-.125-.075-.17-.38-.824-.984-1.153-1.34-2.253-.247-.767-.961-.123-.89.43 0 0 .106.36.225.705-.472-.22-.88-.355-1.154-.264-.333.11-.705 1.775-.545 2.37.156.585 1.789 2.477 2.4 2.804l.138.043c.986 1.356 7.5 8.98 10.12 10.296 1.621.815 2.84.112 3.247-.926 1.238-1.981 4.985-8.427 6.401-12.04" transform="translate(15.44 5.945) matrix(-1 0 0 1 54.702 11.147)"/>
            <path fill="#D8383A" d="M23.37 17.639c.577 2.756-1.744 10.6-1.744 10.6l-7.102-3.307s7.323-14.563 8.846-7.293" transform="translate(15.44 5.945) matrix(-1 0 0 1 54.702 11.147)"/>
            <path fill="#0087BA" d="M37.233 54.248c0 .371-2.234 1.858-6.703 1.858s-8.566-1.487-14.144-3.857c.2-3.06.509-6.25.984-8.405l15.824.327 1.239.028 2.355.046.138.006c.11 1.306.244 6.594.315 9.848 0 .092-.008.149-.008.149z" transform="translate(15.44 5.945) matrix(-1 0 0 1 54.702 11.147)"/>
            <path fill="#222123" d="M25.841 54.896l.22-4.255c.003-.056-.03-.105-.071-.109-.043-.004-.08.039-.082.095l-.22 4.255c-.002.056.03.105.072.109.042.004.079-.04.081-.095" transform="translate(15.44 5.945) matrix(-1 0 0 1 54.702 11.147)"/>
            <path fill="#DF4C4B" d="M28.044 14.133c4.484.146 6 1.643 6.773 4.23.878 2.94 2.424 20.688 2.424 26.618 0 0-13.42.94-20.855-.265 2.331-7.784 2.583-21.78 2.63-25.95.035-3.129 3.343-4.819 9.028-4.633" transform="translate(15.44 5.945) matrix(-1 0 0 1 54.702 11.147)"/>
            <path fill="url(#prefix__c)" d="M29.793 5.945c-.185 1.184-.556 7.591-.402 9.08.155 1.488-7.173 1.913-6.215.273.959-1.64.279-7.076.279-7.076l6.338-2.277" transform="translate(15.44 5.945) matrix(-1 0 0 1 54.702 11.147)"/>
            <path fill="#EF6565" d="M29.418 6.317l-5.956 2.08s.402 3.14.16 5.35c4.541-.335 5.707-5.804 5.783-6.858.013-.198.02-.39.013-.572" transform="translate(15.44 5.945) matrix(-1 0 0 1 54.702 11.147)"/>
            <path fill="url(#prefix__d)" d="M21.7 5.842c-.554 3.87-1.494 7.729 3.133 7.094 4.627-.636 5.346-6.65 5.332-7.785-.072-6.055-7.376-6.92-8.465.69" transform="translate(15.44 5.945) matrix(-1 0 0 1 54.702 11.147)"/>
            <path fill="#222123" d="M25.481 4.096s-.905-.096-.91.346c0 0 .004.3.794.365.79.066.994-.002 1.063-.283.069-.28-.523-.422-.947-.428M22.235 4.108s.684-.227.83.199c0 0 .094.29-.508.47-.603.18-.825.113-.932-.115-.12-.258.277-.485.61-.554" transform="translate(15.44 5.945) matrix(-1 0 0 1 54.702 11.147)"/>
            <path fill="#FFFFFE" d="M23.455 8.917h1.861s.038.744-.939.744-.922-.744-.922-.744" transform="translate(15.44 5.945) matrix(-1 0 0 1 54.702 11.147)"/>
            <path fill="#1D1E1C" d="M30.074.89c-.967-1.08-6.805-.62-7.844.6-1.319 1.55 2.739.85 5.025.46.32 1.353 1.772 3.595 2.19 3.914l1.25.081s.683-4.693-.386-4.93c-.09.041-.169 0-.235-.126z" transform="translate(15.44 5.945) matrix(-1 0 0 1 54.702 11.147)"/>
            <path fill="url(#prefix__e)" d="M40.567 46.91c.291-1.63 1.25-11.637.474-14.482l-.001-.015c-.543-1.78-3.235-9.457-5.184-13.092l-4.2 1.24s3.515 9.236 5.22 12.502c.005.088.005.174.022.264.25 1.348 1.652 9.896 1.636 13.045-.31.087-.627.25-.878.54-.32.368-.878 1.424-.839 1.893.113 1.338.851 2.931 1.357 3.194.309.161 1.767-.743 2.086-1.275.315-.525.558-3.025.373-3.692l-.066-.123" transform="translate(15.44 5.945) matrix(-1 0 0 1 54.702 11.147)"/>
            <path fill="#DF4C4B" d="M33.25 15.947c2.437 1.573 6.598 8.732 6.598 8.732l-7.41 2.445s-5.618-15.328.812-11.177" transform="translate(15.44 5.945) matrix(-1 0 0 1 54.702 11.147)"/>
            <path fill="#1D1E1C" d="M25.655 5.55c.02.206-.112.382-.295.394-.183.012-.347-.144-.367-.349-.02-.204.113-.38.296-.392.182-.013.347.143.366.348M22.676 5.551c.02.205-.113.38-.296.393-.182.012-.347-.143-.366-.348-.02-.205.112-.381.295-.393.184-.013.347.143.367.348" transform="translate(15.44 5.945) matrix(-1 0 0 1 54.702 11.147)"/>
            <path fill="#222123" d="M22.717 7.803L23.303 5.573 23.523 5.645 23.026 7.541 23.831 7.529 23.834 7.786 22.717 7.803" transform="translate(15.44 5.945) matrix(-1 0 0 1 54.702 11.147)"/>
            <path fill="#1D1E1C" d="M.981 15.528l1.306-.349c.533-.142 1.08.174 1.224.707l1.505 5.605c.143.534-.173 1.082-.706 1.226h-.001l-1.306.349c-.533.142-1.08-.174-1.224-.707L.274 16.754c-.143-.534.173-1.082.706-1.225h.001z" transform="translate(15.44 5.945) matrix(-1 0 0 1 54.702 11.147)"/>
            <path fill="#5E5E5E" d="M1.306 16.019l.945-.253c.534-.143 1.081.174 1.224.707L4.692 21c.143.534-.173 1.082-.707 1.225l-.946.253c-.534.143-1.081-.173-1.225-.706L.598 17.244c-.143-.533.173-1.082.707-1.225z" transform="translate(15.44 5.945) matrix(-1 0 0 1 54.702 11.147)"/>
            <path fill="url(#prefix__f)" d="M28.783 6.24c-.432.895-.972 1.76.383 1.922 1.355.16 1.986-1.24 2.062-1.513.41-1.463-1.597-2.167-2.445-.408" transform="translate(15.44 5.945) matrix(-1 0 0 1 54.702 11.147)"/>
            <path fill="#732A26" d="M29.588 6.965v-.01c0-.05.007-.269.099-.463.045-.097.11-.187.204-.254.093-.066.216-.111.39-.112.046 0 .096.004.15.011.048.007.092-.028.098-.078.007-.05-.027-.095-.075-.102-.061-.008-.119-.012-.173-.012-.204 0-.366.055-.49.143-.186.133-.279.33-.327.5-.048.171-.051.319-.051.367v.017c.002.05.043.09.09.088.049-.002.087-.045.085-.095" transform="translate(15.44 5.945) matrix(-1 0 0 1 54.702 11.147)"/>
        </g>
        <g>
            <path fill="#DC9A02" d="M7.188 14.49L4.864 8.369c-.073-.194.039-.413.225-.44l8.282-1.24 2.27 6.34-8.453 1.463" transform="translate(15.44 5.945) translate(38.323 10.032)"/>
            <path fill="#FFF" d="M0 5.46l6.246-2.488s2.592 3.505 6.416 5.41l-5.906 3.136S3.484 9.614 0 5.461" transform="translate(15.44 5.945) translate(38.323 10.032)"/>
            <path fill="#E4E2DA" d="M5.949 8.917l2.617.744-4.749-5.945-1.583.743S3.724 7.79 5.95 8.917z" transform="translate(15.44 5.945) translate(38.323 10.032)"/>
            <path fill="#FFF" d="M6.457 9.289C5.35 8.445 4.577 7.235 3.9 6.013c-.883-1.59-1.646-3.245-2.41-4.897L9.195 0c.538 1.378 1.169 2.718 1.888 4.009.827 1.486 1.788 2.925 3.07 4.037L6.457 9.289" transform="translate(15.44 5.945) translate(38.323 10.032)"/>
            <path fill="#FCB717" d="M6.335 7.664l1.026 6.827 8.28-1.451-1.11-6.592c-.036-.218-.216-.366-.41-.338l-4 .568-.495-.733L7.09 6.3l-.28.948-.243.046c-.155.03-.26.195-.233.37" transform="translate(15.44 5.945) translate(38.323 10.032)"/>
            <path fill="#E4E2DA" d="M3.352 2.555L4.042 4.459 5.586 4.052 4.919 2.229 3.352 2.555M5.586 1.912L5.722 2.229 8.566 1.783 8.41 1.486 5.586 1.912M5.959 2.711L6.098 2.972 8.938 2.502 8.799 2.229 5.959 2.711M6.331 3.455L6.46 3.716 9.31 3.234 9.151 2.972 6.331 3.455M4.097 4.836L10.279 3.716 10.428 3.96 4.257 5.202 4.097 4.836" transform="translate(15.44 5.945) translate(38.323 10.032)"/>
        </g>
    </g>
</svg>
