<svg width="14" height="14" viewBox="0 0 14 14" fill="none" xmlns="http://www.w3.org/2000/svg">
<path d="M13.5 4H10.5V13H10V0.5C10 0.224 9.776 0 9.5 0H4.5C4.224 0 4 0.224 4 0.5V13H3.5V4H0.5C0.224 4 0 4.224 0 4.5V14H14V4.5C14 4.224 13.776 4 13.5 4ZM2.25 13H1.25V11H2.25V13ZM2.25 10H1.25V8H2.25V10ZM2.25 7H1.25V5H2.25V7ZM5.5 2H6.5V1H7.5V2H8.5V3H7.5V4H6.5V3H5.5V2ZM5.125 5.125H6.375V6.375H5.125V5.125ZM5.125 7.625H6.375V8.875H5.125V7.625ZM8.5 13H5.5V10H8.5V13ZM8.875 8.875H7.625V7.625H8.875V8.875ZM8.875 6.375H7.625V5.125H8.875V6.375ZM12.75 13H11.75V11H12.75V13ZM12.75 10H11.75V8H12.75V10ZM12.75 7H11.75V5H12.75V7Z" fill="#67909C"/>
</svg>
