<svg xmlns="http://www.w3.org/2000/svg" width="19" height="20" viewBox="0 0 19 20">
    <g fill="#02475B" fill-rule="nonzero">
        <path d="M12.998 14.557l1.453-1.453 2.297-2.297.527-.528a.992.992 0 0 0 0-1.38l-1.453-1.454-2.297-2.297-.527-.527a1.004 1.004 0 0 0-.691-.285c-.24 0-.526.105-.692.285-.17.186-.297.43-.285.692.012.26.1.503.285.69l1.453 1.454 2.297 2.297.528.527v-1.38l-1.454 1.453-2.296 2.296-.528.528c-.178.177-.285.44-.285.691 0 .24.106.526.285.692.186.17.43.296.692.285.26-.016.504-.102.691-.29z"/>
        <path d="M16.584 8.613H6.699c-.457 0-.914-.006-1.37 0h-.02c-.25 0-.514.11-.692.285-.17.17-.297.448-.285.692.012.252.094.514.285.691.192.176.426.285.692.285h9.884c.457 0 .914.006 1.371 0h.02c.25 0 .514-.109.691-.285.17-.17.297-.447.286-.691-.012-.252-.094-.514-.286-.692a1.022 1.022 0 0 0-.691-.285z"/>
        <path d="M14.893 15.527v1.526c0 .1.003.199-.01.299l.035-.26a1.044 1.044 0 0 1-.063.228c.034-.078.067-.156.098-.232-.033.08-.076.154-.127.223l.153-.198a1.043 1.043 0 0 1-.18.18c.066-.05.13-.102.197-.152-.07.052-.142.093-.223.127l.233-.098c-.074.03-.15.049-.229.062l.26-.035c-.146.018-.297.01-.443.01H3.885c-.496 0-.994.002-1.49 0-.05 0-.1-.004-.149-.01l.26.035a1.044 1.044 0 0 1-.229-.062l.233.098a1.043 1.043 0 0 1-.223-.127c.067.05.131.101.197.152a1.043 1.043 0 0 1-.18-.18l.153.198a1.008 1.008 0 0 1-.127-.223l.098.232a1.165 1.165 0 0 1-.063-.228l.035.26c-.021-.17-.01-.346-.01-.518v-1.102-1.64-2.018-2.213-2.234-2.072V3.8 2.55v-.572c0-.051.005-.102.01-.153l-.035.26c.012-.078.033-.154.063-.229l-.098.233c.033-.08.076-.154.127-.223-.05.067-.102.131-.152.197.052-.068.113-.127.18-.18l-.198.153c.07-.053.143-.094.223-.127a20.29 20.29 0 0 1-.233.098c.075-.03.15-.049.229-.063l-.26.035c.147-.017.297-.01.443-.01h12.199c.05 0 .1.005.15.01l-.26-.035c.077.012.154.034.228.063-.078-.033-.156-.067-.233-.098.08.033.155.076.223.127l-.197-.152c.068.052.127.113.18.18l-.153-.198c.053.07.094.143.127.223l-.098-.233c.03.075.05.15.063.229l-.035-.26c.027.213.01.434.01.649v1.177c0 .25.109.514.285.692.17.17.447.297.691.285.252-.012.514-.094.692-.285.175-.192.285-.426.285-.692V2.37c0-.162.01-.328-.004-.488-.03-.346-.11-.69-.313-.979-.193-.275-.433-.527-.746-.67a2.155 2.155 0 0 0-.91-.214H2.744c-.119 0-.24-.002-.36 0C1.86.023 1.302.236.956.643c-.22.26-.406.554-.469.896-.025.14-.047.285-.049.43-.003.36 0 .717 0 1.076v14.168c.006.517.21 1.037.588 1.396.371.352.852.547 1.364.551.418.004.836 0 1.254 0h11.084c.402 0 .79-.056 1.15-.262.598-.343.96-.998.97-1.683.003-.156 0-.31 0-.467v-1.223c0-.25-.109-.513-.285-.691-.17-.17-.447-.297-.69-.285-.253.012-.515.094-.692.285-.178.193-.287.43-.287.693z"/>
    </g>
</svg>
