<svg xmlns="http://www.w3.org/2000/svg" width="24" height="24" viewBox="0 0 24 24">
    <g fill="none" fill-rule="evenodd">
        <path d="M0 0h24v24H0z"/>
        <path fill="#02475B" fill-rule="nonzero" d="M16.666 17.888l-2.918 3.843a.68.68 0 0 1-1.084 0l-5.655-7.448a7.562 7.562 0 0 1-1.134-7.186L3 4.222l1.414-1.414 16.97 16.97-1.413 1.414-3.305-3.304zM8.314 3.708A7.817 7.817 0 0 1 13.206 2c4.289 0 7.778 3.435 7.778 7.656a7.562 7.562 0 0 1-1.58 4.627l-.222.292-3.709-3.708c.2-.36.312-.773.312-1.21 0-1.4-1.157-2.54-2.579-2.54-.43 0-.836.105-1.194.289L8.314 3.708z"/>
    </g>
</svg>
