<svg width="19" height="20" viewBox="0 0 19 20" fill="none" xmlns="http://www.w3.org/2000/svg">
<path d="M15.3442 9.32605L15.0889 9.70706C16.3004 10.5517 17.0236 11.9541 17.0236 13.4583H17.4759C17.4759 11.8016 16.679 10.2568 15.3442 9.32605Z" fill="#02475B"/>
<path fill-rule="evenodd" clip-rule="evenodd" d="M14.1912 2.07071V7.3784C16.8813 8.12303 18.7451 10.5969 18.7451 13.4584C18.7451 16.9476 15.9192 19.7692 12.5656 19.7692C9.17576 19.7692 6.38306 16.9107 6.38306 13.4584C6.38306 10.5969 8.24686 8.12303 10.934 7.3784V2.07071H10.8858C10.3881 2.07071 9.98099 1.65841 9.98099 1.15071C9.98099 0.643029 10.3881 0.230713 10.8858 0.230713H14.2424C14.74 0.230713 15.1472 0.643029 15.1472 1.15071C15.1472 1.65841 14.74 2.07071 14.2424 2.07071H14.1912ZM6.83544 13.4584C6.83544 13.6892 6.85353 13.9199 6.88068 14.1446H18.2505C18.2746 13.9199 18.2927 13.6892 18.2927 13.4584C18.2927 10.7507 16.4923 8.41532 13.9107 7.78148C13.8112 7.75687 13.7388 7.66455 13.7388 7.55687V2.07071H11.3864V7.55687C11.3864 7.66455 11.314 7.75687 11.2145 7.78148C8.63592 8.41532 6.83544 10.7507 6.83544 13.4584Z" fill="#02475B"/>
<path fill-rule="evenodd" clip-rule="evenodd" d="M5.63823 0.230713C6.09663 0.230713 6.46759 0.609187 6.46759 1.07687V1.38456C6.46759 1.85226 6.09663 2.23071 5.63823 2.23071H5.47536V17.6092C5.47536 18.7999 4.52837 19.7692 3.36123 19.7692C2.19409 19.7692 1.24712 18.7999 1.24712 17.6092V2.23071H1.08425C0.625848 2.23071 0.254883 1.85226 0.254883 1.38456V1.07687C0.254883 0.609187 0.625848 0.230713 1.08425 0.230713H5.63823ZM1.6995 10.5261H5.02298V2.23379H1.6995V10.5261Z" fill="#02475B"/>
<ellipse cx="10.3958" cy="10.7036" rx="0.819545" ry="0.836135" fill="#02475B"/>
<ellipse cx="2.988" cy="6.95003" rx="0.819545" ry="0.836135" fill="#02475B"/>
<ellipse cx="12.5645" cy="8.9305" rx="0.819545" ry="0.836135" fill="#02475B"/>
<ellipse cx="3.3613" cy="3.97311" rx="0.819554" ry="0.836144" fill="#02475B"/>
<ellipse cx="12.3898" cy="12.3758" rx="0.53897" ry="0.54988" fill="#02475B"/>
<ellipse cx="2.98794" cy="9.37215" rx="0.53897" ry="0.54988" fill="#02475B"/>
</svg>
