<svg xmlns="http://www.w3.org/2000/svg" width="40" height="40" viewBox="0 0 40 40">
    <g fill="none" fill-rule="evenodd">
        <circle cx="20" cy="20" r="20" fill="#FFF"/>
        <path d="M8 8h24v24H8z"/>
        <path fill="#02475B" fill-rule="nonzero" d="M23.85 11.85l1.45 1.45-2.18 2.16c-.39.39-.39 1.03 0 1.42.39.39 1.03.39 1.42 0l2.16-2.18 1.45 1.45a.5.5 0 0 0 .85-.36V11.5c0-.28-.22-.5-.5-.5h-4.29a.5.5 0 0 0-.36.85zm-12 4.3l1.45-1.45 2.16 2.18c.39.39 1.03.39 1.42 0 .39-.39.39-1.03 0-1.42L14.7 13.3l1.45-1.45a.5.5 0 0 0-.36-.85H11.5c-.28 0-.5.22-.5.5v4.29c0 .45.54.67.85.36zm4.3 12L14.7 26.7l2.18-2.16c.39-.39.39-1.03 0-1.42-.39-.39-1.03-.39-1.42 0L13.3 25.3l-1.45-1.45a.5.5 0 0 0-.85.36v4.29c0 .28.22.5.5.5h4.29a.5.5 0 0 0 .36-.85zm12-4.3L26.7 25.3l-2.16-2.18c-.39-.39-1.03-.39-1.42 0-.39.39-.39 1.03 0 1.42l2.18 2.16-1.45 1.45a.5.5 0 0 0 .36.85h4.29c.28 0 .5-.22.5-.5v-4.29a.5.5 0 0 0-.85-.36z"/>
    </g>
</svg>
