<svg xmlns="http://www.w3.org/2000/svg" width="16" height="16" viewBox="0 0 16 16">
    <g fill="none" fill-rule="evenodd">
        <path d="M0 0h16v16H0z"/>
        <path fill="#E50000" fill-rule="nonzero" d="M15.393 10.8C11.173 7.073 4.82 7.073.607 10.8c-.56.493-.56 1.367-.034 1.893l.8.8a1.316 1.316 0 0 0 1.747.1l1.313-1.046c.314-.247.5-.627.5-1.034V9.8a9.89 9.89 0 0 1 6.134 0v1.72c0 .4.186.78.5 1.033l1.306 1.04a1.315 1.315 0 0 0 1.747-.1l.8-.8c.533-.526.527-1.4-.027-1.893zM4 6c.367 0 .667-.3.667-.667V4.287l2.826 2.826c.26.26.68.26.94 0l3.774-3.773a.664.664 0 1 0-.94-.94l-3.3 3.3L5.6 3.333h1.067c.366 0 .666-.3.666-.666 0-.367-.3-.667-.666-.667H4c-.367 0-.667.3-.667.667v2.666c0 .367.3.667.667.667z"/>
    </g>
</svg>
