<svg xmlns="http://www.w3.org/2000/svg" xmlns:xlink="http://www.w3.org/1999/xlink" width="76" height="76" viewBox="0 0 76 76">
  <defs>
    <style>
      .cls-1 {
        fill: #0087ba;
      }

      .cls-2 {
        clip-path: url(#clip-path);
      }

      .cls-3 {
        fill: #ffd7a3;
      }

      .cls-4 {
        fill: #003646;
      }

      .cls-5 {
        fill: #00212a;
      }

      .cls-6 {
        fill: #fdc88e;
      }

      .cls-7 {
        fill: #ffe1b2;
      }

      .cls-8 {
        fill: #623f33;
      }

      .cls-9 {
        fill: #e4b07b;
      }

      .cls-10 {
        fill: #11dfba;
      }

      .cls-11 {
        fill: #bff6ec;
      }

      .cls-12 {
        fill: #9fffee;
      }

      .cls-13 {
        fill: #91f0de;
      }

      .cls-14 {
        fill: #fff;
      }

      .cls-15 {
        filter: url(#Mask-2);
      }

      .cls-16 {
        filter: url(#Mask);
      }
    </style>
    <filter id="Mask" x="0" y="0" width="76" height="76" filterUnits="userSpaceOnUse">
      <feOffset dy="2" input="SourceAlpha"/>
      <feGaussianBlur stdDeviation="2" result="blur"/>
      <feFlood flood-opacity="0.2"/>
      <feComposite operator="in" in2="blur"/>
      <feComposite in="SourceGraphic"/>
    </filter>
    <filter id="Mask-2" x="0" y="0" width="76" height="76" filterUnits="userSpaceOnUse">
      <feOffset dy="2" input="SourceAlpha"/>
      <feGaussianBlur stdDeviation="2" result="blur-2"/>
      <feFlood flood-opacity="0.2"/>
      <feComposite operator="in" in2="blur-2"/>
      <feComposite in="SourceGraphic"/>
    </filter>
    <clipPath id="clip-path">
      <g class="cls-16" transform="matrix(1, 0, 0, 1, 0, 0)">
        <circle id="Mask-3" data-name="Mask" class="cls-1" cx="32" cy="32" r="32"/>
      </g>
    </clipPath>
  </defs>
  <g id="ic_mascot" transform="translate(-15 7)">
    <g id="ic_mascot-2" data-name="ic_mascot" transform="translate(21 -3)">
      <g class="cls-15" transform="matrix(1, 0, 0, 1, -6, -4)">
        <circle id="Mask-4" data-name="Mask" class="cls-1" cx="32" cy="32" r="32" transform="translate(6 4)"/>
      </g>
      <g id="ic_mascot-3" data-name="ic_mascot" class="cls-2">
        <g id="Group" transform="translate(9.143 6.857)">
          <path id="Shape" class="cls-3" d="M40.845,44.952A4.947,4.947,0,0,0,38.022,41.2l-2.236-1.061a.672.672,0,0,0-.878.282l-1.127-.393c7.768-2.008,11.89-5.542,11.89-5.542-4.087-7.574-2.984-19.089-6.228-25.616S30.1,0,22.836,0,9.472,2.34,6.228,8.867,4.087,26.909,0,34.483c0,0,4.123,3.533,11.89,5.542l-1.126.393a.668.668,0,0,0-.875-.284L7.85,41.1a5.063,5.063,0,0,0-3.024,3.85l-.05.358h0L3.584,53.8a3.014,3.014,0,0,0,3.087,3.346H39A3.013,3.013,0,0,0,42.087,53.8Z" transform="translate(0 0)"/>
          <path id="Shape-2" data-name="Shape" class="cls-4" d="M39.443,8.867C36.2,2.34,30.1,0,22.836,0S9.472,2.34,6.228,8.867,4.087,26.909,0,34.483c0,0,8.044,6.9,22.836,6.9s22.836-6.9,22.836-6.9C41.584,26.909,42.687,15.394,39.443,8.867Z" transform="translate(0 0)"/>
          <path id="Shape-3" data-name="Shape" class="cls-5" d="M16.608,17.611c0-6.9,2.713-13.337,8.192-17.543C24.154.027,23.5,0,22.836,0,15.57,0,9.472,2.34,6.228,8.867S4.087,26.909,0,34.483c0,0,5.895,4.913,16.608,6.436Z" transform="translate(0 0)"/>
          <path id="Shape-4" data-name="Shape" class="cls-3" d="M37.339,14.769A4.987,4.987,0,0,0,33.987,10.8l-7.06-2.466a1.982,1.982,0,0,1-1.419-1.869V0H13.052V6.462a1.982,1.982,0,0,1-1.419,1.869L4.572,10.8A4.987,4.987,0,0,0,1.22,14.768L.028,23.255A3.013,3.013,0,0,0,3.114,26.6h32.33a3.013,3.013,0,0,0,3.087-3.346Z" transform="translate(3.556 30.542)"/>
          <path id="Shape-5" data-name="Shape" class="cls-6" d="M1.006,3.26c0,.048,0,.1-.006.143,0,.025-.005.049-.008.073s0,.039-.007.059c-.006.038-.013.075-.021.112v0A1.976,1.976,0,0,1,0,4.947,14.434,14.434,0,0,0,13.461.082L1.006,0V3.26Z" transform="translate(15.602 33.744)"/>
          <path id="Shape-6" data-name="Shape" class="cls-7" d="M32.178,6.9V4.926A5.063,5.063,0,0,0,26.988,0H8.3a5.063,5.063,0,0,0-5.19,4.926V6.9A3.038,3.038,0,0,0,0,9.852a3.038,3.038,0,0,0,3.114,2.956v.985A5.916,5.916,0,0,0,6.946,19.25L13.653,21.9a10.863,10.863,0,0,0,3.992.758h0a10.864,10.864,0,0,0,3.992-.758l6.707-2.653a5.916,5.916,0,0,0,3.833-5.457v-.985a3.038,3.038,0,0,0,3.114-2.956A3.038,3.038,0,0,0,32.178,6.9Z" transform="translate(5.19 12.808)"/>
          <path id="Shape-7" data-name="Shape" class="cls-3" d="M26.728,2.54V0H6.333A4.933,4.933,0,0,0,3.114,4.557v1.97A3.038,3.038,0,0,0,0,9.483a3.038,3.038,0,0,0,3.114,2.956v.985A5.916,5.916,0,0,0,6.946,18.88l6.707,2.652c.328.13.663.242,1,.339a42.71,42.71,0,0,1-6.093-5.033,4.492,4.492,0,0,1-1.3-3.156V6.513C10.614,6.435,21.238,5.92,26.728,2.54Z" transform="translate(5.19 13.177)"/>
          <path id="Shape-8" data-name="Shape" class="cls-8" d="M1.038,2.956h0A1.016,1.016,0,0,1,0,1.97V.985A1.016,1.016,0,0,1,1.038,0h0A1.016,1.016,0,0,1,2.076.985V1.97A1.016,1.016,0,0,1,1.038,2.956Z" transform="translate(14.532 20.69)"/>
          <path id="Shape-9" data-name="Shape" class="cls-8" d="M1.038,2.956h0A1.016,1.016,0,0,1,0,1.97V.985A1.016,1.016,0,0,1,1.038,0h0A1.016,1.016,0,0,1,2.076.985V1.97A1.016,1.016,0,0,1,1.038,2.956Z" transform="translate(29.064 20.69)"/>
          <path id="Shape-10" data-name="Shape" class="cls-9" d="M5.19,2.983A9,9,0,0,1,.454,1.8.954.954,0,0,1,.18.431,1.073,1.073,0,0,1,1.622.171a6.945,6.945,0,0,0,3.568.841A6.945,6.945,0,0,0,8.758.171,1.072,1.072,0,0,1,10.2.431.954.954,0,0,1,9.926,1.8,9,9,0,0,1,5.19,2.983Z" transform="translate(17.646 27.586)"/>
          <path id="Shape-11" data-name="Shape" class="cls-4" d="M.707,5.665s6.617.616,10.38-.985c.53-.225,2.076-3.448,2.076-3.448V5.665a35.389,35.389,0,0,0,9.731-2.134V0H0A52.4,52.4,0,0,1,.707,5.665Z" transform="translate(9.673 12.069)"/>
          <path id="Shape-12" data-name="Shape" class="cls-10" d="M34.465,1.128,32.229.067A.67.67,0,0,0,31.3.481,12.371,12.371,0,0,1,19.279,9.192,12.371,12.371,0,0,1,7.26.477.667.667,0,0,0,6.333.065l-2.039.968A5.063,5.063,0,0,0,1.27,4.883L.028,13.727a3.013,3.013,0,0,0,3.087,3.346h32.33a3.013,3.013,0,0,0,3.087-3.346L37.289,4.883A4.947,4.947,0,0,0,34.465,1.128Z" transform="translate(3.556 40.069)"/>
          <path id="Shape-13" data-name="Shape" class="cls-11" d="M1.743,0A4.624,4.624,0,0,0,1.27,1.464L.028,10.308a3.013,3.013,0,0,0,3.087,3.346H7.862V9.714A5.716,5.716,0,0,0,6.616,6.167Z" transform="translate(3.556 43.488)"/>
          <path id="Shape-14" data-name="Shape" class="cls-11" d="M6.119,0a4.624,4.624,0,0,1,.473,1.464l1.242,8.844a3.013,3.013,0,0,1-3.087,3.346H0V9.714A5.716,5.716,0,0,1,1.246,6.167Z" transform="translate(34.254 43.488)"/>
          <path id="Shape-15" data-name="Shape" class="cls-12" d="M6.747,2.4c0,1.326-2.819,2.4-4.217,2.4A2.468,2.468,0,0,1,0,2.4,2.468,2.468,0,0,1,2.53,0C3.927,0,6.747,1.075,6.747,2.4Z" transform="translate(29.064 10.363)"/>
          <path id="Shape-16" data-name="Shape" class="cls-10" d="M0,2.4C0,1.075,2.819,0,4.217,0a2.468,2.468,0,0,1,2.53,2.4,2.468,2.468,0,0,1-2.53,2.4C2.819,4.8,0,3.728,0,2.4Z" transform="translate(35.81 10.363)"/>
          <path id="Shape-17" data-name="Shape" class="cls-10" d="M4.639.144c1.21.663.781,3.518.083,4.667a2.605,2.605,0,0,1-3.456.879A2.336,2.336,0,0,1,.339,2.409C1.038,1.261,3.429-.519,4.639.144Z" transform="translate(31.172 12.621)"/>
          <path id="Shape-18" data-name="Shape" class="cls-13" d="M.763,5.868C-.447,5.2-.018,2.35.68,1.2A2.605,2.605,0,0,1,4.136.322,2.336,2.336,0,0,1,5.063,3.6C4.364,4.751,1.973,6.531.763,5.868Z" transform="translate(35.048 6.897)"/>
          <path id="Shape-19" data-name="Shape" class="cls-13" d="M.763.144C-.447.807-.018,3.662.68,4.811a2.605,2.605,0,0,0,3.456.879,2.336,2.336,0,0,0,.926-3.281C4.364,1.261,1.973-.519.763.144Z" transform="translate(35.048 12.621)"/>
          <path id="Shape-20" data-name="Shape" class="cls-10" d="M4.639,5.868C5.849,5.2,5.42,2.35,4.722,1.2A2.605,2.605,0,0,0,1.265.322,2.336,2.336,0,0,0,.339,3.6C1.038,4.751,3.429,6.531,4.639,5.868Z" transform="translate(31.172 6.897)"/>
          <ellipse id="Oval" class="cls-14" cx="1.687" cy="1.601" rx="1.687" ry="1.601" transform="translate(34.124 11.164)"/>
          <path id="Shape-21" data-name="Shape" class="cls-4" d="M0,0A52.4,52.4,0,0,1,.708,5.665a36.509,36.509,0,0,0,6.1-.028v-.1A23.927,23.927,0,0,1,7.452,0Z" transform="translate(9.672 12.069)"/>
        </g>
      </g>
    </g>
  </g>
</svg>
