<svg xmlns="http://www.w3.org/2000/svg" width="24" height="24" viewBox="0 0 24 24">
    <g fill="none" fill-rule="evenodd">
        <path d="M0 0h24v24H0z"/>
        <path fill="#02475B" fill-rule="nonzero" d="M17.444 15.91v-5.152c0-3.163-1.622-5.811-4.45-6.512v-.7c0-.856-.672-1.546-1.493-1.546-.82 0-1.473.69-1.473 1.545v.701c-2.838.7-4.45 3.338-4.45 6.512v5.151l-1.285 1.33C3.67 17.886 4.105 19 4.985 19h13.022c.88 0 1.325-1.113.702-1.762l-1.265-1.329zM12 22c1.1 0 2-.9 2-2h-4a2 2 0 0 0 2 2z"/>
        <path fill="#AFC3C9" fill-rule="nonzero" d="M6.675 4.608a.876.876 0 0 0 .03-1.336 1.064 1.064 0 0 0-1.4-.018C3.583 4.71 2.394 6.692 2.011 8.916c-.09.57.383 1.084 1.007 1.084.484 0 .907-.327.988-.776.302-1.812 1.269-3.429 2.669-4.616zM18.705 3.254a1.08 1.08 0 0 0-1.413.019.873.873 0 0 0 .03 1.328c1.393 1.189 2.373 2.807 2.676 4.622.07.45.494.777.99.777.615 0 1.1-.515.999-1.085-.384-2.218-1.565-4.192-3.282-5.661z"/>
    </g>
</svg>
