<svg xmlns="http://www.w3.org/2000/svg" width="48" height="49" viewBox="0 0 48 49">
    <path fill="#00B38E" d="M24.002.5a23.998 23.998 0 11-8.14 46.575c-1.51.445-3.065.718-4.636.81-.722.051-1.44.143-2.151.275-.68.183-1.376.295-2.078.335a6.074 6.074 0 01-5.529-3.633 21.845 21.845 0 01-1.32-4.281 6.576 6.576 0 011.594-5.846c.124-.134.25-.274.364-.413A24 24 0 0124.002.5zm0 1.92c-12.193 0-22.078 9.884-22.078 22.078a21.868 21.868 0 001.512 8.024c1.646-2.577 2.525-5.461 3.105-7.362.135-.451.26-.85.37-1.19a2.986 2.986 0 012.145-1.968 2.947 2.947 0 012.76.739c1.492 1.445 2.357 4.857 2.462 6.043l7.017-3.039a3.45 3.45 0 112.688 6.355l-5.63 2.323c1.176 1.766 2.98 5.078 2.294 8.068a5.537 5.537 0 01-2.294 3.35c1.843.49 3.742.736 5.649.734 12.193 0 22.078-9.884 22.078-22.077 0-12.194-9.885-22.078-22.078-22.078zm-13.52 21.703a1.026 1.026 0 00-.97-.259 1.092 1.092 0 00-.777.715c-.11.327-.226.71-.36 1.142-.687 2.256-1.771 5.813-4.013 8.856a15.996 15.996 0 01-1.224 1.468c-.033.039-.072.077-.105.115a4.658 4.658 0 00-1.003 4.027 19.665 19.665 0 001.195 3.897 4.156 4.156 0 003.544 2.486c.478.004.955-.058 1.416-.184a18.211 18.211 0 011.603-.253c1.041-.132 2.087-.217 3.127-.36a11.995 11.995 0 002.957-.748c.317-.13.625-.283.921-.456a3.858 3.858 0 001.982-2.505c.547-2.395-1.229-5.395-2.02-6.57a1.885 1.885 0 01.864-2.847l5.63-2.318c.392-.16.7-.477.849-.874a1.49 1.49 0 00-.058-1.214 1.524 1.524 0 00-1.982-.734l-7.017 3.038a1.854 1.854 0 01-2.673-1.589c-.106-1.161-.955-3.935-1.886-4.833zm15.987-2.974c.404.092.7.428.747.831l.006.111a.958.958 0 01-1.171.939c-2.24-.53-4.574-.53-6.814 0a.958.958 0 01-1.165-.814l-.007-.125c0-.45.313-.842.753-.942a16.954 16.954 0 017.651 0zm4.129-9.44a1.886 1.886 0 110 3.771 1.886 1.886 0 010-3.771zm-15.111 0a1.886 1.886 0 11-.001 3.771 1.886 1.886 0 010-3.771z"/>
</svg>
