<svg width="23" height="24" viewBox="0 0 23 24" fill="none" xmlns="http://www.w3.org/2000/svg">
<path fill-rule="evenodd" clip-rule="evenodd" d="M5.2878 1C4.12357 1 3.1816 1.99 3.1816 3.2L3.17102 20.8C3.17102 22.01 4.11299 23 5.27721 23H17.9885C19.1527 23 20.1052 22.01 20.1052 20.8V7.6L13.7549 1H5.2878ZM13.5197 8V3L18.2237 8H13.5197ZM9.03712 14H5.99339V20H7.2346V17.6555H8.47581C8.78677 17.6555 9.01077 17.7283 9.1478 17.8739C9.28484 18.0196 9.37443 18.2493 9.4166 18.563C9.44822 18.8039 9.47194 19.056 9.48775 19.3193C9.50356 19.5826 9.54573 19.8095 9.61424 20H10.8555C10.7975 19.916 10.754 19.8137 10.725 19.6933C10.696 19.5728 10.6749 19.4454 10.6618 19.3109C10.6486 19.1765 10.6394 19.0448 10.6341 18.916C10.6288 18.7871 10.6235 18.6751 10.6183 18.5798C10.6077 18.4286 10.588 18.2773 10.559 18.1261C10.53 17.9748 10.4839 17.8361 10.4206 17.7101C10.3574 17.584 10.2757 17.4748 10.1756 17.3824C10.0754 17.2899 9.94892 17.2213 9.79608 17.1765V17.1597C10.1123 17.0252 10.3403 16.8291 10.4799 16.5714C10.6196 16.3137 10.6894 16.0084 10.6894 15.6555C10.6894 15.4258 10.6512 15.2115 10.5748 15.0126C10.4984 14.8137 10.3877 14.6387 10.2428 14.4874C10.0978 14.3361 9.92389 14.2171 9.72097 14.1303C9.51806 14.0434 9.29011 14 9.03712 14ZM8.5944 16.7143H7.2346V15.0252H8.5944C8.87901 15.0252 9.09246 15.091 9.23477 15.2227C9.37707 15.3543 9.44822 15.5658 9.44822 15.8571C9.44822 16.1597 9.37707 16.3781 9.23477 16.5126C9.09246 16.6471 8.87901 16.7143 8.5944 16.7143ZM13.6146 17.7143L12.2706 15.6555H13.5513L14.2708 16.7899L14.9823 15.6555H16.2235L14.8795 17.6891L16.3895 20H15.1088L14.2549 18.6303L13.4011 20H12.1441L13.6146 17.7143Z" fill="white"/>
</svg>
