<svg xmlns="http://www.w3.org/2000/svg" width="20" height="20" viewBox="0 0 20 20">
    <g fill="none" fill-rule="evenodd">
        <path d="M0 0h20v20H0z"/>
        <path fill="#0087BA" fill-rule="nonzero" d="M11.875.833l5.625 5.5v11c0 1.009-.844 1.834-1.875 1.834H4.365c-1.03 0-1.865-.825-1.865-1.834l.01-14.666c0-1.009.834-1.834 1.865-1.834h7.5zM7.696 11.667H5v5h1.1v-1.954h1.099c.275 0 .474.06.595.182.122.121.2.313.238.574.028.2.05.411.063.63.014.22.052.409.112.568h1.1a.736.736 0 0 1-.116-.256 2.208 2.208 0 0 1-.056-.319 5.471 5.471 0 0 1-.024-.329l-.014-.28a3.005 3.005 0 0 0-.053-.378 1.271 1.271 0 0 0-.122-.347.848.848 0 0 0-.553-.445V14.3c.28-.112.481-.276.605-.49.124-.215.186-.47.186-.764 0-.191-.034-.37-.102-.535a1.292 1.292 0 0 0-.294-.438 1.394 1.394 0 0 0-.462-.298 1.61 1.61 0 0 0-.606-.108zm3.999 1.38H10.56l1.19 1.715-1.302 1.905h1.114l.756-1.142.756 1.142h1.135L12.87 14.74l1.19-1.695h-1.099l-.63.946-.637-.946zm-4.391-.526c.252 0 .441.055.567.165.126.11.19.286.19.528 0 .252-.064.434-.19.547-.126.112-.315.168-.567.168H6.099V12.52zM11.667 2.5v4.167h4.166L11.667 2.5z"/>
    </g>
</svg>
