<svg xmlns="http://www.w3.org/2000/svg" width="48" height="49" viewBox="0 0 48 49">
    <path fill="#00B38E" d="M33.185 2.328A24 24 0 0148 24.5c-.015 13.249-10.751 23.985-24 24a24 24 0 119.185-46.172zM24 2.42c-12.194 0-22.08 9.885-22.08 22.08C1.92 36.694 11.807 46.58 24 46.58c12.195 0 22.08-9.885 22.08-22.08C46.066 12.312 36.189 2.435 24 2.42zm6.716 33.523c.33.132.557.433.6.78l.007.117-.008.12a.964.964 0 01-1.325.77 15.1 15.1 0 00-11.652 0 .964.964 0 01-1.326-.77l-.007-.12.007-.117a.968.968 0 01.6-.78 17.146 17.146 0 0113.104 0zm-2.714-13.452l.127.012.115.027a.964.964 0 01.682.837 2.756 2.756 0 005.247.871.964.964 0 011.032-.56.967.967 0 01.712 1.364 4.676 4.676 0 01-8.902-1.478.967.967 0 01.86-1.068l.127-.005zm-8.112 0a.967.967 0 01.986 1.073 4.676 4.676 0 01-8.901 1.478.96.96 0 111.744-.804 2.755 2.755 0 005.247-.87.965.965 0 01.681-.838l.115-.027.128-.012z"/>
</svg>
