<svg xmlns="http://www.w3.org/2000/svg" width="23" height="22" viewBox="0 0 23 22">
    <g fill="none" fill-rule="evenodd">
        <path d="M-1 0h24v24H-1z"/>
        <path fill="#02475B" d="M6.644 10.679a6.998 6.998 0 0 1 2.68-1.29V6.078A4.083 4.083 0 0 0 5.247 2H4.082A4.087 4.087 0 0 0 0 6.078v4.601h6.644zm-2.736 5.548a6.96 6.96 0 0 1 .984-3.548H0v5.243A4.084 4.084 0 0 0 4.082 22h1.165c.477 0 .936-.085 1.364-.236a7.01 7.01 0 0 1-2.703-5.537zm11.699-3.151l-7.711 7.711c.894.62 1.978.984 3.148.984a5.547 5.547 0 0 0 4.563-8.695zm-9.125 6.297a5.511 5.511 0 0 1-.984-3.148 5.547 5.547 0 0 1 8.695-4.563l-7.711 7.711z"/>
        <path fill="#E50000" fill-rule="nonzero" d="M14.32 2.714h1.445c.302 0 .53-.067.68-.201.152-.135.227-.353.227-.656 0-.291-.075-.503-.227-.634-.15-.132-.378-.198-.68-.198h-1.446v1.69zM13 0h3.235c.27 0 .511.043.727.13.216.087.4.206.555.357.154.152.272.327.353.526.081.198.122.413.122.642 0 .353-.075.659-.223.916-.149.258-.39.454-.727.589v.016a1.018 1.018 0 0 1 .664.534c.067.126.116.265.147.416.03.151.052.303.063.454.006.095.011.207.017.336.005.129.015.26.03.395.013.134.036.262.066.382.031.12.077.223.14.307h-1.32a2.326 2.326 0 0 1-.135-.68 10.16 10.16 0 0 0-.075-.757c-.045-.314-.14-.543-.286-.69-.146-.145-.384-.218-.714-.218h-1.32V6H13V0zm7.1 3.714l-1.428-2.059h1.362l.764 1.135.757-1.135h1.319L21.445 3.69 23.05 6h-1.36l-.908-1.37L19.874 6h-1.336L20.1 3.714z"/>
    </g>
</svg>
