<svg width="27" height="27" viewBox="0 0 27 27" fill="none" xmlns="http://www.w3.org/2000/svg">
<path fill-rule="evenodd" clip-rule="evenodd" d="M13.5 27C20.9558 27 27 20.9558 27 13.5C27 6.04416 20.9558 0 13.5 0C6.04416 0 0 6.04416 0 13.5C0 20.9558 6.04416 27 13.5 27Z" fill="#01475B"/>
<path d="M18 21.2142C16.9365 21.2142 16.0714 20.2967 16.0714 19.1688V16.1006C16.0714 15.3759 16.6279 14.7856 17.3112 14.7856C17.9945 14.7856 18.551 15.3759 18.551 16.1006V19.0227C18.551 19.2646 18.3659 19.461 18.1377 19.461C17.9096 19.461 17.7245 19.2646 17.7245 19.0227V16.1006C17.7245 15.8592 17.5388 15.6623 17.3112 15.6623C17.0836 15.6623 16.8979 15.8592 16.8979 16.1006V19.1688C16.8979 19.8134 17.3922 20.3376 18 20.3376C18.6078 20.3376 19.102 19.8134 19.102 19.1688V15.224C19.102 14.982 19.2872 14.7856 19.5153 14.7856C19.7434 14.7856 19.9286 14.982 19.9286 15.224V19.1688C19.9286 20.2967 19.0635 21.2142 18 21.2142Z" fill="white"/>
<path d="M15.1192 19.2858H9.08923C8.33073 19.2858 7.71423 18.6373 7.71423 17.8394V9.16078C7.71423 8.36288 8.33073 7.71436 9.08923 7.71436H15.3392C16.0977 7.71436 16.7142 8.36288 16.7142 9.16078V13.621C16.7142 13.8388 16.5462 14.0155 16.3392 14.0155C16.1322 14.0155 15.9642 13.8388 15.9642 13.621V9.16078C15.9642 8.79839 15.6837 8.50332 15.3392 8.50332H9.08923C8.74473 8.50332 8.46423 8.79839 8.46423 9.16078V17.8394C8.46423 18.2018 8.74473 18.4968 9.08923 18.4968H15.1192C15.3262 18.4968 15.4942 18.6736 15.4942 18.8913C15.4942 19.1091 15.3262 19.2858 15.1192 19.2858Z" fill="white"/>
<path d="M15.0268 16.2001H9.40179C9.18 16.2001 9 16.0273 9 15.8144C9 15.6015 9.18 15.4287 9.40179 15.4287H15.0268C15.2486 15.4287 15.4286 15.6015 15.4286 15.8144C15.4286 16.0273 15.2486 16.2001 15.0268 16.2001Z" fill="white"/>
<path d="M15.0268 13.6284H9.40179C9.18 13.6284 9 13.4556 9 13.2426C9 13.0297 9.18 12.8569 9.40179 12.8569H15.0268C15.2486 12.8569 15.4286 13.0297 15.4286 13.2426C15.4286 13.4556 15.2486 13.6284 15.0268 13.6284Z" fill="white"/>
<path d="M12.4439 11.0571H9.41327C9.18514 11.0571 9 10.8843 9 10.6714C9 10.4584 9.18514 10.2856 9.41327 10.2856H12.4439C12.672 10.2856 12.8571 10.4584 12.8571 10.6714C12.8571 10.8843 12.672 11.0571 12.4439 11.0571Z" fill="white"/>
</svg>
