<svg xmlns="http://www.w3.org/2000/svg" width="26" height="30" viewBox="0 0 26 30">
    <g fill="#A30808">
        <path d="M20.976 6.364l-1.425 1.86c3.071 2.427 4.604 6.357 3.999 10.257-.443 2.861-1.957 5.377-4.263 7.083-2.307 1.704-5.128 2.397-7.946 1.945-5.817-.93-9.805-6.493-8.891-12.4.443-2.863 1.958-5.378 4.264-7.084 2.013-1.488 4.42-2.203 6.873-2.062L11.58 8.1l1.488 1.442 3.166-3.375v.001l1.419-1.512-1.487-1.44L12.843 0l-1.42 1.512 2.166 2.094c-2.943-.14-5.825.728-8.241 2.515-2.807 2.076-4.65 5.137-5.19 8.621-1.113 7.191 3.74 13.963 10.821 15.095.684.11 1.368.163 2.048.163 2.727 0 5.377-.87 7.624-2.532 2.807-2.076 4.65-5.138 5.19-8.621.736-4.746-1.129-9.53-4.866-12.483z"/>
        <path stroke="#A30808" d="M16.698 15.398h-1.536c-.087-1.057-.544-2.039-1.212-2.643h2.748c.166 0 .302-.17.302-.377 0-.208-.136-.378-.302-.378h-6.396c-.166 0-.302.17-.302.378 0 .207.136.377.302.377h1.832c1.245 0 2.273 1.17 2.42 2.643h-4.252c-.166 0-.302.17-.302.377 0 .208.136.378.302.378h4.253c-.151 1.53-1.191 2.677-2.421 2.68h-1.829c-.169.004-.305.178-.302.39 0 .101.036.2.094.271l4.573 5.403c.12.143.311.136.426-.015.115-.155.109-.393-.012-.54l-4.023-4.753h1.07c1.578 0 2.88-1.51 3.031-3.436h1.536c.166 0 .302-.17.302-.378 0-.207-.136-.377-.302-.377z"/>
    </g>
</svg>
