<svg xmlns="http://www.w3.org/2000/svg" width="244" height="232" viewBox="0 0 244 232">
    <defs>
        <linearGradient id="a" x1="49.999%" x2="49.999%" y1="100%" y2="0%">
            <stop offset="0%" stop-color="gray" stop-opacity=".25"/>
            <stop offset="54%" stop-color="gray" stop-opacity=".12"/>
            <stop offset="100%" stop-color="gray" stop-opacity=".1"/>
        </linearGradient>
        <linearGradient id="b" x1="50%" x2="50%" y1="100%" y2="0%">
            <stop offset="0%" stop-color="gray" stop-opacity=".25"/>
            <stop offset="54%" stop-color="gray" stop-opacity=".12"/>
            <stop offset="100%" stop-color="gray" stop-opacity=".1"/>
        </linearGradient>
        <linearGradient id="c" x1="60.308%" x2="39.749%" y1="98.88%" y2="1.029%">
            <stop offset="0%" stop-color="gray" stop-opacity=".25"/>
            <stop offset="54%" stop-color="gray" stop-opacity=".12"/>
            <stop offset="100%" stop-color="gray" stop-opacity=".1"/>
        </linearGradient>
        <linearGradient id="d" x1="49.999%" x2="49.999%" y1="100%" y2="0%">
            <stop offset="0%" stop-color="gray" stop-opacity=".25"/>
            <stop offset="54%" stop-color="gray" stop-opacity=".12"/>
            <stop offset="100%" stop-color="gray" stop-opacity=".1"/>
        </linearGradient>
        <linearGradient id="e" x1="50%" x2="50%" y1="100%" y2="0%">
            <stop offset="0%" stop-color="gray" stop-opacity=".25"/>
            <stop offset="54%" stop-color="gray" stop-opacity=".12"/>
            <stop offset="100%" stop-color="gray" stop-opacity=".1"/>
        </linearGradient>
        <linearGradient id="f" x1="50%" x2="50%" y1="99.914%" y2="-.086%">
            <stop offset="0%" stop-color="gray" stop-opacity=".25"/>
            <stop offset="54%" stop-color="gray" stop-opacity=".12"/>
            <stop offset="100%" stop-color="gray" stop-opacity=".1"/>
        </linearGradient>
    </defs>
    <g fill="none" fill-rule="nonzero">
        <path fill="#E0E0E0" d="M20.542 40.248l126.992-27.235L185.18 188.39 58.19 215.624z"/>
        <path fill="url(#a)" d="M16.929 11.321l125.49.013.016 173.308-125.489-.012z" opacity=".5" transform="rotate(-12.11 168.285 -3.119)"/>
        <path fill="#FAFAFA" d="M25.154 43.665L144.73 18.021l35.571 165.704L60.726 209.37z"/>
        <path fill="url(#b)" d="M54.763 23.46l60.67.005v14.69l-60.668-.006z" transform="rotate(-12.11 85.099 30.807)"/>
        <path fill="url(#c)" d="M80.544 9.598c-4.58.983-7.478 5.579-6.47 10.263 1.007 4.685 5.534 7.69 10.105 6.708 4.57-.984 7.477-5.58 6.47-10.264-1.008-4.684-5.525-7.69-10.105-6.707zm2.874 13.397a5.012 5.012 0 0 1-5.235-1.953 5.006 5.006 0 0 1-.171-5.582 5.012 5.012 0 0 1 9.138 1.594 4.947 4.947 0 0 1-3.732 5.941z"/>
        <path fill="#0087BA" d="M54.39 29.237l58.07-12.454 2.947 13.73-58.07 12.453z"/>
        <path fill="#0087BA" d="M80.544 9.598a8.297 8.297 0 1 0 3.483 16.224 8.297 8.297 0 1 0-3.483-16.224zM83.29 22.4a4.792 4.792 0 0 1-4.948-1.962 4.787 4.787 0 0 1-.08-5.32 4.792 4.792 0 0 1 8.707 1.596 4.789 4.789 0 0 1-3.68 5.686z"/>
        <path fill="#E0E0E0" d="M76.645 34.729h129.882v179.368H76.645z"/>
        <path fill="url(#d)" d="M.083.036h125.492v173.305H.083z" opacity=".5" transform="translate(78.758 37.726)"/>
        <path fill="#FFF" d="M80.437 39.039h122.297v169.476H80.437z"/>
        <path fill="url(#e)" d="M111.411 31.69h60.67v14.689h-60.67z"/>
        <path fill="url(#f)" d="M141.746 17.351c-4.684 0-8.482 3.885-8.482 8.68 0 4.794 3.798 8.68 8.482 8.68 4.684 0 8.482-3.886 8.482-8.68 0-4.795-3.798-8.68-8.482-8.68zm0 13.688a5.007 5.007 0 1 1-3.704-8.506 5.013 5.013 0 0 1 8.596 3.498 4.95 4.95 0 0 1-4.892 4.985v.023z"/>
        <path fill="#0087BA" d="M112.05 31.06h59.392v14.042H112.05z"/>
        <path fill="#0087BA" d="M141.746 17.351a8.3 8.3 0 0 0-7.669 5.122 8.294 8.294 0 0 0 1.8 9.041 8.304 8.304 0 0 0 9.045 1.799 8.297 8.297 0 0 0-3.176-15.962zm0 13.085a4.79 4.79 0 0 1 0-9.577 4.79 4.79 0 0 1 4.797 4.777 4.787 4.787 0 0 1-4.797 4.785v.015z"/>
        <g fill="#02475B" opacity=".5">
            <path d="M4.538 218.945h1.117v6.336H4.538z"/>
            <path d="M8.268 221.556v1.117h-6.34v-1.117z"/>
        </g>
        <g fill="#02475B" opacity=".5">
            <path d="M134.182 0h1.117v6.336h-1.117z"/>
            <path d="M137.912 2.608v1.117h-6.34V2.608z"/>
        </g>
        <path fill="#FC9916" d="M229.164 229.493a1.37 1.37 0 0 1-.764-1.655.66.66 0 0 0 .03-.151.686.686 0 0 0-1.234-.455.66.66 0 0 0-.077.134 1.37 1.37 0 0 1-1.655.763.66.66 0 0 0-.152-.03.687.687 0 0 0-.455 1.233.66.66 0 0 0 .134.078c.638.277.967.989.764 1.654a.66.66 0 0 0-.03.152.686.686 0 0 0 1.234.454.66.66 0 0 0 .077-.133 1.37 1.37 0 0 1 1.655-.764c.05.016.1.026.152.03a.687.687 0 0 0 .455-1.233.66.66 0 0 0-.134-.077zM40.618 168.579a1.37 1.37 0 0 1-.764-1.655.66.66 0 0 0 .03-.151.686.686 0 0 0-1.233-.455.66.66 0 0 0-.078.134 1.37 1.37 0 0 1-1.655.763.66.66 0 0 0-.152-.03.687.687 0 0 0-.454 1.233.66.66 0 0 0 .133.078c.639.277.967.989.764 1.654a.66.66 0 0 0-.03.152.686.686 0 0 0 1.234.454.66.66 0 0 0 .077-.134 1.37 1.37 0 0 1 1.656-.763c.049.016.1.026.151.03a.687.687 0 0 0 .455-1.233.66.66 0 0 0-.134-.077zM197.66 20.253a1.37 1.37 0 0 1-.763-1.654.66.66 0 0 0 .03-.152.686.686 0 0 0-1.234-.454.66.66 0 0 0-.077.133 1.37 1.37 0 0 1-1.655.764.66.66 0 0 0-.152-.03.687.687 0 0 0-.455 1.233.66.66 0 0 0 .134.077c.638.278.967.99.764 1.655a.66.66 0 0 0-.03.151.686.686 0 0 0 1.234.455.66.66 0 0 0 .077-.134 1.37 1.37 0 0 1 1.655-.763c.05.015.1.025.152.03a.687.687 0 0 0 .455-1.234.66.66 0 0 0-.134-.077z" opacity=".5"/>
        <ellipse cx="241.515" cy="93.415" fill="#00B38E" opacity=".5" rx="2.238" ry="2.237"/>
        <ellipse cx="68.573" cy="221.796" fill="#00B38E" opacity=".5" rx="2.238" ry="2.237"/>
        <ellipse cx="218.533" cy="141.764" fill="#00B38E" opacity=".5" rx="2.238" ry="2.237"/>
        <ellipse cx="25.898" cy="28.621" fill="#FC9916" opacity=".5" rx="2.238" ry="2.237"/>
        <ellipse cx="2.238" cy="89.639" fill="#02475B" opacity=".5" rx="2.238" ry="2.237"/>
    </g>
</svg>
