<svg xmlns="http://www.w3.org/2000/svg" width="24" height="24" viewBox="0 0 24 24">
    <g fill="none">
        <path fill="#02475B" d="M19 2H5c-1.105 0-2 .895-2 2v14c0 1.1.9 2 2 2h4l2.29 2.29c.39.39 1.02.39 1.41 0L15 20h4c1.1 0 2-.9 2-2V4c0-1.1-.9-2-2-2zm-6 16h-2v-2h2v2zm2.07-7.75l-.9.92c-.58.59-.99 1.1-1.12 2.06-.06.43-.41.76-.85.76h-.31c-.249 0-.485-.109-.648-.297-.163-.187-.237-.437-.202-.683.11-.91.53-1.72 1.14-2.34l1.24-1.26c.36-.36.58-.86.58-1.41 0-1.1-.9-2-2-2-.87 0-1.62.57-1.89 1.35-.13.37-.44.64-.83.64h-.3c-.58 0-.98-.56-.82-1.12.563-1.907 2.441-3.11 4.409-2.827C14.537 4.326 15.999 6.012 16 8c0 .88-.36 1.68-.93 2.25z"/>
        <path d="M0 0H24V24H0z"/>
    </g>
</svg>
