<svg xmlns="http://www.w3.org/2000/svg" width="68" height="68" viewBox="0 0 68 68">
    <defs>
        <filter id="a" width="140%" height="140%" x="-20%" y="-20%" filterUnits="objectBoundingBox">
            <feOffset dy="2" in="SourceAlpha" result="shadowOffsetOuter1"/>
            <feGaussianBlur in="shadowOffsetOuter1" result="shadowBlurOuter1" stdDeviation="2"/>
            <feColorMatrix in="shadowBlurOuter1" result="shadowMatrixOuter1" values="0 0 0 0 0 0 0 0 0 0 0 0 0 0 0 0 0 0 0.25 0"/>
            <feMerge>
                <feMergeNode in="shadowMatrixOuter1"/>
                <feMergeNode in="SourceGraphic"/>
            </feMerge>
        </filter>
    </defs>
    <g fill="none" fill-rule="evenodd" filter="url(#a)" transform="translate(4 2)">
        <circle cx="30" cy="30" r="30" fill="#E50000"/>
        <path d="M13.2 13.2h33.6v33.6H13.2z"/>
        <path fill="#FFF" fill-rule="nonzero" d="M20.21 35.637l2.693-2.14a2.7 2.7 0 0 0 1.023-2.114v-3.5a20.285 20.285 0 0 1 12.548 0v3.513a2.7 2.7 0 0 0 1.023 2.114l2.68 2.127a2.697 2.697 0 0 0 3.58-.202l1.643-1.642c1.077-1.077 1.077-2.868-.067-3.878-8.63-7.62-21.636-7.62-30.266 0-1.144 1.01-1.144 2.8-.067 3.878l1.642 1.642c.956.97 2.49 1.05 3.568.202z"/>
    </g>
</svg>
