<svg xmlns="http://www.w3.org/2000/svg" width="36" height="43" viewBox="0 0 36 43">
    <g fill="none" fill-rule="nonzero">
        <path fill="#FFF" d="M18 .09L0 6.638v14.55C0 37.63 17.467 42.102 17.643 42.146l.357.086.357-.086C18.533 42.101 36 37.629 36 21.188V6.638L18 .09z"/>
        <path fill="#C5C5C5" d="M18 .09v42.141l.357-.086C18.533 42.101 36 37.629 36 21.188V6.638L18 .09z"/>
        <path fill="#898989" d="M15 29.309l-7.06-7.061 2.12-2.121 4.94 4.94 10.94-10.94 2.12 2.121z"/>
        <path fill="#505050" d="M18 26.309l10.06-10.061-2.12-2.121-7.94 7.94z"/>
    </g>
</svg>
