<svg width="16" height="11" viewBox="0 0 16 11" fill="none" xmlns="http://www.w3.org/2000/svg">
<path d="M3.68549 5.58097C4.46237 5.58097 5.18532 5.26591 5.72141 4.69407C6.20753 4.17437 6.47518 3.49843 6.47518 2.79029C6.47518 1.25174 5.22344 0 3.6847 0C2.14615 0 0.894409 1.25174 0.894409 2.79029C0.894409 3.49211 1.16206 4.16824 1.64897 4.69486C2.18466 5.26611 2.90782 5.58097 3.68549 5.58097Z" fill="#67909C"/>
<path d="M5.91321 5.35714C5.87785 5.32515 5.82452 5.32297 5.7864 5.35221L5.51875 5.55862C4.99312 5.96553 4.34227 6.18933 3.68568 6.18933C3.0289 6.18933 2.37785 5.96553 1.85262 5.55941L1.58517 5.35221C1.54724 5.32297 1.49371 5.32495 1.45835 5.35714L1.20828 5.58351C0.440291 6.28197 0 7.27653 0 8.31316V10.04C0 10.0943 0.0442464 10.1387 0.0987642 10.1387H7.27201C7.32653 10.1387 7.37077 10.0943 7.37077 10.04V8.31316C7.37077 7.27534 6.93048 6.28059 6.16269 5.5841L5.91321 5.35714Z" fill="#67909C"/>
<path d="M15.9567 4.84895C15.9553 4.84441 15.9542 4.84026 15.9538 4.83848C15.9233 4.76362 15.8785 4.69665 15.821 4.63977L13.7488 2.5673C13.52 2.33817 13.1204 2.33817 12.8915 2.5671C12.7769 2.68127 12.7137 2.83337 12.7137 2.99534C12.7137 3.15732 12.7769 3.30981 12.8915 3.42418L13.9301 4.46258H9.09064C8.75662 4.46258 8.48462 4.73458 8.48462 5.0686C8.48462 5.40262 8.75662 5.67501 9.09064 5.67501H13.9297L12.8915 6.71362C12.7769 6.82739 12.7137 6.97949 12.7137 7.14127C12.7133 7.30344 12.7765 7.45593 12.8911 7.57089C13.0056 7.68546 13.1581 7.74827 13.3197 7.74827C13.4817 7.74827 13.6342 7.68546 13.7488 7.57089L15.8208 5.49822C15.8783 5.44114 15.9231 5.37398 15.9563 5.29299C15.9571 5.29062 15.9581 5.28707 15.9591 5.28331C15.9866 5.21102 16 5.13892 16 5.0686C15.9998 4.9963 15.9854 4.92243 15.9567 4.84895Z" fill="#67909C"/>
</svg>
