<svg xmlns="http://www.w3.org/2000/svg" width="27" height="27" viewBox="0 0 27 27">
    <g fill="#4AA54A">
        <path d="M20.7 9.321c-.414-.412-1.104-.43-1.542-.038l-6.964 6.24L8.872 12.3c-.42-.407-1.11-.416-1.542-.019-.432.397-.44 1.05-.02 1.457l4.072 3.95c.214.208.497.312.782.312.27 0 .54-.094.75-.283l7.746-6.939c.437-.391.455-1.044.04-1.457z"/>
        <path d="M13.5 0C6.056 0 0 6.056 0 13.5S6.056 27 13.5 27 27 20.944 27 13.5 20.944 0 13.5 0zm0 24.81c-6.237 0-11.31-5.073-11.31-11.31S7.262 2.19 13.5 2.19 24.81 7.262 24.81 13.5 19.738 24.81 13.5 24.81z"/>
    </g>
</svg>
