<svg width="15" height="15" viewBox="0 0 15 15" fill="none" xmlns="http://www.w3.org/2000/svg">
<path d="M0.32056 15C0.235964 15 0.153667 14.9667 0.0926341 14.9052C0.0121761 14.8242 -0.0188577 14.7066 0.0113715 14.5966L0.990775 11.0357C0.381018 9.93782 0.0595314 8.69591 0.0599911 7.43523C0.0617152 3.33538 3.41267 0 7.53005 0C9.52713 0.000801088 11.4036 0.775337 12.8141 2.18067C14.2243 3.58612 15.0006 5.45437 15 7.44118C14.9982 11.5411 11.6472 14.8767 7.53005 14.8767C7.53005 14.8767 7.52695 14.8767 7.52683 14.8767C6.32422 14.8763 5.13195 14.5845 4.07036 14.0317L0.401823 14.9896C0.374927 14.9966 0.347571 15 0.32056 15Z" fill="#E5E5E5"/>
<path fill-rule="evenodd" clip-rule="evenodd" d="M1.05952 11.1485L0 15L3.95925 13.9664C5.05011 14.5587 6.27821 14.8708 7.52816 14.8713H7.5314C11.6475 14.8713 14.9982 11.5366 15 7.43844C15.0007 5.45225 14.2245 3.58475 12.8144 2.17983C11.4043 0.774898 9.52916 0.000836701 7.5314 0C3.41461 0 0.0643586 3.33422 0.0626776 7.43247C0.0621973 8.74249 0.405964 10.0212 1.05952 11.1485ZM4.36947 12.7547L4.14265 12.6209L1.7932 13.2341L2.42046 10.9545L2.27277 10.7207C1.65128 9.73696 1.32324 8.60025 1.32372 7.43295C1.32504 4.02665 4.10963 1.2554 7.53373 1.2554C9.19192 1.25612 10.7503 1.89953 11.9225 3.0672C13.0945 4.23487 13.7395 5.78717 13.7389 7.43797C13.7375 10.8444 10.9528 13.616 7.53145 13.616H7.52904C6.4149 13.6154 5.32236 13.3176 4.36947 12.7547Z" fill="white"/>
<path d="M0.750206 14.25L1.70384 10.7835C1.11547 9.76898 0.806177 8.618 0.806513 7.43916C0.807968 3.75075 3.82335 0.75 7.5283 0.75C9.32654 0.75078 11.0143 1.44745 12.2832 2.71187C13.5524 3.97629 14.2509 5.65702 14.2502 7.44439C14.2486 11.1329 11.2331 14.134 7.52864 14.134C7.5283 14.134 7.52875 14.134 7.52864 14.134H7.52562C6.40071 14.1336 5.29528 13.8525 4.31355 13.3199L0.750206 14.25Z" fill="#64B161"/>
<path fill-rule="evenodd" clip-rule="evenodd" d="M1.08479 11.1352L0.0274658 14.9727L3.97853 13.9429C5.06713 14.533 6.29268 14.844 7.54005 14.8445H7.54328C11.6508 14.8445 14.9946 11.5219 14.9964 7.43868C14.9972 5.45971 14.2225 3.599 12.8154 2.19918C11.4082 0.799362 9.53691 0.0281164 7.54328 0.0272827C3.43501 0.0272827 0.0916913 3.34938 0.0900138 7.43272C0.0895345 8.73798 0.43259 10.012 1.08479 11.1352ZM4.38763 12.7356L4.16128 12.6023L1.81669 13.2133L2.44265 10.9419L2.29527 10.709C1.67506 9.72884 1.3477 8.59627 1.34818 7.43321C1.3495 4.0393 4.12833 1.27812 7.54534 1.27812C9.2001 1.27884 10.7553 1.91992 11.925 3.08334C13.0946 4.24676 13.7383 5.79342 13.7377 7.43821C13.7363 10.8322 10.9573 13.5938 7.54306 13.5938H7.54067C6.42882 13.5932 5.33855 13.2965 4.38763 12.7356Z" fill="white"/>
<path d="M5.68037 4.33678C5.54089 4.02856 5.39399 4.02237 5.26123 4.01701C5.15267 4.01237 5.02841 4.01261 4.90439 4.01261C4.78025 4.01261 4.57847 4.05905 4.40784 4.24424C4.23709 4.42943 3.75588 4.87722 3.75588 5.78793C3.75588 6.69875 4.4233 7.57873 4.5164 7.70235C4.60951 7.82585 5.80475 9.75444 7.6976 10.4964C9.27076 11.113 9.59081 10.9904 9.93231 10.9595C10.2738 10.9287 11.0341 10.5117 11.1893 10.0796C11.3446 9.64737 11.3446 9.27699 11.2979 9.19946C11.2513 9.12241 11.1272 9.07608 10.941 8.98355C10.7548 8.89101 9.83921 8.4431 9.66846 8.38141C9.49771 8.3196 9.37357 8.28888 9.24944 8.47419C9.12518 8.65926 8.76858 9.07608 8.6599 9.19946C8.55122 9.3232 8.44254 9.33868 8.25634 9.24603C8.07013 9.15326 7.47029 8.95794 6.75878 8.32735C6.2052 7.8368 5.83135 7.23086 5.72267 7.04555C5.61411 6.86048 5.72087 6.76901 5.80451 6.6679C5.95512 6.48581 6.20783 6.15842 6.2699 6.03504C6.33197 5.91142 6.30094 5.80341 6.25444 5.71075C6.20783 5.61822 5.84585 4.70287 5.68037 4.33678Z" fill="white"/>
</svg>
