<svg xmlns="http://www.w3.org/2000/svg" width="20" height="20" viewBox="0 0 20 20">
    <g fill="none" fill-rule="evenodd">
        <path d="M0 0L20 0 20 20 0 20z"/>
        <path fill="#00B38E" d="M9.815 1.667c-3.574 0-6.482 2.862-6.482 6.38 0 1.126.303 2.233.874 3.202.134.225.283.445.443.654l4.713 6.206c.107.141.274.224.452.224.177 0 .344-.083.452-.224l4.712-6.206c.16-.209.31-.429.443-.654.572-.969.874-2.076.874-3.202 0-3.518-2.907-6.38-6.481-6.38zm0 8.496c-1.185 0-2.15-.95-2.15-2.116 0-1.167.965-2.116 2.15-2.116s2.15.95 2.15 2.116c0 1.167-.965 2.116-2.15 2.116z"/>
    </g>
</svg>
