<svg width="20" height="29" viewBox="0 0 20 29" fill="none" xmlns="http://www.w3.org/2000/svg">
<g opacity="0.489118">
<path fill-rule="evenodd" clip-rule="evenodd" d="M17.2128 11.4179C17.2985 11.5065 17.3842 11.5951 17.4698 11.6802C21.1325 15.7651 20.7791 22.084 16.6666 25.7221C12.5542 29.3602 6.19279 29.0091 2.53016 24.9242C-1.13247 20.8393 -0.779059 14.5524 3.33337 10.8824V10.7867V6.63795C3.33337 2.96793 6.32131 0 10.0161 0C13.7108 0 16.6988 2.96793 16.6988 6.63795V10.9143C16.8701 11.0633 17.0415 11.2406 17.2128 11.4179ZM5.09998 6.66983V9.66968C8.15217 7.94636 11.8791 7.94636 14.9313 9.66968V6.66983C14.9313 3.95721 12.7465 1.78711 10.0156 1.78711C7.28471 1.78711 5.09998 3.98912 5.09998 6.66983Z" fill="black"/>
</g>
</svg>
