<svg xmlns="http://www.w3.org/2000/svg" width="20" height="21" viewBox="0 0 20 21">
    <g fill="#01475B">
        <path d="M18.545 19.88l-3.863-3.76.454.648c.819 1.254.5 2.81-.727 3.674 1.364.562 2.955.346 4.136-.562zM18.864 14.305c-1.319-1.34-3.728-1.6-5.364-.303l5.5 5.446c1.364-1.47 1.318-3.717-.136-5.143zM0 9.94H5.909V16.725H0z"/>
        <path d="M1.727 20.528h7.91c.454 0 .818-.13 1.136-.389-.137-.13-.273-.302-.41-.475L7.5 15.429c-.818-1.254-.455-2.94.864-3.717.909-.562 2.045-.562 2.954-.043V6.396l-1.636-2.68H1.636L0 6.397v3.112h6.364v7.65H0v1.728c0 .908.773 1.642 1.727 1.642zM1.5 0C1.182 0 .91.26.91.562v2.16c0 .303.272.563.59.563h8.09c.32 0 .592-.26.592-.562V.562C10.182.259 9.909 0 9.59 0H1.5z"/>
        <path d="M8.636 12.058c-1.09.648-1.454 2.074-.727 3.111.41.649.818 1.21 1.182 1.772l4.045-2.377-1.181-1.815c-.728-1.037-2.228-1.383-3.319-.691zM14.773 17.028l-1.41-2.118-4.045 2.42c.455.692.91 1.383 1.41 2.118.681 1.08 2.181 1.383 3.272.691 1.136-.648 1.5-2.031.773-3.111z"/>
    </g>
</svg>
