<svg width="24" height="24" viewBox="0 0 24 24" fill="none" xmlns="http://www.w3.org/2000/svg">
<path fill-rule="evenodd" clip-rule="evenodd" d="M19.7914 13.9989L21.0579 16.5188C21.2927 16.9861 21.0621 17.3693 20.5452 17.3767C20.5383 17.3768 20.5313 17.3769 20.5243 17.3769H20.3117C20.31 17.3769 20.3082 17.3769 20.3065 17.3769C19.7834 17.3853 19.3618 17.8118 19.3602 18.3374V20.9358C19.3587 21.4657 18.9302 21.8948 18.4012 21.8964H18.3813C18.3795 21.8964 18.3778 21.8964 18.3761 21.8964H16.7806C16.254 21.9007 15.8282 22.3288 15.8267 22.857V23.0117C15.8251 23.5416 15.3967 23.9708 14.8676 23.9723H14.8104H12.8553H7.39387C6.86002 23.9708 6.42764 23.5416 6.42607 23.0117V18.176C6.39747 17.5542 6.21257 16.9494 5.88822 16.4167C5.88822 16.4167 4.26096 13.9994 4.26096 11.9492C4.26096 7.78917 7.65859 4.41678 11.8498 4.41678C11.8656 4.41678 11.8813 4.41683 11.8971 4.41692C13.7194 4.40566 15.4967 5.05941 16.8855 6.27506C18.5201 7.70576 19.4567 9.77481 19.4541 11.949V12.3548C19.402 12.7872 19.3596 13.1411 19.3598 13.141C19.36 13.1409 19.5543 13.5269 19.7914 13.9989Z" fill="#FFECCD"/>
<path d="M8.37895 23.0117V18.1759C8.35088 17.5541 8.16942 16.9493 7.85109 16.4166C7.85109 16.4166 6.25392 13.9992 6.25392 11.949C6.25475 8.17902 9.01126 4.99029 12.7054 4.48591C10.5753 4.19194 8.42364 4.84436 6.80482 6.27504C5.18601 7.70572 4.25838 9.77475 4.26096 11.949C4.26096 13.9992 5.85813 16.4166 5.85813 16.4166C6.17646 16.9493 6.35792 17.5541 6.38599 18.1759V23.0117C6.38753 23.5416 6.81189 23.9708 7.33583 23.9723H9.32879C8.80485 23.9708 8.38049 23.5416 8.37895 23.0117Z" fill="#FDD79C"/>
<path d="M12.2606 7.97229V11.5278H8.7054C8.7054 12.9659 9.5717 14.2624 10.9003 14.8127C12.229 15.363 13.7583 15.0587 14.7751 14.0418C15.792 13.0249 16.0961 11.4955 15.5457 10.1669C14.9952 8.83835 13.6987 7.97216 12.2606 7.97229V7.97229Z" fill="#527992"/>
<path d="M11.8165 7.97229C10.0983 7.97229 8.7054 9.36518 8.7054 11.0834H11.8165V7.97229Z" fill="#FC4C8A"/>
<path fill-rule="evenodd" clip-rule="evenodd" d="M12.4773 0.776156C12.4773 1.14828 12.2136 1.45925 11.8617 1.53479V3.07738C11.8617 3.16843 11.7874 3.24224 11.6957 3.24224C11.604 3.24224 11.5297 3.16843 11.5297 3.07738V1.53474C11.1779 1.45911 10.9143 1.14821 10.9143 0.776156C10.9143 0.347497 11.2642 0 11.6958 0C12.1274 0 12.4773 0.347497 12.4773 0.776156ZM5.1682 5.65407C5.10417 5.71766 5.00064 5.71856 4.93551 5.65608L4.20422 4.92975C4.08235 5.00775 3.93723 5.05302 3.78146 5.05302C3.34987 5.05302 3 4.70552 3 4.27686C3 3.8482 3.34987 3.50071 3.78146 3.50071C4.21305 3.50071 4.56293 3.8482 4.56293 4.27686C4.56293 4.43151 4.51739 4.5756 4.4389 4.69662L5.17022 5.42297C5.23312 5.48766 5.23222 5.59048 5.1682 5.65407ZM18.3389 5.70435C18.3829 5.70437 18.4252 5.68702 18.4563 5.6561L19.1875 4.92984C19.3094 5.00779 19.4545 5.05302 19.6102 5.05302C20.0417 5.05302 20.3916 4.70552 20.3916 4.27686C20.3916 3.8482 20.0417 3.50071 19.6102 3.50071C19.1786 3.50071 18.8287 3.8482 18.8287 4.27686C18.8287 4.43156 18.8743 4.57569 18.9528 4.69673L18.2215 5.42299C18.174 5.47014 18.1598 5.54108 18.1855 5.6027C18.2112 5.66433 18.2718 5.70449 18.3389 5.70446V5.70435Z" fill="#FC4C8A"/>
</svg>
