<svg width="24" height="24" viewBox="0 0 24 24" fill="none" xmlns="http://www.w3.org/2000/svg">
<path d="M15.6696 10.125H14.0886C14.173 10.5889 14.2247 11.0929 14.242 11.625H16.1061C16.0574 11.0888 15.9044 10.5829 15.6696 10.125Z" fill="#02475B"/>
<path d="M10.6073 15.8779C10.3999 15.5332 10.2237 15.1106 10.0857 14.625H8.8208C9.28805 15.1901 9.90455 15.6244 10.6073 15.8779Z" fill="#02475B"/>
<path d="M8.3303 13.875H9.9113C9.82692 13.4111 9.77517 12.9071 9.75792 12.375H7.8938C7.94255 12.9112 8.09555 13.4171 8.3303 13.875Z" fill="#02475B"/>
<path d="M14.0884 13.875H15.6694C15.9041 13.4171 16.0571 12.9112 16.1059 12.375H14.2418C14.2249 12.9071 14.1728 13.4111 14.0884 13.875Z" fill="#02475B"/>
<path d="M8.82031 9.37501H10.0852C10.2232 8.88938 10.3991 8.46676 10.6068 8.12213C9.90444 8.37563 9.28794 8.80988 8.82031 9.37501Z" fill="#02475B"/>
<path d="M7.89429 11.625H9.75841C9.77566 11.0929 9.82741 10.5889 9.91179 10.125H8.33079C8.09566 10.5829 7.94266 11.0888 7.89429 11.625Z" fill="#02475B"/>
<path d="M13.3928 8.12213C13.6002 8.46676 13.7764 8.88938 13.9144 9.37501H15.1793C14.7121 8.80988 14.0956 8.37563 13.3928 8.12213Z" fill="#02475B"/>
<path d="M10.5078 11.625H13.4921C13.4726 11.0824 13.4107 10.5784 13.3196 10.125H10.6803C10.5888 10.5784 10.5273 11.0824 10.5078 11.625Z" fill="#02475B"/>
<path d="M12 7.875C11.5968 7.875 11.1675 8.44762 10.8716 9.375H13.1287C12.8325 8.44762 12.4031 7.875 12 7.875Z" fill="#02475B"/>
<path d="M10.125 16.4988V21.7995L11.625 20.7993V17.625H12.375V20.7993L13.875 21.7995V16.4988C13.2975 16.7403 12.6641 16.875 12 16.875C11.3359 16.875 10.7025 16.7403 10.125 16.4988Z" fill="#02475B"/>
<path d="M12.0001 16.125C12.4032 16.125 12.8326 15.5524 13.1285 14.625H10.8713C11.1676 15.5524 11.597 16.125 12.0001 16.125Z" fill="#02475B"/>
<path d="M15.1796 14.625H13.9147C13.7767 15.1106 13.6008 15.5332 13.3931 15.8779C14.0954 15.6244 14.7119 15.1901 15.1796 14.625Z" fill="#02475B"/>
<path d="M13.4921 12.375H10.5078C10.5273 12.9176 10.5892 13.4216 10.6803 13.875H13.3196C13.4111 13.4216 13.4726 12.9176 13.4921 12.375Z" fill="#02475B"/>
<path d="M7.125 12C7.125 9.312 9.312 7.125 12 7.125C14.688 7.125 16.875 9.312 16.875 12C16.875 13.7213 15.9757 15.2336 14.625 16.1014V17.61C15.5531 17.5748 16.5859 17.4158 17.5485 17.124C17.1311 16.6594 16.875 16.047 16.875 15.375V13.5H18C18.9788 13.5 19.8326 14.0396 20.2838 14.8358C20.6914 14.2556 21.3641 13.875 22.125 13.875H22.875V5.625H1.125V13.875H1.875C2.63587 13.875 3.30862 14.2556 3.71625 14.8358C4.16737 14.0396 5.02125 13.5 6 13.5H7.125V15.375C7.125 16.047 6.86888 16.6594 6.4515 17.124C7.41412 17.4158 8.4465 17.5744 9.375 17.61V16.1014C8.02425 15.2336 7.125 13.7213 7.125 12ZM22.125 12.375H19.125V11.625H22.125V12.375ZM18 6.75H21.75V9H18V6.75ZM17.625 10.125H22.125V10.875H17.625V10.125ZM17.625 11.625H18.375V12.375H17.625V11.625ZM2.25 6.75H6V9H2.25V6.75ZM4.875 12.375H1.875V11.625H4.875V12.375ZM6.375 12.375H5.625V11.625H6.375V12.375ZM6.375 10.875H1.875V10.125H6.375V10.875Z" fill="#02475B"/>
<path d="M22.125 14.625C21.2977 14.625 20.625 15.2977 20.625 16.125V16.3354C20.4015 16.5435 20.1506 16.7363 19.875 16.911V16.125C19.875 15.0896 19.0354 14.25 18 14.25H17.625V15.375C17.625 16.3455 18.3649 17.1341 19.3095 17.2309C17.9014 17.9479 16.1044 18.3142 14.625 18.3675V19.1171C15.4444 19.0871 16.5259 18.9566 17.625 18.6638V19.125C17.625 20.1604 18.4646 21 19.5 21H19.875V19.875C19.875 19.1711 19.4846 18.5618 18.9113 18.2411C19.74 17.9089 20.5196 17.4619 21.1451 16.875H22.125C22.9523 16.875 23.625 16.2023 23.625 15.375V14.625H22.125Z" fill="#02475B"/>
<path d="M6.375 15.375V14.25H6C4.96462 14.25 4.125 15.0896 4.125 16.125V16.9114C3.84938 16.7362 3.5985 16.5439 3.375 16.3358V16.125C3.375 15.2977 2.70225 14.625 1.875 14.625H0.375V15.375C0.375 16.2023 1.04775 16.875 1.875 16.875H2.85488C3.48038 17.4619 4.26 17.9089 5.08875 18.2411C4.51537 18.5618 4.125 19.1711 4.125 19.875V21H4.5C5.53538 21 6.375 20.1604 6.375 19.125V18.6641C7.47412 18.957 8.55562 19.0871 9.375 19.1175V18.3675C7.89563 18.3142 6.09863 17.9475 4.6905 17.2305C5.63513 17.1341 6.375 16.3455 6.375 15.375Z" fill="#02475B"/>
<path d="M22.875 1.5C22.875 1.293 22.707 1.125 22.5 1.125H1.5C1.293 1.125 1.125 1.293 1.125 1.5V4.875H22.875V1.5ZM3.75 3.75H2.25V2.25H3.75V3.75ZM6.75 3.75H5.25V2.25H6.75V3.75ZM9.75 3.75H8.25V2.25H9.75V3.75Z" fill="#02475B"/>
</svg>
