<svg xmlns="http://www.w3.org/2000/svg" xmlns:xlink="http://www.w3.org/1999/xlink" width="100" height="100" viewBox="0 0 100 100">
    <defs>
        <circle id="a" cx="50" cy="50" r="50"/>
    </defs>
    <g fill="none" fill-rule="evenodd">
        <mask id="b" fill="#fff">
            <use xlink:href="#a"/>
        </mask>
        <use fill="#FFF" xlink:href="#a"/>
        <g fill="#02475B" fill-opacity=".6" fill-rule="nonzero" mask="url(#b)">
            <path d="M64.263 49.097a19.329 19.329 0 0 1-2.08 1.796c-.664.523-1.367.991-2.103 1.4a20.206 20.206 0 0 1-20.16 0 16.401 16.401 0 0 1-2.149-1.423 18.384 18.384 0 0 1-2.034-1.75C24.88 54.639 18.011 65.95 18 78.333v2.334C18 81.955 19.023 83 20.286 83h59.428C80.977 83 82 81.955 82 80.667v-2.334c-.002-12.39-6.872-23.714-17.737-29.236zM40.514 44.803a15.738 15.738 0 0 0 18.972 0c5.567-4.184 7.872-11.544 5.715-18.25C63.044 19.85 56.913 15.318 50 15.318s-13.044 4.532-15.201 11.237.148 14.065 5.715 18.25z"/>
        </g>
    </g>
</svg>
