<svg xmlns="http://www.w3.org/2000/svg" width="24" height="24" viewBox="0 0 24 24">
    <g fill="none" fill-rule="evenodd">
        <path d="M0 0L24 0 24 24 0 24z"/>
        <path fill="#0087BA" fill-rule="nonzero" d="M13.823 2c.579 0 1.133.252 1.514.696.378.436.55 1.02.466 1.594l-.843 5.813h5.276c1.434 0 2.6 1.162 2.605 2.596v3.636c0 1.028-.273 2.043-.789 2.932l-1.359 2.345c-.637 1.099-1.82 1.778-3.087 1.778h-7.251c-.139 0-.273-.042-.386-.122l-.37-.255c-.524-.365-.838-.965-.838-1.607v-10.77c0-.814.243-1.615.709-2.286 1.002-1.455 1.786-3.36 2.504-5.109C12.284 2.487 13.01 2 13.824 2zm-7.092 8.103c.377 0 .684.306.684.684v11.915c0 .382-.31.688-.688.688h-2.03C3.207 23.39 2 22.182 2 20.693v-9.919c0-.369.302-.671.671-.671zm-1.392 2.592c-.407 0-.739.331-.739.738s.332.738.739.738c.41 0 .738-.327.738-.738 0-.407-.332-.738-.738-.738z"/>
    </g>
</svg>
