<svg xmlns="http://www.w3.org/2000/svg" width="21" height="23" viewBox="0 0 21 23">
    <g fill="#02475B">
        <path d="M17 3.972L13.028 3.972 13.028 0 7.972 0 7.972 3.972 4 3.972 4 9.028 7.972 9.028 7.972 13 13.028 13 13.028 9.028 17 9.028zM19.015 13.433v-4.32c0-.614.447-1.113.996-1.113.546 0 .989.5.989 1.112v5.917c0 .819-.262 1.609-.732 2.227l-3.284 3.918c-.325.344-.406.65-.406 1.113V23h-3.573l-.004-1.698c0-.646-.047-1.51.673-2.358l4.167-4.7c.147-.162.342-.25.549-.25.436 0 .79.397.79.887 0 .211-.066.417-.188.577l-2.01 2.42c-.13.172-.35.495-.46.891-.059.206-.076.407-.079.636h.647c.003-.163.013-.294.047-.417.064-.228.19-.435.285-.566l2.04-2.516c.257-.29.398-.667.398-1.062 0-.595-.319-1.14-.845-1.41zM1.984 13.433v-4.32C1.984 8.498 1.538 8 .99 8 .442 8 0 8.5 0 9.112v5.917c0 .819.261 1.609.732 2.227l3.284 3.918c.325.344.405.65.405 1.113V23h3.574L8 21.302c0-.646.047-1.51-.672-2.358l-4.167-4.7c-.149-.16-.343-.249-.55-.249-.435 0-.79.397-.79.886 0 .212.066.417.188.578l2.01 2.42c.13.17.35.494.46.89.058.206.075.407.08.637H3.91c-.002-.165-.014-.296-.048-.418-.063-.229-.19-.434-.284-.566l-2.04-2.516c-.257-.291-.397-.667-.397-1.063 0-.594.317-1.14.843-1.41z"/>
    </g>
</svg>
