<?xml version="1.0" encoding="UTF-8"?>
<svg width="35px" height="34px" viewBox="0 0 35 34" version="1.1" xmlns="http://www.w3.org/2000/svg" xmlns:xlink="http://www.w3.org/1999/xlink">
    <!-- Generator: sketchtool 63.1 (101010) - https://sketch.com -->
    <title>FE31B681-4DD1-4F14-B0F5-4030CAA664FE</title>
    <desc>Created with sketchtool.</desc>
    <defs>
        <polygon id="path-1" points="0 0 34.9269672 0 34.9269672 34 0 34"></polygon>
    </defs>
    <g id="Homepage-search" stroke="none" stroke-width="1" fill="none" fill-rule="evenodd">
        <g id="07---Medicine---Search-Add-to-cart" transform="translate(-1028.000000, -116.000000)">
            <g id="offer-icon" transform="translate(1028.000000, 116.000000)">
                <g id="Group-12">
                    <g id="Group-3">
                        <mask id="mask-2" fill="white">
                            <use xlink:href="#path-1"></use>
                        </mask>
                        <g id="Clip-2"></g>
                        <path d="M13.9503934,32.358462 C14.9668689,31.7707361 15.939082,31.2233034 16.8949016,30.6488178 C17.2917049,30.4103274 17.6367049,30.4096736 18.0342459,30.649063 C18.9980164,31.2292697 19.9788361,31.7810341 20.9755574,32.3573995 C21.6369508,31.3912601 22.2894918,30.4560966 22.9205574,29.5066303 C23.1498197,29.1617264 23.4262131,29.0218034 23.8441639,29.0580918 C24.9822787,29.1569043 26.1229344,29.2264572 27.2787541,29.3086784 C27.3081803,29.2091303 27.3454754,29.1221687 27.3588361,29.0318562 C27.504082,28.0520678 27.666541,27.0740774 27.7799836,26.0905293 C27.8433443,25.5415437 28.0717869,25.2144572 28.614,25.0252505 C29.6505574,24.6636736 30.6644918,24.2372024 31.6955574,23.8345966 C31.3461311,22.7133322 31.0159672,21.6233707 30.663918,20.5405197 C30.5362951,20.1478851 30.5953115,19.8361639 30.8897377,19.5407889 C31.2835082,19.1456207 31.654082,18.7274861 32.0335902,18.3181784 C32.4376066,17.8823899 32.8403934,17.4452937 33.2542459,16.9974909 C32.5211311,16.2087889 31.8453934,15.4233562 31.104,14.7053514 C30.6149016,14.2316399 30.5248197,13.7797505 30.7571967,13.1467457 C31.1143279,12.1741495 31.3827705,11.1692697 31.6932623,10.1638995 C30.5885082,9.7343226 29.526623,9.31716875 28.4610492,8.90941394 C28.1171148,8.77766394 27.8846557,8.58298125 27.8404754,8.18658702 C27.7850656,7.68811106 27.691377,7.1938851 27.6149836,6.69777933 C27.5124426,6.03216394 27.4106393,5.3663851 27.3068689,4.69022644 C26.1194918,4.77514471 24.9786721,4.84437067 23.8406393,4.94473606 C23.439082,4.98012548 23.1629344,4.85663029 22.9424426,4.52651971 C22.3685902,3.66728413 21.7818689,2.81663029 21.1988361,1.96352452 C21.1254754,1.85613029 21.0435902,1.75453894 20.9651475,1.64959663 C19.974,2.22171202 19.0105574,2.75745721 18.0696557,3.33006298 C17.6449836,3.5885774 17.2853115,3.59102933 16.8595738,3.33186106 C15.9103934,2.75394279 14.9385902,2.21296683 13.9606393,1.64812548 C13.8646557,1.7804476 13.7830984,1.88726971 13.7074426,1.99793317 C13.131623,2.8395149 12.554,3.67987067 11.9838361,4.52521202 C11.8053115,4.78993798 11.593918,4.9783274 11.251541,4.95331779 C10.8711311,4.92561106 10.4908852,4.89561587 10.1104754,4.86823606 C9.28752459,4.80914471 8.4644918,4.75103413 7.62219672,4.69104375 C7.59629508,4.84837548 7.57514754,4.96721202 7.55719672,5.08653894 C7.40785246,6.07956779 7.2432623,7.0706351 7.11695082,8.06644279 C7.05777049,8.53296202 6.82777049,8.77897163 6.39268852,8.9382649 C5.33596721,9.32534183 4.29383607,9.75205817 3.23555738,10.1668418 C3.57719672,11.2731495 3.89383607,12.3523226 4.24809836,13.4190726 C4.38965574,13.8452168 4.334,14.1719764 4.0132623,14.4881111 C3.63547541,14.8603947 3.28555738,15.2610389 2.9247377,15.6504043 C2.51137705,16.0964091 2.09932787,16.5437216 1.67440984,17.0037841 C2.40613115,17.7913418 3.08080328,18.5775918 3.82268852,19.2946159 C4.31309836,19.7685726 4.4032623,20.2197264 4.17096721,20.8530582 C3.814,21.826063 3.54539344,22.8312697 3.23457377,23.8377841 C4.33793443,24.2665437 5.39981967,24.6836976 6.46547541,25.0907986 C6.8097377,25.2223034 7.04244262,25.4165774 7.08695082,25.8128082 C7.14301639,26.3112841 7.23654098,26.8055101 7.31293443,27.3016976 C7.41547541,27.9675582 7.51719672,28.6336639 7.62072131,29.3091687 C8.76629508,29.228337 9.86760656,29.1738226 10.9631803,29.0631591 C11.4811311,29.0107697 11.8034262,29.1778274 12.0808852,29.6077312 C12.6767869,30.5307986 13.3138361,31.4273034 13.9503934,32.358462 M27.7900656,30.7628322 C26.6351475,30.6785678 25.478918,30.6088514 24.326377,30.4998226 C24.0480164,30.4735053 23.9095738,30.5525389 23.7656393,30.768063 C23.146541,31.6952986 22.5132623,32.6130534 21.8827705,33.532688 C21.5255574,34.0538851 21.2199836,34.1245822 20.6786721,33.8130245 C19.7235902,33.2633034 18.7645738,32.7201207 17.819,32.1545437 C17.5661311,32.0032601 17.376623,31.9913274 17.1172787,32.1474332 C16.1733443,32.7157072 15.214082,33.2589716 14.2588361,33.8084476 C13.708918,34.1248274 13.401623,34.0579716 13.0488361,33.5431495 C12.4108852,32.6121543 11.7721967,31.6817313 11.1457213,30.7431351 C11.0085902,30.5379091 10.8698197,30.4716255 10.6133443,30.4958178 C9.46072131,30.6046832 8.30547541,30.6863322 7.15055738,30.7700245 C6.65260656,30.8061495 6.37416393,30.5626736 6.28629508,30.0031447 C6.1094918,28.8769764 5.93268852,27.750563 5.78686885,26.6202264 C5.75408197,26.3663707 5.64080328,26.2827601 5.4337541,26.2038899 C4.39236066,25.8069236 3.35572131,25.3975341 2.31727869,24.9928851 C1.68465574,24.7463034 1.55522951,24.4837841 1.75785246,23.8248707 C2.08072131,22.7750389 2.40252459,21.7248803 2.74063934,20.6798707 C2.82039344,20.4333707 2.80014754,20.2681111 2.60867213,20.0698322 C1.84301639,19.2765534 1.099,18.4624332 0.349655738,17.653462 C-0.114032787,17.1530245 -0.116245902,16.8499668 0.341213115,16.3559043 C1.09031148,15.5468514 1.83613115,14.7342841 2.599,13.9383082 C2.78236066,13.7469764 2.82842623,13.5886639 2.74490164,13.3318659 C2.39703279,12.2616832 2.07162295,11.1843082 1.7435082,10.1078322 C1.56531148,9.52296683 1.69981967,9.24728894 2.26785246,9.02498125 C3.33104918,8.60897163 4.39506557,8.19484183 5.46162295,7.7875774 C5.65596721,7.71336587 5.75416393,7.6228899 5.7844918,7.3915101 C5.92940984,6.2883899 6.10555738,5.18943798 6.2694918,4.08885144 C6.37514754,3.3795101 6.65801639,3.18311106 7.38531148,3.24947644 C8.51113115,3.35204856 9.63891803,3.43606779 10.7673607,3.50292356 C10.8850656,3.50987067 11.0503934,3.3741976 11.1299836,3.26042837 C11.7767049,2.33564471 12.4071148,1.39950048 13.0449016,0.468423558 C13.4041639,-0.0560427885 13.7021148,-0.125840865 14.2483443,0.187760096 C15.204,0.736500481 16.1632623,1.27951971 17.1084262,1.84566875 C17.3622787,1.99768798 17.5512131,2.0086399 17.8099016,1.85294279 C18.7421967,1.29161587 19.6896557,0.755298558 20.6326066,0.211707212 C21.2282623,-0.131725481 21.5203934,-0.0662591346 21.9008033,0.490899519 C22.5294918,1.41159663 23.1635082,2.32894279 23.781623,3.25675048 C23.9195738,3.46369279 24.0567869,3.52817837 24.3126885,3.50406779 C25.4653934,3.39561106 26.6207213,3.31396202 27.7755574,3.23026971 C28.2410492,3.1965149 28.5312951,3.40778894 28.6092459,3.87798606 C28.8022787,5.04248606 28.9844918,6.20919279 29.1417049,7.37892356 C29.1754754,7.63008221 29.2851475,7.7176976 29.493918,7.79705817 C30.5356393,8.19337067 31.5722787,8.60267837 32.6107213,9.0073274 C33.2417869,9.25317356 33.3727705,9.5215774 33.1705574,10.1762409 C32.846377,11.2256639 32.5299836,12.2776207 32.1844918,13.3200149 C32.0925246,13.5974091 32.1598197,13.7613611 32.3488361,13.9588226 C33.1017049,14.7457264 33.8380984,15.5482409 34.5784262,16.3469957 C35.0403934,16.8453082 35.0430164,17.1533514 34.5873607,17.6450437 C33.8378525,18.4538514 33.0920328,19.2662553 32.329,20.0621495 C32.1456393,20.2533178 32.0995738,20.4110582 32.1831803,20.6682649 C32.5312951,21.7384476 32.8558033,22.8161495 33.1843279,23.8925438 C33.3626066,24.4769187 33.2284262,24.7530053 32.6609672,24.9749861 C31.5976066,25.3909139 30.5337541,25.8052889 29.4673607,26.2131255 C29.2738361,26.2870918 29.173918,26.3768322 29.1434262,26.6087024 C28.9985082,27.7117409 28.8219508,28.8106928 28.6582623,29.9113611 C28.5649016,30.5386447 28.3083443,30.7950341 27.7900656,30.7628322" id="Fill-1" fill="#01475B" mask="url(#mask-2)"></path>
                    </g>
                    <path d="M7.33792522,16.9756186 C7.31339142,22.6428821 12.0283686,27.3598858 17.7439751,27.3862473 C23.5351952,27.4125471 28.2908938,22.7714471 28.3208364,17.0643626 C28.350498,11.3461445 23.6349462,6.62759663 17.8745954,6.61170874 C12.0954439,6.59582108 7.36289745,11.2508991 7.33792522,16.9756186 M29.7169721,17.0190154 C29.7250087,23.4757104 24.3975689,28.7648366 17.881656,28.7692279 C11.2641039,28.7736948 5.94397092,23.5290218 5.94339623,17.0004051 C5.94282153,10.4886921 11.2605736,5.22735932 17.8391284,5.23077089 C24.4148098,5.23434831 29.708753,10.488367 29.7169721,17.0190154" id="Fill-4" fill="#01475B"></path>
                    <path d="M12.5301778,22.8846154 C12.2900874,22.7103983 12.0191164,22.6099227 11.9369889,22.4282749 C11.8462513,22.2274851 11.8961735,21.9453618 11.9488279,21.7124262 C11.9769764,21.5878816 12.13585,21.4883752 12.242566,21.3842649 C15.3862601,18.3152341 18.5306992,15.247011 21.6754695,12.1791917 C21.7726647,12.0843698 21.8663,11.9828441 21.9764104,11.9044182 C22.2674993,11.6967631 22.6806204,11.7317357 22.9144188,11.9859133 C23.1694113,12.2629483 23.1701565,12.5680907 22.9677354,12.8717792 C22.9014208,12.9714472 22.8033977,13.0517308 22.7159717,13.137022 C19.5524081,16.2247103 16.3900035,19.3134485 13.2206447,22.395483 C13.0363546,22.5747077 12.795933,22.6988485 12.5301778,22.8846154" id="Fill-6" fill="#01475B"></path>
                    <path d="M15.6521245,13.3872176 C15.6463959,12.5883763 15.0043603,11.9487362 14.2021848,11.9425502 C13.3931523,11.9362784 12.7114507,12.6133776 12.7214323,13.4133359 C12.7315007,14.2249786 13.3947147,14.8540511 14.2293522,14.8436554 C15.0409018,14.8335174 15.6579398,14.2018674 15.6521245,13.3872176 M11.2265319,13.3626458 C11.2407666,11.7526772 12.6013056,10.4441858 14.2428925,10.4617125 C15.8441189,10.4788097 17.1895552,11.8368743 17.169592,13.4158274 C17.1492815,15.0321538 15.7802365,16.3678804 14.1665113,16.345886 C12.531955,16.3234621 11.2121237,14.9842989 11.2265319,13.3626458" id="Fill-8" fill="#01475B"></path>
                    <path d="M19.3472352,20.5776516 C19.3386409,21.3983153 19.9873838,22.0571495 20.8044543,22.0577514 C21.5979989,22.0582668 22.2612393,21.4111207 22.2773863,20.6207087 C22.2934464,19.8334766 21.6440958,19.1677669 20.8487282,19.1559069 C19.9977144,19.1432733 19.3560032,19.7508859 19.3472352,20.5776516 M23.7735411,20.6237167 C23.7647289,22.2358237 22.4089058,23.5513436 20.7694692,23.5383663 C19.1633683,23.5256469 17.8338491,22.195173 17.8301958,20.5969027 C17.8265569,18.9979448 19.2120696,17.6340393 20.8194727,17.6540639 C22.4602114,17.6745182 23.7823517,19.0037029 23.7735411,20.6237167" id="Fill-10" fill="#01475B"></path>
                </g>
            </g>
        </g>
    </g>
</svg>