<svg xmlns="http://www.w3.org/2000/svg" width="49" height="49" viewBox="0 0 49 49">
    <g fill="#E87E38">
        <path d="M24.5 0C10.958 0 0 10.959 0 24.5 0 38.042 10.959 49 24.5 49 38.042 49 49 38.041 49 24.5 49 10.958 38.041 0 24.5 0zm0 45.172c-11.426 0-20.672-9.246-20.672-20.672S13.074 3.828 24.5 3.828 45.172 13.074 45.172 24.5 35.926 45.172 24.5 45.172z"/>
        <path d="M25 12c-1.105 0-2 .849-2 1.896v12.208c0 1.047.895 1.896 2 1.896s2-.849 2-1.896V13.896C27 12.849 26.105 12 25 12z"/>
        <circle cx="24.5" cy="33.5" r="2.5"/>
    </g>
</svg>
