<svg xmlns="http://www.w3.org/2000/svg" xmlns:xlink="http://www.w3.org/1999/xlink" width="244" height="240" viewBox="0 0 244 240">
    <defs>
        <path id="prefix__a" d="M0 239.04L243.611 239.04 243.611 0.7 0 0.7z"/>
        <path id="prefix__c" d="M0.025 0.373L41.762 0.373 41.762 93.93 0.025 93.93z"/>
        <path id="prefix__e" d="M0.423 146.73L114.43 146.73 114.43 0.145 0.423 0.145z"/>
        <path id="prefix__g" d="M0 239.04L243.611 239.04 243.611 0.7 0 0.7z"/>
    </defs>
    <g fill="none" fill-rule="evenodd">
        <g transform="translate(0 .26)">
            <path fill="#E8E8E8" d="M217 126.942c-25.661 78.17 124.597 120.74-94.64 110.047-60.407-2.946-94.36-27.27-111.846-82.687C-23.107 47.758 62.087 22.498 122.564 22.498S237.023 65.95 217 126.942"/>
            <path fill="#FFF" d="M202.56 177.687c0 5.28-4.34 9.6-9.645 9.6h-53.91c-5.304 0-9.644-4.32-9.644-9.6V49.707c0-5.28 4.34-9.6 9.645-9.6h53.91c5.304 0 9.643 4.32 9.643 9.6v127.98z"/>
            <path stroke="#153556" d="M202.56 177.687c0 5.28-4.34 9.6-9.645 9.6h-53.91c-5.304 0-9.644-4.32-9.644-9.6V49.707c0-5.28 4.34-9.6 9.645-9.6h53.91c5.304 0 9.643 4.32 9.643 9.6v127.98z"/>
            <mask id="prefix__b" fill="#fff">
                <use xlink:href="#prefix__a"/>
            </mask>
            <path fill="#D6E7F2" d="M132.06 172.518L199.86 172.518 199.86 46.269 132.06 46.269z" mask="url(#prefix__b)"/>
            <path stroke="#153556" d="M169.844 180.143c0 2.135-1.74 3.866-3.883 3.866-2.145 0-3.884-1.73-3.884-3.866 0-2.135 1.739-3.865 3.884-3.865 2.143 0 3.883 1.73 3.883 3.865z" mask="url(#prefix__b)"/>
        </g>
        <g transform="translate(110.91 26.18)">
            <path fill="#EA6E6E" d="M53.901 14.207c6.642-4.947 12.449.04 13.7 1.085 4.951 4.137 6.974 12.3 2.004 19.689-2.027 3.015-6.762 6.864-2.534 10.061 4.774 3.611 7.016 9.32 3.153 18.533-3.776 9.009-16.323-7.662-16.323-7.662V14.207z"/>
            <g transform="translate(34.72 52.8)">
                <mask id="prefix__d" fill="#fff">
                    <use xlink:href="#prefix__c"/>
                </mask>
                <path fill="#C7DAEA" d="M13.157 1.112L26.11.373l15.262 6.493.389 34.099c-1.098 15.52-5.631 24.05-1.832 40.163.731 3.095 2.018 4.914.807 9.9-.827 3.404-39.213 6.592-38.658 2.77-1.551-.606-3.49-6.095-.452-10.733.541-6.762 1.056-16.352 1.57-23.128C4.85 38.113 6.773 44.99 5.682 19.44c-.027-.658 0-15.743 0-15.743s3.17-1.485 7.474-2.585" mask="url(#prefix__d)"/>
            </g>
            <path fill="#EA6E6E" d="M57.814 13.528c-2.24-2.813-12.303-6.487-19.553.874-8.124 8.243-8.15 31.043 11.208 33.95l8.345-34.824z"/>
            <path fill="#FFAF99" d="M63.948 36.048c-1.029 6.479-3.843 12.537-1.88 17.257l3.037 1.487c.108 1.451-.686 3.753-2.272 5.205-1.885 1.724-4.022 2.75-6.119 3.13-.943.17-1.6 7.321-2.5 7.238-.774-.074-1.8-7.35-2.507-7.605-3.131-1.133-5.44-4.027-5.468-8.42l1.637-.428s.228-.94-.226-5.048c-.491-4.436 3.322-14.853 3.322-14.853l12.976 2.037z"/>
            <path fill="#F29A86" d="M47.65 48.864c2.4.017 10.391-5.68 10.862-7.205.47-1.524 1.625-4.59 1.625-4.59s.364 7.208-2.583 10.836c-3.17 3.905-9.623 5.205-9.623 5.205s-.199-3.404-.282-4.246"/>
            <path fill="#FFAF99" d="M66.314 28.11c-.446 7.44-6.866 13.11-14.339 12.664-7.474-.443-13.314-7.566-12.87-15.007.096-1.604.124-4.215.73-5.61 3.653-8.473 17.12-10.044 24.063-2.16 2.425 2.753 2.615 6.763 2.416 10.113"/>
            <path fill="#FFAF99" d="M39.312 28.826c-.004 7.127 3.207 19.18 9.522 20.624 2.962.676 10.469-4.037 11.14-8.978.677-4.938 1.376-10.333 1.376-10.333"/>
            <path fill="#0E263F" d="M50.459 33.308c.047.987.69 1.761 1.43 1.723.74-.038 1.296-.871 1.247-1.86-.052-.99-.691-1.762-1.431-1.725-.737.037-1.298.87-1.246 1.862M40.456 33.872c.05.988.691 1.761 1.429 1.725.742-.04 1.296-.874 1.245-1.862-.048-.992-.688-1.763-1.427-1.725-.735.038-1.298.868-1.247 1.862"/>
            <path fill="#F29A86" d="M44.076 40.404c.247.117 1.58.583 2.01.504.43-.075 2.236-.793 2.333-1.009.096-.216-4.813.284-4.343.505"/>
            <path fill="#0E263F" d="M49.236 27.64c.511-.538 1.069-.798 1.69-.994.618-.182 1.28-.208 1.942-.125.662.061 1.33.293 1.928.623.601.335 1.108.838 1.444 1.414.225.387.092.881-.297 1.106-.176.1-.373.13-.558.095l-.168-.032c-.518-.098-.918-.222-1.348-.263-.42-.054-.821-.097-1.25-.11-.428-.006-.862.004-1.327-.033-.46-.047-.974-.068-1.49-.238l-.22-.072c-.44-.145-.68-.62-.534-1.058.04-.12.107-.227.188-.314M42.595 29.653c-.174.166-.468.268-.691.372-.234.097-.448.19-.636.256-.18.086-.328.131-.46.153-.147.015-.275-.01-.573.031l-.711.098c-.485.067-.933-.27-1-.753l-.007-.057c-.04-.552.249-1.093.614-1.472.38-.371.827-.609 1.26-.72.43-.13.858-.154 1.267-.119.422.047.78.13 1.247.386.414.226.565.743.339 1.155-.043.077-.096.145-.157.203l-.492.467z"/>
            <path fill="#FFF" d="M43.932 43.014c.197-.388 6.712-.657 7.17-.469.458.187-1.93 2.443-3.397 2.554-1.14.085-4.005-1.623-3.773-2.085"/>
            <path fill="#C1C1C1" d="M43.7 55.177c-.11 1.62-.011 27.487 7.826 38.844-.046.106 2 41.036 2 41.036l-2.275.569-1.782-41.7s-4.188-8.167-5.375-19.792c-1.186-11.627-.395-18.957-.395-18.957M68.063 56.25c-.764 14.65-6.58 29.535-10.948 37.974l1.315 24.884h2.305L59.323 94.61s3.94-8.621 6.527-16.96c3.373-10.876 2.213-21.401 2.213-21.401"/>
            <mask id="prefix__f" fill="#fff">
                <use xlink:href="#prefix__e"/>
            </mask>
            <path fill="#95B3C6" d="M43.493 152.676L67.267 152.676 67.267 130.428 43.493 130.428z" mask="url(#prefix__f)"/>
            <path fill="#02475B" d="M22.055 92.284c3.678-2.794 15.07-11.251 15.07-11.251 1.29-3.86 2.442-24.304-.16-22.92-5.166 2.746-28.505 30.8-28.505 30.8-3.033 4.276-2.644 7.822 1.123 11.418 3.768 3.595 32.524 19.648 32.524 19.648l5.484-8.473-25.536-19.222z" mask="url(#prefix__f)"/>
            <path fill="#02475B" d="M43.7 55.177s-2.094 23.426 5.769 38.748l2.544 59.85s-12.276.466-17.27-5.353c-1.99-2.32-.437-12.277-.215-22.902.462-22.086.39-51.664.39-51.664l2.047-15.742s4.195-2.1 6.734-2.937M68.063 56.25c1.16 22.455-8.394 35.26-8.686 38.752-.292 3.492.713 59.258.713 59.258s10.916 2.115 15.88-5.838c4.289-6.868.03-21.362.64-43.344.35-12.53-.518-45.412-.518-45.412l-8.029-3.416z" mask="url(#prefix__f)"/>
            <path fill="#EDEDED" d="M55.456 99.091c1.04-.212 2.068.46 2.284 1.494l6.374 30.426c.216 1.034-.457 2.053-1.496 2.266l-20.246 4.137c-1.04.212-2.067-.46-2.284-1.493l-6.372-30.427c-.217-1.032.457-2.052 1.496-2.265l20.244-4.138z" mask="url(#prefix__f)"/>
            <path fill="#FFF" d="M54.99 99.214c1.04-.213 2.068.46 2.284 1.493l6.375 30.427c.216 1.034-.458 2.053-1.496 2.264l-20.247 4.136c-1.04.213-2.068-.46-2.284-1.494l-6.374-30.426c-.217-1.033.457-2.053 1.496-2.265l20.247-4.135z" mask="url(#prefix__f)"/>
            <path stroke="#EDEDED" stroke-linecap="round" d="M35.808 104.022L41.904 102.775M48.138 101.577L54.236 100.331" mask="url(#prefix__f)"/>
            <path fill="#D6E7F2" d="M35.623 110.801l5.164 25.604 21.42-4.212-2.72-13.345s-10.876 3.71-23.864-8.047" mask="url(#prefix__f)"/>
            <path fill="#FFAF99" d="M61.866 120.128s-.893.528-2.487.933c-2.032.516-5.771-.209-8.14.034-2.52.257-.082 7.792 3.114 9.107 5.84 1.087 11.345-2.057 13.817-2.544 1.64-.326 5.871-1.467 5.871-1.467l3.647-10.447s-7.637 3.078-8.356 2.613c-3.153-2.17-6.274-1.483-8.146-1.483" mask="url(#prefix__f)"/>
            <path fill="#02475B" d="M76.092 59.666c4.024 2.748 36.17 35.45 34.206 40.994-1.521 4.294-7.445 9.538-21.985 19.558-6.27 4.319-14.33 7.89-15.234 7.964-2.65.218-3.125-10.042-1.085-11.61 2.263-1.739 19.265-14.897 22.814-17.744C92.163 97.22 72.472 79.35 72.472 79.35" mask="url(#prefix__f)"/>
            <path fill="#F29A86" d="M70.517 118.254s-1.932 1.232-1.076 9.092l2.127-.523s-1.38-5.082-.75-8.646l-.301.077zM50.306 123.919c2.731.958 8.496.684 10.429-.022M51.25 126.712s4.195.937 8.84-.264M52.682 128.916c2.322.583 6.899.12 8.087-.408M47.552 59.364c.982 1.628 2.443 2.777 4.155 3.396.706.254 1.732 7.52 2.506 7.604l.43-.487-1.993-7.37s-3.101-.917-5.098-3.143" mask="url(#prefix__f)"/>
            <path stroke="#0E263F" d="M45.301 34.848c.168 2.634-1.294 4.869-3.263 4.993-1.97.124-3.7-1.912-3.868-4.546-.166-2.633 1.295-4.868 3.265-4.993 1.968-.123 3.7 1.912 3.866 4.546zM56.925 34.12c.057 2.639-2.008 4.822-4.613 4.878-2.604.056-4.76-2.039-4.818-4.678-.057-2.638 2.01-4.82 4.613-4.877 2.605-.055 4.76 2.039 4.818 4.678zM44.593 32.347s1.179-.885 3.277 0" mask="url(#prefix__f)"/>
            <path fill="#F29A86" d="M39.02 26.961c2.724-1.558 4.591-4.975 4.591-4.975s1.982 2.883 7.903 3.44c3.93.369 6.3-.065 6.3-.065l1.413 10.475-.634-11.776-9.425-5.973-8.105.873-1.958 6.807s-.158.24-.086 1.194" mask="url(#prefix__f)"/>
            <path fill="#EA6E6E" d="M42.7 18.572c2.149 4.947 9.727 6.473 15.893 5.488.163 3.532.683 7.848.634 11.775-.012.97.805.825.879-.048.067-.796 1.267-6.767 3.711-6.91 2.444-.143 1.297 5.539 1.297 5.539s3.927-8.668 2.736-13.322c-1.19-4.655-9.123-9.788-18.38-9.039-6.15.499-6.77 6.517-6.77 6.517" mask="url(#prefix__f)"/>
            <path fill="#EA6E6E" d="M44.848 14.722l-1.44 3.453s-.326 4.859-4.303 7.593c0 0-2.353-11.133 5.743-11.046" mask="url(#prefix__f)"/>
            <path fill="#F29A86" d="M66.293 33.794c-.461 2.38-2.515 5.341-4.25 4.31-1.392-.835-.273-8.013 1.666-8.282 2.086-.29 3.05 1.593 2.584 3.972" mask="url(#prefix__f)"/>
            <path fill="#FFAF99" d="M61.422 33.365s1.394.986 1.33 1.39c-.065.402-1.721 2.115-1.721 2.115" mask="url(#prefix__f)"/>
        </g>
        <g transform="translate(0 .26)">
            <path fill="#FFAF99" d="M81.749 174.672c1.747 1.035 5.475 1.77 6.42 2.93.944 1.16.921 2.619.13 3.134 0 0-3.436-3.806-4.803-4.042"/>
            <path fill="#EDEDED" d="M85.808 231.582s1.992-.422 2.27-.47c.28-.047.28-3.666.28-3.666s-1.133-2.067-1.086-6.766c.047-4.699-7.472 1.22-7.472 1.22l-.555 7.662-.686 2.02s7.06-.058 7.25-.123M101.86 222.936l4.106 6.343.803 3.149s6.656-2.135 6.798-2.243c.142-.107-1.426-5.67-1.426-5.67l-3.39-5.245-6.891 3.666z"/>
            <path fill="#101E35" d="M46.01 173.882s37.72.58 41.687 4.74c2.066 2.166.676 37.362-.378 43.608-.213 1.259-7.86 1.435-7.86-.07 0-5.71-1.479-26.987-1.748-30.045-.243-2.772-42.509-.608-42.509-.608l-5.731-15.14 16.539-2.485z"/>
            <path fill="#101E35" d="M109.07 218.989s-14.673-31.528-20.991-36.796c-6.318-5.27-42.07-8.31-42.07-8.31l-9.916 1.489 3.081 15.754 40.214-.318s19.87 29.813 22.015 32.425c2.054 2.499 8.89-1.983 7.666-4.244"/>
            <path fill="#FFC215" d="M48.453 174.078c4.21-.177-9.251-13.38.34-28.774-1.036-9.856-6.323-13.393-12.001-13.088-1.872.1-4.771.344-6.676 1.078-3.351 1.296-5.545 3.635-7.402 5.793-7.218 8.384-6.477 30.676-2.833 42.028 1.859 5.797 10.618 8.535 16.524 5.33.478-7.609 7.765-12.935 12.048-12.367"/>
            <path fill="#D6E7F2" d="M78.37 195.499c0-3.82-1.876-7.313-9.223-7.19-7.346.121-24.995-.003-29.157-.003-4.163 0-6.49-12.673-9.305-25.226-2.817-12.554-14.444-10.843-17.51-.853-2.955 9.629.813 20.165 3.252 25.715v3.738s21.478-.08 26.256-.08c5.551 0 4.841 3.899 4.841 3.899H78.37z"/>
            <path fill="#799EBC" d="M76.33 195.499s.408-5.01-4.326-5.01H42.112l.49 1.19s5.228-.5 4.922 3.82h28.807z"/>
            <path fill="#D6E7F2" d="M76.288 238.476L78.37 238.476 72.004 190.49 67.841 190.49zM29.199 238.476L27.118 238.476 33.483 190.49 37.647 190.49z"/>
            <path fill="#799EBC" d="M59.391 238.476L61.473 238.476 55.108 190.49 50.944 190.49zM12.303 238.476L10.221 238.476 16.587 190.49 20.75 190.49z"/>
            <mask id="prefix__h" fill="#fff">
                <use xlink:href="#prefix__g"/>
            </mask>
            <path fill="#D6E7F2" d="M16.428 191.68L72.004 191.68 72.004 189.938 16.428 189.938z" mask="url(#prefix__h)"/>
            <path fill="#799EBC" d="M36.561 188.227s-3.99-1.637-8.405-6.22c-5.358-5.565-16.063-6.537-13.666.977l1.938 4.958 20.133.285z" mask="url(#prefix__h)"/>
            <path fill="#FFAF99" d="M23.171 124.282c2.182 2.353 3.942 10.87 3.88 12.02.683.49 2.246.916 4.355-1.474 1.807-2.05 4.376-2.51 4.376-2.51s-1.207-2.883-1.497-5.973l-11.114-2.063z" mask="url(#prefix__h)"/>
            <path fill="#F29A86" d="M34.453 127.393l-5.535-1.907s-.153 2.946 5.948 4.028l-.413-2.121z" mask="url(#prefix__h)"/>
            <path fill="#FFAF99" d="M35.518 112.81c1.856 4.625-.406 9.873-5.054 11.722-4.647 1.848-9.919-.403-11.776-5.03-1.856-4.626.406-9.874 5.054-11.722 4.647-1.848 9.918.403 11.776 5.03" mask="url(#prefix__h)"/>
            <path fill="#FFAF99" d="M35.518 112.81c2.291 4.766 3.828 13.313 1.064 14.254-2.28.779-7.085.244-9.05-2.162-1.965-2.405-5.566-4.462-5.566-4.462" mask="url(#prefix__h)"/>
            <path fill="#FFAF99" d="M36.339 116.43s2.842 3.402 2.68 3.92c-.163.516-1.92 1.114-1.92 1.114" mask="url(#prefix__h)"/>
            <path fill="#000" d="M35.155 117.372c.184.588.02 1.163-.367 1.283-.388.121-.852-.26-1.035-.849-.185-.587-.02-1.162.368-1.283.388-.12.85.261 1.034.85M34.048 114.825l-.614.342c-.19.117-.37.221-.532.352-.163.127-.33.251-.494.403-.166.147-.342.31-.557.482l-.044.036c-.18.144-.443.116-.59-.063-.069-.086-.098-.193-.09-.296.025-.321.114-.648.296-.929.165-.293.42-.536.701-.735.286-.194.613-.328.948-.38.341-.06.664-.037 1.02.088.185.064.283.268.217.452-.029.085-.088.15-.161.192l-.1.056z" mask="url(#prefix__h)"/>
            <path fill="#101E35" d="M106.519 232.38c-.267 3.017 1.385 6.097 1.385 6.097l22.031-5.975s.601-1.967-.991-3.293c-2.23-1.857-6.349-1.188-6.349-1.188l-10.671-3.578s-.715.98.267 2.999c.844 1.738-1.117 3.052-2.37 3.113-2.346.11-3.182.462-3.302 1.826" mask="url(#prefix__h)"/>
            <path fill="#EDEDED" d="M129.72 230.185c.569 1.144.216 2.317.216 2.317l-22.033 5.975s-.465-.873-.863-2.142l22.68-6.15z" mask="url(#prefix__h)"/>
            <path stroke="#EDEDED" d="M129.72 230.185c.569 1.144.216 2.317.216 2.317l-22.033 5.975s-.465-.873-.863-2.142l22.68-6.15z" mask="url(#prefix__h)"/>
            <path fill="#101E35" d="M78.378 231.976c-1.054 2.84-.274 6.243-.274 6.243h22.836s1.098-1.74-.087-3.435c-1.662-2.377-5.813-2.808-5.813-2.808l-6.641-6.244s-.47.72-.536 2.963c-.072 2.464-3.33 3.28-5.405 2.444-2.176-.878-3.603-.449-4.08.837" mask="url(#prefix__h)"/>
            <path fill="#EDEDED" d="M101.344 235.928c.247 1.253-.404 2.29-.404 2.29H78.104s-.218-.963-.266-2.29h23.506z" mask="url(#prefix__h)"/>
            <path stroke="#EDEDED" d="M101.344 235.928c.247 1.253-.404 2.29-.404 2.29H78.104s-.218-.963-.266-2.29h23.506z" mask="url(#prefix__h)"/>
            <path fill="#FFAF99" d="M63.62 163.866l12.297 7.682s3.754 2.335 5.832 3.124c1.389.89 1.817 1.599 2.843 2.501-.637.719-6.222-1.418-10.208-1.712-1.278-.613-15.267-5.886-15.267-5.886l4.503-5.709z" mask="url(#prefix__h)"/>
            <path fill="#FFC215" d="M48.244 142.033c1.747 5.907 6.733 13.324 11.794 16.24 1.16.67 1.524 1.513 1 3.074 1.058-.094 3.197 1.572 3.568 2.277.617 1.176-3.668 6.345-4.763 6.515-1.475.23-4.231-1.458-4.949-2.357-2.274 1.3-4.45.08-6.452-1.238-7.319-4.82-15.58-11.896-18.44-21.057" mask="url(#prefix__h)"/>
            <path fill="#101E35" d="M35.39 112.51s-1.168-2.604-2.512-2.76c-2.605 2.336-7.068.223-8.292 2.669-1.007 2.014 2.186 2.642 2.958 6.547.27.601-.73.955-1.021.687-.292-.268-.427-2.749-2.332-1.86-1.145.532-.847 3.62 1.817 4.594.7.848-1.972 2.043-1.24 4.758-.996-.517-2.983-2.587-5.18-4.2-3.723-2.735-5.34-7.83-3.238-10.071-1.385-3.5-.25-6.462 6.67-8.276 4.044-1.06 7.707-1.79 10.004-4.959 1.504-2.074 5.609 7.44 2.366 12.871" mask="url(#prefix__h)"/>
            <path fill="#F29A86" d="M23.72 120.809c.617 1.32 2.07 2.224 3.225 1.85.988-.32-.287-.845-.902-2.168-.616-1.322-.039-2.577-1.273-2.425-1.33.162-1.666 1.421-1.05 2.743" mask="url(#prefix__h)"/>
            <path fill="#C1C1C1" d="M61.267 160.001c-.22.516-4.399 3.195-5.46 5.062-1.063 1.87-3.05 1.8-3.913 1.657-2.125-.352-11.981-6.486-14.012-8.732 0 0 4.456 4.021 8.683 7.282 4.072 3 6.233 3.688 8.33 2.512 0 0 .95 1.044 2.15 1.58 2.223.997 2.789 1.23 4.213-.266.257-.262 1.04-1.094 1.16-1.28-.442.552-1.631.79-1.286.23-2.682 1.53-3.154-3.029-.093-6.699.109-.366.213-.887.228-1.346" mask="url(#prefix__h)"/>
            <path fill="#F29A86" d="M63.33 166.634c-.693.914-1.031 2.588 2.603 4.186 3.636 1.598 8.403 4.029 8.403 4.029s2.879.02 7.6 2.13c0 0-4.621-1.226-7.552-1.518l-14.151-5.51s1.108-.548 3.098-3.317" mask="url(#prefix__h)"/>
            <path stroke="#153556" d="M0 238.476L141.722 238.476" mask="url(#prefix__h)"/>
            <path fill="#00B38E" d="M73.784 133.882l2.263-1.333 1.33 2.237-2.264 1.334-1.329-2.238zm-.902-1.74c-.296-.5-.474-.973-.531-1.417-.057-.443-.045-.833.036-1.168.082-.335.218-.727.41-1.177.2-.456.324-.838.37-1.144.046-.306-.02-.613-.202-.918-.485-.816-1.257-.912-2.318-.288-.623.368-.958.774-1.003 1.22-.046.445.041.853.262 1.222.07.12.131.217.182.29.051.073.083.12.096.142l-2.281 1.342c-.03-.026-.086-.088-.167-.187-.08-.1-.16-.215-.238-.345-.369-.62-.548-1.276-.536-1.966.011-.69.237-1.363.681-2.021.443-.658 1.108-1.247 1.993-1.769 1.214-.715 2.31-1.025 3.288-.933.979.093 1.748.614 2.311 1.56.292.49.462.96.514 1.406.053.447.031.848-.06 1.204-.091.355-.239.784-.442 1.285-.236.623-.382 1.128-.44 1.515-.058.387.033.782.272 1.185l.272.457-2.051 1.207-.418-.702zM81.417 127.116l3.184.002-.003 3.146-3.183-.003.002-3.145zm.141-2.365c0-.704.11-1.305.324-1.802.216-.497.471-.895.763-1.193.292-.299.677-.623 1.155-.975.491-.352.857-.673 1.095-.963.24-.29.36-.65.36-1.08 0-1.147-.746-1.723-2.237-1.723-.875 0-1.476.216-1.8.652-.322.437-.484.915-.484 1.434 0 .17.003.308.01.414.008.108.01.177.01.207l-3.205-.003c-.014-.045-.034-.145-.057-.298s-.033-.322-.033-.506c0-.872.22-1.664.658-2.376.439-.711 1.093-1.273 1.963-1.686.869-.411 1.926-.617 3.172-.617 1.707.002 3.04.352 4.001 1.05.96.696 1.44 1.711 1.44 3.043-.002.688-.114 1.282-.337 1.779-.224.498-.493.903-.81 1.216-.315.313-.734.67-1.256 1.066-.633.505-1.097.941-1.398 1.308-.3.368-.45.834-.451 1.4v.643l-2.883-.003v-.987zM134.827.7H98.414c-8.977 0-16.327 6.4-16.327 14.222v14.386c0 7.821 7.35 14.222 16.327 14.222h27.184l5.177 5.835c1.073 1.212 3.241.994 3.975-.398l2.988-5.678c7.603-1.208 13.417-7.025 13.417-13.98V14.921C151.155 7.1 143.805.7 134.827.7M31.083 73.988v14.469c0 6.996 5.333 12.847 12.31 14.061l2.74 5.711c.675 1.399 2.663 1.62 3.649.4l4.749-5.869h24.94c8.238 0 14.98-6.437 14.98-14.303v-14.47c0-7.867-6.742-14.304-14.98-14.304H46.063c-8.237 0-14.98 6.437-14.98 14.305M200.803 230.549c-2.413-2.506-4.915-6.62-7.169-10.023-4.685-7.074-8.636-14.845-11.665-22.767-2.174-5.681-3.649-12.74-2.57-18.834.516-2.93 2.098-7.237 5.178-8.391 7.495-2.807 13.42 12.637 14.714 17.53 3.503 13.271 3.955 28.862 1.512 42.485" mask="url(#prefix__h)"/>
            <path fill="#9B9B9B" d="M192.821 174.375l-.142-.264c-.047.026-4.45 2.417-6.508 6.021-.99-5.793-1.431-9.501-1.444-9.616l-.298.035c.013.113.45 3.788 1.429 9.535-2.866-3.432-5.442-4.385-5.555-4.426l-.102.283c.026.01 2.818 1.038 5.76 4.738.7 4.047 1.658 9.048 2.917 14.528-4.686-6.673-9.63-9.848-9.68-9.88l-.162.252c.052.034 5.243 3.364 10.014 10.402l.012.015c.967 4.159 2.109 8.574 3.436 13.039-5.42-6.736-9.45-8.938-9.49-8.96l-.142.263c.042.022 4.245 2.316 9.858 9.46l.003.005c1.046 3.467 2.205 6.955 3.488 10.373-4.33-5.286-6.923-7.08-6.95-7.1l-.169.249c.027.02 2.812 1.944 7.454 7.743 1.257 3.285 2.627 6.496 4.118 9.543l.27-.13c-1.49-3.046-2.859-6.251-4.113-9.535.259-5.04 5.54-10.255 5.594-10.307l-.211-.214c-.052.05-4.99 4.928-5.624 9.881-1.318-3.498-2.51-7.074-3.582-10.627 1.516-6.987 8.366-11.03 8.435-11.07l-.152-.26c-.069.04-6.7 3.954-8.452 10.759-1.355-4.54-2.515-9.03-3.497-13.254.823-5.045 9.117-10.279 9.202-10.334l-.158-.251c-.336.206-7.843 4.95-9.2 9.905-1.264-5.496-2.226-10.513-2.927-14.567 1.922-3.71 6.52-6.21 6.568-6.234" mask="url(#prefix__h)"/>
            <path fill="#00B38E" d="M203.317 238.085c-3.443.543-8.263.241-12.358.142-8.51-.204-17.177-1.412-25.442-3.454-5.927-1.464-12.592-4.288-17.006-8.644-2.12-2.094-4.77-5.846-3.966-9.021 1.96-7.728 18.084-3.762 22.856-2.027 12.95 4.708 26.07 13.236 35.916 23.004" mask="url(#prefix__h)"/>
            <path fill="#9B9B9B" d="M152.417 212.56l-.3-.033c-.005.051-.543 5.016 1.256 8.755-5.344-2.497-8.657-4.252-8.758-4.306l-.141.263c.1.054 3.381 1.794 8.682 4.27-4.468.387-6.723 1.95-6.822 2.02l.176.243c.024-.018 2.464-1.712 7.195-2.006 3.737 1.736 8.413 3.807 13.65 5.904-8.179.024-13.619 2.256-13.674 2.276l.116.276c.056-.023 5.766-2.364 14.295-2.25h.019c3.984 1.58 8.278 3.166 12.719 4.63-8.65.587-12.764 2.623-12.808 2.644l.136.267c.043-.021 4.333-2.147 13.43-2.66l.007-.002c3.456 1.123 6.995 2.166 10.546 3.068-6.83.523-9.788 1.62-9.82 1.63l.107.281c.032-.012 3.207-1.191 10.641-1.678 3.428.849 6.858 1.56 10.224 2.08l.046-.292c-3.363-.522-6.788-1.235-10.213-2.08-4.01-3.089-5.3-10.381-5.313-10.454l-.295.05c.01.072 1.217 6.89 4.943 10.235-3.639-.918-7.27-1.985-10.811-3.136-4.9-5.224-4.329-13.133-4.323-13.21l-.299-.024c-.007.078-.561 7.732 4.053 13.048-4.519-1.484-8.884-3.097-12.93-4.705-3.692-3.55-3.28-13.318-3.275-13.417l-.3-.014c-.019.391-.39 9.237 2.924 13.173-5.254-2.104-9.943-4.18-13.688-5.919-1.963-3.689-1.402-8.874-1.395-8.927" mask="url(#prefix__h)"/>
            <path fill="#C1C1C1" d="M161.649 213.484s-4.234-.985-7.009-.949c0 0 21.024 20.794 44.165 24.285l-.584-1.606-18.851-16.24-17.721-5.49z" mask="url(#prefix__h)"/>
            <path fill="#00B38E" d="M203.895 238.426c-1.412-1.86-7.792-3.905-10.241-5.182-8.046-4.198-15.758-8.575-23.354-13.577-12.21-8.042-26.387-20.027-31.955-33.92-2.058-5.133-3.92-14.502 2.255-17.694 4.613-2.383 10.676 1.085 14.5 3.69 10.057 6.847 17.771 16.637 24.981 26.262 8.288 11.062 15.585 22.97 22.9 34.748l.914 5.673z" mask="url(#prefix__h)"/>
            <path fill="#9B9B9B" d="M190.21 224.256c-5.097-10.99-5.131-19.69-5.131-19.777l-.446-.001c0 .085.032 8.392 4.753 19.036-3.986-3.6-7.734-7.111-11.239-10.498-5.452-15.535-3.844-22.648-3.827-22.718l-.433-.104c-.067.285-1.602 7.041 3.555 22.136-4.62-4.486-8.819-8.755-12.595-12.74-5.57-13.943-3.604-23.115-3.584-23.206l-.433-.098c-.02.091-1.92 8.943 3.211 22.453-4.673-4.963-8.681-9.466-12.032-13.384-5.469-10.197-3.69-17.209-3.671-17.279l-.43-.115c-.019.07-1.654 6.487 2.874 15.95-7.71-9.117-11.566-14.685-11.655-14.814l-.366.25c.092.132 4.205 6.072 12.434 15.735-2.302-.805-9.27-3.008-13.72-1.873l.11.427c5.086-1.297 13.923 2.026 14.192 2.127 3.336 3.898 7.319 8.37 11.957 13.293-2.44-1.058-8.96-3.2-17.79-.822l.114.426c11.07-2.982 18.43 1.243 18.502 1.287l.035.02c3.73 3.934 7.867 8.142 12.415 12.561-2.21-.777-7.805-2.119-16.06.243l.121.424c10.618-3.036 16.724.125 16.785.158l.009.003c3.266 3.159 6.746 6.422 10.429 9.766-1.84-.597-5.322-.963-11.764.307l.087.433c8.63-1.7 11.8-.41 12.81.285 4.202 3.788 8.67 7.68 13.407 11.637l.284-.34c-4.55-3.8-8.85-7.54-12.909-11.188" mask="url(#prefix__h)"/>
            <path fill="#C1C1C1" d="M183.03 200.436s9.96 9.338 15.91 21.065l4.04 11.252s-14.92-23.757-17.888-27.804l-2.061-4.513z" mask="url(#prefix__h)"/>
            <path fill="#C1C1C1" d="M190.187 171.64s3.655 3.074 5.828 7.18l6.454 49.193-6.113-11.28s-7.887-21.587-6.17-45.093" mask="url(#prefix__h)"/>
            <path fill="#00B38E" d="M203.662 238.453c-2.074-4.69-3.455-11.66-4.856-17.523-2.91-12.178-4.44-24.959-4.623-37.481-.131-8.981 1.412-19.522 6.005-27.44 2.206-3.805 6.593-8.988 11.455-9.04 11.833-.123 12.208 24.303 11.513 31.743-1.88 20.192-9.177 42.064-19.494 59.741" mask="url(#prefix__h)"/>
            <path fill="#9B9B9B" d="M221.133 156.453l-.063-.438c-.078.011-7.403 1.115-12.092 5.083 1.568-8.542 2.84-13.913 2.881-14.077l-.432-.103c-.04.162-1.3 5.484-2.86 13.956-2.237-6.208-5.33-8.83-5.466-8.941l-.283.34c.033.028 3.385 2.862 5.588 9.48-1.084 5.968-2.295 13.397-3.332 21.635-3.117-11.622-8.366-18.519-8.42-18.59l-.353.27c.056.07 5.569 7.31 8.616 19.482l.007.027c-.769 6.26-1.428 12.965-1.855 19.832-4.102-12.08-8.574-17.167-8.62-17.218l-.331.294c.047.052 4.713 5.353 8.876 18.099l.003.008c-.31 5.337-.473 10.765-.432 16.154-3.321-9.516-6.01-13.314-6.04-13.353l-.36.258c.029.04 2.917 4.114 6.414 14.503.074 5.193.343 10.34.863 15.322l.441-.045c-.518-4.978-.788-10.12-.86-15.307 2.92-6.87 12.903-11.447 13.004-11.492l-.185-.403c-.097.044-9.435 4.327-12.83 10.885-.052-5.521.112-11.085.43-16.556 5.654-8.937 17.22-11.102 17.335-11.123l-.079-.435c-.116.022-11.31 2.115-17.201 10.678.427-6.984 1.1-13.802 1.882-20.16 3.708-6.588 17.883-9.68 18.025-9.71l-.092-.431c-.57.12-13.403 2.923-17.805 9.119 1.04-8.265 2.252-15.715 3.341-21.696 4.553-4.183 12.208-5.337 12.285-5.347" mask="url(#prefix__h)"/>
            <path stroke="#153556" d="M226.042 238.308L154.019 238.308" mask="url(#prefix__h)"/>
            <path fill="#02475B" d="M49.98 39.666c0-3.233-2.633-5.854-5.882-5.854-1.329 0-2.55.444-3.535 1.184-1.184-2.528-3.752-4.283-6.739-4.283-.03 0-.06.003-.09.004-1.157-5.609-6.144-9.828-12.121-9.828-5.985 0-10.976 4.23-12.123 9.848-.17-.011-.34-.024-.512-.024-4.108 0-7.439 3.314-7.439 7.404s3.331 7.404 7.439 7.404h35.12c3.25 0 5.882-2.62 5.882-5.855M73.293 10.5c-.46 0-.9.088-1.306.241-1.123-3.11-4.101-5.337-7.612-5.337-3.325 0-6.18 1.998-7.426 4.852-.79-.734-1.845-1.186-3.01-1.186-2.438 0-4.415 1.967-4.415 4.394s1.977 4.394 4.415 4.394h19.354c2.041 0 3.696-1.647 3.696-3.679 0-2.031-1.655-3.679-3.696-3.679" mask="url(#prefix__h)"/>
        </g>
        <text fill="#FFF" font-family="IBMPlexSans-Medium, IBM Plex Sans" font-size="8" font-weight="400">
            <tspan x="88" y="15">Let me help you </tspan> <tspan x="88" y="24">out here -</tspan> <tspan x="123.816" y="24.056" font-family="IBMPlexSans, IBM Plex Sans" font-weight="normal"> </tspan> <tspan x="88.16" y="33.056" font-family="IBMPlexSans, IBM Plex Sans" font-weight="normal">Pharmacologist</tspan>
        </text>
        <text fill="#FFF" font-family="IBMPlexSans, IBM Plex Sans" font-size="7">
            <tspan x="34" y="74">Will my medicines </tspan> <tspan x="34" y="83">have side effect on </tspan> <tspan x="34" y="92">my health ???</tspan>
        </text>
    </g>
</svg>
