<svg width="39" height="30" viewBox="0 0 39 30" fill="none" xmlns="http://www.w3.org/2000/svg">
<path fill-rule="evenodd" clip-rule="evenodd" d="M18.2571 8.3776C19.4054 8.53863 20.5192 8.92003 21.5293 9.47941C26.088 12.0051 27.7025 17.6922 25.121 22.1672C23.446 25.0912 20.286 26.8965 16.867 26.8965C12.5156 26.905 8.71667 23.9979 7.66334 19.8449C7.47339 19.1076 7.37842 18.3448 7.37842 17.582C7.37842 17.226 7.39569 16.87 7.44749 16.5141V16.5056C8.00006 11.8102 12.0493 8.26742 16.867 8.27589C17.3333 8.27589 17.7995 8.3098 18.2571 8.3776ZM20.2084 14.9123H19.0687C18.9565 14.5224 18.7925 14.1495 18.5852 13.8105H20.2084C20.6833 13.8189 21.0718 13.4375 21.0718 12.9714C21.0718 12.5052 20.6833 12.1238 20.2084 12.1238H13.5172C13.0423 12.1238 12.6538 12.5052 12.6538 12.9714C12.6538 13.4375 13.0423 13.8189 13.5172 13.8189H15.4339C16.2282 13.8189 16.9275 14.3275 17.247 14.9207H13.5172C13.0423 14.9207 12.6538 15.3021 12.6538 15.7683C12.6538 16.2344 13.0423 16.6158 13.5172 16.6158H17.247C17.1607 16.8362 17.0312 17.0311 16.8585 17.1922C16.4872 17.5736 15.9778 17.7939 15.4339 17.8024H13.5172C13.0509 17.7939 12.6624 18.1584 12.6538 18.6161C12.6451 18.8534 12.7488 19.0822 12.9214 19.2432L17.7046 23.6844C18.0499 24.0065 18.6025 23.9895 18.9306 23.6505C19.2587 23.3115 19.2414 22.769 18.8961 22.447L15.6756 19.4551C16.5822 19.3958 17.4369 19.0059 18.0672 18.3703C18.5593 17.8872 18.9047 17.2769 19.0601 16.6074H20.2084C20.6833 16.6074 21.0718 16.226 21.0718 15.7598C21.0718 15.2937 20.6833 14.9123 20.2084 14.9123Z" fill="#01475B"/>
<path d="M0.702579 4.95413C2.07745 5.17984 3.15472 6.23714 3.38411 7.58624C3.45274 7.98447 3.80456 8.27586 4.21632 8.27586C4.62766 8.27586 4.97969 7.98447 5.04811 7.58624C5.2775 6.23714 6.35498 5.17984 7.72964 4.95413C8.13526 4.8872 8.43243 4.54156 8.43243 4.13793C8.43243 3.73409 8.13526 3.38887 7.72964 3.32173C6.35498 3.09602 5.2775 2.03893 5.04811 0.68962C4.97969 0.291395 4.62766 0 4.21632 0C3.80456 0 3.45274 0.291395 3.38411 0.68962C3.15472 2.03893 2.07745 3.09602 0.702579 3.32173C0.297172 3.38887 0 3.73409 0 4.13793C0 4.54156 0.297172 4.8872 0.702579 4.95413Z" fill="#01475B"/>
<path d="M31.27 26.6782C32.6448 26.9039 33.7221 27.9616 33.9515 29.3104C34.0201 29.7084 34.3719 30 34.7835 30C35.195 30 35.5466 29.7084 35.6155 29.3104C35.8447 27.9616 36.9224 26.9039 38.2968 26.6782C38.7026 26.6111 38.9998 26.2661 38.9998 25.8623C38.9998 25.4582 38.7026 25.113 38.2968 25.0461C36.9224 24.8206 35.8447 23.7634 35.6155 22.4141C35.5466 22.0159 35.195 21.7241 34.7835 21.7241C34.3719 21.7241 34.0201 22.0159 33.9515 22.4141C33.7221 23.7634 32.6448 24.8206 31.27 25.0461C30.8641 25.113 30.5674 25.4582 30.5674 25.8623C30.5674 26.2661 30.8641 26.6111 31.27 26.6782Z" fill="#01475B"/>
</svg>
