<svg xmlns="http://www.w3.org/2000/svg" width="48" height="48" viewBox="0 0 48 48">
    <g fill="#4AA54A">
        <path d="M36.465 16.607c-.74-.78-1.973-.813-2.754-.073L21.275 28.32l-5.932-6.086c-.75-.77-1.983-.787-2.754-.036-.77.75-.787 1.982-.037 2.752l7.273 7.462c.381.39.888.588 1.396.588.481 0 .963-.178 1.34-.534l13.832-13.107c.78-.74.813-1.972.072-2.752z"/>
        <path d="M24 0C10.766 0 0 10.766 0 24s10.766 24 24 24 24-10.766 24-24S37.234 0 24 0zm0 44.108c-11.087 0-20.108-9.02-20.108-20.108 0-11.087 9.02-20.108 20.108-20.108 11.088 0 20.108 9.02 20.108 20.108 0 11.088-9.02 20.108-20.108 20.108z"/>
    </g>
</svg>
