<svg xmlns="http://www.w3.org/2000/svg" width="34" height="32" viewBox="0 0 34 32">
    <g fill="none">
        <path fill="#FC5D3D" d="M18.645 0C10.719.003 4.115 6.17 3.446 14.19h-1.71c-.263 0-.506.143-.637.375-.132.231-.132.516 0 .747l3.13 5.507c.131.231.374.374.637.374s.506-.143.638-.374l3.13-5.507c.131-.231.131-.516 0-.748-.132-.231-.375-.374-.638-.374h-1.59c.596-5.74 4.98-10.32 10.612-11.086 5.631-.766 11.047 2.482 13.108 7.861 2.06 5.379.23 11.491-4.43 14.793-4.66 3.302-10.94 2.936-15.197-.885-.61-.541-1.535-.48-2.072.135-.537.615-.483 1.556.119 2.105 2.786 2.507 6.381 3.89 10.104 3.887h.009c5.473.03 10.542-2.92 13.285-7.73 2.744-4.81 2.741-10.745-.007-15.552C29.19 2.91 24.117-.035 18.645 0z"/>
        <path fill="#72C1E8" d="M21.121 16.689c0 .386.161.757.448 1.03.286.273.675.427 1.08.426H26v3.15c0 .187-.078.366-.216.499-.139.132-.327.206-.523.206H11.738c-.196 0-.384-.074-.522-.207-.139-.132-.216-.311-.216-.498V11c0 .295.125.577.347.782.222.206.521.317.83.308h13.084c.196 0 .384.074.522.206.14.133.217.312.217.5v2.436h-3.35c-.406 0-.795.153-1.081.426-.287.274-.448.644-.448 1.03z"/>
        <path fill="#AFAFAF" d="M26 10.732V13c0-.404-.33-.732-.739-.732H12.18c-.413.012-.801-.197-1.015-.547-.214-.35-.22-.788-.017-1.145.204-.356.585-.577.998-.576h13.115c.408 0 .739.328.739.732zM25.656 15h-3.235c-.785 0-1.421.672-1.421 1.5s.636 1.5 1.42 1.5h3.236c.19 0 .344-.163.344-.363v-2.274c0-.2-.154-.363-.344-.363z"/>
        <path fill="#FFCBC2" d="M18.482 30c-2.691.003-5.33-.741-7.623-2.15-.104-.063-.166-.178-.163-.3.003-.12.072-.231.179-.289.107-.057.237-.053.34.011 4.272 2.623 9.63 2.736 14.008.296 4.378-2.44 7.093-7.053 7.098-12.059v-.018c-.007-7.404-5.855-13.488-13.265-13.799-7.41-.31-13.749 5.262-14.377 12.638-.009.123-.082.231-.193.284-.11.053-.241.042-.342-.028-.1-.07-.155-.19-.142-.312C4.66 6.534 11.31.687 19.085 1.013c7.774.326 13.91 6.71 13.915 14.478v.018c0 3.844-1.53 7.53-4.252 10.247-2.723 2.718-6.415 4.245-10.266 4.244zm-8.569-3.637l-.577-.514c-.139-.128-.355-.124-.489.01-.07.07-.107.165-.103.263.004.099.049.191.124.255l.624.519c.147.116.361.09.478-.057.116-.147.09-.36-.057-.476z"/>
        <path fill="#C5E5FF" d="M23.672 21h-.524c-.182 0-.328-.144-.328-.321 0-.177.146-.321.328-.321h.524c.181 0 .328.144.328.32 0 .178-.147.322-.328.322zm-1.836 0h-9.508c-.181 0-.328-.144-.328-.321V14.32c0-.177.147-.321.328-.321.18 0 .328.144.328.321v6.037h9.18c.181 0 .328.144.328.32 0 .178-.147.322-.328.322z"/>
        <path fill="#000" d="M7.463 25.357c-.324.368-.489.85-.46 1.342.03.492.251.951.616 1.277 2.898 2.596 6.636 4.027 10.507 4.024h.01c4.48.004 8.752-1.914 11.755-5.276.124-.14.114-.354-.023-.482-.14-.12-.348-.11-.474.025-2.882 3.213-6.97 5.047-11.258 5.053h-.01c-3.706.003-7.286-1.367-10.06-3.853-.474-.432-.514-1.169-.092-1.652.423-.483 1.151-.531 1.633-.109 3.462 3.095 8.298 4.075 12.672 2.568 4.374-1.506 7.613-5.267 8.488-9.855.875-4.588-.75-9.298-4.256-12.34-.143-.118-.35-.102-.474.036-.058.068-.087.157-.08.248.006.09.048.174.117.232 3.324 2.883 4.865 7.348 4.036 11.697-.828 4.349-3.9 7.915-8.045 9.342-4.146 1.428-8.73.498-12.012-2.437-.759-.678-1.918-.606-2.59.16zM25.912 5.783c.075-.11.104-.246.08-.377-.025-.131-.1-.247-.21-.322-.228-.15-.534-.094-.694.128-.156.229-.1.542.128.7.228.157.54.1.696-.13z"/>
        <path fill="#000" d="M18.204 0C10.122.003 3.348 6.268 2.508 14.516H1.08c-.386 0-.742.212-.935.555-.193.343-.193.765 0 1.108l3.17 5.632c.193.343.55.554.935.555.386 0 .743-.211.936-.554l3.17-5.634c.193-.343.193-.765 0-1.108-.193-.343-.55-.554-.935-.554H6.187c.54-4.047 2.979-7.564 6.527-9.415 3.548-1.851 7.755-1.8 11.26.136.163.085.363.023.454-.14.087-.167.027-.374-.135-.465-3.76-2.077-8.28-2.096-12.056-.05-3.776 2.044-6.31 5.885-6.76 10.241-.01.097.022.194.085.266.064.072.154.113.249.114h1.61c.146 0 .281.08.354.21.074.13.074.291.001.421l-3.17 5.633c-.073.13-.209.212-.356.212-.146 0-.282-.081-.355-.212l-3.17-5.633c-.037-.063-.057-.135-.057-.208.001-.233.185-.422.412-.423h1.733c.173-.002.318-.138.333-.315C3.79 6.967 10.36.687 18.22.687 23.724.69 28.792 3.764 31.45 8.71c2.659 4.946 2.488 10.984-.447 15.763-.098.16-.052.373.105.474.156.101.363.053.462-.107 1.59-2.584 2.433-5.578 2.43-8.635v-.001c.003-4.3-1.66-8.423-4.623-11.463C26.414 1.701 22.394-.004 18.204 0zM30.101 25.195c-.166.22-.123.535.097.703.22.167.533.124.7-.096.167-.22.125-.536-.095-.704-.222-.162-.531-.12-.702.097z"/>
        <path fill="#000" d="M11.467 9c-.808-.001-1.464.641-1.466 1.436v4.018c0 .183.15.33.335.33.186 0 .336-.147.336-.33v-2.796c.249.148.533.227.823.23H24.44c.218.003.393.176.394.39v2.154h-2.978c-1.02 0-1.847.814-1.847 1.818 0 1.003.827 1.817 1.847 1.817h2.978v2.884c0 .214-.177.387-.394.388H11.066c-.217-.001-.393-.174-.394-.388v-3.853c0-.183-.15-.331-.336-.331-.185 0-.336.148-.336.33v3.854c.002.579.478 1.047 1.066 1.049h13.375c.588 0 1.065-.47 1.066-1.049v-2.92c.292-.088.491-.353.493-.654v-2.254c-.001-.3-.201-.566-.493-.655V10.05c0-.58-.478-1.05-1.067-1.051H11.467zm13.831 6.094c.016 0 .03.013.03.03v2.253c0 .007-.004.014-.01.02-.005.005-.012.008-.02.007h-3.441c-.649 0-1.175-.517-1.175-1.155s.526-1.155 1.175-1.155h3.441zm-.464-5.043v1.25c-.126-.048-.26-.073-.394-.074H11.5c-.288.012-.56-.13-.71-.372-.151-.242-.158-.545-.017-.792.14-.248.406-.402.694-.402H24.44c.218 0 .394.175.394.39z"/>
        <path fill="#000" d="M10.5 17c.276 0 .5-.223.5-.5 0-.275-.223-.5-.499-.5s-.5.222-.501.498c0 .276.224.5.5.502zM22 16.5c0 .276.146.5.326.5h.348c.18 0 .326-.224.326-.5s-.146-.5-.326-.5h-.348c-.18 0-.325.224-.326.5z"/>
    </g>
</svg>
