<svg width="46" height="63" viewBox="0 0 46 63" fill="none" xmlns="http://www.w3.org/2000/svg">
<path d="M5.91856 9.8261L23.2667 0.363478L40.6148 9.8261C43.9345 11.6369 46 15.1162 46 18.8977L46 49.9635C46 50.5341 45.5373 50.9968 44.9667 50.9968C41.5425 50.9968 38.7667 53.7726 38.7667 57.1968C38.7667 57.7675 38.304 58.2301 37.7333 58.2301L8.80001 58.2301C8.22935 58.2301 7.76668 57.7675 7.76668 57.1968C7.76668 53.7726 4.99089 50.9968 1.56668 50.9968C0.996022 50.9968 0.533345 50.5341 0.533345 49.9635L0.533348 18.8977C0.533348 15.1162 2.59885 11.6369 5.91856 9.8261Z" fill="#FFD205"/>
<path d="M1.56661 50.9968C4.99081 50.9968 7.76661 53.7726 7.76661 57.1968C7.76661 57.7674 8.22928 58.2301 8.79994 58.2301L23.2666 58.2301L23.2666 0.363449L5.91849 9.82607C2.59878 11.6369 0.533277 15.1162 0.533277 18.8977L0.533274 49.9634C0.533274 50.5341 0.995949 50.9968 1.56661 50.9968Z" fill="#FAA019"/>
<path d="M38.6356 13.4547C40.6286 14.5418 41.8667 16.6275 41.8667 18.8977L41.8667 47.3384C38.6574 48.3496 36.1196 50.8876 35.1083 54.0968L11.4251 54.0968C10.4138 50.8875 7.87585 48.3496 4.66671 47.3384L4.66671 18.8977C4.66671 16.6275 5.90478 14.5418 7.89782 13.4547L23.2667 5.0717L38.6356 13.4547Z" fill="#555A6E"/>
<path d="M11.4251 54.0968L35.1083 54.0968C36.1196 50.8875 38.6576 48.3496 41.8667 47.3384L41.8667 44.008C38.6574 45.0192 36.1196 47.5572 35.1083 50.7663L23.2667 50.7663L23.2667 5.0717L7.89782 13.4547C5.90478 14.5418 4.66671 16.6275 4.66671 18.8977L4.66671 47.3384C7.87598 48.3496 10.4138 50.8875 11.4251 54.0968Z" fill="#463C4B"/>
<path d="M19.1335 14.8301L27.4001 14.8301C28.5416 14.8301 29.4668 15.7554 29.4668 16.8968L29.4668 52.0301L17.0668 52.0301L17.0668 16.8968C17.0668 15.7554 17.992 14.8301 19.1335 14.8301Z" fill="#5AD7FF"/>
<path d="M29.4668 52.0301L29.4668 49.9635L25.3335 49.9635C24.192 49.9635 23.2668 49.0382 23.2668 47.8968L23.2668 16.8968C23.2668 15.7554 24.192 14.8301 25.3335 14.8301L19.1335 14.8301C17.992 14.8301 17.0668 15.7554 17.0668 16.8968L17.0668 52.0301L29.4668 52.0301Z" fill="#23AAE6"/>
<path d="M29.4668 23.0968L29.4668 16.8968C29.4668 15.7554 28.5416 14.8301 27.4001 14.8301L19.1335 14.8301C17.992 14.8301 17.0668 15.7554 17.0668 16.8968L17.0668 23.0968L29.4668 23.0968Z" fill="#FFD205"/>
<path d="M23.2671 23.0968L23.2671 16.8968C23.2671 15.7554 24.1923 14.8301 25.3337 14.8301L19.1337 14.8301C17.9923 14.8301 17.0671 15.7554 17.0671 16.8968L17.0671 23.0968L23.2671 23.0968Z" fill="#FAA019"/>
<path d="M15.0001 56.1634L31.5334 56.1634C32.6749 56.1634 33.6001 55.2382 33.6001 54.0968C33.6001 52.9553 32.6749 52.0301 31.5334 52.0301L15.0001 52.0301C13.8587 52.0301 12.9334 52.9553 12.9334 54.0968C12.9334 55.2382 13.8587 56.1634 15.0001 56.1634Z" fill="#5AD7FF"/>
<path d="M17.067 62.3635L29.467 62.3635C30.6085 62.3635 31.5337 61.4382 31.5337 60.2968C31.5337 59.1554 30.6085 58.2301 29.467 58.2301L17.067 58.2301C15.9256 58.2301 15.0004 59.1554 15.0004 60.2968C15.0004 61.4382 15.9256 62.3635 17.067 62.3635Z" fill="#5AD7FF"/>
<path d="M27.3999 58.2301L19.1332 58.2301L19.1332 56.1635L27.3999 56.1635L27.3999 58.2301Z" fill="#23AAE6"/>
<path d="M21.1999 10.6968L25.3332 10.6968C26.4747 10.6968 27.3999 11.622 27.3999 12.7635L27.3999 14.8301L19.1332 14.8301L19.1332 12.7635C19.1332 11.622 20.0585 10.6968 21.1999 10.6968Z" fill="#FAA019"/>
<path d="M23.2665 0.363485C24.1648 1.71108 24.6443 3.29441 24.6443 4.91403L24.6443 10.6968L21.8888 10.6968L21.8888 4.91403C21.8886 3.29441 22.3681 1.71108 23.2665 0.363485Z" fill="#D7E6F0"/>
<path d="M24.6443 10.6968L24.6443 8.97464C23.8834 8.97464 23.2665 8.35774 23.2665 7.59682L23.2665 0.363485C22.3681 1.71108 21.8886 3.29441 21.8886 4.9139L21.8886 10.6968L24.6443 10.6968Z" fill="#A5C3DC"/>
<path d="M26.3666 16.8968C26.9372 16.8968 27.3999 17.3595 27.3999 17.9301L27.3999 46.8635C27.3999 47.4341 26.9372 47.8968 26.3666 47.8968C25.7959 47.8968 25.3332 47.4341 25.3332 46.8635L25.3332 17.9301C25.3332 17.3595 25.7959 16.8968 26.3666 16.8968Z" fill="#A5FFFF"/>
<path d="M26.3666 16.8968C26.9372 16.8968 27.3999 17.3595 27.3999 17.9301L27.3999 23.0968L25.3332 23.0968L25.3332 17.9301C25.3332 17.3595 25.7959 16.8968 26.3666 16.8968Z" fill="#FFFF50"/>
</svg>
