<svg xmlns="http://www.w3.org/2000/svg" width="40" height="40" viewBox="0 0 40 40">
    <g fill="none" fill-rule="evenodd">
        <circle cx="20" cy="20" r="20" fill="#D7E9FE" fill-rule="nonzero"/>
        <path fill="#B6D9FD" fill-rule="nonzero" d="M20 0v40c11.046 0 20-8.954 20-20S31.046 0 20 0z"/>
        <path d="M23.353 21.446c-1.046 0-1.743.548-1.743 1.444 0 .896.697 1.444 1.743 1.444 1.045 0 1.743-.548 1.743-1.444 0-.896-.698-1.444-1.743-1.444zM23.353 19.305c.83 0 1.394-.448 1.394-1.211 0-.78-.581-1.229-1.394-1.229s-1.378.448-1.378 1.229c0 .763.548 1.211 1.378 1.211z"/>
        <g fill="#FC4C8A" fill-rule="nonzero">
            <path d="M20 35.313c-8.443 0-15.313-6.87-15.313-15.313 0-8.443 6.87-15.313 15.313-15.313 2.067 0 4.072.406 5.96 1.204l-.912 2.159A12.886 12.886 0 0 0 20 7.03C12.849 7.031 7.031 12.85 7.031 20S12.85 32.969 20 32.969 32.969 27.15 32.969 20c0-1.806-.364-3.553-1.082-5.193l2.148-.94A15.206 15.206 0 0 1 35.313 20c0 8.443-6.87 15.313-15.313 15.313z"/>
            <path d="M16.63 14.79V26.41h-3.285V17.33h-2.158v-2.54zM28.398 22.99c0 2.224-2.041 3.651-5.045 3.651s-5.046-1.427-5.046-3.651c0-1.195.614-2.108 1.66-2.706-.78-.547-1.245-1.344-1.245-2.34 0-2.058 1.892-3.386 4.63-3.386 2.74 0 4.631 1.328 4.631 3.386 0 .996-.464 1.793-1.244 2.34 1.045.598 1.66 1.51 1.66 2.706zm-3.302-.1c0-.896-.698-1.444-1.743-1.444-1.046 0-1.743.548-1.743 1.444 0 .896.697 1.444 1.743 1.444 1.045 0 1.743-.548 1.743-1.444zm-3.12-4.796c0 .763.547 1.211 1.377 1.211s1.394-.448 1.394-1.211c0-.78-.581-1.229-1.394-1.229s-1.378.448-1.378 1.229z"/>
        </g>
        <path fill="#E6235F" fill-rule="nonzero" d="M25.048 8.05l.913-2.159A15.219 15.219 0 0 0 20 4.687v2.344c1.751 0 3.45.343 5.048 1.019zM34.035 13.867l-2.147.94A12.877 12.877 0 0 1 32.968 20c0 7.151-5.817 12.969-12.968 12.969v2.343c8.443 0 15.313-6.869 15.313-15.312 0-2.131-.43-4.195-1.278-6.133z"/>
        <path fill="#E6235F" fill-rule="nonzero" d="M23.353 26.641c3.004 0 5.045-1.427 5.045-3.651 0-1.195-.614-2.108-1.66-2.706.78-.547 1.246-1.344 1.246-2.34 0-2.058-1.893-3.386-4.631-3.386-1.375 0-2.537.335-3.353.93v10.354c.862.514 2.01.8 3.353.8zm0-2.307c-1.046 0-1.743-.548-1.743-1.444 0-.896.697-1.444 1.743-1.444 1.045 0 1.743.548 1.743 1.444 0 .896-.698 1.444-1.743 1.444zm0-7.469c.813 0 1.394.448 1.394 1.229 0 .763-.564 1.211-1.394 1.211s-1.378-.448-1.378-1.211c0-.78.565-1.229 1.378-1.229z"/>
        <circle cx="32.148" cy="7.852" r="7.852" fill="#545AC3" fill-rule="nonzero"/>
        <path fill="#404AA2" fill-rule="nonzero" d="M32.148 0v15.703a7.852 7.852 0 1 0 0-15.703z"/>
        <path fill="#FFCF2E" fill-rule="nonzero" d="M35.16 6.692h-1.852V4.84h-2.343v1.852h-1.852v2.343h1.852v1.852h2.343V9.035h1.852z"/>
        <path fill="#F9AF26" fill-rule="nonzero" d="M33.308 6.692V4.84h-1.16v6.047h1.16V9.035h1.852V6.692z"/>
    </g>
</svg>
