<svg xmlns="http://www.w3.org/2000/svg" width="40" height="40" viewBox="0 0 40 40">
    <g fill="none" fill-rule="nonzero">
        <path fill="#E93234" d="M19.96 9.702H.588A.588.588 0 0 0 0 10.29v19.372c0 .325.263.588.588.588H19.96a.587.587 0 0 0 .588-.588V10.29a.588.588 0 0 0-.588-.588z"/>
        <path fill="#BF161C" d="M19.96 9.702h-1.864V30.25h1.864a.587.587 0 0 0 .588-.588V10.29a.588.588 0 0 0-.588-.588z"/>
        <path fill="#992228" d="M20.248 6.676a.588.588 0 0 0-.593.01L17.54 7.969l-2.117-1.283a.588.588 0 0 0-.61 0l-2.116 1.283-2.117-1.283a.587.587 0 0 0-.61 0L7.852 7.969 5.735 6.686a.587.587 0 0 0-.609 0L3.01 7.969.892 6.686A.588.588 0 0 0 0 7.188v3.102c0 .324.263.587.588.587H19.96a.588.588 0 0 0 .588-.587V7.188a.587.587 0 0 0-.3-.512zM19.96 29.074H.588a.588.588 0 0 0-.588.588v3.102a.588.588 0 0 0 .892.502l2.117-1.284 2.117 1.284a.587.587 0 0 0 .61 0l2.116-1.284 2.117 1.284a.587.587 0 0 0 .61 0l2.116-1.284 2.117 1.284a.587.587 0 0 0 .61 0l2.116-1.284 2.117 1.284a.587.587 0 0 0 .893-.502v-3.102a.588.588 0 0 0-.588-.588z"/>
        <path fill="#6BDAFC" d="M32.624 3.535V2.296A2.299 2.299 0 0 0 30.327 0a2.299 2.299 0 0 0-2.296 2.296v1.239a7.531 7.531 0 0 0-5.244 7.184v25.656c0 .324.263.587.587.587h13.907a.588.588 0 0 0 .587-.587V10.719a7.53 7.53 0 0 0-5.244-7.184z"/>
        <path fill="#992228" d="M10.274 12.154c-4.313 0-7.822 3.509-7.822 7.822 0 4.313 3.509 7.822 7.822 7.822 4.313 0 7.822-3.51 7.822-7.822 0-4.313-3.509-7.822-7.822-7.822z"/>
        <path fill="#E93234" d="M10.274 14.532a5.45 5.45 0 0 0-5.443 5.444 5.45 5.45 0 0 0 5.443 5.444 5.45 5.45 0 0 0 5.443-5.444 5.45 5.45 0 0 0-5.443-5.444z"/>
        <path fill="#1CC8E5" d="M32.624 3.535V2.296A2.299 2.299 0 0 0 30.327 0c-.484 0-.934.151-1.305.409.597.415.99 1.106.99 1.887v1.24a7.53 7.53 0 0 1 5.244 7.184v25.655a.588.588 0 0 1-.587.587h2.612a.588.588 0 0 0 .587-.587V10.72a7.53 7.53 0 0 0-5.244-7.185z"/>
        <path fill="#1CA2E5" d="M37.84 35.787H22.816a2.109 2.109 0 0 0-2.107 2.106c0 1.162.945 2.107 2.107 2.107H37.84a2.109 2.109 0 0 0 2.106-2.107 2.11 2.11 0 0 0-2.106-2.106z"/>
        <path fill="#1691C1" d="M37.84 35.787H35.23a2.11 2.11 0 0 1 2.106 2.106A2.109 2.109 0 0 1 35.23 40h2.612a2.109 2.109 0 0 0 2.106-2.107 2.11 2.11 0 0 0-2.106-2.106z"/>
        <g fill="#721C28">
            <path d="M19.96 29.074h-1.864v3.247l1.56.945a.587.587 0 0 0 .892-.502v-3.102a.588.588 0 0 0-.588-.588zM20.248 6.676a.588.588 0 0 0-.593.01l-1.559.946v3.245h1.864a.588.588 0 0 0 .588-.587V7.188a.587.587 0 0 0-.3-.512z"/>
        </g>
    </g>
</svg>
