<svg xmlns="http://www.w3.org/2000/svg" xmlns:xlink="http://www.w3.org/1999/xlink" width="40" height="40" viewBox="0 0 40 40">
    <defs>
        <path id="a" d="M.613 0h6.713v14.446H.613z"/>
        <path id="c" d="M0 .723h17.848V18H0z"/>
        <path id="e" d="M.935 0h3.39v14.398H.936z"/>
        <path id="g" d="M.055.18h17.848V32H.055z"/>
        <path id="i" d="M.003.18h15.9V32H.003z"/>
    </defs>
    <g fill="none" fill-rule="evenodd">
        <path d="M0 0h40v40H0z"/>
        <g transform="translate(16)">
            <mask id="b" fill="#fff">
                <use xlink:href="#a"/>
            </mask>
            <path fill="#FFC89F" d="M6.989 10.26l-.92-.433V2.039a2.042 2.042 0 0 0-2.04-2.04C2.907 0 1.99.916 1.99 2.04v7.788l-1.04.49a.586.586 0 0 0-.322.655c.032.147.048.297.048.444v2.443a.584.584 0 0 0 .792.549 7.342 7.342 0 0 1 5-.044.586.586 0 0 0 .781-.552V11.43c0-.168.02-.336.06-.5a.586.586 0 0 0-.32-.67" mask="url(#b)"/>
        </g>
        <path fill="#F77474" d="M16.64 8.894a3.208 3.208 0 0 0-2.71-.64C2.96 10.654.54 28.974.008 36.74a2.992 2.992 0 0 0 1.705 2.943c.436.212.894.316 1.346.316.727 0 1.44-.27 2.018-.79 3.258-2.936 6.78-4.174 9.16-4.697 2.091-.46 3.61-2.352 3.61-4.503V11.416c0-.985-.44-1.904-1.208-2.522"/>
        <path fill="#E55555" d="M16.64 8.894a3.208 3.208 0 0 0-2.71-.64c-.279.062-.553.133-.822.215a3.225 3.225 0 0 1 1.899 2.947V34.27a4.643 4.643 0 0 0 2.84-4.26V11.416c0-.985-.44-1.904-1.208-2.522"/>
        <g transform="translate(0 22)">
            <mask id="d" fill="#fff">
                <use xlink:href="#c"/>
            </mask>
            <path fill="#EF3A47" d="M16.578 2.889c-.028.05-2.372 5.19-7.83 6.393-.004 0-.01.003-.016.003l-1.881.474c-.095.024-1.276.316-2.677 1.019-1.921.965-3.338 2.255-4.1 3.729a.612.612 0 0 0-.066.233c-.003.038-.002.075-.004.113-.001.04-.004.08-.004.122 0 .038.003.075.005.113.002.039.002.078.005.117.003.038.008.076.013.114.004.037.007.076.013.114.005.037.014.074.02.11l.022.112c.008.037.02.073.029.11.01.035.018.07.029.105.01.033.022.064.033.096l.04.113.037.085c.017.04.033.079.052.119l.05.096c.019.032.035.067.053.098.02.035.043.068.065.102.018.029.034.057.053.085.02.032.045.06.068.09.02.03.04.06.064.088.023.029.049.057.073.085.024.027.047.056.072.083.027.028.055.056.084.083l.074.074c.035.033.072.062.108.093.02.018.04.037.064.055.057.046.117.089.178.13l.006.006a3.101 3.101 0 0 0 .403.233c.436.212.894.316 1.347.316a3 3 0 0 0 2.018-.791 20.17 20.17 0 0 1 9.158-4.696c2.093-.46 3.612-2.353 3.612-4.503V.723a91.315 91.315 0 0 0-1.27 2.166" mask="url(#d)"/>
        </g>
        <g transform="translate(19)">
            <mask id="f" fill="#fff">
                <use xlink:href="#e"/>
            </mask>
            <path fill="#F7B081" d="M3.989 10.26l-.92-.433V2.039A2.042 2.042 0 0 0 .935.002v13.946a7.32 7.32 0 0 1 2.532.416.586.586 0 0 0 .781-.552V11.43c0-.168.02-.336.06-.5a.586.586 0 0 0-.32-.67" mask="url(#f)"/>
        </g>
        <g transform="translate(22 8)">
            <mask id="h" fill="#fff">
                <use xlink:href="#g"/>
            </mask>
            <path fill="#F77474" d="M17.895 28.74C17.364 20.974 14.943 2.654 3.972.254a3.208 3.208 0 0 0-2.709.64A3.226 3.226 0 0 0 .055 3.416V22.01c0 2.15 1.519 4.043 3.611 4.502a20.192 20.192 0 0 1 9.16 4.698c.578.52 1.29.79 2.017.79a3.07 3.07 0 0 0 1.346-.317 2.99 2.99 0 0 0 1.706-2.943" mask="url(#h)"/>
        </g>
        <g transform="translate(24 8)">
            <mask id="j" fill="#fff">
                <use xlink:href="#i"/>
            </mask>
            <path fill="#E55555" d="M15.895 28.74C15.364 20.974 12.943 2.654 1.972.254A3.203 3.203 0 0 0 .003.445C10.338 3.495 12.66 21.153 13.179 28.74a2.992 2.992 0 0 1-1.684 2.933c.422.215.882.327 1.348.327.452 0 .91-.105 1.346-.317a2.99 2.99 0 0 0 1.706-2.943" mask="url(#j)"/>
        </g>
        <path fill="#EF3A47" d="M23.325 24.889c.028.05 2.372 5.19 7.829 6.393.005 0 .01.003.017.003l1.88.474c.096.024 1.278.316 2.678 1.019 1.92.965 3.339 2.255 4.1 3.729.038.072.06.152.066.233.003.038.003.075.004.113 0 .04.004.08.004.122 0 .038-.003.075-.005.113a2.288 2.288 0 0 1-.005.117l-.012.114c-.005.037-.008.076-.014.114-.005.037-.014.074-.021.11-.007.037-.012.075-.021.112-.008.037-.02.073-.03.11-.01.035-.017.07-.028.105-.01.033-.022.064-.033.096-.013.038-.025.076-.04.113-.011.03-.025.057-.037.085-.017.04-.033.079-.052.119-.015.032-.034.064-.051.096-.017.032-.033.067-.052.098-.02.035-.043.068-.065.102a1.503 1.503 0 0 1-.053.085c-.021.032-.045.06-.068.09-.021.03-.041.06-.063.088l-.074.085c-.024.027-.047.056-.072.083a3.248 3.248 0 0 1-.083.083l-.075.074c-.035.033-.071.062-.107.093-.022.018-.042.037-.065.055a2.912 2.912 0 0 1-.178.13l-.005.006a3.101 3.101 0 0 1-.404.233 3.072 3.072 0 0 1-1.346.316c-.728 0-1.44-.27-2.018-.791a20.177 20.177 0 0 0-9.16-4.696c-2.092-.46-3.611-2.353-3.611-4.503V22.723c.303.492.708 1.188 1.27 2.166"/>
    </g>
</svg>
