<svg xmlns="http://www.w3.org/2000/svg" width="40" height="40" viewBox="0 0 40 40">
    <g fill="none" fill-rule="evenodd">
        <path d="M0 0h40v40H0z"/>
        <path fill="#F8A8A9" d="M15.817 0s-1.88 9.032 3.617 12.581c0 0 4.41 2.447 3.558 7.741-1.13 7.016-8.873 7.914-10.672 7.42 0 0-12.832-4.303-12.304 12.258H4.53s.358-5.511 1.645-6.774c2.465-2.419 6.954.363 9.701 2.581 1.53 1.235 4.324 2.579 7.678 2.581 4.094.002 8.988-1.979 13.017-8.388C39.1 25.978 40.015 22.117 40 19.032c-.026-5.82-3.105-9.354-3.105-9.354S31.833 1.635 25.901 7.42c-2.098 2.045-3.557.968-3.557.968S20.124 6.981 20.654 0h-4.837z"/>
        <path fill="#E28184" d="M1.63 40c0-4.193 1.235-7.645 2.653-9.108 1.105-1.14 2.641-1.717 4.566-1.717 1.584 0 2.812.397 2.824.401l.051.018.052.014c.44.121.98.182 1.61.182 3.454 0 10.296-1.915 11.46-9.16.981-6.104-3.58-9.173-4.4-9.672C17.128 8.71 17.111 3.55 17.435 0h1.29c-.646 6.774 1.783 9.515 2.467 9.982.273.19 1.023.624 2.136.624.921 0 2.338-.312 3.863-1.802 1.045-1.023 2.083-1.54 3.083-1.54 2.228 0 4.332 2.55 4.892 3.443l.065.103.076.093c.25.31 6.152 7.891-.448 18.042-3.16 4.864-7.107 7.434-11.41 7.434-2.825 0-5.21-1.119-6.394-2.077-2.226-1.8-5.507-3.947-8.494-3.947-1.467 0-2.767.516-3.758 1.492-1.22 1.2-2.207 4.605-2.207 8.153H1.63z"/>
        <path fill="#8FB3D0" d="M24.928 20c-.02.207-.047.416-.082.63-1.164 7.245-8.006 9.16-11.46 9.16-.629 0-1.17-.06-1.609-.182l-.052-.014-.052-.018a10.088 10.088 0 0 0-2.824-.4c-1.925 0-3.46.576-4.566 1.716C2.865 32.355 1.63 35.807 1.63 40h1.29c0-3.548 1.1-6.849 2.207-8.153 1.02-1.2 1.97-1.169 3.436-1.169 2.987 0 6.268 1.823 8.494 3.624 1.185.958 3.57 2.077 6.393 2.077 4.304 0 8.25-2.57 11.412-7.434 2.151-3.308 2.973-6.344 3.096-8.945H24.928z"/>
        <path fill="#FFF" d="M30.34 24.517a1.613 1.613 0 1 1-3.226-.001 1.613 1.613 0 0 1 3.225 0M32.275 28.388a1.29 1.29 0 1 1-2.582-.002 1.29 1.29 0 0 1 2.582.002M27.758 30.322a.968.968 0 1 1-1.936 0 .968.968 0 0 1 1.936 0"/>
    </g>
</svg>
