<svg xmlns="http://www.w3.org/2000/svg" xmlns:xlink="http://www.w3.org/1999/xlink" width="16" height="16" viewBox="0 0 16 16">
    <defs>
        <path id="a" d="M1.536 0h12.928C15.312 0 16 .688 16 1.536v12.928c0 .848-.688 1.536-1.536 1.536H1.536A1.536 1.536 0 0 1 0 14.464V1.536C0 .688.688 0 1.536 0z"/>
    </defs>
    <g fill="none" fill-rule="evenodd">
        <mask id="b" fill="#fff">
            <use xlink:href="#a"/>
        </mask>
        <use fill="#FFF" xlink:href="#a"/>
        <g mask="url(#b)">
            <path fill="#FCB716" d="M12.987 4c.56 0 1.013.441 1.013.986v5.15c0 .544-.454.986-1.013.986h-8.71c-.507 0-1 .147-1.42.423l-.66.434a.13.13 0 0 1-.07.021.125.125 0 0 1-.127-.123V4.986C2 4.44 2.454 4 3.013 4h9.974z"/>
            <path fill="#FFF" fill-rule="nonzero" d="M9.644 5.158V10.3h-.11V5.158h.11zm-5.11.643c.794 0 1.281.507 1.281 1.102 0 .443-.251.802-.69 1.06l-.684.401c-.137.085-.252.18-.306.312h1.702v.627H3.21c.006-.601.203-1.092.838-1.46l.586-.338c.301-.174.421-.354.421-.591 0-.248-.18-.47-.536-.47-.378 0-.564.249-.564.57 0 .064.01.132.027.19l-.717-.021a1.247 1.247 0 0 1-.027-.237c0-.602.47-1.145 1.297-1.145zm8.275.08v.606c-.268.221-1.264 1.092-1.423 2.816h-.783c.148-1.84 1.336-2.795 1.336-2.795H10.11V5.88h2.7zm-4.381 0v2.067h.586v.622h-.586v.733h-.745V8.57h-1.68v-.76l1.494-1.93h.93zm-.745.759L6.67 7.948h1.013V6.64z"/>
        </g>
    </g>
</svg>
