<svg width="20" height="20" viewBox="0 0 20 20" fill="none" xmlns="http://www.w3.org/2000/svg">
<path d="M5.04044 0C4.8247 0 4.64978 0.174961 4.64978 0.390664C4.64978 0.606406 4.8247 0.781328 5.04044 0.781328C7.2472 0.781328 9.04251 2.62324 9.04251 4.88738C9.04251 5.10312 9.21748 5.27805 9.43318 5.27805C9.64892 5.27805 9.82384 5.10309 9.82384 4.88738C9.82388 2.19246 7.67802 0 5.04044 0Z" fill="#FC9916"/>
<path d="M5.03935 1.85339C4.8236 1.85339 4.64868 2.02835 4.64868 2.24406C4.64868 2.4598 4.8236 2.63472 5.03935 2.63472C6.24774 2.63472 7.23083 3.64523 7.23083 4.8873C7.23083 5.10304 7.40579 5.27796 7.62149 5.27796C7.83724 5.27796 8.01216 5.103 8.01216 4.8873C8.0122 3.21441 6.67856 1.85339 5.03935 1.85339Z" fill="#FC9916"/>
<path d="M5.04679 3.56076C4.83101 3.56076 4.65613 3.73564 4.65613 3.95142C4.65613 4.16717 4.83109 4.34209 5.04679 4.34209C5.3291 4.34209 5.55871 4.58131 5.55871 4.87537C5.55871 5.09111 5.73363 5.26603 5.94937 5.26603C6.16511 5.26603 6.34003 5.09107 6.34003 4.87537C6.34007 4.15049 5.75988 3.56076 5.04679 3.56076Z" fill="#FC9916"/>
<path d="M17.9097 3.09628H17.0437C16.828 3.09628 16.6531 3.2712 16.6531 3.48695C16.6531 3.70269 16.828 3.87761 17.0437 3.87761H17.9097C18.6314 3.87761 19.2185 4.46472 19.2185 5.18636V10.4894C19.2185 10.905 19.0236 11.2755 18.7207 11.5155V10.4938C18.7207 9.69679 18.152 9.01222 17.3685 8.86609L17.116 8.81902C17.1723 8.64636 17.2031 8.46238 17.2031 8.27117V7.37343C17.2031 6.3973 16.409 5.60316 15.4328 5.60316C14.4567 5.60316 13.6626 6.3973 13.6626 7.37343V8.27117C13.6626 8.46238 13.6935 8.64636 13.7498 8.81902L13.4972 8.86609C12.7137 9.01218 12.145 9.69675 12.145 10.4938V11.6264C11.7501 11.4008 11.4832 10.9758 11.4832 10.4894V5.18636C11.4832 4.46472 12.0703 3.87761 12.792 3.87761H13.7231C13.9388 3.87761 14.1137 3.70269 14.1137 3.48695C14.1137 3.2712 13.9388 3.09628 13.7231 3.09628H12.792C11.6395 3.09628 10.7019 4.0339 10.7019 5.18636V10.4894C10.7019 11.6419 11.6395 12.5795 12.792 12.5795H14.7578V13.7028C14.7578 13.8605 14.8528 14.0029 14.9984 14.0634C15.0469 14.0836 15.0979 14.0934 15.1484 14.0934C15.2497 14.0934 15.3492 14.0541 15.4239 13.9799L16.8331 12.5795H17.9097C19.0622 12.5795 19.9998 11.6419 19.9998 10.4894V5.18636C19.9998 4.0339 19.0622 3.09628 17.9097 3.09628ZM14.4439 7.37343C14.4439 6.82812 14.8875 6.38449 15.4328 6.38449C15.9781 6.38449 16.4217 6.82812 16.4217 7.37343V8.27117C16.4217 8.81648 15.9781 9.26011 15.4328 9.26011C14.8875 9.26011 14.4439 8.81648 14.4439 8.27117V7.37343ZM17.9393 11.7974C17.9294 11.7976 17.9196 11.7981 17.9096 11.7981H16.672V11.7982C16.5688 11.7982 16.4698 11.839 16.3966 11.9117L15.5392 12.7638V12.1888C15.5392 11.9731 15.3642 11.7982 15.1485 11.7982H12.9264V10.4938C12.9264 10.0729 13.2267 9.71132 13.6405 9.63413L14.1912 9.53144C14.511 9.84656 14.9495 10.0414 15.4328 10.0414C15.9162 10.0414 16.3548 9.84648 16.6745 9.5314L17.2253 9.6341C17.6391 9.71128 17.9394 10.0728 17.9394 10.4938V11.7974H17.9393Z" fill="#FC9916"/>
<path d="M15.4708 3.21092C15.3982 3.13787 15.2974 3.09647 15.1946 3.09647C15.0919 3.09647 14.9911 3.13787 14.9184 3.21092C14.8458 3.28322 14.804 3.38404 14.804 3.48713C14.804 3.58986 14.8457 3.69069 14.9184 3.76334C14.9911 3.83596 15.0918 3.87779 15.1946 3.87779C15.2974 3.87779 15.3982 3.836 15.4708 3.76334C15.5434 3.69029 15.5853 3.5899 15.5853 3.48713C15.5853 3.38401 15.5435 3.28358 15.4708 3.21092Z" fill="#FC9916"/>
<path d="M7.26087 13.1421C7.18821 13.0694 7.08782 13.0276 6.98466 13.0276C6.88192 13.0276 6.7811 13.0694 6.70849 13.1421C6.63583 13.2147 6.59399 13.3155 6.59399 13.4183C6.59399 13.5214 6.63579 13.6218 6.70849 13.6945C6.78149 13.7675 6.88192 13.8093 6.98466 13.8093C7.08739 13.8093 7.18821 13.7675 7.26087 13.6945C7.33392 13.6218 7.37532 13.5214 7.37532 13.4183C7.37532 13.3155 7.33392 13.2148 7.26087 13.1421Z" fill="#FC9916"/>
<path d="M15.8118 16.6746L12.8188 13.6816C12.4204 13.2832 11.7936 13.2249 11.3286 13.5429L9.41833 14.8491C9.2633 14.955 9.05447 14.9356 8.92162 14.8028L8.28994 14.1711C8.13744 14.0186 7.89013 14.0186 7.7374 14.1711C7.58486 14.3236 7.58486 14.5709 7.7374 14.7236L8.36908 15.3553C8.76751 15.7537 9.39423 15.8121 9.85931 15.494L11.7695 14.1879C11.9245 14.0819 12.1334 14.1013 12.2663 14.2341L15.2593 17.2272C15.4116 17.3794 15.4115 17.6273 15.2592 17.7797C13.34 19.6989 10.2172 19.6989 8.29794 17.7797L2.22052 11.7022C1.29076 10.7725 0.778804 9.53637 0.778804 8.22153C0.778804 6.90669 1.2908 5.67055 2.22056 4.74079C2.29435 4.667 2.39244 4.62641 2.49677 4.62641C2.60115 4.62641 2.69927 4.66704 2.77302 4.74083L5.76599 7.73383C5.89876 7.86661 5.91822 8.07555 5.81228 8.23055L4.50619 10.1408C4.1881 10.6058 4.24646 11.2325 4.64486 11.631L5.59439 12.5806C5.74697 12.7331 5.99427 12.7331 6.14693 12.5806C6.29947 12.428 6.29947 12.1806 6.14693 12.028L5.1974 11.0785C5.06462 10.9457 5.04517 10.7368 5.15115 10.5818L6.45728 8.67157C6.77529 8.20649 6.71693 7.57973 6.31853 7.18133L3.32556 4.18833C2.86861 3.73137 2.12505 3.73137 1.66802 4.18833C-0.555845 6.41223 -0.555845 10.0308 1.66802 12.2547L7.74544 18.3321C8.8574 19.444 10.318 20 11.7786 20C13.2392 20 14.6998 19.444 15.8117 18.3321C16.2687 17.8751 16.2687 17.1316 15.8118 16.6746Z" fill="#FC9916"/>
<path d="M5.26268 9.60621L2.89448 7.238C2.74186 7.0855 2.49456 7.0855 2.34194 7.238C2.1894 7.39058 2.1894 7.63796 2.34194 7.79054L4.71018 10.1587C4.78647 10.235 4.88639 10.2732 4.98643 10.2732C5.08639 10.2732 5.18639 10.235 5.26268 10.1587C5.41522 10.0062 5.41522 9.75879 5.26268 9.60621Z" fill="#FC9916"/>
<path d="M14.3267 18.67L11.8349 16.1782C11.6823 16.0257 11.435 16.0257 11.2824 16.1782C11.1298 16.3308 11.1298 16.5782 11.2824 16.7308L13.7741 19.2225C13.8504 19.2988 13.9503 19.337 14.0504 19.337C14.1503 19.337 14.2503 19.2988 14.3267 19.2225C14.4792 19.0699 14.4792 18.8226 14.3267 18.67Z" fill="#FC9916"/>
</svg>
