<svg xmlns="http://www.w3.org/2000/svg" width="26" height="26" viewBox="0 0 26 26">
    <g fill="none" fill-rule="evenodd">
        <path d="M-2-2h30v30H-2z"/>
        <path fill="#02475B" fill-rule="nonzero" d="M13 .5C6.1.5.5 6.1.5 13S6.1 25.5 13 25.5 25.5 19.9 25.5 13 19.9.5 13 .5zm5 13.75h-3.75V18c0 .688-.563 1.25-1.25 1.25-.688 0-1.25-.563-1.25-1.25v-3.75H8c-.688 0-1.25-.563-1.25-1.25 0-.688.563-1.25 1.25-1.25h3.75V8c0-.688.563-1.25 1.25-1.25.688 0 1.25.563 1.25 1.25v3.75H18c.688 0 1.25.563 1.25 1.25 0 .688-.563 1.25-1.25 1.25z"/>
    </g>
</svg>
