<svg xmlns="http://www.w3.org/2000/svg" width="24" height="24"><g fill="none" fill-rule="evenodd"><path d="M0 0h24v24H0z"/><path fill="#02475B" d="M15.488 14.695c2.73.64 5.512 1.98 5.512 4.055V21H3v-2.25c0-2.075 2.782-3.415 5.513-4.056a3.5 3.5 0 002.987 3.173v2.127H15l.083-.008a1.5 1.5 0 100-.985L15 18.994l-2.5-.001v-1.126a3.5 3.5 0 002.98-3.091zm1.012 4.299a.5.5 0 110 1 .5.5 0 010-1zM12 14.25c.71 0 1.58.08 2.497.241l-.002.076a2.501 2.501 0 01-4.995-.164l.004.088A14.885 14.885 0 0112 14.25zM12 12c2.475 0 4.5-2.025 4.5-4.5S14.475 3 12 3 7.5 5.025 7.5 7.5 9.525 12 12 12z"/></g></svg>