<svg xmlns="http://www.w3.org/2000/svg" width="24" height="24"><g fill="none" fill-rule="evenodd"><path d="M0 0h24v24H0z"/><path fill="#02475B" d="M10.644 10.679a6.998 6.998 0 012.68-1.29V6.078A4.083 4.083 0 009.247 2H8.082A4.087 4.087 0 004 6.078v4.601h6.644zm-2.736 5.548a6.96 6.96 0 01.984-3.548H4v5.243A4.084 4.084 0 008.082 22h1.165c.477 0 .936-.085 1.364-.236a7.01 7.01 0 01-2.703-5.537zm11.699-3.151l-7.711 7.711c.894.62 1.978.984 3.148.984a5.547 5.547 0 004.563-8.695zm-9.125 6.297a5.511 5.511 0 01-.984-3.148 5.547 5.547 0 018.695-4.563l-7.711 7.711z"/></g></svg>