<svg xmlns="http://www.w3.org/2000/svg" width="24" height="24" viewBox="0 0 24 24">
    <g fill="none" fill-rule="evenodd">
        <path d="M0 0h24v24H0z"/>
        <path fill="#02475B" fill-rule="nonzero" d="M12 6.185c3.198 0 5.815 2.617 5.815 5.815 0 3.198-2.617 5.815-5.815 5.815-3.198 0-5.815-2.617-5.815-5.815 0-3.198 2.617-5.815 5.815-5.815zm0 9.515c2.035 0 3.7-1.665 3.7-3.7S14.035 8.3 12 8.3A3.711 3.711 0 0 0 8.3 12c0 2.035 1.665 3.7 3.7 3.7zm0-11.444c-.581 0-1.057-.45-1.057-1.058v-2.14A1.06 1.06 0 0 1 12 0a1.06 1.06 0 0 1 1.057 1.057v2.141A1.06 1.06 0 0 1 12 4.256zm10.943 6.687A1.06 1.06 0 0 1 24 12a1.06 1.06 0 0 1-1.057 1.057h-2.141A1.06 1.06 0 0 1 19.744 12a1.06 1.06 0 0 1 1.058-1.057h2.14zM12 19.744c.581 0 1.057.45 1.057 1.058v2.14A1.06 1.06 0 0 1 12 24a1.06 1.06 0 0 1-1.057-1.057v-2.141A1.06 1.06 0 0 1 12 19.744zM4.256 12c0 .581-.45 1.057-1.058 1.057h-2.14A1.06 1.06 0 0 1 0 12a1.06 1.06 0 0 1 1.057-1.057h2.141A1.06 1.06 0 0 1 4.256 12zM18.21 6.846c-.264 0-.528-.106-.766-.317a1.053 1.053 0 0 1 0-1.507l1.533-1.533a1.053 1.053 0 0 1 1.507 0 1.053 1.053 0 0 1 0 1.507l-1.533 1.533a1.044 1.044 0 0 1-.74.317zm.74 10.625l1.507 1.533a1.053 1.053 0 0 1 0 1.507 1.044 1.044 0 0 1-.74.317c-.264 0-.529-.106-.74-.317l-1.533-1.533a1.053 1.053 0 0 1 0-1.507 1.053 1.053 0 0 1 1.507 0zm-13.903 0a1.022 1.022 0 0 1 1.48 0 1.053 1.053 0 0 1 0 1.507l-1.532 1.533a1.044 1.044 0 0 1-.74.317c-.265 0-.53-.106-.74-.317a1.053 1.053 0 0 1 0-1.507l1.532-1.533zm0-10.942L3.49 4.996a1.053 1.053 0 0 1 0-1.507 1.053 1.053 0 0 1 1.507 0l1.533 1.533a1.053 1.053 0 0 1 0 1.507 1.044 1.044 0 0 1-.74.317 1 1 0 0 1-.74-.317z"/>
    </g>
</svg>
