<svg xmlns="http://www.w3.org/2000/svg" width="290" height="218" viewBox="0 0 290 218">
    <defs>
        <linearGradient id="a" x1="50%" x2="50%" y1="0%" y2="100%">
            <stop offset="0%" stop-color="#F4F3F3"/>
            <stop offset="100%" stop-color="#E7E4E4"/>
        </linearGradient>
        <linearGradient id="b" x1="50%" x2="50%" y1="0%" y2="100%">
            <stop offset="0%" stop-color="#FEAFAF"/>
            <stop offset="100%" stop-color="#FC8686"/>
        </linearGradient>
        <linearGradient id="c" x1="50%" x2="50%" y1="0%" y2="100%">
            <stop offset="0%" stop-color="#FEAEAE"/>
            <stop offset="100%" stop-color="#FD8989"/>
        </linearGradient>
        <linearGradient id="d" x1="50%" x2="50%" y1="0%" y2="100%">
            <stop offset="0%" stop-color="#FEAEAE"/>
            <stop offset="100%" stop-color="#FD8989"/>
        </linearGradient>
        <linearGradient id="e" x1="50%" x2="50%" y1="0%" y2="100%">
            <stop offset="0%" stop-color="#FEAFAF"/>
            <stop offset="100%" stop-color="#FC8484"/>
        </linearGradient>
        <linearGradient id="f" x1="50%" x2="50%" y1="0%" y2="100%">
            <stop offset="0%" stop-color="#FE9595"/>
            <stop offset="100%" stop-color="#FE9595"/>
        </linearGradient>
    </defs>
    <g fill="none" fill-rule="evenodd">
        <g transform="translate(41.46 27)">
            <path fill="url(#a)" d="M174.005 106.92a87.473 87.473 0 0 1-1.688 2.628c-5.13 7.715-11.496 15.129-18.548 21.94-.317.318-.652.636-.986.954a123.109 123.109 0 0 1-3.075 2.828 122.907 122.907 0 0 1-5.497 4.753c-.986.837-2.005 1.657-3.008 2.46-11.663 9.238-24.13 17.32-36.41 23.412a137.51 137.51 0 0 1-11.38 5.088c-19.618 7.782-37.882 9.606-50.481 1.891-4.01-2.443-7.436-5.857-10.16-10.36l-1.303-2.158c-4.027-6.744-7.87-13.522-11.246-20.333a154.058 154.058 0 0 1-2.29-4.753c-12.248-26.358-16.91-53.034.452-79.274 6.75-10.209 17.83-18.158 31.13-23.781 3.794-1.623 7.754-3.029 11.865-4.25a92.37 92.37 0 0 1 6.149-1.691c2.623-.67 5.297-1.255 8.004-1.757 2.072-.402 4.144-.753 6.233-1.054l2.607-.352a157.65 157.65 0 0 1 18.631-1.272c.819-.017 1.638-.017 2.44-.017 3.76.017 7.486.168 11.162.47.986.066 1.972.15 2.958.267 18.765 1.824 35.976 7.213 47.673 16.15 2.557 1.957 4.846 4.066 6.835 6.359.367.418.718.836 1.052 1.271l.335.402c2.422 3.046 4.36 6.192 5.815 9.405 7.436 16.217 3.09 34.107-7.27 50.775" transform="rotate(-5 96 99.822)"/>
            <path fill="#E7E4E4" d="M140.87 151.737c-3.976 5.165-6.506 12.274-1.426 15.91 5.674 4.061 16.47 2.059 21.352-6.965 3.12-5.766 4.27-14.547-.138-19.033-3.773-3.838-14.912 3.75-19.788 10.088"/>
            <rect width="92" height="171" x="33.541" fill="#484847" rx="2"/>
            <path fill="#E5E5E5" d="M39.54 9h80.001v142h-80z"/>
            <circle cx="80.541" cy="159" r="6" fill="#7A7A79"/>
            <circle cx="69.041" cy="4.5" r="1.5" fill="#7A7A79"/>
            <path fill="url(#b)" d="M60 58.146l-9.94-6.408s-9.883 17.96-14.756 28.467c-7.407-5.066-20.431-14.445-24.276-18.566l-.032-.029c.151-1.584-.139-4.137-.561-5.585l-.023-.107-.075-.187-.087-.263a11.17 11.17 0 0 0-.201-.458c-1.022-2.217-2.641-3.101-3.596-6.061-.665-2.065-2.582-.333-2.393 1.158 0 0 .285.966.607 1.897-1.267-.595-2.362-.957-3.1-.713-.894.298-1.893 4.778-1.465 6.377.421 1.577 4.804 6.67 6.445 7.548l.373.118c2.646 3.648 20.138 24.165 27.17 27.708 4.356 2.195 7.627.303 8.72-2.491C46.136 85.219 56.197 67.87 60 58.146" transform="matrix(-1 0 0 1 152.54 10)"/>
            <path fill="#D8383A" d="M90.788 57.472C89.238 64.89 95.472 86 95.472 86l19.069-8.9S94.879 37.906 90.788 57.472"/>
            <path fill="#0087BA" d="M53.562 156c0 1 6 5 18 5s23-4 37.979-10.38c-.535-8.234-1.366-16.822-2.643-22.62l-42.49.879-3.326.077-6.324.123-.371.016c-.297 3.515-.653 17.747-.846 26.506 0 .246.02.399.02.399z"/>
            <path fill="#222123" d="M84.151 157.744l-.589-11.451c-.007-.152.078-.282.191-.292.114-.011.212.103.22.255l.588 11.451c.008.15-.078.282-.19.292-.114.011-.212-.104-.22-.255"/>
            <path fill="#DF4C4B" d="M78.237 48.037c-12.04.392-16.11 4.42-18.187 11.386-2.358 7.909-6.51 55.676-6.51 71.638 0 0 36.037 2.529 56-.713-6.258-20.95-6.936-58.618-7.06-69.84-.095-8.422-8.977-12.97-24.243-12.47"/>
            <path fill="url(#c)" d="M79 16c-.498 3.186-1.494 20.432-1.08 24.437.417 4.004-19.261 5.149-16.688.735 2.574-4.413.748-19.043.748-19.043L79 16" transform="matrix(-1 0 0 1 152.54 10)"/>
            <path fill="#EF6565" d="M74.547 27l15.994 5.597S89.46 41.048 90.112 47c-12.195-.903-15.325-15.623-15.53-18.46-.035-.533-.052-1.05-.035-1.54"/>
            <path fill="url(#d)" d="M57.268 15.722c-1.487 10.415-4.012 20.802 8.412 19.092C78.106 33.104 80.036 16.916 80 13.862c-.194-16.294-19.808-18.623-22.732 1.86" transform="matrix(-1 0 0 1 152.54 10)"/>
            <path fill="#222123" d="M85.12 21.024s2.43-.258 2.442.931c0 0-.01.806-2.13.983-2.12.176-2.67-.006-2.855-.763-.186-.754 1.404-1.135 2.542-1.151M93.836 21.057s-1.837-.612-2.23.534c0 0-.253.779 1.365 1.265 1.619.486 2.215.304 2.502-.309.325-.695-.743-1.305-1.637-1.49"/>
            <path fill="#FFFFFE" d="M90.56 34h-4.998s-.102 2 2.521 2c2.624 0 2.477-2 2.477-2"/>
            <path fill="#1D1E1C" d="M72.785 12.393c2.597-2.906 18.274-1.667 21.063 1.615 3.543 4.172-7.353 2.292-13.492 1.238-.86 3.644-4.758 9.679-5.881 10.536L71.117 26s-1.833-12.632 1.037-13.27c.244.112.454 0 .631-.337z"/>
            <path fill="url(#e)" d="M107.93 126.25c.783-4.385 3.359-31.319 1.272-38.975l-.003-.04c-1.456-4.792-8.685-25.453-13.92-35.235L84 55.34s9.44 24.854 14.017 33.645c.015.236.015.467.06.711.674 3.626 4.437 26.633 4.394 35.106-.833.235-1.683.677-2.358 1.455-.858.99-2.358 3.834-2.252 5.095.302 3.602 2.285 7.889 3.642 8.597.831.433 4.745-2 5.603-3.434.846-1.41 1.498-8.14 1.001-9.935l-.177-.33" transform="matrix(-1 0 0 1 152.54 10)"/>
            <path fill="#DF4C4B" d="M64.258 52.92c-6.545 4.233-17.717 23.5-17.717 23.5L66.438 83s15.086-41.253-2.18-30.08"/>
            <path fill="#1D1E1C" d="M84.652 24.94c-.052.552.302 1.025.792 1.058.492.032.932-.387.986-.939.052-.55-.304-1.025-.794-1.057-.49-.034-.932.385-.984.937M92.652 24.94c-.054.55.302 1.025.794 1.058.49.032.932-.387.984-.938.052-.55-.302-1.024-.794-1.058-.492-.034-.932.387-.984.938"/>
            <path fill="#222123" d="M92.54 31l-1.571-6-.592.194 1.336 5.102-2.164-.032-.008.692 3 .044"/>
            <path fill="url(#f)" d="M76.288 16.796c-1.16 2.407-2.61 4.736 1.029 5.17 3.638.432 5.33-3.334 5.537-4.071 1.1-3.938-4.288-5.832-6.566-1.1" transform="matrix(-1 0 0 1 152.54 10)"/>
            <path fill="#732A26" d="M74.091 28.746l.001-.026c0-.135-.02-.725-.265-1.247a1.716 1.716 0 0 0-.548-.684c-.25-.178-.582-.3-1.048-.3-.125 0-.26.009-.404.028a.236.236 0 0 1-.263-.21.243.243 0 0 1 .203-.274A3.43 3.43 0 0 1 72.23 26c.546 0 .983.149 1.314.386.5.358.75.89.878 1.347.129.459.139.856.139.987v.045a.24.24 0 0 1-.245.235.241.241 0 0 1-.226-.254"/>
            <path fill="#2C2C2C" d="M73.541 4h15v1h-15z"/>
        </g>
        <path fill="#E5E5E5" d="M84 32h14.857c2.629 2.657 5.057 3.99 7.286 3.997 2.228.009 3.092 1.01 2.592 3.003H81v-4a3 3 0 0 1 3-3zM158.022 31.998L142.015 32c-2.628 2.657-5.057 3.99-7.285 3.997-2.228.009-3.093 1.01-2.592 3.003l28.873-.028.012-3.965a3 3 0 0 0-3-3.009z"/>
        <path fill="#0087BA" d="M184.348 54h27.304A3.35 3.35 0 0 1 215 57.35v16.105c0 1.849-1.5 3.348-3.348 3.348h-2.644l2.25 4.023c.387.69-.374 1.455-1.067 1.071l-9.173-5.094h-16.67A3.349 3.349 0 0 1 181 73.455V57.35c0-1.85 1.5-3.35 3.348-3.35"/>
        <path fill="#00B38D" d="M193.667 32h-35.332C155.94 32 154 33.929 154 36.306v20.707c0 2.379 1.941 4.306 4.335 4.306h3.42l-2.912 5.171c-.5.89.486 1.871 1.382 1.378l11.87-6.549h21.572c2.393 0 4.333-1.927 4.333-4.306V36.306c0-2.377-1.94-4.306-4.333-4.306"/>
    </g>
</svg>
