<svg width="25" height="24" viewBox="0 0 25 24" fill="none" xmlns="http://www.w3.org/2000/svg">
<path d="M9.75893 13.4893H3.09716C2.68677 13.4893 2.35439 13.8202 2.35439 14.2291C2.35439 14.6373 2.68677 14.9688 3.09716 14.9688H8.01903L0 22.954L1.05037 24L9.06112 16.0222L9.03787 20.884C9.03787 21.2922 9.37025 21.6238 9.78064 21.6238C10.191 21.6238 10.5234 21.2929 10.5234 20.884V14.2283C10.5234 14.0092 10.4326 13.8321 10.2886 13.7105C10.1528 13.5755 9.96597 13.4893 9.75893 13.4893ZM20.9336 9.03112H16.0118L24.03 1.04589L22.9796 0L14.9696 7.97772L14.9929 3.11589C14.9929 2.70773 14.6605 2.3761 14.2501 2.3761C13.8397 2.3761 13.5073 2.70699 13.5073 3.11589V9.77165C13.5073 9.99075 13.5981 10.1678 13.7414 10.2886C13.8764 10.4252 14.0625 10.5114 14.2704 10.5114H20.9321C21.3425 10.5114 21.6749 10.1806 21.6749 9.77165C21.6756 9.36275 21.3432 9.03112 20.9336 9.03112Z" fill="#FC9916"/>
</svg>
