<svg xmlns="http://www.w3.org/2000/svg" width="26" height="26" viewBox="0 0 26 26">
    <g fill="none" fill-rule="evenodd">
        <path fill="#FFF" fill-rule="nonzero" stroke="#00B38E" d="M13 1C6.364 1 1 6.364 1 13s5.364 12 12 12 12-5.364 12-12S19.636 1 13 1z"/>
        <path fill="#00B38E" fill-rule="nonzero" d="M17.682 17.682a1.084 1.084 0 0 1-1.536 0L13 14.535l-3.146 3.147a1.084 1.084 0 0 1-1.536 0 1.084 1.084 0 0 1 0-1.536L11.465 13 8.318 9.854a1.084 1.084 0 0 1 0-1.536 1.084 1.084 0 0 1 1.536 0L13 11.465l3.146-3.147a1.084 1.084 0 0 1 1.536 0c.424.425.424 1.111 0 1.536L14.535 13l3.147 3.146c.413.414.413 1.11 0 1.536z"/>
    </g>
</svg>
