<svg xmlns="http://www.w3.org/2000/svg" width="452" height="400" viewBox="0 0 452 400">
    <defs>
        <linearGradient id="a" x1="50%" x2="50%" y1="100%" y2="0%">
            <stop offset="0%" stop-color="gray" stop-opacity=".25"/>
            <stop offset="54%" stop-color="gray" stop-opacity=".12"/>
            <stop offset="100%" stop-color="gray" stop-opacity=".1"/>
        </linearGradient>
        <linearGradient id="b" x1="50.01%" x2="50.01%" y1="99.997%" y2="-.002%">
            <stop offset="0%" stop-color="gray" stop-opacity=".25"/>
            <stop offset="54%" stop-color="gray" stop-opacity=".12"/>
            <stop offset="100%" stop-color="gray" stop-opacity=".1"/>
        </linearGradient>
    </defs>
    <g fill="none" fill-rule="evenodd">
        <path stroke="#535461" stroke-width=".7" d="M81.013 370.633s-27.99-21.375-33.278-48.564c-2.145-11.42-7.896-21.829-16.392-29.667a89.64 89.64 0 0 0-13.115-9.87"/>
        <path fill="#007C9D" fill-rule="nonzero" d="M14.418 264.418c2.623 3.458 3.81 18.114 3.81 18.114S4.2 277.148 1.572 273.695c-2.629-3.457-1.884-8.336 1.663-10.897 3.547-2.562 8.554-1.837 11.183 1.62zM37.17 274.868c.242 4.092-6.121 16.423-6.121 16.423s-7.793-11.4-8.04-15.493c-.195-4.06 2.764-7.528 6.64-7.783 3.875-.255 7.225 2.8 7.517 6.853h.005zM60.064 308.706C58.323 312.484 46.992 320 46.992 320s-1.21-14.405.53-18.183c1.784-3.697 5.952-5.154 9.372-3.276 3.42 1.879 4.83 6.4 3.17 10.165zM18.594 302.75c4.049.522 16.849-5.002 16.849-5.002s-10.8-8.554-14.87-9.076c-4.067-.523-7.808 2.205-8.354 6.093-.547 3.888 2.308 7.463 6.375 7.985zM34.077 335.075c4.055-.663 14.53-9.593 14.53-9.593s-13.004-5.073-17.054-4.41c-2.638.413-4.841 2.147-5.772 4.54-.93 2.394-.444 5.08 1.274 7.037 1.717 1.957 4.402 2.883 7.032 2.426h-.01zM51.947 364.557c4.08 0 15.901-7.093 15.901-7.093s-11.827-7.084-15.906-7.084c-4.079 0-7.385 3.173-7.385 7.088s3.306 7.089 7.385 7.089h.005z"/>
        <path stroke="#535461" stroke-width=".7" d="M353.418 188.354s17.443-30.18 43.736-38.875c11.04-3.582 20.595-10.563 27.23-19.898a87.547 87.547 0 0 0 8.021-14.138"/>
        <path fill="#007C9D" fill-rule="nonzero" d="M449.434 107.368c-3.011 2.972-17.029 6.05-17.029 6.05s3.441-14.175 6.453-17.152a7.5 7.5 0 0 1 10.644.26c2.884 3.029 2.854 7.852-.068 10.842zM441.45 134.562c-4.05.765-17.146-3.985-17.146-3.985s10.225-9.19 14.25-9.94c2.63-.558 5.37.289 7.161 2.212 1.791 1.923 2.353 4.622 1.467 7.054-.886 2.431-3.08 4.214-5.733 4.66zM412.484 158.564C408.67 157.281 400 146.84 400 146.84s13.445-2.993 17.27-1.71c2.5.807 4.361 2.86 4.87 5.374.51 2.514-.411 5.1-2.41 6.769-2 1.668-4.768 2.162-7.246 1.291zM386.242 174.087c-4.06-.639-14.596-9.515-14.596-9.515s12.987-5.156 17.042-4.517c4.064.637 6.817 4.293 6.149 8.167-.669 3.873-4.506 6.497-8.57 5.86l-.025.005zM413.165 116.866c-.005 4.048 7.09 15.792 7.09 15.792s7.084-11.73 7.084-15.772c.068-2.663-1.267-5.153-3.484-6.505a6.875 6.875 0 0 0-7.187 0c-2.217 1.352-3.551 3.842-3.484 6.505l-.02-.02zM381.007 136.92c1.181 3.888 11.452 12.953 11.452 12.953s3.417-13.47 2.226-17.357c-1.284-3.743-5.218-5.769-8.9-4.582-3.682 1.186-5.79 5.159-4.768 8.987h-.01zM355.531 158.407c.522 4.02 9.064 14.758 9.064 14.758s5.512-12.688 4.99-16.723c-.281-2.66-1.928-4.954-4.3-5.992-2.374-1.038-5.101-.656-7.127.996-2.025 1.653-3.03 4.317-2.627 6.961z"/>
        <path fill="#000" fill-rule="nonzero" d="M449.434 107.368c-3.011 2.972-17.029 6.05-17.029 6.05s3.441-14.175 6.453-17.152a7.5 7.5 0 0 1 10.644.26c2.884 3.029 2.854 7.852-.068 10.842zM441.45 134.562c-4.05.765-17.146-3.985-17.146-3.985s10.225-9.19 14.25-9.94c2.63-.558 5.37.289 7.161 2.212 1.791 1.923 2.353 4.622 1.467 7.054-.886 2.431-3.08 4.214-5.733 4.66zM412.484 158.564C408.67 157.281 400 146.84 400 146.84s13.445-2.993 17.27-1.71c2.5.807 4.361 2.86 4.87 5.374.51 2.514-.411 5.1-2.41 6.769-2 1.668-4.768 2.162-7.246 1.291zM386.242 174.087c-4.06-.639-14.596-9.515-14.596-9.515s12.987-5.156 17.042-4.517c4.064.637 6.817 4.293 6.149 8.167-.669 3.873-4.506 6.497-8.57 5.86l-.025.005zM413.165 116.866c-.005 4.048 7.09 15.792 7.09 15.792s7.084-11.73 7.084-15.772c.068-2.663-1.267-5.153-3.484-6.505a6.875 6.875 0 0 0-7.187 0c-2.217 1.352-3.551 3.842-3.484 6.505l-.02-.02zM381.007 136.92c1.181 3.888 11.452 12.953 11.452 12.953s3.417-13.47 2.226-17.357c-1.284-3.743-5.218-5.769-8.9-4.582-3.682 1.186-5.79 5.159-4.768 8.987h-.01zM355.531 158.407c.522 4.02 9.064 14.758 9.064 14.758s5.512-12.688 4.99-16.723c-.281-2.66-1.928-4.954-4.3-5.992-2.374-1.038-5.101-.656-7.127.996-2.025 1.653-3.03 4.317-2.627 6.961z" opacity=".25"/>
        <path stroke="#535461" stroke-width=".7" d="M354.43 186.33s3.391-34.973 23.583-53.57a53.289 53.289 0 0 0 16.465-29.367 89.382 89.382 0 0 0 1.471-16.304"/>
        <path fill="#007C9D" fill-rule="nonzero" d="M409.608 75.017c-1.452 3.808-12.309 12.072-12.309 12.072s-2.332-13.819-.866-17.627c1.47-3.807 5.61-5.647 9.248-4.109 3.638 1.538 5.396 5.872 3.927 9.68v-.016zM412.777 101.91c-3.449 2.565-17.84 3.406-17.84 3.406s5.607-14.053 9.055-16.617c2.227-1.763 5.183-2.105 7.718-.894 2.534 1.21 4.246 3.784 4.468 6.717.222 2.932-1.08 5.76-3.401 7.383v.005zM397.268 135.683c-4.074.329-16.509-5.794-16.509-5.794s11.194-8.016 15.268-8.345c4.074-.328 7.655 2.57 7.997 6.471.343 3.902-2.682 7.33-6.756 7.659v.01zM378.387 161.874c-3.862.97-16.868-3.044-16.868-3.044s9.38-9.762 13.243-10.752c3.86-.988 7.801 1.3 8.802 5.11 1.002 3.809-1.316 7.698-5.177 8.686zM379.543 97.437c1.589 3.815 12.698 11.841 12.698 11.841s1.889-14.126.3-17.941c-1.646-3.712-5.777-5.35-9.307-3.689-3.53 1.661-5.169 6.014-3.69 9.805v-.016zM360.415 128.681c2.734 3.036 16.294 7.015 16.294 7.015s-2.29-13.636-5.023-16.673c-1.755-2.007-4.483-2.937-7.138-2.432-2.655.504-4.826 2.364-5.681 4.868a7.187 7.187 0 0 0 1.548 7.222zM343.274 159.188c2.22 3.558 15.206 9.926 15.206 9.926s.11-14.288-2.094-17.851c-2.28-3.42-6.908-4.436-10.447-2.293-3.539 2.143-4.708 6.67-2.639 10.218h-.026z"/>
        <path fill="url(#a)" fill-rule="nonzero" d="M328.101 49.62c.997-3.355 2.198-6.727 3.038-10.126-1.008 3.4-2.215 6.782-3.038 10.126z"/>
        <path fill="url(#b)" fill-rule="nonzero" d="M324.275 78.732c-.072-.123-.123-.246-.18-.358 0-.051-.05-.092-.071-.143a3.22 3.22 0 0 1-.344.138 7.88 7.88 0 0 1-.693.235c-.236.066-.334.102-.513.143-.15.051-.302.09-.457.118l.041.092c.19-.041.375-.077.565-.128l.051.633c.216 0 .416-.03.61-.03a2.53 2.53 0 0 1 .278 0h1.026c-.107-.23-.22-.47-.313-.7zM428.46 243.87c-2.412-3.235-7.226-37.957-7.226-37.957s-9.469-24.689-6.887-34.542c2.581-9.854-7.052-35.064-7.052-35.064s-6.364-2.755-6.708-6.843c0 0-25.985-8.177-27.201-14.31-.985-5.029-17.1-8.637-22.89-9.777-1.765-7.093-3.541-13.711-4.85-17.325a41.103 41.103 0 0 0-.996-2.862c-2.212-5.621-9.048-6.132-14.006-5.683a7.588 7.588 0 0 0-1.175-2.672 1.466 1.466 0 0 0-.467-.71 2.725 2.725 0 0 0-.339-.246 1.616 1.616 0 0 0-.349-.44 2.469 2.469 0 0 0-.462-.327 3.086 3.086 0 0 0-.369-.168 4.949 4.949 0 0 0-.919-.25 7.595 7.595 0 0 0-1.108-.144 6.748 6.748 0 0 0 2.366-1.722c.444-.52.774-1.125.97-1.779.162-.543.235-1.11.215-1.676a4.334 4.334 0 0 1-.462.66c.216-2.265-.985-4.564-1.673-6.818a20.09 20.09 0 0 1-.451-9.02c.687-4.528 2.391-9.108 3.546-13.717a.336.336 0 0 0 0-.077c.606-2.29.98-4.633 1.119-6.996.2-4.769-1.027-9.527-2.997-13.87-1.75-3.849-4.332-7.636-8.284-9.2-2.936-1.18-6.225-.991-9.387-1.185-7.093-.44-13.857-2.924-20.6-5.182-6.745-2.26-13.683-4.314-20.781-3.92-7.098.393-14.402 3.802-17.64 10.057-1.026 1.953-1.617 4.125-2.843 5.96-2.3 3.46-6.416 5.192-9.85 7.578-3.433 2.387-6.456 5.775-7.698 9.818a13.045 13.045 0 0 0-.277 6.72c.112.503.256.998.431 1.482a10.495 10.495 0 0 0 2.233 3.634 10.88 10.88 0 0 0 2.535 1.957 14.957 14.957 0 0 0 3.747 1.452c-.046.153-.093.317-.144.475-.082.26-.154.511-.23.792-.17.629-.33 1.268-.463 1.912a.595.595 0 0 0 0 .138 41.569 41.569 0 0 0-.729 13.057c2.053 20.74 19.247 37.098 40.489 38.161.729.036 1.463.056 2.207.056h1.026c.334.44.662.89.975 1.33.314.439.601.888.873 1.328l-.744-.767-.744-.68a6.033 6.033 0 0 1-.673.772c-.485-.17-.98-.31-1.483-.419-2.13-.47-5.373-.644-9.643.639-3.927 1.17-8.725 3.577-14.34 8.151l-27.36 16.354-14.802 8.964-5.332 12.981s-4.008 15.424-8.468 33.097a8.563 8.563 0 0 0-.514.163 9.638 9.638 0 0 0-1.088-.061c-5.377-.013-9.803 4.211-10.018 9.562-8.868 10.732-9.371 21.464-7.288 26.391.189.462.426.902.709 1.313 1.365 1.963 3.915 7.022 6.502 12.414-.067.445-.108.818-.128 1.099a2.718 2.718 0 0 0 0 .276s1.54 23.156-3.593 29.795c-1.124 1.446-.954 3.347 0 5.453 3.439 7.574 17.034 17.688 17.034 17.688s16.306-.087 25.39-1.074c-.026.91-.047 1.815-.067 2.699-.205 8.933-.205 16.42-.205 16.42l-.34 9.368s-3.078 19.742-4.618 25.185c-.97 3.414.149 35.023 1.124 58.261h160.65c1.889-13.748-.775-55.517-.775-55.517s-2.53-10.798-2.622-20.212a.076.076 0 0 1 0-.066c0-.823 0-1.626.03-2.413l1.166-.04 2.094-.072h.19s.05-.194.169-.511a9.75 9.75 0 0 1 1.124-2.234c.893-1.313 2.289-2.6 4.388-2.688 1.16-.046 2.956-.98 4.983-2.36a.093.093 0 0 0 .041 0c5.456-3.675 12.667-10.457 14.417-11.571 2.407-1.533 13.934-11.755 13.934-11.755s1.72-2.167 3.552-4.778l.066-.092c2.279-3.27 4.701-7.18 4.106-8.412-1.026-2.208.688-7.487.688-7.487 5.353-9.756-.318-22.686-2.73-25.921zM329.218 86.679c.049.152.08.31.092.47-.128-.169-.257-.348-.385-.511l-.123-.164-.087-.122.195-.266v.036c.135.165.24.354.308.557zm-1.725-4.528c-.56.112-1 .214-1.288.291a32.079 32.079 0 0 1-1.026-1.942 14.883 14.883 0 0 1 2.314 1.65zm-.965.807a.107.107 0 0 1 0-.03l.041.03c.21.138.416.271.606.409.17.123.323.24.477.363a4.881 4.881 0 0 1-.328.51c-.18-.28-.35-.551-.513-.832a1.84 1.84 0 0 1-.283-.45zm-3.079-6.306a15.25 15.25 0 0 1 2.982 0c.138 0 .262.025.385.046.278.042.551.113.816.21.606.844.98 1.833 1.083 2.866l-.277.041-.272.051c-.514.087-1.027.174-1.427.256l-.513.107c-.683.148-1.078.26-1.094.266a9.709 9.709 0 0 0-.205-.399c-.113-.22-.23-.444-.334-.664-.102-.22-.236-.47-.343-.7-.072-.123-.124-.246-.18-.358 0-.051-.051-.092-.072-.143a1.23 1.23 0 0 1-.077-.169c-.313-.634-.6-1.267-.877-1.89-.031-.062-.057-.129-.083-.19l.39-.025v.132l.098.563zM200.998 393.683c-.041-7.61-.595-15.843-2.135-23.57a804.26 804.26 0 0 0-2.535-12.204l-1.581.21h-.144c-4.31-20.244-8.817-38.08-8.817-38.08s-8.95-34.031-7.914-36.745c.133-.353-.036-1.303-.416-2.698-2.166-7.738-11.209-29.06-14.37-36.347 0-.03-.026-.066-.036-.092a74.177 74.177 0 0 0-.996-2.284l.744-10.876.042-.654.097-1.39-.041-.036.041-.644s-7.811-6.378-21.042-10.982a52.904 52.904 0 0 0-1.596-.537c.662-4.4 1.54-9.368 2.684-14.208.108-.485.226-.955.349-1.43.108-.476.23-.936.354-1.4.195-.757.405-1.503.62-2.24a36.726 36.726 0 0 0 2.11-.74l.267-.103c17.652-6.839 27.516-25.61 23.095-43.95a37.438 37.438 0 0 0-6.61-13.876 27.465 27.465 0 0 0-1.576-1.922c1.484-3.357 3.234-6.552 3.377-9.817a10.03 10.03 0 0 0 0-1.242v-.051c-.19-2.1-1.124-4.227-3.3-6.46-3.177-3.276-7.698-4.937-12.22-5.734-4.521-.797-9.13-.818-13.677-1.354-7.54-.9-14.884-3.215-22.423-3.925a53.478 53.478 0 0 0-27.114 4.6c-5.61 2.555-11.29 7.021-11.63 13.149-.277 5.064 3.265 9.92 2.372 14.923-.888 4.916-5.918 8.785-5.477 13.758.17 1.942 1.17 3.68 2.423 5.228.431.51.888 1.022 1.36 1.533 1.827 1.927 3.839 3.777 4.86 6.204.041.102.082.205.118.307.868 2.397.478 5.427-1.668 6.802.012.01.021.022.026.036.03.04.061.071.087.112a.036.036 0 0 0 0-.025 5.618 5.618 0 0 0 2.93 1.82l.437.132c-.354.383-.688.782-1.027 1.2l-.22.292a21.26 21.26 0 0 0-1.54 2.377c-.262.46-.513.92-.724 1.38a17.285 17.285 0 0 0-1.514 4.43c-.549 3.384.226 6.91-.605 10.222-1.027 4.088-4.275 7.226-6.108 11.023-3.469 7.155-1.503 15.552-.805 23.453.95 10.732-.59 21.51-2.125 32.171-.814 5.67-1.629 11.344-2.443 17.024l-6.159 42.765c-.75 5.223-1.637 10.732-5.132 14.765h.036s0 .03-.036.04c1.05.457 2.165.744 3.305.849 4.563.455 9.397-1.743 13.503-4.145a63.818 63.818 0 0 0 9.202-6.434c-.42 1.533-.872 3.204-1.355 5.003a.275.275 0 0 1 0 .051c-5.794 21.976-15.114 62.263-15.114 62.263s-.847 1.753-1.945 4.364h144.73a252.382 252.382 0 0 1-4.501-5.58l-.498-.71zM93.836 190.485c.036-.06.062-.117.098-.173v1.109c0 .071 0 0 0 0 0 .21-.047.419-.083.628v.046l.514.19.595.245a154.43 154.43 0 0 0 10.685 3.756c.37.117.745.23 1.12.337l.076.634c.093.649.18 1.308.262 1.968v.05c.231 1.825.457 3.644.657 5.423 0 0-9.423-3.577-9.305 1.855a2.631 2.631 0 0 0 0 .291c-.01.13-.01.26 0 .389.087 4.231 1.417 6.74 1.684 8.029a.362.362 0 0 1-.083.143 2.785 2.785 0 0 0-.225 1.579c-.01.914.063 1.827.215 2.729-.277.169-.549.337-.821.511-.205.128-.4.27-.6.414a75.7 75.7 0 0 0-4.922-12.633c-1.412-2.893-2.998-5.908-2.982-9.082 0-.204 0-.414.025-.623.058-.92.234-1.829.524-2.704.118-.332.246-.66.39-.981.335-.765.71-1.512 1.124-2.239.267-.48.55-.955.821-1.436.087-.143.17-.291.252-.434l-.02-.02zm230.44-111.753c-.073-.123-.124-.246-.18-.358 0-.051-.052-.092-.072-.143a3.22 3.22 0 0 1-.344.138 7.88 7.88 0 0 1-.693.235c-.236.066-.334.102-.513.143l-.457.118.041.092c.19-.041.375-.077.565-.128l.051.633c.216 0 .416-.03.61-.03h1.304c-.107-.23-.22-.47-.313-.7z"/>
        <path fill="#E8F5FF" fill-rule="nonzero" d="M214.74 152.601l-3.105 1.359s-20.243 77.905-20.243 84.202c0 6.296 42.923 41.332 42.923 41.332l6.698-44.783s-9.617-102.696-26.273-82.11z"/>
        <path fill="#FFC1C7" fill-rule="nonzero" d="M306.318 129.62l-17.87-9.233a35.27 35.27 0 0 0-5.24-11.822c-2.615-3.738-6.092-7.41-10.424-9.324-10.95-4.862 46.315-30.38 46.315-30.38a91.636 91.636 0 0 0 3.182 9.039c2.95 7.21 7.845 16.535 14.153 19.19 10.722 4.52-30.116 32.53-30.116 32.53z"/>
        <path fill="#000" fill-rule="nonzero" d="M322.025 78.082c-5.092 17.825-21.056 30.42-39.655 31.285-2.653-3.813-6.181-7.56-10.578-9.513-11.112-4.96 47.004-30.993 47.004-30.993a93.814 93.814 0 0 0 3.23 9.221z" opacity=".1"/>
        <path fill="#FFC1C7" fill-rule="nonzero" d="M323.038 65.306c.004 17.408-10.233 33.104-25.937 39.769-15.704 6.664-33.781 2.984-45.802-9.325-12.02-12.31-15.617-30.822-9.111-46.905 6.506-16.083 21.831-26.568 38.83-26.567 11.16-.052 21.876 4.464 29.768 12.545 7.89 8.08 12.302 19.055 12.252 30.483z"/>
        <path fill="#575A89" fill-rule="nonzero" d="M330.127 124.173l-11.539 27.012-10.177 17.929h-32.58L266.33 144.6l3.851-25.42h24.882l16.064-.909 5.427-1.816 3.498 1.99z"/>
        <path fill="#000" fill-rule="nonzero" d="M325.237 89.132s7.352 1.483.768 6.587c-6.583 5.104-29.296 21.336-29.296 21.336s7.978 6.72 6.327 14.59l26.433-13.933 4.703-22.294s.528-6.7-8.935-6.286z" opacity=".1"/>
        <path fill="#000" fill-rule="nonzero" d="M303.03 117.468l-16.388 2.72s3.382 12.57 1.691 16.14c-.051.11-.094.225-.127.342l-6.687 18.173 5.011 14.27 17.346-23.784-5.913-9.002s6.25-8.326 9.967-11.214c3.717-2.888-4.9-7.645-4.9-7.645z" opacity=".1"/>
        <path fill="#DCE6F2" fill-rule="nonzero" d="M303.03 117.468l-16.388 2.714s3.382 12.573 1.691 16.142c-.051.11-.094.226-.127.343l-6.687 18.175 5.011 14.272 17.346-23.803-5.913-9.002s6.25-8.327 9.967-11.215c3.717-2.889-4.9-7.626-4.9-7.626z"/>
        <path fill="#575A89" fill-rule="nonzero" d="M325.41 87.107s7.218 1.483.75 6.587c-6.47 5.105-29.451 22.648-29.451 22.648s8.51 5.411 6.894 13.278l25.952-13.93 4.617-22.297s.513-6.701-8.762-6.286z"/>
        <path fill="#000" fill-rule="nonzero" d="M283.191 110.38s1.562 2.844 8.455 7.973c0 0-11.476 5.946-7.086 14.305l-17.555-4.46-2.701-8.22 18.887-9.598z" opacity=".1"/>
        <path fill="#575A89" fill-rule="nonzero" d="M283.19 109.367s1.562 2.845 8.456 7.975c0 0-11.478 5.918-7.088 14.304l-17.553-4.461-2.701-8.218 18.886-9.6z"/>
        <path fill="#000" fill-rule="nonzero" d="M330.127 123.306l-11.539 27.533-10.157 18.275h-32.6l-9.502-24.986 3.846-25.912h6.92c-.113 6.047 2.046 13.15 1.908 15.791-.236 4.341 6.331 27.763 6.331 27.763s13.743-22.731 19.17-24.755c3.41-1.271 10.637-11.847 15.542-19.547l10.08 5.838z" opacity=".1"/>
        <path fill="#E8F5FF" fill-rule="nonzero" d="M375.422 265.469l-1.176 1.47s8.523 42.486 6.165 52.134c-.401 1.74-.63 3.513-.684 5.296v.077c-.416 9.817 2.57 22.557 2.57 22.557s2.383 37.552 1.027 52.997H223.738c-.935-22.838-1.942-52.426-1.027-55.706 1.541-5.414 4.624-25.052 4.624-25.052l.339-9.307s0-8.995.277-19.016c.119-4.505.293-9.235.545-13.43.324-5.275.776-9.719 1.397-11.903.383-1.655.604-3.343.658-5.04 0-.159 0-.322.03-.486 0-.51.052-1.06.073-1.627v-.51c.097-3.286.061-7.184-.046-11.225v-.669c-.088-3.03-.216-6.122-.36-9.061a732.5 732.5 0 0 0-1.028-16.95l-19.6-64.493 5.282-12.918 14.657-8.92 27.101-16.25c13.22-10.791 21.923-9.495 25.242-8.311.322.109.638.237.945.382.103.051.185.092.262.138.106.05.207.108.303.173a6.248 6.248 0 0 0-2.302 1.883 8.3 8.3 0 0 0-1.423 3.062 14.156 14.156 0 0 0-.364 2.086c-.067.74-.093 1.506-.093 2.276.037 1.69.183 3.375.437 5.046v.112c.17 1.194.38 2.363.586 3.46a.228.228 0 0 0 0 .056c.236 1.28.472 2.464.631 3.485.031.183.057.352.083.51.113.674.166 1.357.159 2.04.058 1.651.281 3.292.668 4.899.133.673.288 1.393.457 2.143.231 1.02.483 2.133.755 3.265.15.623.309 1.266.473 1.903.062.256.128.51.19.77l.103.404a477.317 477.317 0 0 0 3.01 11.225c.432 1.53.704 2.475.704 2.475s7.738-12.424 13.913-19.496c.093-.102.175-.2.262-.291a33.162 33.162 0 0 1 1.788-1.898c1.259-1.245 2.389-2.133 3.298-2.46.194-.07.382-.157.56-.26 2.528-1.423 6.607-6.592 10.425-12.005.375-.51.74-1.067 1.11-1.592.847-1.214 1.669-2.434 2.445-3.602.596-.893 1.166-1.76 1.706-2.587a352.456 352.456 0 0 0 4.377-6.929l3.565-.158.622-.03h.416l16.189-.746s.699.118 1.85.347c.061 0 .123 0 .19.041 5.743 1.133 21.7 4.72 22.677 9.694 1.192 6.092 26.931 14.22 26.931 14.22.34 4.082 6.643 6.771 6.643 6.771s9.546 25.052 6.993 34.869c-2.523 9.694 6.566 33.675 6.807 34.348l-1.741 2.184-43.09 54.13z"/>
        <path fill="#000" fill-rule="nonzero" d="M325.471 86.157s15.786-4.503 19.373 4.767c3.588 9.27 11.612 46.71 11.612 46.71s-20.835 3.95-26.296 0a15.668 15.668 0 0 0-11.102-2.919l-11.781 8.07-3.48-1.035s18.849-28.18 22.945-37.756c4.097-9.576 5.482-13.857-1.27-17.837z" opacity=".1"/>
        <path fill="#E8F5FF" fill-rule="nonzero" d="M325.448 84.132s15.795-4.504 19.397 4.767c3.603 9.27 11.61 46.71 11.61 46.71s-20.827 3.95-26.292 0a15.65 15.65 0 0 0-11.096-2.92l-11.79 8.07-3.48-1.035s18.847-28.18 22.943-37.755c4.097-9.576 5.46-13.847-1.292-17.837z"/>
        <path fill="#000" fill-rule="nonzero" d="M218.914 230.886s11.53 2.87 13.705 9.452c2.176 6.583-8.522 6.75-8.522 6.75s-6.517-11.644-5.183-16.202zM262.278 279.494s-27.717 57.954-21.32 63.482c6.399 5.528 21.32-63.482 21.32-63.482zM301.772 236.962s23.885 57.957 19.107 66.908c-4.778 8.95 10.26 0 10.26 0l-29.367-66.908z" opacity=".1"/>
        <path fill="#FFC1C7" fill-rule="nonzero" d="M335.106 292.658s-78.337 3.702-55.485 27.593c22.852 23.892 69.746 1.015 69.746 1.015l-14.26-28.608z"/>
        <path fill="#000" fill-rule="nonzero" d="M323.038 65.38a43.7 43.7 0 0 1-3.2 16.479 29.71 29.71 0 0 1-2.103.166c-1.021-2.288-.475-4.93-.454-7.447.02-2.517-.889-5.478-3.262-6.155-4.731-1.36-7.998 7.671-12.663 6.04-3.573-1.24-2.639-6.775-4.696-9.97-1.628-2.527-4.89-3.241-7.426-4.826-5.395-3.382-5.232-8.792-7.738-13.91-2.623-5.363-8.166-3.778-12.98-.615-3.654 2.408-6.808 5.634-10.718 7.552-3.384 1.668-7.187 2.272-10.938 2.36a23.56 23.56 0 0 1-6.86-.74c5.45-20.92 25.248-34.471 46.271-31.67 21.023 2.802 36.753 21.087 36.762 42.735h.005z" opacity=".1"/>
        <path fill="#99607E" fill-rule="nonzero" d="M268.567 43.661c-3.7 2.371-6.885 5.543-10.838 7.442-3.422 1.637-7.267 2.232-11.06 2.32-4.646.102-9.647-.709-12.821-4.045-2.917-3.079-3.613-7.816-2.38-11.854 1.234-4.039 4.191-7.39 7.665-9.818 3.473-2.427 7.504-4.105 9.806-7.58 1.218-1.836 1.806-4.002 2.818-5.957 3.236-6.256 10.514-9.643 17.548-10.064 7.035-.42 14.008 1.663 20.707 3.92 6.7 2.259 13.45 4.743 20.522 5.21 3.148.195 6.42 0 9.341 1.185 3.928 1.586 6.504 5.378 8.258 9.237 1.967 4.352 3.19 9.104 2.984 13.856-.434 10.146-7.175 20.102-4.212 29.822.785 2.591 2.255 5.25 1.471 7.841-1.146 3.782-6.054 4.644-10.023 4.824-1.032-2.253-.48-4.86-.46-7.333.021-2.474-.898-5.394-3.292-6.061-4.79-1.33-8.093 7.549-12.8 5.948-3.587-1.227-2.658-6.672-4.744-9.818-1.646-2.494-4.95-3.192-7.51-4.752-5.455-3.33-5.29-8.657-7.824-13.697-2.673-5.306-8.283-3.746-13.156-.626z"/>
        <path fill="#E8F5FF" fill-rule="nonzero" d="M193.568 237.248l-3.9 1.342s1.534 22.76-3.578 29.288c-5.112 6.527 16.787 22.755 16.787 22.755s30.016-.167 30.864-2.522c.849-2.356-1.533-42.171-1.533-42.171s-16.112-6.195-14.758-16.067c0 0-4.917 23.26-12.206 22.256-7.29-1.004-15.566-7.011-11.676-14.88z"/>
        <ellipse cx="208.101" cy="250.633" fill="#000" fill-rule="nonzero" opacity=".1" rx="10.633" ry="9.62"/>
        <path fill="#FFC1C7" fill-rule="nonzero" d="M220.76 238.02s-2.12-62.599-20.576-48.651c-18.455 13.947-18.635 30.627-15.121 35.555 3.514 4.928 14.782 29.597 14.782 29.597a13.28 13.28 0 0 0 11.703.606c3.777-1.623 6.52-4.9 7.378-8.81l1.833-8.297z"/>
        <path fill="#000" fill-rule="nonzero" d="M328.865 80.61a1.496 1.496 0 0 0-.46-.702c-.88-.8-2.774-1.08-5.63-.835l.118 1.344c3.807-.326 4.56.427 4.657.555v.127l.118.168a5.658 5.658 0 0 1 1.023 4.48c-.834 4.149-5.957 7.453-6.008 7.488l-.123.072-.076.117c-2.211 3.263-14.713 12.472-17.983 14.854l-.286-.325c-1.464 1.262-14.329 12.467-15.025 16.758-.45 2.693-3.5 3.737-4.605 4.027-1.167-.88-4.954-3.879-6.924-7.239-1.848-3.161 5.588-9.331 6.243-11.74l-1.024-1.043c-.107.387-9.656 9.265-7 13.801 2.129 3.64 6.018 6.756 7.38 7.784-.436 3.93-3.143 27.006-7.303 32.474-5.169 6.796-9.513 41.047-9.032 53.005.424 10.624-2.365 30.692-11.678 39.31a14.976 14.976 0 0 1-12.318 4.073h-.225c-.133 0-13.643 1.375-24.993-8.145-9.288-7.774-14.549-20.46-15.644-37.717h-.225l-.092-5.025c5.234-.813 8.884-5.597 8.264-10.83-.62-5.234-5.29-9.042-10.57-8.62-5.28.42-9.28 4.92-9.055 10.184.225 5.265 4.595 9.41 9.892 9.383h.113l.092 4.994-.45.03c1.125 17.818 6.652 30.998 16.375 39.138a37.998 37.998 0 0 0 26.41 8.599c.68.074 1.364.112 2.048.112a16.833 16.833 0 0 0 11.77-4.71c9.81-9.086 12.793-29.892 12.327-40.878-.511-12.67 4.048-45.69 8.623-51.702 4.483-5.9 7.2-28.89 7.676-33.344 1.622-.453 5.291-1.884 5.916-5.6.45-2.688 9.042-10.97 14.328-15.557l-.158-.184c2.845-2.066 11.693-8.583 16.079-12.767 1.36-1.298 2.712-2.596 4.124-3.833 1.7-1.497 3.859-3.874 4.427-6.685a6.92 6.92 0 0 0-1.116-5.396z" opacity=".1"/>
        <path fill="#353146" fill-rule="nonzero" d="M283.28 130.633c-.229-.15-5.643-3.836-8.356-8.27-2.816-4.606 7.328-13.616 7.437-14.009l1.087 1.06c-.69 2.44-8.59 8.71-6.627 11.915 2.474 4.047 7.682 7.588 7.736 7.624l-1.278 1.68z"/>
        <path fill="#E8F5FF" fill-rule="nonzero" d="M302.598 109.367l-.826-1.074c.17-.115 16.788-11.466 19.407-15.138l.084-.11.122-.075c.053-.035 5.349-3.272 6.211-7.349a5.303 5.303 0 0 0-1.058-4.391l-.121-.17v-.12c-.106-.13-.884-.865-4.82-.545l-.122-1.324c2.958-.24 4.91.035 5.82.82.226.184.393.424.481.694 1.157 1.535 1.59 3.454 1.196 5.3-.587 2.764-2.815 5.097-4.576 6.56-1.455 1.215-2.858 2.499-4.26 3.763-5.317 4.81-16.957 12.764-17.538 13.16zM200.419 206.696l1.357-.025.15 8.228-1.356.025z"/>
        <circle cx="201.013" cy="198.987" r="9.62" fill="#007C9D" fill-rule="nonzero"/>
        <circle cx="200.506" cy="199.494" r="8.101" fill="#E8F5FF" fill-rule="nonzero"/>
        <path fill="#353146" fill-rule="nonzero" d="M244.684 261.266c-.69 0-1.378-.035-2.063-.108A38.46 38.46 0 0 1 216 252.527c-9.8-8.177-15.361-21.393-16.506-39.295l2.063-.128c1.104 17.325 6.406 30.065 15.773 37.864 11.441 9.53 25.053 8.177 25.187 8.177h.227a15.165 15.165 0 0 0 12.421-4.089c9.383-8.652 12.194-28.798 11.766-39.463-.516-12.015 3.863-46.399 9.078-53.216 4.565-5.974 7.397-32.902 7.428-33.172l.077-.767.763-.133c.047 0 4.503-.838 5.06-4.14.723-4.302 13.67-15.55 15.14-16.823l1.346 1.533c-5.35 4.6-14.01 12.92-14.443 15.623-.63 3.74-4.328 5.172-5.958 5.621-.515 4.477-3.234 27.551-7.737 33.474-4.611 6.036-9.207 39.183-8.691 51.903.444 11.028-2.533 31.92-12.42 41.037a17.01 17.01 0 0 1-11.89 4.733z"/>
        <g fill="#000" fill-rule="nonzero" opacity=".1">
            <path d="M328.07 53.215c.847-3.032 1.87-6.084 2.583-9.157-.852 3.088-1.88 6.125-2.583 9.157zM319.424 77.043c-1.033-2.197-.48-4.739-.46-7.15.02-2.412-.899-5.234-3.297-5.91-4.795-1.296-8.103 7.366-12.816 5.8-3.617-1.196-2.661-6.505-4.749-9.573-1.648-2.432-4.95-3.112-7.514-4.633-5.467-3.248-5.302-8.441-7.834-13.355-2.661-5.154-8.268-3.633-13.146-.59-3.706 2.311-6.894 5.408-10.853 7.255-3.426 1.596-7.276 2.176-11.074 2.262-4.625.105-9.658-.691-12.836-3.943-2.45-2.502-3.334-6.17-2.827-9.608-.088.236-.166.47-.243.706-1.24 3.938-.517 8.566 2.382 11.559 3.178 3.252 8.212 4.043 12.837 3.943 3.803-.086 7.648-.666 11.08-2.262 3.968-1.852 7.157-4.944 10.851-7.256 4.879-3.042 10.49-4.563 13.147.59 2.532 4.915 2.372 10.108 7.834 13.356 2.584 1.5 5.866 2.201 7.52 4.633 2.066 3.078 1.152 8.376 4.748 9.572 4.708 1.562 8.015-7.095 12.811-5.799 2.398.65 3.323 3.503 3.297 5.91-.026 2.406-.563 4.953.46 7.15 3.974-.175 8.888-1.001 10.04-4.704A5.228 5.228 0 0 0 329 73.36c-1.68 2.807-6 3.528-9.576 3.683z"/>
        </g>
        <path fill="#000" fill-rule="nonzero" d="M412.42 203.424l5.937 6.279s4.751 34.602 7.124 37.838c2.373 3.237 7.979 16.112 2.716 25.781 0 0-1.698 5.262-.68 7.466 1.018 2.204-7.63 13.233-7.63 13.233s-11.37 10.175-13.748 11.704c-2.378 1.53-14.928 13.74-19.168 13.908-4.24.17-5.625 5.43-5.625 5.43l-23.925.85s-13.215-.69-16.09 1.176c0 0 1.535-20.188-13.23-33.42l18.83-6.786s7.13-3.068 9.334-6.274a11.522 11.522 0 0 1 5.626-4.239s5.257-3.733 5.426-5.768c.169-2.035 6.429-4.53 6.429-4.53l-3.544-30.245 1.866-50.213s5.938-42.072 18.493-39.694c12.556 2.378 21.859 57.504 21.859 57.504z" opacity=".1"/>
        <path fill="#E8F5FF" fill-rule="nonzero" d="M414.445 203.424l5.938 6.279s4.75 34.602 7.124 37.838c2.373 3.237 7.978 16.112 2.715 25.781 0 0-1.692 5.262-.675 7.466 1.018 2.204-7.635 13.233-7.635 13.233s-11.37 10.175-13.747 11.704c-2.378 1.53-14.929 13.74-19.168 13.908-4.24.17-5.626 5.43-5.626 5.43l-23.925.85s-13.225-.69-16.089 1.176c0 0 1.534-20.188-13.23-33.42l18.83-6.786s7.13-3.068 9.334-6.274a11.522 11.522 0 0 1 5.625-4.239s5.258-3.733 5.427-5.768c.168-2.035 6.428-4.53 6.428-4.53l-3.544-30.245 1.867-50.213s5.937-42.072 18.493-39.694c12.555 2.378 21.858 57.504 21.858 57.504z"/>
        <path fill="#000" fill-rule="nonzero" d="M391.899 251.547s17.236-3.687 21.755.82c4.52 4.506-21.755-.82-21.755-.82zM387.848 260.253c5.7 3.893 23.291 4.05 23.291 4.05l-23.29-4.05zM397.975 280.506c.534.173 13.166 13.367 18.469 9.375 5.303-3.992-18.47-9.375-18.47-9.375zM232.911 173.165s3.911 24.452 1.984 34.41c-1.927 9.96 5.105 22.298 5.105 22.298l-7.089-56.708z" opacity=".1"/>
        <path fill="#FFCCD0" fill-rule="nonzero" d="M156.584 182.75c-4.067 3.117-7.035 10.494-9.185 18.603-3.752 14.144-4.977 30.546-4.977 30.546s-32.38-7.259-30.021-10.555c1.484-2.073-.509-17.694-2.17-29.02-.992-6.691-1.877-11.886-1.877-11.886s59.362-6.27 48.23 2.311z"/>
        <path fill="#000" fill-rule="nonzero" d="M156.584 183.045c-4.067 3.328-7.035 11.187-9.185 19.83-13.144 4.161-27.417.468-37.169-9.618-.991-7.138-1.876-12.676-1.876-12.676s59.362-6.677 48.23 2.464z" opacity=".1"/>
        <path fill="#FFCCD0" fill-rule="nonzero" d="M174.177 163.53c.007 18.507-13.33 34.324-31.573 37.442-18.243 3.12-36.078-7.369-42.22-24.828-6.141-17.458 1.199-36.802 17.377-45.792 16.178-8.99 36.48-5.006 48.062 9.43a37.95 37.95 0 0 1 8.354 23.747z"/>
        <path fill="#FF748E" fill-rule="nonzero" d="M201.494 400H66.835c.583-1.332.972-2.14.972-2.14s10.773-47.422 16.25-67.485a.264.264 0 0 0 0-.051 80.616 80.616 0 0 1 2.474-8.051 2.77 2.77 0 0 1 .24-.515c2.71-4.434 6.106-9.214 1.355-16.04-4.75-6.827-3.067-36.865-3.067-36.865s5.767-25.604 11.872-39.258a18.37 18.37 0 0 1 3.876-5.659 15.876 15.876 0 0 1 1.697-1.45c.456-.345.93-.662 1.422-.952l.097-.062a20.424 20.424 0 0 1 8.35-2.608c2.086-.22 4.192-.16 6.263.175 9.9 1.461 17.825 3.905 24.124 6.688 17.073 7.547 22.242 17.66 22.344 17.872l.041.087c.685 1.61 10.707 25.151 14.317 36.135.936 2.86 1.447 4.871 1.242 5.422-1.022 2.726 7.803 36.86 7.803 36.86s4.09 16.462 8.181 35.759c.179.802.348 1.605.511 2.418a927.781 927.781 0 0 1 2.158 10.638 125.8 125.8 0 0 1 2.091 22.276c.075 2.329.09 4.597.046 6.806z"/>
        <path fill="#000" fill-rule="nonzero" d="M110.463 205.727s-9.309-3.62-9.196 1.872c.113 5.492 2.27 8.12 1.588 8.92-.681.802.338 5.606.338 5.606s12.577 0 18.356 2.627c5.778 2.627 27.08 7.892 29.8 9.495 2.72 1.603 12.808 8.791 12.808 8.791l.906-13.61s-10.425-8.694-27.53-13.151c-17.106-4.458-27.07-10.55-27.07-10.55z" opacity=".1"/>
        <path fill="#FF748E" fill-rule="nonzero" d="M110.461 205.727s-9.307-3.62-9.194 1.872c.113 5.492 2.269 8.12 1.588 8.92-.682.802.338 5.606.338 5.606s12.575 0 18.352 2.633c5.778 2.632 27.076 7.891 29.796 9.489 2.72 1.598 12.805 8.791 12.805 8.791l.917-13.57s-10.423-8.692-27.526-13.15c-17.103-4.457-27.076-10.59-27.076-10.59z"/>
        <path fill="#000" fill-rule="nonzero" d="M138.734 238.987s19.17 20.099 18.192 25.665c-.977 5.566-18.192-25.665-18.192-25.665z" opacity=".1"/>
        <path d="M153.895 349.367s-6.492 12.949-2.979 12.113c3.513-.835 2.979-12.113 2.979-12.113z"/>
        <path fill="#000" fill-rule="nonzero" d="M109.114 308.86s-13.009 11.732-16.842 12.398c-3.834.665 2.939 2.877 7.345 1.11 4.406-1.766 13.8-6.413 13.8-6.413l-4.303-7.094z" opacity=".1"/>
        <path fill="#FFCCD0" fill-rule="nonzero" d="M207.595 400H177.25c-4.244-3.736-8.258-7.197-10.814-9.277-4.09-3.331-7.04-8.234-8.922-12.178a51.372 51.372 0 0 1-1.105-2.5 42.105 42.105 0 0 1-1.472-4.022l22.471-13.542a35.378 35.378 0 0 1 3.492 3.466l.271.316c1.248 1.495 2.347 3.191 2.444 4.582.113 1.619 4.55 7.881 9.086 13.895 4.602 6.117 9.316 11.965 9.628 12.36 0 0 .777 1.073 2.045 2.723.895 1.194 1.999 2.626 3.22 4.177z"/>
        <path fill="#000" fill-rule="nonzero" d="M166.076 141.585c-1.092 2.418-2.07 4.928-2.215 7.62-.408 7.773.254 25.152-8.512 29.054-4.34 1.92-8.987-2.296-13.748-2.398-3.425-.071-6.566 2.062-8.657 4.73-2.09 2.667-3.389 5.832-4.905 8.85a60.223 60.223 0 0 1-4.755 7.873 19.875 19.875 0 0 1-1.76 2.18c-14.642-6.066-23.914-20.416-23.264-36.006.65-15.59 11.084-29.149 26.182-34.02 15.098-4.872 31.69-.035 41.634 12.138v-.02z" opacity=".1"/>
        <path fill="#FFE0D0" fill-rule="nonzero" d="M163.694 146.334c-.412 7.817.252 25.294-8.47 29.212-4.316 1.931-8.937-2.304-13.67-2.406-3.407-.077-6.525 2.074-8.609 4.751-2.084 2.677-3.365 5.865-4.877 8.905a60.825 60.825 0 0 1-4.729 7.919c-1.06 1.491-2.233 2.988-3.864 3.826-2.84 1.471-6.283.644-9.329-.301a153.496 153.496 0 0 1-11.68-4.18c.088-.574.133-1.155.134-1.736-.113.214-.236.413-.36.628l-.242.419a45.966 45.966 0 0 0-1.255 2.32c-.15.3-.294.612-.422.924a11.684 11.684 0 0 0-.962 3.658c-.263 3.408 1.43 6.641 2.933 9.707 5.778 11.857 9.349 25.723 5 38.163-1.882 5.41-5.145 10.217-7.527 15.444a49.574 49.574 0 0 0-3.514 29.518c1.188 6.192 3.57 12.323 2.984 18.602-1.029 10.805-10.414 18.846-19.814 24.374-5.079 2.973-11.295 5.62-16.687 3.27 3.437-3.985 4.322-9.498 5.063-14.699a74696.457 74696.457 0 0 1 8.531-59.528c1.513-10.616 3.046-21.35 2.1-32.032-.69-7.873-2.635-16.23.802-23.357 1.816-3.776 5.053-6.902 6.061-10.97.829-3.305.057-6.82.602-10.186a17.255 17.255 0 0 1 1.503-4.414 21.673 21.673 0 0 1 3.447-5.221c-1.379-.399-2.665-.945-3.447-2.09 2.212-1.43 2.547-4.654 1.543-7.076-1.003-2.421-3.01-4.265-4.816-6.176-1.806-1.91-3.545-4.138-3.771-6.744-.438-4.96 4.553-8.802 5.433-13.697.89-4.98-2.629-9.824-2.346-14.866.33-6.095 5.969-10.524 11.536-13.094a52.813 52.813 0 0 1 26.9-4.598c7.502.705 14.762 3.01 22.243 3.903 4.512.511 9.087.562 13.568 1.349 4.482.787 8.974 2.447 12.128 5.711 8.315 8.609-1.647 15.695-2.12 24.768z"/>
        <path fill="#000" fill-rule="nonzero" d="M154.868 378.677c-2.625-1.126-7.4-.453-15.597-2.924-8.197-2.472-9.777-13.641-9.777-13.641v-.036c-.098-.255-.86-1.916-6.015-7.735-5.697-6.426-18.01-38.88-18.01-38.88s-10.92-11.613-10.575-15.893c.345-4.28-1.94-15.669-1.714-28.408.227-12.739 24.582-21.187 24.582-21.187 46.893-8.23 35.85 45.305 34.6 49.36-1.25 4.057 5.238 15.012 5.238 15.012-.916 4.77 3.756 12.153 3.756 12.153s1.132 6.533 1.364 9.015c.013.114.039.227.077.336.751 2.339 6.875 4.458 9.365 5.748 2.62 1.355 11.043 13.187 11.043 13.187 1.817 8.688-25.723 25.035-28.337 23.893z" opacity=".1"/>
        <path fill="#FF748E" fill-rule="nonzero" d="M155.881 376.651c-2.619-1.131-7.4-.454-15.593-2.93-8.193-2.477-9.778-13.639-9.778-13.639v-.036c-.092-.26-.86-1.916-6.016-7.736-5.697-6.427-18.012-38.892-18.012-38.892s-10.92-11.61-10.58-15.891c.34-4.281-1.935-15.672-1.709-28.403.227-12.732 24.568-21.177 24.568-21.177 46.898-8.23 35.854 45.314 34.604 49.37-1.25 4.058 5.239 15.015 5.239 15.015-.916 4.77 3.757 12.156 3.757 12.156s1.132 6.533 1.369 9.016c.008.114.032.227.072.336.75 2.34 6.875 4.46 9.371 5.749 2.614 1.35 11.044 13.19 11.044 13.19 1.827 8.674-25.716 25.024-28.336 23.872z"/>
        <path fill="#000" fill-rule="nonzero" d="M120.506 276.456s20.393 21.266 25.716 21.266c5.322 0-25.716-21.266-25.716-21.266z" opacity=".1"/>
        <path fill="#FF748E" fill-rule="nonzero" d="M156.458 377.664c-2.562-1.122-7.238-.45-15.25-2.906s-9.562-13.525-9.562-13.525v-.035c5.31-3.538 18.757-13.53 24.057-17.184 3.729-2.562 6.774-6.327 8.555-8.824.735 2.32 6.724 4.422 9.165 5.7 2.557 1.34 10.8 13.08 10.8 13.08 1.732 8.623-25.204 24.836-27.765 23.694z"/>
        <g fill="#000" fill-rule="nonzero" opacity=".1">
            <path d="M83.408 178.078c.026.041.062.077.092.117.154-.193.313-.386.478-.57-.175.17-.366.32-.57.453zM95.319 201.396c.215-2.823 1.74-5.31 3.167-7.793-.934-.356-1.868-.717-2.793-1.094.088-.57.133-1.147.134-1.724-1.443 2.543-3.014 5.046-3.234 7.91-.262 3.398 1.427 6.613 2.926 9.665 5.77 11.8 9.328 25.606 4.99 37.998-1.884 5.381-5.134 10.173-7.51 15.377a49.244 49.244 0 0 0-3.502 29.386c1.175 6.17 3.558 12.269 2.972 18.52-1.026 10.759-10.386 18.766-19.77 24.264-3.836 2.249-8.317 4.309-12.604 4.161-.397.633-.84 1.237-1.325 1.806 5.386 2.355 11.582-.295 16.65-3.266 9.39-5.493 18.77-13.48 19.796-24.258.585-6.252-1.797-12.35-2.978-18.521a49.284 49.284 0 0 1 3.491-29.386c2.362-5.199 5.648-9.996 7.511-15.377 4.338-12.392.776-26.197-4.99-37.998-1.494-3.073-3.193-6.272-2.931-9.67z"/>
            <path d="M165.602 123.035a14.79 14.79 0 0 0-1.622-1.424c6.222 7.996-2.762 14.792-3.209 23.399-.4 7.782.257 25.189-8.445 29.085-4.302 1.928-8.918-2.294-13.636-2.395-3.404-.072-6.515 2.07-8.594 4.735-2.08 2.666-3.358 5.84-4.862 8.861a60.8 60.8 0 0 1-4.723 7.885c-1.027 1.49-2.228 2.976-3.86 3.815-2.824 1.46-6.26.64-9.304-.305-2.96-.923-5.893-1.94-8.8-3.052-.005.53-.05 1.058-.133 1.582a151.114 151.114 0 0 0 11.66 4.16c3.039.947 6.473 1.766 9.302.306 1.628-.84 2.809-2.33 3.861-3.82a59.804 59.804 0 0 0 4.718-7.88c1.51-3.021 2.783-6.2 4.867-8.866 2.084-2.665 5.19-4.802 8.59-4.73 4.722.101 9.338 4.323 13.64 2.395 8.702-3.896 8.04-21.303 8.445-29.086.473-9.049 10.412-16.1 2.105-24.665z"/>
        </g>
        <path fill="#000" fill-rule="nonzero" d="M96.203 194.247c-.425.761-.84 1.522-1.22 2.303-.144.3-.284.609-.409.918-2.618-2.678-8.992-9.044-12.549-11.018a21.67 21.67 0 0 1 3.347-5.184s8.478 4.55 10.83 12.981z" opacity=".1"/>
        <path fill="#FF748E" fill-rule="nonzero" d="M96.203 194.819c-1.932-8.793-10.885-13.553-10.885-13.553a20.994 20.994 0 0 0-3.293 5.051c3.69 2.032 10.492 8.843 12.748 11.151l1.43-2.649z"/>
    </g>
</svg>
