<svg xmlns="http://www.w3.org/2000/svg" width="783" height="483" viewBox="0 0 783 483">
    <defs>
        <linearGradient id="a" x1="67.411%" x2="40.483%" y1="4.862%" y2="63.411%">
            <stop offset="0%" stop-color="#00BCDE"/>
            <stop offset="100%" stop-color="#0087BA"/>
        </linearGradient>
        <linearGradient id="b" x1="64.913%" x2="41.641%" y1="18.158%" y2="81.244%">
            <stop offset="0%" stop-color="#00A2DF"/>
            <stop offset="100%" stop-color="#0087BA"/>
        </linearGradient>
        <linearGradient id="c" x1="50%" x2="50%" y1="0%" y2="100%">
            <stop offset="0%" stop-color="#00A7E5"/>
            <stop offset="100%" stop-color="#0087BA"/>
        </linearGradient>
        <linearGradient id="d" x1="50%" x2="50%" y1="0%" y2="100%">
            <stop offset="0%" stop-color="#FDB0B0"/>
            <stop offset="100%" stop-color="#F99393"/>
        </linearGradient>
        <linearGradient id="e" x1="50%" x2="50%" y1="0%" y2="100%">
            <stop offset="0%" stop-color="#479FB4"/>
            <stop offset="100%" stop-color="#86D1E4"/>
        </linearGradient>
        <linearGradient id="f" x1="60.191%" x2="50%" y1="2.496%" y2="100%">
            <stop offset="0%" stop-color="#57B0C6"/>
            <stop offset="100%" stop-color="#6AAABB"/>
        </linearGradient>
        <linearGradient id="g" x1="18.958%" x2="84.03%" y1="7.049%" y2="92.951%">
            <stop offset="0%" stop-color="#FAA"/>
            <stop offset="100%" stop-color="#F99393"/>
        </linearGradient>
        <linearGradient id="h" x1="50%" x2="50%" y1="0%" y2="100%">
            <stop offset="0%" stop-color="#FDC5C5"/>
            <stop offset="100%" stop-color="#FF9393"/>
        </linearGradient>
        <linearGradient id="i" x1="49.979%" x2="44.938%" y1="26.843%" y2="95.494%">
            <stop offset="0%" stop-color="#FFCF5D"/>
            <stop offset="100%" stop-color="#FDB91A"/>
        </linearGradient>
        <linearGradient id="j" x1="51.389%" x2="32.298%" y1="3.653%" y2="93.068%">
            <stop offset="0%" stop-color="#FF9C9C"/>
            <stop offset="100%" stop-color="#FFA9A9"/>
        </linearGradient>
        <linearGradient id="k" x1="50%" x2="50%" y1="15.576%" y2="86.905%">
            <stop offset="0%" stop-color="#FFC847"/>
            <stop offset="100%" stop-color="#FCB716"/>
        </linearGradient>
        <linearGradient id="l" x1="50%" x2="50%" y1="0%" y2="100%">
            <stop offset="0%" stop-color="#FFC2C2"/>
            <stop offset="100%" stop-color="#F99393"/>
        </linearGradient>
        <linearGradient id="m" x1="50%" x2="50%" y1="0%" y2="100%">
            <stop offset="0%" stop-color="#FDC5C5"/>
            <stop offset="100%" stop-color="#F99393"/>
        </linearGradient>
        <linearGradient id="n" x1="50%" x2="50%" y1="0%" y2="98.778%">
            <stop offset="0%" stop-color="#B4EEE1"/>
            <stop offset="100%" stop-color="#EFF4F3"/>
        </linearGradient>
        <linearGradient id="o" x1="48.66%" x2="50%" y1="17.917%" y2="84.195%">
            <stop offset="0%" stop-color="#F0F9FF"/>
            <stop offset="100%" stop-color="#B6E0FE"/>
        </linearGradient>
        <linearGradient id="p" x1="2.19%" x2="84.267%" y1="47.93%" y2="51.007%">
            <stop offset="0%" stop-color="#FFF"/>
            <stop offset="100%" stop-color="#FFF"/>
        </linearGradient>
        <linearGradient id="q" x1="50%" x2="50%" y1="0%" y2="100%">
            <stop offset="0%" stop-color="#BCDFFB"/>
            <stop offset="100%" stop-color="#C5D6E5"/>
        </linearGradient>
        <linearGradient id="r" x1="50%" x2="50%" y1="0%" y2="100%">
            <stop offset="0%" stop-color="#FFB8B8"/>
            <stop offset="100%" stop-color="#FD8282"/>
        </linearGradient>
        <linearGradient id="s" x1="77.331%" x2="31.965%" y1="12.265%" y2="82.527%">
            <stop offset="0%" stop-color="#FFF"/>
            <stop offset="100%" stop-color="#FAFAFA"/>
        </linearGradient>
        <linearGradient id="t" x1="10.931%" x2="40.596%" y1="9.531%" y2="100%">
            <stop offset="0%" stop-color="#FD8282"/>
            <stop offset="100%" stop-color="#FFAEAE"/>
        </linearGradient>
        <linearGradient id="u" x1="4.689%" x2="39.094%" y1="9.531%" y2="100%">
            <stop offset="0%" stop-color="#FD8282"/>
            <stop offset="100%" stop-color="#FFAEAE"/>
        </linearGradient>
        <linearGradient id="v" x1="1.197%" x2="38.253%" y1="9.531%" y2="100%">
            <stop offset="0%" stop-color="#FD8282"/>
            <stop offset="100%" stop-color="#FFAEAE"/>
        </linearGradient>
        <linearGradient id="w" x1="50%" x2="65.46%" y1="0%" y2="111.423%">
            <stop offset="0%" stop-color="#FFAEAE"/>
            <stop offset="100%" stop-color="#FD8282"/>
        </linearGradient>
        <linearGradient id="x" x1="38.636%" x2="65.5%" y1="2.526%" y2="97.445%">
            <stop offset="0%" stop-color="#FFF"/>
            <stop offset="100%" stop-color="#F8F8F8"/>
        </linearGradient>
        <linearGradient id="y" x1="50%" x2="50%" y1="3.412%" y2="100%">
            <stop offset="0%" stop-color="#FFF"/>
            <stop offset="100%" stop-color="#F2F2F2"/>
        </linearGradient>
        <linearGradient id="z" x1="50%" x2="50%" y1="0%" y2="100%">
            <stop offset="0%" stop-color="#FFF"/>
            <stop offset="100%" stop-color="#FFFFFE"/>
        </linearGradient>
        <linearGradient id="A" x1="50%" x2="50%" y1="50%" y2="100%">
            <stop offset="0%" stop-color="#FFB8B8"/>
            <stop offset="100%" stop-color="#FD8282"/>
        </linearGradient>
        <linearGradient id="B" x1="76.184%" x2="18.915%" y1="0%" y2="94.136%">
            <stop offset="0%" stop-color="#FDFDFD"/>
            <stop offset="100%" stop-color="#F6F6F6"/>
        </linearGradient>
        <linearGradient id="C" x1="62.163%" x2="50%" y1="11.163%" y2="100%">
            <stop offset="0%" stop-color="#464549"/>
            <stop offset="100%" stop-color="#222123"/>
        </linearGradient>
        <linearGradient id="D" x1="50%" x2="50%" y1="0%" y2="100%">
            <stop offset="0%" stop-color="#FF7B7B"/>
            <stop offset="100%" stop-color="#FDC5C5"/>
        </linearGradient>
        <linearGradient id="E" x1="59.856%" x2="32.752%" y1="6.162%" y2="58.79%">
            <stop offset="0%" stop-color="#1AE2B7"/>
            <stop offset="100%" stop-color="#00A783"/>
        </linearGradient>
        <linearGradient id="F" x1="73.441%" x2="31.28%" y1="8.99%" y2="100%">
            <stop offset="0%" stop-color="#FF9697"/>
            <stop offset="100%" stop-color="#FEA4A4"/>
        </linearGradient>
        <linearGradient id="G" x1="50%" x2="50%" y1="33.573%" y2="78.475%">
            <stop offset="0%" stop-color="#FFAFB0"/>
            <stop offset="100%" stop-color="#F99393"/>
        </linearGradient>
        <linearGradient id="H" x1="50%" x2="50%" y1="24.577%" y2="100%">
            <stop offset="0%" stop-color="#F99393"/>
            <stop offset="100%" stop-color="#FFB9B9"/>
        </linearGradient>
        <linearGradient id="I" x1="50%" x2="39.175%" y1="0%" y2="100%">
            <stop offset="0%" stop-color="#02D7A9"/>
            <stop offset="100%" stop-color="#04BA93"/>
        </linearGradient>
        <linearGradient id="J" x1="13.478%" x2="50%" y1="16.874%" y2="83.126%">
            <stop offset="0%" stop-color="#00BCDE"/>
            <stop offset="100%" stop-color="#0087BA"/>
        </linearGradient>
    </defs>
    <g fill="none" fill-rule="evenodd">
        <path fill="#FFFFFE" d="M333 181h10s.134 4-5.367 4c-4.454 0-4.633-4-4.633-4"/>
        <path fill="#37657D" d="M76.697 399.557L78 410.636 28 414l2.976-15 45.721.557"/>
        <path fill="#18181A" d="M33.426 465.82l6.785 10.918a6.24 6.24 0 0 1 .543 4.775L40.323 483 13 474.804 17.36 461l16.066 4.82"/>
        <path fill="#37657D" d="M29.579 402L17 455.858 38.817 463 57 405.75 29.579 402"/>
        <path fill="#4D8CA0" d="M15.65 453L42 459.481 39.43 467 14 460.563 15.65 453"/>
        <path fill="#37657D" d="M76.602 403L87 457.357 66.686 462 51 404.575 76.602 403"/>
        <path fill="#325867" d="M54 416.397L60.906 414s.831 28.123 1.088 28.98L54 416.397"/>
        <path fill="#18181A" d="M86.163 462l11.097 6.632a6.149 6.149 0 0 1 2.491 4.034l.249 1.523L72.514 479 70 464.83 86.163 462"/>
        <path fill="#4D8CA0" d="M63 459.094L87.343 454 89 461.234 65.368 466 63 459.094"/>
        <path fill="#F99393" d="M113 329.196L103.42 341 95 336.824 104.795 326l8.205 3.196"/>
        <path fill="#F98585" d="M111.316 330.784s2.339 1.257 6.063-2.294c1.602-1.525 2.88-3.234 3.82-4.688 1.22-1.887 1.034-4.366-.472-6.024l-3.936-4.198a4.774 4.774 0 0 0-6.616-.465c-2.997 2.49-5.44 7.754-5.152 12.773l6.293 4.896"/>
        <path fill="url(#a)" d="M101.294 168L113 178.06l-22.143 25.395c-2.561 3.016-7.112 3.407-10.163.874l-1.622-1.347c-3.051-2.534-2.482-6.57.08-9.586L101.294 168" transform="translate(0 157)"/>
        <path fill="#0087BA" d="M60.394 344.946c-6.145-5.416-6.124-17.578 1.84-15.763 2.136.485 6.853 2.54 10.57 5.116 0 0 12.227 8.937 17.667 13.414 3.58 2.944 3.137 9.068.065 12.544a8.082 8.082 0 0 1-11.416.719l-18.726-16.03"/>
        <path fill="#01709A" d="M72.752 355.135L71 347l10 15-8.248-6.865"/>
        <path fill="#E57661" d="M5 396l3.212-13.806L17 382l-3.794 13.097L5 396"/>
        <path fill="#E57661" d="M5.516 395s-2.537-.047-4.212 4.513c-.72 1.96-1.089 3.934-1.274 5.55a4.588 4.588 0 0 0 2.972 4.827l5.16 1.817a4.647 4.647 0 0 0 5.862-2.447c1.504-3.364 1.352-8.804-1.033-12.869L5.516 395"/>
        <path fill="url(#b)" d="M38.78 173S43 177.962 43 185.13c0 1.619-.741 4.279-3.488 7.875 0 0-10.204 11.51-14.926 16.738-3.106 3.44-9.18 2.7-12.49-.545-3.193-3.13-2.321-7.554-.155-11.464C22.786 178.154 38.781 173 38.781 173" transform="translate(0 157)"/>
        <path fill="#0087BA" d="M17.862 394L3 390.022l6.838-30.552c.95-3.86 4.828-6.213 8.663-5.257l2.039.509c3.835.958 5.11 4.866 4.158 8.727L17.862 394"/>
        <path fill="url(#c)" d="M65.982 175.53C72.156 183.103 80 242.277 80 242.277s-22.666 7.001-56 1.8l6.628-55.35s-4.236-17.785 20.913-17.666c0 0 10.037-.937 14.441 4.467z" transform="translate(0 157)"/>
        <path fill="#01709A" d="M28.06 362.182L35 355l-9 23 2.06-15.818"/>
        <path fill="#F99393" d="M76.996 303.305a5.5 5.5 0 1 1-10.994.39 5.5 5.5 0 0 1 10.994-.39"/>
        <path fill="#222123" d="M30.01 295.874c-.36 11.878 8.462 24.267 20.302 25.09 11.839.824 21.747-12.951 22.575-24.808.827-11.856-2.625-20.607-18.65-21.133-14.203-.466-23.781 6.292-24.226 20.851"/>
        <path fill="#F99393" d="M43 310l13.666 2.715.332 16.25c.076 3.677-2.61 6.765-6.1 7.018-3.664.266-6.82-2.682-6.998-6.536L43 310"/>
        <path fill="#E3696A" d="M42 316s2.975 14.73 15 11.55l-.103-6.039L42 316"/>
        <path fill="url(#d)" d="M55.597 166.99c-9.035.324-16.62-6.847-16.94-16.017l-.654-18.745c-.083-2.373 1.747-4.366 4.084-4.45l21.535-.773c4.177-.15 7.683 3.165 7.832 7.404l.536 15.367c.32 9.17-6.745 16.867-15.782 17.192l-.61.021z" transform="translate(0 157)"/>
        <path fill="#222123" d="M72 287.692L62.794 279l-19.62 3.172c-.636-.462-1.1-.702-1.1-.702l-3.735 1.483L34 290.831l1.946 4.767L34.548 304h8.519l-.316-8.714c3.17-2.937 4.108-5.47 3.967-7.538 11.519 3.77 25.282-.056 25.282-.056"/>
        <path fill="#F99393" d="M41.997 305.305a5.5 5.5 0 1 1-10.995.389 5.5 5.5 0 0 1 10.995-.389"/>
        <path fill="#222123" d="M55.999 302.566a1.5 1.5 0 1 1-2.996-.131 1.5 1.5 0 0 1 2.996.131M67.998 302.566a1.498 1.498 0 0 1-1.564 1.432 1.499 1.499 0 0 1-1.432-1.564 1.498 1.498 0 0 1 1.564-1.432c.828.035 1.47.737 1.432 1.564"/>
        <path stroke="#E3696A" stroke-linecap="round" stroke-linejoin="round" stroke-width=".75" d="M63.706 305l.294 1.624s-.168 1.892-3 1.24"/>
        <path fill="#222123" d="M51.167 297.4c.077-.003.154-.012.233-.027l5.596-1.083c.625-.12 1.041-.59.934-1.05-.109-.46-.701-.733-1.331-.613l-5.595 1.083c-.625.121-1.042.591-.934 1.051.096.402.563.662 1.097.639M64.93 295.745c.078.018.159.03.24.036l3.604.25c.66.047 1.204-.322 1.22-.822.016-.501-.507-.944-1.165-.99l-3.604-.25c-.657-.046-1.202.322-1.22.822-.012.438.385.832.925.954"/>
        <path fill="#FFFFFE" d="M52 311h12s.16 5-6.44 5c-5.345 0-5.56-5-5.56-5"/>
        <path fill="#F99393" d="M61.51 328.937s-3.021-1.201-9.713-.883c0 0-8.928.206-12.797 1.894 0 0 1.879 8.957 14.746 7.977 11.175-.85 7.764-8.988 7.764-8.988"/>
        <path fill="#343434" d="M208.322 187.47c-3.791-4.43-6.828-9.597-9.407-16.847-2.77-7.784-11.84-4.621-11.84-4.621s-7.556-9.653-18.927-6.291c-11.372 3.363-15.323 12.617-15.554 22.17-.232 9.554-7.8 9.83-13.626 20.882-10.287 19.512 7.032 35.946 38.56 31.386l.042-.304c3.104.937 6.91 1.345 11.554 1.071 37.875-2.231 34.22-29.896 19.198-47.446"/>
        <path fill="#E57661" d="M219.09 428.237l-3.394 26.787 9.304 18.7s-10.439 2.314-14.978-6.462c-4.538-8.774-3.403-12.93-3.403-12.93L205 423l14.09 5.237"/>
        <path fill="#1A1820" d="M223.661 471.465S233.838 475.938 235 481h-22.029l-3.949-5.837-2.671 5.837h-2.702s-2.532-20.458 2.407-27l17.605 17.465"/>
        <path fill="url(#e)" d="M195.537 114L226 187.776v97.654l-29.336.57-.895-92.118L167 143.197 195.537 114" transform="translate(0 157)"/>
        <path fill="#479EB4" d="M196 302l-10 7.478.605 24.997 6.47 11.525-2.147-31.677L196 302"/>
        <path fill="#E57661" d="M139 417.801l-18.926 18.835L115.911 457s-9.5-4.643-7.68-14.305c1.82-9.663 5.227-12.21 5.227-12.21L131.262 405 139 417.801"/>
        <path fill="#1A1820" d="M115.41 454.533s5.23 9.807 3.065 14.467l-17.197-13.685.459-7-5.628 2.886L94 449.523s10.438-17.5 18.266-19.523l3.144 24.533"/>
        <path fill="url(#f)" d="M156.392 140.937v48.037L114 257.517 134.206 278l47.108-69.606a20.525 20.525 0 0 0 6.392-15.393l-1.37-54.559 8.198-10.238L196 113l-30.954 1.3s-14.17 9.119-8.654 26.637z" transform="translate(0 157)"/>
        <path fill="#FFA8A8" d="M198.556 244l12.843 29.886c1.54 3.587.02 7.79-3.418 9.443-3.437 1.654-7.519.146-9.17-3.387L183 246.106 198.556 244"/>
        <path fill="#FCB717" d="M181.67 220.62s9.23-3.926 15 7.983c6.916 14.275 10.33 23.1 10.33 23.1L186.305 260s-19.69-32.995-4.635-39.38"/>
        <path fill="url(#g)" d="M240 145.148L205.619 112 199 124.768 232.896 150l7.104-4.852" transform="translate(0 157)"/>
        <path fill="#FB9C9C" d="M232.012 305.359s-.354 3.11 2.738 7.235c1.327 1.772 2.86 3.234 4.177 4.324 1.709 1.416 4.11 1.448 5.84.06l4.384-3.644c1.994-1.6 2.437-4.543 1.026-6.717-2.137-3.285-7.996-6.46-12.85-6.617l-5.315 5.359"/>
        <path fill="url(#h)" d="M161 83.555l-20.16 27.25c-2.133 3.27-6.423 4.176-9.638 2.037-3.214-2.141-4.165-6.536-2.135-9.874L150.894 71 161 83.555" transform="translate(0 157)"/>
        <path fill="#FFA7A7" d="M116.909 308.675s6.995 4.56 7.09 9.867c.02 1.094-1.203 1.791-2.174 1.236l-2.677-1.532-1.497 4.048c-.438 1.486-1.258 2.87-2.484 3.86-.574.463-1.217.818-1.855.844-1.717.07-17.22-1.809-.93-20.998l4.527 2.675"/>
        <path fill="url(#i)" d="M168.926 61.402s8.165 5.882 1.377 17.181C162.165 92.128 153.54 101 153.54 101L137 85.81s21.828-36.33 31.926-24.408" transform="translate(0 157)"/>
        <path fill="url(#j)" d="M118.033 153L143 107.182 128.659 105 112 149.112l6.033 3.888" transform="translate(0 157)"/>
        <path fill="url(#k)" d="M194.463 65.375s15.093 10.255 2.563 21.874l-1.423 26.446L164.524 115l-9.267-39.515c-2.979-7.055-.819-14.063 8.15-17.39 4.163-1.543 9.581-2.941 15.965-1.476 0 0 7.19-2.02 15.091 8.756z" transform="translate(0 157)"/>
        <path fill="#FFB909" d="M163 248l1 20-4-16.421z"/>
        <path fill="#343434" d="M178 205c-13.254 0-24-10.746-24-24 0-13.255 10.746-24 24-24 13.255 0 24 10.745 24 24 0 13.254-10.745 24-24 24z"/>
        <path fill="#F99393" d="M169 214.321l.08-21.321 14.92.07-.08 21.32c-.018 4.223-3.374 7.629-7.494 7.61-4.12-.019-7.446-3.456-7.426-7.679"/>
        <path fill="#E3696A" d="M169 194s1.532 18.29 14.975 17.997l.025-9.16L169 194"/>
        <path stroke="#222123" stroke-linecap="round" stroke-width=".5" d="M153.455 257.93c2.813-3.519 5.994-6.83 9.545-9.93M195 270c0-1.333.333-6 1-14s2.333-13.667 5-17"/>
        <path fill="#F99393" d="M191 188.5a5.5 5.5 0 1 0 11.002-.001 5.5 5.5 0 0 0-11.002 0"/>
        <path fill="url(#l)" d="M181.5 51c9.075 0 16.5-5.485 16.5-14.58V20.782C198 14.071 190.688 7 186.738 7l-14.556 4.088c-3.95 0-7.182 3.238-7.182 7.198v15.577C165 42.958 173.847 51 181.5 51" transform="translate(0 157)"/>
        <path fill="#17181E" d="M182.996 185.607a1.499 1.499 0 1 1-2.992-.215 1.5 1.5 0 0 1 2.992.215M195.996 185.607a1.499 1.499 0 1 1-2.992-.214 1.5 1.5 0 0 1 2.992.214"/>
        <path stroke="#E3696A" stroke-linecap="round" stroke-linejoin="round" stroke-width=".75" d="M188.5 189l1.5 2.681s-.218 1.874-3 1.154"/>
        <path fill="#343434" d="M178.089 181.988c.085.01.174.013.263.012l6.407-.19c.716-.022 1.27-.444 1.24-.944-.03-.499-.631-.884-1.35-.865l-6.408.19c-.714.02-1.27.443-1.24.943.026.437.493.787 1.088.854M192.004 181.988c.079.01.16.013.242.012l3.609-.12c.66-.023 1.171-.461 1.144-.98-.027-.52-.585-.922-1.244-.9l-3.61.121c-.66.022-1.171.46-1.144.979.025.453.454.818 1.003.888"/>
        <path stroke="#E3696A" stroke-linecap="round" stroke-linejoin="round" stroke-width=".75" d="M191 196.816s-4.317.762-8-.816"/>
        <path fill="#343434" d="M193 165.175s-16.32 19.54-32.599 18.805c0 0-3.013-11.328 7.48-18.98 10.496-7.653 19.26-1.97 19.26-1.97l5.859 2.145"/>
        <path fill="#343434" d="M187.58 165.701S191.246 171.24 198 176c0 0-2.184-11.457-12-13l1.58 2.701M171.68 179s2.014 10.979-4.07 12L166 180.602l5.68-1.602"/>
        <path fill="url(#m)" d="M159 31.5a5.5 5.5 0 1 0 11 0 5.5 5.5 0 0 0-11 0" transform="translate(0 157)"/>
        <path fill="#E3696A" d="M39.98 306.655a4 4 0 0 0 .02-.43c-.002-.56-.08-1.577-.655-2.505-.568-.933-1.71-1.731-3.574-1.72-.124 0-.25.004-.378.01-.23.012-.405.194-.392.407.012.213.208.376.438.364.114-.005.224-.009.332-.009 1.623.013 2.386.61 2.854 1.335.46.73.546 1.632.543 2.117 0 .113-.005.202-.008.263l-.007.086c-.024.212.14.402.37.425.228.023.433-.13.457-.343"/>
        <path stroke="#222123" stroke-linecap="round" stroke-width=".75" d="M177 371c5.333-5.333 8.667-11.333 10-18 1.333-6.667 1.333-21.333 0-44"/>
        <g>
            <path fill="url(#n)" d="M0 371.839h434.24V0H100C44.772 0 0 44.772 0 100v271.839z" transform="translate(348)"/>
            <path fill="#ABEADB" d="M418.925 298.131c-2.42 4.641-5.065 9.149-7.715 13.662-2.633 4.485-5.82 8.98-7.671 13.858-.209.549.588.966.966.563 3.563-3.801 6.21-8.705 8.883-13.149 2.848-4.733 5.508-9.6 7.987-14.537 4.906-9.768 8.302-19.74 10.556-30.422.123-.587-.77-.84-.904-.249-2.401 10.531-7.13 20.736-12.102 30.274zM392.483 338.635c-1.486 1.209-2.457 3.045-3.603 4.561-1.259 1.663-2.739 3.201-3.777 5.019-.268.468.285 1.088.77.769 1.698-1.121 2.957-2.729 4.16-4.347 1.238-1.664 2.735-3.532 3.103-5.621.069-.395-.344-.632-.653-.381"/>
            <path fill="#EEF3F7" d="M527.981 74.535c2.922-2.125 6.312-3.689 9.377-5.619 2.968-1.869 5.874-3.829 8.867-5.66 6.118-3.74 12.438-7.131 18.57-10.846 1.612-.976.203-3.152-1.435-2.456-6.775 2.882-13.055 6.638-19.22 10.642-2.919 1.896-5.871 3.8-8.626 5.93-2.886 2.232-5.354 4.895-8.195 7.15-.481.382.159 1.225.662.859"/>
            <path fill="url(#o)" d="M434.057 106.491v265.348H33.89c1.971-4.129 5.221-8.008 8.24-11.446 19.382-22.088 35.169-48.21 45.086-76.199 10.608-29.949 12.516-61.995 21.301-92.521 4.497-15.64 11.625-29.655 19.434-43.985 18.817-34.54 46.124-67.236 84.261-86.66 77.508-39.489 170.689-19.026 221.845 45.463" transform="translate(348)"/>
            <path fill="#FFFFFE" d="M657.187 171.605v-3.403h1.704a.686.686 0 0 0 .686-.685v-2.74a.686.686 0 0 0-.686-.685h-12.249a.685.685 0 0 0-.684.685v2.74c0 .378.306.685.684.685h1.706v3.403a7.004 7.004 0 0 0-5.645 6.87v18.693c0 1.21.98 2.19 2.19 2.19h15.747a2.19 2.19 0 0 0 2.191-2.19v-18.693a7.004 7.004 0 0 0-5.644-6.87"/>
            <path fill="#C5D6E5" d="M660.347 177.561v17.25c0 1.214-.864 2.193-1.936 2.193h-11.286c-1.074 0-1.937-.979-1.937-2.193v-17.25h15.159"/>
            <path fill="#FFFFFE" d="M681.103 171.605v-3.403h1.704a.686.686 0 0 0 .686-.685v-2.74a.686.686 0 0 0-.686-.685h-12.248a.685.685 0 0 0-.685.685v2.74c0 .378.306.685.685.685h1.704v3.403a7.005 7.005 0 0 0-5.644 6.87v18.693c0 1.21.981 2.19 2.19 2.19h15.748a2.19 2.19 0 0 0 2.191-2.19v-18.693a7.005 7.005 0 0 0-5.645-6.87"/>
            <path fill="#C5D6E5" d="M684.263 177.561v17.25c0 1.214-.864 2.193-1.936 2.193h-11.286c-1.072 0-1.937-.979-1.937-2.193v-17.25h15.159M710.613 161.336v-4.662h2.335a.94.94 0 0 0 .939-.939v-3.753a.938.938 0 0 0-.939-.939h-16.78a.94.94 0 0 0-.94.939v3.753a.94.94 0 0 0 .94.939h2.335v4.662c-4.408.868-7.733 4.75-7.733 9.412v25.609a3 3 0 0 0 3.001 3.001h21.575a3 3 0 0 0 3-3.001v-25.609c0-4.662-3.326-8.544-7.733-9.412"/>
            <path fill="#B9CCDF" d="M694.175 183.438h20.767v-13.943h-20.767z"/>
            <path fill="#C5D6E5" d="M512.155 125.414h43.653v-19.391h-43.653z"/>
            <path fill="#FFFFFE" d="M661.055 125.414h49.07v-11.429h-49.07zM539.335 196.825h49.069v-40.542h-49.069z"/>
            <path fill="#C5D6E5" d="M546.529 175.098h34.682v-10.391h-34.682zM546.529 188.783h34.682v-10.391h-34.682zM630.34 125.414h26.569v-19.391H630.34zM594.444 196.825h26.569v-8.509h-26.569zM594.444 186.003h26.569v-8.508h-26.569zM594.444 175.182h26.569v-8.508h-26.569z"/>
            <path fill="#FFFFFE" d="M559.095 125.414h10.717V78.673h-10.717z"/>
            <path fill="#DEE9F0" d="M562.472 113.468h3.962v-22.85h-3.962z"/>
            <path fill="#FFFFFE" d="M572.813 125.414h10.718V89.841h-10.718zM587.615 125.414h10.719V99.656h-10.719z"/>
            <path fill="#C5D6E5" d="M733.685 125.414H471.947a1.352 1.352 0 1 0 0 2.704h261.738a1.353 1.353 0 0 0 0-2.704M733.685 196.587H471.947a1.352 1.352 0 1 0 0 2.704h261.738a1.353 1.353 0 0 0 0-2.704M744.389 79.332c0 14.384-11.66 26.044-26.043 26.044s-26.043-11.66-26.043-26.044c0-14.383 11.66-26.043 26.043-26.043s26.043 11.66 26.043 26.043"/>
            <path fill="#FFFFFE" d="M741.47 79.332c0 12.771-10.353 23.124-23.124 23.124-12.77 0-23.124-10.353-23.124-23.124 0-12.77 10.354-23.123 23.124-23.123 12.771 0 23.124 10.353 23.124 23.123"/>
            <path fill="#C5D6E5" d="M714.848 88.053h6.828V71.331h-6.828z"/>
            <path fill="#C5D6E5" d="M710.57 82.867h15.552v-6.35H710.57z"/>
            <path fill="#A0BAD7" d="M718.721 80.762V69.603a.374.374 0 1 0-.75 0v11.159a.375.375 0 0 0 .75 0"/>
            <path fill="#A0BAD7" d="M718.5 81.104l16.887-7.608a.375.375 0 1 0-.308-.683l-16.887 7.607a.375.375 0 0 0 .308.684M736.418 80.067h2.517a.375.375 0 0 0 0-.75h-2.517a.375.375 0 0 0 0 .75M697.589 80.067h2.517a.375.375 0 0 0 0-.75h-2.517a.375.375 0 0 0 0 .75M718.638 59.811v-2.707a.375.375 0 0 0-.75 0v2.707a.374.374 0 1 0 .75 0M718.638 101.56v-2.706a.375.375 0 0 0-.75 0v2.706a.374.374 0 1 0 .75 0"/>
            <path fill="#C5D6E5" d="M674.964 295.637h97.326v-19.392h-97.326z"/>
            <path fill="#514B59" d="M728.04 263.456H611.432a2.086 2.086 0 0 1-2.085-2.085v-75.848c0-1.151.934-2.085 2.085-2.085H728.04c1.151 0 2.085.934 2.085 2.085v75.848a2.086 2.086 0 0 1-2.085 2.085"/>
            <path fill="#544F5C" d="M616.462 257.736l-.21-.011h.026c106.736 0 105.451-66.22 106.647-68.567h.083a2.19 2.19 0 0 1 2.191 2.19v64.197a2.19 2.19 0 0 1-2.191 2.191H616.462z"/>
            <path fill="#48444E" d="M676.032 295.959h-12.593a1.104 1.104 0 0 1-1.104-1.105v-74.246c0-.61.495-1.104 1.104-1.104h12.593c.61 0 1.105.494 1.105 1.104v74.246c0 .611-.495 1.105-1.105 1.105"/>
            <path fill="#48444E" d="M644.363 295.284h50.745v-7.113h-50.745z"/>
            <path fill="url(#p)" d="M434.057 371.839H92.205v-72.644c0-1.939 1.468-3.512 3.282-3.512h335.289c.912 0 1.74.399 2.338 1.048.587.64.943 1.51.943 2.464v72.644z" transform="translate(348)"/>
            <path fill="#EEF3F7" d="M645.831 367.254H445.697v-63.443c0-1.971 1.654-3.539 3.666-3.543H772.9a3.72 3.72 0 0 1 2.605 1.052 3.474 3.474 0 0 1 1.061 2.491v6.249a64.124 64.124 0 0 1-1 1.933v-8.182c0-.686-.283-1.309-.759-1.776a2.72 2.72 0 0 0-1.907-.767H449.363a2.72 2.72 0 0 0-1.893.752 2.475 2.475 0 0 0-.773 1.791v62.444h209.01c-3.319.369-6.613.7-9.876.999"/>
            <path fill="url(#q)" d="M267.721 351.222h-9.18v-12.871H245.67v-9.18h12.871V316.3h9.18v12.871h12.872v9.18h-12.872v12.871" transform="translate(348)"/>
            <path fill="#EBF1F2" d="M782.057 371.316H570.945c13.48-1.324 42.504-1.091 74.886-4.062h130.735V310.06a62.376 62.376 0 0 0 4.738-13.104c.473.612.753 1.393.753 2.239v72.121m-6.491-5.061H655.707c48.014-5.342 100.559-18.517 119.859-54.262v54.262"/>
            <path fill="#1BAE91" d="M752.506 281.427a132.78 132.78 0 0 1-.532-21.512c.363-6.404 1.302-13.078 5.023-18.302 1.001-1.405 2.399-2.777 4.125-2.786 1.635-.009 3.06 1.282 3.682 2.796.624 1.512.597 3.207.476 4.839-.973 13.123-7.31 25.164-13.518 36.767l.744-1.802"/>
            <path fill="#0BA787" d="M758.054 270.933h-2.873c3.531-7.621 6.309-15.517 6.925-23.838.126-1.634.147-3.333-.471-4.842-.504-1.196-1.51-2.264-2.716-2.653l.011-.007c.316-.22.649-.406.999-.54a3.42 3.42 0 0 1 1.193-.226h.016c.596 0 1.163.172 1.673.464.885.508 1.598 1.379 1.989 2.333.541 1.3.593 2.74.524 4.152-.012.23-.027.458-.044.686a51.493 51.493 0 0 1-.949 6.675c-1.277 6.133-3.572 12.04-6.277 17.796"/>
            <path fill="#1BAE91" d="M752.913 285.903l-.21-1.939a122.082 122.082 0 0 1-4.612-7.128 132.88 132.88 0 0 1-6.196-11.48c-2.756-5.786-5.136-12.097-4.392-18.46a9.717 9.717 0 0 1 .356-1.708c.325-1.133.923-2.16 1.929-2.715 1.426-.797 3.303-.346 4.571.681 1.268 1.027 2.065 2.526 2.746 4.015 2.495 5.472 3.889 11.28 4.686 17.234v.031c.954 7.066 1.049 14.33 1.122 21.469"/>
            <path fill="#0BA787" d="M749.977 270.933h-2.31c-.693-7.18-2.109-14.217-5.09-20.756-.682-1.488-1.468-2.987-2.747-4.014a4.959 4.959 0 0 0-1.971-.975c.325-1.133.923-2.16 1.929-2.715a3.321 3.321 0 0 1 1.632-.407c1.043 0 2.118.423 2.939 1.088.285.23.545.485.786.757-.048 3.145.321 6.339.812 9.44a132.75 132.75 0 0 0 4.02 17.582"/>
            <path fill="#4AB7A3" d="M751.03 274.264a132.617 132.617 0 0 1-5.073-20.913c-1.002-6.334-1.497-13.056 1.033-18.949.681-1.585 1.758-3.223 3.442-3.597 1.597-.354 3.263.606 4.192 1.954.928 1.346 1.261 3.008 1.488 4.628 1.828 13.032-1.817 26.142-5.428 38.796l.346-1.919"/>
            <path fill="#704B26" d="M768.144 272.59l-3.701 21.803c-.125.713-.838 1.238-1.687 1.238h-20.661c-.85 0-1.562-.525-1.678-1.238l-3.701-21.803c-.157-.871.64-1.657 1.678-1.657h28.062c1.038 0 1.835.786 1.688 1.657"/>
            <path fill="#644323" d="M762.756 295.631h-20.327c1.238-.724 2.485-1.437 3.691-2.202 7.978-5.074 14.204-12.558 18.921-20.745.325-.577.65-1.164.954-1.751h.461c.957 0 1.709.668 1.706 1.454a1.277 1.277 0 0 1-.018.203l-3.701 21.803c-.125.713-.838 1.238-1.687 1.238"/>
            <path fill="#14A792" d="M750.183 238.358c-.046.817-.189 1.731-.045 2.541.027.149.275.149.301 0 .145-.81.002-1.724-.045-2.541-.007-.136-.203-.137-.211 0M753.584 234.204c-.066.817-.227 1.726-.101 2.541.024.152.272.145.301 0 .162-.807.039-1.724.011-2.541-.005-.137-.2-.134-.211 0M746.949 234.732c.054.812.022 1.741.263 2.522.053.17.298.134.307-.041.043-.817-.216-1.71-.363-2.509-.021-.116-.215-.091-.207.028M746.548 242.446c-.114.41-.016.906.064 1.32.085.439.182.903.478 1.247.098.116.284.019.287-.118.009-.431-.174-.848-.289-1.26-.111-.397-.164-.85-.363-1.212l-.177.023M751.183 247.386c-.048.45-.063.895-.073 1.347-.009.394-.075.826.057 1.199.043.122.242.184.307.04.331-.731.119-1.86-.084-2.614-.032-.122-.194-.085-.207.028M755.296 249.968c-.101.855-.509 1.657-.585 2.508-.012.138.183.173.248.068.459-.752.43-1.727.509-2.576.01-.11-.16-.107-.172 0M748.026 250.285c.024.47.176.927.278 1.385.101.461.159.961.382 1.379.102.191.365.086.379-.102.035-.474-.142-.962-.289-1.408-.146-.446-.284-.919-.554-1.308-.055-.079-.202-.058-.196.054M750.971 256.581c-.097.938-.255 2.019-.031 2.945.037.153.273.153.31 0 .225-.927.066-2.008-.029-2.945a.125.125 0 0 0-.25 0M753.273 260.972c-.228 1.044-.549 2.09-.709 3.146-.027.186.223.332.329.139.53-.97.693-2.151.679-3.244-.002-.167-.262-.213-.299-.041M748.572 258.838c.029.981.321 2.047.75 2.927.108.223.456.066.393-.165a29.72 29.72 0 0 0-.897-2.796c-.048-.123-.25-.118-.246.034M750.992 265.321c.126.726.02 1.473.222 2.187.039.138.273.159.3 0 .132-.778-.149-1.494-.303-2.247-.03-.144-.243-.082-.219.06"/>
            <path fill="#108D79" d="M738.91 249.723c.21.753.353 1.658.768 2.327.118.191.406.067.357-.15-.172-.763-.643-1.503-.93-2.231-.046-.119-.231-.076-.195.054M742.198 254.026c-.04 1.009.063 2.215.547 3.124.125.236.449.064.406-.172-.078-.437-.251-.847-.372-1.275-.158-.561-.287-1.133-.428-1.697l-.153.02M745.177 258.258c-.028.554.047 1.117.086 1.669.019.286-.019.704.19.922.076.079.216.06.269-.035.149-.261.008-.661-.043-.943-.098-.543-.164-1.108-.326-1.636-.03-.099-.172-.078-.176.023M740.687 259.445c.176.533.436 1.038.659 1.553.195.451.324 1.035.73 1.332.111.081.245-.031.253-.146.034-.469-.324-.926-.544-1.324-.28-.508-.547-1.036-.897-1.499-.069-.091-.243-.044-.201.084M744.306 264.084c.165.805.137 1.838.629 2.531.114.158.402.119.394-.107-.03-.849-.608-1.668-.857-2.469-.033-.107-.187-.063-.166.045M758.978 242.735c-.002 1.016-.17 2.128.072 3.126.056.236.365.154.391-.053.124-1.006-.169-2.075-.283-3.073-.013-.112-.18-.118-.18 0M762.844 246.69c-.224 1.093-.691 2.155-.841 3.26-.029.209.241.366.364.154.589-1.012.644-2.248.684-3.386.003-.117-.184-.145-.207-.028M757.72 250.296c.005.874-.115 1.921.194 2.755.043.117.244.15.271 0 .162-.885-.135-1.905-.282-2.781-.017-.105-.184-.078-.183.026M760.078 253.547c-.196.514-.23 1.09-.341 1.628-.1.487-.278.973-.285 1.471-.001.15.193.189.269.073.313-.474.401-1.092.492-1.643.082-.503.161-1.028.046-1.529-.023-.098-.151-.081-.181 0M760.639 260.206c-.214.432-.443.861-.679 1.283-.207.372-.519.744-.589 1.169-.016.099.08.197.178.138.381-.235.591-.698.792-1.084.234-.451.411-.911.562-1.395.049-.154-.19-.26-.264-.111M757.233 259.19c-.16.993-.516 2.117-.371 3.128.017.113.183.094.211 0 .296-.967.191-2.08.341-3.078.017-.118-.161-.17-.181-.05M757.168 265.183c-.281.715-.764 1.371-.901 2.141-.037.21.238.35.358.15.41-.681.477-1.501.739-2.237.044-.125-.148-.174-.196-.054"/>
        </g>
        <g>
            <path fill="#FD8282" d="M512 154.554l.457 22.086c.17 6.208 4.563 6.528 10.839 6.316 5.357-.18 9.89-1.862 10.37-7.06L534 152l-22 2.554"/>
            <path fill="#EF6565" d="M512.373 171s18.462-2.936 19.627-18l-20 10.655.373 7.345"/>
            <path fill="#222123" d="M534.682 140s11.082-16.487-2.261-18.388c-7.968-1.136-10.267-3.57-20.012-6.895-11.273-3.845-26.783 8.45-10.062 20.638l26.13-5.541L534.683 140"/>
            <path fill="#FD8F8F" d="M510.996 145.275a6.5 6.5 0 1 1-6.72-6.271 6.5 6.5 0 0 1 6.72 6.271"/>
            <path fill="url(#r)" d="M112.06 49.993c-6.57.226-12.018-5.026-12.03-11.593L100 22.28c-.013-8.23 6.509-14.987 14.739-15.272 8.426-.291 16.97 6.249 17.261 14.67l-.288 16.901c-.092 6.016-4.89 10.903-10.906 11.11l-8.747.303z" transform="translate(402 114)"/>
            <path fill="#222123" d="M531.057 143s-9.912-5.013-6.587-13.305c0 0-14.551-7.604-21.47-.056l.086-10.639 22.96 1.407L536 131.345l-1.615 9.237-3.328 2.418"/>
            <path fill="#FE9595" d="M542.996 144.276a6.5 6.5 0 1 1-12.992.448 6.501 6.501 0 0 1 12.992-.448"/>
            <path fill="#732A26" d="M534.784 146.577l-.001-.044c-.001-.225.033-1.208.443-2.078.204-.437.495-.841.912-1.14.418-.297.97-.5 1.747-.5.208 0 .432.014.672.046a.393.393 0 0 0 .44-.35.405.405 0 0 0-.338-.457 5.718 5.718 0 0 0-.774-.054c-.91-.001-1.638.248-2.19.644-.833.595-1.25 1.481-1.464 2.244a6.338 6.338 0 0 0-.231 1.645v.075a.4.4 0 0 0 .408.392.402.402 0 0 0 .376-.423"/>
            <path fill="#222123" d="M509.249 145.359l-.248 3.228a.368.368 0 0 0 .116.295c.083.078.2.121.319.118l2.157-.068c.233-.008.414-.186.407-.399-.008-.213-.203-.379-.435-.372l-1.691.054.214-2.802c.017-.213-.158-.397-.39-.412-.232-.015-.432.145-.449.358M507 144.448a1.501 1.501 0 0 1-3 .104 1.5 1.5 0 0 1 3-.104M518 144.448a1.501 1.501 0 0 1-3 .104 1.5 1.5 0 0 1 3-.104M518.42 136.035s-3.403-.387-3.42 1.398c0 0 .014 1.208 2.983 1.474 2.968.264 3.737-.01 3.996-1.144.26-1.132-1.965-1.703-3.559-1.728M505.867 137.032s2.88-.375 3.131 1.425c0 0 .148 1.22-2.373 1.473-2.522.252-3.348-.187-3.595-1.171-.28-1.117 1.467-1.709 2.837-1.727"/>
            <path fill="#FFFFFE" d="M509.002 151H517s.164 3-4.033 3c-4.198 0-3.964-3-3.964-3"/>
            <path fill="url(#s)" d="M116.043 69.5c3.647 6.034 2.063 13.874-3.634 17.998l-14.7 13.22-33.81 28.54c-6.329 4.581-15.13 3.295-19.899-2.91-5.168-6.722-3.447-15.713 3.534-21.093 5.946-4.583 15.593-12.967 25.403-21.728C80.35 76.908 92.696 68.15 97.246 65.18c6.357-4.15 14.86-2.192 18.797 4.32" transform="translate(402 114)"/>
            <path fill="#FD8282" d="M428 171l5 10.354L422.485 188 416 173.345 427.218 171z"/>
            <path fill="#FE9E9E" d="M430.128 167.188a7.922 7.922 0 0 0 .867-3.87l-.39-11.197c-.037-1.088-.94-1.985-2.119-2.107-1.217-.126-2.34.61-2.604 1.705L424 159.567 428 171l2.128-3.812z"/>
            <path fill="url(#t)" d="M24 45l-9.976-18.197a1.625 1.625 0 0 0-2.1-.645 1.619 1.619 0 0 0-.784 2.118l5.98 15.39L24 45" transform="translate(402 114)"/>
            <path fill="url(#u)" d="M16 50L4.811 31.705c-.459-.7-1.344-.912-2.038-.485-.725.444-.984 1.421-.587 2.204l7.936 15.478L16 50" transform="translate(402 114)"/>
            <path fill="url(#v)" d="M13 53L2.83 36.666a1.556 1.556 0 0 0-2.052-.459c-.73.42-.991 1.341-.59 2.079l7.51 14.44L13 53" transform="translate(402 114)"/>
            <path fill="url(#u)" d="M19 46L8.256 27.817c-.458-.739-1.44-1.025-2.26-.657-.854.384-1.229 1.34-.846 2.155l8.21 16.25L19 46" transform="translate(402 114)"/>
            <path fill="url(#w)" d="M4 45.93S7.366 57.613 14.401 60L26 57l-1.244-11.81-4.832-3.681L18.513 38 4 45.93z" transform="translate(402 114)"/>
            <path fill="url(#x)" d="M29.705 58l37.21 51.97c4.254 7.08 1.781 16.31-5.432 20.265-7.294 3.998-16.42.958-19.916-6.637L14 67.484 29.705 58" transform="translate(402 114)"/>
            <path fill="#222123" d="M434.404 177.06l-16.219 10.207a.4.4 0 0 0-.127.545.389.389 0 0 0 .539.129l16.219-10.208a.4.4 0 0 0 .125-.545.386.386 0 0 0-.537-.128"/>
            <path fill="url(#y)" d="M115.864 66.73L131.92 62l18.606 3.836a5.601 5.601 0 0 1 4.471 5.483L157 182H85l7.04-102.496a17.603 17.603 0 0 1 13.375-15.786l5.491-1.343 4.958 4.355" transform="translate(402 114)"/>
            <path fill="#0087BA" d="M512.751 176.382l-2.751.677L516.984 210S534.87 179.006 541 177.443L534.041 176l-16.266 4.817-5.024-4.435"/>
            <path fill="#222123" d="M512.653 185.3l4.994-4.369 9.692 8.964c.16.149.41.138.557-.024a.399.399 0 0 0-.024-.561l-9.95-9.205a.393.393 0 0 0-.526-.008l-5.26 4.604a.398.398 0 0 0-.039.56.391.391 0 0 0 .556.04"/>
            <path fill="#222123" d="M517.222 180.387l-.103 24.223c-.001.214.146.389.328.39.182.001.33-.172.331-.387l.103-24.223c.001-.213-.146-.389-.327-.39-.182 0-.331.172-.332.387M492.82 221.638l1.18-16.223a.396.396 0 0 0-.383-.414.404.404 0 0 0-.44.361l-1.176 16.223c-.015.213.156.4.382.414a.403.403 0 0 0 .438-.361M540.596 177.456l1.535 9.128-7.374 1.47a.404.404 0 0 0-.294.236.38.38 0 0 0 .036.366l5.185 7.609-23.325 12.722a.39.39 0 0 0-.205.323L512 291.588a.4.4 0 0 0 .386.412.402.402 0 0 0 .426-.374l4.141-82.06 23.508-12.824.196-.25-.056-.308-5.094-7.476 7.17-1.43a.393.393 0 0 0 .317-.449l-1.596-9.5a.405.405 0 0 0-.467-.324.394.394 0 0 0-.335.45"/>
            <path fill="#222123" d="M509.71 177.113l-7.596 7.702a.398.398 0 0 0-.106.36c.027.131.118.24.239.286l5.632 2.18-5.302 5.054a.4.4 0 0 0-.03.542l13.785 16.626a.372.372 0 0 0 .536.043.4.4 0 0 0 .041-.552l-13.549-16.34 5.485-5.23a.395.395 0 0 0 .115-.362.388.388 0 0 0-.238-.291l-5.652-2.187 7.172-7.273a.4.4 0 0 0 .005-.554.37.37 0 0 0-.537-.004"/>
            <path fill="#0087BA" d="M523 214h20v-3h-20z"/>
            <path fill="url(#z)" d="M145.086 65.492c5.964-3.844 14.094.235 17.236 6.596l32.164 50.807c3.489 7.067.751 15.628-6.191 19.357-7.523 4.043-16.894.812-20.321-7.007-3.041-6.936-10.795-18.96-17.849-30.189-5.327-8.481-8.07-11.483-10.258-16.51-3.056-7.023 2.76-21.469 5.219-23.054" transform="translate(402 114)"/>
            <path fill="#222123" d="M557.942 228.404l-9.23-15.218a.38.38 0 0 0-.529-.127.394.394 0 0 0-.126.537l9.23 15.218c.112.184.35.24.53.128a.395.395 0 0 0 .125-.538"/>
            <path fill="url(#A)" d="M142.002 162l-10.918 10.488-10.15-.29a7.01 7.01 0 0 0-3.318.498l-11.783 4.825c-1.702.696-2.833 2.484-2.833 4.479h32.925L149 172.055 142.002 162" transform="translate(402 114)"/>
            <path fill="url(#B)" d="M132 164.145l39.13-43.791c5.757-5.877 15.301-5.793 20.953.183 5.717 6.044 5.098 15.614-1.35 20.887L144.76 181 132 164.145" transform="translate(402 114)"/>
            <path fill="#222123" d="M534.1 276.813a.383.383 0 0 0-.021.49l3.49 4.542a.404.404 0 0 0 .557.077.382.382 0 0 0 .08-.543l-3.295-4.29 23.99-26.443a.383.383 0 0 0-.035-.548.404.404 0 0 0-.562.033L534.1 276.813z"/>
        </g>
        <g>
            <path fill="#F99393" d="M320.417 159L316 186.133 340.004 190 343 160.615 320.417 159"/>
            <path fill="#E3696A" d="M330 168.699s0 5.39 10.896 10.301L342 168l-12 .699"/>
            <path fill="#F99393" d="M337.874 124.034s20.372-1.55 20.124 16.219c-.116 8.2-.683 16.49-1.262 23.039-.613 6.943-7.037 11.81-13.809 10.492L323 169.907l14.874-45.873"/>
            <path fill="#F99393" d="M356.68 149l4.247 8.396c.305.82-.383 1.665-1.302 1.6l-5.625-.39 2.68-9.606"/>
            <path fill="url(#C)" d="M85.68 21.533s9.507 12.877-2.987 16.17l-7.492 2.034s.653 13.346-16.422 10.982c0 0-4.83-13.255-9.603-19.57 0 0-4.688-9.123 4.654-11.977 0 0-4.842-8.675 10.987-10.314C80.644 7.218 80.037-2.733 90.376.725c10.339 3.456 11.434 20-4.695 20.808" transform="translate(261 113)"/>
            <path fill="#F99393" d="M331.044 148.691a7.5 7.5 0 1 0 14.912 1.617 7.5 7.5 0 0 0-14.912-1.617"/>
            <path fill="#E3696A" d="M342.972 152.517a5.6 5.6 0 0 0 .028-.603c-.003-.783-.112-2.207-.917-3.506-.795-1.306-2.395-2.424-5.004-2.408-.173 0-.349.005-.529.015-.321.016-.566.27-.55.569.018.298.293.526.614.51a9.32 9.32 0 0 1 .465-.013c2.272.018 3.341.854 3.996 1.869.643 1.022.764 2.284.76 2.964 0 .157-.006.282-.012.367l-.008.12c-.035.297.195.564.516.596.32.032.607-.181.641-.48"/>
            <path fill="#FDB8B8" d="M285.459 255.91C305.052 274.207 339 305.432 339 305.432L331.346 320l-63.93-41.31c-7.649-5.174-8.63-16.087-2.022-22.547 5.559-5.43 14.384-5.537 20.065-.232"/>
            <path fill="#E3696A" d="M330.239 326.603c-5.305-4.838-5.681-13.06-.843-18.365 4.84-5.304 13.062-5.68 18.367-.842 5.302 4.84 5.68 13.063.841 18.366-4.84 5.304-13.061 5.68-18.365.841"/>
            <path fill="#E3696A" d="M353.592 316s5.114-2.958.437-7.848c-4.678-4.888-13.471-8.663-23.029.136L353.592 316"/>
            <path fill="url(#D)" d="M7.62 166.884c8.033 5.173 16.008 3.934 21.446-3.931L51 122.74 21.01 107c-7.685 14.195-17.978 35.87-17.978 35.87-4.953 9.296-4.118 18.413 4.587 24.014" transform="translate(261 113)"/>
            <path fill="#11CFA6" d="M308.467 232.6l11.598-21c4.904-7.002 3.533-16.558-3.146-21.937-7.211-5.804-17.842-4.575-23.497 2.724-4.048 5.226-9.668 15.078-15.535 25.613a244.4 244.4 0 0 0-.887 1.609L304.819 244l3.648-11.4"/>
            <path fill="#00B38D" d="M311 189.486l1.255-5.498c.586-2.558 3.085-4.268 5.775-3.95l20.346 2.401c2.82.333 4.857 2.77 4.602 5.506l-.755 8.055L311 189.486"/>
            <path fill="url(#E)" d="M76.778 72.422c13.692 2.706 23.228 15.252 22.137 29.243L92.73 181h-61.8s-4.164-71.235-2.562-91.596c.881-11.219 10.022-20.954 21.197-20.38 8.178.42 16.849 1.35 27.214 3.398z" transform="translate(261 113)"/>
            <path fill="#222123" d="M310.4 183.843l32.068 4.153c.255.033.49-.128.528-.36.035-.232-.142-.445-.396-.479l-32.068-4.153c-.254-.033-.49.128-.527.36-.037.23.141.445.395.479M288.378 203.423c0 .007-.378 7.995-.378 17.837 0 2.988.035 6.145.126 9.303.007.252.152.446.324.437.172-.011.305-.224.298-.474-.09-3.143-.125-6.29-.125-9.266 0-4.904.094-9.35.188-12.567.095-3.218.188-5.202.188-5.206.012-.251-.117-.468-.29-.486-.17-.017-.319.173-.33.422"/>
            <path fill="url(#F)" d="M158.783 93L165 103.832l-37.157 66.962c-4.67 8.026-15.394 9.646-22.147 3.347-5.682-5.298-6.29-14.207-1.376-20.25C121.273 133.04 158.783 93 158.783 93z" transform="translate(261 113)"/>
            <path fill="url(#G)" d="M190.52 68.693a2.034 2.034 0 0 0-2.77-.272l-20.875 15.771 3.98-8.986c.47-1.093-.086-2.348-1.22-2.754a2.123 2.123 0 0 0-2.485.813l-5.927 7.465a10.746 10.746 0 0 0-1.665 4.264L158 94.797l7.01 9.203 10.398-6.86 3.064-2.355a9.901 9.901 0 0 0 3.6-5.53l3.07-12.794 5.253-5.07c.756-.728.81-1.907.125-2.698" transform="translate(261 113)"/>
            <path fill="url(#H)" d="M117.27 177.85c9.067-3.204 10.209-9.21 7.324-18.39L104.814 118 78 130.237c6.523 14.876 17.373 36.442 17.373 36.442 2.67 10.078 12.074 14.639 21.897 11.17" transform="translate(261 113)"/>
            <path fill="url(#I)" d="M106.844 114.045L97.43 91.654c-2.52-8.292-10.783-13.182-18.966-11.223-8.832 2.114-14.236 11.359-11.934 20.436 1.647 6.499 5.958 17.146 10.65 28.418.234.559.476 1.134.723 1.715L108 116.796l-1.156-2.75" transform="translate(261 113)"/>
            <path fill="#222123" d="M334.277 195.05c-.04.021-1.85.939-3.663 3.182-1.814 2.24-3.617 5.816-3.614 11.074 0 4.134 1.107 9.297 4.153 15.684l.42-.194-.428.176 7.963 18.747c.098.234.37.343.607.245a.455.455 0 0 0 .25-.598L332 224.618l-.008-.017c-3.002-6.293-4.066-11.324-4.065-15.295.002-5.05 1.711-8.398 3.411-10.505a13.27 13.27 0 0 1 2.332-2.265c.317-.236.58-.407.76-.517l.205-.12.064-.034a.457.457 0 0 0 .202-.616.468.468 0 0 0-.625-.199"/>
            <path fill="url(#J)" d="M30.656 189s-17.074 22.26 8.11 70H111l-18.145-70h-62.2" transform="translate(261 113)"/>
            <path fill="#222123" d="M292 302h62v-8h-62zM303.454 349.83h33.092c.251 0 .454-.148.454-.33 0-.183-.203-.33-.454-.33h-33.092c-.251 0-.454.147-.454.33 0 .181.203.33.454.33"/>
            <path fill="#222123" d="M319.036 349.616l10.07 23.11c.097.227.37.333.607.24a.438.438 0 0 0 .251-.581l-10.07-23.11a.472.472 0 0 0-.607-.24.438.438 0 0 0-.251.581M320.529 313.622l.002.525 21.652-.092.74 10.561v-.005c.013.218.02.434.02.651 0 5.816-4.717 10.625-10.646 10.685l-.113.001c-5.396 0-9.966-3.98-10.665-9.312l-.524.068.528-.019-.466-13.082-.528.019.002.525-.002-.525-.529.018.465 13.083.004.05c.77 5.855 5.788 10.226 11.715 10.227l.124-.001c6.513-.069 11.692-5.347 11.692-11.737 0-.237-.007-.475-.022-.714v-.005l-.775-11.054a.526.526 0 0 0-.53-.489l-22.147.096a.522.522 0 0 0-.526.544l.529-.018"/>
        </g>
    </g>
</svg>
