<svg xmlns="http://www.w3.org/2000/svg" width="12" height="12" fill="none" viewBox="0 0 12 12">
    <g opacity=".8">
        <path fill="#FF7D47" d="M11.813 4.189v7.623H.187V4.19C3.46 1.81 2.15 2.768 5.792.069 5.853.023 5.926 0 6 0c.037 0 .074.006.109.017l.026.01.026.012.024.014c.009.005.017.01.024.016 3.568 2.644 2.264 1.693 5.604 4.12z"/>
        <path fill="#FF7D47" d="M11.813 4.189v7.623H6V0c.037 0 .074.006.109.017l.026.01.026.012.024.014c.009.005.017.01.024.016 3.568 2.644 2.264 1.693 5.604 4.12z"/>
        <path fill="#EEF4FF" d="M9.352.352v8.273c0 .194-.158.352-.352.352H3c-.194 0-.352-.158-.352-.352V.352C2.648.158 2.806 0 3 0h6c.194 0 .352.158.352.352z"/>
        <path fill="#D9E6FC" d="M9.352.352v8.273c0 .194-.158.352-.352.352H6V0h3c.194 0 .352.158.352.352z"/>
        <path fill="#FFE278" d="M5.44 7.779L.56 4.216c-.107-.078-.249-.09-.367-.03S0 4.369 0 4.5v7.148c0 .196.159.352.352.352.073 0 .146-.023.208-.068l4.882-3.586c.19-.14.191-.427-.001-.567z"/>
        <path fill="#FFB454" d="M11.808 4.187c-.118-.06-.26-.049-.367.029L6.56 7.779c-.191.14-.193.426 0 .567l4.881 3.586c.062.045.135.068.209.068.192 0 .351-.156.351-.352V4.5c0-.132-.074-.253-.192-.313z"/>
        <path fill="#FF9D21" d="M.018 11.758c.047.144.182.242.334.242h11.296c.152 0 .287-.098.334-.242.048-.144-.003-.303-.125-.393L6.208 7.217c-.124-.091-.292-.091-.416 0L.143 11.365c-.122.09-.173.248-.125.393z"/>
        <path fill="#FFB454" d="M.018 11.758c.047.144.182.242.334.242H6V7.148c-.073 0-.146.023-.208.069L.143 11.365c-.122.09-.173.248-.125.393z"/>
    </g>
</svg>
