<svg xmlns="http://www.w3.org/2000/svg" width="290" height="218" viewBox="0 0 290 218">
    <defs>
        <linearGradient id="a" x1="50%" x2="50%" y1="0%" y2="100%">
            <stop offset="0%" stop-color="#FEA7A7"/>
            <stop offset="100%" stop-color="#FD8B8B"/>
        </linearGradient>
        <linearGradient id="b" x1="50%" x2="50%" y1="0%" y2="100%">
            <stop offset="0%" stop-color="#FEA7A7"/>
            <stop offset="100%" stop-color="#FD8B8B"/>
        </linearGradient>
        <linearGradient id="c" x1="50%" x2="50%" y1="0%" y2="100%">
            <stop offset="0%" stop-color="#FEC1C1"/>
            <stop offset="100%" stop-color="#FC8E8E"/>
        </linearGradient>
        <linearGradient id="d" x1="50%" x2="50%" y1="-5.774%" y2="100%">
            <stop offset="0%" stop-color="#FC8E8E"/>
            <stop offset="100%" stop-color="#FEA4A4"/>
        </linearGradient>
    </defs>
    <g fill="none" fill-rule="evenodd">
        <path fill="#E7E4E4" d="M207.508 168.316c-3.18 2.854-6.693 5.376-10.449 7.626-13.099 7.897-29.333 12.684-46.233 16.534-.954.212-1.923.44-2.893.65-2.62.589-5.179.8-7.662.694-26.88-1.132-45.189-40.86-50.822-82.672-5.028-37.222 3.286-79.381 40.509-81.254 13.978-.694 30.287 6.252 45.461 17.426 1.09.8 2.18 1.63 3.256 2.476v.017h.015c.227.164.454.345.666.527 28.228 22.423 51.322 58.86 45.992 86.251-2.666 13.68-9.041 23.904-17.84 31.725zM93.43 171.196c2.085 4.154 2.848 9.408-1.333 11.1-4.669 1.891-12.106-1.164-14.27-8.096-1.384-4.429-.91-10.611 2.914-12.99 3.271-2.033 10.13 4.893 12.689 9.986M209.333 75.8c-1.69-1.64-3.041-4.078-1.616-5.722 1.592-1.834 5.32-1.77 7.588 1.222 1.45 1.912 2.462 5.047 1.321 6.958-.977 1.634-5.218-.445-7.293-2.458"/>
        <path fill="#B6C3D9" d="M176.076 84l-.15-.012c-.006-.598.002-1.267.02-1.988l.13.08V84m-.017-3l-.118-.078c.026-.916.066-1.901.118-2.922v3"/>
        <path fill="#AAB8D3" d="M176.183 81.25c-.044-.041-.088-.084-.13-.126l.012-.681.118.114v.694"/>
        <path fill="#B6C3D9" d="M125.776 110.097h-1.502l-.156-.5h2c-.115.168-.23.334-.342.5"/>
        <path fill="#A4B2D0" d="M169.757 110H125l.471-.369h44.286c6.54 0 11.862-5.147 11.862-11.475V86l.381.122v12.034c0 6.531-5.492 11.844-12.243 11.844M124 109.625h-11.867c-.045-.083-.09-.166-.133-.25h11.779c.074.084.147.168.221.25"/>
        <path fill="#658F9B" d="M144.311 54.846c.994 0 1.807.81 1.807 1.8v10.4c0 .99-.813 1.8-1.807 1.8h-14.385a1.81 1.81 0 0 1-1.808-1.8v-10.4c0-.99.813-1.8 1.808-1.8h14.385zM165.311 54.846c.994 0 1.807.81 1.807 1.8v10.4c0 .99-.813 1.8-1.807 1.8h-14.385a1.81 1.81 0 0 1-1.808-1.8v-10.4c0-.99.813-1.8 1.808-1.8h14.385z"/>
        <path fill="url(#a)" d="M188.118 61.846c-.498 3.186-1.496 20.432-1.08 24.438.414 4.004-19.26 5.148-16.688.734 2.574-4.412.747-19.042.747-19.042l17.02-6.13"/>
        <path fill="#CA7B45" d="M187.118 61.846l-16 6.158s1.081 9.296.431 15.843c6.598-2.846 5.137-8.668 5.134-11.796-.004-2.842 10.451-9.665 10.435-10.205M165.754 62.846l-1.636 4.88 2 1.12-.364-6"/>
        <path fill="url(#b)" d="M165.386 61.702c-1.488 9.803-4.012 19.579 8.412 17.97 12.425-1.61 14.357-16.846 14.32-19.72-.193-15.336-19.81-17.528-22.732 1.75"/>
        <path fill="#1D1E1C" d="M189.98 50.338c-.074.026-.056.028-.037 0 .02-.03-.084-.13-.314-.3-.052-.096-.083-.103-.118-.31l.023-.323c-.035-4.062-19.467-2.89-22.683.741-1.899 2.143.12 2.713 3.416 2.614-.268.235-.471.472-.523.712-2.17 10.332 8.073 20.504 9.263 21.375h8.359s8.642-20.686 2.617-24.481c-.038 0 .044-.044-.003-.028z"/>
        <path fill="url(#c)" d="M214.092 134.487c-1.056-4.816-6.53-25.644-10.87-35.64l-11.104 2.434s7.162 24.634 10.968 33.83c-.883 4.947-5.381 27.97-8.157 34.415-1.217 2.933 3.412 4.156 4.55 2.716 1.134-1.442 13.872-27.788 14.569-35.977.016-.177-.003-.328.001-.498.065-.402.094-.822.043-1.28"/>
        <path fill="#DAA43B" d="M197.596 89.117c6.072 4.682 15.522 24.637 15.522 24.637l-19.94 5.093s-11.601-42.084 4.418-29.73"/>
        <path fill="#0087BA" d="M207.118 168.151c-3.141 2.916-6.612 5.493-10.321 7.793-12.94 8.072-28.975 12.965-45.668 16.903a4.063 4.063 0 0 1 0-.604c.538-9.554 1.421-20.466 2.947-27.397l42.795.88 10.112.216c.045.525.09 1.266.135 2.21"/>
        <path fill="#222123" d="M182.939 182.634l1.178-9.543c.015-.127-.156-.236-.382-.244-.227-.009-.423.086-.44.212l-1.176 9.543c-.015.126.156.236.382.244.227.009.423-.087.438-.212"/>
        <path fill="#FCB716" d="M200.84 95.27c2.274 7.908 6.278 55.676 6.278 71.637 0 0-34.75 2.53-54-.712 6.033-20.95 6.687-58.619 6.808-69.84.092-8.423 8.656-12.971 23.377-12.471 11.61.392 15.537 4.42 17.537 11.386z"/>
        <path fill="#1D1E1C" d="M165.756 62.803c.054.552-.19 1.019-.542 1.043-.354.023-.682-.405-.734-.956-.054-.552.188-1.019.542-1.043.352-.023.682.405.734.956M167.432 60.846c-1.14-1.582-3.056-1.227-3.137-1.209l-.177-.73c.103-.02 2.55-.49 4 1.532l-.686.407"/>
        <path fill="#DAA43B" d="M159.984 99.162c-.088 5.638-.293 14.632-.866 24.684 4.891-6.184 9.694-13.563 9.973-19.077.397-7.58-3.716-8.047-9.107-5.607"/>
        <path fill="#FCB716" d="M122.311 54.846c.994 0 1.807.81 1.807 1.8v10.4c0 .99-.813 1.8-1.807 1.8h-14.385a1.81 1.81 0 0 1-1.808-1.8v-10.4c0-.99.813-1.8 1.808-1.8h14.385z"/>
        <path fill="#658F9B" d="M100.311 54.846c.994 0 1.807.81 1.807 1.8v10.4c0 .99-.813 1.8-1.807 1.8H85.926a1.81 1.81 0 0 1-1.808-1.8v-10.4c0-.99.813-1.8 1.808-1.8h14.385zM122.311 78.847c.994 0 1.807.81 1.807 1.8v10.4c0 .99-.813 1.8-1.807 1.8h-14.385a1.81 1.81 0 0 1-1.808-1.8v-10.4c0-.99.813-1.8 1.808-1.8h14.385zM100.311 78.847c.994 0 1.807.81 1.807 1.8v10.4c0 .99-.813 1.8-1.807 1.8H85.926a1.81 1.81 0 0 1-1.808-1.8v-10.4c0-.99.813-1.8 1.808-1.8h14.385zM144.311 78.847c.994 0 1.807.81 1.807 1.8v10.4c0 .99-.813 1.8-1.807 1.8h-14.385a1.81 1.81 0 0 1-1.808-1.8v-10.4c0-.99.813-1.8 1.808-1.8h14.385zM165.311 78.847c.994 0 1.807.81 1.807 1.8v10.4c0 .99-.813 1.8-1.807 1.8h-14.385a1.81 1.81 0 0 1-1.808-1.8v-10.4c0-.99.813-1.8 1.808-1.8h14.385z"/>
        <path fill="#FFF" d="M110.03 67c.277-2.25 2.396-4 4.97-4s4.693 1.75 4.97 4h-9.94z"/>
        <path fill="#D8D8D8" d="M88.03 67c.277-2.25 2.396-4 4.97-4s4.693 1.75 4.97 4h-9.94zM110.03 91c.277-2.25 2.396-4 4.97-4s4.693 1.75 4.97 4h-9.94zM88.03 91c.277-2.25 2.396-4 4.97-4s4.693 1.75 4.97 4h-9.94zM132.03 91c.277-2.25 2.396-4 4.97-4s4.693 1.75 4.97 4h-9.94zM154.03 91c.277-2.25 2.396-4 4.97-4s4.693 1.75 4.97 4h-9.94z"/>
        <circle cx="115.118" cy="58.846" r="3" fill="#FFF"/>
        <circle cx="93.118" cy="58.846" r="3" fill="#D8D8D8"/>
        <circle cx="115.118" cy="82.847" r="3" fill="#D8D8D8"/>
        <circle cx="93.118" cy="82.847" r="3" fill="#D8D8D8"/>
        <circle cx="137.118" cy="82.847" r="3" fill="#D8D8D8"/>
        <circle cx="159.118" cy="82.847" r="3" fill="#D8D8D8"/>
        <path fill="url(#d)" d="M166.118 101.445l-5.935-10.06s-16.21 11.992-24.903 19.395c-4.3-7.757-11.66-21.825-13.26-27.2l-.016-.038c.802-1.369 1.633-3.8 1.877-5.289l.026-.109.014-.199.036-.276c.011-.212.017-.366.02-.5.049-2.443-.985-3.935-.562-7.021.296-2.151-2.105-1.408-2.573.02 0 0-.093.575-.189 1.274-.602-1.492-4.244-10.379-5.633-10.581-1.532-.224-.511 2.195.346 4.57.37 1.03.645 1.848.88 2.585-2.024.472-3.83 4.038-4.111 5.533-.3 1.605 3.414 9.845 4.47 11.342l.275.267c.756 4.432 7.284 30.484 11.904 36.703 2.862 3.853 6.51 3.55 8.644 1.492 5.153-3.39 21.261-14.751 28.69-21.908"/>
        <path fill="#FCB716" d="M177.091 90.79c-.6 11.443-20.8 31.056-20.8 31.056l-11.173-19.312s33.065-32.537 31.973-11.745"/>
        <path fill="#FD8F8F" d="M171.464 64.128c-.363 2.454-.892 4.88 1.109 4.71 2.002-.17 2.508-3.991 2.538-4.72.169-3.887-2.931-4.817-3.647.01"/>
        <path fill="#D8D8D8" d="M132.03 67c.277-2.25 2.396-4 4.97-4s4.693 1.75 4.97 4h-9.94zM154.03 67c.277-2.25 2.396-4 4.97-4s4.693 1.75 4.97 4h-9.94z"/>
        <circle cx="137.118" cy="58.846" r="3" fill="#D8D8D8"/>
        <circle cx="159.118" cy="58.846" r="3" fill="#D8D8D8"/>
    </g>
</svg>
