<svg xmlns="http://www.w3.org/2000/svg" width="290" height="215" viewBox="0 0 290 215">
    <defs>
        <linearGradient id="a" x1="50%" x2="50%" y1="0%" y2="100%">
            <stop offset="0%" stop-color="#F5F3F4"/>
            <stop offset="100%" stop-color="#E1E1E1"/>
        </linearGradient>
        <linearGradient id="b" x1="50%" x2="50%" y1="0%" y2="100%">
            <stop offset="0%" stop-color="#FFB8B8"/>
            <stop offset="100%" stop-color="#FD8282"/>
        </linearGradient>
        <linearGradient id="c" x1="50%" x2="50%" y1="0%" y2="100%">
            <stop offset="0%" stop-color="#FEAFAF"/>
            <stop offset="100%" stop-color="#FC8686"/>
        </linearGradient>
        <linearGradient id="d" x1="77.331%" x2="31.965%" y1="12.38%" y2="82.428%">
            <stop offset="0%" stop-color="#FFF"/>
            <stop offset="100%" stop-color="#FAFAFA"/>
        </linearGradient>
        <linearGradient id="e" x1="38.568%" x2="65.592%" y1="2.526%" y2="97.445%">
            <stop offset="0%" stop-color="#FFF"/>
            <stop offset="100%" stop-color="#F8F8F8"/>
        </linearGradient>
        <linearGradient id="f" x1="50%" x2="50%" y1="3.412%" y2="100%">
            <stop offset="0%" stop-color="#FFF"/>
            <stop offset="100%" stop-color="#F2F2F2"/>
        </linearGradient>
        <linearGradient id="g" x1="50%" x2="50%" y1="0%" y2="100%">
            <stop offset="0%" stop-color="#FFF"/>
            <stop offset="100%" stop-color="#FFFFFE"/>
        </linearGradient>
        <linearGradient id="h" x1="50%" x2="50%" y1="50%" y2="100%">
            <stop offset="0%" stop-color="#FFB8B8"/>
            <stop offset="100%" stop-color="#FD8282"/>
        </linearGradient>
        <linearGradient id="i" x1="75.895%" x2="19.258%" y1="0%" y2="94.136%">
            <stop offset="0%" stop-color="#FDFDFD"/>
            <stop offset="100%" stop-color="#F6F6F6"/>
        </linearGradient>
    </defs>
    <g fill="none" fill-rule="evenodd">
        <path fill="url(#a)" d="M206.26 187.758c-4.192 2.536-9.07 4.368-14.445 5.557-3.57.783-7.371 1.3-11.33 1.519-14.554.892-31.29-1.847-47.42-7.327-3.615-1.22-7.2-2.583-10.721-4.086-26.227-11.084-49.025-29.181-55.414-50.16-11.672-38.292 13.386-65.83 42.402-91.098 11.765-10.254 27.1-8.782 42.963-.125 3.709 2.02 7.433 4.43 11.158 7.17 13.978 10.317 27.816 25.33 39.504 42.02 22.938 32.766 36.215 76.665 3.303 96.53"/>
        <path fill="#E7E4E4" d="M189.407 60.061c-1.737-3.586-2.374-8.124 1.11-9.587 3.89-1.631 10.089 1.007 11.893 6.994 1.152 3.824.756 9.164-2.43 11.217-2.726 1.758-8.442-4.225-10.573-8.624"/>
        <path fill="#FD8282" d="M154 71.895l.353 16.386c.132 4.606 3.526 4.843 8.375 4.686 4.14-.133 7.642-1.381 8.014-5.238L171 70l-17 1.895"/>
        <path fill="#EF6565" d="M154.28 85s13.846-2.12 14.72-13l-15 7.695.28 5.305"/>
        <path fill="#222123" d="M172.762 61s8.311-12.048-1.697-13.437c-5.976-.83-7.7-2.61-15.008-5.039-8.455-2.81-20.088 6.175-7.547 15.081l19.598-4.049L172.762 61"/>
        <path fill="#FD8F8F" d="M154.997 65.344a4.5 4.5 0 1 1-8.995.312 4.5 4.5 0 0 1 8.995-.312"/>
        <path fill="url(#b)" d="M97.667 36.995c-4.72.168-8.637-3.74-8.645-8.628L89 16.372c-.01-6.125 4.678-11.153 10.593-11.365 6.057-.217 12.198 4.65 12.407 10.917l-.207 12.577c-.066 4.477-3.514 8.114-7.839 8.269l-6.287.225z" transform="translate(60 42)"/>
        <path fill="#222123" d="M169.405 64s-7.209-3.76-4.79-9.979c0 0-10.583-5.703-15.615-.042l.063-7.979 16.698 1.055L173 55.259l-1.175 6.927-2.42 1.814"/>
        <path fill="#FE9595" d="M177.997 65.345a4.5 4.5 0 1 1-8.993.311 4.5 4.5 0 0 1 8.993-.311"/>
        <path fill="#732A26" d="M172.627 65.662v-.036c-.002-.18.026-.966.354-1.662.163-.35.396-.673.73-.912.334-.237.775-.4 1.397-.4.167 0 .346.011.538.037a.315.315 0 0 0 .351-.28.324.324 0 0 0-.27-.365 4.574 4.574 0 0 0-.619-.044c-.728-.001-1.31.199-1.752.515-.667.477-1 1.185-1.171 1.795a5.07 5.07 0 0 0-.185 1.316v.06a.32.32 0 0 0 .327.314.322.322 0 0 0 .3-.338"/>
        <path fill="#222123" d="M153.249 65.27l-.248 2.42c-.009.082.035.163.116.221a.54.54 0 0 0 .319.089l2.157-.051c.233-.006.414-.14.407-.299-.008-.16-.203-.284-.435-.279l-1.691.04.214-2.102c.017-.16-.158-.297-.39-.308-.232-.012-.432.108-.449.268M153 64.448a1.501 1.501 0 0 1-3 .104 1.5 1.5 0 0 1 3-.104M161 64.448a1.501 1.501 0 0 1-3 .104 1.5 1.5 0 0 1 3-.104M160.954 59.024s-1.944-.258-1.954.931c0 0 .008.806 1.705.983 1.695.176 2.135-.006 2.283-.763.148-.754-1.123-1.135-2.034-1.151M151.433 59.022s1.44-.25 1.566.95c0 0 .074.812-1.186.981-1.262.168-1.675-.124-1.798-.78-.14-.745.733-1.14 1.418-1.151"/>
        <path fill="url(#c)" d="M79.249 35.12s-13.67 24.596-20.411 38.986C48.59 67.17 30.574 54.323 25.256 48.68l-.045-.039c.21-2.17-.192-5.667-.776-7.649l-.032-.146-.103-.256-.12-.361c-.114-.268-.199-.46-.279-.627-1.413-3.037-3.654-4.248-4.975-8.301-.92-2.829-3.571-.456-3.31 1.586 0 0 .395 1.322.84 2.597-1.753-.815-3.268-1.31-4.289-.976-1.236.409-2.618 6.544-2.025 8.735.582 2.16 6.645 9.134 8.915 10.337l.515.16c3.66 4.997 27.859 33.097 37.586 37.949 6.026 3.006 10.551.415 12.064-3.412C73.82 80.973 87.738 57.213 93 43.896L79.249 35.12z" transform="rotate(23 -21.718 229.955)"/>
        <path fill="#FFFFFE" d="M153.002 69H160s.143 3-3.529 3c-3.673 0-3.468-3-3.468-3"/>
        <path fill="url(#d)" d="M99.551 51.805c2.7 4.46 1.527 10.254-2.69 13.303l-10.881 9.77-25.029 21.095c-4.685 3.386-11.2 2.436-14.73-2.15-3.826-4.969-2.552-11.614 2.616-15.591 4.401-3.388 11.543-9.584 18.805-16.06 5.487-4.892 14.626-11.365 17.994-13.56 4.706-3.068 11-1.621 13.915 3.193" transform="translate(60 42)"/>
        <path fill="url(#e)" d="M34.708 43l27.737 38.627c3.172 5.262 1.329 12.122-4.048 15.061-5.438 2.972-12.24.712-14.847-4.933L23 50.049 34.708 43" transform="translate(60 42)"/>
        <path fill="#222123" d="M97.544 89.044l-12.403 7.423a.283.283 0 0 0-.097.396.306.306 0 0 0 .412.094l12.403-7.424a.282.282 0 0 0 .096-.397.304.304 0 0 0-.41-.092"/>
        <path fill="url(#f)" d="M111.19 46l13.953 2.845c1.953.398 3.354 2.097 3.354 4.067l1.476 99.108c-12.145.8-21.273.854-27.385.163-6.111-.69-15.151-2.798-27.12-6.323l5.811-86.878c.425-5.637 4.475-10.363 10.033-11.708l4.118-.996 3.718 3.23L111.19 46z" transform="translate(60 42)"/>
        <path fill="#0087BA" d="M154.041 88.28l-2.041.498L157.182 113S170.452 90.21 175 89.06L169.837 88l-12.069 3.542-3.727-3.261"/>
        <path fill="#222123" d="M154.49 94.71l3.745-3.058 7.27 6.275a.31.31 0 0 0 .417-.017.266.266 0 0 0-.018-.393l-7.463-6.444a.31.31 0 0 0-.394-.005l-3.945 3.222a.266.266 0 0 0-.029.392.308.308 0 0 0 .417.028"/>
        <path fill="#222123" d="M158.222 91.278l-.103 17.441c-.001.155.146.28.328.281.182 0 .33-.124.331-.278l.103-17.441c.001-.154-.146-.28-.327-.281-.182 0-.331.124-.332.278M139.82 121.723l1.18-12.406c.014-.164-.157-.305-.383-.316-.227-.012-.423.112-.44.276l-1.176 12.406c-.015.163.156.305.382.316.227.012.423-.113.438-.276M175.217 88.34l1.138 6.827-5.471 1.1a.3.3 0 0 0-.218.176.287.287 0 0 0 .027.273l3.846 5.69-17.305 9.515a.292.292 0 0 0-.152.241L154 173.692c-.007.161.12.3.286.308a.3.3 0 0 0 .317-.28l3.072-61.367 17.441-9.59.145-.186-.04-.231-3.78-5.59 5.32-1.07a.294.294 0 0 0 .235-.335l-1.184-7.105a.301.301 0 0 0-.347-.242.295.295 0 0 0-.248.337"/>
        <path fill="#222123" d="M152.654 89.082l-5.57 5.602a.288.288 0 0 0 .097.47l4.13 1.585-3.888 3.675a.29.29 0 0 0-.022.395l10.11 12.091c.1.12.275.134.392.031a.29.29 0 0 0 .03-.4l-9.936-11.884 4.023-3.804a.286.286 0 0 0 .084-.263.282.282 0 0 0-.174-.212l-4.145-1.59 5.26-5.29a.29.29 0 0 0 .003-.403.273.273 0 0 0-.394-.003"/>
        <path fill="#0087BA" d="M162 117h15v-3h-15z"/>
        <path fill="url(#g)" d="M119.59 48.12c4.5-2.884 10.633.175 13.004 4.946l24.264 38.105c2.632 5.3.567 11.721-4.67 14.518-5.676 3.032-12.745.609-15.33-5.256-2.295-5.201-8.144-14.22-13.465-22.64-4.02-6.362-6.089-8.613-7.739-12.384-2.306-5.267 2.082-16.101 3.937-17.29" transform="translate(60 42)"/>
        <path fill="#222123" d="M187.96 127.553l-6.462-11.414a.256.256 0 0 0-.37-.095.308.308 0 0 0-.088.403l6.461 11.414c.078.137.244.18.371.096a.309.309 0 0 0 .088-.404"/>
        <path fill="url(#h)" d="M117.828 120l-8.07 7.866-7.503-.217a5.114 5.114 0 0 0-2.452.373l-8.709 3.619C89.836 132.163 89 133.503 89 135h24.336l9.664-7.459-5.172-7.541" transform="translate(60 42)"/>
        <path fill="url(#i)" d="M111 121.553l28.735-32.338c4.23-4.34 11.238-4.278 15.389.135 4.198 4.463 3.743 11.531-.992 15.424L120.37 134 111 121.553" transform="translate(60 42)"/>
        <path fill="#222123" d="M170.072 163.272a.275.275 0 0 0-.015.352l2.513 3.264a.291.291 0 0 0 .401.056.274.274 0 0 0 .057-.39l-2.372-3.083 17.273-19.007a.275.275 0 0 0-.026-.394.292.292 0 0 0-.404.024l-17.427 19.178z"/>
        <path fill="#1D1E1C" d="M81.97 59.78l9.659-2.587 5.435 20.284-9.66 2.588z"/>
        <path fill="#5E5E5E" d="M82.84 60.6l8.694-2.329 4.659 17.387-8.693 2.329z"/>
        <path fill="#FCB716" d="M106.101 60.899c-5.468-5.466-5.468-14.331 0-19.8 5.466-5.466 14.332-5.466 19.798 0 5.468 5.469 5.468 14.334 0 19.8-5.466 5.468-14.332 5.468-19.798 0z"/>
        <path fill="#0087BA" d="M116.376 51L128 62.335c-6.375 6.22-16.872 6.22-23.247 0-2.733-2.663-4.417-6.183-4.753-9.937L116.376 51"/>
        <path fill="#FF748E" d="M116 51.21L100.107 53a15.018 15.018 0 0 1 2.337-10L116 51.21"/>
        <path fill="#FCB716" d="M53 145h9v18h-9z"/>
        <path fill="#0087BA" d="M66 143h9v20h-9z"/>
        <path fill="#00B38E" d="M80 134h9v29h-9z"/>
    </g>
</svg>
