<svg width="57" height="64" viewBox="0 0 57 64" fill="none" xmlns="http://www.w3.org/2000/svg">
<path d="M54.375 26.375H45V24.5C45 23.8085 44.6194 23.1731 44.0097 22.8469C43.4 22.5206 42.6602 22.5564 42.085 22.9399L30.835 30.4399C30.3134 30.7876 30 31.3731 30 32C30 32.6269 30.3132 33.2124 30.835 33.5601L42.085 41.0601C42.6617 41.4446 43.4017 41.4786 44.0097 41.1531C44.6194 40.8269 45 40.1915 45 39.5V37.625H54.375C55.4105 37.625 56.25 36.7855 56.25 35.75V28.25C56.25 27.2145 55.4105 26.375 54.375 26.375ZM25.4714 0.354005C24.9825 0.00150502 24.354 -0.09437 23.7821 0.096255L1.28212 7.59625C0.5165 7.8515 0 8.568 0 9.375V54.625C0 55.4321 0.516375 56.1485 1.28212 56.4037L23.7821 63.9037C24.3589 64.0961 24.9871 63.9951 25.4714 63.646C25.9602 63.2937 26.25 62.7277 26.25 62.125V1.875C26.25 1.27238 25.9602 0.70638 25.4714 0.354005ZM16.875 33.875C15.8395 33.875 15 33.0355 15 32C15 30.9645 15.8395 30.125 16.875 30.125C17.9105 30.125 18.75 30.9645 18.75 32C18.75 33.0355 17.9105 33.875 16.875 33.875Z" fill="url(#paint0_linear)"/>
<defs>
<linearGradient id="paint0_linear" x1="28.125" y1="64" x2="28.125" y2="7.62939e-06" gradientUnits="userSpaceOnUse">
<stop stop-color="#07AE8B"/>
<stop offset="1" stop-color="#00B38E"/>
</linearGradient>
</defs>
</svg>
