<svg width="22" height="24" viewBox="0 0 22 24" fill="none" xmlns="http://www.w3.org/2000/svg">
<path d="M20.3906 9.89062H16.875V9.1875C16.875 8.92819 16.7323 8.68992 16.5037 8.56758C16.275 8.44523 15.9976 8.45864 15.7819 8.60245L11.5631 11.415C11.3675 11.5454 11.25 11.7649 11.25 12C11.25 12.2351 11.3675 12.4546 11.5631 12.585L15.7819 15.3975C15.9981 15.5417 16.2757 15.5545 16.5037 15.4324C16.7323 15.3101 16.875 15.0718 16.875 14.8125V14.1094H20.3906C20.7789 14.1094 21.0937 13.7946 21.0937 13.4062V10.5937C21.0937 10.2054 20.7789 9.89062 20.3906 9.89062ZM9.55176 0.132752C9.36843 0.000564381 9.13275 -0.0353887 8.91829 0.0360956L0.480797 2.84859C0.193687 2.94431 0 3.213 0 3.51563V20.4844C0 20.787 0.193641 21.0557 0.480797 21.1514L8.91829 23.9639C9.13457 24.036 9.37017 23.9982 9.55176 23.8672C9.73509 23.7351 9.84375 23.5229 9.84375 23.2969V0.703127C9.84375 0.477142 9.73509 0.264892 9.55176 0.132752ZM6.32812 12.7031C5.93981 12.7031 5.625 12.3883 5.625 12C5.625 11.6117 5.93981 11.2969 6.32812 11.2969C6.71643 11.2969 7.03125 11.6117 7.03125 12C7.03125 12.3883 6.71643 12.7031 6.32812 12.7031Z" fill="white"/>
</svg>
