<svg xmlns="http://www.w3.org/2000/svg" xmlns:xlink="http://www.w3.org/1999/xlink" width="77" height="57" viewBox="0 0 77 57">
    <defs>
        <path id="a" d="M0 0h49.28v19.6H0z"/>
    </defs>
    <g fill="none" fill-rule="evenodd">
        <mask id="b" fill="#fff">
            <use xlink:href="#a"/>
        </mask>
        <path fill="#007C9D" d="M46.677 9.18c-.069.347-.19.663-.36.941-.17.278-.4.5-.687.666-.285.166-.641.248-1.063.248-.423 0-.772-.082-1.055-.248a1.93 1.93 0 0 1-.68-.666 2.93 2.93 0 0 1-.358-.941 5.659 5.659 0 0 1 0-2.16c.071-.355.19-.67.359-.942a2.06 2.06 0 0 1 .679-.667c.283-.172.632-.257 1.055-.257.422 0 .778.085 1.063.257.288.173.516.394.687.667.17.272.291.587.36.941a5.577 5.577 0 0 1 0 2.16zm2.27-3.075a4.301 4.301 0 0 0-.95-1.528 4.234 4.234 0 0 0-1.486-.978c-.581-.231-1.23-.344-1.944-.344-.716 0-1.36.113-1.935.344a4.264 4.264 0 0 0-1.477.978c-.41.42-.726.93-.95 1.528-.223.597-.334 1.263-.334 1.999 0 .736.11 1.398.334 1.99.224.593.54 1.1.95 1.52.41.42.903.744 1.477.969.576.224 1.22.336 1.935.336.715 0 1.363-.112 1.944-.336a4.128 4.128 0 0 0 1.485-.97c.41-.42.727-.926.95-1.52.223-.59.334-1.253.334-1.99 0-.735-.11-1.401-.334-1.998zM36.651 12.69h2.497V0h-2.497v12.69zm-4.1 0h2.499V0h-2.499v12.69zm-3.321-3.51a2.93 2.93 0 0 1-.36.942c-.17.278-.4.5-.688.666-.286.166-.64.248-1.062.248-.423 0-.775-.082-1.056-.248a1.913 1.913 0 0 1-.677-.666 2.896 2.896 0 0 1-.361-.941 5.576 5.576 0 0 1 0-2.16c.07-.355.19-.67.36-.942a2.04 2.04 0 0 1 .678-.667c.281-.172.633-.257 1.056-.257.422 0 .776.085 1.062.257.289.173.517.394.688.667.17.272.289.587.36.941.071.356.105.718.105 1.085s-.034.726-.105 1.076zm1.319-4.602a4.216 4.216 0 0 0-1.487-.978c-.58-.231-1.227-.344-1.942-.344-.717 0-1.362.113-1.936.344a4.27 4.27 0 0 0-1.477.978c-.41.42-.727.93-.95 1.528-.222.597-.333 1.263-.333 1.999 0 .736.111 1.398.334 1.99.222.593.538 1.1.95 1.52.41.42.902.744 1.476.969.574.224 1.22.336 1.936.336.715 0 1.362-.112 1.942-.336a4.112 4.112 0 0 0 1.487-.97c.41-.42.725-.926.95-1.52.222-.59.334-1.253.334-1.99 0-.735-.112-1.401-.334-1.998a4.346 4.346 0 0 0-.95-1.528zM19.276 9.205a2.75 2.75 0 0 1-.36.935c-.17.266-.393.482-.668.647-.277.166-.619.248-1.03.248-.397 0-.737-.082-1.02-.248a1.971 1.971 0 0 1-.677-.647 2.839 2.839 0 0 1-.37-.935 5.185 5.185 0 0 1-.114-1.084c0-.379.036-.746.105-1.102.07-.354.192-.669.36-.941a2.09 2.09 0 0 1 .67-.667c.276-.172.618-.257 1.03-.257.396 0 .734.085 1.01.257.276.173.5.397.677.675.176.28.302.596.38.95.075.357.113.718.113 1.085 0 .369-.035.729-.106 1.084zm1.6-4.46a3.814 3.814 0 0 0-1.282-1.084c-.518-.271-1.133-.406-1.848-.406a3.53 3.53 0 0 0-1.547.336c-.47.225-.857.586-1.162 1.083h-.035V3.5h-2.375v16.1h2.499v-8.05h.035c.304.45.694.793 1.17 1.023.474.231.995.346 1.557.346.667 0 1.25-.132 1.749-.39.5-.26.914-.61 1.249-1.047.333-.44.581-.944.747-1.512a6.378 6.378 0 0 0 .246-1.777c0-.652-.082-1.276-.246-1.876a4.615 4.615 0 0 0-.756-1.572zM4.486 7.783L6.12 3.127h.035l1.583 4.656H4.485zM4.749 0L0 12.69h2.78l.984-2.828h4.695l.95 2.827h2.867L7.58 0H4.75z" mask="url(#b)"/>
        <g>
            <path fill="#FCB716" d="M71.147 14.56H21.813a5.013 5.013 0 0 0-5.013 5.013v35.033a.627.627 0 0 0 .978.52l3.261-2.207a12.531 12.531 0 0 1 7.02-2.15h43.088a5.013 5.013 0 0 0 5.013-5.013V19.573a5.013 5.013 0 0 0-5.013-5.013z"/>
            <text fill="#FFF" font-family="CircularStd-Bold, Circular Std" font-size="26.32" font-weight="bold" letter-spacing="-.548" transform="translate(16.8 14.56)">
                <tspan x="6.111" y="26.193">24</tspan> <tspan x="34.703" y="26.193" font-family="HelveticaNeue-UltraLight, Helvetica Neue" font-weight="200">|</tspan> <tspan x="39.998" y="26.193">7</tspan>
            </text>
        </g>
    </g>
</svg>
