<svg xmlns="http://www.w3.org/2000/svg" width="76" height="56" viewBox="0 0 76 56">
    <g fill="none" fill-rule="evenodd">
        <path fill="#007C9D" d="M17.658 3.263c.711 0 1.324.135 1.838.407.513.275.94.634 1.277 1.087.339.452.587.976.752 1.576.163.601.245 1.227.245 1.88 0 .618-.082 1.213-.245 1.782a4.633 4.633 0 0 1-.743 1.515 3.72 3.72 0 0 1-1.243 1.051c-.496.258-1.077.39-1.74.39-.56 0-1.077-.115-1.55-.347a2.903 2.903 0 0 1-1.029-.838l-.135-.187h-.034v8.07h-2.487V3.51h2.363v1.177h.035c.303-.498.689-.86 1.156-1.086a3.49 3.49 0 0 1 1.54-.337zm26.688 0c.71 0 1.355.113 1.934.345a4.21 4.21 0 0 1 1.477.98c.41.422.724.933.946 1.532.222.599.332 1.266.332 2.004s-.11 1.402-.332 1.995a4.328 4.328 0 0 1-.946 1.524c-.409.421-.899.746-1.477.971-.579.225-1.224.337-1.934.337-.713 0-1.353-.112-1.926-.337a4.133 4.133 0 0 1-1.47-.971 4.35 4.35 0 0 1-.945-1.524c-.222-.593-.332-1.257-.332-1.995 0-.738.11-1.405.332-2.004a4.34 4.34 0 0 1 .945-1.532 4.24 4.24 0 0 1 1.47-.98c.573-.232 1.213-.345 1.926-.345zm-17.36 0c.711 0 1.356.113 1.933.345a4.193 4.193 0 0 1 1.479.98c.408.422.721.933.945 1.532.221.599.332 1.266.332 2.004s-.11 1.402-.332 1.995a4.373 4.373 0 0 1-.945 1.524c-.407.421-.9.746-1.48.971-.576.225-1.22.337-1.932.337-.713 0-1.355-.112-1.926-.337a4.138 4.138 0 0 1-1.47-.971 4.319 4.319 0 0 1-.945-1.524c-.22-.593-.332-1.257-.332-1.995 0-.738.111-1.405.332-2.004.222-.6.536-1.11.945-1.532.41-.421.898-.748 1.47-.98.571-.232 1.213-.345 1.926-.345zM38.954 0v12.72H36.47V0h2.485zm-4.077 0v12.72H32.39V0h2.487zM7.542 0l4.673 12.72H9.362l-.945-2.833H3.745l-.98 2.834H0L4.726 0h2.816zm36.804 5.166c-.422 0-.77.086-1.05.258a2.057 2.057 0 0 0-.676.67 2.843 2.843 0 0 0-.358.943 5.715 5.715 0 0 0 0 2.166c.072.348.19.665.358.943.17.279.394.502.675.668.282.167.63.249 1.05.249.42 0 .774-.082 1.058-.25.286-.165.514-.388.683-.667.17-.278.29-.595.359-.943a5.632 5.632 0 0 0 0-2.166 2.789 2.789 0 0 0-.359-.944 2.026 2.026 0 0 0-.683-.669c-.284-.172-.638-.258-1.057-.258zm-17.36 0c-.421 0-.77.086-1.05.258-.281.174-.507.396-.675.67-.169.272-.288.587-.359.943a5.631 5.631 0 0 0 0 2.166c.07.348.19.665.36.943.167.279.393.502.673.668.28.167.63.249 1.051.249.42 0 .773-.082 1.057-.25a1.91 1.91 0 0 0 .685-.667 2.95 2.95 0 0 0 .358-.943c.07-.351.104-.71.104-1.08 0-.367-.033-.73-.104-1.086a2.844 2.844 0 0 0-.358-.944 2.036 2.036 0 0 0-.685-.669c-.284-.172-.637-.258-1.057-.258zm-9.87 0c-.41 0-.75.086-1.025.258a2.087 2.087 0 0 0-.665.67 2.822 2.822 0 0 0-.36.943 5.804 5.804 0 0 0-.104 1.105c0 .37.038.73.113 1.086.076.358.2.667.37.938.168.266.393.482.673.648.28.167.619.249 1.014.249.41 0 .75-.082 1.025-.25.274-.165.496-.381.665-.647.167-.27.288-.58.358-.938.07-.356.106-.717.106-1.086 0-.368-.038-.73-.113-1.088a2.977 2.977 0 0 0-.378-.952 2.134 2.134 0 0 0-.674-.678c-.274-.172-.61-.258-1.005-.258zm-10.99-2.03H6.09L4.462 7.801H7.7L6.125 3.135z"/>
        <path fill="#FCB716" d="M70.769 14.596h-49.04a5.013 5.013 0 0 0-5.013 5.013v35.132a.627.627 0 0 0 .98.518l3.21-2.188a12.531 12.531 0 0 1 7.057-2.176H70.77a5.013 5.013 0 0 0 5.012-5.012V19.609a5.013 5.013 0 0 0-5.012-5.013z"/>
        <path fill="#FFF" fill-rule="nonzero" d="M54.416 20.687V45.26h-1.09V20.687h1.09zm-25.01 3.22c3.797 0 6.128 2.532 6.128 5.514 0 2.216-1.205 4.01-3.3 5.304l-3.273 2.005c-.655.422-1.205.897-1.467 1.557h8.145v3.14h-12.57c.025-3.008.968-5.462 4.006-7.31l2.802-1.688c1.44-.87 2.017-1.768 2.017-2.955 0-1.24-.864-2.349-2.567-2.349-1.807 0-2.697 1.24-2.697 2.85 0 .317.052.66.13.95l-3.43-.106a6.51 6.51 0 0 1-.131-1.187c0-3.008 2.252-5.726 6.207-5.726zm40.152.395v3.035c-1.284 1.108-6.05 5.461-6.81 14.09h-3.744c.707-9.21 6.39-13.985 6.39-13.985h-8.747v-3.14h12.91zm-21.527 0v10.343h2.802v3.114H48.03v3.668h-3.562v-3.668h-8.04v-3.8l7.15-9.657h4.452zm-3.562 3.8l-4.845 6.543h4.845v-6.543z"/>
    </g>
</svg>
