<svg xmlns="http://www.w3.org/2000/svg" width="60" height="60" viewBox="0 0 60 60">
    <g fill="none" fill-rule="evenodd" opacity=".8">
        <circle cx="30" cy="30" r="30" fill="#000"/>
        <path fill="#FFF" fill-rule="nonzero" d="M19.545 27.183v4.729c0 .65.532 1.182 1.183 1.182h3.546l3.89 3.89c.744.744 2.02.212 2.02-.84V22.939c0-1.052-1.276-1.584-2.02-.839l-3.89 3.901h-3.546c-.65 0-1.183.532-1.183 1.182zm15.96 2.365a5.32 5.32 0 0 0-2.956-4.764V34.3a5.289 5.289 0 0 0 2.955-4.752zm-2.956-8.926v.237c0 .45.296.84.71 1.005a8.28 8.28 0 0 1 5.2 7.684 8.28 8.28 0 0 1-5.2 7.684c-.426.165-.71.555-.71 1.004v.237c0 .745.745 1.265 1.43 1.005a10.615 10.615 0 0 0 6.845-9.93c0-4.54-2.837-8.405-6.845-9.93-.685-.272-1.43.26-1.43 1.004z"/>
    </g>
</svg>
