<svg xmlns="http://www.w3.org/2000/svg" width="290" height="218" viewBox="0 0 290 218">
    <defs>
        <linearGradient id="a" x1="50%" x2="50%" y1="0%" y2="100%">
            <stop offset="0%" stop-color="#FEA6A6"/>
            <stop offset="100%" stop-color="#FC8585"/>
        </linearGradient>
        <linearGradient id="b" x1="50%" x2="50%" y1="0%" y2="100%">
            <stop offset="0%" stop-color="#FEA1A1"/>
            <stop offset="100%" stop-color="#F88"/>
        </linearGradient>
        <linearGradient id="c" x1="50%" x2="50%" y1="0%" y2="100%">
            <stop offset="0%" stop-color="#FEAAAA"/>
            <stop offset="100%" stop-color="#FB8A8A"/>
        </linearGradient>
        <linearGradient id="d" x1="50%" x2="50%" y1="0%" y2="100%">
            <stop offset="0%" stop-color="#FEA6A6"/>
            <stop offset="100%" stop-color="#FC8585"/>
        </linearGradient>
    </defs>
    <g fill="none" fill-rule="evenodd">
        <path fill="#E7E4E4" d="M213.004 125.607c-4.554 6.825-10.205 13.383-16.464 19.408-.282.282-.579.563-.875.844-.89.844-1.81 1.688-2.73 2.502a108.993 108.993 0 0 1-4.88 4.204c-.875.74-1.78 1.466-2.67 2.177-10.352 8.171-21.417 15.322-32.32 20.71a122.27 122.27 0 0 1-10.1 4.501c-17.413 6.884-33.625 8.498-44.809 1.673-3.56-2.161-6.6-5.182-9.018-9.164l-1.157-1.91c-3.575-5.966-6.986-11.961-9.982-17.987a136.079 136.079 0 0 1-2.032-4.204c-10.872-23.317-15.01-46.914.4-70.127C82.36 69.204 92.194 62.17 104 57.197c3.367-1.436 6.882-2.68 10.531-3.76a82.212 82.212 0 0 1 5.459-1.496 109.9 109.9 0 0 1 7.104-1.554c1.84-.355 3.679-.666 5.533-.933l2.314-.31c5.473-.696 11.02-1.081 16.538-1.126.727-.015 1.453-.015 2.165-.015 3.338.015 6.645.149 9.908.415.876.06 1.75.133 2.626.237 16.657 1.614 31.934 6.38 42.317 14.286 2.269 1.732 4.301 3.597 6.066 5.625.326.37.638.74.935 1.126l.296.355c2.15 2.694 3.872 5.477 5.162 8.32 6.6 14.345 2.744 30.17-6.452 44.916-.49.784-.98 1.554-1.498 2.324z"/>
        <path fill="#00B38D" d="M184.348 54h27.304A3.35 3.35 0 0 1 215 57.35v16.105c0 1.849-1.5 3.348-3.348 3.348h-2.644l2.25 4.023c.387.69-.374 1.455-1.067 1.071l-9.173-5.094h-16.67A3.349 3.349 0 0 1 181 73.455V57.35c0-1.85 1.5-3.35 3.348-3.35"/>
        <path fill="#0087BA" d="M193.667 32h-35.332C155.94 32 154 33.929 154 36.306v20.707c0 2.379 1.941 4.306 4.335 4.306h3.42l-2.912 5.171c-.5.89.486 1.871 1.382 1.378l11.87-6.549h21.572c2.393 0 4.333-1.927 4.333-4.306V36.306c0-2.377-1.94-4.306-4.333-4.306"/>
        <path fill="#E7E4E4" d="M181.067 166.256c-4.096 4.113-7.012 9.995-2.607 13.478 4.92 3.892 15.068 2.989 20.315-4.352 3.353-4.69 5.128-12.102 1.413-16.262-3.18-3.559-14.098 2.089-19.121 7.136"/>
        <path fill="url(#a)" d="M172.3 140.778c-1.03-.641-.73-.722-1.896-.5-1.26.242-3.968 1.59-5.34 2.712l-.04-.012c-6.205-1.102-7.296-5.655-9.804-7.81-1.39-9.45-8.4-35.165-8.4-35.165l-10.558 4.072c1.54 10.835 7.73 31.44 9.335 36.09.265.563.604 1.01.986 1.374.525 1.155 1.475 2.267 3.001 3.184 6.33 3.796 12.323 3.85 14.616 3.697l.253.198c1.553.88 7.922 1.74 9.41 1.235 1.512-.515 4.609-3.765 4.387-4.664-.361-1.473-3.363-2.804-5.95-4.411"/>
        <path fill="#00709A" d="M136.426 93.647c-3.097 7.042-1.96 29.356-1.96 29.356l19.796-4.772s-9.668-43.161-17.836-24.584"/>
        <path fill="#484847" d="M152.262 175.672a120.508 120.508 0 0 1-9.934 4.407c-17.125 6.74-33.068 8.32-44.066 1.638.16-6.276.379-12.814.554-15.786.03-.348.058-.652.073-.898l5.893-.116h.262l.015-.015 31.887-.623h.029l2.042-.044 2.042-.043 9.423-.189c.102.435.204.9.292 1.363.612 2.957 1.094 6.509 1.488 10.306"/>
        <path fill="#0087BA" d="M122.078 84.04c-11.612.382-15.537 4.314-17.54 11.113-2.273 7.72-6.276 54.351-6.276 69.933 0 0 34.75 2.47 54-.696-6.035-20.451-6.687-57.222-6.809-68.178-.091-8.22-8.656-12.66-23.375-12.172"/>
        <path fill="url(#b)" d="M25 19c-.498 3.186-1.494 20.432-1.08 24.437.417 4.004-19.261 5.149-16.688.735 2.574-4.413.748-19.043.748-19.043L25 19" transform="translate(110 42)"/>
        <path fill="#101012" d="M144.604 54.036c3.144-.95 3.144-7.599-1.57-10.131-2.905-1.56-5.57.002-7.41 1.285l.293-.265c.148-.144.287-.296.43-.444l.213-.222.197-.238c.544-.614.972-1.318 1.37-2.021-.487.648-.992 1.276-1.597 1.8l-.218.204-.232.188c-.156.123-.308.25-.467.37-.326.225-.645.458-.988.654a13.7 13.7 0 0 1-1.588.818c-.31-1.12-.79-3.122-5.406-3.396-4.296-.254-8.144 4.586-9.982 6.742l.009-.059c.132-.774.335-1.54.6-2.286.125-.377.29-.736.447-1.103.086-.18.18-.354.27-.532l.138-.266.156-.255c.395-.699.91-1.319 1.447-1.924-.608.528-1.212 1.086-1.705 1.743l-.194.24-.175.253c-.116.17-.237.338-.35.51-.21.355-.43.708-.61 1.081a14.493 14.493 0 0 0-.851 2.047c-.057-.23-.109-.46-.162-.692-.037-.195-.062-.393-.094-.59l-.045-.297-.024-.298c-.093-.799-.042-1.605.036-2.414-.18.788-.339 1.598-.35 2.422l-.015.309.006.308c.006.206.007.414.018.62.039.411.068.827.143 1.235.035.229.078.457.126.684l-.019.076c-4.679-.269-6.725 4.382-6.422 10.81.39 8.229 12.573 28.812 8.487 7.915l5.972-7.282s12.259 2.85 19.174.633c6.915-2.216.942-8.232.942-8.232"/>
        <path fill="url(#c)" d="M29.738 34.444c-2.135 4.675-7.32 4.052-7.32 4.052s-2.117-2.088.628 3.21c1.83 3.533-2.547 2.67-13.131-2.587L9 24.47 10.525 8.89s15.858-4.987 20.128 1.246c0 0 1.22 19.634-.915 24.309z" transform="translate(110 42)"/>
        <path fill="#EF6565" d="M122 74c1.732 2.687 4.17 5.092 6.612 5.748 1.966.528 5.043.077 5.209.74.02.08.01.302.01.38-.001.121.01.385-.001.796-.015.525-.021.807-.018 1.76-.232.026-2.13.065-2.355.065C125.227 83.49 122 74 122 74z"/>
        <path fill="#E49377" d="M138.666 59.527c-3.551 0-7.057-2.567-8.274-3.791-1.552-1.562-4.035-1.25-4.346-1.562l3.415-1.874 9.313 2.498s.796.21 1.695.57c.048 1.075.1 2.404.14 3.876a6.599 6.599 0 0 1-1.943.283M120.964 71.2c-1.182 0-2.13-1.018-2.505-1.488l-.117-1.852 3.67-.568s2.483 1.874.31 3.436c-.473.34-.93.473-1.358.473"/>
        <path fill="#3E2834" d="M135.384 68.448l-1.105.036c-.16.006-.285.125-.279.268.006.142.14.253.3.248l1.42-.046a.306.306 0 0 0 .21-.09.243.243 0 0 0 .068-.2l-.333-2.437c-.02-.142-.163-.242-.323-.225-.16.017-.272.146-.253.287l.295 2.16z"/>
        <path fill="#101012" d="M129.828 61.01s2.15-.12 2.172.474c0 0-.002.403-1.878.483-1.877.08-2.94.033-3.112-.346-.171-.378 1.81-.607 2.818-.611M138.08 61.013s-1.923-.134-2.08.464c0 0-.09.405 1.592.496 1.683.091 2.23-.052 2.39-.379.18-.37-.989-.572-1.902-.581M137 64.967a1 1 0 1 0 2 .065 1 1 0 0 0-2-.065M129 64.967a1 1 0 1 0 2 .066 1 1 0 0 0-2-.066"/>
        <path fill="#FFFFFE" d="M136 72.223L130 71s.014 2.447 2.623 2.93c2.608.483 3.377-1.707 3.377-1.707"/>
        <path fill="#101012" d="M137.598 59.098a12.92 12.92 0 0 1-1.682-.844c-1.077-.647-2.063-1.44-2.968-2.313-.051-.05-.1-.103-.15-.154 3.132 1.937 6.835 4.08 9.909.703 3.762-4.133-1.881-8.265-1.881-8.265L129.54 46l-9.091 2.543L117 52.04l.627 13.032.94 2.928 3.762-3.246s4.076-6.675 2.822-10.171c0 0 1.74-1.51 4.555-.496a21.327 21.327 0 0 0 2.62 2.57c1.02.834 2.116 1.575 3.294 2.157.59.289 1.199.536 1.823.734.626.192 1.268.325 1.914.4.648.074 1.3.06 1.943-.005.643-.07 1.269-.235 1.877-.433-.623.148-1.254.26-1.89.274a8.735 8.735 0 0 1-1.884-.151 10.361 10.361 0 0 1-1.805-.535z"/>
        <path fill="#D19680" d="M123.604 65.91c.822 2.125.323 4.336-1.114 4.938-1.438.602-3.27-.633-4.093-2.758s-.324-4.336 1.114-4.938c1.438-.602 3.27.633 4.093 2.758"/>
        <path fill="#334763" d="M122.218 64.342s-.937-16.393 11.56-18.558c0 0 1.25-2.784-2.187-2.784 0 0-13.122 2.244-10.154 22l.781-.658"/>
        <path fill="#334763" d="M125 66.5a3.5 3.5 0 1 1-7 0 3.5 3.5 0 0 1 7 0"/>
        <path fill="#334763" d="M128.7 76c-.61 0-1.248-.02-1.906-.068-4.798-.345-5.756-8.47-5.794-8.816l.89-.116c.009.077.905 7.674 4.963 7.966 4.353.313 7.895-.622 7.93-.632l.217.94c-.127.034-2.738.726-6.3.726"/>
        <path fill="#334763" d="M137.997 74.74c.063.534-.78 1.082-1.883 1.225-1.102.144-2.047-.172-2.11-.705-.064-.534.78-1.082 1.882-1.226 1.102-.143 2.047.173 2.11.707"/>
        <path fill="#4E6276" d="M123 66a2 2 0 1 1-4 0 2 2 0 0 1 4 0"/>
        <path fill="url(#d)" d="M136.05 141.327c-1.207.068-5.893.901-7.538.51-5.528-1.32-19.775-7.862-27.444-11.518 4.718-10.482 11.663-29.034 11.663-29.034l-10.92-3.282c-5.068 9.61-12.067 29.904-13.476 34.612-.08.422-.085.819-.06 1.2-.051 1.862.784 3.765 2.972 5.13 6.071 3.785 28.973 7.455 35.314 8.174.117.242.272.46.524.607 1.551.892 8.61 1.56 10.062 1.823 1.82.328 7.345.808 7.107.05-.39-1.24-2.439-8.602-8.204-8.272"/>
        <path fill="#0087BA" d="M108.617 88.923c-6.042 4.235-16.355 23.501-16.355 23.501l18.365 6.58s13.927-41.254-2.01-30.081"/>
        <path fill="#FFFFFE" d="M213.157 152.003H71.366c-1.157 0-2.104-.9-2.104-2s.947-2 2.104-2h141.791c1.158 0 2.105.9 2.105 2s-.947 2-2.105 2"/>
        <path fill="#D3D0D1" d="M124.148 152.003H70.375c-1.162 0-2.113-.9-2.113-2s.95-2 2.113-2h53.773c1.162 0 2.114.9 2.114 2s-.952 2-2.114 2"/>
        <path fill="#252624" d="M205.965 145.003h-43.208c-1.651 0-2.746-1.343-2.446-3l4.714-26c.3-1.657 1.88-3 3.533-3h43.21c1.65 0 2.745 1.343 2.444 3l-4.713 26c-.3 1.657-1.882 3-3.534 3"/>
        <path fill="#1D1E1C" d="M206.965 145.003h-43.21c-1.65 0-2.744-1.343-2.444-3l4.712-26c.3-1.657 1.883-3 3.534-3h43.208c1.652 0 2.747 1.343 2.447 3l-4.714 26c-.3 1.657-1.882 3-3.533 3"/>
        <circle cx="189" cy="129" r="3" fill="#838282"/>
        <path fill="#1D1E1C" d="M155.262 146.003c0 1.1 1.102 2 2.449 2h45.1c1.348 0 2.45-.9 2.45-2h-50"/>
        <path fill="#252624" d="M141.262 146.003c0 1.1 1.169 2 2.596 2h18.807c1.428 0 2.597-.9 2.597-2h-24"/>
    </g>
</svg>
