<svg width="24" height="24" viewBox="0 0 24 24" fill="none" xmlns="http://www.w3.org/2000/svg">
<path d="M9.09 17.29C9.18251 17.3827 9.2924 17.4562 9.41338 17.5064C9.53435 17.5566 9.66403 17.5824 9.795 17.5824C9.92597 17.5824 10.0557 17.5566 10.1766 17.5064C10.2976 17.4562 10.4075 17.3827 10.5 17.29L15.09 12.7C15.1827 12.6075 15.2563 12.4976 15.3064 12.3766C15.3566 12.2556 15.3824 12.126 15.3824 11.995C15.3824 11.864 15.3566 11.7343 15.3064 11.6134C15.2563 11.4924 15.1827 11.3825 15.09 11.29L10.5 6.7C10.4074 6.60742 10.2975 6.53398 10.1765 6.48387C10.0556 6.43377 9.92593 6.40798 9.795 6.40798C9.66407 6.40798 9.53442 6.43377 9.41346 6.48387C9.29249 6.53398 9.18258 6.60742 9.09 6.7C8.99742 6.79258 8.92398 6.90249 8.87387 7.02346C8.82377 7.14442 8.79798 7.27407 8.79798 7.405C8.79798 7.53593 8.82377 7.66558 8.87387 7.78654C8.92398 7.90751 8.99742 8.01742 9.09 8.11L12.97 12L9.09 15.88C8.71 16.27 8.71 16.91 9.09 17.29V17.29Z" fill="#02475B"/>
</svg>
