<svg xmlns="http://www.w3.org/2000/svg" width="24" height="24" viewBox="0 0 24 24">
    <g fill="none" fill-rule="evenodd">
        <path d="M0 0h24v24H0z"/>
        <path fill="#02475B" fill-rule="nonzero" d="M8.364 16.774V7.157c0-1.9 1.39-3.59 3.282-3.773a3.634 3.634 0 0 1 3.99 3.618v11.235c0 1.19-.855 2.272-2.036 2.39a2.273 2.273 0 0 1-2.509-2.263V8.82c0-.5.41-.909.909-.909.5 0 .909.41.909.91v7.953c0 .372.309.681.682.681a.687.687 0 0 0 .681-.681V8.947c0-1.19-.854-2.272-2.036-2.39A2.273 2.273 0 0 0 9.728 8.82v9.39c0 1.9 1.39 3.59 3.28 3.772A3.63 3.63 0 0 0 17 18.364V7.211c0-2.608-1.909-4.945-4.508-5.19A5.004 5.004 0 0 0 7 7.002v9.772c0 .372.309.681.681.681a.687.687 0 0 0 .682-.681z"/>
    </g>
</svg>
