<svg xmlns="http://www.w3.org/2000/svg" width="24" height="24" viewBox="0 0 24 24">
    <g fill="none" fill-rule="evenodd">
        <circle cx="12" cy="12" r="12" fill="#FC9916"/>
        <path fill="#FFF" fill-rule="nonzero" d="M12 17.303l1.591-1.59c.292-.292.292-.77 0-1.061-.292-.292-.769-.292-1.06 0l-1.592 1.59c-.875.876-2.307.876-3.182 0-.875-.874-.875-2.306 0-3.181l1.591-1.591c.292-.292.292-.77 0-1.061-.291-.292-.769-.292-1.06 0L6.697 12c-1.464 1.464-1.464 3.84 0 5.303 1.463 1.464 3.84 1.464 5.303 0zm2.121-7.424c-.291-.292-.769-.292-1.06 0L9.879 13.06c-.292.291-.292.769 0 1.06.291.292.769.292 1.06 0l3.182-3.182c.292-.291.292-.769 0-1.06zm-2.651-.53l1.59-1.592c.876-.875 2.308-.875 3.183 0s.875 2.307 0 3.182l-1.591 1.591c-.292.292-.292.77 0 1.061.291.292.769.292 1.06 0L17.303 12c1.464-1.464 1.464-3.84 0-5.303-1.463-1.464-3.84-1.464-5.303 0l-1.591 1.59c-.292.292-.292.77 0 1.061.292.292.769.292 1.06 0z"/>
    </g>
</svg>
