<svg xmlns="http://www.w3.org/2000/svg" xmlns:xlink="http://www.w3.org/1999/xlink" width="149" height="36" viewBox="0 0 149 36">
    <defs>
        <path id="b" d="M126.46 28c8.03 0 14.54-6.268 14.54-14s-6.51-14-14.54-14c-.072 0-112.064 0-112.136.002C6.394.112 0 6.337 0 14c0 7.656 6.382 13.877 14.303 13.998L126.46 28z"/>
        <filter id="a" width="109.9%" height="150%" x="-5%" y="-17.9%" filterUnits="objectBoundingBox">
            <feOffset dy="2" in="SourceAlpha" result="shadowOffsetOuter1"/>
            <feGaussianBlur in="shadowOffsetOuter1" result="shadowBlurOuter1" stdDeviation="2"/>
            <feColorMatrix in="shadowBlurOuter1" values="0 0 0 0 0 0 0 0 0 0 0 0 0 0 0 0 0 0 0.2 0"/>
        </filter>
    </defs>
    <g fill="none" fill-rule="evenodd">
        <g transform="translate(4 2)">
            <use fill="#000" filter="url(#a)" xlink:href="#b"/>
            <use fill="#FC9916" xlink:href="#b"/>
        </g>
        <path fill="#FFF" fill-rule="nonzero" d="M21.2 21.847L28.2 16.6c.405-.3.405-.9 0-1.2L21.2 10.153a.75.75 0 0 0-1.199.6v10.495a.75.75 0 0 0 1.2.6z"/>
        <text fill="#FFF" font-family="IBMPlexSans-SemiBold, IBM Plex Sans" font-size="14" font-weight="500" transform="translate(4 2)">
            <tspan x="33" y="19">Start Consult</tspan>
        </text>
    </g>
</svg>
