<svg xmlns="http://www.w3.org/2000/svg" xmlns:xlink="http://www.w3.org/1999/xlink" width="20" height="20" viewBox="0 0 20 20">
    <defs>
        <path id="a" d="M6.518 11.31a.2.2 0 0 1-.285.001l-2.67-2.669a.203.203 0 0 0-.282-.003l-.726.72a.203.203 0 0 0 .001.28l3.678 3.678a.202.202 0 0 0 .289-.006l8.204-8.205c.082-.082.082-.213.01-.287l-.722-.72a.2.2 0 0 0-.282.004L6.518 11.31z"/>
        <path id="c" d="M0 0h35v35H0z"/>
    </defs>
    <g fill="none" fill-rule="evenodd">
        <circle cx="10" cy="10" r="10" fill="#00B38E"/>
        <g transform="translate(1.667 1.667)">
            <mask id="b" fill="#fff">
                <use xlink:href="#a"/>
            </mask>
            <g mask="url(#b)">
                <use fill="#FFF" transform="translate(-9.208 -9.208)" xlink:href="#c"/>
            </g>
        </g>
    </g>
</svg>
