<svg xmlns="http://www.w3.org/2000/svg" width="60" height="60" viewBox="0 0 60 60">
    <g fill="none" fill-rule="evenodd">
        <circle cx="30" cy="30" r="30" fill="#FFF"/>
        <path fill="#02475B" fill-rule="nonzero" d="M32.692 29.553v-5.895a3.154 3.154 0 0 0-3.158-3.158 3.136 3.136 0 0 0-3.116 2.79l6.274 6.263zm3.242.42a.883.883 0 0 0-.873.748 5.777 5.777 0 0 1-.232.979l1.337 1.337a7.042 7.042 0 0 0 .663-2.042.902.902 0 0 0-.895-1.021zm-15.126-7.83c-.41.41-.41 1.073 0 1.483l5.568 5.58v.452c0 1.253.632 2.442 1.716 3.063.79.453 1.484.463 2.126.326l1.748 1.748a5.788 5.788 0 0 1-2.432.547c-2.673 0-5.137-1.863-5.526-4.62a.883.883 0 0 0-.874-.748.902.902 0 0 0-.895 1.02c.485 3.117 3.116 5.58 6.243 6.053v2.4c0 .58.473 1.053 1.052 1.053.58 0 1.053-.474 1.053-1.053v-2.4a7.505 7.505 0 0 0 2.684-.947l3.674 3.674a1.048 1.048 0 1 0 1.484-1.485L22.292 22.142a1.048 1.048 0 0 0-1.484 0z"/>
    </g>
</svg>
