<svg xmlns="http://www.w3.org/2000/svg" width="60" height="60" viewBox="0 0 60 60">
    <g fill="none" fill-rule="evenodd">
        <circle cx="30" cy="30" r="30" fill="#FFF"/>
        <path fill="#02475B" fill-rule="nonzero" d="M39.583 32.932v-5.29c0-.89-1.08-1.34-1.71-.71l-2.29 2.3v-3.5c0-.55-.45-1-1-1h-5.61l8.91 8.91c.62.63 1.7.18 1.7-.71zm-18.29-11.64a.996.996 0 0 0 0 1.41l2.02 2.03h-.73c-.55 0-1 .45-1 1v10c0 .55.45 1 1 1h12c.21 0 .39-.08.55-.18l2.48 2.48a.996.996 0 1 0 1.41-1.41l-16.32-16.33a.996.996 0 0 0-1.41 0z"/>
    </g>
</svg>
