<svg xmlns="http://www.w3.org/2000/svg" width="60" height="60" viewBox="0 0 60 60">
    <g fill="none" fill-rule="evenodd">
        <circle cx="30" cy="30" r="30" fill="#000" opacity=".8"/>
        <path d="M15 15h30v30H15z"/>
        <path fill="#FFF" fill-rule="nonzero" d="M25.775 30.833h.951a.476.476 0 0 0 .381-.762l-1.905-2.54a.476.476 0 0 0-.762 0l-1.904 2.54a.476.476 0 0 0 .38.762h.954c0 .99.255 1.975.765 2.857.782 1.356 2.01 2.288 3.48 2.665 1.447.372 3.021.18 4.325-.573a.952.952 0 0 0-.952-1.65c-.863.499-1.926.628-2.9.378-.973-.25-1.777-.86-2.304-1.772a3.802 3.802 0 0 1-.51-1.905zm7.682-.952H32.44a.476.476 0 0 0-.38.762l1.904 2.54a.476.476 0 0 0 .762 0l1.905-2.54a.476.476 0 0 0-.381-.762h-.888a5.698 5.698 0 0 0-.766-2.794 5.75 5.75 0 0 0-3.466-2.66 5.647 5.647 0 0 0-4.34.569.952.952 0 0 0 .952 1.65 3.743 3.743 0 0 1 2.886-.382c.97.265 1.812.9 2.318 1.776.33.572.5 1.204.511 1.841zm-10.54-8.571l.917-2.098a2.857 2.857 0 0 1 2.618-1.712h6.263c1.135 0 2.162.672 2.617 1.712l.918 2.098h2.857a3.81 3.81 0 0 1 3.81 3.809v11.429a3.81 3.81 0 0 1-3.81 3.81H20.06a3.81 3.81 0 0 1-3.81-3.81V25.119a3.81 3.81 0 0 1 3.81-3.81h2.857z" opacity=".8"/>
    </g>
</svg>
