<svg xmlns="http://www.w3.org/2000/svg" width="12" height="12" fill="none" viewBox="0 0 12 12">
    <g opacity=".8">
        <path fill="#86F28B" d="M0 12l1.217-3.477C.75 7.677.503 6.721.503 5.748c0-1.535.598-2.979 1.684-4.064C3.273.598 4.717 0 6.252 0c1.535 0 2.979.598 4.064 1.684C11.402 2.769 12 4.213 12 5.748c0 1.536-.598 2.98-1.684 4.065-1.085 1.086-2.529 1.684-4.064 1.684-.973 0-1.929-.246-2.775-.714L0 12z"/>
        <path fill="#66E26F" d="M0 12l3.477-1.217c.846.467 1.802.714 2.775.714 1.535 0 2.979-.598 4.064-1.684C11.402 8.727 12 7.283 12 5.748c0-1.535-.598-2.979-1.684-4.064L0 12z"/>
        <path fill="#fff" d="M4.946 7.054C6.32 8.43 7.88 9.097 8.43 8.548l.663-.664c.138-.137.138-.36 0-.498l-.83-.83c-.137-.137-.36-.137-.497 0l-.498.498c-1.019-.482-1.84-1.303-2.322-2.322l.497-.498c.138-.137.138-.36 0-.498l-.83-.83c-.137-.137-.36-.137-.497 0l-.663.664c-.55.55.118 2.11 1.493 3.484z"/>
        <path fill="#DCF4FF" d="M9.093 7.386l-.83-.83c-.137-.137-.36-.137-.497 0l-.498.498c-.51-.241-.97-.567-1.362-.96l-.96.96C6.32 8.43 7.88 9.097 8.43 8.548l.663-.664c.138-.138.138-.36 0-.498z"/>
    </g>
</svg>
