<svg xmlns="http://www.w3.org/2000/svg" width="138" height="131" viewBox="0 0 138 131">
    <defs>
        <linearGradient id="a" x1="49.999%" x2="49.999%" y1="100%" y2="0%">
            <stop offset="0%" stop-color="gray" stop-opacity=".25"/>
            <stop offset="54%" stop-color="gray" stop-opacity=".12"/>
            <stop offset="100%" stop-color="gray" stop-opacity=".1"/>
        </linearGradient>
        <linearGradient id="b" x1="50%" x2="50%" y1="100%" y2="0%">
            <stop offset="0%" stop-color="gray" stop-opacity=".25"/>
            <stop offset="54%" stop-color="gray" stop-opacity=".12"/>
            <stop offset="100%" stop-color="gray" stop-opacity=".1"/>
        </linearGradient>
        <linearGradient id="c" x1="60.341%" x2="39.716%" y1="98.88%" y2="1.029%">
            <stop offset="0%" stop-color="gray" stop-opacity=".25"/>
            <stop offset="54%" stop-color="gray" stop-opacity=".12"/>
            <stop offset="100%" stop-color="gray" stop-opacity=".1"/>
        </linearGradient>
        <linearGradient id="d" x1="49.999%" x2="49.999%" y1="100%" y2="0%">
            <stop offset="0%" stop-color="gray" stop-opacity=".25"/>
            <stop offset="54%" stop-color="gray" stop-opacity=".12"/>
            <stop offset="100%" stop-color="gray" stop-opacity=".1"/>
        </linearGradient>
        <linearGradient id="e" x1="50%" x2="50%" y1="100%" y2="0%">
            <stop offset="0%" stop-color="gray" stop-opacity=".25"/>
            <stop offset="54%" stop-color="gray" stop-opacity=".12"/>
            <stop offset="100%" stop-color="gray" stop-opacity=".1"/>
        </linearGradient>
        <linearGradient id="f" x1="50%" x2="50%" y1="99.914%" y2="-.086%">
            <stop offset="0%" stop-color="gray" stop-opacity=".25"/>
            <stop offset="54%" stop-color="gray" stop-opacity=".12"/>
            <stop offset="100%" stop-color="gray" stop-opacity=".1"/>
        </linearGradient>
    </defs>
    <g fill="none" fill-rule="nonzero">
        <path fill="#E0E0E0" d="M11.618 22.726L83.441 7.348l21.293 99.027-71.823 15.378z"/>
        <path fill="url(#a)" d="M9.56 6.377l70.97.031.042 97.867-70.969-.031z" opacity=".5" transform="rotate(-12.11 95.107 -1.861)"/>
        <path fill="#FAFAFA" d="M14.227 24.656l67.629-14.48 20.118 93.565-67.63 14.48z"/>
        <path fill="url(#b)" d="M30.973 13.24l34.31.015.003 8.295-34.31-.014z" transform="rotate(-12.11 48.13 17.395)"/>
        <path fill="url(#c)" d="M45.553 5.42c-2.59.555-4.229 3.15-3.659 5.795.57 2.645 3.13 4.342 5.715 3.787 2.585-.555 4.23-3.15 3.66-5.795-.57-2.645-3.125-4.343-5.716-3.788zm1.626 7.564a2.837 2.837 0 0 1-2.96-1.103 2.823 2.823 0 0 1-.098-3.152 2.836 2.836 0 0 1 5.169.9 2.79 2.79 0 0 1-.357 2.116 2.8 2.8 0 0 1-1.754 1.24z"/>
        <path fill="#0087BA" d="M30.761 16.509l32.843-7.032 1.667 7.752-32.843 7.032z"/>
        <path fill="#0087BA" d="M45.553 5.42a4.685 4.685 0 0 0-3.605 5.563 4.695 4.695 0 0 0 5.575 3.598 4.685 4.685 0 0 0 3.606-5.564 4.685 4.685 0 0 0-2.041-2.951 4.703 4.703 0 0 0-3.535-.647zm1.554 7.229a2.712 2.712 0 0 1-2.799-1.108 2.7 2.7 0 0 1-.045-3.004 2.712 2.712 0 0 1 4.925.901 2.704 2.704 0 0 1-2.081 3.21z"/>
        <path fill="#E0E0E0" d="M43.348 19.61h73.458v101.281H43.348z"/>
        <path fill="url(#d)" d="M.047.02h70.975v97.858H.047z" opacity=".5" transform="translate(44.543 21.302)"/>
        <path fill="#FFF" d="M45.493 22.044h69.168v95.695H45.493z"/>
        <path fill="url(#e)" d="M63.011 17.894h34.313v8.294H63.011z"/>
        <path fill="url(#f)" d="M80.168 9.797c-2.65 0-4.797 2.194-4.797 4.902 0 2.707 2.148 4.9 4.797 4.9 2.649 0 4.797-2.193 4.797-4.9 0-2.708-2.148-4.902-4.797-4.902zm0 7.73a2.834 2.834 0 0 1-2.666-1.699 2.824 2.824 0 0 1 .57-3.104 2.838 2.838 0 0 1 3.097-.644 2.828 2.828 0 0 1 1.765 2.619 2.797 2.797 0 0 1-2.766 2.814v.013z"/>
        <path fill="#0087BA" d="M63.372 17.538h33.591v7.929H63.372z"/>
        <path fill="#0087BA" d="M80.168 9.797a4.695 4.695 0 0 0-4.338 2.892 4.678 4.678 0 0 0 1.018 5.106 4.702 4.702 0 0 0 5.116 1.015 4.685 4.685 0 0 0 2.898-4.328 4.69 4.69 0 0 0-4.694-4.685zm0 7.389a2.707 2.707 0 0 1-2.706-2.704 2.707 2.707 0 0 1 2.706-2.704 2.707 2.707 0 0 1 2.713 2.697c0 .718-.287 1.406-.796 1.912a2.712 2.712 0 0 1-1.917.79v.009z"/>
        <g fill="#02475B" opacity=".5">
            <path d="M2.567 123.628h1v3.578h-1z"/>
            <path d="M4.676 125.102v.631H1.091v-.63z"/>
        </g>
        <g fill="#02475B" opacity=".5">
            <path d="M75.89 0h1v3.578h-1z"/>
            <path d="M78 1.473v.63h-3.586v-.63z"/>
        </g>
        <path fill="#FC9916" d="M129.61 129.584a.773.773 0 0 1-.433-.934.387.387 0 0 0-.68-.342.372.372 0 0 0-.044.075.775.775 0 0 1-.937.431.388.388 0 0 0-.343.68.373.373 0 0 0 .076.043c.361.157.547.559.432.935a.387.387 0 0 0 .68.342.372.372 0 0 0 .045-.076.775.775 0 0 1 .936-.43.388.388 0 0 0 .343-.68.373.373 0 0 0-.076-.044zM22.973 95.189a.773.773 0 0 1-.432-.934.387.387 0 0 0-.68-.342h-.001a.372.372 0 0 0-.044.075.775.775 0 0 1-.936.431.388.388 0 0 0-.343.68.373.373 0 0 0 .076.043c.36.157.546.558.432.934a.387.387 0 0 0 .68.342.372.372 0 0 0 .044-.075.775.775 0 0 1 .936-.431.388.388 0 0 0 .343-.68.373.373 0 0 0-.075-.043zM111.792 11.436a.773.773 0 0 1-.432-.934.387.387 0 0 0-.68-.342h-.001a.372.372 0 0 0-.044.075.775.775 0 0 1-.936.431.388.388 0 0 0-.343.68.373.373 0 0 0 .076.043c.36.157.546.559.432.934a.387.387 0 0 0 .68.342.372.372 0 0 0 .044-.075.775.775 0 0 1 .937-.431.388.388 0 0 0 .343-.68.373.373 0 0 0-.076-.043z" opacity=".5"/>
        <ellipse cx="136.595" cy="52.747" fill="#00B38E" opacity=".5" rx="1.266" ry="1.263"/>
        <ellipse cx="38.783" cy="125.238" fill="#00B38E" opacity=".5" rx="1.266" ry="1.263"/>
        <ellipse cx="123.597" cy="80.048" fill="#00B38E" opacity=".5" rx="1.266" ry="1.263"/>
        <ellipse cx="14.647" cy="16.161" fill="#FC9916" opacity=".5" rx="1.266" ry="1.263"/>
        <ellipse cx="1.266" cy="50.615" fill="#02475B" opacity=".5" rx="1.266" ry="1.263"/>
    </g>
</svg>
