<svg xmlns="http://www.w3.org/2000/svg" width="65" height="68" viewBox="0 0 65 68">
    <g fill="#02475B" fill-opacity=".6" fill-rule="nonzero">
        <path d="M46.986 34.097a19.549 19.549 0 0 1-2.113 1.796c-.674.523-1.388.991-2.136 1.4a20.8 20.8 0 0 1-20.475 0 16.682 16.682 0 0 1-2.182-1.423 18.595 18.595 0 0 1-2.066-1.75C6.986 39.639.011 50.95 0 63.333v2.334A2.327 2.327 0 0 0 2.321 68H62.68A2.327 2.327 0 0 0 65 65.667v-2.334c-.002-12.39-6.979-23.714-18.014-29.236zM22.866 29.803a16.183 16.183 0 0 0 19.268 0c5.654-4.184 7.995-11.544 5.805-18.25C45.749 4.85 39.52.318 32.5.318c-7.021 0-13.248 4.532-15.439 11.237-2.19 6.705.15 14.065 5.805 18.25z"/>
    </g>
</svg>
