<svg xmlns="http://www.w3.org/2000/svg" width="24" height="24" viewBox="0 0 24 24">
    <g fill="none" fill-rule="evenodd">
        <path d="M0 0L24 0 24 24 0 24z"/>
        <path fill="#02475B" fill-rule="nonzero" d="M8.364 16.774V7.157c0-1.9 1.39-3.59 3.282-3.773 2.163-.209 3.99 1.491 3.99 3.618v11.235c0 1.19-.855 2.272-2.036 2.39-1.364.137-2.509-.927-2.509-2.263V8.82c0-.5.41-.909.909-.909.5 0 .909.41.909.91v7.953c0 .372.309.681.682.681.372 0 .681-.309.681-.681V8.947c0-1.19-.854-2.272-2.036-2.39-1.363-.137-2.508.927-2.508 2.263v9.39c0 1.9 1.39 3.59 3.28 3.772 2.173.209 3.991-1.49 3.991-3.618V7.211c0-2.608-1.909-4.945-4.508-5.19C9.5 1.748 7 4.075 7 7.002v9.772c0 .372.309.681.681.681.373 0 .682-.309.682-.681z"/>
    </g>
</svg>
