<svg xmlns="http://www.w3.org/2000/svg" width="390" height="243" fill="none" viewBox="0 0 390 243">
    <g opacity=".6">
        <path fill="#F2F2F2" d="M101.723 148.094c40.895 0 74.047-33.152 74.047-74.047C175.77 33.152 142.618 0 101.723 0 60.827 0 27.675 33.152 27.675 74.047c0 40.895 33.152 74.047 74.048 74.047z"/>
        <path fill="#2F2E41" d="M0 17.78C0 44.72 16.902 66.52 37.789 66.52L0 17.779z"/>
        <path fill="#00BFA6" d="M37.789 66.521c0-27.244 18.86-49.29 42.17-49.29l-42.17 49.29zM13.691 20.221c0 25.592 10.778 46.3 24.097 46.3l-24.097-46.3z"/>
        <path fill="#2F2E41" d="M37.789 66.52c0-34.81 21.8-62.98 48.742-62.98L37.789 66.52z"/>
        <path fill="#A8A8A8" d="M29.839 66.865s5.359-.165 6.974-1.315c1.615-1.15 8.244-2.524 8.644-.68.4 1.845 8.054 9.174 2.004 9.223-6.05.049-14.059-.942-15.67-1.924-1.613-.982-1.952-5.304-1.952-5.304z"/>
        <path fill="#000" d="M47.569 73.451c-6.05.049-14.059-.942-15.67-1.924-1.228-.748-1.718-3.431-1.881-4.67l-.18.008s.34 4.322 1.952 5.304c1.612.982 9.62 1.973 15.67 1.924 1.747-.014 2.35-.635 2.317-1.556-.242.556-.909.903-2.209.914z" opacity=".2"/>
        <path fill="#3F3D56" d="M69.044 156.417c35.903 0 65.009-3.96 65.009-8.844 0-4.884-29.106-8.844-65.009-8.844s-65.008 3.96-65.008 8.844c0 4.884 29.105 8.844 65.008 8.844z"/>
        <path fill="#000" d="M69.044 154.998c30.144 0 54.58-3.324 54.58-7.425s-24.436-7.425-54.58-7.425c-30.143 0-54.58 3.324-54.58 7.425s24.437 7.425 54.58 7.425z" opacity=".1"/>
        <path fill="#3F3D56" d="M290.839 243c54.334 0 98.381-5.992 98.381-13.384s-44.047-13.384-98.381-13.384c-54.335 0-98.382 5.992-98.382 13.384S236.504 243 290.839 243zM107.98 232.441c32.639 0 59.099-3.599 59.099-8.04 0-4.44-26.46-8.04-59.099-8.04-32.64 0-59.099 3.6-59.099 8.04 0 4.441 26.46 8.04 59.099 8.04z"/>
        <path stroke="#2F2E41" stroke-miterlimit="10" stroke-width="2" d="M160.821 217.622c31.288 7.996 91.429-10.429 98.035-31.287M107.632 90.038s45.193-12.514 47.975 27.812c2.781 40.326-37.198 51.798-5.91 59.794M63.97 186.781s13.583-3.762 14.419 8.359c.836 12.12-11.18 15.568-1.777 17.971"/>
        <path fill="#2F2E41" d="M270.708 195.804l-2.738 17.485s-13.482 7.162-4.003 7.373c9.48.211 54.139 0 54.139 0s8.637 0-5.055-7.584l-2.739-18.327-39.604 1.053z"/>
        <path fill="#000" d="M262.06 220.472c2.153-1.915 5.91-3.911 5.91-3.911l2.738-17.485 39.604.037 2.739 17.237c3.193 1.769 5.171 3.124 6.328 4.164 1.759-.401 3.68-1.892-6.328-7.436l-2.739-18.327-39.604 1.053-2.738 17.485s-11.329 6.019-5.91 7.183z" opacity=".1"/>
        <path fill="#2F2E41" d="M373.24 73.939H207.359c-3.464 0-6.273 2.809-6.273 6.273v111.742c0 3.464 2.809 6.273 6.273 6.273H373.24c3.464 0 6.273-2.809 6.273-6.273V80.212c0-3.464-2.809-6.273-6.273-6.273z"/>
        <path fill="#3F3D56" d="M373.509 80.575H207.09v93.11h166.419v-93.11z"/>
        <path fill="#F2F2F2" d="M290.3 78.679c.582 0 1.053-.472 1.053-1.053 0-.582-.471-1.054-1.053-1.054s-1.053.472-1.053 1.054c0 .581.471 1.053 1.053 1.053z"/>
        <path fill="#2F2E41" d="M379.513 181.058v10.896c0 .823-.162 1.639-.477 2.4-.316.762-.778 1.453-1.36 2.036-.583.582-1.274 1.044-2.036 1.36-.761.315-1.577.477-2.4.477H207.359c-.824 0-1.639-.162-2.401-.477-.761-.316-1.452-.778-2.035-1.36-.582-.583-1.045-1.274-1.36-2.036-.315-.761-.477-1.577-.477-2.4v-10.896h178.427zM336.855 232.038v2.106H223.521v-1.685l.156-.421 2.793-7.584h108.068l2.317 7.584zM380.47 229.975c-.207.883-.986 1.814-2.747 2.694-6.32 3.16-19.17-.842-19.17-.842s-9.901-1.685-9.901-6.109c.278-.191.568-.363.868-.516 2.657-1.406 11.466-4.875 27.087.147 1.151.361 2.179 1.034 2.969 1.945.633.741 1.13 1.681.894 2.681z"/>
        <path fill="#000" d="M380.469 229.975c-7.735 2.964-14.63 3.185-21.706-1.729-3.568-2.478-6.81-3.091-9.243-3.044 2.657-1.406 11.466-4.875 27.087.147 1.151.361 2.178 1.034 2.969 1.945.633.741 1.129 1.681.893 2.681z" opacity=".1"/>
        <path fill="#F2F2F2" d="M370.771 228.246c1.512 0 2.738-.377 2.738-.843 0-.465-1.226-.842-2.738-.842-1.513 0-2.739.377-2.739.842 0 .466 1.226.843 2.739.843zM290.299 193.698c2.211 0 4.003-1.792 4.003-4.003 0-2.21-1.792-4.002-4.003-4.002-2.21 0-4.002 1.792-4.002 4.002 0 2.211 1.792 4.003 4.002 4.003z"/>
        <path fill="#000" d="M336.855 232.038v2.106H223.521v-1.685l.156-.421h113.178z" opacity=".1"/>
        <path fill="#F2F2F2" d="M269.298 142.897c-4.136-6.226-5.932-13.748-5.062-21.201.87-7.452 4.349-14.342 9.805-19.42 5.456-5.078 12.529-8.008 19.936-8.258s14.657 2.195 20.435 6.893c5.779 4.699 9.704 11.339 11.063 18.716 1.358 7.377.062 15.003-3.656 21.495-3.717 6.492-9.609 11.42-16.607 13.891-6.998 2.47-14.638 2.319-21.535-.425-.448 1.616-1.283 3.095-2.433 4.303-1.15 1.209-2.578 2.11-4.157 2.623-1.578.513-3.257.622-4.887.317-1.63-.306-3.159-1.016-4.452-2.067-1.292-1.05-2.307-2.409-2.954-3.955-.646-1.545-.904-3.229-.751-4.9.154-1.672.714-3.278 1.631-4.676.917-1.398 2.163-2.545 3.624-3.336z"/>
        <path fill="#00BFA6" d="M301.812 114.036c-.759-.426-3.636 2.99-6.812 7.961-3.176-4.971-6.053-8.387-6.812-7.961-.844.473 1.232 5.516 4.681 11.464-3.449 5.948-5.525 10.991-4.681 11.464.759.426 3.636-2.99 6.812-7.961 3.176 4.971 6.053 8.387 6.812 7.961.844-.473-1.232-5.516-4.681-11.464 3.449-5.948 5.525-10.991 4.681-11.464z"/>
        <path fill="#2F2E41" d="M110.066 55.275h-72.31v84.128h72.31V55.275z"/>
        <path fill="#3F3D56" d="M117.366 46.931h-86.91v29.897h86.91V46.931zM117.366 82.39h-86.91v29.898h86.91V82.391zM117.366 117.85h-86.91v29.897h86.91V117.85z"/>
        <path fill="#00BFA6" d="M99.984 52.146h-5.562v5.562h5.562v-5.562z" opacity=".4"/>
        <path fill="#00BFA6" d="M107.98 52.146h-5.563v5.562h5.563v-5.562z" opacity=".8"/>
        <path fill="#00BFA6" d="M115.976 52.146h-5.562v5.562h5.562v-5.562z"/>
        <path fill="#00BFA6" d="M99.984 87.258h-5.562v5.562h5.562v-5.562z" opacity=".4"/>
        <path fill="#00BFA6" d="M107.98 87.258h-5.563v5.562h5.563v-5.562z" opacity=".8"/>
        <path fill="#00BFA6" d="M115.976 87.258h-5.562v5.562h5.562v-5.562z"/>
        <path fill="#00BFA6" d="M99.984 122.369h-5.562v5.562h5.562v-5.562z" opacity=".4"/>
        <path fill="#00BFA6" d="M107.98 122.369h-5.563v5.562h5.563v-5.562z" opacity=".8"/>
        <path fill="#00BFA6" d="M115.976 122.369h-5.562v5.562h5.562v-5.562z"/>
        <path fill="#2F2E41" d="M110.066 214.493c15.167 0 27.463-12.295 27.463-27.463 0-15.168-12.296-27.464-27.463-27.464-15.168 0-27.464 12.296-27.464 27.464s12.296 27.463 27.464 27.463z"/>
        <path fill="#2F2E41" d="M105.894 208.584h-8.343v14.948h8.343v-14.948zM122.581 208.584h-8.344v14.948h8.344v-14.948z"/>
        <path fill="#2F2E41" d="M104.504 226.313c3.839 0 6.952-1.167 6.952-2.607 0-1.44-3.113-2.607-6.952-2.607-3.84 0-6.953 1.167-6.953 2.607 0 1.44 3.113 2.607 6.953 2.607zM121.19 225.966c3.84 0 6.953-1.168 6.953-2.608 0-1.44-3.113-2.607-6.953-2.607-3.84 0-6.953 1.167-6.953 2.607 0 1.44 3.113 2.608 6.953 2.608z"/>
        <path fill="#fff" d="M110.761 189.463c5.184 0 9.387-4.202 9.387-9.386 0-5.184-4.203-9.386-9.387-9.386s-9.386 4.202-9.386 9.386c0 5.184 4.202 9.386 9.386 9.386z"/>
        <path fill="#3F3D56" d="M110.761 183.206c1.728 0 3.129-1.401 3.129-3.129s-1.401-3.129-3.129-3.129-3.129 1.401-3.129 3.129 1.401 3.129 3.129 3.129z"/>
        <path fill="#00BFA6" d="M83.425 161.49c-2.217-9.932 4.872-19.967 15.833-22.414 10.962-2.448 21.646 3.619 23.864 13.55 2.217 9.931-5.047 13.594-16.009 16.041-10.962 2.448-21.47 2.754-23.688-7.177z"/>
        <path fill="#2F2E41" d="M135.824 181.553c6.972-2.985 11.865-7.178 10.928-9.367-.937-2.188-7.348-1.544-14.32 1.44s-11.865 7.178-10.928 9.367c.937 2.188 7.348 1.544 14.32-1.44zM84.373 199.977c6.972-2.984 11.865-7.177 10.928-9.366-.936-2.189-7.348-1.544-14.32 1.44s-11.865 7.178-10.928 9.366c.937 2.189 7.348 1.544 14.32-1.44z"/>
        <path fill="#fff" d="M126.057 195.026c0 2.688-6.921 7.995-14.601 7.995-7.68 0-14.948-4.96-14.948-7.648 0-2.688 7.268-2.085 14.948-2.085 7.68 0 14.601-.95 14.601 1.738z"/>
    </g>
</svg>
