<svg width="24" height="29" viewBox="0 0 24 29" fill="none" xmlns="http://www.w3.org/2000/svg">
<path d="M3.66263 14.7049C3.71377 15.272 4.03292 15.8055 4.56703 16.1046C5.01042 16.353 5.46739 16.5356 5.93417 16.6592C5.67117 17.5469 5.18791 18.8315 4.32771 20.2073C3.51066 21.5148 3.50094 23.0927 4.302 24.5369C5.48212 26.6652 8.08794 28.0954 10.7873 28.0954C12.6411 28.0954 14.2893 27.2417 15.4277 25.6913C17.0549 23.4746 17.4154 20.2033 16.3916 16.9424C15.4426 13.9195 16.7118 12.3067 17.5516 11.6135C18.2363 12.2733 19.1648 12.6802 20.1911 12.6802C22.2941 12.6802 24 10.9747 24 8.87077C24 6.7668 22.2941 5.06182 20.1911 5.06182C18.0872 5.06182 16.3822 6.76728 16.3822 8.87077C16.3822 9.167 16.4191 9.4537 16.4829 9.73048C14.8971 10.8905 13.0664 13.5015 14.3476 17.5838C15.1555 20.1579 14.9076 22.7783 13.6997 24.4231C13.1877 25.1212 12.266 25.9531 10.7867 25.9531C8.87272 25.9531 6.97629 24.9433 6.17542 23.4981C5.87996 22.9651 5.63534 22.1577 6.14479 21.3423C7.28254 19.5211 7.85199 17.8216 8.12203 16.7829C8.75437 16.6876 9.37178 16.4837 9.96569 16.1665C10.4951 15.8838 10.8199 15.3721 10.8915 14.8191C13.408 12.5441 14.5699 8.445 14.6368 8.20511C14.7725 7.71299 14.5406 7.20778 14.1082 6.97741C14.4558 3.90009 13.3168 2.3491 12.6296 1.71734C12.682 1.42169 12.5637 1.10542 12.304 0.935924L11.0411 0.110591C10.7113 -0.104843 10.2966 0.00388535 10.1158 0.354916L9.51411 1.5178C9.33287 1.86892 9.49264 2.24336 9.87121 2.35507L11.2989 2.77592C11.6609 2.88263 12.0946 2.70967 12.2995 2.39244C12.8685 2.99184 13.6879 4.32634 13.4056 6.87206C13.0176 6.94592 12.685 7.22858 12.5724 7.63498C12.2293 8.86624 11.2385 11.4095 9.76749 12.9344C9.29926 12.7535 8.76091 12.7624 8.28344 13.0167C7.97247 13.1828 7.66834 13.2665 7.35621 13.2731H7.29188C6.963 13.266 6.64182 13.1733 6.31294 12.9893C5.84721 12.7281 5.31676 12.705 4.84901 12.8701C3.41089 11.3389 2.4412 8.84948 2.10384 7.63518C1.99088 7.22983 1.65699 6.9465 1.27032 6.87273C0.987574 4.32701 1.80665 2.99251 2.37639 2.39311C2.58151 2.71024 3.01469 2.8833 3.3767 2.7765L4.80442 2.35565C5.18242 2.24394 5.34325 1.86892 5.16152 1.51838L4.56029 0.355398C4.37904 0.00427058 3.96436 -0.104361 3.63499 0.111073L2.3709 0.936983C2.11135 1.10648 1.99338 1.42265 2.04548 1.7184C1.35931 2.35026 0.21935 3.90057 0.567107 6.97838C0.134505 7.20883 -0.0966261 7.71395 0.0384896 8.20665C0.104169 8.44154 1.23113 12.41 3.66263 14.7049ZM20.1911 7.38286C21.0119 7.38286 21.6786 8.04861 21.6786 8.87096C21.6786 9.69273 21.0119 10.359 20.1911 10.359C19.3693 10.359 18.703 9.69273 18.703 8.87096C18.703 8.04852 19.3688 7.38286 20.1911 7.38286Z" fill="#02475B"/>
</svg>
