<svg width="24" height="24" viewBox="0 0 24 24" fill="none" xmlns="http://www.w3.org/2000/svg">
<path d="M7.99009 6.40197L7.46509 3.77899C7.41208 3.50899 7.15108 3.33199 6.8771 3.38697C6.6071 3.44097 6.43108 3.70497 6.48508 3.97596L7.01008 6.59795C7.0571 6.83593 7.26606 6.99995 7.50006 6.99995C7.53208 6.99995 7.56508 6.99695 7.59808 6.98996C7.86911 6.93596 8.04409 6.67295 7.99009 6.40197Z" fill="#02475B"/>
<path d="M17.1208 3.38694C16.8448 3.33093 16.5868 3.50793 16.5328 3.77896L16.0088 6.40194C15.9548 6.67293 16.1298 6.93594 16.4008 6.98994C16.4348 6.99693 16.4668 6.99993 16.4998 6.99993C16.7338 6.99993 16.9428 6.83591 16.9898 6.59793L17.5128 3.97494C17.5668 3.70396 17.3918 3.44094 17.1208 3.38694Z" fill="#02475B"/>
<path d="M18.806 9.23397C18.72 8.97199 18.434 8.82996 18.174 8.91696C17.912 9.00396 17.77 9.28694 17.857 9.54897C17.951 9.82896 18 10.158 18 10.5C18 11.471 17.645 12.012 17.469 11.978C17.334 11.893 17.166 11.878 17.017 11.938C16.868 11.998 16.757 12.125 16.719 12.281C16.02 15.104 14.123 17 12 17C9.87702 17 7.98003 15.104 7.28103 12.281C7.24302 12.125 7.11603 12.01 6.96805 11.949C6.82006 11.89 6.63706 11.915 6.50005 12C6.37602 12 6.00003 11.468 6.00003 10.5C6.00003 10.158 6.04902 9.82896 6.14202 9.54799C6.22902 9.28601 6.08802 9.00297 5.825 8.91597C5.56302 8.82897 5.279 8.97096 5.19298 9.23299C5.06698 9.61399 5 10.052 5 10.5C5 11.893 5.615 12.951 6.44098 12.999C7.35003 16.01 9.53703 18 12 18C14.463 18 16.65 16.01 17.559 12.999C18.385 12.951 19 11.893 19 10.5C19 10.052 18.933 9.61399 18.806 9.23397Z" fill="#02475B"/>
<path d="M10.5 10H9.50002C9.22402 10 9 10.224 9 10.5C9 10.776 9.22402 11 9.50002 11H10.5C10.776 11 11 10.776 11 10.5C11 10.224 10.776 10 10.5 10Z" fill="#02475B"/>
<path d="M14.5 10H13.5C13.224 10 13 10.224 13 10.5C13 10.776 13.224 11 13.5 11H14.5C14.776 11 15 10.776 15 10.5C15 10.224 14.776 10 14.5 10Z" fill="#02475B"/>
<path d="M8.90104 15.6999L6.00004 11.8329V7.99989C6.00004 7.72389 5.77602 7.49988 5.50002 7.49988C5.22402 7.49988 5.00001 7.72389 5.00001 7.99989C5.00001 9.61488 4.10301 13.1899 3.14601 14.1459C2.95101 14.3409 2.95101 14.6579 3.14601 14.8529C4.25099 15.9589 8.01402 16.4439 8.43899 16.4959C8.45999 16.4989 8.48001 16.4999 8.49997 16.4999C8.67697 16.4999 8.84296 16.4059 8.93296 16.2499C9.03402 16.0769 9.02104 15.8599 8.90104 15.6999Z" fill="#02475B"/>
<path d="M20.854 14.1459C19.897 13.1899 19 9.61493 19 7.99989C19 7.72389 18.7759 7.49988 18.4999 7.49988C18.2239 7.49988 18 7.72394 18 7.99994V11.833L15.1 15.7C14.98 15.8599 14.967 16.0759 15.068 16.2499C15.158 16.4059 15.3239 16.4999 15.5009 16.4999C15.521 16.4999 15.5409 16.4989 15.5619 16.4969C15.9869 16.4449 19.7499 15.9599 20.8549 14.8539C21.049 14.6579 21.049 14.3419 20.854 14.1459Z" fill="#02475B"/>
<path d="M17.6901 1.038C17.586 0.995016 15.1251 0 12 0C8.87503 0 6.41405 0.995016 6.31003 1.038C6.08902 1.12898 5.96302 1.36402 6.01003 1.599L7.01002 6.59902C7.05703 6.83203 7.26202 7.00003 7.5 7.00003H16.5C16.738 7.00003 16.943 6.83203 16.99 6.59803L17.99 1.59802C18.037 1.36298 17.911 1.128 17.6901 1.038ZM13 3.99998H12.5V4.5C12.5 4.776 12.276 5.00002 12 5.00002C11.724 5.00002 11.5 4.776 11.5 4.5V3.99998H11C10.724 3.99998 10.5 3.77597 10.5 3.49997C10.5 3.22397 10.7241 3 11.0001 3H11.5001V2.49998C11.5001 2.22398 11.7241 1.99997 12.0001 1.99997C12.2761 1.99997 12.5001 2.22398 12.5001 2.49998V3H13.0001C13.276 3 13.5 3.22402 13.5 3.50002C13.5 3.77602 13.276 3.99998 13 3.99998Z" fill="#02475B"/>
<path d="M18.3251 5.021L17.9701 6.79399C17.8321 7.49299 17.2131 7.99999 16.5001 7.99999H12.4661C14.1691 9.04399 16.286 9.89097 18.332 9.89097C18.567 9.89097 18.77 9.72696 18.8201 9.49797C18.9431 8.93899 19.0001 8.46298 19.0001 7.99999C19.0001 6.93396 18.7531 5.92699 18.3251 5.021Z" fill="#02475B"/>
<path d="M7.49998 8C6.78697 8 6.16798 7.493 6.029 6.794L5.675 5.021C5.24698 5.927 5 6.93402 5 8C5 8.46299 5.057 8.939 5.18 9.49799C5.21098 9.641 5.30398 9.764 5.43298 9.83197C5.56297 9.90097 5.71798 9.90899 5.852 9.85499C5.95198 9.81599 7.38898 9.23197 8.54398 8H7.49998Z" fill="#02475B"/>
<path d="M19.636 17.6259L19.234 17.4859C19.067 17.4279 18.88 17.4629 18.745 17.5779C18.61 17.6939 18.546 17.8719 18.578 18.0479L18.976 20.2299C19.048 20.6239 18.962 21.0229 18.733 21.3529C18.508 21.6779 18.156 21.9049 17.768 21.9759L12.268 22.9759C12.18 22.9919 12.09 22.9999 12 22.9999C11.91 22.9999 11.82 22.9919 11.731 22.9759L6.231 21.9759C5.84302 21.9059 5.49098 21.6789 5.26598 21.3539C5.037 21.0239 4.95197 20.6249 5.02298 20.231L5.421 18.049C5.45302 17.874 5.39002 17.695 5.25398 17.579C5.11898 17.464 4.932 17.429 4.76498 17.4869L4.36397 17.627C1.67198 18.563 0 20.813 0 23.4999C0 23.7759 0.224016 24 0.500016 24H12H23.5C23.776 24 24 23.7759 24 23.4999C24 20.813 22.328 18.563 19.636 17.6259Z" fill="#02475B"/>
<path d="M17.9919 20.41L17.391 17.114C17.36 16.942 17.241 16.8 17.078 16.737C16.914 16.674 16.731 16.701 16.593 16.809L12 20.368L7.40696 16.809C7.26994 16.702 7.08694 16.674 6.92194 16.737C6.75896 16.8 6.63994 16.942 6.60896 17.114L6.00798 20.41C5.98398 20.5411 6.01299 20.675 6.08898 20.785C6.16496 20.894 6.27999 20.968 6.41096 20.992L11.9109 21.992C11.94 21.997 11.97 22 12 22C12.03 22 12.06 21.997 12.089 21.992L17.589 20.992C17.7189 20.969 17.835 20.894 17.9109 20.785C17.987 20.676 18.015 20.541 17.9919 20.41Z" fill="#02475B"/>
</svg>
