<svg width="22" height="24" viewBox="0 0 22 24" fill="none" xmlns="http://www.w3.org/2000/svg">
<path d="M21.072 16.8106C20.9326 16.728 20.7718 16.6887 20.61 16.6975C20.2851 16.7208 19.9612 16.6407 19.6845 16.4689C19.0062 16.0303 18.3643 15.5747 17.7772 15.1139C17.493 14.8872 17.382 14.5063 17.4997 14.1624C17.9707 12.7506 17.9707 11.2241 17.4997 9.81239C17.3812 9.46806 17.4924 9.08644 17.7772 8.85957C18.5416 8.26004 19.2503 7.78213 19.7102 7.48622C19.9746 7.32269 20.2849 7.24908 20.5945 7.27639C20.82 7.28684 21.0408 7.21017 21.2112 7.06227C21.4668 6.83512 21.5628 6.47767 21.4554 6.15301C21.348 5.82834 21.0578 5.5987 20.7171 5.56884C20.3764 5.53898 20.0506 5.71464 19.8884 6.01567C19.7438 6.31007 19.5118 6.55265 19.2242 6.71026C18.7818 6.93466 17.7108 7.40657 17.1113 7.66779C16.7691 7.81457 16.3714 7.72413 16.1264 7.44383C15.1447 6.3341 13.8288 5.57372 12.3772 5.27739C12.01 5.20721 11.7307 4.90699 11.6873 4.53569C11.6119 3.87064 11.4822 2.68101 11.4595 2.18554C11.4509 1.87987 11.541 1.57956 11.7164 1.32908C11.9183 1.02384 11.904 0.624014 11.6807 0.334021C11.4574 0.0440277 11.0746 -0.0720451 10.7279 0.0451464C10.3811 0.162338 10.1472 0.486894 10.1456 0.85288C10.1447 1.01221 10.1893 1.1685 10.2741 1.30338C10.4591 1.57613 10.5533 1.90025 10.5435 2.22965C10.5182 2.72126 10.3902 3.8852 10.3161 4.53526C10.2725 4.90559 9.99441 5.2052 9.62833 5.27611C8.17627 5.57282 6.85998 6.33346 5.87786 7.4434C5.63374 7.72364 5.23674 7.81446 4.89506 7.66822C4.28355 7.40272 3.19155 6.92267 2.74961 6.69228C2.47666 6.54604 2.25849 6.31524 2.12782 6.03451C1.99742 5.78137 1.75058 5.60881 1.46806 5.57328C1.18553 5.53775 0.903659 5.64382 0.714645 5.85679C0.545537 6.05016 0.47215 6.30921 0.514717 6.56254C0.557284 6.81587 0.71131 7.03672 0.934328 7.16419C1.07348 7.24547 1.2333 7.28446 1.39425 7.27639C1.7192 7.25216 2.0434 7.33227 2.31966 7.50506C2.9997 7.94486 3.64162 8.4005 4.22659 8.85957C4.51133 9.08669 4.62229 9.46845 4.50366 9.81282C4.0329 11.2242 4.0329 12.7502 4.50366 14.1615C4.62192 14.5057 4.5108 14.8871 4.22616 15.1139C3.46048 15.7134 2.75218 16.1922 2.29269 16.4877C2.02838 16.6503 1.71888 16.7239 1.40967 16.6975C1.18404 16.6866 0.962923 16.7633 0.792583 16.9116C0.464253 17.2028 0.409121 17.695 0.6649 18.0516C0.920679 18.4082 1.4046 18.5138 1.78566 18.2961C1.9255 18.2172 2.0399 18.1 2.1154 17.9583C2.2601 17.6638 2.49222 17.4212 2.78002 17.2637C3.22238 17.0393 4.29339 16.5673 4.89292 16.3061C4.99958 16.2599 5.11456 16.236 5.2308 16.2359C5.47894 16.2366 5.71484 16.3438 5.87872 16.5301C6.86042 17.64 8.17648 18.4006 9.62833 18.697C9.99488 18.7676 10.2735 19.0675 10.3169 19.4382C10.3923 20.1007 10.5216 21.2869 10.5448 21.7858C10.5532 22.0925 10.4631 22.3939 10.2878 22.6457C10.0858 22.951 10.1002 23.351 10.3237 23.641C10.5471 23.931 10.9302 24.0469 11.2769 23.9295C11.6236 23.812 11.8574 23.4871 11.8586 23.121C11.8597 22.9614 11.8151 22.8048 11.7301 22.6697C11.5451 22.3978 11.451 22.0743 11.4612 21.7456C11.4937 21.116 11.5661 20.15 11.7258 19.1179C11.7514 18.9299 11.8966 18.7807 12.0838 18.7501C13.6486 18.5035 15.0783 17.7187 16.1264 16.5309C16.3708 16.2497 16.769 16.1588 17.1113 16.3061C17.7249 16.5725 18.8191 17.0538 19.2563 17.2821C19.5287 17.4283 19.7463 17.659 19.8764 17.9394C20.0066 18.1934 20.2539 18.3666 20.5371 18.4022C20.8203 18.4377 21.1028 18.331 21.2917 18.1171C21.4608 17.9238 21.5342 17.6647 21.4916 17.4114C21.4491 17.158 21.295 16.9372 21.072 16.8097V16.8106ZM6.29153 14.1281C5.58201 14.1281 5.00683 13.5529 5.00683 12.8434C5.00683 12.1339 5.58201 11.5587 6.29153 11.5587C7.00105 11.5587 7.57623 12.1339 7.57623 12.8434C7.57623 13.5529 7.00105 14.1281 6.29153 14.1281ZM7.57623 9.41756C7.57623 8.23502 8.53487 7.27639 9.7174 7.27639C10.8999 7.27639 11.8586 8.23502 11.8586 9.41756C11.8586 10.6001 10.8999 11.5587 9.7174 11.5587C8.53546 11.5573 7.57765 10.5995 7.57623 9.41756ZM11.4303 17.554C10.0113 17.554 8.86094 16.4036 8.86094 14.9846C8.86094 13.5656 10.0113 12.4152 11.4303 12.4152C12.8494 12.4152 13.9997 13.5656 13.9997 14.9846C13.9983 16.4031 12.8488 17.5526 11.4303 17.554ZM14.428 11.987C13.7185 11.987 13.1433 11.4118 13.1433 10.7023C13.1433 9.99274 13.7185 9.41756 14.428 9.41756C15.1375 9.41756 15.7127 9.99274 15.7127 10.7023C15.7127 11.4118 15.1375 11.987 14.428 11.987Z" fill="#02475B"/>
</svg>
