<svg width="24" height="24" viewBox="0 0 24 24" fill="none" xmlns="http://www.w3.org/2000/svg">
<path d="M17.6274 8.4812C17.2391 8.4812 16.9243 8.79601 16.9243 9.18433V10.5906C16.9243 10.9789 17.2391 11.2937 17.6274 11.2937C18.0158 11.2937 18.3306 10.9789 18.3306 10.5906V9.18433C18.3306 8.79601 18.0158 8.4812 17.6274 8.4812Z" fill="#02475B"/>
<path d="M15.5649 22.5438H19.779V23.9969H15.5649V22.5438Z" fill="#02475B"/>
<path d="M21.422 16.9657H19.779V13.4032C19.779 13.0151 19.464 12.7001 19.0759 12.7001H16.2681C15.8799 12.7001 15.5649 13.0151 15.5649 13.4032V16.9657H13.9243C12.5027 16.9657 11.3462 18.1222 11.3462 19.5438V23.2938C11.3462 23.6821 11.661 23.9969 12.0493 23.9969H14.1587V21.8407C14.1587 21.4524 14.4735 21.1376 14.8618 21.1376H20.4821C20.8704 21.1376 21.1853 21.4524 21.1853 21.8407V23.9969H23.297C23.6853 23.9969 24.0001 23.6821 24.0001 23.2938V19.5438C24.0001 18.1222 22.8436 16.9657 21.422 16.9657Z" fill="#02475B"/>
<path d="M14.9057 7.3479C14.9057 6.76632 14.4326 6.29321 13.851 6.29321H10.7551C10.1735 6.29321 9.70044 6.76632 9.70044 7.3479C9.70044 7.92948 10.1735 8.40259 10.7551 8.40259H13.851C14.4326 8.40259 14.9057 7.92948 14.9057 7.3479Z" fill="#02475B"/>
<path d="M12.5617 14.4025C12.5617 13.821 12.0886 13.3479 11.507 13.3479H9.51465C8.93903 13.3479 8.46592 13.8162 8.46002 14.3918C8.45402 14.979 8.92741 15.4572 9.51465 15.4572H11.5071C12.0886 15.4572 12.5617 14.9841 12.5617 14.4025Z" fill="#02475B"/>
<path d="M8.47819 12.1729C7.8457 11.158 8.03236 9.8235 8.95275 9.02081C7.51083 7.46822 8.58656 4.90547 10.7345 4.88747L10.7361 4.87519H18.1431C18.7892 4.87519 19.3148 4.34958 19.3148 3.7035C19.3148 3.05592 18.7909 2.53181 18.1428 2.53181L12.1431 2.53289C12.0002 2.76534 11.8336 2.9872 11.6317 3.18084C10.2872 4.47019 8.53734 4.1992 8.14978 4.20731C7.97639 5.44538 7.49152 6.50311 6.71184 7.25944L6.71114 7.26202C6.10566 7.85339 5.24311 8.33578 4.01545 8.46877C3.62991 8.51062 3.28237 8.22998 3.2407 7.84547C3.19889 7.45941 3.47798 7.11253 3.864 7.07072C5.19422 6.92662 6.12389 6.1703 6.5603 4.87519C6.79608 4.17539 6.79941 3.56714 6.79912 3.51023C6.79448 3.12431 7.03509 2.80102 7.50225 2.80102C7.91634 2.80102 9.15281 2.8012 9.15281 2.8012C9.15281 2.8012 9.64739 2.83716 10.1832 2.53327H10.1799C10.8111 2.17809 11.2522 1.50075 11.2522 0.702V0L4.23178 0.0161719C3.47273 0.0183281 2.77036 0.430781 2.39864 1.09247L1.04395 3.50409H0.703125C0.314812 3.50409 0 3.81891 0 4.20722V13.3478C0 13.7361 0.314812 14.0509 0.703125 14.0509H1.09031L1.88391 14.8418C2.28202 15.2386 2.81081 15.4572 3.37294 15.4572L7.28226 15.4405C6.71662 14.2261 7.23342 12.7565 8.47819 12.1729Z" fill="#02475B"/>
<path d="M10.5676 9.82056C9.98605 9.82056 9.51294 10.2937 9.51294 10.8752C9.51294 11.4568 9.98605 11.9299 10.5676 11.9299H11.976C12.5576 11.9299 13.0307 11.4568 13.0307 10.8752C13.0307 10.2937 12.5576 9.82056 11.976 9.82056H10.5676Z" fill="#02475B"/>
</svg>
