<svg width="24" height="24" viewBox="0 0 24 24" fill="none" xmlns="http://www.w3.org/2000/svg">
<path d="M19.2888 13.1353C19.1615 13.0081 19.0829 12.8324 19.0828 12.6382L19.0828 12.3816C19.0828 11.7907 19.3128 11.2353 19.7306 10.8176C20.1483 10.3999 20.7037 10.1698 21.2945 10.1698L21.551 10.1698C21.7375 10.1698 21.9164 10.2439 22.0482 10.3757C22.1801 10.5076 22.2542 10.6864 22.2542 10.8729V11.1296C22.2542 11.7204 22.0242 12.2758 21.6064 12.6935C21.1887 13.1112 20.6333 13.3413 20.0425 13.3413H19.786C19.5918 13.3413 19.416 13.2626 19.2888 13.1353Z" fill="#02475B"/>
<path d="M22.28 13.9719C21.6446 14.4742 20.8648 14.7476 20.0424 14.7476H19.7857C19.2222 14.7476 18.6925 14.5282 18.2941 14.1298C17.8959 13.7315 17.6764 13.2019 17.6763 12.6386L17.6762 12.3819C17.6762 12.1853 17.6926 11.9913 17.7231 11.801C17.4819 11.5499 17.1919 11.3421 16.8633 11.1942C16.5089 11.0348 16.0929 11.1927 15.9336 11.5468C15.7742 11.901 15.9321 12.3172 16.2862 12.4765C16.7112 12.6678 17.0055 13.0614 17.0767 13.513C15.9175 13.0931 14.6686 13.1761 13.6452 13.7604C12.2252 14.571 11.4311 16.1394 11.6221 17.7558C11.6249 17.7794 11.6289 17.8029 11.6341 17.8261C12.1008 19.9229 13.1942 21.788 14.7958 23.2194L15.1022 23.4932C15.4793 23.8302 15.9515 24 16.4249 24C16.8623 24 17.3005 23.8551 17.6654 23.5633L17.7966 23.4583L17.9318 23.566C18.6911 24.1707 19.7677 24.1402 20.4916 23.4933L20.798 23.2195C22.3996 21.788 23.4929 19.923 23.9597 17.8261C23.9649 17.8029 23.9689 17.7794 23.9717 17.7558C24.1474 16.2692 23.4904 14.8253 22.28 13.9719Z" fill="#02475B"/>
<path d="M12.4219 5.15624H3.98439C3.76375 5.15624 3.5559 5.05269 3.42301 4.87654C3.29017 4.70038 3.2477 4.47205 3.30831 4.25995C3.62973 3.13509 4.51562 2.28014 5.62501 1.98717V0.703124C5.62501 0.314812 5.93982 0 6.32813 0H10.0781C10.4664 0 10.7812 0.314812 10.7812 0.703124V1.98717C11.8906 2.28014 12.7765 3.13509 13.0979 4.25995C13.1586 4.47205 13.1161 4.70038 12.9832 4.87654C12.8504 5.05269 12.6425 5.15624 12.4219 5.15624Z" fill="#02475B"/>
<path d="M15.7031 3.27954H14.2352C14.3196 3.47131 14.3918 3.66954 14.45 3.87363C14.6308 4.5064 14.5022 5.1979 14.1059 5.72332C13.7095 6.24888 13.0799 6.56252 12.4219 6.56252H3.98437C3.32629 6.56252 2.69676 6.24888 2.30039 5.72355C1.90401 5.1979 1.77539 4.5064 1.95614 3.87363C2.01445 3.66959 2.08664 3.47131 2.17101 3.27954H0.703124C0.314812 3.27954 0 3.59435 0 3.98266V23.2951C0 23.6834 0.314812 23.9983 0.703124 23.9983H13.5679C11.9042 22.408 10.764 20.388 10.2617 18.1316C10.2464 18.063 10.2343 17.992 10.2259 17.9212C9.96847 15.7426 11.0371 13.6302 12.9483 12.5391C13.4199 12.2699 13.9337 12.0765 14.4688 11.9628C14.448 11.6258 14.5089 11.2865 14.6514 10.9698C14.9681 10.266 15.6451 9.79422 16.4062 9.7329V3.98266C16.4062 3.59435 16.0914 3.27954 15.7031 3.27954ZM9.14061 20.1545H3.51562C3.12731 20.1545 2.81249 19.8397 2.81249 19.4514C2.81249 19.0631 3.12731 18.7483 3.51562 18.7483H9.14061C9.52892 18.7483 9.84373 19.0631 9.84373 19.4514C9.84373 19.8397 9.52892 20.1545 9.14061 20.1545ZM9.14061 17.342H3.51562C3.12731 17.342 2.81249 17.0272 2.81249 16.6389C2.81249 16.2506 3.12731 15.9358 3.51562 15.9358H9.14061C9.52892 15.9358 9.84373 16.2506 9.84373 16.6389C9.84373 17.0272 9.52892 17.342 9.14061 17.342ZM9.14061 14.5295H3.51562C3.12731 14.5295 2.81249 14.2147 2.81249 13.8264C2.81249 13.4381 3.12731 13.1233 3.51562 13.1233H9.14061C9.52892 13.1233 9.84373 13.4381 9.84373 13.8264C9.84373 14.2147 9.52892 14.5295 9.14061 14.5295ZM9.14061 11.717H3.51562C3.12731 11.717 2.81249 11.4022 2.81249 11.0139C2.81249 10.6256 3.12731 10.3108 3.51562 10.3108H9.14061C9.52892 10.3108 9.84373 10.6256 9.84373 11.0139C9.84373 11.4022 9.52892 11.717 9.14061 11.717ZM9.14061 8.90453H3.51562C3.12731 8.90453 2.81249 8.58972 2.81249 8.20141C2.81249 7.8131 3.12731 7.49828 3.51562 7.49828H9.14061C9.52892 7.49828 9.84373 7.8131 9.84373 8.20141C9.84373 8.58972 9.52892 8.90453 9.14061 8.90453ZM12.8906 11.717H11.9531C11.5648 11.717 11.25 11.4022 11.25 11.0139C11.25 10.6256 11.5648 10.3108 11.9531 10.3108H12.8906C13.2789 10.3108 13.5937 10.6256 13.5937 11.0139C13.5937 11.4022 13.2789 11.717 12.8906 11.717ZM12.8906 8.90453H11.9531C11.5648 8.90453 11.25 8.58972 11.25 8.20141C11.25 7.8131 11.5648 7.49828 11.9531 7.49828H12.8906C13.2789 7.49828 13.5937 7.8131 13.5937 8.20141C13.5937 8.58972 13.2789 8.90453 12.8906 8.90453Z" fill="#02475B"/>
</svg>
