<svg width="24" height="24" viewBox="0 0 24 24" fill="none" xmlns="http://www.w3.org/2000/svg">
<path d="M8.14285 9.42857H6.42856C5.86024 9.42857 5.3152 9.65434 4.91333 10.0562C4.51147 10.4581 4.28571 11.0031 4.28571 11.5714V12.8571H10.2857V11.5714C10.2857 11.0031 10.0599 10.4581 9.65808 10.0562C9.25621 9.65434 8.71117 9.42857 8.14285 9.42857V9.42857Z" fill="#02475B"/>
<path d="M14.5714 12H21.4286V12.8571H14.5714V12Z" fill="#02475B"/>
<path d="M0 17.5714C0.00101747 17.9121 0.136803 18.2386 0.377701 18.4794C0.618599 18.7203 0.945035 18.8561 1.28571 18.8571H22.7143C23.055 18.8561 23.3814 18.7203 23.6223 18.4794C23.8632 18.2386 23.999 17.9121 24 17.5714V16.2857H0V17.5714ZM21.4286 17.1429H22.2857V18H21.4286V17.1429ZM19.7143 17.1429H20.5714V18H19.7143V17.1429Z" fill="#02475B"/>
<path d="M5.57141 7.28566C5.57243 7.62634 5.70821 7.95277 5.94911 8.19367C6.19001 8.43457 6.51645 8.57035 6.85713 8.57137H7.71427C8.05495 8.57035 8.38138 8.43457 8.62228 8.19367C8.86318 7.95277 8.99897 7.62634 8.99998 7.28566V6.30851L8.10427 6.00851L5.57141 6.3728V7.28566Z" fill="#02475B"/>
<path d="M2.57141 12.8571H3.42855V11.5714C3.42976 10.9699 3.61131 10.3825 3.94975 9.88511C4.28819 9.38777 4.76797 9.00332 5.32713 8.78143C4.93464 8.38249 4.71455 7.84535 4.71427 7.28571V5.57143C4.71427 5.00311 4.94003 4.45806 5.3419 4.0562C5.74376 3.65433 6.2888 3.42857 6.85713 3.42857H7.71427C8.28259 3.42857 8.82763 3.65433 9.2295 4.0562C9.63136 4.45806 9.85713 5.00311 9.85713 5.57143V7.28571C9.85684 7.84535 9.63675 8.38249 9.24427 8.78143C9.80342 9.00332 10.2832 9.38777 10.6216 9.88511C10.9601 10.3825 11.1416 10.9699 11.1428 11.5714V12.8571H12V2.57143H2.57141V12.8571Z" fill="#02475B"/>
<path d="M8.28008 5.16429L8.98293 5.40001C8.94156 5.09245 8.79035 4.81024 8.55719 4.60544C8.32404 4.40065 8.02469 4.28709 7.71436 4.28572H6.85722C6.52889 4.2862 6.21329 4.41276 5.97561 4.63928C5.73794 4.86579 5.59634 5.17494 5.58008 5.50286L8.08294 5.14715C8.1491 5.1379 8.2165 5.14376 8.28008 5.16429Z" fill="#02475B"/>
<path d="M22.7143 0H1.28571C0.945035 0.00101747 0.618599 0.136803 0.377701 0.377701C0.136803 0.618599 0.00101747 0.945035 0 1.28571V15.4286H24V1.28571C23.999 0.945035 23.8632 0.618599 23.6223 0.377701C23.3814 0.136803 23.055 0.00101747 22.7143 0V0ZM13.7143 1.71429H15.4286V2.57143H13.7143V1.71429ZM13.7143 4.28571H15.4286V5.14286H13.7143V4.28571ZM13.7143 6.85714H15.4286V7.71429H13.7143V6.85714ZM13.7143 9.42857H15.4286V10.2857H13.7143V9.42857ZM12.8571 13.2857C12.8571 13.3994 12.812 13.5084 12.7316 13.5888C12.6512 13.6691 12.5422 13.7143 12.4286 13.7143H2.14286C2.02919 13.7143 1.92018 13.6691 1.83981 13.5888C1.75944 13.5084 1.71429 13.3994 1.71429 13.2857V2.14286C1.71429 2.02919 1.75944 1.92018 1.83981 1.83981C1.92018 1.75944 2.02919 1.71429 2.14286 1.71429H12.4286C12.5422 1.71429 12.6512 1.75944 12.7316 1.83981C12.812 1.92018 12.8571 2.02919 12.8571 2.14286V13.2857ZM22.2857 13.2857C22.2857 13.3994 22.2406 13.5084 22.1602 13.5888C22.0798 13.6691 21.9708 13.7143 21.8571 13.7143H14.1429C14.0292 13.7143 13.9202 13.6691 13.8398 13.5888C13.7594 13.5084 13.7143 13.3994 13.7143 13.2857V11.5714C13.7143 11.4578 13.7594 11.3488 13.8398 11.2684C13.9202 11.188 14.0292 11.1429 14.1429 11.1429H21.8571C21.9708 11.1429 22.0798 11.188 22.1602 11.2684C22.2406 11.3488 22.2857 11.4578 22.2857 11.5714V13.2857ZM22.2857 10.2857H16.2857V9.42857H22.2857V10.2857ZM22.2857 7.71429H16.2857V6.85714H22.2857V7.71429ZM22.2857 5.14286H16.2857V4.28571H22.2857V5.14286ZM22.2857 2.57143H16.2857V1.71429H22.2857V2.57143Z" fill="#02475B"/>
<path d="M10.2857 19.7143H13.7143V22.2857H10.2857V19.7143Z" fill="#02475B"/>
<path d="M17.1429 23.1429H6.85716C6.7435 23.1429 6.63449 23.188 6.55411 23.2684C6.47374 23.3488 6.42859 23.4578 6.42859 23.5714V24H17.5714V23.5714C17.5714 23.4578 17.5263 23.3488 17.4459 23.2684C17.3655 23.188 17.2565 23.1429 17.1429 23.1429Z" fill="#02475B"/>
</svg>
