<svg width="24" height="24" viewBox="0 0 24 24" fill="none" xmlns="http://www.w3.org/2000/svg">
<path d="M14.1083 17.5753C13.9705 17.9347 13.6111 18.1586 13.2285 18.1182C12.8451 18.0807 12.5351 17.7917 12.4692 17.4143L11.7765 13.3767L11.7174 13.7309V13.7324V13.7316L10.997 17.6883C10.9244 18.0919 10.5702 18.39 10.1614 18.39C10.1584 18.39 10.1546 18.39 10.1516 18.39C9.74577 18.39 9.39683 18.1077 9.31521 17.7093L8.64053 14.4175L8.46906 14.6984C8.31181 14.9477 8.03849 15.1042 7.74421 15.1042H2.99902C4.74674 17.0556 7.51283 19.3484 11.8904 21.6338C11.8971 21.6473 11.9076 21.6525 11.9233 21.651C16.321 19.3619 19.2481 17.0616 21.0011 15.1042H15.0556L14.1083 17.5753Z" fill="#02475B"/>
<path d="M23.9685 9.25671V9.24922C23.9888 9.04255 24 8.83438 24 8.62322C24 5.15774 21.192 2.35046 17.7265 2.35046C15.1768 2.35046 12.9806 3.87429 12.0004 6.0608C11.0194 3.87429 8.82469 2.35121 6.2735 2.35121C2.80877 2.35046 0 5.15924 0 8.62397C0 8.83588 0.0104833 9.04554 0.0314499 9.25221L0 9.26345C0 9.26345 0 10.9295 1.66535 13.4043H7.27016L8.32373 11.7076C8.50944 11.4125 8.85838 11.256 9.19909 11.3152C9.54354 11.3773 9.81461 11.6409 9.885 11.9824L10.0977 13.0232L10.9243 8.445C11.003 8.16719 11.1265 7.69919 11.5271 7.6595C11.5279 7.65726 11.5279 7.65501 11.5286 7.65351C11.6102 7.62655 11.6971 7.60709 11.7862 7.60709C11.7877 7.60709 11.7885 7.60709 11.7892 7.60709C12.1007 7.60709 12.4601 7.80028 12.5964 8.19864H12.5949C12.6099 8.23983 12.6219 8.28101 12.6286 8.32594L13.6215 14.0596L13.6687 13.9442C13.7945 13.614 14.1128 13.4043 14.4662 13.4043H22.3332C23.9993 10.9295 23.9993 9.26345 23.9993 9.26345L23.9685 9.25671ZM6.45172 3.73351C7.02006 3.73351 7.48133 4.19328 7.48133 4.76237C7.48133 5.33071 7.02006 5.79123 6.45172 5.79123C5.88337 5.79123 5.42361 5.33071 5.42361 4.76237C5.42361 4.19328 5.88337 3.73351 6.45172 3.73351ZM3.76949 10.171C3.89529 10.6255 3.62947 11.0965 3.17569 11.2223C3.09931 11.244 3.02218 11.2538 2.94655 11.2538C2.5729 11.2538 2.22995 11.0067 2.12362 10.6285C1.96711 10.0647 1.89223 9.54949 1.87351 9.07999C1.7859 6.66434 3.25956 5.48721 3.33444 5.42881C3.70734 5.14127 4.24274 5.20716 4.53253 5.58156C4.81932 5.95147 4.75492 6.48238 4.3895 6.77366C4.33334 6.82009 3.56657 7.48803 3.58079 8.92274L3.58603 8.92199L3.58079 8.92274C3.58454 9.28816 3.6392 9.703 3.76949 10.171Z" fill="#02475B"/>
</svg>
