<svg width="24" height="23" viewBox="0 0 24 23" fill="none" xmlns="http://www.w3.org/2000/svg">
<path d="M23.9999 10.0178C23.9999 10.2908 23.7789 10.5125 23.5052 10.5125H19.407L16.1077 18.0527C16.0295 18.2342 15.8501 18.3493 15.6549 18.3493H3.28592C3.013 18.3493 2.79127 18.1279 2.79127 17.8546C2.79127 17.5831 3.013 17.36 3.28592 17.36H15.3309L18.6299 9.81978C18.7081 9.63918 18.8869 9.5232 19.083 9.5232H23.5052C23.7789 9.5232 23.9999 9.74492 23.9999 10.0178ZM7.12504 19.0378C6.21006 19.0378 5.47108 19.7778 5.47108 20.6896C5.47108 21.6035 6.21006 22.3436 7.12504 22.3436C8.03738 22.3436 8.77724 21.6035 8.77724 20.6896C8.77724 19.7778 8.03738 19.0378 7.12504 19.0378ZM13.0031 19.0378C12.0896 19.0378 11.3488 19.7778 11.3488 20.6896C11.3488 21.6035 12.0896 22.3436 13.0031 22.3436C13.9167 22.3436 14.6559 21.6035 14.6559 20.6896C14.6559 19.7778 13.9167 19.0378 13.0031 19.0378ZM2.99129 15.6442L0.0795104 4.84448C-0.250964 3.61561 0.47901 2.34774 1.70752 2.01744L6.52164 0.719548C7.04825 0.576202 7.58827 0.649817 8.06192 0.865014C8.54968 0.25932 9.3192 -0.0739787 10.1175 0.013936L15.072 0.572318C15.6845 0.641343 16.2352 0.945161 16.6186 1.42763C17.0033 1.90816 17.1764 2.51297 17.1065 3.12537L15.8535 14.2386C15.7841 14.8493 15.4801 15.3999 14.9987 15.7833C14.5872 16.1127 14.0862 16.287 13.5666 16.287C13.4791 16.287 13.3905 16.282 13.3015 16.2721L10.8268 15.9004C10.7624 15.9224 10.7002 15.9542 10.6349 15.9715L5.81939 17.269C5.6229 17.3222 5.41989 17.3494 5.21811 17.3494C4.17619 17.3511 3.26156 16.6498 2.99129 15.6442ZM8.86127 1.45429C9.08512 1.70974 9.25988 2.00737 9.35045 2.34685L9.5457 3.07294C9.74112 2.73435 10.1231 2.5248 10.5376 2.57052C11.0946 2.63372 11.4964 3.13703 11.4316 3.69488C11.3693 4.25273 10.8669 4.6547 10.3094 4.58903C10.1667 4.57349 10.0373 4.52795 9.9196 4.46122L10.2799 5.80165C10.804 5.76829 11.2798 6.13001 11.3543 6.65944C11.4173 7.10572 11.1751 7.51281 10.7938 7.70312L12.0513 12.3684C12.2066 11.9348 12.6278 11.639 13.1061 11.6923C13.662 11.7543 14.0643 12.2584 13.9992 12.8168C13.9374 13.3731 13.4357 13.7754 12.8767 13.7111C12.6504 13.6861 12.4621 13.5731 12.3069 13.431C12.377 13.9352 12.2889 14.4454 12.0329 14.8945C11.9983 14.9555 11.9529 15.0059 11.9134 15.0627L13.4297 15.2896C13.7642 15.3252 14.1065 15.2286 14.381 15.0083C14.6553 14.7891 14.8292 14.475 14.8689 14.1246L16.1227 3.0131C16.1624 2.66303 16.0643 2.31843 15.8459 2.0448C15.6243 1.76905 15.3119 1.59463 14.9597 1.55597L10.0045 0.997239C9.56476 0.947103 9.14108 1.12999 8.86127 1.45429ZM1.0328 4.59027L3.94581 15.3884C4.13171 16.0735 4.87192 16.5031 5.56253 16.3166L10.3775 15.0193C10.7179 14.9264 11.003 14.7093 11.1779 14.4051C11.3543 14.0979 11.4006 13.7443 11.3082 13.4013L8.39804 2.60371C8.32813 2.33856 8.17172 2.12106 7.974 1.95053C7.93075 1.92599 7.8875 1.89739 7.85537 1.86262C7.64388 1.71821 7.39461 1.62835 7.12751 1.62835C7.01135 1.62835 6.89555 1.6453 6.78009 1.67461L1.96632 2.97267C1.26318 3.15962 0.844086 3.88677 1.0328 4.59027ZM3.56609 6.20539C4.10893 6.06098 4.42864 5.50225 4.28441 4.96117C4.13877 4.41691 3.58056 4.09755 3.0386 4.24302C2.49575 4.38743 2.17711 4.94616 2.32151 5.48707C2.46768 6.02921 3.02377 6.35085 3.56609 6.20539ZM7.01912 5.27363C7.56055 5.12923 7.88079 4.56943 7.73656 4.02712C7.58986 3.48621 7.03218 3.16598 6.49022 3.30985C5.9479 3.45567 5.62678 4.01547 5.77313 4.55655C5.91948 5.09745 6.47716 5.42104 7.01912 5.27363ZM4.3289 9.0296C4.87068 8.88308 5.19163 8.3254 5.0451 7.78432C4.90069 7.242 4.34231 6.92071 3.79947 7.06618C3.25856 7.2127 2.93886 7.76949 3.08309 8.31234C3.22943 8.85466 3.78799 9.17401 4.3289 9.0296ZM7.25197 6.13654C6.70948 6.28183 6.38924 6.84056 6.53365 7.3827C6.67911 7.92361 7.23714 8.24437 7.77981 8.10085C8.32213 7.9545 8.64254 7.39559 8.49725 6.85327C8.35179 6.31219 7.79499 5.99284 7.25197 6.13654ZM5.09065 11.8528C5.63332 11.7084 5.9532 11.1496 5.80773 10.6087C5.66192 10.0652 5.10424 9.74704 4.56316 9.89145C4.01908 10.0378 3.69955 10.5949 3.84484 11.1353C3.9903 11.6808 4.54709 11.9995 5.09065 11.8528ZM8.01266 8.96252C7.47105 9.10781 7.14993 9.66566 7.29558 10.2085C7.44069 10.7499 8.00083 11.0704 8.54156 10.9244C9.08353 10.7794 9.40429 10.2216 9.25794 9.67961C9.1123 9.13535 8.55445 8.81617 8.01266 8.96252ZM5.32279 12.7173C4.78083 12.8622 4.4613 13.4204 4.60641 13.9634C4.75099 14.5043 5.30973 14.8251 5.85222 14.6805C6.39419 14.5347 6.71336 13.9752 6.56807 13.4342C6.42261 12.8929 5.8637 12.5695 5.32279 12.7173ZM8.77512 11.7851C8.23386 11.931 7.91257 12.4904 8.05715 13.0313C8.20261 13.5722 8.76135 13.8942 9.3042 13.75C9.84492 13.6033 10.1659 13.0453 10.0206 12.5038C9.87423 11.9613 9.31744 11.6422 8.77512 11.7851ZM13.8627 4.99259C14.4211 5.05491 14.9223 4.65452 14.9872 4.09773C15.049 3.54182 14.6492 3.03693 14.0927 2.97373C13.5365 2.91124 13.0316 3.31321 12.9685 3.86824C12.9039 4.42803 13.3057 4.92939 13.8627 4.99259ZM13.5345 7.89889C14.0925 7.96033 14.5948 7.56083 14.6585 7.00492C14.7215 6.44901 14.3213 5.94323 13.7645 5.88003C13.2086 5.81772 12.7041 6.21863 12.6397 6.77648C12.5766 7.33416 12.9768 7.83658 13.5345 7.89889ZM13.2077 10.8061C13.7645 10.8684 14.2666 10.468 14.3312 9.91299C14.393 9.35496 13.9932 8.85289 13.4362 8.78899C12.8794 8.72561 12.3747 9.12652 12.3132 9.68261C12.247 10.2415 12.6501 10.7427 13.2077 10.8061Z" fill="#02475B"/>
</svg>
