<svg width="292" height="134" viewBox="0 0 292 134" fill="none" xmlns="http://www.w3.org/2000/svg">
<path d="M52.1963 3.16431H239.397C266.507 3.16431 288.477 25.1426 288.477 52.2446C288.477 79.3547 266.499 101.325 239.397 101.325H52.1963C25.0862 101.325 3.116 79.3466 3.116 52.2446C3.10789 25.1426 25.0862 3.16431 52.1963 3.16431Z" fill="url(#paint0_linear)"/>
<path d="M54.3204 65.4349H42.0787C35.3174 65.4349 29.8289 59.9545 29.8289 53.1851C29.8289 46.4238 35.3093 40.9353 42.0787 40.9353H54.3285V65.4349H54.3204Z" fill="#898989"/>
<path d="M91.0698 40.9436H78.82H54.3204V65.4432V77.693C54.3204 84.4543 59.8008 89.9428 66.5702 89.9428C73.3315 89.9428 78.82 84.4625 78.82 77.693V65.4432H91.0698C97.8311 65.4432 103.32 59.9628 103.32 53.1934C103.32 46.424 97.8311 40.9436 91.0698 40.9436Z" fill="#898989"/>
<path d="M78.82 28.6937C78.82 35.455 73.3396 40.9435 66.5702 40.9435C59.8089 40.9435 54.3204 35.4631 54.3204 28.6937C54.3204 21.9323 59.8008 16.4438 66.5702 16.4438C73.3396 16.4438 78.82 21.9242 78.82 28.6937Z" fill="#898989"/>
<path d="M53.3151 64.7621H41.0653C34.304 64.7621 28.8155 59.2817 28.8155 52.5123C28.8155 45.751 34.2959 40.2625 41.0653 40.2625H53.3151V64.7621Z" fill="white"/>
<path d="M90.0564 40.2625H77.8066H53.3151V64.7621V77.0119C53.3151 83.7732 58.7955 89.2617 65.5649 89.2617C72.3262 89.2617 77.8147 83.7813 77.8147 77.0119V64.7621H90.0645C96.8258 64.7621 102.314 59.2817 102.314 52.5123C102.306 45.751 96.8177 40.2625 90.0564 40.2625Z" fill="url(#paint1_linear)"/>
<path d="M77.8066 28.0208C77.8066 34.7821 72.3262 40.2706 65.5568 40.2706C58.7955 40.2706 53.307 34.7902 53.307 28.0208C53.307 21.2595 58.7874 15.771 65.5568 15.771C72.3262 15.771 77.8066 21.2514 77.8066 28.0208Z" fill="white"/>
<path d="M132.74 50.1694V40.2707H124.73V50.1694H120.109V26.5129H124.73V36.1847H132.74V26.5129H137.361V50.1694H132.74Z" fill="#898989"/>
<path d="M142.874 50.1694V26.5129H158.456V30.6313H147.487V36.1766H156.826V40.295H147.487V46.0429H158.456V50.1613H142.874V50.1694Z" fill="#898989"/>
<path d="M176.429 50.1694L175.035 45.9862H166.628L165.201 50.1694H160.385L168.995 26.5129H172.619L181.261 50.1694H176.429ZM170.917 33.485L167.925 42.0948H173.803L170.917 33.485Z" fill="#898989"/>
<path d="M184.172 50.1694V26.5129H188.793V46.051H199.526V50.1694H184.172Z" fill="#898989"/>
<path d="M209.66 30.6313V50.1694H205.039V30.6313H198.862V26.5129H215.838V30.6313H209.66Z" fill="#898989"/>
<path d="M232.214 50.1694V40.2707H224.204V50.1694H219.583V26.5129H224.204V36.1847H232.214V26.5129H236.835V50.1694H232.214Z" fill="#898989"/>
<path d="M251.387 40.4652V50.1694H246.799V40.4652L239.689 26.5129H244.707L249.126 36.0469L253.479 26.5129H258.497L251.387 40.4652Z" fill="#898989"/>
<path d="M120.109 81.8438V58.1792H124.73V77.7173H135.464V81.8357H120.109V81.8438Z" fill="#898989"/>
<path d="M139.218 81.8438V58.1792H143.839V81.8357H139.218V81.8438Z" fill="#898989"/>
<path d="M153.973 62.3057V68.1185H163.312V72.2369H153.973V81.8438H149.352V58.1792H164.933V62.2976H153.973V62.3057Z" fill="#898989"/>
<path d="M168.955 81.8438V58.1792H184.536V62.2976H173.568V67.8429H182.907V71.9612H173.568V77.7092H184.536V81.8276H168.955V81.8438Z" fill="#898989"/>
<path d="M131.605 49.4963V39.5976H123.595V49.4963H118.974V25.8398H123.595V35.5116H131.605V25.8398H136.226V49.4963H131.605Z" fill="white"/>
<path d="M141.739 49.4963V25.8398H157.321V29.9582H146.352V35.5035H155.691V39.6219H146.352V45.3698H157.321V49.4882H141.739V49.4963Z" fill="white"/>
<path d="M175.302 49.4963L173.908 45.3131H165.501L164.074 49.4963H159.259L167.868 25.8398H171.492L180.134 49.4963H175.302ZM169.782 32.82L166.79 41.4298H172.668L169.782 32.82Z" fill="white"/>
<path d="M183.045 49.4963V25.8398H187.666V45.3779H198.4V49.4963H183.045Z" fill="white"/>
<path d="M208.525 29.9582V49.4963H203.904V29.9582H197.727V25.8398H214.703V29.9582H208.525Z" fill="white"/>
<path d="M231.087 49.4963V39.5976H223.078V49.4963H218.456V25.8398H223.078V35.5116H231.087V25.8398H235.708V49.4963H231.087Z" fill="white"/>
<path d="M250.261 39.7921V49.4963H245.672V39.7921L238.562 25.8398H243.58L247.999 35.3738L252.352 25.8398H257.37L250.261 39.7921Z" fill="white"/>
<path d="M118.982 81.1709V57.5144H123.604V77.0525H134.337V81.1709H118.982Z" fill="white"/>
<path d="M138.083 81.1709V57.5144H142.704V81.1709H138.083Z" fill="white"/>
<path d="M152.838 61.6326V67.4454H162.177V71.5638H152.838V81.1626H148.217V57.5061H163.798V61.6245H152.838V61.6326Z" fill="white"/>
<path d="M167.828 81.1709V57.5144H183.41V61.6328H172.441V67.1862H181.78V71.3046H172.441V77.0525H183.41V81.1709H167.828Z" fill="white"/>
<path d="M52.1963 3.16431H239.397C266.507 3.16431 288.477 25.1426 288.477 52.2446C288.477 79.3547 266.499 101.325 239.397 101.325H52.1963C25.0862 101.325 3.116 79.3466 3.116 52.2446C3.10789 25.1426 25.0862 3.16431 52.1963 3.16431Z" stroke="#ECECEC" stroke-width="6" stroke-miterlimit="10"/>
<path d="M239.284 5.2561H52.3098C26.359 5.2561 5.31302 26.294 5.31302 52.2529C5.31302 78.2037 26.3509 99.2497 52.3098 99.2497H239.284C265.234 99.2497 286.28 78.2118 286.28 52.2529C286.28 26.294 265.243 5.2561 239.284 5.2561Z" stroke="#898989" stroke-miterlimit="10"/>
<path d="M121.609 132.935C120.896 133.478 119.988 133.753 118.869 133.753C118.042 133.753 117.345 133.656 116.769 133.462C116.137 133.235 115.569 132.878 115.075 132.383L116.388 131.07C116.696 131.378 117.077 131.613 117.523 131.759C117.92 131.889 118.383 131.946 118.893 131.946C120.117 131.946 120.734 131.516 120.734 130.665C120.734 130.284 120.628 129.992 120.409 129.789C120.215 129.611 119.907 129.489 119.493 129.424L118.237 129.246C117.353 129.116 116.68 128.832 116.226 128.387C115.732 127.892 115.48 127.211 115.48 126.344C115.48 125.403 115.805 124.641 116.445 124.066C117.11 123.482 117.993 123.19 119.104 123.19C120.507 123.19 121.625 123.595 122.46 124.398L121.18 125.671C120.888 125.387 120.539 125.192 120.126 125.071C119.826 124.99 119.461 124.957 119.047 124.957C117.977 124.957 117.442 125.395 117.442 126.271C117.442 126.571 117.548 126.822 117.75 127.016C117.985 127.227 118.302 127.365 118.715 127.422L119.939 127.6C120.815 127.73 121.479 127.997 121.925 128.403C122.46 128.905 122.728 129.643 122.728 130.608C122.72 131.581 122.347 132.359 121.609 132.935Z" fill="#898989"/>
<path d="M126.084 133.664V123.271H128.111V133.664H126.084Z" fill="#898989"/>
<path d="M131.994 133.664V123.271H134.021V131.848H138.731V133.656H131.994V133.664Z" fill="#898989"/>
<path d="M144.609 133.664H143.093L139.664 123.271H141.763L143.847 130.04L145.93 123.271H148.046L144.609 133.664Z" fill="#898989"/>
<path d="M150.762 133.664V123.271H157.605V125.079H152.789V127.519H156.891V129.327H152.789V131.848H157.605V133.656H150.762V133.664Z" fill="#898989"/>
<path d="M166.571 133.664L164.544 129.522H163.085V133.664H161.058V123.271H165.128C166.158 123.271 166.985 123.579 167.609 124.203C168.201 124.795 168.501 125.549 168.501 126.449C168.501 127.138 168.314 127.73 167.933 128.233C167.593 128.67 167.147 128.986 166.604 129.181L168.922 133.664H166.571ZM164.99 125.087H163.077V127.827H164.99C165.971 127.827 166.466 127.373 166.466 126.457C166.466 125.541 165.971 125.087 164.99 125.087Z" fill="#898989"/>
<path d="M43.7244 128.549H103.028" stroke="#C7C7C7" stroke-width="2" stroke-miterlimit="10"/>
<path d="M181.034 128.549H240.338" stroke="#C7C7C7" stroke-width="2" stroke-miterlimit="10"/>
<defs>
<linearGradient id="paint0_linear" x1="288.483" y1="52.2478" x2="3.11122" y2="52.2478" gradientUnits="userSpaceOnUse">
<stop stop-color="#B6B6B6"/>
<stop offset="1" stop-color="#EDEDED"/>
</linearGradient>
<linearGradient id="paint1_linear" x1="53.3121" y1="64.7615" x2="102.305" y2="64.7615" gradientUnits="userSpaceOnUse">
<stop stop-color="#B6B6B6"/>
<stop offset="1" stop-color="#EDEDED"/>
</linearGradient>
</defs>
</svg>
