<svg width="24" height="24" viewBox="0 0 24 24" fill="none" xmlns="http://www.w3.org/2000/svg">
<path d="M22.8429 12.3109C22.7422 12.1134 22.7422 11.8868 22.8429 11.6892L23.7757 9.85808C24.2951 8.83851 23.8836 7.62328 22.8389 7.09139L20.9625 6.13608C20.76 6.03305 20.6212 5.84968 20.5816 5.63316L20.2147 3.62557C20.0103 2.50779 18.9327 1.75667 17.7619 1.91562L15.6587 2.20109C15.4317 2.23184 15.2072 2.16181 15.0426 2.00895L13.5159 0.591834C12.6658 -0.197255 11.3342 -0.197302 10.4841 0.591834L8.95744 2.00909C8.79271 2.162 8.56824 2.23189 8.34128 2.20123L6.23808 1.91576C5.06687 1.75672 3.98969 2.50793 3.78535 3.62571L3.41838 5.63321C3.37876 5.84977 3.23997 6.0331 3.03758 6.13618L1.1612 7.09148C0.116462 7.62333 -0.295062 8.83865 0.224326 9.85822L1.15714 11.6893C1.25778 11.8869 1.25778 12.1135 1.15714 12.311L0.224277 14.1421C-0.295111 15.1617 0.116413 16.3769 1.16115 16.9088L3.03753 17.8641C3.23997 17.9672 3.37876 18.1505 3.41838 18.3671L3.78535 20.3747C3.97137 21.3922 4.88069 22.1058 5.92577 22.1057C6.0287 22.1057 6.13314 22.0988 6.23813 22.0846L8.34132 21.7991C8.56814 21.7682 8.79276 21.8384 8.95749 21.9912L10.4841 23.4083C10.9092 23.8029 11.4545 24.0002 12 24.0001C12.5453 24.0001 13.0909 23.8028 13.5159 23.4083L15.0426 21.9912C15.2073 21.8384 15.4318 21.7685 15.6587 21.7991L17.7619 22.0846C18.9333 22.2436 20.0103 21.4924 20.2147 20.3746L20.5817 18.3671C20.6213 18.1505 20.7601 17.9672 20.9625 17.8641L22.8389 16.9088C23.8836 16.377 24.2951 15.1617 23.7757 14.1421L22.8429 12.3109ZM9.11479 5.77112C10.5731 5.77112 11.7596 6.90956 11.7596 8.30887C11.7596 9.70817 10.5731 10.8466 9.11479 10.8466C7.65648 10.8466 6.47002 9.70817 6.47002 8.30887C6.47002 6.90956 7.65648 5.77112 9.11479 5.77112ZM7.74969 17.0571C7.60885 17.1923 7.42424 17.2599 7.23968 17.2599C7.05512 17.2599 6.87046 17.1923 6.72967 17.0571C6.44799 16.7869 6.44799 16.3486 6.72967 16.0784L16.2503 6.94299C16.5319 6.67271 16.9887 6.67271 17.2703 6.94299C17.552 7.21327 17.552 7.6515 17.2703 7.92178L7.74969 17.0571ZM14.8851 18.2291C13.4268 18.2291 12.2403 17.0907 12.2403 15.6914C12.2403 14.2921 13.4268 13.1536 14.8851 13.1536C16.3434 13.1536 17.5299 14.2921 17.5299 15.6914C17.5299 17.0907 16.3434 18.2291 14.8851 18.2291Z" fill="#fff"/>
<path d="M14.8847 14.5378C14.2218 14.5378 13.6825 15.0553 13.6825 15.6913C13.6825 16.3274 14.2218 16.8448 14.8847 16.8448C15.5476 16.8448 16.0868 16.3274 16.0868 15.6913C16.0868 15.0553 15.5476 14.5378 14.8847 14.5378Z" fill="#fff"/>
<path d="M9.1151 7.15527C8.45223 7.15527 7.91296 7.67272 7.91296 8.30877C7.91296 8.94481 8.45223 9.46231 9.1151 9.46231C9.77796 9.46231 10.3173 8.94486 10.3173 8.30877C10.3172 7.67277 9.77796 7.15527 9.1151 7.15527Z" fill="#fff"/>
</svg>
