<svg width="148" height="16" viewBox="0 0 148 16" fill="none" xmlns="http://www.w3.org/2000/svg">
<path d="M8.42165 7.15609H9.66562V9.29572H8.07334L7.55087 12.6295H5.13758L5.68493 9.29572H3.64482L3.12236 12.6295H0.7215L1.24397 9.29572H0V7.15609H1.5674L1.85351 5.26526H0.609543V3.13808H2.17694L2.67453 0.0281677H5.07538L4.5778 3.13808H6.6179L7.11549 0.0281677H9.52878L9.05607 3.13808H10.3V5.26526H8.69533L8.42165 7.15609ZM3.98069 7.15609H6.0208L6.30691 5.26526H4.27924L3.98069 7.15609Z" fill="#164884"/>
<path d="M18.9331 10.4271H14.5046L13.7457 12.6413H11.2578L15.7983 0.20166H17.714L22.2794 12.6413H19.7914L18.9331 10.4271ZM15.2012 8.37452H18.2365L16.7561 3.8216L15.2012 8.37452Z" fill="#164884"/>
<path d="M30.8882 8.05106C30.8882 8.39108 30.8882 8.74353 30.8882 9.10843C30.8793 9.46275 30.846 9.81604 30.7886 10.1658C30.7311 10.4992 30.6351 10.8248 30.5025 11.1361C30.3799 11.4282 30.2025 11.6942 29.9801 11.9198C29.7045 12.1907 29.3734 12.3986 29.0098 12.5293C28.6117 12.6774 28.1905 12.7532 27.7658 12.7532C27.3424 12.7639 26.9207 12.6964 26.5218 12.5542C26.1423 12.3998 25.8053 12.1567 25.5391 11.8452V16H23.2129V3.56034H25.4271V4.31916C25.7025 3.99768 26.047 3.74255 26.4348 3.57278C26.8314 3.4198 27.2536 3.34381 27.6787 3.34887C28.1034 3.34893 28.5247 3.42476 28.9227 3.57278C29.286 3.70419 29.6169 3.91205 29.893 4.18233C30.1169 4.41624 30.2942 4.69065 30.4155 4.9909C30.5414 5.30023 30.6373 5.62101 30.7016 5.94876C30.7659 6.28945 30.8034 6.63468 30.8135 6.98125C30.8757 7.35444 30.8882 7.70275 30.8882 8.05106ZM28.6117 8.05106C28.6305 7.70715 28.6305 7.36247 28.6117 7.01857C28.5846 6.73151 28.5132 6.45038 28.4002 6.18511C28.3037 5.96154 28.1437 5.77123 27.94 5.63777C27.6886 5.50591 27.409 5.43702 27.1252 5.43702C26.8413 5.43702 26.5617 5.50591 26.3104 5.63777C26.1067 5.77123 25.9466 5.96154 25.8501 6.18511C25.7371 6.45038 25.6658 6.73151 25.6386 7.01857C25.6198 7.36247 25.6198 7.70715 25.6386 8.05106C25.6197 8.39911 25.6197 8.74793 25.6386 9.09599C25.6654 9.38311 25.7367 9.66431 25.8501 9.92945C25.9466 10.153 26.1067 10.3433 26.3104 10.4768C26.5617 10.6086 26.8413 10.6775 27.1252 10.6775C27.409 10.6775 27.6886 10.6086 27.94 10.4768C28.1437 10.3433 28.3037 10.153 28.4002 9.92945C28.5136 9.66431 28.585 9.38311 28.6117 9.09599C28.6265 8.74771 28.6223 8.39889 28.5993 8.05106H28.6117Z" fill="#164884"/>
<path d="M40.0679 8.05109C40.0818 8.74957 40.0108 9.44716 39.8564 10.1285C39.7163 10.685 39.4333 11.1953 39.0354 11.6088C38.7156 11.939 38.3355 12.205 37.9158 12.3925C37.3755 12.63 36.7892 12.7447 36.1992 12.7284C35.609 12.7468 35.0222 12.632 34.4825 12.3925C34.0631 12.2045 33.6832 11.9385 33.3629 11.6088C32.9655 11.1949 32.6826 10.6848 32.5419 10.1285C32.3841 9.44753 32.309 8.75004 32.318 8.05109C32.3047 7.35674 32.3757 6.66334 32.5295 5.98611C32.6707 5.43004 32.9535 4.92004 33.3505 4.50579C33.6711 4.17653 34.0509 3.91066 34.47 3.72209C35.0098 3.48262 35.5965 3.36782 36.1867 3.38622C36.7767 3.36992 37.363 3.48463 37.9034 3.72209C38.323 3.90987 38.7029 4.17584 39.023 4.50579C39.4204 4.9197 39.7033 5.42983 39.844 5.98611C40.0025 6.66273 40.0777 7.35621 40.0679 8.05109V8.05109ZM37.7914 8.05109C37.7934 7.63485 37.7643 7.21904 37.7044 6.80712C37.6613 6.46529 37.5085 6.14665 37.269 5.89903C37.1271 5.76341 36.959 5.65816 36.7751 5.58971C36.5911 5.52127 36.3952 5.49107 36.1992 5.50096C36.0051 5.49205 35.8113 5.52275 35.6295 5.59119C35.4477 5.65963 35.2818 5.76437 35.1418 5.89903C34.9022 6.14665 34.7495 6.46529 34.7064 6.80712C34.6471 7.2191 34.618 7.63487 34.6193 8.05109C34.6155 8.48805 34.6446 8.92467 34.7064 9.35726C34.7477 9.70323 34.9006 10.0264 35.1418 10.2778C35.2813 10.4131 35.4472 10.5182 35.6291 10.5867C35.811 10.6552 36.005 10.6855 36.1992 10.6759C36.3952 10.6857 36.5911 10.6555 36.7751 10.5871C36.959 10.5187 37.1271 10.4134 37.269 10.2778C37.5102 10.0264 37.663 9.70323 37.7044 9.35726C37.7626 8.92442 37.7875 8.48774 37.779 8.05109H37.7914Z" fill="#164884"/>
<path d="M44.4711 12.629C44.0452 12.6455 43.6207 12.5691 43.2272 12.4051C42.9154 12.2646 42.6359 12.0613 42.4062 11.808C42.1925 11.5659 42.0315 11.2821 41.9335 10.9745C41.8339 10.665 41.7836 10.3418 41.7842 10.0166V0.139557H44.0606V9.87981C44.0471 10.0989 44.1134 10.3154 44.2472 10.4894C44.3299 10.5668 44.4281 10.6258 44.5354 10.6622C44.6427 10.6987 44.7565 10.7119 44.8692 10.7008H45.7524V12.629H44.4711Z" fill="#164884"/>
<path d="M49.8208 12.629C49.3948 12.6455 48.9703 12.5691 48.5768 12.4051C48.265 12.2646 47.9855 12.0613 47.7558 11.808C47.5421 11.5659 47.3811 11.2821 47.2831 10.9745C47.1835 10.665 47.1332 10.3418 47.1338 10.0166V0.139557H49.4102V9.87981C49.3967 10.0989 49.463 10.3154 49.5968 10.4894C49.6795 10.5668 49.7777 10.6258 49.885 10.6622C49.9923 10.6987 50.1061 10.7119 50.2188 10.7008H51.102V12.629H49.8208Z" fill="#164884"/>
<path d="M59.5996 8.05109C59.6136 8.74957 59.5425 9.44716 59.3881 10.1285C59.248 10.685 58.965 11.1953 58.5671 11.6088C58.2473 11.939 57.8673 12.205 57.4475 12.3925C56.9072 12.63 56.3209 12.7447 55.7309 12.7284C55.1407 12.7468 54.5539 12.632 54.0142 12.3925C53.5948 12.2045 53.2149 11.9385 52.8946 11.6088C52.4972 11.1949 52.2143 10.6848 52.0736 10.1285C51.9075 9.44855 51.824 8.75105 51.8248 8.05109C51.8115 7.35674 51.8825 6.66334 52.0363 5.98611C52.1775 5.43004 52.4604 4.92004 52.8573 4.50579C53.1779 4.17653 53.5578 3.91066 53.9769 3.72209C54.5166 3.48262 55.1034 3.36782 55.6936 3.38622C56.2836 3.36992 56.8699 3.48463 57.4102 3.72209C57.8298 3.90987 58.2097 4.17584 58.5298 4.50579C58.9272 4.9197 59.2101 5.42983 59.3508 5.98611C59.5178 6.66169 59.6013 7.35518 59.5996 8.05109V8.05109ZM57.3231 8.05109C57.3251 7.63485 57.296 7.21904 57.2361 6.80712C57.193 6.46529 57.0402 6.14665 56.8007 5.89903C56.6588 5.76341 56.4908 5.65816 56.3068 5.58971C56.1229 5.52127 55.9269 5.49107 55.7309 5.50096C55.5368 5.49205 55.343 5.52275 55.1612 5.59119C54.9794 5.65963 54.8135 5.76437 54.6735 5.89903C54.4339 6.14665 54.2812 6.46529 54.2381 6.80712C54.1788 7.2191 54.1497 7.63487 54.151 8.05109C54.1472 8.48805 54.1764 8.92467 54.2381 9.35726C54.2795 9.70323 54.4323 10.0264 54.6735 10.2778C54.8131 10.4131 54.9789 10.5182 55.1608 10.5867C55.3427 10.6552 55.5368 10.6855 55.7309 10.6759C55.9269 10.6857 56.1229 10.6555 56.3068 10.5871C56.4908 10.5187 56.6588 10.4134 56.8007 10.2778C57.0419 10.0264 57.1947 9.70323 57.2361 9.35726C57.2943 8.92442 57.3192 8.48774 57.3107 8.05109H57.3231Z" fill="#164884"/>
<path d="M68.2692 7.40432H64.0397V12.629H61.5518V0.189317H64.0397V5.30202H68.2692V0.139557H70.7571V12.5792H68.2692V7.40432Z" fill="#164884"/>
<path d="M74.8745 8.77255C74.8711 9.31925 75.0808 9.84577 75.4592 10.2404C75.6502 10.4367 75.8814 10.5894 76.1369 10.6882C76.3923 10.787 76.6661 10.8294 76.9395 10.8127C77.3649 10.8382 77.7904 10.7659 78.1835 10.6012C78.5125 10.4373 78.8112 10.2186 79.0667 9.95431L80.4475 11.3102C80.2298 11.5294 79.997 11.7331 79.7509 11.9198C79.5152 12.0965 79.2607 12.2467 78.992 12.3676C78.7011 12.4969 78.3964 12.5928 78.0839 12.6537C77.719 12.7225 77.3482 12.7558 76.9768 12.7532C76.4472 12.7539 75.9199 12.6828 75.4094 12.5418C74.9042 12.405 74.4393 12.149 74.0535 11.7954C73.5786 11.4066 73.2068 10.9067 72.9712 10.3399C72.5408 8.94599 72.5408 7.45465 72.9712 6.0607C73.1429 5.52097 73.4222 5.02163 73.7923 4.59282C74.1331 4.20014 74.5584 3.88969 75.0362 3.68473C75.5491 3.4742 76.099 3.36846 76.6534 3.37373C77.2347 3.36462 77.8114 3.4791 78.3452 3.7096C78.8204 3.91922 79.2447 4.22898 79.5891 4.6177C79.938 5.02036 80.2005 5.49031 80.3604 5.9985C80.5399 6.56136 80.628 7.14932 80.6216 7.74005V8.76011L74.8745 8.77255ZM78.3452 7.20515C78.3569 7.03119 78.3569 6.85664 78.3452 6.68268C78.3113 6.52456 78.2613 6.37032 78.1959 6.22241C78.0494 5.95229 77.8351 5.72504 77.5739 5.56311C77.2863 5.38459 76.9546 5.28999 76.6161 5.28999C76.2776 5.28999 75.9458 5.38459 75.6582 5.56311C75.4133 5.7346 75.2164 5.96584 75.086 6.23486C75.0206 6.38277 74.9706 6.537 74.9367 6.69512C74.925 6.86908 74.925 7.04363 74.9367 7.21759L78.3452 7.20515Z" fill="#164884"/>
<path d="M87.0412 11.7829C86.7683 12.0666 86.443 12.2947 86.0833 12.4547C85.6857 12.6028 85.2636 12.6746 84.8394 12.6661C84.4152 12.6956 83.9894 12.6392 83.5876 12.5003C83.1857 12.3614 82.8161 12.1427 82.5007 11.8575C81.9742 11.324 81.6792 10.6044 81.6797 9.85476C81.6787 9.50096 81.7463 9.15034 81.8787 8.82227C82.0077 8.50002 82.2075 8.21091 82.4634 7.97637C82.7445 7.72156 83.0747 7.52684 83.4337 7.40415C83.8784 7.25505 84.3455 7.18352 84.8145 7.19268H86.979V6.80705C86.9964 6.6066 86.9698 6.40476 86.901 6.21567C86.8323 6.02658 86.723 5.8548 86.5809 5.71235C86.1979 5.4518 85.736 5.33302 85.2748 5.37648C84.9221 5.36063 84.5702 5.42 84.2423 5.55064C83.9638 5.69328 83.718 5.8924 83.5208 6.1353L82.0653 4.71718C82.4474 4.27211 82.935 3.92996 83.4834 3.72201C84.1023 3.50087 84.7544 3.38727 85.4116 3.38614C88.0073 3.38614 89.3052 4.46424 89.3052 6.62045V12.6412H87.0412V11.7829ZM85.1752 8.71031C84.8379 8.68898 84.5036 8.78574 84.2298 8.98399C84.1191 9.07598 84.0312 9.19236 83.9729 9.324C83.9146 9.45564 83.8876 9.59898 83.894 9.74281C83.8769 9.88754 83.8926 10.0343 83.9399 10.1721C83.9873 10.3099 84.0652 10.4353 84.1676 10.5389C84.4531 10.7531 84.8072 10.8549 85.1628 10.8251C85.4342 10.8281 85.7051 10.8031 85.9714 10.7504C86.2157 10.6929 86.4368 10.5628 86.6058 10.3772C86.8662 10.0511 86.9869 9.6352 86.9417 9.22034V8.7352L85.1752 8.71031Z" fill="#164884"/>
<path d="M93.9585 12.629C93.5325 12.6455 93.108 12.5691 92.7145 12.4051C92.4027 12.2646 92.1232 12.0613 91.8935 11.808C91.6798 11.5659 91.5188 11.2821 91.4208 10.9745C91.3212 10.665 91.2709 10.3418 91.2715 10.0166V0.139557H93.548V9.87981C93.5344 10.0989 93.6007 10.3154 93.7345 10.4894C93.8172 10.5668 93.9154 10.6258 94.0227 10.6622C94.13 10.6987 94.2438 10.7119 94.3565 10.7008H95.2397V12.629H93.9585Z" fill="#164884"/>
<path d="M99.5928 12.6289C99.1667 12.6471 98.7419 12.5707 98.3488 12.405C98.0359 12.2664 97.7561 12.0629 97.5278 11.8079C97.3132 11.5666 97.1521 11.2825 97.0551 10.9745C96.9556 10.6649 96.9052 10.3417 96.9058 10.0166V5.48857H95.9355V3.74702H96.9058V1.04761H99.1823V3.74702H100.799V5.48857H99.1823V9.87977C99.1823 10.4271 99.4435 10.7008 99.966 10.7008H100.787V12.6289H99.5928Z" fill="#164884"/>
<path d="M107.802 7.05592C107.808 6.79638 107.761 6.53834 107.665 6.2971C107.586 6.10803 107.468 5.93828 107.317 5.79952C107.178 5.67279 107.012 5.57923 106.832 5.52585C106.658 5.476 106.478 5.45087 106.297 5.45121C106.119 5.45199 105.943 5.48139 105.774 5.53828C105.6 5.5965 105.439 5.68961 105.302 5.81196C105.148 5.94846 105.029 6.11884 104.953 6.30954C104.858 6.55087 104.811 6.80884 104.816 7.06836V12.6538H102.54V0.214111H104.816V4.3192C105.095 4.01721 105.434 3.77702 105.811 3.61417C106.188 3.45131 106.595 3.36942 107.006 3.37379C107.462 3.36444 107.915 3.44912 108.337 3.62258C108.706 3.778 109.033 4.01639 109.295 4.3192C109.556 4.62901 109.75 4.98882 109.867 5.37657C110.001 5.80747 110.068 6.25637 110.066 6.70761V12.6164H107.802V7.05592Z" fill="#164884"/>
<path d="M115.59 14.1092C115.448 14.5436 115.215 14.9423 114.906 15.2785C114.655 15.5388 114.343 15.7314 113.997 15.8383C113.654 15.9385 113.298 15.9888 112.94 15.9876H112.044V13.9351H112.567C112.822 13.9528 113.077 13.8966 113.301 13.7733C113.507 13.5998 113.651 13.3641 113.711 13.1016L114.097 11.982L110.975 3.48575H113.375L115.266 9.14579L117.095 3.49819H119.496L115.59 14.1092Z" fill="#164884"/>
<path d="M120.688 0.139557H123.176V10.4396H128.849V12.629H120.738L120.688 0.139557Z" fill="#164884"/>
<path d="M130.193 0.0648499H132.532V1.9308H130.193V0.0648499ZM130.193 3.48576H132.47V12.6289H130.193V3.48576Z" fill="#164884"/>
<path d="M137.282 12.6289H135.006V5.48852H134.061V3.74697H135.006V2.60252C135.006 2.27647 135.061 1.95275 135.168 1.64466C135.267 1.33588 135.429 1.05076 135.643 0.806861C135.857 0.562966 136.118 0.365466 136.412 0.226542C136.805 0.0609042 137.23 -0.015568 137.656 0.00262795H138.9V1.93078H138.004C137.481 1.93078 137.22 2.20445 137.22 2.7518V3.74697H138.9V5.48852H137.282V12.6289Z" fill="#164884"/>
<path d="M141.888 8.77253C141.868 9.31068 142.055 9.8361 142.411 10.2404C142.602 10.4367 142.833 10.5894 143.088 10.6882C143.344 10.7869 143.618 10.8294 143.891 10.8126C144.316 10.8382 144.742 10.7658 145.135 10.6012C145.464 10.4373 145.763 10.2185 146.018 9.95429L147.399 11.3102C147.181 11.5294 146.948 11.7331 146.702 11.9198C146.467 12.0965 146.212 12.2467 145.943 12.3676C145.653 12.4968 145.348 12.5928 145.035 12.6537C144.67 12.7225 144.3 12.7558 143.928 12.7532C143.399 12.7539 142.871 12.6828 142.361 12.5417C141.856 12.405 141.391 12.149 141.005 11.7954C140.581 11.3948 140.258 10.9006 140.06 10.3524C139.605 8.96594 139.579 7.47457 139.985 6.07312C140.157 5.53339 140.436 5.03405 140.806 4.60524C141.147 4.21256 141.572 3.90211 142.05 3.69715C142.563 3.48662 143.113 3.38088 143.667 3.38616C144.248 3.37704 144.825 3.49152 145.359 3.72203C145.834 3.93165 146.258 4.24141 146.603 4.63012C146.952 5.03278 147.214 5.50274 147.374 6.01092C147.553 6.57378 147.642 7.16174 147.635 7.75247V8.77253H141.888ZM145.359 7.20513C145.371 7.03117 145.371 6.85662 145.359 6.68267C145.325 6.52454 145.275 6.37031 145.21 6.2224C145.079 5.95368 144.882 5.72256 144.637 5.55066C144.339 5.35616 143.99 5.25364 143.634 5.25585C143.278 5.25806 142.93 5.36491 142.635 5.5631C142.39 5.73459 142.193 5.96582 142.062 6.23484C141.997 6.38275 141.947 6.53698 141.913 6.6951C141.901 6.86906 141.901 7.04362 141.913 7.21757L145.359 7.20513Z" fill="#164884"/>
</svg>
