<svg width="40" height="47" viewBox="0 0 40 47" fill="none" xmlns="http://www.w3.org/2000/svg">
<path d="M6.10439 24.5082C6.18962 25.4533 6.72154 26.3425 7.61172 26.841C8.3507 27.255 9.11231 27.5593 9.89029 27.7654C9.45194 29.2448 8.64651 31.3858 7.21286 33.6788C5.85111 35.858 5.8349 38.4878 7.17 40.8948C9.13687 44.442 13.4799 46.8257 17.9788 46.8257C21.0686 46.8257 23.8155 45.4028 25.7129 42.8188C28.4248 39.1244 29.0257 33.6722 27.3194 28.2373C25.7377 23.1991 27.8531 20.5112 29.2527 19.3559C30.3938 20.4555 31.9414 21.1337 33.6519 21.1337C37.1568 21.1337 40 18.2912 40 14.7846C40 11.278 37.1568 8.43636 33.6519 8.43636C30.1453 8.43636 27.3036 11.2788 27.3036 14.7846C27.3036 15.2783 27.3651 15.7562 27.4715 16.2175C24.8285 18.1508 21.7774 22.5025 23.9126 29.3063C25.2591 33.5965 24.846 37.9639 22.8329 40.7052C21.9794 41.8687 20.4434 43.2552 17.9778 43.2552C14.7879 43.2552 11.6271 41.5721 10.2924 39.1635C9.79993 38.2751 9.39223 36.9294 10.2413 35.5706C12.1376 32.5352 13.0866 29.7027 13.5367 27.9715C14.5906 27.8127 15.6196 27.4728 16.6095 26.9442C17.4918 26.473 18.0332 25.6202 18.1524 24.6986C22.3467 20.9069 24.2832 14.075 24.3946 13.6752C24.6208 12.855 24.2343 12.013 23.5137 11.629C24.093 6.50015 22.1947 3.91517 21.0493 2.86224C21.1366 2.36948 20.9395 1.84237 20.5066 1.55987L18.4019 0.184318C17.8521 -0.174738 17.161 0.00647558 16.8597 0.591527L15.8569 2.52966C15.5548 3.11487 15.8211 3.73893 16.452 3.92512L18.8316 4.62654C19.4349 4.80438 20.1577 4.51611 20.4992 3.9874C21.4475 4.9864 22.8131 7.21056 22.3427 11.4534C21.696 11.5765 21.1417 12.0476 20.954 12.725C20.3822 14.7771 18.7309 19.0158 16.2792 21.5574C15.4988 21.2558 14.6015 21.2707 13.8057 21.6945C13.2874 21.9714 12.7806 22.1108 12.2604 22.1218H12.1531C11.605 22.11 11.0697 21.9555 10.5216 21.6489C9.74535 21.2134 8.86127 21.1751 8.08169 21.4502C5.68482 18.8981 4.06867 14.7491 3.50641 12.7253C3.31813 12.0497 2.76165 11.5775 2.11721 11.4546C1.64596 7.21168 3.01108 4.98752 3.96064 3.98852C4.30252 4.51707 5.02449 4.80551 5.62784 4.6275L8.00737 3.92608C8.63737 3.73989 8.90541 3.11487 8.60254 2.53063L7.60048 0.59233C7.29841 0.00711764 6.60726 -0.173935 6.05832 0.185121L3.95149 1.56164C3.51892 1.84413 3.3223 2.37108 3.40914 2.864C2.26552 3.91709 0.365583 6.50095 0.945178 11.6306C0.224176 12.0147 -0.161043 12.8566 0.0641493 13.6777C0.173616 14.0692 2.05188 20.6833 6.10439 24.5082ZM33.6519 12.3048C35.0198 12.3048 36.131 13.4144 36.131 14.7849C36.131 16.1545 35.0198 17.2649 33.6519 17.2649C32.2821 17.2649 31.1717 16.1545 31.1717 14.7849C31.1717 13.4142 32.2813 12.3048 33.6519 12.3048Z" fill="white"/>
</svg>
