<svg width="984" height="174" viewBox="0 0 984 174" fill="none" xmlns="http://www.w3.org/2000/svg">
<mask id="mask0" mask-type="alpha" maskUnits="userSpaceOnUse" x="0" y="0" width="984" height="174">
<path fill-rule="evenodd" clip-rule="evenodd" d="M0 10C0 4.47715 4.47715 0 10 0H974C979.523 0 984 4.47715 984 10V164C984 169.523 979.523 174 974 174H9.99999C4.47714 174 0 169.523 0 164V10Z" fill="white"/>
</mask>
<g mask="url(#mask0)">
<path d="M295.5 94.0404C159.81 -15.8561 42.8255 66.6313 -4 119.185V420.141H953.378H965.593C965.593 420.141 985.443 428.982 983.916 346.468C978.546 56.2411 808.798 80.3003 703.5 108.624C574.5 143.324 441.116 211.976 295.5 94.0404Z" fill="#02475B" fill-opacity="0.04"/>
</g>
</svg>
