<svg width="30" height="30" viewBox="0 0 30 30" fill="none" xmlns="http://www.w3.org/2000/svg">
<path fill-rule="evenodd" clip-rule="evenodd" d="M6.62 16.7898C8.06 19.6198 10.38 21.9298 13.21 23.3798L15.41 21.1798C15.68 20.9098 16.08 20.8198 16.43 20.9398C17.55 21.3098 18.76 21.5098 20 21.5098C20.55 21.5098 21 21.9598 21 22.5098V25.9998C21 26.5498 20.55 26.9998 20 26.9998C10.61 26.9998 3 19.3898 3 9.99985C3 9.44985 3.45 8.99985 4 8.99985H7.5C8.05 8.99985 8.5 9.44985 8.5 9.99985C8.5 11.2498 8.7 12.4498 9.07 13.5698C9.18 13.9198 9.1 14.3098 8.82 14.5898L6.62 16.7898Z" fill="black"/>
<mask id="mask0" mask-type="alpha" maskUnits="userSpaceOnUse" x="3" y="8" width="18" height="19">
<path fill-rule="evenodd" clip-rule="evenodd" d="M6.62 16.7898C8.06 19.6198 10.38 21.9298 13.21 23.3798L15.41 21.1798C15.68 20.9098 16.08 20.8198 16.43 20.9398C17.55 21.3098 18.76 21.5098 20 21.5098C20.55 21.5098 21 21.9598 21 22.5098V25.9998C21 26.5498 20.55 26.9998 20 26.9998C10.61 26.9998 3 19.3898 3 9.99985C3 9.44985 3.45 8.99985 4 8.99985H7.5C8.05 8.99985 8.5 9.44985 8.5 9.99985C8.5 11.2498 8.7 12.4498 9.07 13.5698C9.18 13.9198 9.1 14.3098 8.82 14.5898L6.62 16.7898Z" fill="white"/>
</mask>
<g mask="url(#mask0)">
<rect y="5.99985" width="24" height="24" fill="#00B38E"/>
</g>
<path d="M24.2999 6.43572L15.7375 14.9393L20.0819 14.9543C20.4291 14.9555 20.713 15.2413 20.7118 15.5885C20.7106 15.9357 20.4292 16.2152 20.082 16.214L14.2153 16.1938C13.8681 16.1926 13.5887 15.9112 13.5898 15.564L13.6012 9.69723C13.6024 9.35004 13.8838 9.07058 14.231 9.07177C14.5782 9.07297 14.8576 9.35437 14.8564 9.70156L14.8503 14.046L23.4128 5.54241C23.6584 5.29844 24.059 5.29982 24.303 5.54548C24.547 5.79114 24.5456 6.19175 24.2999 6.43572Z" fill="#00B38E" stroke="#00B38E" stroke-width="0.5"/>
</svg>
