<svg width="24" height="24" viewBox="0 0 24 24" fill="none" xmlns="http://www.w3.org/2000/svg">
<path d="M13.4531 0C13.0645 0 12.75 0.314484 12.75 0.703124C12.75 1.09176 13.0645 1.40625 13.4531 1.40625C18.4931 1.40625 22.5937 5.50687 22.5937 10.5469C22.5937 10.9355 22.9082 11.25 23.2969 11.25C23.6855 11.25 24 10.9355 24 10.5469C24 4.73099 19.269 0 13.4531 0Z" fill="#fff"/>
<path d="M13.4531 2.81256C13.0645 2.81256 12.75 3.12704 12.75 3.51568C12.75 3.90432 13.0645 4.21881 13.4531 4.21881C16.9426 4.21881 19.7812 7.05741 19.7812 10.5469C19.7812 10.9356 20.0957 11.25 20.4844 11.25C20.873 11.25 21.1875 10.9356 21.1875 10.5469C21.1875 6.28219 17.7179 2.81256 13.4531 2.81256Z" fill="#fff"/>
<path d="M13.4531 5.625C13.0645 5.625 12.75 5.93948 12.75 6.32812C12.75 6.71676 13.0645 7.03125 13.4531 7.03125C15.3915 7.03125 16.9687 8.60845 16.9687 10.5469C16.9687 10.9355 17.2832 11.25 17.6719 11.25C18.0605 11.25 18.375 10.9355 18.375 10.5469C18.375 7.83323 16.1668 5.625 13.4531 5.625Z" fill="#fff"/>
<path d="M13.4531 8.43756C13.0645 8.43756 12.75 8.75204 12.75 9.14068C12.75 9.52932 13.0645 9.84381 13.4531 9.84381C13.8411 9.84381 14.1562 10.159 14.1562 10.5469C14.1562 10.9356 14.4707 11.2501 14.8594 11.2501C15.248 11.2501 15.5625 10.9356 15.5625 10.5469C15.5625 9.38378 14.6163 8.43756 13.4531 8.43756Z" fill="#fff"/>
<path d="M9.34356 4.59405L5.36651 0.616999C4.5439 -0.206265 3.20562 -0.204905 2.38306 0.616999L1.88867 1.11134L8.84917 8.07189L9.34356 7.5775C9.74181 7.17925 9.96156 6.64914 9.96156 6.08543C9.96156 5.52237 9.74181 4.9923 9.34356 4.59405Z" fill="#fff"/>
<path d="M23.3835 18.6651L19.4064 14.688C18.6092 13.8908 17.2181 13.8922 16.4236 14.688L15.9287 15.1826L22.889 22.1429L23.3835 21.6485C24.2061 20.8259 24.2061 19.4876 23.3835 18.6651Z" fill="#fff"/>
<path d="M14.8338 16.0767C14.0507 16.4482 13.0928 16.3296 12.4454 15.6823L8.34889 11.5546C7.70155 10.9072 7.583 9.9494 7.95449 9.16616L0.948234 2.15991C-1.04817 5.22863 -0.0365141 13.1131 5.3661 18.5151C10.7041 23.8531 18.6738 25.117 21.8192 23.0621L14.8338 16.0767Z" fill="#fff"/>
</svg>
