<svg width="24" height="24" viewBox="0 0 24 24" fill="none" xmlns="http://www.w3.org/2000/svg">
<g clip-path="url(#clip0)">
<path d="M13.2485 2.45505C13.4066 1.97345 13.5594 1.51234 13.728 1C14.2127 1.18957 14.6922 1.34839 15.14 1.56358C18.6226 3.21844 20.8039 5.898 21.6995 9.55613C21.8681 10.2529 21.8945 10.9856 21.9946 11.7028C22.0262 11.9436 21.9314 12.0154 21.689 12C21.3571 11.9846 21.0251 11.9846 20.6932 12C20.4825 12.0102 20.4087 11.9436 20.3982 11.7285C20.2717 8.48533 18.8281 5.90312 16.1937 3.94085C15.3824 3.33628 14.4761 2.89055 13.512 2.56265C13.4329 2.53191 13.3539 2.50116 13.2485 2.45505Z" fill="#00B38E"/>
<path d="M12.432 5.09906C13.6017 5.46795 14.5817 6.06739 15.4036 6.91275C16.4204 7.95281 17.0474 9.18755 17.3003 10.6016C17.353 10.8937 17.353 11.1959 17.3793 11.488C17.3899 11.6314 17.3372 11.6878 17.1844 11.6827C16.7998 11.6775 16.4152 11.6724 16.0305 11.6827C15.8672 11.6878 15.8251 11.6263 15.8198 11.4726C15.7671 10.494 15.4773 9.58718 14.9241 8.76231C14.255 7.76837 13.354 7.05621 12.2107 6.63609C12.0263 6.56948 11.9578 6.508 12.0316 6.30819C12.1739 5.92393 12.295 5.5243 12.432 5.09906Z" fill="#00B38E"/>
</g>
<path fill-rule="evenodd" clip-rule="evenodd" d="M6.62 10.79C8.06 13.62 10.38 15.93 13.21 17.38L15.41 15.18C15.68 14.91 16.08 14.82 16.43 14.94C17.55 15.31 18.76 15.51 20 15.51C20.55 15.51 21 15.96 21 16.51V20C21 20.55 20.55 21 20 21C10.61 21 3 13.39 3 4C3 3.45 3.45 3 4 3H7.5C8.05 3 8.5 3.45 8.5 4C8.5 5.25 8.7 6.45 9.07 7.57C9.18 7.92 9.1 8.31 8.82 8.59L6.62 10.79Z" fill="black"/>
<mask id="mask0" mask-type="alpha" maskUnits="userSpaceOnUse" x="3" y="3" width="18" height="18">
<path fill-rule="evenodd" clip-rule="evenodd" d="M6.62 10.79C8.06 13.62 10.38 15.93 13.21 17.38L15.41 15.18C15.68 14.91 16.08 14.82 16.43 14.94C17.55 15.31 18.76 15.51 20 15.51C20.55 15.51 21 15.96 21 16.51V20C21 20.55 20.55 21 20 21C10.61 21 3 13.39 3 4C3 3.45 3.45 3 4 3H7.5C8.05 3 8.5 3.45 8.5 4C8.5 5.25 8.7 6.45 9.07 7.57C9.18 7.92 9.1 8.31 8.82 8.59L6.62 10.79Z" fill="white"/>
</mask>
<g mask="url(#mask0)">
<rect width="24" height="24" fill="#00B38E"/>
</g>
<defs>
<clipPath id="clip0">
<rect width="10" height="11" fill="white" transform="translate(12 1)"/>
</clipPath>
</defs>
</svg>
