<svg width="85" height="85" viewBox="0 0 85 85" fill="none" xmlns="http://www.w3.org/2000/svg">
<path d="M20.6975 64.6288C17.3044 61.2083 14.1807 57.5308 11.3542 53.629C8.02779 49.0568 4.64832 44.0207 3.07124 38.5076C1.72665 34.1091 1.79619 29.3996 3.27004 25.0427C4.88688 20.6163 9.52537 14.7851 14.8265 15.3549C19.4385 15.8453 23.3083 20.2585 25.2564 24.168C26.3072 25.9298 26.6169 28.0361 26.1179 30.0258C25.2299 32.6763 22.3806 34.0016 20.8167 36.1883C18.8156 39.0377 19.4915 42.722 21.1613 45.5448C25.701 53.1408 32.053 59.4928 39.649 64.0325C42.4718 65.7686 46.1561 66.3782 49.0054 64.377C51.2452 62.8132 52.5837 59.9638 55.168 59.0759C57.1576 58.5768 59.264 58.8866 61.0257 59.9373C64.9353 61.8855 69.3617 65.7553 69.8388 70.3673C70.3954 75.6684 64.5377 80.3069 60.151 81.9237C55.7942 83.3976 51.0847 83.4671 46.6862 82.1225C41.1863 80.5454 36.084 77.166 31.5648 73.8395C27.7074 71.0578 24.0738 67.9781 20.6975 64.6288V64.6288Z" stroke="white" stroke-width="2.68" stroke-miterlimit="10"/>
<path d="M68.5525 30.9535V45.293H54.2263V30.9535H39.8867V16.6272H54.2263V2.28766H68.5525V16.6272H82.8921V30.9535H68.5525Z" stroke="white" stroke-width="2.68" stroke-miterlimit="10"/>
</svg>
