<svg width="24" height="24" viewBox="0 0 24 24" fill="none" xmlns="http://www.w3.org/2000/svg">
<path d="M7.99009 6.40197L7.46509 3.77899C7.41208 3.50899 7.15108 3.33199 6.8771 3.38697C6.6071 3.44097 6.43108 3.70497 6.48508 3.97596L7.01008 6.59795C7.0571 6.83593 7.26606 6.99995 7.50006 6.99995C7.53208 6.99995 7.56508 6.99695 7.59808 6.98996C7.86911 6.93596 8.04409 6.67295 7.99009 6.40197Z" fill="white"/>
<path d="M17.1208 3.38682C16.8448 3.3308 16.5868 3.5078 16.5328 3.77884L16.0088 6.40182C15.9548 6.6728 16.1298 6.93582 16.4008 6.98982C16.4348 6.9968 16.4668 6.9998 16.4998 6.9998C16.7338 6.9998 16.9428 6.83579 16.9898 6.5978L17.5128 3.97482C17.5668 3.70384 17.3918 3.44082 17.1208 3.38682Z" fill="white"/>
<path d="M18.806 9.23397C18.72 8.97199 18.434 8.82996 18.174 8.91696C17.912 9.00396 17.77 9.28694 17.857 9.54897C17.951 9.82896 18 10.158 18 10.5C18 11.471 17.645 12.012 17.469 11.978C17.334 11.893 17.166 11.878 17.017 11.938C16.868 11.998 16.757 12.125 16.719 12.281C16.02 15.104 14.123 17 12 17C9.87702 17 7.98003 15.104 7.28103 12.281C7.24302 12.125 7.11603 12.01 6.96805 11.949C6.82006 11.89 6.63706 11.915 6.50005 12C6.37602 12 6.00003 11.468 6.00003 10.5C6.00003 10.158 6.04902 9.82896 6.14202 9.54799C6.22902 9.28601 6.08802 9.00297 5.825 8.91597C5.56302 8.82897 5.279 8.97096 5.19298 9.23299C5.06698 9.61399 5 10.052 5 10.5C5 11.893 5.615 12.951 6.44098 12.999C7.35003 16.01 9.53703 18 12 18C14.463 18 16.65 16.01 17.559 12.999C18.385 12.951 19 11.893 19 10.5C19 10.052 18.933 9.61399 18.806 9.23397Z" fill="white"/>
<path d="M10.5 10H9.50002C9.22402 10 9 10.224 9 10.5C9 10.776 9.22402 11 9.50002 11H10.5C10.776 11 11 10.776 11 10.5C11 10.224 10.776 10 10.5 10Z" fill="white"/>
<path d="M14.5 10H13.5C13.224 10 13 10.224 13 10.5C13 10.776 13.224 11 13.5 11H14.5C14.776 11 15 10.776 15 10.5C15 10.224 14.776 10 14.5 10Z" fill="white"/>
<path d="M8.90104 15.7L6.00004 11.833V8.00002C6.00004 7.72402 5.77602 7.5 5.50002 7.5C5.22402 7.5 5.00001 7.72402 5.00001 8.00002C5.00001 9.615 4.10301 13.19 3.14601 14.146C2.95101 14.341 2.95101 14.658 3.14601 14.853C4.25099 15.9591 8.01402 16.444 8.43899 16.4961C8.45999 16.4991 8.48001 16.5 8.49997 16.5C8.67697 16.5 8.84296 16.4061 8.93296 16.2501C9.03402 16.077 9.02104 15.8601 8.90104 15.7Z" fill="white"/>
<path d="M20.854 14.146C19.897 13.19 19 9.61505 19 8.00002C19 7.72402 18.7759 7.5 18.4999 7.5C18.2239 7.5 18 7.72406 18 8.00006V11.8331L15.1 15.7001C14.98 15.8601 14.967 16.0761 15.068 16.2501C15.158 16.4061 15.3239 16.5 15.5009 16.5C15.521 16.5 15.5409 16.4991 15.5619 16.497C15.9869 16.4451 19.7499 15.96 20.8549 14.854C21.049 14.658 21.049 14.3421 20.854 14.146Z" fill="white"/>
<path d="M17.6901 1.038C17.586 0.995016 15.1251 0 12 0C8.87503 0 6.41405 0.995016 6.31003 1.038C6.08902 1.12898 5.96302 1.36402 6.01003 1.599L7.01002 6.59902C7.05703 6.83203 7.26202 7.00003 7.5 7.00003H16.5C16.738 7.00003 16.943 6.83203 16.99 6.59803L17.99 1.59802C18.037 1.36298 17.911 1.128 17.6901 1.038ZM13 3.99998H12.5V4.5C12.5 4.776 12.276 5.00002 12 5.00002C11.724 5.00002 11.5 4.776 11.5 4.5V3.99998H11C10.724 3.99998 10.5 3.77597 10.5 3.49997C10.5 3.22397 10.7241 3 11.0001 3H11.5001V2.49998C11.5001 2.22398 11.7241 1.99997 12.0001 1.99997C12.2761 1.99997 12.5001 2.22398 12.5001 2.49998V3H13.0001C13.276 3 13.5 3.22402 13.5 3.50002C13.5 3.77602 13.276 3.99998 13 3.99998Z" fill="white"/>
<path d="M18.3251 5.021L17.9701 6.79399C17.8321 7.49299 17.2131 7.99999 16.5001 7.99999H12.4661C14.1691 9.04399 16.286 9.89097 18.332 9.89097C18.567 9.89097 18.77 9.72696 18.8201 9.49797C18.9431 8.93899 19.0001 8.46298 19.0001 7.99999C19.0001 6.93396 18.7531 5.92699 18.3251 5.021Z" fill="white"/>
<path d="M7.49998 8C6.78697 8 6.16798 7.493 6.029 6.794L5.675 5.021C5.24698 5.927 5 6.93402 5 8C5 8.46299 5.057 8.939 5.18 9.49799C5.21098 9.641 5.30398 9.764 5.43298 9.83197C5.56297 9.90097 5.71798 9.90899 5.852 9.85499C5.95198 9.81599 7.38898 9.23197 8.54398 8H7.49998Z" fill="white"/>
<path d="M19.636 17.626L19.234 17.486C19.067 17.428 18.88 17.463 18.745 17.578C18.61 17.6941 18.546 17.872 18.578 18.0481L18.976 20.2301C19.048 20.624 18.962 21.023 18.733 21.353C18.508 21.678 18.156 21.905 17.768 21.9761L12.268 22.976C12.18 22.992 12.09 23 12 23C11.91 23 11.82 22.992 11.731 22.976L6.231 21.9761C5.84302 21.9061 5.49098 21.6791 5.26598 21.3541C5.037 21.0241 4.95197 20.6251 5.02298 20.2311L5.421 18.0491C5.45302 17.8741 5.39002 17.6951 5.25398 17.5791C5.11898 17.4641 4.932 17.4291 4.76498 17.4871L4.36397 17.6271C1.67198 18.5631 0 20.8131 0 23.5001C0 23.7761 0.224016 24.0001 0.500016 24.0001H12H23.5C23.776 24.0001 24 23.7761 24 23.5001C24 20.8131 22.328 18.5631 19.636 17.626Z" fill="white"/>
<path d="M17.9919 20.4101L17.391 17.1141C17.36 16.9421 17.241 16.8001 17.078 16.7371C16.914 16.6741 16.731 16.7011 16.593 16.8091L12 20.3681L7.40696 16.8091C7.26994 16.7021 7.08694 16.6741 6.92194 16.7371C6.75896 16.8001 6.63994 16.9421 6.60896 17.1141L6.00798 20.4102C5.98398 20.5412 6.01299 20.6751 6.08898 20.7852C6.16496 20.8941 6.27999 20.9682 6.41096 20.9922L11.9109 21.9921C11.94 21.9972 11.97 22.0002 12 22.0002C12.03 22.0002 12.06 21.9972 12.089 21.9921L17.589 20.9922C17.7189 20.9691 17.835 20.8941 17.9109 20.7852C17.987 20.6761 18.015 20.5411 17.9919 20.4101Z" fill="white"/>
</svg>
