<svg width="73" height="83" viewBox="0 0 73 83" fill="none" xmlns="http://www.w3.org/2000/svg">
<path d="M72.7344 53.6618C72.7344 50.9949 70.5523 48.8128 67.8854 48.8128C70.5523 48.8128 72.7344 46.6308 72.7344 43.9639C72.7344 41.297 70.5523 39.1149 67.8854 39.1149H48.0049C50.9626 30.2412 50.9141 27.2511 50.9141 21.8203C50.9141 18.6683 48.8777 15.9529 46.0651 14.9834C45.2894 14.6925 44.5134 14.5469 43.6406 14.5469H42.1859C41.2646 14.5469 40.1009 15.2744 39.8583 16.3895L38.5007 21.6747C36.4643 29.5785 29.9179 39.1149 21.8203 39.1149V73.0576L32.6333 76.6459C35.1063 77.47 37.6764 77.9066 40.2948 77.9066H63.0365C65.7145 77.9066 67.8854 75.7354 67.8854 73.0576C67.8854 70.3796 65.7145 68.2087 63.0365 68.2087H67.8854C70.5523 68.2087 72.7344 66.0266 72.7344 63.3597C72.7344 60.6928 70.5523 58.5108 67.8854 58.5108C70.5523 58.5108 72.7344 56.3287 72.7344 53.6618Z" fill="#FEDBAB"/>
<path d="M63.0365 77.9066C65.7145 77.9066 67.8854 75.7354 67.8854 73.0576C67.8854 70.3796 65.7145 68.2087 63.0365 68.2087H67.8854C70.5523 68.2087 72.7344 66.0266 72.7344 63.3597C72.7344 60.6928 70.5523 58.5108 67.8854 58.5108C70.5523 58.5108 72.7344 56.3287 72.7344 53.6618C72.7344 50.9949 70.5523 48.8128 67.8854 48.8128C70.5523 48.8128 72.7344 46.6308 72.7344 43.9639C72.7344 41.297 70.5523 39.1149 67.8854 39.1149H48.0049C50.9626 30.2412 50.9141 27.2511 50.9141 21.8203C50.9141 18.6683 48.8777 15.9529 46.0651 14.9834C45.2894 14.6925 44.5134 14.5469 43.6406 14.5469V77.9066H63.0365Z" fill="#FEC478"/>
<path d="M16.9714 82.7555H2.42448C1.08439 82.7555 0 81.6712 0 80.3311V36.6904C0 35.3503 1.08439 34.266 2.42448 34.266H16.9714C20.9821 34.266 24.2448 37.5287 24.2448 41.5394V75.4821C24.2448 79.4928 20.9821 82.7555 16.9714 82.7555Z" fill="#164884"/>
<path d="M12.1227 73.0576C13.4617 73.0576 14.5472 71.9722 14.5472 70.6332C14.5472 69.2942 13.4617 68.2087 12.1227 68.2087C10.7837 68.2087 9.69824 69.2942 9.69824 70.6332C9.69824 71.9722 10.7837 73.0576 12.1227 73.0576Z" fill="#3A75BD"/>
<path d="M46.0648 2.42448V7.27344C46.0648 8.63131 44.9982 9.69792 43.6403 9.69792C42.2824 9.69792 41.2158 8.63131 41.2158 7.27344V2.42448C41.2158 1.06661 42.2824 0 43.6403 0C44.9982 0 46.0648 1.06661 46.0648 2.42448Z" fill="#3A75BD"/>
<path d="M29.9248 13.9574L26.4964 10.5291C25.5494 9.58207 25.5494 8.04769 26.4964 7.10069C27.4434 6.15369 28.9778 6.15369 29.9248 7.10069L33.3531 10.5291C34.3001 11.4761 34.3001 13.0104 33.3531 13.9574C32.406 14.9044 30.8718 14.9044 29.9248 13.9574Z" fill="#3A75BD"/>
<path d="M53.928 13.9574C52.981 13.0104 52.981 11.4761 53.928 10.5291L57.3564 7.10069C58.3034 6.15369 59.8378 6.15369 60.7848 7.10069C61.7318 8.04769 61.7318 9.58207 60.7848 10.5291L57.3564 13.9574C56.4094 14.9044 54.8752 14.9044 53.928 13.9574Z" fill="#164884"/>
<path d="M46.0651 2.42448V7.27344C46.0651 8.63131 44.9985 9.69792 43.6406 9.69792V0C44.9985 0 46.0651 1.06661 46.0651 2.42448Z" fill="#164884"/>
</svg>
