<svg width="24" height="24" viewBox="0 0 24 24" fill="none" xmlns="http://www.w3.org/2000/svg">
<path d="M23.2 2.40002H14.4V9.20002C14.4 10.0837 13.6837 10.8 12.8 10.8H12V11.6H12.4C13.4203 11.601 14.3916 12.0376 15.0696 12.8H18.314C19.5703 12.7858 20.6362 13.7186 20.7888 14.9656C20.8456 15.5614 20.6793 16.1571 20.322 16.6372C22.298 16.2468 24 15.1436 24 13.2V3.20002C24 2.75817 23.6419 2.40002 23.2 2.40002ZM16.4 11.2H14.8V10.4H16.4V11.2ZM22.4 8.80002C22.4 9.02092 22.2209 9.20002 22 9.20002H20.4C20.1791 9.20002 20 9.02092 20 8.80002C19.7791 8.80002 19.6 8.97912 19.6 9.20002V10.4C19.6 11.0628 19.0628 11.6 18.4 11.6C17.7372 11.6 17.2 11.0628 17.2 10.4V9.20002C17.2 8.97912 17.0209 8.80002 16.8 8.80002H16.4C15.7373 8.80002 15.2 8.26277 15.2 7.60002V5.60002C15.2 4.93727 15.7373 4.40002 16.4 4.40002H20C20 4.17912 20.1791 4.00002 20.4 4.00002H22C22.2209 4.00002 22.4 4.17912 22.4 4.40002V8.80002Z" fill="#07AE8B"/>
<path d="M9.2001 5.20002H8.8001C8.13735 5.20002 7.6001 4.66277 7.6001 4.00002V2.80002C7.6001 2.57912 7.421 2.40002 7.2001 2.40002C6.9792 2.40002 6.8001 2.57912 6.8001 2.80002V4.00002C6.8001 4.66277 6.26285 5.20002 5.6001 5.20002V8.00002H9.2001C9.421 8.00002 9.6001 7.82092 9.6001 7.60002V5.60002C9.6001 5.37912 9.421 5.20002 9.2001 5.20002Z" fill="#07AE8B"/>
<path d="M21.6 4.79999H20.8V8.39999H21.6V4.79999Z" fill="#07AE8B"/>
<path d="M12.3997 12.4H8.02808C8.22873 13.7768 9.40838 14.7983 10.7997 14.8H15.1629C14.9645 13.4255 13.7885 12.404 12.3997 12.4Z" fill="#07AE8B"/>
<path d="M16.4 5.20001C16.1791 5.20001 16 5.37911 16 5.60001V7.60001C16 7.82091 16.1791 8.00001 16.4 8.00001H16.8C17.4628 8.00001 18 8.53726 18 9.20001V10.4C18 10.6209 18.1791 10.8 18.4 10.8C18.6209 10.8 18.8 10.6209 18.8 10.4V9.20001C18.8 8.53726 19.3372 8.00001 20 8.00001V5.20001H16.4Z" fill="#07AE8B"/>
<path d="M12.8 0H0.8C0.35815 0 0 0.35815 0 0.8V10.4C0 12.3436 1.702 13.4468 3.68 13.8372C3.32275 13.357 3.1564 12.7614 3.2132 12.1656C3.3657 10.9193 4.4305 9.98685 5.686 10H12.8C13.2418 10 13.6 9.64185 13.6 9.2V0.8C13.6 0.35815 13.2418 0 12.8 0ZM10.4 7.6C10.4 8.26275 9.86275 8.8 9.2 8.8H5.6C5.6 9.0209 5.4209 9.2 5.2 9.2H3.6C3.3791 9.2 3.2 9.0209 3.2 8.8V4.4C3.2 4.1791 3.3791 4 3.6 4H5.2C5.4209 4 5.6 4.1791 5.6 4.4C5.8209 4.4 6 4.2209 6 4V2.8C6 2.13725 6.53725 1.6 7.2 1.6C7.86275 1.6 8.4 2.13725 8.4 2.8V4C8.4 4.2209 8.5791 4.4 8.8 4.4H9.2C9.86275 4.4 10.4 4.93725 10.4 5.6V7.6ZM11.2 2.8H10.8V3.2H10V2.8H9.6V2H10V1.6H10.8V2H11.2V2.8Z" fill="#07AE8B"/>
<path d="M14.8002 20.3998C14.7333 20.3998 14.6665 20.404 14.6001 20.4124C13.9466 20.523 13.3272 20.083 13.2166 19.4296C13.2037 19.3537 13.1982 19.2769 13.2001 19.2V18.9908C14.1746 18.6448 14.954 17.8977 15.3409 16.9388C15.4181 16.7344 15.315 16.5061 15.1106 16.4289C15.1005 16.4251 15.0904 16.4218 15.0801 16.4188C15.1526 16.1526 15.1908 15.8782 15.1937 15.6024H10.8001C10.1096 15.6025 9.4338 15.4026 8.8545 15.0268C8.8185 15.2165 8.8003 15.4092 8.8001 15.6024C8.8027 15.8789 8.84155 16.1539 8.9157 16.4204C8.7064 16.4831 8.5876 16.7036 8.65035 16.9129C8.65315 16.9222 8.65625 16.9314 8.6597 16.9404C9.0468 17.8987 9.82605 18.6452 10.8001 18.9908V19.2C10.8162 19.8625 10.2922 20.4127 9.6297 20.4289C9.5528 20.4307 9.47595 20.4252 9.4001 20.4124C8.5234 20.3019 7.7231 20.9231 7.61265 21.7998C7.6043 21.8662 7.6001 21.9331 7.6001 22V24H16.4001V22C16.4002 21.1163 15.6839 20.3999 14.8002 20.3998Z" fill="#07AE8B"/>
<path d="M4.8 4.79999H4V8.39999H4.8V4.79999Z" fill="#07AE8B"/>
</svg>
