<svg width="36" height="40" viewBox="0 0 36 40" fill="none" xmlns="http://www.w3.org/2000/svg">
<path d="M34.787 28.0471C34.5546 27.9093 34.2866 27.8437 34.0169 27.8585C33.4754 27.8973 32.9356 27.7637 32.4745 27.477C31.3439 26.7453 30.274 25.9851 29.2955 25.2164C28.8218 24.8381 28.6367 24.2027 28.8329 23.6288C29.618 21.2734 29.618 18.7266 28.8329 16.3712C28.6355 15.7967 28.8207 15.16 29.2955 14.7815C30.5695 13.7812 31.7507 12.9839 32.5173 12.4902C32.958 12.2173 33.475 12.0945 33.9912 12.1401C34.3669 12.1575 34.7349 12.0296 35.019 11.7828C35.4451 11.4039 35.6051 10.8075 35.4261 10.2658C35.247 9.72413 34.7633 9.34098 34.1955 9.29116C33.6277 9.24135 33.0847 9.53441 32.8142 10.0367C32.5732 10.5278 32.1866 10.9326 31.7072 11.1955C30.9699 11.5699 29.1848 12.3573 28.1856 12.7931C27.6153 13.038 26.9524 12.8871 26.544 12.4194C24.9078 10.5679 22.7146 9.2993 20.2951 8.8049C19.6831 8.68782 19.2177 8.18692 19.1452 7.56744C19.0196 6.45786 18.8034 4.47305 18.7655 3.64641C18.7512 3.13641 18.9014 2.63536 19.1938 2.21746C19.5303 1.70819 19.5065 1.04112 19.1343 0.557287C18.7622 0.0734567 18.124 -0.120201 17.5461 0.0753232C16.9683 0.270848 16.5783 0.812344 16.5758 1.42296C16.5742 1.6888 16.6485 1.94955 16.7899 2.17459C17.0981 2.62965 17.2552 3.17042 17.2388 3.72C17.1967 4.54021 16.9833 6.48215 16.8598 7.56672C16.7873 8.18459 16.3237 8.68446 15.7135 8.80276C13.2934 9.2978 11.0995 10.5669 9.46254 12.4187C9.05566 12.8863 8.39397 13.0378 7.82449 12.7938C6.80526 12.3508 4.9852 11.5499 4.24861 11.1655C3.79368 10.9215 3.43004 10.5365 3.21225 10.0681C2.99491 9.64575 2.5835 9.35785 2.11261 9.29857C1.64172 9.2393 1.17191 9.41626 0.856879 9.77159C0.575022 10.0942 0.452706 10.5264 0.523654 10.9491C0.594601 11.3717 0.85132 11.7402 1.22303 11.9529C1.45496 12.0885 1.72133 12.1535 1.9896 12.1401C2.5312 12.0996 3.07155 12.2333 3.53201 12.5216C4.66544 13.2554 5.73535 14.0156 6.71033 14.7815C7.18491 15.1604 7.36985 15.7973 7.17212 16.3719C6.3875 18.7266 6.3875 21.2727 7.17212 23.6274C7.36924 24.2017 7.18403 24.838 6.70961 25.2164C5.43343 26.2166 4.25289 27.0154 3.48704 27.5084C3.04652 27.7797 2.53066 27.9025 2.01529 27.8585C1.63924 27.8402 1.27069 27.9682 0.98678 28.2157C0.439544 28.7015 0.347655 29.5228 0.773968 30.1177C1.20028 30.7127 2.00685 30.8888 2.64196 30.5256C2.87504 30.3939 3.06571 30.1984 3.19155 29.9619C3.43273 29.4706 3.8196 29.0659 4.29929 28.803C5.03659 28.4286 6.82167 27.6413 7.82092 27.2055C7.99868 27.1283 8.19033 27.0885 8.38407 27.0883C8.79765 27.0895 9.19084 27.2683 9.46397 27.5791C11.1002 29.431 13.2937 30.6999 15.7135 31.1944C16.3245 31.3122 16.7888 31.8126 16.8613 32.4311C16.9869 33.5364 17.2024 35.5155 17.241 36.3479C17.255 36.8596 17.1049 37.3624 16.8127 37.7825C16.476 38.2919 16.5001 38.9592 16.8725 39.4431C17.2449 39.9269 17.8833 40.1203 18.4613 39.9244C19.0392 39.7284 19.4288 39.1864 19.4307 38.5756C19.4326 38.3093 19.3583 38.048 19.2166 37.8225C18.9083 37.3689 18.7514 36.8291 18.7684 36.2807C18.8226 35.2304 18.9433 33.6186 19.2095 31.8967C19.2521 31.5831 19.4942 31.3341 19.8062 31.283C22.4142 30.8717 24.7971 29.5623 26.544 27.5806C26.9514 27.1114 27.6151 26.9597 28.1856 27.2055C29.2084 27.6499 31.032 28.4529 31.7607 28.8337C32.2147 29.0778 32.5774 29.4626 32.7943 29.9305C33.0113 30.3542 33.4235 30.6432 33.8955 30.7026C34.3675 30.7619 34.8383 30.5839 35.1532 30.227C35.435 29.9044 35.5574 29.4721 35.4864 29.0495C35.4155 28.6268 35.1587 28.2584 34.787 28.0457V28.0471ZM10.152 23.5716C8.96944 23.5716 8.01078 22.612 8.01078 21.4282C8.01078 20.2444 8.96944 19.2848 10.152 19.2848C11.3346 19.2848 12.2933 20.2444 12.2933 21.4282C12.2933 22.612 11.3346 23.5716 10.152 23.5716ZM12.2933 15.7124C12.2933 13.7395 13.891 12.1401 15.862 12.1401C17.833 12.1401 19.4307 13.7395 19.4307 15.7124C19.4307 17.6854 17.833 19.2848 15.862 19.2848C13.892 19.2824 12.2956 17.6844 12.2933 15.7124ZM18.717 29.2874C16.3518 29.2874 14.4345 27.3682 14.4345 25.0006C14.4345 22.633 16.3518 20.7138 18.717 20.7138C21.0821 20.7138 22.9995 22.633 22.9995 25.0006C22.9971 27.3672 21.0812 29.2851 18.717 29.2874ZM23.7132 19.9993C22.5307 19.9993 21.572 19.0396 21.572 17.8559C21.572 16.6721 22.5307 15.7124 23.7132 15.7124C24.8958 15.7124 25.8545 16.6721 25.8545 17.8559C25.8545 19.0396 24.8958 19.9993 23.7132 19.9993Z" fill="white"/>
</svg>
