<svg width="24" height="24" viewBox="0 0 24 24" fill="none" xmlns="http://www.w3.org/2000/svg">
<g clip-path="url(#clip0)">
<path d="M17.6275 8.48277C17.2392 8.48277 16.9244 8.79759 16.9244 9.1859V10.5921C16.9244 10.9805 17.2392 11.2953 17.6275 11.2953C18.0158 11.2953 18.3306 10.9805 18.3306 10.5921V9.1859C18.3306 8.79759 18.0158 8.48277 17.6275 8.48277Z" fill="#fff"/>
<path d="M15.565 22.5453H19.7791V23.9984H15.565V22.5453Z" fill="#fff"/>
<path d="M21.4221 16.9672H19.7791V13.4047C19.7791 13.0166 19.4641 12.7016 19.076 12.7016H16.2682C15.88 12.7016 15.565 13.0166 15.565 13.4047V16.9672H13.9244C12.5028 16.9672 11.3463 18.1237 11.3463 19.5453V23.2953C11.3463 23.6836 11.6611 23.9984 12.0494 23.9984H14.1588V21.8422C14.1588 21.4539 14.4736 21.1391 14.8619 21.1391H20.4822C20.8705 21.1391 21.1853 21.4539 21.1853 21.8422V23.9984H23.2971C23.6854 23.9984 24.0002 23.6836 24.0002 23.2953V19.5453C24.0002 18.1237 22.8436 16.9672 21.4221 16.9672Z" fill="#fff"/>
<path d="M14.9058 7.3494C14.9058 6.76782 14.4327 6.29471 13.8511 6.29471H10.7552C10.1736 6.29471 9.70053 6.76782 9.70053 7.3494C9.70053 7.93097 10.1736 8.40408 10.7552 8.40408H13.8511C14.4327 8.40408 14.9058 7.93097 14.9058 7.3494Z" fill="#fff"/>
<path d="M12.5618 14.4041C12.5618 13.8225 12.0886 13.3494 11.507 13.3494H9.51472C8.93909 13.3494 8.46598 13.8177 8.46008 14.3933C8.45408 14.9805 8.92747 15.4587 9.51472 15.4587H11.5071C12.0886 15.4587 12.5618 14.9856 12.5618 14.4041Z" fill="#fff"/>
<path d="M8.47819 12.1744C7.8457 11.1596 8.03236 9.82503 8.95275 9.02234C7.51083 7.46974 8.58656 4.90699 10.7345 4.889L10.7361 4.87671H18.1431C18.7892 4.87671 19.3148 4.3511 19.3148 3.70503C19.3148 3.05745 18.7909 2.53334 18.1428 2.53334L12.1431 2.53442C12.0002 2.76687 11.8336 2.98873 11.6317 3.18237C10.2872 4.47171 8.53734 4.20073 8.14978 4.20884C7.97639 5.4469 7.49152 6.50463 6.71184 7.26096L6.71114 7.26354C6.10566 7.85492 5.24311 8.33731 4.01545 8.47029C3.62991 8.51215 3.28237 8.23151 3.2407 7.84699C3.19889 7.46093 3.47798 7.11406 3.864 7.07224C5.19422 6.92815 6.12389 6.17182 6.5603 4.87671C6.79608 4.17692 6.79941 3.56867 6.79912 3.51176C6.79448 3.12584 7.03509 2.80254 7.50225 2.80254C7.91634 2.80254 9.15281 2.80273 9.15281 2.80273C9.15281 2.80273 9.64739 2.83868 10.1832 2.53479H10.1799C10.8111 2.17962 11.2522 1.50228 11.2522 0.703526V0.00152588L4.23178 0.0176978C3.47273 0.019854 2.77036 0.432307 2.39864 1.09399L1.04395 3.50562H0.703125C0.314812 3.50562 0 3.82043 0 4.20875V13.3493C0 13.7376 0.314812 14.0524 0.703125 14.0524H1.09031L1.88391 14.8434C2.28202 15.2402 2.81081 15.4587 3.37294 15.4587L7.28226 15.442C6.71662 14.2276 7.23342 12.758 8.47819 12.1744Z" fill="#fff"/>
<path d="M10.5677 9.82205C9.98614 9.82205 9.51303 10.2952 9.51303 10.8767C9.51303 11.4583 9.98614 11.9314 10.5677 11.9314H11.9761C12.5577 11.9314 13.0308 11.4583 13.0308 10.8767C13.0308 10.2952 12.5577 9.82205 11.9761 9.82205H10.5677Z" fill="#fff"/>
</g>
<defs>
<clipPath id="clip0">
<rect width="24" height="24" fill="white"/>
</clipPath>
</defs>
</svg>
