<svg width="32" height="40" viewBox="0 0 32 40" fill="none" xmlns="http://www.w3.org/2000/svg">
<path d="M0 40H32V24.7848H29.3781C29.7995 21.2392 29.1319 17.8168 27.2726 14.7592C26.0333 12.72 24.332 11.004 22.3192 9.7648L24.2386 5.90155C24.7226 4.92746 24.3393 3.74517 23.3759 3.24024L19.0038 0.948716C18.0105 0.428101 16.7834 0.825845 16.2843 1.83016L7.61656 19.2736L10.6007 20.8376L10.1162 21.8128L8.10496 20.7584L7.11336 22.7608L13.0809 25.8896L14.0725 23.888L12.0628 22.8344L12.5473 21.8592L15.5315 23.4232L19.4979 15.4424C20.5043 16.1328 21.3603 17.0368 22.0069 18.092C23.3412 20.268 23.5531 22.4232 23.0896 24.7864H21.421C20.9598 24.7864 20.5584 25.1019 20.4494 25.55L19.913 27.7544H4.07546V30.0024H19.3654L18.7867 32.3816H3.41499C2.49135 32.3816 1.68784 33.0141 1.47093 33.9119L0 40Z" fill="white"/>
</svg>
