<svg width="52" height="52" viewBox="0 0 52 52" fill="none" xmlns="http://www.w3.org/2000/svg">
<g opacity="0.12" clip-path="url(#clip0)">
<path d="M31.7283 0.88132C31.7283 1.3678 32.1232 1.76268 32.6097 1.76268C42.3293 1.76268 50.2368 9.67023 50.2368 19.3898C50.2368 19.8762 50.6317 20.2711 51.1182 20.2711C51.6046 20.2711 51.9995 19.8762 51.9995 19.3898C51.9995 8.69797 43.3014 -4.15815e-05 32.6097 -4.11141e-05C32.1231 -4.10928e-05 31.7283 0.394734 31.7283 0.88132Z" fill="#EBBA16"/>
<path d="M31.7283 6.16938C31.7283 6.65586 32.1232 7.05074 32.6097 7.05074C39.4138 7.05074 44.9487 12.5857 44.9487 19.3898C44.9487 19.8762 45.3436 20.2711 45.8301 20.2711C46.3166 20.2711 46.7114 19.8762 46.7114 19.3898C46.7114 11.6135 40.3851 5.28812 32.6098 5.28812C32.1231 5.28802 31.7283 5.68289 31.7283 6.16938Z" fill="#EBBA16"/>
<path d="M31.7284 11.4575C31.7284 11.944 32.1233 12.3389 32.6097 12.3389C36.4975 12.3389 39.6606 15.5021 39.6606 19.3898C39.6606 19.8762 40.0555 20.2711 40.542 20.2711C41.0285 20.2711 41.4233 19.8762 41.4233 19.3898C41.4233 14.53 37.4696 10.5762 32.6097 10.5762C32.1232 10.5762 31.7284 10.971 31.7284 11.4575Z" fill="#EBBA16"/>
<path d="M12.8464 0.88299L5.15131 0.88299C2.31771 0.871512 0.0121439 3.16398 0.000669376 6.00276C-0.000246144 6.16403 0.00686446 6.32532 0.0217952 6.4866C0.879389 14.3959 3.57628 21.9922 7.89675 28.6676C11.8355 34.8777 17.0902 40.1429 23.2878 44.0887C29.9782 48.4321 37.5975 51.1352 45.5262 51.9787C48.3483 52.2343 50.8426 50.149 51.0973 47.3216C51.1114 47.1692 51.1184 47.0166 51.1184 46.8642L51.1184 39.1532C51.144 36.5735 49.256 34.3735 46.7063 34.0131C44.2438 33.6879 41.8253 33.0841 39.4986 32.2142C37.624 31.5082 35.5105 31.9595 34.0863 33.3705L30.8287 36.635C24.4072 32.9765 19.0899 27.6487 15.4377 21.214L18.6952 17.9494C20.1035 16.5225 20.554 14.4046 19.8497 12.5264C18.9816 10.1943 18.3787 7.77146 18.0544 5.3037C17.6894 2.71883 15.4508 0.817785 12.8464 0.88299Z" fill="#23A24D"/>
<path d="M36.1352 46.712C36.1352 47.0918 36.3829 47.4417 36.7645 47.5563C39.6377 48.4138 42.6793 49.0166 45.8055 49.3498C46.6938 49.4292 47.3408 48.9762 47.5778 48.7778C47.8731 48.5311 48.3825 47.982 48.4636 47.0839C48.4706 47.0108 48.4741 46.9375 48.4741 46.8644L48.4741 39.6611C48.4741 39.1737 48.0784 38.7797 47.5918 38.7797C47.1053 38.7797 46.7114 39.1746 46.7114 39.6611C46.7114 39.6611 46.7114 39.6611 46.7114 39.662L46.7114 46.8635C46.685 47.1913 46.5351 47.3518 46.4488 47.4249C46.3941 47.4699 46.2011 47.6153 45.9772 47.5951C42.9727 47.2751 40.0377 46.6934 37.2685 45.8668C36.8023 45.7275 36.3114 45.9928 36.1722 46.4591C36.1467 46.5436 36.1352 46.6291 36.1352 46.712Z" fill="#177734"/>
<path d="M2.64391 6.01354C2.64391 6.03467 2.64746 6.18193 2.65447 6.25414C2.99471 9.38826 3.59575 12.4052 4.4436 15.2351C4.58375 15.7014 5.0746 15.9667 5.54087 15.8265C6.00715 15.6864 6.27243 15.1937 6.13228 14.7292C5.31531 12.0015 4.73528 9.09119 4.40835 6.07955L4.40663 5.99851C4.40754 5.82402 4.48422 5.6407 4.62346 5.50227C4.7627 5.36394 4.94958 5.28808 5.14783 5.28899L12.3389 5.28808C12.8253 5.28808 13.2202 4.8932 13.2202 4.40672C13.2202 3.92023 12.8253 3.52536 12.3389 3.52536L5.15138 3.52627C4.48503 3.52363 3.85575 3.78099 3.38166 4.25072C2.90828 4.72065 2.64655 5.34638 2.64391 6.01354Z" fill="#177734"/>
</g>
<defs>
<clipPath id="clip0">
<rect width="52" height="52" fill="white" transform="matrix(-4.37114e-08 -1 -1 4.37114e-08 52 52)"/>
</clipPath>
</defs>
</svg>
