<svg width="55" height="50" viewBox="0 0 55 50" fill="none" xmlns="http://www.w3.org/2000/svg">
<path fill-rule="evenodd" clip-rule="evenodd" d="M30.9673 49.0389L10.4183 44.1759L25.4683 39.2609L46.1743 43.1479L30.9673 49.0389Z" fill="#D9E4EA"/>
<path fill-rule="evenodd" clip-rule="evenodd" d="M15.0122 27.4769L27.4762 24.9659L41.2762 27.0239L30.4082 29.7319L15.0122 27.4769Z" fill="#00B38E"/>
<path fill-rule="evenodd" clip-rule="evenodd" d="M27.4761 24.9656L27.8301 41.0986L39.8321 43.1486L41.2761 27.0246L27.4761 24.9656Z" fill="#056D52"/>
<path fill-rule="evenodd" clip-rule="evenodd" d="M30.4077 46.702L16.8177 43.544L15.0117 27.477L30.4077 29.732V46.702Z" fill="#00B38E"/>
<path fill-rule="evenodd" clip-rule="evenodd" d="M30.4077 29.7317L41.2757 27.0237L39.8327 43.1487L30.4077 46.7017V29.7317Z" fill="#039370"/>
<path fill-rule="evenodd" clip-rule="evenodd" d="M34.1909 45.2752L36.5059 44.4022L38.3429 27.7402L35.9559 28.3492L34.1909 45.2752Z" fill="#FDB003"/>
<path fill-rule="evenodd" clip-rule="evenodd" d="M21.0808 44.535L19.3328 28.107L22.2858 28.542L23.5018 45.097L21.0808 44.535Z" fill="#FDB003"/>
<path fill-rule="evenodd" clip-rule="evenodd" d="M41.1422 10.1995L30.9702 14.0855L31.1682 17.7475L40.9812 13.6365L41.1422 10.1995Z" fill="#039370"/>
<path fill-rule="evenodd" clip-rule="evenodd" d="M41.1422 10.1995L30.4822 9.49249L26.9152 9.25549L13.4352 13.4935L30.9702 14.0855L41.1422 10.1995Z" fill="#00B38E"/>
<path fill-rule="evenodd" clip-rule="evenodd" d="M14.2183 16.742L31.1683 17.747L30.9703 14.086L13.4353 13.493L14.2183 16.742Z" fill="#056D52"/>
<path fill-rule="evenodd" clip-rule="evenodd" d="M17.6499 13.6292L21.1899 13.7882L21.9479 17.2002L18.8129 17.0142L17.6499 13.6292Z" fill="#FDB003"/>
<path fill-rule="evenodd" clip-rule="evenodd" d="M17.6499 13.6292L30.4819 9.49219L33.4539 9.69019L21.1899 13.7882L17.6499 13.6292Z" fill="#FFBB43"/>
<path fill-rule="evenodd" clip-rule="evenodd" d="M35.9692 12.2186L35.7642 15.8226L37.9582 14.9026L38.1942 11.3256L35.9692 12.2186Z" fill="#FDB003"/>
<path fill-rule="evenodd" clip-rule="evenodd" d="M38.1937 11.326L22.5417 10.631L20.0107 11.426L35.9687 12.219L38.1937 11.326Z" fill="#FFBB43"/>
<path fill-rule="evenodd" clip-rule="evenodd" d="M17.3296 6.53497C17.3296 6.53497 21.3036 11.144 26.1036 11.307C27.2196 11.189 27.7256 10.861 27.7256 10.861L20.7976 6.36697C21.1366 4.87597 21.8916 3.51197 22.9756 2.43397C23.4306 1.98297 22.9396 1.23397 22.3456 1.46997L20.3596 2.25597L18.3236 4.24097L17.3296 6.53497Z" fill="#FF9A00"/>
<path fill-rule="evenodd" clip-rule="evenodd" d="M27.2192 11.1893L23.3182 4.17829C23.2382 4.03429 23.0952 3.93629 22.9312 3.91229C22.4372 3.83929 21.3042 3.76929 19.9482 4.30729C18.1212 5.03329 17.3292 6.53529 17.3292 6.53529L18.3232 4.24129C18.6072 3.58929 19.0182 3.00129 19.5332 2.51329H19.5342C20.4912 1.60729 21.6942 1.00229 22.9912 0.772294L24.1592 0.565294C24.6452 0.480294 25.1192 0.765294 25.2712 1.23429L28.2642 10.5113L27.2192 11.1893Z" fill="#FFBB43"/>
<path fill-rule="evenodd" clip-rule="evenodd" d="M36.9674 4.44844C36.9674 4.44844 34.0504 9.78944 29.3914 10.9584C28.2774 11.0764 27.7134 10.8624 27.7134 10.8624L33.5414 5.01344C32.8974 3.62644 31.8714 2.45144 30.5844 1.62544C30.0464 1.28044 30.3684 0.445445 30.9994 0.550445L33.1054 0.902445L35.5134 2.41544L36.9674 4.44844Z" fill="#FF9A00"/>
<path fill-rule="evenodd" clip-rule="evenodd" d="M28.2768 11.0765L30.6178 3.40348C30.6658 3.24448 30.7848 3.11847 30.9398 3.06148C31.4078 2.88748 32.5008 2.57947 33.9388 2.82148C35.8778 3.14748 36.9668 4.44847 36.9668 4.44847L35.5128 2.41547C35.0998 1.83747 34.5738 1.34947 33.9668 0.980475C32.8398 0.295475 31.5388 -0.0435251 30.2208 0.00447494L29.0358 0.0474749C28.5438 0.0654749 28.1388 0.444475 28.0898 0.934475L27.1128 10.6335L28.2768 11.0765Z" fill="#FFBB43"/>
<path fill-rule="evenodd" clip-rule="evenodd" d="M41.8022 19.486L43.6772 18.175L44.0732 18.742L42.1982 20.052L41.8022 19.486Z" fill="#FFBB43"/>
<path fill-rule="evenodd" clip-rule="evenodd" d="M46.0679 19.8361L47.9419 18.5251L48.3389 19.0921L46.4639 20.4031L46.0679 19.8361Z" fill="#FFBB43"/>
<path fill-rule="evenodd" clip-rule="evenodd" d="M45.9292 15.1605L46.8282 13.0575L47.4642 13.3285L46.5652 15.4325L45.9292 15.1605Z" fill="#00B38E"/>
<path fill-rule="evenodd" clip-rule="evenodd" d="M41.7554 15.41L42.2804 13.184L42.9534 13.343L42.4284 15.569L41.7554 15.41Z" fill="#FFBB43"/>
<path fill-rule="evenodd" clip-rule="evenodd" d="M42.3579 23.3812L44.6269 23.0892L44.7139 23.7742L42.4459 24.0672L42.3579 23.3812Z" fill="#00B38E"/>
<path fill-rule="evenodd" clip-rule="evenodd" d="M8.24462 14.6199L7.18762 12.2439L7.90562 11.9249L8.96262 14.3009L8.24462 14.6199Z" fill="#FFBB43"/>
<path fill-rule="evenodd" clip-rule="evenodd" d="M51.853 19.0066L53.938 18.0676L54.222 18.6976L52.137 19.6366L51.853 19.0066Z" fill="#00B38E"/>
<path fill-rule="evenodd" clip-rule="evenodd" d="M32.187 28.2059L33.726 26.5139L34.238 26.9789L32.698 28.6709L32.187 28.2059Z" fill="#00B38E"/>
<path fill-rule="evenodd" clip-rule="evenodd" d="M34.5132 20.6307L36.0522 18.9387L36.5642 19.4037L35.0252 21.0957L34.5132 20.6307Z" fill="#00B38E"/>
<path fill-rule="evenodd" clip-rule="evenodd" d="M49.52 15.3948L51.272 13.9248L51.716 14.4538L49.964 15.9248L49.52 15.3948Z" fill="#FFBB43"/>
<path fill-rule="evenodd" clip-rule="evenodd" d="M36.1079 26.6116L37.7249 24.9946L38.2139 25.4836L36.5969 27.1006L36.1079 26.6116Z" fill="#00B38E"/>
<path fill-rule="evenodd" clip-rule="evenodd" d="M49.0854 26.4036L51.3624 26.1956L51.4264 26.8846L49.1474 27.0916L49.0854 26.4036Z" fill="#00B38E"/>
<path fill-rule="evenodd" clip-rule="evenodd" d="M48.9097 22.554L51.1657 22.174L51.2797 22.856L49.0247 23.236L48.9097 22.554Z" fill="#00B38E"/>
<path fill-rule="evenodd" clip-rule="evenodd" d="M19.6294 25.428L21.3984 26.879L20.9594 27.413L19.1914 25.962L19.6294 25.428Z" fill="#056D52"/>
<path fill-rule="evenodd" clip-rule="evenodd" d="M43.2437 27.1263L45.3647 26.2713L45.6237 26.9123L43.5027 27.7673L43.2437 27.1263Z" fill="#FFBB43"/>
<path fill-rule="evenodd" clip-rule="evenodd" d="M30.8931 24.2293L30.4231 26.4673L29.7471 26.3253L30.2171 24.0873L30.8931 24.2293Z" fill="#FFBB43"/>
<path fill-rule="evenodd" clip-rule="evenodd" d="M31.0132 18.324L30.5432 20.562L29.8672 20.42L30.3362 18.182L31.0132 18.324Z" fill="#FFBB43"/>
<path fill-rule="evenodd" clip-rule="evenodd" d="M26.0132 25.8304L26.6282 28.0334L25.9622 28.2194L25.3472 26.0164L26.0132 25.8304Z" fill="#FFBB43"/>
<path fill-rule="evenodd" clip-rule="evenodd" d="M12.5151 22.3693L10.6401 21.0583L10.2441 21.6253L12.1191 22.9353L12.5151 22.3693Z" fill="#FFBB43"/>
<path fill-rule="evenodd" clip-rule="evenodd" d="M9.0201 23.0662L6.8401 22.3752L6.6311 23.0342L8.8111 23.7252L9.0201 23.0662Z" fill="#039370"/>
<path fill-rule="evenodd" clip-rule="evenodd" d="M10.6968 18.8035L9.17579 17.0955L8.65979 17.5555L10.1808 19.2635L10.6968 18.8035Z" fill="#00B38E"/>
<path fill-rule="evenodd" clip-rule="evenodd" d="M18.3921 22.9788L16.8701 21.2708L16.3541 21.7308L17.8751 23.4388L18.3921 22.9788Z" fill="#039370"/>
<path fill-rule="evenodd" clip-rule="evenodd" d="M14.2934 18.2811L13.1494 16.3011L12.5504 16.6461L13.6944 18.6271L14.2934 18.2811Z" fill="#FFBB43"/>
<path fill-rule="evenodd" clip-rule="evenodd" d="M24.6119 20.1897L23.4679 18.2097L22.8699 18.5547L24.0129 20.5357L24.6119 20.1897Z" fill="#FFBB43"/>
<path fill-rule="evenodd" clip-rule="evenodd" d="M14.3423 25.7688L12.1123 26.2738L12.2643 26.9478L14.4953 26.4428L14.3423 25.7688Z" fill="#056D52"/>
<path fill-rule="evenodd" clip-rule="evenodd" d="M10.7095 28.9773L8.47852 29.4823L8.63152 30.1563L10.8615 29.6513L10.7095 28.9773Z" fill="#FFBB43"/>
<path fill-rule="evenodd" clip-rule="evenodd" d="M2.38524 22.3812L0.158244 21.8572L0.000244141 22.5302L2.22624 23.0542L2.38524 22.3812Z" fill="#039370"/>
<path fill-rule="evenodd" clip-rule="evenodd" d="M6.18022 16.8426L4.56322 15.2256L4.07422 15.7146L5.69122 17.3316L6.18022 16.8426Z" fill="#039370"/>
<path fill-rule="evenodd" clip-rule="evenodd" d="M23.5376 23.4637L21.9196 21.8457L21.4316 22.3357L23.0486 23.9527L23.5376 23.4637Z" fill="#056D52"/>
<path fill-rule="evenodd" clip-rule="evenodd" d="M6.00544 20.1218L3.96844 19.0818L3.65344 19.6988L5.69144 20.7378L6.00544 20.1218Z" fill="#FFBB43"/>
<path fill-rule="evenodd" clip-rule="evenodd" d="M7.27296 26.2361L5.05296 25.6851L4.88696 26.3561L7.10696 26.9071L7.27296 26.2361Z" fill="#FFBB43"/>
</svg>
