<svg width="286" height="102" viewBox="0 0 286 102" fill="none" xmlns="http://www.w3.org/2000/svg">
<path d="M51.4711 3.15234H234.318C260.798 3.15234 282.257 24.599 282.257 51.0453C282.257 77.4996 260.79 98.9383 234.318 98.9383H51.4711C24.9915 98.9383 3.53223 77.4917 3.53223 51.0453C3.52431 24.5911 24.9915 3.15234 51.4711 3.15234Z" fill="url(#paint0_linear)" stroke="url(#paint1_linear)" stroke-width="3" stroke-miterlimit="10"/>
<path opacity="0.8" d="M53.546 63.9165H41.589C34.9849 63.9165 29.624 58.5686 29.624 51.963C29.624 45.3652 34.977 40.0095 41.589 40.0095H53.5539V63.9165H53.546Z" fill="#713609"/>
<path opacity="0.8" d="M89.4407 40.0095H77.4758H53.5459V63.9165V75.8699C53.5459 82.4677 58.8988 87.8234 65.5108 87.8234C72.1149 87.8234 77.4758 82.4756 77.4758 75.8699V63.9165H89.4407C96.0448 63.9165 101.406 58.5686 101.406 51.963C101.406 45.3652 96.0448 40.0095 89.4407 40.0095Z" fill="#713609"/>
<path opacity="0.8" d="M77.4758 28.0562C77.4758 34.6539 72.1228 40.0096 65.5108 40.0096C58.9068 40.0096 53.5459 34.6618 53.5459 28.0562C53.5459 21.4584 58.8988 16.1027 65.5108 16.1027C72.1228 16.1106 77.4758 21.4584 77.4758 28.0562Z" fill="#713609"/>
<path d="M52.5637 63.2598H40.5987C33.9946 63.2598 28.6338 57.912 28.6338 51.3063C28.6338 44.7086 33.9867 39.3528 40.5987 39.3528H52.5637V63.2598Z" fill="white"/>
<path d="M88.4523 39.3528H76.4874H52.5654V63.2598V75.2133C52.5654 81.811 57.9184 87.1667 64.5304 87.1667C71.1344 87.1667 76.4953 81.8189 76.4953 75.2133V63.2598H88.4602C95.0643 63.2598 100.425 57.912 100.425 51.3063C100.417 44.7007 95.0564 39.3528 88.4523 39.3528Z" fill="url(#paint2_linear)"/>
<path d="M76.4855 27.3995C76.4855 33.9972 71.1326 39.3529 64.5206 39.3529C57.9165 39.3529 52.5557 34.0051 52.5557 27.3995C52.5557 20.8017 57.9086 15.446 64.5206 15.446C71.1326 15.446 76.4855 20.8017 76.4855 27.3995Z" fill="white"/>
<g opacity="0.8">
<path opacity="0.8" d="M130.142 49.0204V39.3532H122.318V49.0125H117.805V25.9283H122.318V35.3661H130.142V25.9283H134.655V49.0125H130.142V49.0204Z" fill="#713609"/>
<path opacity="0.8" d="M140.039 49.0203V25.9282H155.259V29.947H144.545V35.3581H153.667V39.3769H144.545V44.9857H155.259V49.0045H140.039V49.0203Z" fill="#713609"/>
<path opacity="0.8" d="M172.815 49.0205L171.453 44.9385H163.242L161.848 49.0205H157.145L165.554 25.9363H169.094L177.535 49.0205H172.815ZM167.431 32.7398L164.509 41.1412H170.25L167.431 32.7398Z" fill="#713609"/>
<path opacity="0.8" d="M180.378 49.0203V25.9282H184.892V44.9936H195.376V49.0124H180.378V49.0203Z" fill="#713609"/>
<path opacity="0.8" d="M205.273 29.9551V49.0205H200.76V29.9551H194.726V25.9363H211.307V29.9551H205.273Z" fill="#713609"/>
<path opacity="0.8" d="M227.301 49.0203V39.3531H219.477V49.0124H214.964V25.9282H219.477V35.366H227.301V25.9282H231.815V49.0124H227.301V49.0203Z" fill="#713609"/>
<path opacity="0.8" d="M246.03 39.5511V49.0205H241.548V39.5511L234.604 25.9363H239.505L243.821 35.2396L248.073 25.9363H252.975L246.03 39.5511Z" fill="#713609"/>
<path opacity="0.8" d="M117.805 79.9207V56.8365H122.318V75.902H132.802V79.9207H117.805Z" fill="#713609"/>
<path opacity="0.8" d="M136.469 79.9207V56.8365H140.982V79.9207H136.469Z" fill="#713609"/>
<path opacity="0.8" d="M150.88 60.8553V66.5275H160.002V70.5462H150.88V79.9128H146.366V56.8286H161.586V60.8474H150.88V60.8553Z" fill="#713609"/>
<path opacity="0.8" d="M165.515 79.9207V56.8365H180.734V60.8553H170.02V66.2664H179.142V70.2852H170.02V75.8941H180.734V79.9128H165.515V79.9207Z" fill="#713609"/>
</g>
<path d="M129.034 48.3639V38.7046H121.211V48.3639H116.697V25.2797H121.211V34.7174H129.034V25.2797H133.548V48.3639H129.034Z" fill="white"/>
<path d="M138.932 48.3636V25.2794H154.151V29.2982H143.437V34.7093H152.559V38.7281H143.437V44.3369H154.151V48.3557H138.932V48.3636Z" fill="white"/>
<path d="M171.716 48.3636L170.354 44.2816H162.142L160.749 48.3636H156.045L164.454 25.2794H167.994L176.435 48.3636H171.716ZM166.323 32.0908L163.401 40.4922H169.142L166.323 32.0908Z" fill="white"/>
<path d="M179.277 48.3636V25.2794H183.791V44.3448H194.275V48.3636H179.277Z" fill="white"/>
<path d="M204.165 29.2982V48.3636H199.651V29.2982H193.617V25.2794H210.199V29.2982H204.165Z" fill="white"/>
<path d="M226.203 48.3636V38.7043H218.38V48.3636H213.866V25.2794H218.38V34.7172H226.203V25.2794H230.717V48.3636H226.203Z" fill="white"/>
<path d="M244.93 38.8942V48.3636H240.448V38.8942L233.504 25.2794H238.405L242.721 34.5827L246.973 25.2794H251.875L244.93 38.8942Z" fill="white"/>
<path d="M116.705 79.2717V56.1796H121.219V75.2451H131.703V79.2638H116.705V79.2717Z" fill="white"/>
<path d="M135.362 79.2717V56.1796H139.876V79.2638H135.362V79.2717Z" fill="white"/>
<path d="M149.772 60.2063V65.8785H158.895V69.8972H149.772V79.2638H145.259V56.1796H160.478V60.1984H149.772V60.2063Z" fill="white"/>
<path d="M164.414 79.2717V56.1796H179.634V60.1984H168.92V65.6095H178.042V69.6283H168.92V75.2451H179.634V79.2638H164.414V79.2717Z" fill="white"/>
<path d="M51.4711 3.15234H234.318C260.798 3.15234 282.257 24.599 282.257 51.0453C282.257 77.4996 260.79 98.9383 234.318 98.9383H51.4711C24.9915 98.9383 3.53223 77.4917 3.53223 51.0453C3.52431 24.5911 24.9915 3.15234 51.4711 3.15234Z" stroke="url(#paint3_linear)" stroke-width="6" stroke-miterlimit="10"/>
<path d="M234.207 5.1853H51.5816C26.2343 5.1853 5.67773 25.7143 5.67773 51.0452C5.67773 76.3682 26.2264 96.905 51.5816 96.905H234.207C259.554 96.905 280.111 76.3761 280.111 51.0452C280.111 25.7222 259.562 5.1853 234.207 5.1853Z" stroke="url(#paint4_linear)" stroke-miterlimit="10"/>
<defs>
<linearGradient id="paint0_linear" x1="282.262" y1="51.0456" x2="3.52756" y2="51.0456" gradientUnits="userSpaceOnUse">
<stop stop-color="#D3A047"/>
<stop offset="0.4052" stop-color="#D89820"/>
<stop offset="1" stop-color="#FFF3CD"/>
</linearGradient>
<linearGradient id="paint1_linear" x1="2.3397" y1="51.0456" x2="283.45" y2="51.0456" gradientUnits="userSpaceOnUse">
<stop stop-color="#D3A047"/>
<stop offset="0.4052" stop-color="#D89820"/>
<stop offset="1" stop-color="#FFF3CD"/>
</linearGradient>
<linearGradient id="paint2_linear" x1="100.416" y1="63.2563" x2="52.5625" y2="63.2563" gradientUnits="userSpaceOnUse">
<stop stop-color="#D3A047"/>
<stop offset="0.4052" stop-color="#D89920"/>
<stop offset="1" stop-color="#FFF3CD"/>
</linearGradient>
<linearGradient id="paint3_linear" x1="1.15191" y1="51.0456" x2="284.638" y2="51.0456" gradientUnits="userSpaceOnUse">
<stop stop-color="#D3A047"/>
<stop offset="0.4052" stop-color="#D89820"/>
<stop offset="1" stop-color="#FFF3CD"/>
</linearGradient>
<linearGradient id="paint4_linear" x1="68.848" y1="-28.2837" x2="216.789" y2="130.516" gradientUnits="userSpaceOnUse">
<stop stop-color="#D38C47"/>
<stop offset="1" stop-color="#D89820"/>
</linearGradient>
</defs>
</svg>
