<svg width="27" height="20" viewBox="0 0 27 20" fill="none" xmlns="http://www.w3.org/2000/svg">
<path d="M0.357422 19.0457C0.421853 17.0404 2.0092 15.4097 4.07099 14.9469C4.38729 14.8753 4.72116 14.8532 5.05503 14.8036C3.15724 13.6742 2.48364 12.308 3.01666 10.7048C3.49697 9.26137 4.92616 8.30828 6.52522 8.36888C8.07743 8.42948 9.44805 9.5148 9.78192 10.9417C10.1041 12.3135 9.55934 13.9828 7.63812 14.8036C7.98371 14.8367 8.30001 14.8532 8.61045 14.9083C10.6898 15.2664 12.3416 17.0679 12.5407 19.0512" fill="#00B38E"/>
<path d="M14.4033 19.0788C14.4678 17.0734 16.0551 15.4096 18.1169 14.9469C18.4332 14.8753 18.7671 14.8532 19.1009 14.8036C17.2031 13.6742 16.5295 12.308 17.0626 10.7048C17.5429 9.26137 18.9721 8.30828 20.5711 8.36888C22.1233 8.42948 23.4939 9.5148 23.8278 10.9417C24.15 12.3135 23.6052 13.9828 21.684 14.8036C22.0296 14.8367 22.3459 14.8532 22.6563 14.9083C24.7357 15.2664 26.3875 17.0679 26.5866 19.0512" fill="#00B38E"/>
<path d="M14.4843 10.9611C13.8635 10.1458 13.2836 9.40754 12.7271 8.65829C12.5924 8.47649 12.446 8.39936 12.2058 8.38834C10.8996 8.31672 9.65787 8.01922 8.58011 7.29752C7.5375 6.59785 6.91077 5.68332 7.01034 4.43273C7.06891 3.67246 7.42621 3.02237 7.94752 2.45492C8.94327 1.35308 10.2436 0.7085 11.7021 0.339383C13.676 -0.156446 15.6382 -0.150937 17.5419 0.63688C18.1745 0.895813 18.7426 1.25391 19.1937 1.74974C20.1133 2.75793 20.2714 3.8763 19.6798 5.0773C19.3401 5.77697 18.7895 6.32239 18.151 6.79067C17.2022 7.47932 16.1244 7.92006 14.9588 8.16246C14.7128 8.21205 14.6483 8.31672 14.6366 8.52607C14.6015 9.22023 14.5488 9.9199 14.5078 10.6141C14.5019 10.7022 14.4961 10.7904 14.4843 10.9611Z" fill="#00B38E"/>
</svg>
