<svg width="72" height="14" viewBox="0 0 72 14" fill="none" xmlns="http://www.w3.org/2000/svg">
<path d="M0 0H72V14H0V0Z" fill="white"/>
<path d="M70.995 12.9733H1.00517V1.02973H70.995V12.9733Z" fill="#0F4D8C"/>
<path d="M70.995 12.9733H12.6695V1.02973H70.995V12.9733Z" fill="#004689"/>
<path d="M16.3761 9.82654V4.18277H18.194V6.08625H19.8953V4.18277H21.7147V9.82654H19.8953V7.63466H18.194V9.82654H16.3761Z" fill="white"/>
<path d="M25.2877 9.82654C25.7145 9.82654 26.0684 9.78947 26.3604 9.71495C26.6516 9.63901 26.8898 9.53747 27.0744 9.41118C27.2558 9.28935 27.4262 9.11898 27.5786 8.9086C27.7283 8.69671 27.8654 8.42223 27.971 8.0904C28.0732 7.7599 28.1272 7.38664 28.1272 6.95839C28.1272 6.3392 28.0106 5.81472 27.7783 5.37973C27.5397 4.94987 27.2158 4.63757 26.8053 4.45573C26.3915 4.27266 25.9033 4.18278 25.3313 4.18278H22.8132V9.82654H25.2877ZM24.5856 5.58395H25.0594C25.3946 5.58395 25.6435 5.62633 25.8053 5.69516C25.9183 5.74513 26.0133 5.82325 26.0987 5.93778C26.1755 6.05837 26.2363 6.19973 26.2821 6.3848C26.3243 6.56418 26.3436 6.76365 26.3436 6.95839C26.3436 7.2925 26.301 7.56896 26.2068 7.78683C26.113 8.01579 25.9814 8.17535 25.8087 8.27376C25.635 8.37123 25.3829 8.41636 25.0431 8.41636L24.5856 8.42498V5.58395Z" fill="white"/>
<path d="M28.9607 9.82654V4.18278H33.2665V5.58026H30.7525V6.48416H32.7585V7.83632H30.7525V9.82654H28.9607Z" fill="white"/>
<path d="M39.3444 6.33917H37.6304C37.5988 6.06014 37.4984 5.83886 37.3311 5.68072C37.1648 5.52192 36.9557 5.44863 36.6994 5.44863C36.3774 5.44863 36.1128 5.58022 35.9149 5.82388C35.7093 6.07844 35.6122 6.49342 35.6122 7.06189C35.6122 7.45554 35.6561 7.75883 35.7403 7.95793C35.8266 8.16461 35.9466 8.31573 36.1053 8.41633C36.2537 8.5172 36.4426 8.56451 36.6786 8.56451C36.9557 8.56451 37.179 8.48895 37.3422 8.32379C37.5072 8.17134 37.6071 7.94124 37.6382 7.63311H39.3834C39.3444 7.9821 39.2768 8.27753 39.1751 8.5172C39.0815 8.75697 38.9114 8.9902 38.6771 9.22884C38.4497 9.47268 38.1671 9.65993 37.8482 9.78849C37.525 9.9198 37.1581 9.98199 36.7326 9.98199C36.3107 9.98199 35.918 9.9198 35.5653 9.78953C35.2085 9.66296 34.9059 9.47951 34.6676 9.25112C34.4194 9.01229 34.2312 8.74569 34.0916 8.44249C33.897 8.01974 33.8048 7.55215 33.8048 7.02767C33.8048 6.59875 33.8715 6.17865 34.0122 5.81042C34.1497 5.42891 34.3444 5.1131 34.5911 4.85124C34.8366 4.59639 35.1006 4.40346 35.4045 4.27442C35.7817 4.11022 36.1967 4.02897 36.6592 4.02897C37.0624 4.02897 37.4338 4.09002 37.7879 4.21261C38.1342 4.33472 38.424 4.51258 38.649 4.74572C38.8751 4.98549 39.0485 5.25209 39.1719 5.55737C39.2583 5.77297 39.3129 6.03322 39.3444 6.33917Z" fill="white"/>
<path d="M45.324 7.46438C45.6821 7.46438 45.9158 7.50743 46.0321 7.60214C46.1423 7.69306 46.2009 7.82124 46.2009 7.9955C46.2009 8.16056 46.1423 8.29405 46.0232 8.39057C45.9099 8.48898 45.6748 8.53591 45.324 8.53591H44.5787V7.46438H45.324ZM45.6145 9.82654C46.044 9.82654 46.3495 9.80634 46.5268 9.76633C46.7006 9.7267 46.8785 9.66015 47.0636 9.57293C47.243 9.47802 47.3779 9.38454 47.4717 9.28935C47.6117 9.15302 47.7156 8.99023 47.794 8.7972C47.8691 8.60152 47.9065 8.37796 47.9065 8.14046C47.9065 7.80209 47.8234 7.51643 47.6586 7.29259C47.4885 7.06107 47.2668 6.90511 46.9841 6.82898C47.4629 6.52038 47.6996 6.12171 47.6996 5.63117C47.6996 5.12887 47.4885 4.74575 47.0707 4.48588C46.7507 4.28422 46.2457 4.18278 45.5651 4.18278H42.8243V9.82654H45.6145ZM45.161 5.45444C45.4176 5.45444 45.5841 5.46459 45.6638 5.49066C45.7693 5.51825 45.8584 5.58206 45.9209 5.66331C45.9848 5.74532 46.0185 5.84515 46.0185 5.9612C46.0185 6.10474 45.9611 6.22144 45.8578 6.31369C45.744 6.40187 45.5472 6.44424 45.2656 6.44424H44.5787V5.45444H45.161Z" fill="white"/>
<path d="M50.1996 9.82654L50.4063 9.08656H52.2143L52.4231 9.82654H54.2308L52.252 4.18278H50.4063L48.4244 9.82654H50.1996ZM51.8951 7.92733H50.7417L51.311 5.87511L51.8951 7.92733Z" fill="white"/>
<path d="M54.9938 9.82654V4.18278H56.683L58.5921 7.20594V4.18278H60.3301V9.82654H58.6037L56.735 6.88463V9.82654H54.9938Z" fill="white"/>
<path d="M61.5423 9.82654V4.18278H63.2982V6.04501L64.9422 4.18278H67.073L65.052 6.30582L67.2817 9.82654H65.1097L63.783 7.5809L63.2982 8.06556V9.82654H61.5423Z" fill="white"/>
<path d="M12.6694 12.9733H1.00508V1.02973H12.6694V12.9733Z" fill="#ED1C24"/>
<path d="M10.6277 10.8832H3.04425V3.12752H10.6277V10.8832Z" fill="white"/>
<path d="M7.4202 12.9733H6.25191V1.02973H7.4202V12.9733Z" fill="white"/>
<path d="M1.00508 6.40487H12.6694V7.60211H1.00508V6.40487Z" fill="white"/>
<path d="M8.58517 8.79718H5.08669V5.21361H8.58517V8.79718Z" fill="#004689"/>
</svg>
