<svg width="40" height="50" viewBox="0 0 40 50" fill="none" xmlns="http://www.w3.org/2000/svg">
<path fill-rule="evenodd" clip-rule="evenodd" d="M19.7482 49.3824C19.8306 49.4012 19.9153 49.4106 20 49.4106C20.0847 49.4106 20.1694 49.4012 20.2518 49.3847C20.4494 49.3424 40 44.8153 40 23.3612V8.23412C40 7.74471 39.6965 7.30471 39.2377 7.13294L20.4141 0.0741176C20.1459 -0.0247059 19.8518 -0.0247059 19.5859 0.0741176L0.762353 7.13294C0.303529 7.30471 0 7.74471 0 8.23412V23.3612C0 44.8153 19.5506 49.34 19.7482 49.3824ZM16.6668 16.6666C16.6668 14.8257 18.1592 13.3333 20.0001 13.3333C21.8411 13.3333 23.3334 14.8257 23.3334 16.6666V20H26.668C28.509 20 30.0014 21.4923 30.0014 23.3333C30.0014 25.1742 28.509 26.6666 26.668 26.6666H23.3334V30C23.3334 31.8409 21.8411 33.3333 20.0001 33.3333C18.1592 33.3333 16.6668 31.8409 16.6668 30V26.6666H13.3347C11.4937 26.6666 10.0014 25.1742 10.0014 23.3333C10.0014 21.4923 11.4937 20 13.3347 20H16.6668V16.6666Z" fill="white"/>
</svg>
