<svg width="24" height="24" viewBox="0 0 24 24" fill="none" xmlns="http://www.w3.org/2000/svg">
<g clip-path="url(#clip0)">
<path d="M5.67441 4.9514H8.48925V6.375H5.67441V4.9514Z" fill="#07AE8B"/>
<path d="M4.26807 6.375V4.24828C4.26807 3.86016 4.58307 3.54516 4.97119 3.54516H9.19229C9.58041 3.54516 9.89541 3.86016 9.89541 4.24828V6.375H11.2993V4.26563C11.2993 3.8775 11.6143 3.5625 12.0024 3.5625C12.3906 3.5625 12.7056 3.8775 12.7056 4.26563V6.375H12.9765L14.1882 3.95109C14.3073 3.71297 14.551 3.5625 14.8173 3.5625C22.2267 3.5985 21.981 3.48169 22.5446 3.66656V1.40625C22.5446 1.01813 22.2296 0.703125 21.8415 0.703125H2.17416C1.78604 0.703125 1.47104 1.01813 1.47104 1.40625V6.47391C1.6726 6.40969 1.88682 6.375 2.10948 6.375H4.26807Z" fill="#07AE8B"/>
<path d="M12.7078 13.4063V12.7031H11.2969V13.4063C11.2969 13.7946 10.9821 14.1094 10.5938 14.1094H9.89062V15.5203H10.5938C10.9821 15.5203 11.2969 15.8351 11.2969 16.2234V16.9266H12.7078V16.2234C12.7078 15.8351 13.0226 15.5203 13.4109 15.5203H14.1141V14.1094H13.4109C13.0226 14.1094 12.7078 13.7946 12.7078 13.4063Z" fill="#07AE8B"/>
<path d="M21.8906 4.96875H15.2517L14.2342 7.00392C13.9959 7.48031 13.509 7.78125 12.9764 7.78125H2.10938C0.944391 7.78125 0 8.72564 0 9.89062V21.1875C0 22.3525 0.944391 23.2969 2.10938 23.2969H21.8906C23.0556 23.2969 24 22.3525 24 21.1875V7.07812C24 5.91314 23.0556 4.96875 21.8906 4.96875ZM15.5203 16.2234C15.5203 16.6118 15.2055 16.9266 14.8172 16.9266H14.1141V17.6297C14.1141 18.018 13.7993 18.3328 13.4109 18.3328H10.5938C10.2054 18.3328 9.89062 18.018 9.89062 17.6297V16.9266H9.1875C8.79919 16.9266 8.48438 16.6118 8.48438 16.2234V13.4062C8.48438 13.0179 8.79919 12.7031 9.1875 12.7031H9.89062V12C9.89062 11.6117 10.2054 11.2969 10.5938 11.2969H13.4109C13.7993 11.2969 14.1141 11.6117 14.1141 12V12.7031H14.8172C15.2055 12.7031 15.5203 13.0179 15.5203 13.4062V16.2234ZM20.4398 20.4375H17.6273C17.239 20.4375 16.9242 20.1227 16.9242 19.7344C16.9242 19.3461 17.239 19.0312 17.6273 19.0312H20.4398C20.8282 19.0312 21.143 19.3461 21.143 19.7344C21.143 20.1227 20.8282 20.4375 20.4398 20.4375ZM20.4398 17.625H17.6273C17.239 17.625 16.9242 17.3102 16.9242 16.9219C16.9242 16.5336 17.239 16.2188 17.6273 16.2188H20.4398C20.8282 16.2188 21.143 16.5336 21.143 16.9219C21.143 17.3102 20.8282 17.625 20.4398 17.625Z" fill="#07AE8B"/>
</g>
<defs>
<clipPath id="clip0">
<rect width="24" height="24" fill="white"/>
</clipPath>
</defs>
</svg>
