<svg width="32" height="32" viewBox="0 0 32 32" fill="none" xmlns="http://www.w3.org/2000/svg">
<path d="M13.6667 15H1C0.447998 15 0 14.552 0 14C0 13.448 0.447998 13 1 13H13.6667C14.2188 13 14.6667 13.448 14.6667 14C14.6667 14.552 14.2188 15 13.6667 15Z" fill="#555555"/>
<path d="M8.66675 20C8.41064 20 8.15479 19.9026 7.95996 19.7068C7.56934 19.3159 7.56934 18.6826 7.95996 18.292L12.2534 13.9988L7.95996 9.70679C7.56934 9.31592 7.56934 8.68262 7.95996 8.29199C8.35059 7.90137 8.98389 7.90137 9.37476 8.29199L14.3748 13.292C14.7654 13.6826 14.7654 14.3159 14.3748 14.7068L9.37476 19.7068C9.17871 19.9026 8.92261 20 8.66675 20Z" fill="#555555"/>
<path d="M21.3333 32C19.8625 32 18.6667 30.8039 18.6667 29.3332V5.33325C18.6667 4.19336 19.3921 3.17603 20.4719 2.80127L28.4827 0.130616C30.2747 -0.4187 32 0.910645 32 2.66675V26.6667C32 27.8054 31.2747 28.8213 30.196 29.1973L22.1826 31.8694C21.8906 31.9599 21.6201 32 21.3333 32ZM29.3333 2C29.2466 2 29.1733 2.01074 29.0947 2.03467L21.1174 4.69458C20.856 4.7854 20.6667 5.04932 20.6667 5.33325V29.3332C20.6667 29.7881 21.1599 30.0947 21.572 29.9653L29.5493 27.3054C29.8093 27.2146 30 26.9507 30 26.6667V2.66675C30 2.30005 29.7014 2 29.3333 2Z" fill="#555555"/>
<path d="M11.6667 6.66675C11.1147 6.66675 10.6667 6.21875 10.6667 5.66675V3.66675C10.6667 1.64404 12.3105 0 14.3333 0H29.3333C29.8853 0 30.3333 0.447998 30.3333 1C30.3333 1.552 29.8853 2 29.3333 2H14.3333C13.4146 2 12.6667 2.74805 12.6667 3.66675V5.66675C12.6667 6.21875 12.2188 6.66675 11.6667 6.66675Z" fill="#555555"/>
<path d="M19.6667 28H14.3333C12.3105 28 10.6667 26.356 10.6667 24.3333V22.3333C10.6667 21.7812 11.1147 21.3333 11.6667 21.3333C12.2188 21.3333 12.6667 21.7812 12.6667 22.3333V24.3333C12.6667 25.252 13.4146 26 14.3333 26H19.6667C20.2188 26 20.6667 26.448 20.6667 27C20.6667 27.552 20.2188 28 19.6667 28Z" fill="#555555"/>
</svg>
