<svg width="142" height="176" viewBox="0 0 142 176" fill="none" xmlns="http://www.w3.org/2000/svg">
<path fill-rule="evenodd" clip-rule="evenodd" d="M2.58008 13.6376V162.352L55.6881 167.887L104.815 162.352C104.815 107.659 104.815 76.3995 104.815 13.6376C104.815 7.55734 99.8397 2.57812 93.7632 2.57812H75.3784L53.7026 14.2807L32.0168 2.57812H13.6323C7.55586 2.57812 2.58008 7.55734 2.58008 13.6376Z" fill="#EFF6FF"/>
<path fill-rule="evenodd" clip-rule="evenodd" d="M32.0156 2.57812V9.89587C32.0156 12.3076 33.9887 14.2807 36.4005 14.2807H70.9955C73.4103 14.2807 75.3773 12.3028 75.3773 9.89587V2.57812H32.0156Z" fill="#7E707D"/>
<path fill-rule="evenodd" clip-rule="evenodd" d="M23.066 79.7225L49.2797 136.706C52.2789 143.225 60.0594 146.1 66.5738 143.098L76.9347 138.324C78.1131 137.778 78.6387 136.375 78.0935 135.196L68.989 115.405C68.4438 114.226 67.1582 114.168 65.8633 114.256L58.969 114.733L46.0471 86.6408L50.8964 81.7104C51.8018 80.7847 52.5907 79.7617 52.0455 78.5826L42.941 58.7922C42.4054 57.6132 40.9933 57.0969 39.8153 57.6424L29.4543 62.4171C22.9395 65.418 20.0668 73.2036 23.066 79.7225Z" fill="#7E707D"/>
<path fill-rule="evenodd" clip-rule="evenodd" d="M2.58008 162.352C2.58008 168.443 7.55586 173.422 13.6323 173.422H93.7632C99.8393 173.422 104.815 168.443 104.815 162.352H2.58008Z" fill="#7E707D"/>
<path fill-rule="evenodd" clip-rule="evenodd" d="M93.2847 13.6376V51.9709C93.8202 51.9124 94.3558 51.8832 94.911 51.8832H104.814V13.6376C104.814 7.55734 99.8383 2.57812 93.7618 2.57812H82.2324C88.3085 2.57812 93.2847 7.55734 93.2847 13.6376Z" fill="#D9EEFF"/>
<path fill-rule="evenodd" clip-rule="evenodd" d="M93.2852 113.885V162.352H104.815V112.882H95.0183L93.2852 113.885Z" fill="#D9EEFF"/>
<path fill-rule="evenodd" clip-rule="evenodd" d="M93.2847 162.352C93.2847 168.443 88.3089 173.422 82.2324 173.422H93.7618C99.8379 173.422 104.814 168.443 104.814 162.352H93.2847Z" fill="#6A5C69"/>
<path fill-rule="evenodd" clip-rule="evenodd" d="M36.4057 61.8028L43.777 77.8222C44.3222 79.0013 43.5337 80.0243 42.6279 80.95L37.7786 85.8804L54.4398 122.099L61.3341 121.622C62.6293 121.534 63.9242 121.602 64.4598 122.772L71.5586 138.206C72.1037 139.376 71.5878 140.779 70.4094 141.325L76.9338 138.323C78.1121 137.778 78.6377 136.375 78.0926 135.195L68.988 115.405C68.4428 114.226 67.1572 114.168 65.8623 114.255L58.968 114.733L46.0461 86.6405L50.8954 81.7101C51.8008 80.7843 52.5897 79.7613 52.0446 78.5823L42.94 58.7919C42.4044 57.6128 40.9923 57.0965 39.8143 57.6421L33.2899 60.6433C32.1115 61.1889 35.8701 60.6237 36.4057 61.8028Z" fill="#6A5C69"/>
<path fill-rule="evenodd" clip-rule="evenodd" d="M64.3038 9.89587C64.3038 12.3028 62.3369 14.2807 59.9316 14.2807H70.9935C73.4084 14.2807 75.3753 12.3028 75.3753 9.89587V2.57812H64.3034V8.55112V9.89587H64.3038Z" fill="#6A5C69"/>
<path d="M74.2586 42.9048H32.5143C31.1026 42.9048 29.8716 41.8168 29.8293 40.4057C29.7857 38.9458 30.9561 37.7486 32.4064 37.7486H74.1507C75.5625 37.7486 76.7935 38.8365 76.8357 40.2476C76.8791 41.7079 75.7086 42.9048 74.2586 42.9048Z" fill="#7E707D"/>
<path d="M68.3261 30.8127H38.4518C37.0401 30.8127 35.8091 29.7247 35.7668 28.3136C35.7232 26.8537 36.8936 25.6565 38.3439 25.6565H68.2182C69.63 25.6565 70.8609 26.7444 70.9032 28.1555C70.9465 29.6154 69.7761 30.8127 68.3261 30.8127Z" fill="#7E707D"/>
<path d="M104.893 54.4603C106.304 54.418 107.392 53.1871 107.392 51.7753V13.6376C107.392 6.11772 101.277 0 93.7613 0H13.6304C6.11462 0 0 6.11772 0 13.6376V162.352C0 169.877 6.11462 176 13.6304 176H93.7613C101.277 176 107.392 169.877 107.392 162.352V112.99C107.392 111.578 106.304 110.347 104.893 110.305C103.433 110.261 102.235 111.431 102.235 112.882V162.352C102.235 167.035 98.4338 170.844 93.7613 170.844H13.6304C8.95778 170.844 5.15625 167.035 5.15625 162.352V13.6376C5.15625 8.96088 8.95778 5.15625 13.6304 5.15625H93.7613C98.4338 5.15625 102.235 8.96088 102.235 13.6376V51.8836C102.235 53.3338 103.433 54.5043 104.893 54.4603Z" fill="#7E707D"/>
<path fill-rule="evenodd" clip-rule="evenodd" d="M80.8379 98.8013C80.8379 102.796 82.5226 106.412 85.21 108.984L84.6295 117.03C84.57 117.855 85.4582 118.411 86.1746 117.997L95.0159 112.882H104.812H127.734C135.466 112.882 141.795 106.548 141.795 98.8013V65.954C141.795 58.2172 135.466 51.8836 127.734 51.8836H104.812H94.9089C87.1677 51.8836 80.8382 58.2172 80.8382 65.954V98.8013H80.8379Z" fill="#FDE588"/>
<path fill-rule="evenodd" clip-rule="evenodd" d="M97.0234 76.8185V86.8646C97.0234 87.8388 97.813 88.6284 98.7872 88.6284H104.531V94.3773C104.531 94.7279 104.639 95.0593 104.814 95.3322C105.135 95.8193 105.68 96.1411 106.304 96.1411H116.343C117.307 96.1411 118.106 95.3518 118.106 94.3773V88.6284H123.851C124.815 88.6284 125.613 87.8392 125.613 86.8646V76.8185C125.613 75.844 124.815 75.0548 123.851 75.0548H118.106V69.3055C118.106 68.331 117.307 67.5418 116.343 67.5418H106.304C105.68 67.5418 105.135 67.8632 104.814 68.3506C104.639 68.6235 104.531 68.9546 104.531 69.3055V75.0548H98.7958C97.8216 75.0551 97.0234 75.8443 97.0234 76.8185Z" fill="#FE8D94"/>
<path fill-rule="evenodd" clip-rule="evenodd" d="M132.342 65.954V98.8013C132.342 106.548 126.013 112.882 118.281 112.882H127.736C135.468 112.882 141.798 106.548 141.798 98.8013V65.954C141.798 58.2172 135.468 51.8836 127.736 51.8836H118.281C126.013 51.8836 132.342 58.2172 132.342 65.954Z" fill="#FDD76F"/>
</svg>
