<svg width="90" height="90" viewBox="0 0 90 90" fill="none" xmlns="http://www.w3.org/2000/svg">
<path d="M38.4377 42.1875H2.8125C1.25999 42.1875 0 40.9275 0 39.375C0 37.8225 1.25999 36.5625 2.8125 36.5625H38.4377C39.9902 36.5625 41.2502 37.8225 41.2502 39.375C41.2502 40.9275 39.9902 42.1875 38.4377 42.1875Z" fill="white"/>
<path d="M24.3753 56.25C23.655 56.25 22.9354 55.976 22.3875 55.4253C21.2888 54.326 21.2888 52.5449 22.3875 51.4462L34.4628 39.3716L22.3875 27.3003C21.2888 26.201 21.2888 24.4199 22.3875 23.3212C23.4861 22.2226 25.2672 22.2226 26.3666 23.3212L40.4291 37.3837C41.5277 38.4824 41.5277 40.2635 40.4291 41.3628L26.3666 55.4253C25.8152 55.976 25.0949 56.25 24.3753 56.25Z" fill="white"/>
<path d="M59.9995 90C55.8632 90 52.5 86.6361 52.5 82.4998V14.9998C52.5 11.7938 54.54 8.93259 57.5771 7.87859L80.1073 0.367375C85.1472 -1.17758 89.9998 2.56121 89.9998 7.50025V75.0002C89.9998 78.2027 87.9597 81.0599 84.9261 82.1173L62.3884 89.6326C61.5672 89.8874 60.8064 90 59.9995 90ZM82.4995 5.62502C82.2558 5.62502 82.0498 5.65523 81.8287 5.72252L59.3925 13.2035C58.6572 13.459 58.125 14.2012 58.125 14.9998V82.4998C58.125 83.779 59.512 84.6414 60.6711 84.2775L83.1072 76.7965C83.8385 76.541 84.3748 75.7988 84.3748 75.0002V7.50025C84.3748 6.4689 83.535 5.62502 82.4995 5.62502Z" fill="white"/>
<path d="M32.8125 18.7502C31.26 18.7502 30 17.4902 30 15.9377V10.3127C30 4.62387 34.6232 0 40.312 0H82.4995C84.052 0 85.312 1.25999 85.312 2.8125C85.312 4.36501 84.052 5.625 82.4995 5.625H40.312C37.7282 5.625 35.625 7.72888 35.625 10.3127V15.9377C35.625 17.4902 34.365 18.7502 32.8125 18.7502Z" fill="white"/>
<path d="M55.3125 78.75H40.312C34.6232 78.75 30 74.1261 30 68.4373V62.8123C30 61.2598 31.26 59.9998 32.8125 59.9998C34.365 59.9998 35.625 61.2598 35.625 62.8123V68.4373C35.625 71.0211 37.7282 73.125 40.312 73.125H55.3125C56.865 73.125 58.125 74.385 58.125 75.9375C58.125 77.49 56.865 78.75 55.3125 78.75Z" fill="white"/>
</svg>
