<svg width="102" height="112" viewBox="0 0 102 112" fill="none" xmlns="http://www.w3.org/2000/svg">
<g opacity="0.6">
<path d="M33.5847 26.7076C34.8864 26.0627 36.3516 25.6984 37.9025 25.6984C39.8233 25.6984 41.6126 26.2566 43.1218 27.2161C47.6127 25.5215 50.808 21.1857 50.808 16.1016C50.808 9.54173 45.4902 4.22391 38.9304 4.22391C32.3706 4.22391 27.0527 9.54173 27.0527 16.1016C27.0527 20.7379 29.7108 24.751 33.5847 26.7076Z" fill="#FFCFAB"/>
<path opacity="0.1" d="M33.5845 26.7075C34.8803 26.0655 36.3386 25.702 37.882 25.699C34.9236 23.5388 33.0008 20.0454 33.0008 16.1017C33.0008 10.569 36.7839 5.91975 41.9044 4.59977C40.954 4.35476 39.9575 4.22409 38.9304 4.22409C32.3706 4.22409 27.0527 9.54191 27.0527 16.1017C27.0525 20.7379 29.7106 24.751 33.5845 26.7075Z" fill="black"/>
<path d="M50.5604 13.6271V10.7484C50.5604 5.71417 46.4794 1.63336 41.4453 1.63336H36.168C31.134 1.63336 27.0527 5.71439 27.0527 10.7484V13.6271H50.5604Z" fill="#E23C38"/>
<g opacity="0.1">
<path opacity="0.1" d="M41.7892 1.64207C41.6751 1.63794 41.5608 1.63336 41.4453 1.63336H36.168C31.134 1.63336 27.0527 5.71439 27.0527 10.7484V13.6271H33.018V10.7484C33.018 5.82982 36.915 1.82327 41.7892 1.64207Z" fill="black"/>
</g>
<path d="M58.533 80.5258C58.1638 78.1448 56.7162 75.2922 55.0134 73.5894L46.4935 65.0695H38.75V71.324L48.0036 80.5776C48.2601 80.8561 48.6809 81.6861 48.7517 82.042L52.3882 105.516C52.5698 105.166 52.9318 104.922 53.3515 104.922H62.3126L58.533 80.5258Z" fill="#34A1D7"/>
<path opacity="0.1" d="M53.5187 82.0418C53.4481 81.6859 53.0272 80.8562 52.7708 80.5774L38.75 66.557V71.3241L48.0036 80.5774C48.2601 80.856 48.6809 81.6859 48.7517 82.0418L52.3882 105.516C52.5698 105.166 52.9318 104.922 53.3515 104.922H57.0636L53.5187 82.0418Z" fill="black"/>
<path d="M66.121 108.782C66.121 109.381 65.631 109.871 65.0321 109.871H53.3526C52.7537 109.871 52.2637 109.381 52.2637 108.782V106.011C52.2637 105.412 52.7537 104.922 53.3526 104.922H65.0321C65.631 104.922 66.121 105.412 66.121 106.011V108.782Z" fill="#08375E"/>
<path d="M28.8541 65.0695V74.6158C28.8384 74.9941 28.5492 75.8783 28.3475 76.1803L12.0391 98.4682L12.0569 98.4813C12.4193 98.2415 12.9067 98.2302 13.283 98.4937L20.5579 103.588L36.3349 82.0256C37.7577 80.0815 38.7516 77.0408 38.7516 74.6315V65.0697H28.8539V65.0695H28.8541Z" fill="#34A1D7"/>
<path opacity="0.1" d="M33.5743 65.0695H28.8541V74.6158C28.8384 74.9941 28.5492 75.8783 28.3475 76.1803L12.0391 98.4682L12.0569 98.4813C12.4193 98.2415 12.9067 98.2302 13.283 98.4937L20.5578 103.588L21.152 102.776L16.7595 99.5619L33.0677 77.2741C33.2696 76.972 33.5586 76.0878 33.5743 75.7095V65.0695Z" fill="black"/>
<path d="M21.5297 108.979C21.1861 109.47 20.5038 109.59 20.0131 109.247L10.4457 102.548C9.95501 102.204 9.8348 101.522 10.1782 101.031L11.7676 98.7612C12.1113 98.2705 12.7936 98.1503 13.2843 98.4938L22.8514 105.193C23.3421 105.536 23.4625 106.219 23.1187 106.709L21.5297 108.979Z" fill="#08375E"/>
<path d="M28.1607 35.4398C28.1607 34.2034 28.3933 33.0222 28.8134 31.9341C28.304 31.2315 27.4793 30.7709 26.55 30.7709H18.438C16.8992 30.7709 15.6406 32.0297 15.6406 33.5681V47.1249C15.9059 47.0408 16.1877 46.9949 16.48 46.9949H20.1163C21.6547 46.9949 22.9137 48.2537 22.9137 49.7923V60.1422C22.9137 61.056 22.4675 61.8688 21.7843 62.3799H26.55C27.1489 62.3799 27.7043 62.1874 28.1607 61.8635V35.4398Z" fill="#CB7C52"/>
<g opacity="0.1">
<path opacity="0.1" d="M16.48 46.9947H20.1163C20.6999 46.9947 21.2431 47.1765 21.6926 47.4855V33.5679C21.6926 32.0295 22.9512 30.7707 24.49 30.7707H18.438C16.8992 30.7707 15.6406 32.0295 15.6406 33.5679V47.1247C15.9061 47.0406 16.1879 46.9947 16.48 46.9947Z" fill="black"/>
</g>
<path d="M47.6447 65.0696V35.4398C47.6447 30.0599 43.2839 25.6984 37.9033 25.6984C32.5236 25.6984 28.1621 30.0597 28.1621 35.4398V65.0698L47.6447 65.0696Z" fill="#EF5A50"/>
<g opacity="0.1">
<path opacity="0.1" d="M40.2817 25.9922C39.5204 25.8012 38.7241 25.6984 37.9033 25.6984C32.5236 25.6984 28.1621 30.0597 28.1621 35.4398V65.0698H32.9187V35.4398C32.9185 30.8803 36.0515 27.0536 40.2817 25.9922Z" fill="black"/>
</g>
<path d="M43.6214 45.9489L43.0898 45.4173C40.6502 47.2569 37.615 48.3478 34.3236 48.3478C32.1205 48.3478 30.0331 47.8567 28.1602 46.9823V52.8624C30.0331 53.7366 32.1205 54.2279 34.3236 54.2279C39.276 54.2279 43.6482 51.7578 46.2853 47.9847C45.274 47.3778 44.3617 46.6891 43.6214 45.9489Z" fill="#AB5436"/>
<path d="M68.6402 43.8298C68.6402 43.5541 68.7474 43.3043 68.9177 43.112H54.6941C52.9723 43.112 50.0878 41.9173 48.8704 40.6996L43.0554 34.8846C41.606 33.4353 39.2557 33.435 37.8059 34.8848C36.3564 36.3344 36.3564 38.6845 37.8059 40.1343L43.6209 45.9491C46.2356 48.564 50.9957 50.5358 54.6941 50.5358H68.64V43.8298H68.6402Z" fill="#E23C38"/>
<path opacity="0.1" d="M68.6439 47.0411H55.9492C52.251 47.0411 47.4907 45.0693 44.876 42.4544L39.061 36.6396C38.5063 36.0849 38.1659 35.3982 38.0354 34.6808C37.9586 34.7462 37.8823 34.8124 37.8098 34.8849C36.3603 36.3344 36.3603 38.6845 37.8098 40.1343L43.6248 45.9491C46.2395 48.564 50.9996 50.5358 54.698 50.5358H68.6439V47.0411Z" fill="black"/>
<path d="M74.4805 42.741C74.6116 42.741 74.7356 42.768 74.8521 42.8109V40.2693C74.8521 38.9052 73.7464 37.7993 72.3822 37.7993C71.018 37.7993 69.9121 38.9052 69.9121 40.2693V42.741H74.4805Z" fill="#CB7C52"/>
<path d="M74.4805 52.2679H69.9121V107.401C69.9121 108.766 71.018 109.871 72.3822 109.871C73.7464 109.871 74.8521 108.766 74.8521 107.401V52.1978C74.7356 52.2409 74.6114 52.2679 74.4805 52.2679Z" fill="#CB7C52"/>
<path d="M75.5694 51.1789C75.5694 51.7778 75.0794 52.2678 74.4805 52.2678H69.7295C69.1306 52.2678 68.6406 51.7778 68.6406 51.1789V43.8299C68.6406 43.2309 69.1306 42.7409 69.7295 42.7409H74.4805C75.0794 42.7409 75.5694 43.2309 75.5694 43.8299V51.1789Z" fill="#FFCFAB"/>
<path d="M22.9145 60.142C22.9145 61.6804 21.6558 62.9392 20.1171 62.9392H16.4808C14.9424 62.9392 13.6836 61.6804 13.6836 60.142V49.7921C13.6836 48.2537 14.9424 46.9947 16.481 46.9947H20.1173C21.6558 46.9947 22.9148 48.2535 22.9148 49.7921L22.9145 60.142Z" fill="#FFBB4A"/>
<g opacity="0.1">
<path opacity="0.1" d="M17.2539 60.142V49.7921C17.2539 48.2537 18.5127 46.9947 20.0513 46.9947H16.481C14.9426 46.9947 13.6836 48.2535 13.6836 49.7921V60.142C13.6838 61.6804 14.9426 62.9392 16.481 62.9392H20.0513C18.5129 62.9392 17.2539 61.6804 17.2539 60.142Z" fill="black"/>
</g>
<path d="M100.119 108.238H76.3997C76.4561 107.968 76.486 107.688 76.486 107.401V89.0731C76.486 88.1711 75.7549 87.4398 74.8526 87.4398C73.9503 87.4398 73.2192 88.1711 73.2192 89.0731V107.401C73.2192 107.863 72.844 108.238 72.3827 108.238C71.9214 108.238 71.546 107.863 71.546 107.401V53.9012H73.2192V82.3219C73.2192 83.2239 73.9503 83.9552 74.8526 83.9552C75.7549 83.9552 76.486 83.2239 76.486 82.3219V53.014C76.9298 52.5294 77.2033 51.8863 77.2033 51.1789V43.8299C77.2033 43.1225 76.9298 42.4794 76.486 41.9948V40.2693C76.486 38.0068 74.6452 36.1659 72.3827 36.1659C70.1199 36.1659 68.2793 38.0068 68.2793 40.2693V41.4787H54.6953C53.4171 41.4787 50.93 40.4486 50.0267 39.5448L49.2773 38.7954V35.4398C49.2773 32.3788 48.0596 29.5984 46.0861 27.5517C49.899 25.1609 52.4414 20.9243 52.4414 16.1018C52.4414 15.8191 52.431 15.539 52.4138 15.2607H60.4585C61.3607 15.2607 62.0918 14.5294 62.0918 13.6273C62.0918 12.7253 61.3607 11.9939 60.4585 11.9939H52.1938V10.7487C52.1938 4.82171 47.3719 0 41.4451 0H36.1678C30.2409 0 25.4192 4.82171 25.4192 10.7484C25.4192 10.7484 25.4192 15.9972 25.4192 16.1015C25.4192 20.4115 27.4485 24.2551 30.6013 26.7304C29.7726 27.4265 29.042 28.2351 28.4389 29.1371H18.4384C15.9953 29.1371 14.0076 31.1246 14.0076 33.5677V33.8389H9.30411C8.40184 33.8389 7.67074 34.5702 7.67074 35.4722C7.67074 36.3743 8.40184 37.1056 9.30411 37.1056H14.0078V39.53H12.2736C11.3713 39.53 10.6402 40.2613 10.6402 41.1633C10.6402 42.0654 11.3713 42.7967 12.2736 42.7967H14.0078V46.117C12.8274 46.9139 12.0497 48.2635 12.0497 49.7919V60.1418C12.0497 62.5849 14.0374 64.5724 16.4805 64.5724H20.1168C20.8967 64.5724 21.6291 64.3681 22.2663 64.0129H26.5277V65.0693C26.5277 65.6206 26.8014 66.1071 27.2198 66.4028V68.7912H22.6666C21.7643 68.7912 21.0332 69.5226 21.0332 70.4246C21.0332 71.3267 21.7643 72.058 22.6666 72.058H27.2198V74.2352H24.3989C23.4966 74.2352 22.7655 74.9665 22.7655 75.8685C22.7655 76.7706 23.4966 77.5019 24.3989 77.5019H25.3558L10.7818 97.4197C10.6526 97.5425 10.532 97.6753 10.4279 97.8241L8.83849 100.094C8.42209 100.689 8.26224 101.411 8.38877 102.128C8.51509 102.845 8.91232 103.469 9.50709 103.885L15.7226 108.238H1.63337C0.731097 108.238 0 108.969 0 109.871C0 110.773 0.731097 111.505 1.63337 111.505H100.119C101.021 111.505 101.752 110.773 101.752 109.871C101.752 108.969 101.021 108.238 100.119 108.238ZM21.2806 60.142C21.2806 60.7838 20.7586 61.3058 20.1166 61.3058H16.4803C15.8385 61.3058 15.3162 60.7838 15.3162 60.142V49.7921C15.3162 49.1503 15.8383 48.6281 16.4803 48.6281H20.1166C20.7584 48.6281 21.2806 49.1503 21.2806 49.7921V60.142ZM26.5277 35.4398V60.7466H24.5012C24.5284 60.5484 24.5474 60.3476 24.5474 60.1422V49.7923C24.5474 47.3492 22.5597 45.3615 20.1166 45.3615H17.2743V42.7971H18.4597C19.362 42.7971 20.0931 42.0658 20.0931 41.1638C20.0931 40.2617 19.362 39.5304 18.4597 39.5304H17.2743V37.1058H18.4597C19.362 37.1058 20.0931 36.3745 20.0931 35.4725C20.0931 34.5704 19.362 33.8391 18.4597 33.8391H17.2743V33.5679C17.2743 32.9261 17.7963 32.4041 18.4384 32.4041H26.5503C26.6817 32.4041 26.8054 32.4307 26.9232 32.471C26.6668 33.4179 26.5277 34.4127 26.5277 35.4398ZM71.546 40.2693C71.546 39.8081 71.9214 39.4326 72.3827 39.4326C72.844 39.4326 73.2192 39.8081 73.2192 40.2693V41.1076H71.546V40.2693ZM70.2748 44.3743H73.9368V50.6345H70.2748V44.3743ZM54.6955 44.7456H67.008V48.9025H54.6955C51.4374 48.9025 47.0809 47.0979 44.7772 44.7942L38.9624 38.9794C38.5698 38.5867 38.3535 38.0649 38.3535 37.5096C38.3535 36.9542 38.5698 36.4324 38.9624 36.0398C39.3549 35.6471 39.8769 35.4309 40.432 35.4309C40.9874 35.4309 41.5092 35.6471 41.9016 36.0396L47.7166 41.8544C49.2294 43.3675 52.5558 44.7456 54.6955 44.7456ZM28.6859 10.7484C28.6859 6.62299 32.0424 3.26674 36.1678 3.26674H41.4451C45.5706 3.26674 48.9268 6.62321 48.9268 10.7484V11.9937H28.6859V10.7484ZM28.6859 16.1018C28.6859 15.8182 28.7018 15.5384 28.7249 15.2607H49.1357C49.1586 15.5384 49.1747 15.8182 49.1747 16.1018C49.1747 20.2148 46.7364 23.766 43.2307 25.3941C41.6401 24.5472 39.8268 24.065 37.9025 24.065C36.4054 24.065 34.9763 24.357 33.6662 24.8849C30.6852 23.0919 28.6859 19.8265 28.6859 16.1018ZM29.7944 35.4398C29.7944 30.9691 33.4316 27.3317 37.9023 27.3317C42.3731 27.3317 46.0103 30.9689 46.0103 35.4398V35.5289L44.2114 33.73C43.2018 32.7203 41.8596 32.1643 40.4318 32.1643C39.004 32.1643 37.6616 32.7203 36.6522 33.73C35.6425 34.7396 35.0865 36.0818 35.0865 37.5096C35.0865 38.9374 35.6425 40.2796 36.6522 41.2892L40.4963 45.1333C38.6316 46.1484 36.5169 46.7144 34.3241 46.7144C32.7591 46.7144 31.2407 46.4343 29.794 45.8916V35.4398H29.7944ZM29.7944 49.3391C31.2577 49.7657 32.7737 49.9811 34.3245 49.9811C37.4064 49.9811 40.3649 49.0889 42.8951 47.5097C43.2122 47.799 43.55 48.0792 43.9061 48.3493C41.4885 51.0038 38.0279 52.5945 34.3245 52.5945C32.76 52.5945 31.2407 52.3203 29.7944 51.7785V49.3391ZM29.7944 55.2118C31.2581 55.6396 32.773 55.8613 34.3245 55.8613C38.8047 55.8613 43.0019 54.0036 46.0105 50.881V54.0101C46.0105 54.9122 46.7416 55.6435 47.6439 55.6435C48.5462 55.6435 49.2773 54.9122 49.2773 54.0101V51.1739C51.1025 51.8057 52.9833 52.169 54.6955 52.169H67.1971C67.4103 52.7123 67.7923 53.1699 68.2795 53.4783V107.401C68.2795 107.688 68.3095 107.968 68.3657 108.238H67.7542V106.011C67.7542 104.51 66.5331 103.289 65.0319 103.289H63.7134L60.1479 80.2756C59.7241 77.5413 58.1251 74.3904 56.1694 72.4345L49.2217 65.4868C49.2568 65.3535 49.2775 65.214 49.2775 65.0696V60.7614C49.2775 59.8593 48.5464 59.128 47.6441 59.128C46.7418 59.128 46.0107 59.8593 46.0107 60.7614V63.4362H29.7946L29.7944 55.2118ZM53.6972 103.289L50.3666 81.7916C50.3631 81.7689 50.3592 81.7463 50.3546 81.7238C50.224 81.0653 49.6658 79.9705 49.2063 79.4713C49.1912 79.4548 49.1753 79.4384 49.1597 79.4225L40.3843 70.6474V66.7029H45.8176L53.8592 74.7443C55.3166 76.2017 56.6039 78.7385 56.9199 80.7758L60.4077 103.289H53.6972ZM12.7915 100.144L21.4666 106.219L20.5018 107.597L11.8265 101.522L12.7915 100.144ZM24.9045 105.612C24.7782 104.895 24.381 104.271 23.7862 103.855L22.86 103.206L27.3964 97.0067C27.9291 96.2787 27.7708 95.2566 27.0427 94.7242C26.3149 94.1915 25.2926 94.3496 24.7599 95.0778L20.1832 101.332L14.7502 97.5279L29.4033 77.5021H32.0694C32.9717 77.5021 33.7027 76.7708 33.7027 75.8687C33.7027 74.9667 32.9717 74.2354 32.0694 74.2354H30.4861V72.0582H32.3168C33.2191 72.0582 33.9501 71.3269 33.9501 70.4248C33.9501 69.5228 33.2191 68.7915 32.3168 68.7915H30.4861V66.7029H37.1171V74.6313C37.1171 76.6931 36.2334 79.3968 35.0158 81.0609L28.5844 89.8506C28.0517 90.5787 28.21 91.6007 28.9381 92.1332C29.6659 92.6659 30.6882 92.5076 31.2207 91.7795L37.652 82.9898C39.1665 80.9202 40.2186 77.8841 40.3647 75.2481L46.7941 81.6774C46.8984 81.8244 47.0903 82.1999 47.1508 82.3744L50.7116 105.36C50.66 105.569 50.6295 105.786 50.6295 106.011V108.238H24.0406L24.4544 107.647C24.8712 107.052 25.0309 106.33 24.9045 105.612ZM53.8969 108.238V106.556H64.4874V108.238H53.8969Z" fill="black"/>
</g>
</svg>
