<svg width="210" height="294" viewBox="0 0 210 294" fill="none" xmlns="http://www.w3.org/2000/svg">
<g opacity="0.06">
<path fill-rule="evenodd" clip-rule="evenodd" d="M180.735 118.888C181.634 119.811 182.534 120.734 183.433 121.621C221.891 164.155 218.18 229.949 175 267.831C131.819 305.713 65.0243 302.058 26.5667 259.524C-11.8909 216.99 -8.18012 151.527 35.0004 113.313V112.316V69.1177C35.0004 30.9036 66.3737 0 105.169 0C143.964 0 175.337 30.9036 175.337 69.1177V113.645C177.136 115.196 178.935 117.042 180.735 118.888ZM53.5562 69.45V100.686C85.6042 82.7418 124.736 82.7418 156.785 100.686V69.45C156.785 41.2048 133.845 18.6086 105.17 18.6086C76.4958 18.6086 53.5562 41.5371 53.5562 69.45Z" fill="#979797"/>
</g>
</svg>
