<svg width="17" height="24" viewBox="0 0 17 24" fill="none" xmlns="http://www.w3.org/2000/svg">
<path fill-rule="evenodd" clip-rule="evenodd" d="M14.6309 9.70518C14.7037 9.78053 14.7765 9.85588 14.8494 9.92821C17.9626 13.4004 17.6622 18.7714 14.1666 21.8638C10.6711 24.9562 5.26387 24.6578 2.15064 21.1856C-0.9626 17.7134 -0.6622 12.3696 2.83336 9.25005V9.16867V5.64226C2.83336 2.52274 5.37311 0 8.51365 0C11.6542 0 14.1939 2.52274 14.1939 5.64226V9.27718C14.3396 9.40377 14.4852 9.55448 14.6309 9.70518ZM4.33536 5.66939V8.21926C6.92973 6.75444 10.0976 6.75444 12.6919 8.21926V5.66939C12.6919 3.36366 10.8349 1.51907 8.51365 1.51907C6.19238 1.51907 4.33536 3.39078 4.33536 5.66939Z" fill="#02475B" fill-opacity="0.65"/>
</svg>
