<svg width="47" height="56" viewBox="0 0 47 56" fill="none" xmlns="http://www.w3.org/2000/svg">
<path d="M11.9271 24.0002L0 47.1949L10.8309 46.162L16.073 56.0004L28.0001 32.8057L11.9271 24.0002Z" fill="#00B38E"/>
<path d="M34.8183 24.0273L46.9094 47.1818L35.9296 46.1508L30.6155 55.9721L18.5244 32.8176L34.8183 24.0273Z" fill="#00B38E"/>
<ellipse cx="24.0001" cy="20" rx="20.0001" ry="20" fill="#BDBDBD"/>
<path d="M24 35C15.7285 35 9 28.2693 9 19.9991C9 11.7289 15.7285 5 24 5C32.2715 5 39 11.7307 39 20.0009C39 28.2711 32.2715 35 24 35Z" fill="#204969" fill-opacity="0.75"/>
<path d="M34.0679 16.3088H27.0539L24.885 9.64218C24.6063 8.78594 23.3928 8.78594 23.1142 9.64218L20.947 16.3088H13.933C13.0311 16.3088 12.6555 17.4625 13.386 17.9919L19.0602 22.1122L16.893 28.7788C16.6143 29.635 17.5958 30.3477 18.3262 29.8184L24.0004 25.6981L29.6746 29.8184C30.4051 30.3477 31.3866 29.635 31.1079 28.7788L28.9407 22.1122L34.6149 17.9919C35.3436 17.4625 34.9697 16.3088 34.0679 16.3088Z" fill="white"/>
</svg>
