<svg width="40" height="56" viewBox="0 0 40 56" fill="none" xmlns="http://www.w3.org/2000/svg">
<path fill-rule="evenodd" clip-rule="evenodd" d="M34.4256 22.6454C34.597 22.8212 34.7683 22.997 34.9397 23.1658C42.2649 31.2675 41.5581 43.7999 33.3333 51.0154C25.1084 58.231 12.3856 57.5348 5.06032 49.4331C-2.26494 41.3314 -1.55812 28.8623 6.66674 21.5835V21.3936V13.1653C6.66674 5.8864 12.6426 0 20.0321 0C27.4216 0 33.3975 5.8864 33.3975 13.1653V21.6468C33.7402 21.9421 34.0829 22.2938 34.4256 22.6454ZM10.2007 13.2286V19.1783C16.3051 15.7604 23.7589 15.7604 29.8633 19.1783V13.2286C29.8633 7.84853 25.4938 3.5445 20.032 3.5445C14.5702 3.5445 10.2007 7.91182 10.2007 13.2286Z" fill="#8A7753"/>
</svg>
