<svg width="32" height="39" viewBox="0 0 32 39" fill="none" xmlns="http://www.w3.org/2000/svg">
<path d="M8.13614 16.3718L0 32.1941L7.38833 31.4896L10.9643 38.2008L19.1004 22.3785L8.13614 16.3718Z" fill="#00B38E"/>
<path d="M23.7519 16.3904L31.9999 32.1853L24.51 31.482L20.8849 38.1816L12.637 22.3867L23.7519 16.3904Z" fill="#00B38E"/>
<ellipse cx="16.3717" cy="13.9842" rx="13.6432" ry="13.9842" fill="#D4B55E"/>
<path d="M16.0307 23.8755C10.5763 23.8755 6.1394 19.4371 6.1394 13.9836C6.1394 8.53008 10.5763 4.09293 16.0307 4.09293C21.4851 4.09293 25.922 8.53127 25.922 13.9848C25.922 19.4383 21.4851 23.8755 16.0307 23.8755Z" fill="#FCEDB0"/>
<path d="M23.2395 11.1251H18.4549L16.9753 6.57747C16.7852 5.99338 15.9575 5.99338 15.7673 6.57747L14.289 11.1251H9.50436C8.88916 11.1251 8.63293 11.9122 9.13122 12.2732L13.0019 15.084L11.5235 19.6316C11.3334 20.2157 12.0029 20.7018 12.5012 20.3408L16.3719 17.5301L20.2426 20.3408C20.7409 20.7018 21.4104 20.2157 21.2203 19.6316L19.7419 15.084L23.6126 12.2732C24.1097 11.9122 23.8547 11.1251 23.2395 11.1251Z" fill="white"/>
</svg>
