<svg width="47" height="56" viewBox="0 0 47 56" fill="none" xmlns="http://www.w3.org/2000/svg">
<path d="M11.9271 24L0 47.1945L10.8308 46.1617L16.0729 56L28 32.8055L11.9271 24Z" fill="#00B38E"/>
<path d="M34.8192 24.0273L46.9102 47.1816L35.9305 46.1506L30.6164 55.9719L18.5254 32.8175L34.8192 24.0273Z" fill="#00B38E"/>
<ellipse cx="24" cy="20" rx="20" ry="20" fill="#D4B55E"/>
<path d="M24 35C15.7285 35 9 28.2693 9 19.9991C9 11.7289 15.7285 5 24 5C32.2715 5 39 11.7307 39 20.0009C39 28.2711 32.2715 35 24 35Z" fill="#FCEDB0"/>
<path d="M34.0678 16.3087H27.0538L24.8849 9.64218C24.6062 8.78594 23.3928 8.78594 23.1141 9.64218L20.9469 16.3087H13.933C13.0311 16.3087 12.6555 17.4625 13.386 17.9918L19.0602 22.1121L16.893 28.7787C16.6143 29.635 17.5957 30.3476 18.3262 29.8183L24.0004 25.698L29.6745 29.8183C30.405 30.3476 31.3865 29.635 31.1078 28.7787L28.9406 22.1121L34.6148 17.9918C35.3435 17.4625 34.9696 16.3087 34.0678 16.3087Z" fill="white"/>
</svg>
