<svg width="40" height="40" viewBox="0 0 40 40" fill="none" xmlns="http://www.w3.org/2000/svg">
<g clip-path="url(#clip0)">
<path d="M39.9998 18.0767C39.9998 18.5315 39.6314 18.9011 39.1754 18.9011H32.3449L26.8462 31.4681C26.7158 31.7705 26.4169 31.9624 26.0915 31.9624H5.47654C5.02167 31.9624 4.65212 31.5934 4.65212 31.1379C4.65212 30.6854 5.02167 30.3135 5.47654 30.3135H25.5516L31.0498 17.7465C31.1801 17.4456 31.4782 17.2522 31.805 17.2522H39.1754C39.6314 17.2522 39.9998 17.6218 39.9998 18.0767ZM11.8751 33.1098C10.3501 33.1098 9.11847 34.3432 9.11847 35.8629C9.11847 37.3861 10.3501 38.6195 11.8751 38.6195C13.3956 38.6195 14.6287 37.3861 14.6287 35.8629C14.6287 34.3432 13.3956 33.1098 11.8751 33.1098ZM21.6719 33.1098C20.1493 33.1098 18.9147 34.3432 18.9147 35.8629C18.9147 37.3861 20.1493 38.6195 21.6719 38.6195C23.1945 38.6195 24.4264 37.3861 24.4264 35.8629C24.4264 34.3432 23.1945 33.1098 21.6719 33.1098ZM4.98548 27.4539L0.132517 9.45438C-0.418273 7.40627 0.79835 5.29314 2.84587 4.74264L10.8694 2.5795C11.7471 2.34059 12.6471 2.46328 13.4365 2.82194C14.2495 1.81245 15.532 1.25695 16.8625 1.40348L25.1199 2.33411C26.1409 2.44915 27.0586 2.95552 27.6977 3.75964C28.3388 4.56052 28.6274 5.56854 28.5109 6.58921L26.4225 25.1113C26.3068 26.129 25.8002 27.0467 24.9978 27.6858C24.312 28.2348 23.477 28.5252 22.6111 28.5252C22.4651 28.5252 22.3174 28.517 22.1691 28.5005L18.0447 27.8809C17.9373 27.9176 17.8337 27.9706 17.7249 27.9994L9.69898 30.162C9.3715 30.2506 9.03314 30.2959 8.69684 30.2959C6.96032 30.2988 5.43594 29.1298 4.98548 27.4539ZM14.7688 3.80406C15.1419 4.22981 15.4331 4.72587 15.5841 5.29167L15.9095 6.50182C16.2352 5.9375 16.8719 5.58825 17.5627 5.66445C18.491 5.76979 19.1607 6.60862 19.0527 7.53838C18.9488 8.46813 18.1115 9.13808 17.1823 9.02863C16.9446 9.00274 16.7289 8.92683 16.5327 8.81561L17.1332 11.0497C18.0067 10.9941 18.7997 11.5969 18.9238 12.4793C19.0289 13.2231 18.6252 13.9016 17.9897 14.2188L20.0854 21.9943C20.3444 21.2717 21.0464 20.7785 21.8434 20.8674C22.77 20.9707 23.4405 21.811 23.3319 22.7416C23.2289 23.6687 22.3928 24.3393 21.4612 24.2322C21.084 24.1904 20.7701 24.0021 20.5115 23.7652C20.6283 24.6055 20.4815 25.4558 20.0548 26.2044C19.9972 26.3062 19.9216 26.39 19.8556 26.4848L22.3828 26.8628C22.9403 26.9223 23.5108 26.7613 23.9683 26.3941C24.4256 26.0287 24.7154 25.5053 24.7816 24.9212L26.8712 6.40208C26.9374 5.81863 26.7738 5.2443 26.4098 4.78825C26.0406 4.32867 25.5198 4.03797 24.9328 3.97354L16.6742 3.04231C15.9413 2.95875 15.2351 3.26357 14.7688 3.80406ZM1.72134 9.03069L6.57636 27.0276C6.88618 28.1695 8.11987 28.8853 9.27088 28.5746L17.2959 26.4124C17.8632 26.2576 18.3383 25.8957 18.6299 25.3888C18.9238 24.8768 19.0009 24.2875 18.847 23.7158L13.9967 5.71977C13.8802 5.27784 13.6195 4.91535 13.29 4.63113C13.2179 4.59024 13.1458 4.54257 13.0923 4.48461C12.7398 4.24393 12.3244 4.09417 11.8792 4.09417C11.6856 4.09417 11.4926 4.12242 11.3002 4.17126L3.2772 6.3347C2.1053 6.64629 1.40681 7.8582 1.72134 9.03069ZM5.94348 11.7226C6.84822 11.4819 7.38106 10.5507 7.14068 9.64886C6.89795 8.74176 5.9676 8.20951 5.06433 8.45195C4.15959 8.69263 3.62851 9.62385 3.86919 10.5254C4.1128 11.4289 5.03962 11.965 5.94348 11.7226ZM11.6985 10.1696C12.6009 9.92896 13.1347 8.99597 12.8943 8.09211C12.6498 7.1906 11.7203 6.65688 10.817 6.89667C9.91317 7.1397 9.37797 8.07269 9.62189 8.97449C9.8658 9.876 10.7953 10.4153 11.6985 10.1696ZM7.21483 16.4296C8.11781 16.1854 8.65271 15.2559 8.4085 14.3541C8.16782 13.4503 7.23719 12.9148 6.33244 13.1572C5.43094 13.4014 4.89809 14.3294 5.13848 15.2341C5.38239 16.138 6.31332 16.6703 7.21483 16.4296ZM12.0866 11.6078C11.1825 11.85 10.6487 12.7812 10.8894 13.6848C11.1319 14.5863 12.0619 15.1209 12.9664 14.8817C13.8702 14.6378 14.4042 13.7062 14.1621 12.8024C13.9196 11.9006 12.9917 11.3683 12.0866 11.6078ZM8.48441 21.1348C9.38886 20.8942 9.922 19.9629 9.67956 19.0614C9.43653 18.1555 8.50707 17.6253 7.60526 17.866C6.69846 18.1099 6.16591 19.0385 6.40806 19.9391C6.6505 20.8483 7.57849 21.3794 8.48441 21.1348ZM13.3544 16.3178C12.4518 16.5599 11.9166 17.4897 12.1593 18.3944C12.4011 19.2968 13.3347 19.8308 14.2359 19.5875C15.1392 19.346 15.6738 18.4162 15.4299 17.5129C15.1872 16.6058 14.2574 16.0739 13.3544 16.3178ZM8.87132 22.5757C7.96805 22.8172 7.4355 23.7476 7.67735 24.6526C7.91832 25.5541 8.84955 26.0887 9.7537 25.8478C10.657 25.6047 11.1889 24.6723 10.9468 23.7705C10.7043 22.8684 9.77283 22.3294 8.87132 22.5757ZM14.6252 21.0222C13.7231 21.2652 13.1876 22.1976 13.4286 23.0991C13.671 24.0006 14.6022 24.5373 15.507 24.2969C16.4082 24.0524 16.9431 23.1223 16.701 22.22C16.457 21.3158 15.5291 20.7838 14.6252 21.0222ZM23.1045 9.70123C24.0351 9.80509 24.8704 9.13779 24.9787 8.2098C25.0817 7.28328 24.4153 6.4418 23.4879 6.33647C22.5608 6.23231 21.7193 6.90226 21.6142 7.82731C21.5065 8.7603 22.1762 9.5959 23.1045 9.70123ZM22.5575 14.5451C23.4876 14.6475 24.3246 13.9816 24.4309 13.0551C24.5359 12.1286 23.8689 11.2856 22.9409 11.1803C22.0144 11.0764 21.1735 11.7446 21.0661 12.6744C20.9611 13.6038 21.6281 14.4412 22.5575 14.5451ZM22.0129 19.3904C22.9409 19.4942 23.7777 18.8269 23.8854 17.9019C23.9883 16.9718 23.3219 16.1351 22.3936 16.0286C21.4657 15.9229 20.6245 16.5911 20.5221 17.5179C20.4117 18.4494 21.0835 19.2848 22.0129 19.3904Z" fill="white"/>
</g>
<defs>
<clipPath id="clip0">
<rect width="40" height="40" fill="white"/>
</clipPath>
</defs>
</svg>
