<svg width="24" height="24" viewBox="0 0 24 24" fill="none" xmlns="http://www.w3.org/2000/svg">
<g clip-path="url(#clip0)">
<path d="M23.9997 10.846C23.9997 11.1189 23.7787 11.3407 23.5051 11.3407H19.4068L16.1075 18.8808C16.0293 19.0623 15.8499 19.1774 15.6547 19.1774H3.28574C3.01282 19.1774 2.79109 18.956 2.79109 18.6828C2.79109 18.4113 3.01282 18.1881 3.28574 18.1881H15.3308L18.6297 10.6479C18.7079 10.4673 18.8867 10.3514 19.0828 10.3514H23.5051C23.7787 10.3514 23.9997 10.5731 23.9997 10.846ZM7.12486 19.8659C6.20988 19.8659 5.4709 20.6059 5.4709 21.5178C5.4709 22.4317 6.20988 23.1717 7.12486 23.1717C8.03719 23.1717 8.77705 22.4317 8.77705 21.5178C8.77705 20.6059 8.03719 19.8659 7.12486 19.8659ZM13.003 19.8659C12.0894 19.8659 11.3486 20.6059 11.3486 21.5178C11.3486 22.4317 12.0894 23.1717 13.003 23.1717C13.9165 23.1717 14.6557 22.4317 14.6557 21.5178C14.6557 20.6059 13.9165 19.8659 13.003 19.8659ZM2.9911 16.4724L0.0793273 5.67263C-0.251147 4.44377 0.478827 3.17589 1.70734 2.84559L6.52146 1.5477C7.04807 1.40436 7.58809 1.47797 8.06173 1.69317C8.5495 1.08748 9.31902 0.754177 10.1173 0.842092L15.0718 1.40047C15.6844 1.4695 16.235 1.77332 16.6184 2.25579C17.0031 2.73632 17.1763 3.34113 17.1064 3.95353L15.8533 15.0668C15.7839 15.6774 15.4799 16.228 14.9985 16.6115C14.587 16.9409 14.086 17.1151 13.5665 17.1151C13.4789 17.1151 13.3903 17.1102 13.3013 17.1003L10.8266 16.7285C10.7622 16.7506 10.7001 16.7824 10.6347 16.7997L5.8192 18.0972C5.62272 18.1503 5.4197 18.1775 5.21792 18.1775C4.17601 18.1793 3.26138 17.4779 2.9911 16.4724ZM8.86108 2.28244C9.08493 2.53789 9.2597 2.83553 9.35026 3.17501L9.54551 3.9011C9.74094 3.5625 10.123 3.35296 10.5375 3.39868C11.0944 3.46188 11.4962 3.96518 11.4314 4.52303C11.3691 5.08088 10.8667 5.48286 10.3092 5.41719C10.1666 5.40165 10.0372 5.3561 9.91942 5.28937L10.2797 6.62981C10.8039 6.59644 11.2796 6.95816 11.3541 7.48759C11.4171 7.93388 11.1749 8.34097 10.7936 8.53127L12.0511 13.1966C12.2064 12.763 12.6276 12.4671 13.1059 12.5204C13.6618 12.5824 14.0641 13.0866 13.999 13.645C13.9372 14.2012 13.4355 14.6036 12.8766 14.5393C12.6502 14.5142 12.4619 14.4013 12.3067 14.2591C12.3768 14.7633 12.2887 15.2735 12.0327 15.7226C11.9981 15.7837 11.9528 15.834 11.9132 15.8909L13.4295 16.1177C13.764 16.1534 14.1063 16.0568 14.3808 15.8365C14.6552 15.6172 14.829 15.3032 14.8688 14.9527L16.1225 3.84125C16.1622 3.49118 16.0641 3.14659 15.8457 2.87296C15.6242 2.59721 15.3117 2.42279 14.9595 2.38413L10.0043 1.82539C9.56458 1.77526 9.14089 1.95815 8.86108 2.28244ZM1.03262 5.41842L3.94563 16.2166C4.13152 16.9017 4.87174 17.3312 5.56234 17.1448L10.3773 15.8474C10.7177 15.7546 11.0028 15.5374 11.1778 15.2333C11.3541 14.9261 11.4004 14.5725 11.308 14.2295L8.39786 3.43187C8.32795 3.16671 8.17154 2.94922 7.97382 2.77869C7.93057 2.75415 7.88732 2.72555 7.85519 2.69077C7.6437 2.54637 7.39443 2.45651 7.12733 2.45651C7.01117 2.45651 6.89536 2.47346 6.77991 2.50276L1.96614 3.80083C1.263 3.98778 0.843902 4.71493 1.03262 5.41842ZM3.5659 7.03354C4.10875 6.88914 4.42846 6.3304 4.28423 5.78932C4.13858 5.24506 3.58038 4.92571 3.03841 5.07118C2.49557 5.21558 2.17692 5.77432 2.32133 6.31522C2.4675 6.85736 3.02359 7.17901 3.5659 7.03354ZM7.01894 6.10179C7.56037 5.95738 7.88061 5.39759 7.73638 4.85527C7.58968 4.31437 7.032 3.99413 6.49004 4.13801C5.94772 4.28383 5.6266 4.84362 5.77295 5.3847C5.9193 5.92561 6.47697 6.2492 7.01894 6.10179ZM4.32871 9.85776C4.8705 9.71123 5.19144 9.15356 5.04492 8.61248C4.90051 8.07016 4.34213 7.74887 3.79928 7.89433C3.25838 8.04086 2.93867 8.59765 3.0829 9.1405C3.22925 9.68281 3.78781 10.0022 4.32871 9.85776ZM7.25179 6.96469C6.70929 7.10998 6.38906 7.66872 6.53346 8.21086C6.67893 8.75176 7.23696 9.07253 7.77963 8.92901C8.32195 8.78266 8.64236 8.22375 8.49707 7.68143C8.3516 7.14035 7.79481 6.821 7.25179 6.96469ZM5.09046 12.6809C5.63313 12.5365 5.95302 11.9778 5.80755 11.4369C5.66173 10.8933 5.10406 10.5752 4.56298 10.7196C4.01889 10.866 3.69936 11.4231 3.84465 11.9635C3.99012 12.509 4.54691 12.8276 5.09046 12.6809ZM8.01248 9.79068C7.47087 9.93596 7.14975 10.4938 7.29539 11.0367C7.4405 11.5781 8.00065 11.8985 8.54138 11.7525C9.08334 11.6076 9.40411 11.0497 9.25776 10.5078C9.11212 9.9635 8.55427 9.64433 8.01248 9.79068ZM5.32261 13.5454C4.78064 13.6903 4.46111 14.2486 4.60623 14.7916C4.75081 15.3325 5.30954 15.6532 5.85204 15.5087C6.394 15.3628 6.71318 14.8034 6.56789 14.2623C6.42242 13.7211 5.86351 13.3976 5.32261 13.5454ZM8.77494 12.6133C8.23368 12.7591 7.91238 13.3186 8.05697 13.8595C8.20243 14.4004 8.76117 14.7224 9.30401 14.5781C9.84474 14.4314 10.1657 13.8734 10.0204 13.332C9.87405 12.7895 9.31725 12.4703 8.77494 12.6133ZM13.8625 5.82074C14.4209 5.88306 14.9221 5.48268 14.987 4.92589C15.0488 4.36998 14.649 3.86508 14.0925 3.80189C13.5363 3.73939 13.0314 4.14136 12.9684 4.69639C12.9037 5.25619 13.3055 5.75755 13.8625 5.82074ZM13.5343 8.72705C14.0924 8.78848 14.5946 8.38898 14.6583 7.83307C14.7214 7.27716 14.3212 6.77139 13.7644 6.70819C13.2084 6.64587 12.7039 7.04678 12.6395 7.60464C12.5765 8.16231 12.9767 8.66473 13.5343 8.72705ZM13.2076 11.6342C13.7644 11.6966 14.2664 11.2962 14.331 10.7411C14.3928 10.1831 13.993 9.68105 13.436 9.61714C12.8792 9.55376 12.3745 9.95468 12.3131 10.5108C12.2469 11.0697 12.6499 11.5709 13.2076 11.6342Z" fill="#07AE8B"/>
</g>
<defs>
<clipPath id="clip0">
<rect width="24" height="24" fill="white"/>
</clipPath>
</defs>
</svg>
