<svg width="72" height="72" viewBox="0 0 72 72" fill="none" xmlns="http://www.w3.org/2000/svg">
<g opacity="0.2">
<path d="M36 72C55.8823 72 72 55.8823 72 36C72 16.1177 55.8823 0 36 0C16.1177 0 0 16.1177 0 36C0 55.8823 16.1177 72 36 72Z" fill="#D7DABA"/>
<path d="M21.9366 14.2487C20.5956 14.2487 19.5088 15.3356 19.5088 16.6766V55.5313C19.5088 56.8723 20.5956 57.9592 21.9366 57.9592H49.863C51.204 57.9592 52.2908 56.8723 52.2908 55.5313V25.4944L40.5853 14.2487H21.9366Z" fill="#CB7429"/>
<path d="M52.2929 25.4944H43.0157C41.6747 25.4944 40.5879 24.4076 40.5879 23.0665V14.2488L52.2929 25.4944Z" fill="#B56027"/>
<path d="M40.1037 41.2877C40.1037 42.8356 38.8492 44.0902 37.3025 44.0902H16.8462C15.2983 44.0902 14.0449 42.8356 14.0449 41.2877V32.7269C14.0449 31.1789 15.2984 29.925 16.8462 29.925H37.3025C38.8492 29.925 40.1037 31.1789 40.1037 32.7269V41.2877Z" fill="#B56027"/>
<path d="M21.9173 34.3542C22.5079 34.3542 23.0155 34.4743 23.4385 34.7135C23.8625 34.9528 24.1832 35.2939 24.4003 35.7357C24.6174 36.1773 24.7266 36.6958 24.7266 37.2921C24.7266 37.7327 24.6675 38.1328 24.5481 38.4927C24.4287 38.8526 24.2502 39.1653 24.0121 39.429C23.7739 39.6927 23.4805 39.8951 23.1339 40.035C22.7872 40.1748 22.3887 40.2448 21.9407 40.2448C21.4949 40.2448 21.0964 40.1733 20.7441 40.0294C20.3918 39.8855 20.0979 39.6832 19.8619 39.4211C19.626 39.159 19.4481 38.8447 19.3276 38.4769C19.2076 38.1091 19.1475 37.7112 19.1475 37.2837C19.1475 36.8461 19.2101 36.4441 19.3357 36.0792C19.4619 35.7136 19.6438 35.4033 19.882 35.1464C20.1202 34.8895 20.4107 34.6939 20.7523 34.5575C21.0937 34.4208 21.4819 34.3542 21.9173 34.3542ZM23.5568 37.284C23.5568 36.8669 23.4897 36.5053 23.3551 36.1999C23.2205 35.8946 23.0281 35.6633 22.7774 35.5064C22.5278 35.3495 22.2409 35.2711 21.9168 35.2711C21.6867 35.2711 21.4734 35.3142 21.2774 35.4013C21.0819 35.4882 20.9135 35.6144 20.7721 35.7805C20.6311 35.9465 20.5202 36.158 20.4379 36.416C20.3566 36.6741 20.3157 36.9633 20.3157 37.2845C20.3157 37.6085 20.3566 37.9007 20.4379 38.1627C20.5204 38.4242 20.6351 38.6414 20.7841 38.8136C20.933 38.9858 21.1042 39.1148 21.2968 39.2001C21.4895 39.2853 21.7015 39.3286 21.9319 39.3286C22.2275 39.3286 22.4987 39.2547 22.7458 39.1069C22.9936 38.9591 23.1904 38.7312 23.3365 38.4231C23.4834 38.1146 23.5568 37.7349 23.5568 37.284Z" fill="white"/>
<path d="M29.1104 35.4037H27.8513V39.542C27.8513 39.7803 27.7978 39.9571 27.6921 40.0724C27.5863 40.1879 27.4483 40.2453 27.2799 40.2453C27.1089 40.2453 26.9696 40.1868 26.8628 40.0703C26.7553 39.9537 26.7013 39.7775 26.7013 39.5416V35.4033H25.4421C25.2449 35.4033 25.0988 35.3601 25.0032 35.2731C24.9077 35.1862 24.8594 35.0718 24.8594 34.9291C24.8594 34.7813 24.9094 34.6648 25.0089 34.5795C25.109 34.4943 25.2533 34.451 25.4426 34.451H29.1109C29.3103 34.451 29.4588 34.4954 29.5554 34.5829C29.6532 34.671 29.7015 34.7865 29.7015 34.9285C29.7015 35.0706 29.652 35.1854 29.5537 35.2725C29.4554 35.3594 29.3076 35.4037 29.1104 35.4037Z" fill="white"/>
<path d="M32.5955 37.9292H31.5388V39.5419C31.5388 39.7726 31.4842 39.9472 31.3756 40.0666C31.267 40.186 31.1295 40.2451 30.9634 40.2451C30.7895 40.2451 30.6497 40.186 30.544 40.0683C30.4382 39.9505 30.3848 39.7772 30.3848 39.5493V35.1587C30.3848 34.9045 30.4433 34.7233 30.5598 34.6146C30.6763 34.506 30.8616 34.4515 31.1157 34.4515H32.596C33.0343 34.4515 33.3702 34.4851 33.6061 34.5527C33.8391 34.6175 34.0409 34.7249 34.2104 34.875C34.3804 35.0251 34.5088 35.2093 34.5975 35.427C34.6862 35.6447 34.7294 35.8891 34.7294 36.1613C34.7294 36.7417 34.5509 37.1812 34.1934 37.4808C33.8359 37.7803 33.3027 37.9292 32.5955 37.9292ZM32.3154 35.3179H31.5383V37.059H32.3154C32.5876 37.059 32.815 37.0306 32.9969 36.9738C33.18 36.917 33.3187 36.8237 33.4147 36.6941C33.5107 36.5645 33.5585 36.3951 33.5585 36.1847C33.5585 35.9335 33.4847 35.7288 33.3369 35.5708C33.1714 35.4019 32.8314 35.3179 32.3154 35.3179Z" fill="white"/>
</g>
</svg>
