<svg width="286" height="103" viewBox="0 0 286 103" fill="none" xmlns="http://www.w3.org/2000/svg">
<path d="M51.4711 3.63269H234.318C260.798 3.63269 282.257 24.9872 282.257 51.3199C282.257 77.6604 260.79 99.007 234.318 99.007H51.4711C24.9915 99.007 3.53223 77.6526 3.53223 51.3199C3.52431 24.9793 24.9915 3.63269 51.4711 3.63269Z" fill="url(#paint0_linear)"/>
<path d="M53.546 64.1357H41.589C34.9849 64.1357 29.624 58.8109 29.624 52.2336C29.624 45.6643 34.977 40.3315 41.589 40.3315H53.5539V64.1357H53.546Z" fill="#606060"/>
<path d="M89.4407 40.3315H77.4758H53.5459V64.1357V76.0378C53.5459 82.6072 58.8988 87.9399 65.5108 87.9399C72.1149 87.9399 77.4758 82.6151 77.4758 76.0378V64.1357H89.4407C96.0448 64.1357 101.406 58.8109 101.406 52.2336C101.406 45.6643 96.0448 40.3315 89.4407 40.3315Z" fill="#606060"/>
<path d="M77.4758 28.4293C77.4758 34.9987 72.1228 40.3314 65.5108 40.3314C58.9068 40.3314 53.5459 35.0066 53.5459 28.4293C53.5459 21.8599 58.8988 16.5272 65.5108 16.5272C72.1228 16.5351 77.4758 21.8599 77.4758 28.4293Z" fill="#606060"/>
<path d="M52.5637 63.4818H40.5987C33.9946 63.4818 28.6338 58.157 28.6338 51.5797C28.6338 45.0103 33.9867 39.6776 40.5987 39.6776H52.5637V63.4818Z" fill="white"/>
<path d="M88.4513 39.6776H76.4864H52.5645V63.4818V75.3839C52.5645 81.9533 57.9174 87.286 64.5294 87.286C71.1335 87.286 76.4943 81.9612 76.4943 75.3839V63.4818H88.4592C95.0633 63.4818 100.424 58.157 100.424 51.5797C100.416 45.0024 95.0554 39.6776 88.4513 39.6776Z" fill="url(#paint1_linear)"/>
<path d="M76.4855 27.7756C76.4855 34.345 71.1326 39.6777 64.5206 39.6777C57.9165 39.6777 52.5557 34.3529 52.5557 27.7756C52.5557 21.2062 57.9086 15.8735 64.5206 15.8735C71.1326 15.8735 76.4855 21.2062 76.4855 27.7756Z" fill="white"/>
<path d="M130.142 49.3033V39.6776H122.318V49.2954H117.805V26.3104H122.318V35.7076H130.142V26.3104H134.655V49.2954H130.142V49.3033Z" fill="#606060"/>
<path d="M140.04 49.3033V26.3104H155.259V30.3119H144.546V35.6998H153.668V39.7013H144.546V45.286H155.259V49.2875H140.04V49.3033Z" fill="#606060"/>
<path d="M172.815 49.3038L171.453 45.2393H163.242L161.848 49.3038H157.145L165.554 26.3188H169.094L177.535 49.3038H172.815ZM167.431 33.093L164.509 41.4584H170.25L167.431 33.093Z" fill="#606060"/>
<path d="M180.377 49.3033V26.3104H184.891V45.2939H195.375V49.2954H180.377V49.3033Z" fill="#606060"/>
<path d="M205.273 30.3203V49.3038H200.76V30.3203H194.726V26.3188H211.307V30.3203H205.273Z" fill="#606060"/>
<path d="M227.302 49.3033V39.6776H219.478V49.2954H214.965V26.3104H219.478V35.7076H227.302V26.3104H231.816V49.2954H227.302V49.3033Z" fill="#606060"/>
<path d="M246.03 39.8751V49.3038H241.548V39.8751L234.604 26.3188H239.505L243.821 35.5822L248.073 26.3188H252.975L246.03 39.8751Z" fill="#606060"/>
<path d="M117.805 80.0707V57.0857H122.318V76.0692H132.802V80.0707H117.805Z" fill="#606060"/>
<path d="M136.469 80.0707V57.0857H140.982V80.0707H136.469Z" fill="#606060"/>
<path d="M150.881 61.0874V66.7352H160.003V70.7367H150.881V80.063H146.367V57.078H161.587V61.0795H150.881V61.0874Z" fill="#606060"/>
<path d="M165.515 80.0707V57.0857H180.734V61.0872H170.02V66.475H179.142V70.4765H170.02V76.0613H180.734V80.0628H165.515V80.0707Z" fill="#606060"/>
<path d="M129.033 48.6497V39.0319H121.21V48.6497H116.696V25.6647H121.21V35.0619H129.033V25.6647H133.547V48.6497H129.033Z" fill="white"/>
<path d="M138.932 48.6497V25.6647H154.151V29.6662H143.437V35.054H152.559V39.0555H143.437V44.6403H154.151V48.6418H138.932V48.6497Z" fill="white"/>
<path d="M171.715 48.6497L170.353 44.5852H162.141L160.748 48.6497H156.044L164.453 25.6647H167.993L176.434 48.6497H171.715ZM166.322 32.4467L163.4 40.8121H169.141L166.322 32.4467Z" fill="white"/>
<path d="M179.276 48.6497V25.6647H183.79V44.6482H194.274V48.6497H179.276Z" fill="white"/>
<path d="M204.164 29.6662V48.6497H199.65V29.6662H193.616V25.6647H210.198V29.6662H204.164Z" fill="white"/>
<path d="M226.202 48.6497V39.0319H218.379V48.6497H213.865V25.6647H218.379V35.0619H226.202V25.6647H230.716V48.6497H226.202Z" fill="white"/>
<path d="M244.929 39.2209V48.6497H240.448V39.2209L233.503 25.6647H238.405L242.72 34.928L246.972 25.6647H251.874L244.929 39.2209Z" fill="white"/>
<path d="M116.705 79.425V56.4321H121.219V75.4156H131.703V79.4171H116.705V79.425Z" fill="white"/>
<path d="M135.36 79.425V56.4321H139.874V79.4171H135.36V79.425Z" fill="white"/>
<path d="M149.771 60.4415V66.0893H158.894V70.0908H149.771V79.4171H145.258V56.4321H160.477V60.4336H149.771V60.4415Z" fill="white"/>
<path d="M164.413 79.425V56.4321H179.633V60.4336H168.919V65.8215H178.041V69.823H168.919V75.4156H179.633V79.4171H164.413V79.425Z" fill="white"/>
<path d="M51.4711 3.63269H234.318C260.798 3.63269 282.257 24.9872 282.257 51.3199C282.257 77.6604 260.79 99.007 234.318 99.007H51.4711C24.9915 99.007 3.53223 77.6526 3.53223 51.3199C3.52431 24.9793 24.9915 3.63269 51.4711 3.63269Z" stroke="#DFDFDF" stroke-width="6" stroke-miterlimit="10"/>
<path d="M234.208 5.6571H51.5826C26.2353 5.6571 5.67871 26.0978 5.67871 51.3199C5.67871 76.5341 26.2274 96.9827 51.5826 96.9827H234.208C259.555 96.9827 280.112 76.542 280.112 51.3199C280.112 26.1057 259.563 5.6571 234.208 5.6571Z" stroke="#606060" stroke-miterlimit="10"/>
<defs>
<linearGradient id="paint0_linear" x1="282.262" y1="51.3201" x2="3.52756" y2="51.3201" gradientUnits="userSpaceOnUse">
<stop stop-color="#B6B6B6"/>
<stop offset="0.349" stop-color="#8F8F8F"/>
<stop offset="1" stop-color="#EDEDED"/>
</linearGradient>
<linearGradient id="paint1_linear" x1="53.4252" y1="38.8762" x2="84.8718" y2="72.7766" gradientUnits="userSpaceOnUse">
<stop stop-color="#B6B6B6"/>
<stop offset="0.349" stop-color="#8F8F8F"/>
<stop offset="1" stop-color="#EDEDED"/>
</linearGradient>
</defs>
</svg>
