<svg width="286" height="105" viewBox="0 0 286 105" fill="none" xmlns="http://www.w3.org/2000/svg">
<path d="M51.4711 3.16431H234.318C260.798 3.16431 282.257 25.1426 282.257 52.2446C282.257 79.3547 260.79 101.325 234.318 101.325H51.4711C24.9915 101.325 3.53223 79.3466 3.53223 52.2446C3.52431 25.1426 24.9915 3.16431 51.4711 3.16431Z" fill="url(#paint0_linear)"/>
<path d="M53.546 65.4349H41.589C34.9849 65.4349 29.624 59.9545 29.624 53.1851C29.624 46.4238 34.977 40.9353 41.589 40.9353H53.5539V65.4349H53.546Z" fill="#898989"/>
<path d="M89.4407 40.9436H77.4758H53.5459V65.4432V77.693C53.5459 84.4543 58.8988 89.9428 65.5108 89.9428C72.1149 89.9428 77.4758 84.4625 77.4758 77.693V65.4432H89.4407C96.0448 65.4432 101.406 59.9628 101.406 53.1934C101.406 46.424 96.0448 40.9436 89.4407 40.9436Z" fill="#898989"/>
<path d="M77.4758 28.6937C77.4758 35.455 72.1228 40.9435 65.5108 40.9435C58.9068 40.9435 53.5459 35.4631 53.5459 28.6937C53.5459 21.9323 58.8988 16.4438 65.5108 16.4438C72.1228 16.4438 77.4758 21.9242 77.4758 28.6937Z" fill="#898989"/>
<path d="M52.5637 64.7621H40.5987C33.9946 64.7621 28.6338 59.2817 28.6338 52.5123C28.6338 45.751 33.9867 40.2625 40.5987 40.2625H52.5637V64.7621Z" fill="white"/>
<path d="M88.4503 40.2625H76.4854H52.5635V64.7621V77.0119C52.5635 83.7732 57.9164 89.2617 64.5284 89.2617C71.1325 89.2617 76.4933 83.7813 76.4933 77.0119V64.7621H88.4583C95.0623 64.7621 100.423 59.2817 100.423 52.5123C100.415 45.751 95.0544 40.2625 88.4503 40.2625Z" fill="url(#paint1_linear)"/>
<path d="M76.4855 28.0208C76.4855 34.7821 71.1326 40.2706 64.5206 40.2706C57.9165 40.2706 52.5557 34.7902 52.5557 28.0208C52.5557 21.2595 57.9086 15.771 64.5206 15.771C71.1326 15.771 76.4855 21.2514 76.4855 28.0208Z" fill="white"/>
<path d="M130.142 50.1694V40.2707H122.318V50.1694H117.805V26.5129H122.318V36.1847H130.142V26.5129H134.655V50.1694H130.142Z" fill="#898989"/>
<path d="M140.04 50.1694V26.5129H155.259V30.6313H144.546V36.1766H153.668V40.295H144.546V46.0429H155.259V50.1613H140.04V50.1694Z" fill="#898989"/>
<path d="M172.815 50.1694L171.453 45.9862H163.242L161.848 50.1694H157.145L165.554 26.5129H169.094L177.535 50.1694H172.815ZM167.431 33.485L164.509 42.0948H170.25L167.431 33.485Z" fill="#898989"/>
<path d="M180.377 50.1694V26.5129H184.891V46.051H195.375V50.1694H180.377Z" fill="#898989"/>
<path d="M205.272 30.6313V50.1694H200.759V30.6313H194.725V26.5129H211.306V30.6313H205.272Z" fill="#898989"/>
<path d="M227.302 50.1694V40.2707H219.478V50.1694H214.965V26.5129H219.478V36.1847H227.302V26.5129H231.816V50.1694H227.302Z" fill="#898989"/>
<path d="M246.029 40.4652V50.1694H241.547V40.4652L234.603 26.5129H239.504L243.82 36.0469L248.072 26.5129H252.974L246.029 40.4652Z" fill="#898989"/>
<path d="M117.805 81.8438V58.1792H122.318V77.7173H132.802V81.8357H117.805V81.8438Z" fill="#898989"/>
<path d="M136.469 81.8438V58.1792H140.982V81.8357H136.469V81.8438Z" fill="#898989"/>
<path d="M150.88 62.3057V68.1185H160.002V72.2369H150.88V81.8438H146.366V58.1792H161.586V62.2976H150.88V62.3057Z" fill="#898989"/>
<path d="M165.514 81.8438V58.1792H180.733V62.2976H170.019V67.8429H179.142V71.9612H170.019V77.7092H180.733V81.8276H165.514V81.8438Z" fill="#898989"/>
<path d="M129.033 49.4963V39.5976H121.21V49.4963H116.696V25.8398H121.21V35.5116H129.033V25.8398H133.547V49.4963H129.033Z" fill="white"/>
<path d="M138.932 49.4963V25.8398H154.151V29.9582H143.437V35.5035H152.559V39.6219H143.437V45.3698H154.151V49.4882H138.932V49.4963Z" fill="white"/>
<path d="M171.715 49.4963L170.353 45.3131H162.141L160.748 49.4963H156.044L164.453 25.8398H167.993L176.434 49.4963H171.715ZM166.322 32.82L163.4 41.4298H169.141L166.322 32.82Z" fill="white"/>
<path d="M179.276 49.4963V25.8398H183.79V45.3779H194.274V49.4963H179.276Z" fill="white"/>
<path d="M204.164 29.9582V49.4963H199.65V29.9582H193.616V25.8398H210.198V29.9582H204.164Z" fill="white"/>
<path d="M226.202 49.4963V39.5976H218.379V49.4963H213.865V25.8398H218.379V35.5116H226.202V25.8398H230.716V49.4963H226.202Z" fill="white"/>
<path d="M244.929 39.7921V49.4963H240.448V39.7921L233.503 25.8398H238.405L242.72 35.3738L246.972 25.8398H251.874L244.929 39.7921Z" fill="white"/>
<path d="M116.704 81.1709V57.5144H121.218V77.0525H131.702V81.1709H116.704Z" fill="white"/>
<path d="M135.36 81.1709V57.5144H139.874V81.1709H135.36Z" fill="white"/>
<path d="M149.771 61.6326V67.4454H158.894V71.5638H149.771V81.1626H145.258V57.5061H160.477V61.6245H149.771V61.6326Z" fill="white"/>
<path d="M164.413 81.1709V57.5144H179.633V61.6328H168.919V67.1862H178.041V71.3046H168.919V77.0525H179.633V81.1709H164.413Z" fill="white"/>
<path d="M51.4711 3.16431H234.318C260.798 3.16431 282.257 25.1426 282.257 52.2446C282.257 79.3547 260.79 101.325 234.318 101.325H51.4711C24.9915 101.325 3.53223 79.3466 3.53223 52.2446C3.52431 25.1426 24.9915 3.16431 51.4711 3.16431Z" stroke="#ECECEC" stroke-width="6" stroke-miterlimit="10"/>
<path d="M234.208 5.2561H51.5826C26.2353 5.2561 5.67871 26.294 5.67871 52.2529C5.67871 78.2037 26.2274 99.2497 51.5826 99.2497H234.208C259.555 99.2497 280.112 78.2118 280.112 52.2529C280.112 26.294 259.563 5.2561 234.208 5.2561Z" stroke="#898989" stroke-miterlimit="10"/>
<defs>
<linearGradient id="paint0_linear" x1="282.262" y1="52.2478" x2="3.52756" y2="52.2478" gradientUnits="userSpaceOnUse">
<stop stop-color="#B6B6B6"/>
<stop offset="1" stop-color="#EDEDED"/>
</linearGradient>
<linearGradient id="paint1_linear" x1="52.5605" y1="64.7615" x2="100.414" y2="64.7615" gradientUnits="userSpaceOnUse">
<stop stop-color="#B6B6B6"/>
<stop offset="1" stop-color="#EDEDED"/>
</linearGradient>
</defs>
</svg>
