<svg width="68" height="54" viewBox="0 0 68 54" fill="none" xmlns="http://www.w3.org/2000/svg">
<path d="M24.0016 31.0895C19.9245 31.0895 16.6077 34.4063 16.6077 38.4833C16.6077 42.5603 19.9245 45.8771 24.0016 45.8771C28.0785 45.8771 31.3953 42.5603 31.3953 38.4833C31.3953 34.4063 28.0785 31.0895 24.0016 31.0895ZM24.0016 43.9433C20.9909 43.9433 18.5416 41.494 18.5416 38.4833C18.5416 35.4727 20.9909 33.0232 24.0016 33.0232C27.0122 33.0232 29.4616 35.4726 29.4616 38.4833C29.4616 41.494 27.0123 43.9433 24.0016 43.9433ZM63.9251 32.3152L66.9469 27.6733C68.907 24.6622 68.0514 20.6175 65.0395 18.6565C62.6397 17.0952 59.5794 17.2842 57.4152 19.0256C56.5206 18.2998 55.4451 17.8243 54.304 17.6477V10.3703C54.304 9.82015 53.858 9.37417 53.3079 9.37417C52.7578 9.37417 52.3118 9.82015 52.3118 10.3703V17.647C49.386 18.1033 47.0785 20.4945 46.8143 23.4955H46.1601C43.4817 23.5003 41.1309 25.1187 40.1431 27.5343C38.6563 27.2529 37.8253 27.3943 34.8039 27.3559C33.7291 27.3579 32.6871 27.621 31.7507 28.1224C28.5334 25.7164 24.3502 24.954 20.5219 26.017C21.4725 23.496 20.7887 20.5161 18.6324 18.7031C18.3696 18.4823 17.5734 17.8523 16.3726 17.2407V9.34854C16.3726 5.71004 19.3329 2.7498 22.9714 2.7498H45.7131C48.1494 2.7498 50.3791 4.08495 51.5322 6.23411C51.7924 6.71887 52.3964 6.90109 52.8808 6.64091C53.3655 6.38087 53.5477 5.77711 53.2876 5.29234C51.7871 2.4952 48.8846 0.757629 45.7129 0.757629H22.9715C18.2345 0.757629 14.3806 4.61155 14.3806 9.34854V16.4206C13.3274 16.0858 12.1175 15.8526 10.7899 15.8526C5.67959 15.8526 1.50201 19.198 0.813516 23.9942C0.558784 25.7695 0.813782 27.5187 1.55168 29.0975C-0.527746 31.5352 -0.551785 35.2218 1.68914 37.6944C2.88258 39.0112 4.39637 40.0514 6.07059 40.7474C5.16575 42.0398 4.67687 43.5715 4.67687 45.1874C4.67687 45.6984 4.7268 46.2096 4.82535 46.7069C4.91938 47.1812 5.33561 47.5097 5.80138 47.5097C5.86553 47.5097 5.93061 47.5034 5.99595 47.4904C6.53556 47.3835 6.88645 46.8594 6.7794 46.3198C6.70609 45.9497 6.6689 45.5687 6.6689 45.1874C6.6689 43.7765 7.16814 42.4506 8.08348 41.3986C9.24412 41.6718 10.4147 41.7758 11.47 41.7296C12.2684 44.8228 14.16 47.4247 16.6768 49.1528C14.5683 51.4 11.1103 51.5745 8.78552 49.6639C8.36052 49.3146 7.73272 49.3761 7.38356 49.8009C7.03427 50.2259 7.09563 50.8536 7.52062 51.2029C10.8073 53.9041 15.6909 53.4706 18.4377 50.1689C21.9838 51.8586 25.981 51.7991 29.3482 50.2695C31.2826 53.2504 35.258 54.1469 38.2884 52.2375C41.7286 54.4092 46.2994 52.9107 47.8075 49.1738C48.3037 49.0448 48.783 48.8566 49.2352 48.615C50.5253 51.2603 53.2068 52.9706 56.2244 52.9706C60.516 52.9706 64.0074 49.4793 64.0074 45.1876C64.0074 43.6104 63.5251 42.0765 62.6389 40.7861C63.4393 39.6977 63.9102 38.3645 63.9137 36.9557L63.9251 32.3152ZM56.2247 50.9784C54.6626 50.9784 53.2216 50.362 52.1658 49.3248C55.7938 49.8629 59.5358 47.1501 59.6377 43.0579C60.1989 42.8506 60.7219 42.5673 61.1965 42.2226C63.4799 46.0477 60.7314 50.9784 56.2247 50.9784ZM62.0949 31.4751C61.9902 31.636 61.9341 31.824 61.9337 32.0161L61.9218 36.9507C61.9165 39.0396 60.4339 40.891 58.3961 41.3526C57.907 41.4634 57.5767 41.9206 57.6248 42.4197C58.011 46.4257 53.3738 48.894 50.2722 46.3797C49.9064 46.0831 49.3829 46.0833 49.0174 46.38C48.4037 46.878 47.6699 47.2071 46.8955 47.332C46.518 47.3928 46.2088 47.6641 46.0994 48.0305C45.2031 51.0342 41.4659 52.3075 38.916 50.2401C38.5503 49.9437 38.0269 49.9437 37.6611 50.2404C35.337 52.1266 31.8728 51.2626 30.6738 48.5452C30.438 48.0109 29.7935 47.7921 29.2804 48.0756C22.8136 51.6506 14.6001 47.866 13.2332 40.4819C13.1371 39.9621 12.6518 39.6076 12.1269 39.6752C9.06535 40.0682 5.46417 38.893 3.16507 36.3564C1.49338 34.5119 1.62964 31.6803 3.44039 30.0015C3.78066 29.6861 3.85808 29.1777 3.62726 28.7754C2.84885 27.4185 2.55773 25.863 2.78537 24.2771C3.3291 20.4897 6.62056 17.8446 10.7898 17.8446C14.3356 17.8446 16.8771 19.83 17.3504 20.2279C19.2129 21.7938 19.4932 24.6136 17.9751 26.5138C17.6924 26.8677 17.684 27.368 17.955 27.7311C18.0552 27.8655 18.1514 28.0034 18.2406 28.1411C18.5089 28.5548 19.0395 28.7101 19.4884 28.5059C23.2946 26.7769 27.8271 27.4012 31.0355 30.0966C31.3797 30.3856 31.8746 30.4087 32.2441 30.1523C33 29.6278 33.8863 29.3497 34.8058 29.3481C37.68 29.411 38.7881 29.1672 40.5276 29.6723C41.0742 29.8309 41.6405 29.5003 41.7736 28.9495C42.265 26.915 44.0702 25.4914 46.162 25.4877H47.8001C48.3777 25.4877 48.8352 24.9969 48.7935 24.4199C48.5997 21.7336 50.7397 19.5616 53.3068 19.5616C54.5908 19.5616 55.8166 20.1069 56.6701 21.0579C57.0542 21.4856 57.7395 21.511 58.1475 21.0637C59.6446 19.422 62.0862 19.1118 63.9528 20.3261C66.044 21.6875 66.6382 24.4958 65.2774 26.5864L62.0949 31.4751ZM12.4474 27.991C10.7627 27.3696 9.20255 26.6905 8.84409 26.5327C7.7982 25.7867 8.00353 24.0064 9.69209 23.4976C11.8551 22.8462 13.7913 24.4102 13.8205 24.4339C14.2292 24.7749 14.8371 24.7213 15.1797 24.3133C15.5233 23.9045 15.4704 23.2947 15.0617 22.9511C14.9512 22.8583 12.3186 20.6869 9.13415 21.646C5.87615 22.6276 5.32804 26.5507 7.84508 28.1917C8.11602 28.3681 10.7576 29.4288 11.778 29.8052C13.2886 30.3624 14.0518 31.26 13.8718 32.2678C13.6997 33.232 12.6333 34.2567 10.9966 34.2567C9.54135 34.2567 8.13474 33.6631 7.23375 32.6689C6.87516 32.2734 6.2637 32.2432 5.86792 32.6017C5.47227 32.9603 5.44226 33.5719 5.80072 33.9675C7.06229 35.3595 9.00453 36.1905 10.9966 36.1905C13.3564 36.1905 15.4108 34.6503 15.7755 32.6077C16.1941 30.2634 14.3308 28.6858 12.4474 27.991ZM34.3335 13.6107C32.6545 13.6107 31.0742 14.4983 29.9975 16.0458C29.6834 16.4974 29.7947 17.1181 30.2462 17.4324C30.6978 17.7466 31.3187 17.635 31.6328 17.1835C32.3316 16.1789 33.3159 15.6029 34.3334 15.6029C35.3509 15.6029 36.3352 16.179 37.0341 17.1835C37.3473 17.6336 37.9676 17.7474 38.4207 17.4324C38.8722 17.1181 38.9836 16.4974 38.6695 16.0458C37.593 14.4983 36.0125 13.6107 34.3335 13.6107ZM27.2622 11.3365C26.8805 11.7745 26.3294 12.0258 25.7503 12.0258C25.1711 12.0258 24.62 11.7745 24.2383 11.3365C23.8767 10.9217 23.2476 10.8787 22.8328 11.2399C22.4182 11.6014 22.3749 12.2305 22.7363 12.6453C23.4965 13.5176 24.5951 14.0179 25.7502 14.0179C26.9054 14.0179 28.0039 13.5176 28.7641 12.6453C29.1255 12.2305 29.0823 11.6014 28.6675 11.2399C28.2529 10.8785 27.6236 10.9217 27.2622 11.3365ZM54.0883 33.3525C54.0883 30.9773 52.0711 29.045 49.5918 29.045H46.176C46.1754 29.045 46.1747 29.0451 46.1739 29.0451C46.1731 29.0451 46.1726 29.045 46.1718 29.045C45.6378 29.045 45.2049 29.478 45.2049 30.0119V42.8658C45.2049 43.3998 45.6379 43.8326 46.1718 43.8326C46.7058 43.8326 47.1387 43.3997 47.1387 42.8658V37.6694C47.1781 37.6691 47.2183 37.669 47.2593 37.6687L52.3955 43.5045C52.7487 43.9058 53.3598 43.9438 53.7601 43.5915C54.1609 43.2387 54.2 42.6276 53.8471 42.2268L49.8226 37.6542C52.1953 37.5387 54.0883 35.6534 54.0883 33.3525ZM49.5918 35.7261C49.0298 35.7261 47.9345 35.7313 47.1388 35.7355V30.9787H49.5918C50.9809 30.9787 52.1545 32.0658 52.1545 33.3525C52.1545 34.639 50.981 35.7261 49.5918 35.7261ZM62.0131 23.3082C61.5657 23.017 60.9667 23.1435 60.6753 23.5911L57.4123 28.6035L54.1174 23.5574C53.8254 23.1102 53.2261 22.9846 52.7792 23.2765C52.332 23.5684 52.2062 24.1675 52.4983 24.6147L56.4459 30.6607L56.4305 36.9375C56.4292 37.4715 56.8611 37.9054 57.395 37.9067H57.3975C57.9304 37.9067 58.3631 37.4754 58.3644 36.9422L58.3798 30.6621L62.296 24.6462C62.5873 24.1985 62.4607 23.5995 62.0131 23.3082ZM42.7322 37.2129C42.7322 34.8377 40.7151 32.9054 38.2356 32.9054H34.82C34.8193 32.9054 34.8187 32.9056 34.8179 32.9056C34.8172 32.9056 34.8166 32.9054 34.8158 32.9054C34.2817 32.9054 33.8489 33.3384 33.8489 33.8723V46.7262C33.8489 47.2602 34.2819 47.6931 34.8158 47.6931C35.3497 47.6931 35.7826 47.2602 35.7826 46.7262V41.5298C35.8221 41.5296 35.8623 41.5294 35.9032 41.5292L41.0394 47.3649C41.3926 47.7663 42.0038 47.8042 42.4041 47.4519C42.8049 47.0991 42.8439 46.4881 42.4911 46.0872L38.4666 41.5147C40.8391 41.3993 42.7322 39.5139 42.7322 37.2129ZM38.2358 39.5867C37.6735 39.5867 36.5783 39.5918 35.7829 39.5961V34.8393H38.2358C39.625 34.8393 40.7985 35.9264 40.7985 37.2129C40.7985 38.4996 39.6249 39.5867 38.2358 39.5867ZM44.4288 11.3365C44.0471 11.7745 43.4959 12.0258 42.9169 12.0258C42.3377 12.0258 41.7866 11.7745 41.4049 11.3365C41.0434 10.9218 40.4143 10.8785 39.9995 11.2399C39.5847 11.6013 39.5416 12.2305 39.903 12.6453C40.663 13.5176 41.7617 14.0179 42.9169 14.0179C44.072 14.0179 45.1705 13.5176 45.9307 12.6453C46.2921 12.2305 46.249 11.6014 45.8342 11.2399C45.4194 10.8785 44.7902 10.9217 44.4288 11.3365Z" fill="#02475B"/>
</svg>
