<svg width="36" height="36" viewBox="0 0 36 36" fill="none" xmlns="http://www.w3.org/2000/svg">
<g opacity="0.6" clip-path="url(#clip0)">
<path d="M18 36C27.9411 36 36 27.9411 36 18C36 8.05887 27.9411 0 18 0C8.05887 0 0 8.05887 0 18C0 27.9411 8.05887 36 18 36Z" fill="#FFD93B"/>
<path d="M36.0002 17.9999C36.0002 27.9449 27.9395 35.9999 18.0002 35.9999C12.3414 35.9999 7.29016 33.3899 3.98828 29.3005C7.07641 31.798 11.0083 33.2887 15.2889 33.2887C25.2283 33.2887 33.2889 25.2337 33.2889 15.2887C33.2889 11.008 31.7983 7.07616 29.3008 3.98804C33.3845 7.28991 36.0002 12.3412 36.0002 17.9999Z" fill="#F4C534"/>
<path d="M24.9321 28.6302C24.0366 29.1702 21.6269 26.7672 18.3059 26.7379C15.0332 26.7087 12.5751 29.1713 11.6796 28.6302C10.6075 28.1937 12.4412 22.9624 18.3059 22.9309C24.1705 22.9624 26.0042 28.1948 24.9321 28.6302Z" fill="#3E4347"/>
<path d="M27.445 15.5756C27.445 17.1608 26.1479 18.4579 24.556 18.4579C22.963 18.4579 21.667 17.1608 21.667 15.5756C21.667 13.9759 22.9641 12.6866 24.556 12.6866C26.149 12.6866 27.445 13.9759 27.445 15.5756Z" fill="#3E4347"/>
<path d="M25.8785 13.9459C25.5233 13.6375 25.0763 13.5709 24.8799 13.797C24.6836 14.0231 24.8123 14.4564 25.1675 14.7648C25.5226 15.0731 25.9697 15.1398 26.166 14.9137C26.3624 14.6875 26.2336 14.2542 25.8785 13.9459Z" fill="#5A5F63"/>
<path d="M14.3327 15.5756C14.3327 17.1608 13.0356 18.4579 11.4437 18.4579C9.85181 18.4579 8.55469 17.1608 8.55469 15.5756C8.55469 13.9759 9.85181 12.6866 11.4437 12.6866C13.0356 12.6866 14.3327 13.9759 14.3327 15.5756Z" fill="#3E4347"/>
<path d="M12.7652 13.9469C12.41 13.6385 11.963 13.5719 11.7666 13.798C11.5703 14.0241 11.6991 14.4574 12.0542 14.7658C12.4094 15.0741 12.8564 15.1408 13.0528 14.9146C13.2491 14.6885 13.1204 14.2552 12.7652 13.9469Z" fill="#5A5F63"/>
</g>
<defs>
<clipPath id="clip0">
<rect width="36" height="36" fill="white"/>
</clipPath>
</defs>
</svg>
