<svg width="80" height="62" viewBox="0 0 80 62" fill="none" xmlns="http://www.w3.org/2000/svg">
<path d="M28.2372 35.8111C23.4406 35.8111 19.5385 39.7133 19.5385 44.5097C19.5385 49.3062 23.4406 53.2084 28.2372 53.2084C33.0335 53.2084 36.9357 49.3062 36.9357 44.5097C36.9357 39.7133 33.0335 35.8111 28.2372 35.8111ZM28.2372 50.9332C24.6951 50.9332 21.8136 48.0517 21.8136 44.5097C21.8136 40.9678 24.6951 38.0861 28.2372 38.0861C31.779 38.0861 34.6607 40.9677 34.6607 44.5097C34.6607 48.0517 31.7792 50.9332 28.2372 50.9332ZM75.206 37.2532L78.7611 31.7921C81.067 28.2496 80.0605 23.4911 76.5171 21.1841C73.6938 19.3472 70.0934 19.5696 67.5473 21.6183C66.4948 20.7644 65.2295 20.205 63.887 19.9972V11.4356C63.887 10.7884 63.3623 10.2637 62.7151 10.2637C62.068 10.2637 61.5433 10.7884 61.5433 11.4356V19.9964C58.1011 20.5333 55.3865 23.3464 55.0757 26.877H54.306C51.1549 26.8826 48.3893 28.7867 47.2271 31.6285C45.4779 31.2974 44.5003 31.4638 40.9458 31.4187C39.6813 31.421 38.4553 31.7306 37.3538 32.3204C33.5687 29.4898 28.6473 28.5929 24.1434 29.8435C25.2617 26.8776 24.4573 23.3719 21.9205 21.2389C21.6113 20.9791 20.6746 20.238 19.2619 19.5185V10.2335C19.2619 5.95295 22.7445 2.47032 27.0251 2.47032H53.7801C56.6463 2.47032 59.2695 4.04109 60.6261 6.5695C60.9322 7.13981 61.6428 7.35419 62.2127 7.0481C62.783 6.74216 62.9973 6.03185 62.6912 5.46155C60.9259 2.17079 57.5113 0.126587 53.7799 0.126587H27.0253C21.4524 0.126587 16.9183 4.66061 16.9183 10.2335V18.5536C15.6793 18.1597 14.2559 17.8854 12.694 17.8854C6.68186 17.8854 1.76706 21.8211 0.957063 27.4637C0.657378 29.5523 0.957375 31.6102 1.82549 33.4676C-0.620893 36.3355 -0.649174 40.6727 1.98721 43.5816C3.39126 45.1308 5.17218 46.3545 7.14186 47.1734C6.07733 48.6939 5.50218 50.4959 5.50218 52.397C5.50218 52.998 5.56093 53.5994 5.67687 54.1846C5.78749 54.7426 6.27717 55.129 6.82514 55.129C6.90061 55.129 6.97717 55.1216 7.05404 55.1063C7.68888 54.9805 8.10169 54.364 7.97575 53.7291C7.88951 53.2937 7.84576 52.8455 7.84576 52.397C7.84576 50.737 8.43309 49.1771 9.50996 47.9395C10.8754 48.2609 12.2526 48.3832 13.4941 48.3289C14.4334 51.9679 16.6588 55.029 19.6197 57.0621C17.1391 59.7058 13.0709 59.9111 10.3359 57.6633C9.8359 57.2524 9.09731 57.3247 8.68653 57.8246C8.2756 58.3246 8.34778 59.063 8.84778 59.4739C12.7145 62.6519 18.4599 62.1419 21.6914 58.2575C25.8633 60.2453 30.5659 60.1753 34.5273 58.3758C36.803 61.8828 41.48 62.9375 45.0451 60.6911C49.0924 63.2461 54.4699 61.4831 56.2441 57.0868C56.8279 56.9351 57.3918 56.7136 57.9238 56.4294C59.4416 59.5414 62.5962 61.5536 66.1464 61.5536C71.1952 61.5536 75.3028 57.4461 75.3028 52.3971C75.3028 50.5417 74.7354 48.737 73.6929 47.2189C74.6344 45.9384 75.1885 44.37 75.1925 42.7125L75.206 37.2532ZM66.1467 59.2099C64.3089 59.2099 62.6136 58.4847 61.3716 57.2644C65.6398 57.8975 70.0421 54.706 70.162 49.8917C70.8223 49.6478 71.4376 49.3145 71.9958 48.9089C74.6822 53.409 71.4487 59.2099 66.1467 59.2099ZM73.0529 36.2647C72.9296 36.4541 72.8637 36.6752 72.8632 36.9013L72.8491 42.7067C72.8429 45.1642 71.0987 47.3423 68.7013 47.8854C68.1259 48.0157 67.7373 48.5536 67.7939 49.1407C68.2482 53.8537 62.7926 56.7576 59.1438 53.7996C58.7135 53.4507 58.0975 53.4509 57.6675 53.7999C56.9455 54.3858 56.0822 54.773 55.1711 54.9199C54.7271 54.9915 54.3633 55.3107 54.2346 55.7418C53.1801 59.2755 48.7834 60.7735 45.7836 58.3413C45.3533 57.9925 44.7375 57.9925 44.3072 58.3416C41.573 60.5606 37.4974 59.5442 36.0868 56.3472C35.8094 55.7187 35.0512 55.4613 34.4476 55.7947C26.8395 60.0006 17.1766 55.5482 15.5685 46.8611C15.4554 46.2495 14.8844 45.8325 14.267 45.912C10.6651 46.3743 6.42842 44.9917 3.7236 42.0075C1.7569 39.8375 1.91721 36.5061 4.04751 34.5312C4.44782 34.1601 4.53891 33.5619 4.26735 33.0887C3.35157 31.4923 3.00908 29.6623 3.27689 27.7965C3.91657 23.3408 7.78888 20.2289 12.6938 20.2289C16.8654 20.2289 19.8553 22.5647 20.4122 23.0328C22.6034 24.875 22.9331 28.1925 21.1472 30.4279C20.8146 30.8443 20.8047 31.4329 21.1235 31.8601C21.2414 32.0182 21.3546 32.1804 21.4596 32.3424C21.7752 32.8291 22.3994 33.0118 22.9275 32.7716C27.4054 30.7374 32.7377 31.472 36.5124 34.643C36.9172 34.983 37.4996 35.0102 37.9343 34.7085C38.8235 34.0915 39.8663 33.7643 40.948 33.7624C44.3294 33.8365 45.6331 33.5496 47.6795 34.1438C48.3226 34.3304 48.9889 33.9415 49.1454 33.2935C49.7235 30.8999 51.8473 29.2251 54.3082 29.2207H56.2354C56.9149 29.2207 57.4532 28.6434 57.4041 27.9645C57.1761 24.8042 59.6938 22.2489 62.7139 22.2489C64.2245 22.2489 65.6665 22.8905 66.6707 24.0092C67.1226 24.5125 67.9289 24.5423 68.4089 24.0161C70.1701 22.0847 73.0426 21.7197 75.2386 23.1483C77.6988 24.75 78.3978 28.0539 76.7969 30.5134L73.0529 36.2647ZM14.644 32.1659C12.662 31.4348 10.8265 30.6359 10.4048 30.4503C9.17434 29.5726 9.4159 27.4781 11.4024 26.8795C13.9471 26.1131 16.2251 27.9531 16.2594 27.9811C16.7402 28.3821 17.4554 28.3192 17.8585 27.8392C18.2627 27.3582 18.2005 26.6408 17.7196 26.2365C17.5896 26.1273 14.4924 23.5728 10.746 24.7011C6.91311 25.8559 6.26827 30.4713 9.22949 32.402C9.54824 32.6095 12.656 33.8574 13.8565 34.3002C15.6337 34.9557 16.5315 36.0118 16.3197 37.1974C16.1172 38.3318 14.8627 39.5372 12.9371 39.5372C11.2251 39.5372 9.57027 38.8389 8.51028 37.6693C8.08841 37.204 7.36904 37.1685 6.90342 37.5902C6.43795 38.0121 6.40264 38.7316 6.82436 39.1971C8.30856 40.8347 10.5935 41.8124 12.9371 41.8124C15.7133 41.8124 18.1304 40.0003 18.5594 37.5972C19.0519 34.8393 16.8597 32.9832 14.644 32.1659ZM40.3924 15.2479C38.4171 15.2479 36.5579 16.2921 35.2912 18.1127C34.9216 18.6439 35.0526 19.3742 35.5838 19.7439C36.1151 20.1136 36.8455 19.9824 37.215 19.4511C38.0372 18.2693 39.1952 17.5916 40.3922 17.5916C41.5892 17.5916 42.7473 18.2694 43.5695 19.4511C43.938 19.9806 44.6678 20.1146 45.2008 19.7439C45.732 19.3742 45.8631 18.6439 45.4936 18.1127C44.227 16.2921 42.3677 15.2479 40.3924 15.2479ZM32.0732 12.5723C31.6242 13.0876 30.9757 13.3832 30.2945 13.3832C29.6131 13.3832 28.9646 13.0876 28.5156 12.5723C28.0903 12.0843 27.3501 12.0337 26.8622 12.4587C26.3744 12.884 26.3234 13.6241 26.7486 14.1121C27.6429 15.1383 28.9354 15.7269 30.2943 15.7269C31.6534 15.7269 32.9457 15.1383 33.8401 14.1121C34.2652 13.6241 34.2144 12.884 33.7265 12.4587C33.2387 12.0335 32.4984 12.0843 32.0732 12.5723ZM63.6333 38.4735C63.6333 35.6791 61.2602 33.4059 58.3433 33.4059H54.3247C54.324 33.4059 54.3232 33.406 54.3222 33.406C54.3213 33.406 54.3207 33.4059 54.3197 33.4059C53.6915 33.4059 53.1823 33.9152 53.1823 34.5433V49.6656C53.1823 50.2938 53.6916 50.8031 54.3197 50.8031C54.948 50.8031 55.4572 50.2937 55.4572 49.6656V43.5522C55.5036 43.5519 55.551 43.5517 55.5991 43.5514L61.6417 50.417C62.0573 50.8892 62.7762 50.9338 63.2472 50.5193C63.7187 50.1043 63.7647 49.3854 63.3495 48.9139L58.6149 43.5344C61.4062 43.3984 63.6333 41.1805 63.6333 38.4735ZM58.3433 41.266C57.6821 41.266 56.3935 41.272 55.4574 41.277V35.6808H58.3433C59.9775 35.6808 61.3583 36.9597 61.3583 38.4735C61.3583 39.9871 59.9777 41.266 58.3433 41.266ZM72.9566 26.6567C72.4302 26.314 71.7255 26.4629 71.3827 26.9895L67.5439 32.8865L63.6675 26.9498C63.324 26.4237 62.6189 26.2759 62.0931 26.6193C61.567 26.9628 61.4191 27.6676 61.7627 28.1937L66.407 35.3066L66.3889 42.6911C66.3873 43.3194 66.8954 43.8298 67.5235 43.8314H67.5265C68.1534 43.8314 68.6624 43.3239 68.664 42.6967L68.6821 35.3083L73.2894 28.2307C73.6321 27.704 73.4832 26.9993 72.9566 26.6567ZM50.2732 43.0152C50.2732 40.2208 47.9001 37.9475 44.9831 37.9475H40.9647C40.9639 37.9475 40.9631 37.9477 40.9622 37.9477C40.9614 37.9477 40.9606 37.9475 40.9597 37.9475C40.3314 37.9475 39.8222 38.4569 39.8222 39.085V54.2073C39.8222 54.8355 40.3316 55.3447 40.9597 55.3447C41.5878 55.3447 42.0972 54.8355 42.0972 54.2073V48.0939C42.1436 48.0936 42.1909 48.0934 42.2391 48.0931L48.2817 54.9587C48.6971 55.4308 49.4162 55.4755 49.8871 55.061C50.3587 54.646 50.4046 53.9271 49.9895 53.4555L45.2548 48.0761C48.046 47.9403 50.2732 45.7222 50.2732 43.0152ZM44.9833 45.8078C44.3217 45.8078 43.0333 45.8139 42.0975 45.8189V40.2227H44.9833C46.6176 40.2227 47.9982 41.5016 47.9982 43.0152C47.9982 44.5289 46.6175 45.8078 44.9833 45.8078ZM52.2691 12.5723C51.8201 13.0876 51.1716 13.3832 50.4904 13.3832C49.809 13.3832 49.1607 13.0876 48.7117 12.5723C48.2864 12.0845 47.5462 12.0335 47.0582 12.4587C46.5703 12.8838 46.5195 13.6241 46.9447 14.1121C47.8389 15.1383 49.1314 15.7269 50.4904 15.7269C51.8495 15.7269 53.1418 15.1383 54.0362 14.1121C54.4613 13.6241 54.4105 12.884 53.9226 12.4587C53.4346 12.0335 52.6943 12.0843 52.2691 12.5723Z" fill="#07AE8B"/>
</svg>
